<?xml version="1.0" encoding="UTF-8"?>
<!DOCTYPE svg PUBLIC "-//W3C//DTD SVG 1.1//EN" "http://www.w3.org/Graphics/SVG/1.1/DTD/svg11.dtd">
<svg xmlns="http://www.w3.org/2000/svg" version="1.1" width="354px" height="347px" style="shape-rendering:geometricPrecision; text-rendering:geometricPrecision; image-rendering:optimizeQuality; fill-rule:evenodd; clip-rule:evenodd" xmlns:xlink="http://www.w3.org/1999/xlink">
<g><path style="opacity:0.18" fill="#d8dcdc" d="M 184.5,58.5 C 179.604,56.4289 174.604,56.0956 169.5,57.5C 169.611,56.8826 169.944,56.3826 170.5,56C 174.926,55.2093 179.259,55.5427 183.5,57C 184.056,57.3826 184.389,57.8826 184.5,58.5 Z"/></g>
<g><path style="opacity:0.722" fill="#9a9fa0" d="M 169.5,57.5 C 167.471,59.8585 165.471,62.1918 163.5,64.5C 164.054,60.9452 166.054,58.6118 169.5,57.5 Z"/></g>
<g><path style="opacity:0.224" fill="#c3c7c6" d="M 186.5,60.5 C 187.906,60.9731 188.573,61.9731 188.5,63.5C 188.167,63.5 187.833,63.5 187.5,63.5C 186.89,62.609 186.557,61.609 186.5,60.5 Z"/></g>
<g><path style="opacity:0.702" fill="#adb2af" d="M 163.5,64.5 C 161.562,66.1628 159.228,66.8294 156.5,66.5C 158.599,65.3882 160.933,64.7215 163.5,64.5 Z"/></g>
<g><path style="opacity:0.271" fill="#b5b9b9" d="M 189.5,65.5 C 193.122,65.322 196.456,65.9886 199.5,67.5C 195.878,67.678 192.544,67.0114 189.5,65.5 Z"/></g>
<g><path style="opacity:0.039" fill="#b9c4c5" d="M 202.5,68.5 C 205.152,68.4095 207.485,69.0762 209.5,70.5C 206.848,70.5905 204.515,69.9238 202.5,68.5 Z"/></g>
<g><path style="opacity:0.855" fill="#6d7477" d="M 156.5,66.5 C 156.5,66.8333 156.5,67.1667 156.5,67.5C 152.214,68.7066 147.88,69.7066 143.5,70.5C 147.403,68.1022 151.736,66.7689 156.5,66.5 Z"/></g>
<g><path style="opacity:1" fill="#10181d" d="M 164.5,73.5 C 161.171,73.2153 158.171,73.8819 155.5,75.5C 153.485,76.9238 151.152,77.5905 148.5,77.5C 145.458,77.7329 142.792,78.7329 140.5,80.5C 137.485,82.6744 134.151,84.3411 130.5,85.5C 128.973,85.427 127.973,86.0937 127.5,87.5C 125.973,87.427 124.973,88.0937 124.5,89.5C 122.473,89.3379 120.473,89.5045 118.5,90C 120.932,91.0875 120.598,91.5875 117.5,91.5C 117.5,92.5 117.5,93.5 117.5,94.5C 116.527,94.9867 115.527,95.4867 114.5,96C 115.523,98.449 116.023,100.949 116,103.5C 115.667,103.167 115.333,102.833 115,102.5C 114.29,103.973 113.124,104.64 111.5,104.5C 111.949,106.977 111.283,108.977 109.5,110.5C 108.749,109.624 108.249,108.624 108,107.5C 107.683,109.301 107.016,109.634 106,108.5C 105.517,107.552 105.351,106.552 105.5,105.5C 109.318,104.201 110.818,101.534 110,97.5C 109.617,96.944 109.117,96.6107 108.5,96.5C 108.5,96.1667 108.5,95.8333 108.5,95.5C 108.539,94.4168 108.873,93.4168 109.5,92.5C 108.975,91.8076 108.308,91.3076 107.5,91C 109.271,88.8865 110.771,89.0532 112,91.5C 114.172,90.4911 115.338,88.8244 115.5,86.5C 115.833,85.8333 116.167,85.1667 116.5,84.5C 118.027,84.573 119.027,83.9063 119.5,82.5C 121.853,81.6597 123.853,80.3264 125.5,78.5C 125.842,77.6618 126.508,77.3284 127.5,77.5C 130.32,77.913 132.32,76.913 133.5,74.5C 134.514,73.3263 135.847,72.6596 137.5,72.5C 139.898,72.7406 141.898,72.0739 143.5,70.5C 147.88,69.7066 152.214,68.7066 156.5,67.5C 159.119,67.2317 161.619,67.565 164,68.5C 165.512,67.7433 166.846,66.7433 168,65.5C 170.665,69.2268 169.498,71.8935 164.5,73.5 Z"/></g>
<g><path style="opacity:1" fill="#11181d" d="M 187.5,63.5 C 187.833,63.5 188.167,63.5 188.5,63.5C 189.338,63.8417 189.672,64.5084 189.5,65.5C 192.544,67.0114 195.878,67.678 199.5,67.5C 200.791,67.2627 201.791,67.596 202.5,68.5C 204.515,69.9238 206.848,70.5905 209.5,70.5C 210.78,71.9313 212.447,72.5979 214.5,72.5C 215.492,72.3284 216.158,72.6618 216.5,73.5C 216.351,74.552 216.517,75.552 217,76.5C 218.356,75.6198 219.856,75.2865 221.5,75.5C 222.167,76.1667 222.833,76.8333 223.5,77.5C 224.446,78.9308 225.612,80.2642 227,81.5C 227.893,80.2888 228.726,80.2888 229.5,81.5C 226.189,83.9323 223.022,83.9323 220,81.5C 218.989,82.3366 217.822,82.67 216.5,82.5C 215.365,80.7868 213.698,80.1201 211.5,80.5C 210.01,78.7202 208.01,78.0535 205.5,78.5C 204.01,76.7202 202.01,76.0535 199.5,76.5C 197.708,76.634 196.042,76.3007 194.5,75.5C 192.458,73.4094 190.125,73.0761 187.5,74.5C 186.909,73.8485 186.243,73.1818 185.5,72.5C 186.624,71.086 187.624,69.586 188.5,68C 187.833,67.6667 187.167,67.3333 186.5,67C 187.337,65.9887 187.67,64.8221 187.5,63.5 Z"/></g>
<g><path style="opacity:0.745" fill="#919697" d="M 143.5,70.5 C 141.898,72.0739 139.898,72.7406 137.5,72.5C 139.214,71.2616 141.214,70.595 143.5,70.5 Z"/></g>
<g><path style="opacity:0.318" fill="#babec0" d="M 209.5,70.5 C 211.553,70.4021 213.22,71.0687 214.5,72.5C 212.447,72.5979 210.78,71.9313 209.5,70.5 Z"/></g>
<g><path style="opacity:0.404" fill="#a5aeaf" d="M 164.5,73.5 C 164.5,74.5 164.5,75.5 164.5,76.5C 163.849,75.9094 163.182,75.2427 162.5,74.5C 160.253,75.3742 157.92,75.7076 155.5,75.5C 158.171,73.8819 161.171,73.2153 164.5,73.5 Z"/></g>
<g><path style="opacity:1" fill="#081218" d="M 184.5,58.5 C 185.5,58.8333 186.167,59.5 186.5,60.5C 186.557,61.609 186.89,62.609 187.5,63.5C 187.67,64.8221 187.337,65.9887 186.5,67C 187.167,67.3333 187.833,67.6667 188.5,68C 187.624,69.586 186.624,71.086 185.5,72.5C 186.243,73.1818 186.909,73.8485 187.5,74.5C 187.5,75.1667 187.5,75.8333 187.5,76.5C 185.833,77.5 184.5,78.8333 183.5,80.5C 179.232,81.3726 174.898,81.7059 170.5,81.5C 170.027,80.0937 169.027,79.427 167.5,79.5C 167.167,78.5 166.5,77.8333 165.5,77.5C 164.833,77.5 164.5,77.1667 164.5,76.5C 164.5,75.5 164.5,74.5 164.5,73.5C 169.498,71.8935 170.665,69.2268 168,65.5C 166.846,66.7433 165.512,67.7433 164,68.5C 161.619,67.565 159.119,67.2317 156.5,67.5C 156.5,67.1667 156.5,66.8333 156.5,66.5C 159.228,66.8294 161.562,66.1628 163.5,64.5C 165.471,62.1918 167.471,59.8585 169.5,57.5C 174.604,56.0956 179.604,56.4289 184.5,58.5 Z M 180.5,71.5 C 178.304,73.5446 175.97,73.8779 173.5,72.5C 173.167,72.5 172.833,72.5 172.5,72.5C 171.324,65.5177 173.824,63.8511 180,67.5C 180.49,68.7932 180.657,70.1266 180.5,71.5 Z"/></g>
<g><path style="opacity:0.435" fill="#b4b9ba" d="M 180.5,71.5 C 180.126,73.9497 178.626,74.9497 176,74.5C 174.319,74.3917 173.152,73.7251 172.5,72.5C 172.833,72.5 173.167,72.5 173.5,72.5C 175.97,73.8779 178.304,73.5446 180.5,71.5 Z"/></g>
<g><path style="opacity:0.012" fill="#c7cccd" d="M 180.5,71.5 C 180.657,70.1266 180.49,68.7932 180,67.5C 173.824,63.8511 171.324,65.5177 172.5,72.5C 169.998,70.2009 169.998,67.7009 172.5,65C 179.297,62.9881 181.964,65.1547 180.5,71.5 Z"/></g>
<g><path style="opacity:0.784" fill="#949c9e" d="M 194.5,75.5 C 191.723,74.4719 189.39,74.8053 187.5,76.5C 187.5,75.8333 187.5,75.1667 187.5,74.5C 190.125,73.0761 192.458,73.4094 194.5,75.5 Z"/></g>
<g><path style="opacity:1" fill="#5d6262" d="M 216.5,73.5 C 218.553,73.4021 220.22,74.0687 221.5,75.5C 219.856,75.2865 218.356,75.6198 217,76.5C 216.517,75.552 216.351,74.552 216.5,73.5 Z"/></g>
<g><path style="opacity:0.075" fill="#dddedf" d="M 221.5,75.5 C 223.38,75.2291 224.713,75.8958 225.5,77.5C 224.833,77.5 224.167,77.5 223.5,77.5C 222.833,76.8333 222.167,76.1667 221.5,75.5 Z"/></g>
<g><path style="opacity:1" fill="#5b6364" d="M 133.5,74.5 C 132.32,76.913 130.32,77.913 127.5,77.5C 129.181,75.9925 131.181,74.9925 133.5,74.5 Z"/></g>
<g><path style="opacity:0.784" fill="#92989a" d="M 199.5,76.5 C 202.01,76.0535 204.01,76.7202 205.5,78.5C 203.302,78.1249 201.302,77.4582 199.5,76.5 Z"/></g>
<g><path style="opacity:0.008" fill="#e1e4e5" d="M 165.5,77.5 C 166.5,77.8333 167.167,78.5 167.5,79.5C 166.167,79.5 165.5,78.8333 165.5,77.5 Z"/></g>
<g><path style="opacity:0.059" fill="#d1d3d4" d="M 187.5,76.5 C 187.167,78.8333 185.833,80.1667 183.5,80.5C 184.5,78.8333 185.833,77.5 187.5,76.5 Z"/></g>
<g><path style="opacity:0.804" fill="#999fa0" d="M 205.5,78.5 C 208.01,78.0535 210.01,78.7202 211.5,80.5C 209.214,80.405 207.214,79.7384 205.5,78.5 Z"/></g>
<g><path style="opacity:0.006" fill="#d2d6d6" d="M 125.5,78.5 C 123.853,80.3264 121.853,81.6597 119.5,82.5C 120.802,80.1782 122.802,78.8449 125.5,78.5 Z"/></g>
<g><path style="opacity:0.071" fill="#c9d0d0" d="M 148.5,77.5 C 146.208,79.2671 143.542,80.2671 140.5,80.5C 142.792,78.7329 145.458,77.7329 148.5,77.5 Z"/></g>
<g><path style="opacity:0.435" fill="#a1a5a4" d="M 167.5,79.5 C 169.027,79.427 170.027,80.0937 170.5,81.5C 168.973,81.573 167.973,80.9063 167.5,79.5 Z"/></g>
<g><path style="opacity:0.812" fill="#909395" d="M 211.5,80.5 C 213.698,80.1201 215.365,80.7868 216.5,82.5C 214.447,82.5979 212.78,81.9313 211.5,80.5 Z"/></g>
<g><path style="opacity:0.753" fill="#82878a" d="M 183.5,80.5 C 183.389,81.1174 183.056,81.6174 182.5,82C 178.311,82.8119 174.311,82.6453 170.5,81.5C 174.898,81.7059 179.232,81.3726 183.5,80.5 Z"/></g>
<g><path style="opacity:0.102" fill="#ced1d5" d="M 232.5,81.5 C 234.027,81.427 235.027,82.0937 235.5,83.5C 233.973,83.573 232.973,82.9063 232.5,81.5 Z"/></g>
<g><path style="opacity:0.624" fill="#989e9e" d="M 119.5,82.5 C 119.027,83.9063 118.027,84.573 116.5,84.5C 116.973,83.0937 117.973,82.427 119.5,82.5 Z"/></g>
<g><path style="opacity:0.004" fill="#d1d5d6" d="M 235.5,83.5 C 237.027,83.427 238.027,84.0937 238.5,85.5C 236.973,85.573 235.973,84.9063 235.5,83.5 Z"/></g>
<g><path style="opacity:0.006" fill="#cdd1d2" d="M 110.5,87.5 C 106.192,86.3499 101.859,86.3499 97.5,87.5C 101.194,85.5876 105.194,85.0876 109.5,86C 110.056,86.3826 110.389,86.8826 110.5,87.5 Z"/></g>
<g><path style="opacity:0.467" fill="#abb1b2" d="M 116.5,84.5 C 116.167,85.1667 115.833,85.8333 115.5,86.5C 114.609,87.1098 113.609,87.4431 112.5,87.5C 113.262,85.7376 114.596,84.7376 116.5,84.5 Z"/></g>
<g><path style="opacity:0.004" fill="#d8dddd" d="M 238.5,85.5 C 240.027,85.427 241.027,86.0937 241.5,87.5C 239.973,87.573 238.973,86.9063 238.5,85.5 Z"/></g>
<g><path style="opacity:0.016" fill="#dbdddc" d="M 130.5,85.5 C 130.027,86.9063 129.027,87.573 127.5,87.5C 127.973,86.0937 128.973,85.427 130.5,85.5 Z"/></g>
<g><path style="opacity:0.102" fill="#cdd4d4" d="M 222.5,85.5 C 224.027,85.427 225.027,86.0937 225.5,87.5C 223.973,87.573 222.973,86.9063 222.5,85.5 Z"/></g>
<g><path style="opacity:0.537" fill="#a2a8a9" d="M 97.5,87.5 C 96.1667,89.5 94.5,91.1667 92.5,92.5C 93.1667,89.8333 94.8333,88.1667 97.5,87.5 Z"/></g>
<g><path style="opacity:0.012" fill="#e0e2e2" d="M 127.5,87.5 C 127.027,88.9063 126.027,89.573 124.5,89.5C 124.973,88.0937 125.973,87.427 127.5,87.5 Z"/></g>
<g><path style="opacity:0.69" fill="#97999a" d="M 194.5,91.5 C 191.609,90.5975 188.609,90.2641 185.5,90.5C 187.218,89.776 189.052,89.1094 191,88.5C 192.729,88.9743 193.895,89.9743 194.5,91.5 Z"/></g>
<g><path style="opacity:0.006" fill="#e3e4e4" d="M 185.5,90.5 C 183.095,91.7682 180.428,92.4349 177.5,92.5C 177.611,91.8826 177.944,91.3826 178.5,91C 180.81,90.5034 183.143,90.3367 185.5,90.5 Z"/></g>
<g><path style="opacity:0.471" fill="#8c9193" d="M 229.5,89.5 C 231.027,89.427 232.027,90.0937 232.5,91.5C 230.973,91.573 229.973,90.9063 229.5,89.5 Z"/></g>
<g><path style="opacity:0.992" fill="#576061" d="M 241.5,87.5 C 243.909,88.7007 245.909,90.3674 247.5,92.5C 245.518,92.0046 243.518,91.5046 241.5,91C 242.171,90.0138 242.171,88.8471 241.5,87.5 Z"/></g>
<g><path style="opacity:1" fill="#767b7e" d="M 124.5,89.5 C 122.645,91.0331 120.812,92.6997 119,94.5C 118.819,97.6946 118.319,100.695 117.5,103.5C 117.5,100.5 117.5,97.5 117.5,94.5C 117.5,93.5 117.5,92.5 117.5,91.5C 120.598,91.5875 120.932,91.0875 118.5,90C 120.473,89.5045 122.473,89.3379 124.5,89.5 Z"/></g>
<g><path style="opacity:1" fill="#0b1418" d="M 185.5,90.5 C 188.609,90.2641 191.609,90.5975 194.5,91.5C 195.833,92.1667 195.833,92.8333 194.5,93.5C 190.953,95.804 190.953,97.804 194.5,99.5C 195.5,99.8333 196.167,100.5 196.5,101.5C 196.738,103.404 197.738,104.738 199.5,105.5C 201.194,111.399 201.86,118.399 201.5,126.5C 200.463,127.93 199.796,129.597 199.5,131.5C 197.858,133.081 195.858,133.747 193.5,133.5C 192.524,132.185 191.524,130.852 190.5,129.5C 191.127,128.583 191.461,127.583 191.5,126.5C 193.047,124.193 193.713,121.527 193.5,118.5C 193.333,116.5 193.167,114.5 193,112.5C 192.617,111.944 192.117,111.611 191.5,111.5C 188.208,110.026 184.874,108.359 181.5,106.5C 179.833,105.5 178.5,104.167 177.5,102.5C 176.167,100.5 174.5,98.8333 172.5,97.5C 173.2,94.8001 174.866,93.1334 177.5,92.5C 180.428,92.4349 183.095,91.7682 185.5,90.5 Z"/></g>
<g><path style="opacity:0.557" fill="#8c9496" d="M 232.5,91.5 C 234.404,91.7376 235.738,92.7376 236.5,94.5C 234.596,94.2624 233.262,93.2624 232.5,91.5 Z"/></g>
<g><path style="opacity:0.004" fill="#c6c9c9" d="M 248.5,93.5 C 252.833,95.8333 256.167,99.1667 258.5,103.5C 254.833,100.5 251.5,97.1667 248.5,93.5 Z"/></g>
<g><path style="opacity:0.549" fill="#b7babb" d="M 177.5,92.5 C 174.866,93.1334 173.2,94.8001 172.5,97.5C 171.509,93.8136 173.176,92.1469 177.5,92.5 Z"/></g>
<g><path style="opacity:0.98" fill="#11191e" d="M 223.5,77.5 C 224.167,77.5 224.833,77.5 225.5,77.5C 228.331,78.0787 230.664,79.412 232.5,81.5C 232.973,82.9063 233.973,83.573 235.5,83.5C 235.973,84.9063 236.973,85.573 238.5,85.5C 238.973,86.9063 239.973,87.573 241.5,87.5C 242.171,88.8471 242.171,90.0138 241.5,91C 243.518,91.5046 245.518,92.0046 247.5,92.5C 248.167,92.5 248.5,92.8333 248.5,93.5C 251.5,97.1667 254.833,100.5 258.5,103.5C 259.5,103.833 260.167,104.5 260.5,105.5C 261.08,107.749 262.413,109.415 264.5,110.5C 264.427,112.027 265.094,113.027 266.5,113.5C 266.738,115.404 267.738,116.738 269.5,117.5C 270.338,117.842 270.672,118.508 270.5,119.5C 270.427,121.027 271.094,122.027 272.5,122.5C 274.674,125.515 276.341,128.849 277.5,132.5C 277.12,134.698 277.787,136.365 279.5,137.5C 279.446,140.992 280.446,143.992 282.5,146.5C 282.784,149.777 282.451,152.943 281.5,156C 280.167,156.667 278.833,156.667 277.5,156C 276.391,154.124 275.391,152.291 274.5,150.5C 274.59,147.848 273.924,145.515 272.5,143.5C 271.662,143.158 271.328,142.492 271.5,141.5C 271.248,137.673 269.915,134.34 267.5,131.5C 267.34,129.847 266.674,128.514 265.5,127.5C 265.25,125.326 264.25,123.659 262.5,122.5C 260.478,120.469 258.811,118.135 257.5,115.5C 257.262,113.596 256.262,112.262 254.5,111.5C 253.5,111.167 252.833,110.5 252.5,109.5C 249.833,104.833 246.167,101.167 241.5,98.5C 240.415,96.4131 238.749,95.0798 236.5,94.5C 235.738,92.7376 234.404,91.7376 232.5,91.5C 232.027,90.0937 231.027,89.427 229.5,89.5C 227.847,89.3404 226.514,88.6737 225.5,87.5C 225.027,86.0937 224.027,85.427 222.5,85.5C 220.181,85.0075 218.181,84.0075 216.5,82.5C 217.822,82.67 218.989,82.3366 220,81.5C 223.022,83.9323 226.189,83.9323 229.5,81.5C 228.726,80.2888 227.893,80.2888 227,81.5C 225.612,80.2642 224.446,78.9308 223.5,77.5 Z"/></g>
<g><path style="opacity:0.014" fill="#e1e4e4" d="M 194.5,93.5 C 193.62,95.6112 193.62,97.6112 194.5,99.5C 190.953,97.804 190.953,95.804 194.5,93.5 Z"/></g>
<g><path style="opacity:0.455" fill="#a8adaf" d="M 236.5,94.5 C 238.749,95.0798 240.415,96.4131 241.5,98.5C 239.251,97.9202 237.585,96.5869 236.5,94.5 Z"/></g>
<g><path style="opacity:0.647" fill="#969797" d="M 91.5,94.5 C 91.5,98.1667 91.5,101.833 91.5,105.5C 88.9348,101.801 88.9348,98.1347 91.5,94.5 Z"/></g>
<g><path style="opacity:0.012" fill="#d1d5d5" d="M 172.5,97.5 C 174.5,98.8333 176.167,100.5 177.5,102.5C 174.833,101.833 173.167,100.167 172.5,97.5 Z"/></g>
<g><path style="opacity:0.847" fill="#9ea6a8" d="M 241.5,98.5 C 246.167,101.167 249.833,104.833 252.5,109.5C 248.5,106.167 244.833,102.5 241.5,98.5 Z"/></g>
<g><path style="opacity:0.451" fill="#a7abaf" d="M 196.5,101.5 C 198.262,102.262 199.262,103.596 199.5,105.5C 197.738,104.738 196.738,103.404 196.5,101.5 Z"/></g>
<g><path style="opacity:0.278" fill="#a8abb3" d="M 153.5,104.5 C 153.573,106.027 152.906,107.027 151.5,107.5C 151.427,105.973 152.094,104.973 153.5,104.5 Z"/></g>
<g><path style="opacity:0.694" fill="#a1a4a5" d="M 161.5,109.5 C 161.742,103.612 159.076,101.945 153.5,104.5C 155.446,101.186 158.113,100.686 161.5,103C 163.952,105.384 163.952,107.55 161.5,109.5 Z"/></g>
<g><path style="opacity:0.624" fill="#b6b9ba" d="M 181.5,106.5 C 184.874,108.359 188.208,110.026 191.5,111.5C 187.245,111.481 183.911,109.814 181.5,106.5 Z"/></g>
<g><path style="opacity:1" fill="#171e23" d="M 110.5,87.5 C 111.167,87.5 111.833,87.5 112.5,87.5C 113.609,87.4431 114.609,87.1098 115.5,86.5C 115.338,88.8244 114.172,90.4911 112,91.5C 110.771,89.0532 109.271,88.8865 107.5,91C 108.308,91.3076 108.975,91.8076 109.5,92.5C 108.873,93.4168 108.539,94.4168 108.5,95.5C 107.609,94.8902 106.609,94.5569 105.5,94.5C 104.167,94.8333 102.833,95.1667 101.5,95.5C 100.167,95.5 99.5,96.1667 99.5,97.5C 99.5,99.1667 99.5,100.833 99.5,102.5C 99.4142,103.496 99.7476,104.329 100.5,105C 102.134,105.494 103.801,105.66 105.5,105.5C 105.351,106.552 105.517,107.552 106,108.5C 107.016,109.634 107.683,109.301 108,107.5C 108.249,108.624 108.749,109.624 109.5,110.5C 111.283,108.977 111.949,106.977 111.5,104.5C 113.124,104.64 114.29,103.973 115,102.5C 115.333,102.833 115.667,103.167 116,103.5C 116.023,100.949 115.523,98.449 114.5,96C 115.527,95.4867 116.527,94.9867 117.5,94.5C 117.5,97.5 117.5,100.5 117.5,103.5C 117.771,105.38 117.104,106.713 115.5,107.5C 113.833,108.5 112.5,109.833 111.5,111.5C 107.605,114.476 103.271,115.143 98.5,113.5C 98.1667,113.5 97.8333,113.5 97.5,113.5C 96.1928,112.053 94.8595,111.387 93.5,111.5C 94.6197,109.404 96.1197,109.07 98,110.5C 98.1402,108.479 98.3068,106.645 98.5,105C 97.4216,104.326 96.7549,103.326 96.5,102C 97.2936,99.9422 97.6269,97.9422 97.5,96C 96.2161,95.3162 95.0495,95.4829 94,96.5C 93.5448,99.8536 93.0448,103.187 92.5,106.5C 91.8333,106.5 91.5,106.167 91.5,105.5C 91.5,101.833 91.5,98.1667 91.5,94.5C 91.3284,93.5084 91.6618,92.8417 92.5,92.5C 94.5,91.1667 96.1667,89.5 97.5,87.5C 101.859,86.3499 106.192,86.3499 110.5,87.5 Z M 105.5,94.5 C 105.973,95.9063 106.973,96.573 108.5,96.5C 109.28,104.047 106.28,106.047 99.5,102.5C 99.5,100.833 99.5,99.1667 99.5,97.5C 100.5,97.1667 101.167,96.5 101.5,95.5C 102.833,95.1667 104.167,94.8333 105.5,94.5 Z"/></g>
<g><path style="opacity:0.486" fill="#a9aeb0" d="M 108.5,96.5 C 109.117,96.6107 109.617,96.944 110,97.5C 110.818,101.534 109.318,104.201 105.5,105.5C 103.801,105.66 102.134,105.494 100.5,105C 99.7476,104.329 99.4142,103.496 99.5,102.5C 106.28,106.047 109.28,104.047 108.5,96.5 Z"/></g>
<g><path style="opacity:0.278" fill="#bbbfc3" d="M 105.5,94.5 C 106.609,94.5569 107.609,94.8902 108.5,95.5C 108.5,95.8333 108.5,96.1667 108.5,96.5C 106.973,96.573 105.973,95.9063 105.5,94.5 Z"/></g>
<g><path style="opacity:0.047" fill="#d3d4e0" d="M 101.5,95.5 C 101.167,96.5 100.5,97.1667 99.5,97.5C 99.5,96.1667 100.167,95.5 101.5,95.5 Z"/></g>
<g><path style="opacity:0.353" fill="#b5bbbc" d="M 260.5,105.5 C 262.587,106.585 263.92,108.251 264.5,110.5C 262.413,109.415 261.08,107.749 260.5,105.5 Z"/></g>
<g><path style="opacity:0.035" fill="#c9d4d5" d="M 115.5,107.5 C 115.167,109.833 113.833,111.167 111.5,111.5C 112.5,109.833 113.833,108.5 115.5,107.5 Z"/></g>
<g><path style="opacity:0.365" fill="#989c9c" d="M 92.5,106.5 C 93.0869,108.685 92.0869,110.352 89.5,111.5C 90.075,109.589 91.075,107.922 92.5,106.5 Z"/></g>
<g><path style="opacity:0.133" fill="#b6bbbc" d="M 151.5,108.5 C 151.204,110.403 150.537,112.07 149.5,113.5C 149.12,111.302 149.787,109.635 151.5,108.5 Z"/></g>
<g><path style="opacity:0.243" fill="#c3c5c5" d="M 161.5,109.5 C 161.34,111.153 160.674,112.486 159.5,113.5C 159.229,111.62 159.896,110.287 161.5,109.5 Z"/></g>
<g><path style="opacity:0.588" fill="#a4afb2" d="M 264.5,110.5 C 265.906,110.973 266.573,111.973 266.5,113.5C 265.094,113.027 264.427,112.027 264.5,110.5 Z"/></g>
<g><path style="opacity:0.008" fill="#d1d6d6" d="M 254.5,111.5 C 256.262,112.262 257.262,113.596 257.5,115.5C 255.738,114.738 254.738,113.404 254.5,111.5 Z"/></g>
<g><path style="opacity:0.016" fill="#d9dddd" d="M 97.5,113.5 C 97.8333,113.5 98.1667,113.5 98.5,113.5C 98.573,115.027 97.9063,116.027 96.5,116.5C 96.5569,115.391 96.8902,114.391 97.5,113.5 Z"/></g>
<g><path style="opacity:0.451" fill="#aeb3b4" d="M 266.5,113.5 C 268.262,114.262 269.262,115.596 269.5,117.5C 267.738,116.738 266.738,115.404 266.5,113.5 Z"/></g>
<g><path style="opacity:0.969" fill="#63696b" d="M 89.5,111.5 C 88.7023,113.966 87.369,115.966 85.5,117.5C 85.8449,114.802 87.1782,112.802 89.5,111.5 Z"/></g>
<g><path style="opacity:0.012" fill="#d4d6d6" d="M 191.5,111.5 C 192.117,111.611 192.617,111.944 193,112.5C 193.167,114.5 193.333,116.5 193.5,118.5C 193.713,121.527 193.047,124.193 191.5,126.5C 192.769,121.486 192.769,116.486 191.5,111.5 Z"/></g>
<g><path style="opacity:0.835" fill="#6a7171" d="M 199.5,105.5 C 202.205,109.299 203.539,113.632 203.5,118.5C 203.618,121.486 202.952,124.152 201.5,126.5C 201.86,118.399 201.194,111.399 199.5,105.5 Z"/></g>
<g><path style="opacity:0.094" fill="#c9d1d2" d="M 95.5,117.5 C 95.573,119.027 94.9063,120.027 93.5,120.5C 93.427,118.973 94.0937,117.973 95.5,117.5 Z"/></g>
<g><path style="opacity:0.016" fill="#d1d5d5" d="M 93.5,120.5 C 93.573,122.027 92.9063,123.027 91.5,123.5C 91.427,121.973 92.0937,120.973 93.5,120.5 Z"/></g>
<g><path style="opacity:0.125" fill="#cad1d1" d="M 270.5,119.5 C 271.906,119.973 272.573,120.973 272.5,122.5C 271.094,122.027 270.427,121.027 270.5,119.5 Z"/></g>
<g><path style="opacity:0.18" fill="#bcc0c4" d="M 82.5,122.5 C 82.573,124.027 81.9063,125.027 80.5,125.5C 80.427,123.973 81.0937,122.973 82.5,122.5 Z"/></g>
<g><path style="opacity:0.216" fill="#bec2c4" d="M 262.5,122.5 C 264.25,123.659 265.25,125.326 265.5,127.5C 263.75,126.341 262.75,124.674 262.5,122.5 Z"/></g>
<g><path style="opacity:0.055" fill="#d3d6d6" d="M 191.5,126.5 C 191.461,127.583 191.127,128.583 190.5,129.5C 191.524,130.852 192.524,132.185 193.5,133.5C 190.045,132.872 188.878,130.872 190,127.5C 190.383,126.944 190.883,126.611 191.5,126.5 Z"/></g>
<g><path style="opacity:0.129" fill="#c6c8c7" d="M 265.5,127.5 C 266.674,128.514 267.34,129.847 267.5,131.5C 265.896,130.713 265.229,129.38 265.5,127.5 Z"/></g>
<g><path style="opacity:0.063" fill="#c7caca" d="M 89.5,126.5 C 89.7709,128.38 89.1042,129.713 87.5,130.5C 87.6596,128.847 88.3263,127.514 89.5,126.5 Z"/></g>
<g><path style="opacity:1" fill="#151b20" d="M 161.5,109.5 C 159.896,110.287 159.229,111.62 159.5,113.5C 159.372,117.881 159.705,122.215 160.5,126.5C 161.167,129.167 162.833,130.833 165.5,131.5C 166.347,132.966 167.68,133.8 169.5,134C 171.81,134.497 174.143,134.663 176.5,134.5C 177.219,136.764 177.552,139.097 177.5,141.5C 173.6,142.43 169.6,142.763 165.5,142.5C 163.847,142.34 162.514,141.674 161.5,140.5C 160.415,138.413 158.749,137.08 156.5,136.5C 155.5,136.167 154.833,135.5 154.5,134.5C 153.416,131.996 152.083,129.663 150.5,127.5C 148.618,123.036 148.285,118.369 149.5,113.5C 150.537,112.07 151.204,110.403 151.5,108.5C 151.5,108.167 151.5,107.833 151.5,107.5C 152.906,107.027 153.573,106.027 153.5,104.5C 159.076,101.945 161.742,103.612 161.5,109.5 Z"/></g>
<g><path style="opacity:0.341" fill="#b8bcbd" d="M 160.5,126.5 C 162.5,127.833 164.167,129.5 165.5,131.5C 162.833,130.833 161.167,129.167 160.5,126.5 Z"/></g>
<g><path style="opacity:0.004" fill="#dbdddd" d="M 201.5,126.5 C 201.88,128.698 201.213,130.365 199.5,131.5C 199.796,129.597 200.463,127.93 201.5,126.5 Z"/></g>
<g><path style="opacity:0.906" fill="#8c9091" d="M 79.5,127.5 C 79.6567,128.873 79.49,130.207 79,131.5C 78.0978,133.431 76.9312,135.097 75.5,136.5C 75.0618,136.565 74.7284,136.399 74.5,136C 76.0844,133.03 77.7511,130.197 79.5,127.5 Z"/></g>
<g><path style="opacity:0.055" fill="#e0e1e2" d="M 150.5,127.5 C 152.083,129.663 153.416,131.996 154.5,134.5C 151.888,132.948 150.555,130.614 150.5,127.5 Z"/></g>
<g><path style="opacity:1" fill="#12191e" d="M 97.5,113.5 C 96.8902,114.391 96.5569,115.391 96.5,116.5C 96.5,117.167 96.1667,117.5 95.5,117.5C 94.0937,117.973 93.427,118.973 93.5,120.5C 92.0937,120.973 91.427,121.973 91.5,123.5C 91.573,125.027 90.9063,126.027 89.5,126.5C 88.3263,127.514 87.6596,128.847 87.5,130.5C 84.7633,133.983 83.0966,137.983 82.5,142.5C 81.0762,144.515 80.4095,146.848 80.5,149.5C 80.6625,155.698 77.9958,158.031 72.5,156.5C 71.4809,153.206 71.4809,149.872 72.5,146.5C 72.5,146.167 72.5,145.833 72.5,145.5C 74.0739,143.898 74.7406,141.898 74.5,139.5C 74.5569,138.391 74.8902,137.391 75.5,136.5C 76.9312,135.097 78.0978,133.431 79,131.5C 79.49,130.207 79.6567,128.873 79.5,127.5C 79.3284,126.508 79.6618,125.842 80.5,125.5C 81.9063,125.027 82.573,124.027 82.5,122.5C 82.7497,120.326 83.7497,118.659 85.5,117.5C 87.369,115.966 88.7023,113.966 89.5,111.5C 92.0869,110.352 93.0869,108.685 92.5,106.5C 93.0448,103.187 93.5448,99.8536 94,96.5C 95.0495,95.4829 96.2161,95.3162 97.5,96C 97.6269,97.9422 97.2936,99.9422 96.5,102C 96.7549,103.326 97.4216,104.326 98.5,105C 98.3068,106.645 98.1402,108.479 98,110.5C 96.1197,109.07 94.6197,109.404 93.5,111.5C 94.8595,111.387 96.1928,112.053 97.5,113.5 Z"/></g>
<g><path style="opacity:0.094" fill="#c9cece" d="M 267.5,131.5 C 269.915,134.34 271.248,137.673 271.5,141.5C 269.648,138.449 268.314,135.116 267.5,131.5 Z"/></g>
<g><path style="opacity:0.141" fill="#c5c9ca" d="M 87.5,130.5 C 86.3517,134.787 84.685,138.787 82.5,142.5C 83.0966,137.983 84.7633,133.983 87.5,130.5 Z"/></g>
<g><path style="opacity:0.486" fill="#989c9d" d="M 165.5,131.5 C 169.25,132.614 172.917,133.614 176.5,134.5C 174.143,134.663 171.81,134.497 169.5,134C 167.68,133.8 166.347,132.966 165.5,131.5 Z"/></g>
<g><path style="opacity:0.067" fill="#ebeeee" d="M 199.5,131.5 C 199.586,132.496 199.252,133.329 198.5,134C 196.613,134.78 194.946,134.613 193.5,133.5C 195.858,133.747 197.858,133.081 199.5,131.5 Z"/></g>
<g><path style="opacity:0.741" fill="#979a9d" d="M 277.5,132.5 C 278.537,133.93 279.204,135.597 279.5,137.5C 277.787,136.365 277.12,134.698 277.5,132.5 Z"/></g>
<g><path style="opacity:0.82" fill="#8f9494" d="M 156.5,136.5 C 158.749,137.08 160.415,138.413 161.5,140.5C 159.251,139.92 157.585,138.587 156.5,136.5 Z"/></g>
<g><path style="opacity:0.408" fill="#b1b4b4" d="M 176.5,134.5 C 177.993,135.312 178.66,136.645 178.5,138.5C 178.48,139.726 178.147,140.726 177.5,141.5C 177.552,139.097 177.219,136.764 176.5,134.5 Z"/></g>
<g><path style="opacity:0.71" fill="#979d9d" d="M 279.5,137.5 C 281.072,140.215 282.072,143.215 282.5,146.5C 280.446,143.992 279.446,140.992 279.5,137.5 Z"/></g>
<g><path style="opacity:0.588" fill="#b5b9b9" d="M 74.5,139.5 C 74.7406,141.898 74.0739,143.898 72.5,145.5C 72.595,143.214 73.2616,141.214 74.5,139.5 Z"/></g>
<g><path style="opacity:0.745" fill="#9ea4a5" d="M 177.5,141.5 C 176.714,143.735 175.048,144.735 172.5,144.5C 169.92,144.276 167.586,143.609 165.5,142.5C 169.6,142.763 173.6,142.43 177.5,141.5 Z"/></g>
<g><path style="opacity:0.012" fill="#d2d6d6" d="M 82.5,142.5 C 82.5905,145.152 81.9238,147.485 80.5,149.5C 80.4095,146.848 81.0762,144.515 82.5,142.5 Z"/></g>
<g><path style="opacity:0.012" fill="#cfd3d2" d="M 272.5,143.5 C 273.924,145.515 274.59,147.848 274.5,150.5C 273.076,148.485 272.41,146.152 272.5,143.5 Z"/></g>
<g><path style="opacity:0.016" fill="#e2e4e4" d="M 72.5,146.5 C 71.4809,149.872 71.4809,153.206 72.5,156.5C 71.0069,155.688 70.3402,154.355 70.5,152.5C 70.5992,150.201 71.2658,148.201 72.5,146.5 Z"/></g>
<g><path style="opacity:0.457" fill="#b5b9b9" d="M 217.5,154.5 C 183.833,154.5 150.167,154.5 116.5,154.5C 119.023,153.746 121.689,153.08 124.5,152.5C 152.943,152.86 181.276,152.86 209.5,152.5C 212.349,152.964 215.016,153.631 217.5,154.5 Z"/></g>
<g><path style="opacity:1" fill="#091114" d="M 116.5,154.5 C 150.167,154.5 183.833,154.5 217.5,154.5C 217.5,154.833 217.5,155.167 217.5,155.5C 215.392,156.237 213.225,156.904 211,157.5C 207.344,155.987 203.511,155.32 199.5,155.5C 175.517,155.561 151.517,156.061 127.5,157C 124.5,157.333 121.5,157.667 118.5,158C 116.606,159.101 115.939,160.434 116.5,162C 117.962,163.628 119.628,163.795 121.5,162.5C 121.5,177.5 121.5,192.5 121.5,207.5C 120.312,206.952 119.145,206.619 118,206.5C 115.904,207.715 116.071,208.549 118.5,209C 117.874,209.75 117.374,210.584 117,211.5C 116.667,211.167 116.333,210.833 116,210.5C 115.517,211.448 115.351,212.448 115.5,213.5C 115.167,213.5 114.833,213.5 114.5,213.5C 113.962,211.883 113.629,210.216 113.5,208.5C 113.5,208.167 113.5,207.833 113.5,207.5C 113.5,205.833 113.5,204.167 113.5,202.5C 115.384,202.712 116.717,203.712 117.5,205.5C 118.72,205.113 119.387,204.28 119.5,203C 118.606,194.729 118.939,186.063 120.5,177C 118.986,172.912 118.153,168.746 118,164.5C 116.389,166.723 114.222,168.056 111.5,168.5C 111.527,166.801 112.194,165.467 113.5,164.5C 113.672,163.508 113.338,162.842 112.5,162.5C 112.216,160.585 112.549,158.919 113.5,157.5C 114.833,156.833 115.833,155.833 116.5,154.5 Z"/></g>
<g><path style="opacity:0.188" fill="#b7bdc0" d="M 217.5,155.5 C 217.5,155.167 217.5,154.833 217.5,154.5C 219.38,154.229 220.713,154.896 221.5,156.5C 220.167,156.167 218.833,155.833 217.5,155.5 Z"/></g>
<g><path style="opacity:0.463" fill="#b7bbbc" d="M 282.5,146.5 C 284.998,149.993 284.998,153.493 282.5,157C 276.669,158.666 274.002,156.499 274.5,150.5C 275.391,152.291 276.391,154.124 277.5,156C 278.833,156.667 280.167,156.667 281.5,156C 282.451,152.943 282.784,149.777 282.5,146.5 Z"/></g>
<g><path style="opacity:0.006" fill="#f5f5f5" d="M 95.5,155.5 C 97.0481,155.821 97.7148,156.821 97.5,158.5C 96.5987,157.71 95.9321,156.71 95.5,155.5 Z"/></g>
<g><path style="opacity:1" fill="#0a1319" d="M 217.5,155.5 C 218.833,155.833 220.167,156.167 221.5,156.5C 222.492,156.328 223.158,156.662 223.5,157.5C 223.738,159.404 224.738,160.738 226.5,161.5C 226.5,162.167 226.5,162.833 226.5,163.5C 223.671,163.369 222.338,164.369 222.5,166.5C 220.512,165.711 220.179,164.545 221.5,163C 219.527,162.505 217.527,162.338 215.5,162.5C 214.5,162.5 213.5,162.5 212.5,162.5C 211.518,165.962 211.185,169.629 211.5,173.5C 209.833,173.5 208.167,173.5 206.5,173.5C 206.5,169.833 206.5,166.167 206.5,162.5C 178.5,162.5 150.5,162.5 122.5,162.5C 122.167,162.5 121.833,162.5 121.5,162.5C 119.628,163.795 117.962,163.628 116.5,162C 115.939,160.434 116.606,159.101 118.5,158C 121.5,157.667 124.5,157.333 127.5,157C 151.517,156.061 175.517,155.561 199.5,155.5C 203.511,155.32 207.344,155.987 211,157.5C 213.225,156.904 215.392,156.237 217.5,155.5 Z"/></g>
<g><path style="opacity:0.365" fill="#abb0b0" d="M 116.5,154.5 C 115.833,155.833 114.833,156.833 113.5,157.5C 113.5,155.5 114.5,154.5 116.5,154.5 Z"/></g>
<g><path style="opacity:0.506" fill="#bbc1bf" d="M 223.5,157.5 C 225.262,158.262 226.262,159.596 226.5,161.5C 224.738,160.738 223.738,159.404 223.5,157.5 Z"/></g>
<g><path style="opacity:0.165" fill="#ccd1d1" d="M 97.5,158.5 C 99.5529,158.402 101.22,159.069 102.5,160.5C 101.5,160.5 100.5,160.5 99.5,160.5C 98.8333,159.833 98.1667,159.167 97.5,158.5 Z"/></g>
<g><path style="opacity:0.999" fill="#171d21" d="M 99.5,160.5 C 100.5,160.5 101.5,160.5 102.5,160.5C 103.492,160.328 104.158,160.662 104.5,161.5C 105.78,162.931 107.447,163.598 109.5,163.5C 110.209,164.404 111.209,164.737 112.5,164.5C 112.833,164.5 113.167,164.5 113.5,164.5C 112.194,165.467 111.527,166.801 111.5,168.5C 111.389,169.117 111.056,169.617 110.5,170C 111.931,170.465 113.097,171.299 114,172.5C 114.82,179.014 114.653,185.347 113.5,191.5C 113.5,188.833 113.5,186.167 113.5,183.5C 113.5,180.833 113.5,178.167 113.5,175.5C 113.179,173.952 112.179,173.285 110.5,173.5C 109.508,173.672 108.842,173.338 108.5,172.5C 108.158,171.662 107.492,171.328 106.5,171.5C 106.607,169.621 106.107,169.288 105,170.5C 104,169.833 103,169.167 102,168.5C 101.83,179.008 101.33,189.341 100.5,199.5C 100.5,189.167 100.5,178.833 100.5,168.5C 99.209,168.737 98.209,168.404 97.5,167.5C 101.009,166.238 101.342,164.405 98.5,162C 99.056,161.617 99.3893,161.117 99.5,160.5 Z"/></g>
<g><path style="opacity:0.153" fill="#c2c7c7" d="M 104.5,161.5 C 106.553,161.402 108.22,162.069 109.5,163.5C 107.447,163.598 105.78,162.931 104.5,161.5 Z"/></g>
<g><path style="opacity:0.014" fill="#f6f6f6" d="M 122.5,163.5 C 122.5,163.167 122.5,162.833 122.5,162.5C 150.5,162.5 178.5,162.5 206.5,162.5C 206.5,166.167 206.5,169.833 206.5,173.5C 205.521,170.375 205.187,167.042 205.5,163.5C 177.833,163.5 150.167,163.5 122.5,163.5 Z"/></g>
<g><path style="opacity:0.007" fill="#f7f7f9" d="M 212.5,162.5 C 213.5,162.5 214.5,162.5 215.5,162.5C 215.5,162.833 215.5,163.167 215.5,163.5C 214.753,165.89 213.753,168.557 212.5,171.5C 212.5,168.5 212.5,165.5 212.5,162.5 Z"/></g>
<g><path style="opacity:0.153" fill="#d4d5d9" d="M 112.5,162.5 C 112.5,163.167 112.5,163.833 112.5,164.5C 111.209,164.737 110.209,164.404 109.5,163.5C 110.609,163.443 111.609,163.11 112.5,162.5 Z"/></g>
<g><path style="opacity:0.004" fill="#e7e8e9" d="M 226.5,161.5 C 227.404,162.209 227.737,163.209 227.5,164.5C 231.702,164.183 235.702,164.517 239.5,165.5C 234.706,166.097 230.373,165.43 226.5,163.5C 226.5,162.833 226.5,162.167 226.5,161.5 Z"/></g>
<g><path style="opacity:0.306" fill="#b8bbbb" d="M 281.5,164.5 C 281.917,163.876 282.584,163.543 283.5,163.5C 284.713,163.747 285.38,164.414 285.5,165.5C 284.292,164.766 282.959,164.433 281.5,164.5 Z"/></g>
<g><path style="opacity:0.269" fill="#b1b5b6" d="M 81.5,166.5 C 73.8261,166.334 66.1594,166.5 58.5,167C 57.1667,168.667 57.1667,170.333 58.5,172C 66.1594,172.5 73.8261,172.666 81.5,172.5C 73.6775,173.656 65.6775,173.823 57.5,173C 56.1667,170.667 56.1667,168.333 57.5,166C 65.6775,165.177 73.6775,165.344 81.5,166.5 Z"/></g>
<g><path style="opacity:1" fill="#0f161b" d="M 215.5,163.5 C 215.5,163.167 215.5,162.833 215.5,162.5C 217.527,162.338 219.527,162.505 221.5,163C 220.179,164.545 220.512,165.711 222.5,166.5C 222.338,164.369 223.671,163.369 226.5,163.5C 230.373,165.43 234.706,166.097 239.5,165.5C 240.29,166.401 241.29,167.068 242.5,167.5C 242.414,168.496 242.748,169.329 243.5,170C 248.823,170.499 254.156,170.666 259.5,170.5C 259.938,170.435 260.272,170.601 260.5,171C 256.284,172.204 251.951,172.87 247.5,173C 245.112,173.303 242.945,174.137 241,175.5C 240.261,173.779 239.427,172.113 238.5,170.5C 238.167,170.667 237.833,170.833 237.5,171C 236.458,175.672 236.458,180.672 237.5,186C 236.934,186.995 236.267,187.828 235.5,188.5C 235.5,183.5 235.5,178.5 235.5,173.5C 232.833,173.5 230.167,173.5 227.5,173.5C 227.5,175.833 227.5,178.167 227.5,180.5C 228.53,183.229 228.53,185.896 227.5,188.5C 229.948,189.473 232.615,189.806 235.5,189.5C 236.028,190.721 236.695,191.887 237.5,193C 234.833,193.667 234.833,194.333 237.5,195C 236.833,195.333 236.167,195.667 235.5,196C 236.174,197.751 236.507,199.417 236.5,201C 235.256,201.456 234.423,200.956 234,199.5C 233.5,200 233,200.5 232.5,201C 232.342,202.587 233.009,204.087 234.5,205.5C 229.609,204.52 226.276,206.186 224.5,210.5C 223.167,211.5 221.833,212.5 220.5,213.5C 220.773,211.549 220.107,210.049 218.5,209C 220.929,208.549 221.096,207.715 219,206.5C 216.726,207.811 214.56,207.811 212.5,206.5C 214.099,206.768 215.432,206.434 216.5,205.5C 217.5,205.5 218.5,205.5 219.5,205.5C 219.667,192.163 219.5,178.829 219,165.5C 218.184,164.177 217.017,163.511 215.5,163.5 Z M 227.5,188.5 C 228.53,185.896 228.53,183.229 227.5,180.5C 228.461,178.735 228.795,176.735 228.5,174.5C 230.5,174.5 232.5,174.5 234.5,174.5C 234.5,179.167 234.5,183.833 234.5,188.5C 232.167,188.5 229.833,188.5 227.5,188.5 Z"/></g>
<g><path style="opacity:0.129" fill="#c8cbcb" d="M 239.5,165.5 C 241.179,165.285 242.179,165.952 242.5,167.5C 241.29,167.068 240.29,166.401 239.5,165.5 Z"/></g>
<g><path style="opacity:1" fill="#061017" d="M 81.5,166.5 C 82.3382,166.842 82.6716,167.508 82.5,168.5C 82.5674,169.959 82.2341,171.292 81.5,172.5C 73.8261,172.666 66.1594,172.5 58.5,172C 57.1667,170.333 57.1667,168.667 58.5,167C 66.1594,166.5 73.8261,166.334 81.5,166.5 Z"/></g>
<g><path style="opacity:0.005" fill="#f8fafa" d="M 82.5,168.5 C 83.1239,168.917 83.4573,169.584 83.5,170.5C 83.2528,171.713 82.5862,172.38 81.5,172.5C 82.2341,171.292 82.5674,169.959 82.5,168.5 Z"/></g>
<g><path style="opacity:0.063" fill="#f0f0f0" d="M 88.5,157.5 C 88.5,174.167 88.5,190.833 88.5,207.5C 87.8624,205.427 86.8624,203.427 85.5,201.5C 87.1348,186.832 88.1348,172.165 88.5,157.5 Z"/></g>
<g><path style="opacity:0.248" fill="#b3b9b9" d="M 267.5,163.5 C 267.167,163.5 266.833,163.5 266.5,163.5C 264.167,163.5 261.833,163.5 259.5,163.5C 259.5,164.833 259.5,166.167 259.5,167.5C 259.5,168.5 259.5,169.5 259.5,170.5C 254.156,170.666 248.823,170.499 243.5,170C 242.748,169.329 242.414,168.496 242.5,167.5C 243.289,167.783 243.956,168.283 244.5,169C 249.155,169.499 253.821,169.666 258.5,169.5C 258.5,167.167 258.5,164.833 258.5,162.5C 261.713,162.19 264.713,162.523 267.5,163.5 Z"/></g>
<g><path style="opacity:0.196" fill="#bdc1c2" d="M 281.5,164.5 C 280.331,167.511 278.664,170.178 276.5,172.5C 277.169,169.151 278.836,166.484 281.5,164.5 Z"/></g>
<g><path style="opacity:0.231" fill="#bbc1c1" d="M 286.5,167.5 C 287.906,167.973 288.573,168.973 288.5,170.5C 287.094,170.027 286.427,169.027 286.5,167.5 Z"/></g>
<g><path style="opacity:0.48" fill="#8b8f90" d="M 215.5,163.5 C 217.017,163.511 218.184,164.177 219,165.5C 219.5,178.829 219.667,192.163 219.5,205.5C 218.5,205.5 217.5,205.5 216.5,205.5C 216.783,204.711 217.283,204.044 218,203.5C 218.383,191.761 218.55,180.095 218.5,168.5C 217.908,166.577 216.908,164.911 215.5,163.5 Z"/></g>
<g><path style="opacity:0.341" fill="#acb2b4" d="M 167.5,173.5 C 162.073,173.218 156.74,173.551 151.5,174.5C 153.743,173.188 156.41,172.522 159.5,172.5C 162.355,172.503 165.022,172.836 167.5,173.5 Z"/></g>
<g><path style="opacity:0.349" fill="#acafb0" d="M 190.5,173.5 C 185.489,173.334 180.489,173.501 175.5,174C 174.167,175.667 174.167,177.333 175.5,179C 180.489,179.499 185.489,179.666 190.5,179.5C 185.35,180.651 180.016,180.817 174.5,180C 173.167,177.667 173.167,175.333 174.5,173C 180.016,172.183 185.35,172.349 190.5,173.5 Z"/></g>
<g><path style="opacity:1" fill="#0d151a" d="M 281.5,164.5 C 282.959,164.433 284.292,164.766 285.5,165.5C 286.338,165.842 286.672,166.508 286.5,167.5C 286.427,169.027 287.094,170.027 288.5,170.5C 289.338,170.842 289.672,171.508 289.5,172.5C 289.427,174.027 290.094,175.027 291.5,175.5C 292.338,175.842 292.672,176.508 292.5,177.5C 292.427,179.027 293.094,180.027 294.5,180.5C 296.138,181.705 296.471,183.038 295.5,184.5C 292.5,184.5 289.5,184.5 286.5,184.5C 286.5,185.833 286.5,187.167 286.5,188.5C 286.5,188.833 286.5,189.167 286.5,189.5C 285.532,191.607 285.198,193.941 285.5,196.5C 285.5,196.833 285.5,197.167 285.5,197.5C 283.59,200.452 282.59,203.786 282.5,207.5C 282.405,209.786 281.738,211.786 280.5,213.5C 279.599,214.29 278.932,215.29 278.5,216.5C 277.849,215.909 277.182,215.243 276.5,214.5C 276.39,216.098 276.057,217.765 275.5,219.5C 274.152,221.461 272.819,221.628 271.5,220C 273.653,216.957 274.32,213.791 273.5,210.5C 273.5,209.5 273.5,208.5 273.5,207.5C 274.924,205.485 275.59,203.152 275.5,200.5C 275.5,200.167 275.5,199.833 275.5,199.5C 277.163,197.562 277.829,195.228 277.5,192.5C 277.5,191.833 277.5,191.167 277.5,190.5C 278.461,188.735 278.795,186.735 278.5,184.5C 275.302,185.036 272.635,184.369 270.5,182.5C 270.328,181.508 270.662,180.842 271.5,180.5C 272.906,180.027 273.573,179.027 273.5,177.5C 275.25,176.341 276.25,174.674 276.5,172.5C 278.664,170.178 280.331,167.511 281.5,164.5 Z"/></g>
<g><path style="opacity:0.522" fill="#8e9293" d="M 212.5,162.5 C 212.5,165.5 212.5,168.5 212.5,171.5C 212.5,172.5 212.5,173.5 212.5,174.5C 211.178,174.33 210.011,174.663 209,175.5C 208.005,174.934 207.172,174.267 206.5,173.5C 208.167,173.5 209.833,173.5 211.5,173.5C 211.185,169.629 211.518,165.962 212.5,162.5 Z"/></g>
<g><path style="opacity:0.004" fill="#fefffe" d="M 73.5,175.5 C 74.6009,174.402 75.9343,174.235 77.5,175C 76.2068,175.49 74.8734,175.657 73.5,175.5 Z"/></g>
<g><path style="opacity:0.01" fill="#fefffe" d="M 151.5,174.5 C 151.5,175.833 151.5,177.167 151.5,178.5C 150.548,177.548 149.548,176.548 148.5,175.5C 149.394,175.483 150.394,175.149 151.5,174.5 Z"/></g>
<g><path style="opacity:0.006" fill="#d5d9d8" d="M 235.5,188.5 C 235.5,188.833 235.5,189.167 235.5,189.5C 232.615,189.806 229.948,189.473 227.5,188.5C 229.833,188.5 232.167,188.5 234.5,188.5C 234.5,183.833 234.5,179.167 234.5,174.5C 232.5,174.5 230.5,174.5 228.5,174.5C 228.795,176.735 228.461,178.735 227.5,180.5C 227.5,178.167 227.5,175.833 227.5,173.5C 230.167,173.5 232.833,173.5 235.5,173.5C 235.5,178.5 235.5,183.5 235.5,188.5 Z"/></g>
<g><path style="opacity:1" fill="#030e16" d="M 244.5,177.5 C 244.167,177.5 243.833,177.5 243.5,177.5C 242.206,181.733 242.206,186.066 243.5,190.5C 243.167,192.5 242.833,194.5 242.5,196.5C 242.5,200.167 242.5,203.833 242.5,207.5C 240.059,209.075 238.893,211.408 239,214.5C 237.989,213.663 236.822,213.33 235.5,213.5C 235.371,211.784 235.038,210.117 234.5,208.5C 234.5,207.5 234.5,206.5 234.5,205.5C 233.009,204.087 232.342,202.587 232.5,201C 233,200.5 233.5,200 234,199.5C 234.423,200.956 235.256,201.456 236.5,201C 236.507,199.417 236.174,197.751 235.5,196C 236.167,195.667 236.833,195.333 237.5,195C 234.833,194.333 234.833,193.667 237.5,193C 236.695,191.887 236.028,190.721 235.5,189.5C 235.5,189.167 235.5,188.833 235.5,188.5C 236.267,187.828 236.934,186.995 237.5,186C 236.458,180.672 236.458,175.672 237.5,171C 237.833,170.833 238.167,170.667 238.5,170.5C 239.427,172.113 240.261,173.779 241,175.5C 242.945,174.137 245.112,173.303 247.5,173C 251.951,172.87 256.284,172.204 260.5,171C 260.272,170.601 259.938,170.435 259.5,170.5C 259.5,169.5 259.5,168.5 259.5,167.5C 261.435,166.85 263.435,166.517 265.5,166.5C 265.662,168.527 265.495,170.527 265,172.5C 264.086,171.346 263.253,171.513 262.5,173C 263.38,174.356 263.714,175.856 263.5,177.5C 260.972,176.989 258.472,176.322 256,175.5C 252.628,176.366 249.461,176.366 246.5,175.5C 245.478,175.855 244.811,176.522 244.5,177.5 Z"/></g>
<g><path style="opacity:0.11" fill="#cbcfcf" d="M 276.5,172.5 C 276.25,174.674 275.25,176.341 273.5,177.5C 273.75,175.326 274.75,173.659 276.5,172.5 Z"/></g>
<g><path style="opacity:0.114" fill="#ccd1d3" d="M 289.5,172.5 C 290.906,172.973 291.573,173.973 291.5,175.5C 290.094,175.027 289.427,174.027 289.5,172.5 Z"/></g>
<g><path style="opacity:1" fill="#11171b" d="M 167.5,173.5 C 170.167,175.5 170.167,177.5 167.5,179.5C 162.105,179.733 156.772,179.4 151.5,178.5C 151.5,177.167 151.5,175.833 151.5,174.5C 156.74,173.551 162.073,173.218 167.5,173.5 Z"/></g>
<g><path style="opacity:0.569" fill="#a8acae" d="M 145.5,179.5 C 140.35,180.651 135.016,180.817 129.5,180C 128.313,178.981 127.313,177.814 126.5,176.5C 127.687,175.481 128.687,174.314 129.5,173C 134.833,172.333 140.167,172.333 145.5,173C 146.811,175.274 146.811,177.44 145.5,179.5 Z"/></g>
<g><path style="opacity:1" fill="#070f17" d="M 190.5,173.5 C 190.5,175.5 190.5,177.5 190.5,179.5C 185.489,179.666 180.489,179.499 175.5,179C 174.167,177.333 174.167,175.667 175.5,174C 180.489,173.501 185.489,173.334 190.5,173.5 Z"/></g>
<g><path style="opacity:0.882" fill="#767b81" d="M 190.5,173.5 C 193.167,175.5 193.167,177.5 190.5,179.5C 190.5,177.5 190.5,175.5 190.5,173.5 Z"/></g>
<g><path style="opacity:0.995" fill="#040d13" d="M 145.5,179.5 C 140.489,179.666 135.489,179.499 130.5,179C 129.446,177.612 129.28,176.112 130,174.5C 134.748,173.365 139.581,173.198 144.5,174C 145.406,175.699 145.739,177.533 145.5,179.5 Z"/></g>
<g><path style="opacity:0.123" fill="#eaeeed" d="M 97.5,167.5 C 98.209,168.404 99.209,168.737 100.5,168.5C 100.5,178.833 100.5,189.167 100.5,199.5C 99.8333,199.5 99.1667,199.5 98.5,199.5C 98.5,199.833 98.5,200.167 98.5,200.5C 97.1714,195.376 96.5048,189.876 96.5,184C 96.5006,178.323 96.8339,172.823 97.5,167.5 Z M 98.5,199.5 C 97.1771,189.659 97.1771,179.659 98.5,169.5C 99.7699,179.849 99.7699,189.849 98.5,199.5 Z"/></g>
<g><path style="opacity:0.404" fill="#989e9e" d="M 151.5,178.5 C 156.772,179.4 162.105,179.733 167.5,179.5C 162.684,180.65 157.684,180.816 152.5,180C 151.944,179.617 151.611,179.117 151.5,178.5 Z"/></g>
<g><path style="opacity:0.106" fill="#d8dada" d="M 273.5,177.5 C 273.573,179.027 272.906,180.027 271.5,180.5C 271.427,178.973 272.094,177.973 273.5,177.5 Z"/></g>
<g><path style="opacity:0.302" fill="#b3b7b9" d="M 292.5,177.5 C 293.906,177.973 294.573,178.973 294.5,180.5C 293.094,180.027 292.427,179.027 292.5,177.5 Z"/></g>
<g><path style="opacity:0.754" fill="#495052" d="M 90.5,155.5 C 89.514,173.423 89.1807,191.423 89.5,209.5C 88.6618,209.158 88.3284,208.492 88.5,207.5C 88.5,190.833 88.5,174.167 88.5,157.5C 88.5,156.167 89.1667,155.5 90.5,155.5 Z"/></g>
<g><path style="opacity:1" fill="#1f2429" d="M 81.5,181.5 C 81.5,183.5 81.5,185.5 81.5,187.5C 73.8333,187.5 66.1667,187.5 58.5,187.5C 55.8661,185.46 55.8661,183.293 58.5,181C 66.3446,180.178 74.0113,180.344 81.5,181.5 Z"/></g>
<g><path style="opacity:0.484" fill="#a2a7a8" d="M 243.5,177.5 C 243.833,177.5 244.167,177.5 244.5,177.5C 249.5,177.5 254.5,177.5 259.5,177.5C 259.5,181.5 259.5,185.5 259.5,189.5C 258.167,189.5 256.833,189.5 255.5,189.5C 256.209,188.596 257.209,188.263 258.5,188.5C 258.5,185.167 258.5,181.833 258.5,178.5C 253.821,178.334 249.155,178.501 244.5,179C 245.566,180.159 245.233,180.992 243.5,181.5C 243.5,180.167 243.5,178.833 243.5,177.5 Z"/></g>
<g><path style="opacity:0.784" fill="#888b8d" d="M 81.5,181.5 C 84.1667,183.5 84.1667,185.5 81.5,187.5C 81.5,185.5 81.5,183.5 81.5,181.5 Z"/></g>
<g><path style="opacity:0.322" fill="#b8bdbf" d="M 270.5,182.5 C 272.635,184.369 275.302,185.036 278.5,184.5C 278.795,186.735 278.461,188.735 277.5,190.5C 277.5,188.833 277.5,187.167 277.5,185.5C 274.833,186.833 272.167,186.833 269.5,185.5C 269.263,184.209 269.596,183.209 270.5,182.5 Z"/></g>
<g><path style="opacity:0.325" fill="#bdc5c2" d="M 295.5,184.5 C 292.954,186.141 290.287,186.475 287.5,185.5C 287.737,186.791 287.404,187.791 286.5,188.5C 286.5,187.167 286.5,185.833 286.5,184.5C 289.5,184.5 292.5,184.5 295.5,184.5 Z"/></g>
<g><path style="opacity:0.302" fill="#b7bcbe" d="M 58.5,187.5 C 66.1667,187.5 73.8333,187.5 81.5,187.5C 81.631,188.239 81.4643,188.906 81,189.5C 73.5225,189.049 66.0225,188.382 58.5,187.5 Z"/></g>
<g><path style="opacity:0.673" fill="#6b7072" d="M 243.5,177.5 C 243.5,178.833 243.5,180.167 243.5,181.5C 243.232,184.119 243.565,186.619 244.5,189C 248.143,188.315 251.809,188.481 255.5,189.5C 256.833,189.5 258.167,189.5 259.5,189.5C 254.36,190.488 249.026,190.821 243.5,190.5C 242.206,186.066 242.206,181.733 243.5,177.5 Z"/></g>
<g><path style="opacity:1" fill="#1f252a" d="M 144.5,189.5 C 145.833,191.833 145.833,194.167 144.5,196.5C 139.438,196.726 134.438,196.392 129.5,195.5C 129.325,193.379 129.659,191.379 130.5,189.5C 135.167,188.167 139.833,188.167 144.5,189.5 Z"/></g>
<g><path style="opacity:1" fill="#081017" d="M 95.5,155.5 C 95.9321,156.71 96.5987,157.71 97.5,158.5C 98.1667,159.167 98.8333,159.833 99.5,160.5C 99.3893,161.117 99.056,161.617 98.5,162C 101.342,164.405 101.009,166.238 97.5,167.5C 96.8339,172.823 96.5006,178.323 96.5,184C 96.5048,189.876 97.1714,195.376 98.5,200.5C 98.4226,201.75 97.756,202.583 96.5,203C 99.741,203.495 100.741,204.995 99.5,207.5C 99.5,207.833 99.5,208.167 99.5,208.5C 96.2139,209.207 92.8806,209.54 89.5,209.5C 89.1807,191.423 89.514,173.423 90.5,155.5C 92.0496,154.28 93.7163,154.28 95.5,155.5 Z"/></g>
<g><path style="opacity:1" fill="#081017" d="M 113.5,202.5 C 111.847,202.66 110.514,203.326 109.5,204.5C 108.07,205.537 106.403,206.204 104.5,206.5C 102.784,206.629 101.117,206.962 99.5,207.5C 100.741,204.995 99.741,203.495 96.5,203C 97.756,202.583 98.4226,201.75 98.5,200.5C 98.5,200.167 98.5,199.833 98.5,199.5C 99.1667,199.5 99.8333,199.5 100.5,199.5C 101.33,189.341 101.83,179.008 102,168.5C 103,169.167 104,169.833 105,170.5C 106.107,169.288 106.607,169.621 106.5,171.5C 106.169,179.86 106.502,188.193 107.5,196.5C 108.107,196.376 108.44,196.043 108.5,195.5C 111.95,196.244 113.616,194.91 113.5,191.5C 114.653,185.347 114.82,179.014 114,172.5C 113.097,171.299 111.931,170.465 110.5,170C 111.056,169.617 111.389,169.117 111.5,168.5C 114.222,168.056 116.389,166.723 118,164.5C 118.153,168.746 118.986,172.912 120.5,177C 118.939,186.063 118.606,194.729 119.5,203C 119.387,204.28 118.72,205.113 117.5,205.5C 116.717,203.712 115.384,202.712 113.5,202.5 Z M 108.5,172.5 C 108.842,173.338 109.508,173.672 110.5,173.5C 111.167,174.167 111.833,174.833 112.5,175.5C 112.833,175.5 113.167,175.5 113.5,175.5C 113.5,178.167 113.5,180.833 113.5,183.5C 112.755,186.39 112.088,189.39 111.5,192.5C 110.167,192.833 110.167,193.167 111.5,193.5C 110.5,194.167 109.5,194.833 108.5,195.5C 107.167,187.833 107.167,180.167 108.5,172.5 Z"/></g>
<g><path style="opacity:0.008" fill="#e5e6e6" d="M 113.5,183.5 C 113.5,186.167 113.5,188.833 113.5,191.5C 113.616,194.91 111.95,196.244 108.5,195.5C 109.5,194.833 110.5,194.167 111.5,193.5C 112.833,193.167 112.833,192.833 111.5,192.5C 112.088,189.39 112.755,186.39 113.5,183.5 Z"/></g>
<g><path style="opacity:0.075" fill="#dfe8e9" d="M 106.5,171.5 C 107.492,171.328 108.158,171.662 108.5,172.5C 107.167,180.167 107.167,187.833 108.5,195.5C 108.44,196.043 108.107,196.376 107.5,196.5C 106.502,188.193 106.169,179.86 106.5,171.5 Z"/></g>
<g><path style="opacity:0.18" fill="#d9dada" d="M 110.5,173.5 C 112.179,173.285 113.179,173.952 113.5,175.5C 113.167,175.5 112.833,175.5 112.5,175.5C 111.833,174.833 111.167,174.167 110.5,173.5 Z"/></g>
<g><path style="opacity:1" fill="#31363a" d="M 167.5,189.5 C 168.341,191.379 168.675,193.379 168.5,195.5C 168.389,196.117 168.056,196.617 167.5,197C 162.648,197.815 157.981,197.648 153.5,196.5C 152.167,194.167 152.167,191.833 153.5,189.5C 158.066,188.203 162.733,188.203 167.5,189.5 Z"/></g>
<g><path style="opacity:0.75" fill="#5f6467" d="M 266.5,163.5 C 266.833,163.5 267.167,163.5 267.5,163.5C 268.516,176.484 268.516,189.817 267.5,203.5C 267.167,203.5 266.833,203.5 266.5,203.5C 266.5,190.167 266.5,176.833 266.5,163.5 Z"/></g>
<g><path style="opacity:0.584" fill="#b4b7b9" d="M 130.5,189.5 C 129.659,191.379 129.325,193.379 129.5,195.5C 128.357,195.092 127.357,194.425 126.5,193.5C 127.409,191.625 128.743,190.292 130.5,189.5 Z"/></g>
<g><path style="opacity:0.659" fill="#a3a8a7" d="M 144.5,189.5 C 145.725,190.152 146.392,191.319 146.5,193C 146.392,194.681 145.725,195.848 144.5,196.5C 145.833,194.167 145.833,191.833 144.5,189.5 Z"/></g>
<g><path style="opacity:0.945" fill="#808285" d="M 153.5,189.5 C 152.167,191.833 152.167,194.167 153.5,196.5C 149.5,194.167 149.5,191.833 153.5,189.5 Z"/></g>
<g><path style="opacity:0.616" fill="#a8abab" d="M 167.5,189.5 C 170.436,191.253 170.769,193.253 168.5,195.5C 168.675,193.379 168.341,191.379 167.5,189.5 Z"/></g>
<g><path style="opacity:0.129" fill="#d1d6d4" d="M 286.5,189.5 C 286.938,189.435 287.272,189.601 287.5,190C 286.883,192.277 286.216,194.444 285.5,196.5C 285.198,193.941 285.532,191.607 286.5,189.5 Z"/></g>
<g><path style="opacity:1" fill="#030d13" d="M 266.5,163.5 C 266.5,176.833 266.5,190.167 266.5,203.5C 264.167,203.5 261.833,203.5 259.5,203.5C 259.5,201.167 259.5,198.833 259.5,196.5C 253.833,196.5 248.167,196.5 242.5,196.5C 242.833,194.5 243.167,192.5 243.5,190.5C 249.026,190.821 254.36,190.488 259.5,189.5C 259.5,185.5 259.5,181.5 259.5,177.5C 254.5,177.5 249.5,177.5 244.5,177.5C 244.811,176.522 245.478,175.855 246.5,175.5C 249.461,176.366 252.628,176.366 256,175.5C 258.472,176.322 260.972,176.989 263.5,177.5C 263.714,175.856 263.38,174.356 262.5,173C 263.253,171.513 264.086,171.346 265,172.5C 265.495,170.527 265.662,168.527 265.5,166.5C 263.435,166.517 261.435,166.85 259.5,167.5C 259.5,166.167 259.5,164.833 259.5,163.5C 261.833,163.5 264.167,163.5 266.5,163.5 Z"/></g>
<g><path style="opacity:0.788" fill="#42484b" d="M 81.5,196.5 C 74.5,196.5 67.5,196.5 60.5,196.5C 60.5,196.167 60.5,195.833 60.5,195.5C 64.1064,195.789 67.6064,195.456 71,194.5C 74.6027,195.135 78.1027,195.802 81.5,196.5 Z"/></g>
<g><path style="opacity:0.015" fill="#eff0f0" d="M 129.5,195.5 C 134.438,196.392 139.438,196.726 144.5,196.5C 140.019,197.648 135.352,197.815 130.5,197C 129.944,196.617 129.611,196.117 129.5,195.5 Z"/></g>
<g><path style="opacity:0.38" fill="#a1a6a7" d="M 242.5,196.5 C 248.167,196.5 253.833,196.5 259.5,196.5C 259.5,198.833 259.5,201.167 259.5,203.5C 261.833,203.5 264.167,203.5 266.5,203.5C 266.833,203.5 267.167,203.5 267.5,203.5C 267.672,204.492 267.338,205.158 266.5,205.5C 264.44,204.189 262.274,204.189 260,205.5C 259.044,204.421 258.211,203.255 257.5,202C 258.833,200.667 258.833,199.333 257.5,198C 255.667,197.833 253.833,197.667 252,197.5C 249.698,197.6 247.698,198.267 246,199.5C 245.549,197.071 244.715,196.904 243.5,199C 243.833,199.333 244.167,199.667 244.5,200C 243.865,203.603 243.198,207.103 242.5,210.5C 242.5,209.5 242.5,208.5 242.5,207.5C 242.5,203.833 242.5,200.167 242.5,196.5 Z"/></g>
<g><path style="opacity:0.745" fill="#a8aeae" d="M 277.5,192.5 C 277.829,195.228 277.163,197.562 275.5,199.5C 275.41,196.848 276.076,194.515 277.5,192.5 Z"/></g>
<g><path style="opacity:1" fill="#091117" d="M 60.5,196.5 C 67.5,196.5 74.5,196.5 81.5,196.5C 81.5,197.833 81.5,199.167 81.5,200.5C 81.3893,201.117 81.056,201.617 80.5,202C 73.1742,202.5 65.8409,202.666 58.5,202.5C 57.8333,202.5 57.5,202.167 57.5,201.5C 56.9162,198.715 57.9162,197.048 60.5,196.5 Z"/></g>
<g><path style="opacity:0.006" fill="#fefffe" d="M 212.5,197.5 C 213.289,197.783 213.956,198.283 214.5,199C 213.915,200.302 213.249,201.469 212.5,202.5C 212.5,200.833 212.5,199.167 212.5,197.5 Z"/></g>
<g><path style="opacity:0.369" fill="#c9cccc" d="M 210.5,195.5 C 208.983,195.511 207.816,196.177 207,197.5C 206.502,200.482 206.335,203.482 206.5,206.5C 178.328,206.831 150.328,206.498 122.5,205.5C 150.167,205.5 177.833,205.5 205.5,205.5C 205.335,202.482 205.502,199.482 206,196.5C 207.347,194.534 208.847,194.201 210.5,195.5 Z"/></g>
<g><path style="opacity:0.31" fill="#a6a8a9" d="M 60.5,195.5 C 60.5,195.833 60.5,196.167 60.5,196.5C 57.9162,197.048 56.9162,198.715 57.5,201.5C 55.769,198.372 56.6023,196.039 60,194.5C 60.3988,194.728 60.5654,195.062 60.5,195.5 Z"/></g>
<g><path style="opacity:0.769" fill="#787c7c" d="M 81.5,196.5 C 83.5195,197.538 83.8528,198.872 82.5,200.5C 82.1667,200.5 81.8333,200.5 81.5,200.5C 81.5,199.167 81.5,197.833 81.5,196.5 Z"/></g>
<g><path style="opacity:0.71" fill="#797d7f" d="M 210.5,195.5 C 211.833,195.5 212.5,196.167 212.5,197.5C 212.5,199.167 212.5,200.833 212.5,202.5C 213.598,203.397 213.598,204.23 212.5,205C 213.793,205.49 215.127,205.657 216.5,205.5C 215.432,206.434 214.099,206.768 212.5,206.5C 211.77,202.939 211.103,199.273 210.5,195.5 Z"/></g>
<g><path style="opacity:0.095" fill="#dde7e7" d="M 81.5,200.5 C 81.8333,200.5 82.1667,200.5 82.5,200.5C 82.5858,201.496 82.2524,202.329 81.5,203C 73.6554,203.822 65.9887,203.656 58.5,202.5C 65.8409,202.666 73.1742,202.5 80.5,202C 81.056,201.617 81.3893,201.117 81.5,200.5 Z"/></g>
<g><path style="opacity:0.018" fill="#d5d8d7" d="M 285.5,197.5 C 285.243,201.171 284.243,204.505 282.5,207.5C 282.59,203.786 283.59,200.452 285.5,197.5 Z"/></g>
<g><path style="opacity:0.007" fill="#eeeff0" d="M 113.5,202.5 C 113.5,204.167 113.5,205.833 113.5,207.5C 111.859,206.853 110.526,205.853 109.5,204.5C 110.514,203.326 111.847,202.66 113.5,202.5 Z"/></g>
<g><path style="opacity:0.008" fill="#e1e4e5" d="M 275.5,200.5 C 275.59,203.152 274.924,205.485 273.5,207.5C 273.41,204.848 274.076,202.515 275.5,200.5 Z"/></g>
<g><path style="opacity:0.007" fill="#eaeced" d="M 234.5,205.5 C 234.5,206.5 234.5,207.5 234.5,208.5C 233.833,209.5 233.167,210.5 232.5,211.5C 232.5,209.833 232.5,208.167 232.5,206.5C 230.801,206.34 229.134,206.506 227.5,207C 228.032,209.005 227.032,210.171 224.5,210.5C 226.276,206.186 229.609,204.52 234.5,205.5 Z"/></g>
<g><path style="opacity:0.004" fill="#fefffe" d="M 266.5,205.5 C 265.749,206.573 264.749,206.74 263.5,206C 264.448,205.517 265.448,205.351 266.5,205.5 Z"/></g>
<g><path style="opacity:1" fill="#1c2428" d="M 210.5,195.5 C 211.103,199.273 211.77,202.939 212.5,206.5C 214.56,207.811 216.726,207.811 219,206.5C 221.096,207.715 220.929,208.549 218.5,209C 220.107,210.049 220.773,211.549 220.5,213.5C 218.597,213.796 216.93,214.463 215.5,215.5C 182.736,216.828 150.069,216.828 117.5,215.5C 117.167,214.5 116.5,213.833 115.5,213.5C 115.351,212.448 115.517,211.448 116,210.5C 116.333,210.833 116.667,211.167 117,211.5C 117.374,210.584 117.874,209.75 118.5,209C 116.071,208.549 115.904,207.715 118,206.5C 119.145,206.619 120.312,206.952 121.5,207.5C 150.005,207.831 178.338,207.498 206.5,206.5C 206.335,203.482 206.502,200.482 207,197.5C 207.816,196.177 208.983,195.511 210.5,195.5 Z"/></g>
<g><path style="opacity:0.684" fill="#626666" d="M 121.5,162.5 C 121.833,162.5 122.167,162.5 122.5,162.5C 122.5,162.833 122.5,163.167 122.5,163.5C 122.5,177.5 122.5,191.5 122.5,205.5C 150.328,206.498 178.328,206.831 206.5,206.5C 178.338,207.498 150.005,207.831 121.5,207.5C 121.5,192.5 121.5,177.5 121.5,162.5 Z"/></g>
<g><path style="opacity:0.071" fill="#c3cbcb" d="M 104.5,206.5 C 103.22,207.931 101.553,208.598 99.5,208.5C 99.5,208.167 99.5,207.833 99.5,207.5C 101.117,206.962 102.784,206.629 104.5,206.5 Z"/></g>
<g><path style="opacity:0.006" fill="#eeeff0" d="M 113.5,208.5 C 113.629,210.216 113.962,211.883 114.5,213.5C 112.403,212.121 112.07,210.455 113.5,208.5 Z"/></g>
<g><path style="opacity:0.91" fill="#8b8e8f" d="M 99.5,208.5 C 96.2808,211.489 92.9475,211.823 89.5,209.5C 92.8806,209.54 96.2139,209.207 99.5,208.5 Z"/></g>
<g><path style="opacity:0.006" fill="#ecf0f0" d="M 273.5,207.5 C 273.5,208.5 273.5,209.5 273.5,210.5C 272.833,211.167 272.167,211.833 271.5,212.5C 271.402,210.447 272.069,208.78 273.5,207.5 Z"/></g>
<g><path style="opacity:0.251" fill="#c2c6c6" d="M 78.5,211.5 C 72.584,211.212 70.9174,213.879 73.5,219.5C 71.8793,219.213 70.8793,218.213 70.5,216.5C 70.1896,214.799 70.6896,213.132 72,211.5C 74.2735,210.189 76.4402,210.189 78.5,211.5 Z"/></g>
<g><path style="opacity:0.392" fill="#929597" d="M 78.5,211.5 C 79.9063,211.973 80.573,212.973 80.5,214.5C 79.0937,214.027 78.427,213.027 78.5,211.5 Z"/></g>
<g><path style="opacity:0.204" fill="#c2c5c5" d="M 242.5,210.5 C 242.598,212.553 241.931,214.22 240.5,215.5C 240.402,213.447 241.069,211.78 242.5,210.5 Z"/></g>
<g><path style="opacity:0.278" fill="#aeb4b5" d="M 114.5,213.5 C 114.833,213.5 115.167,213.5 115.5,213.5C 116.5,213.833 117.167,214.5 117.5,215.5C 115.973,215.573 114.973,214.906 114.5,213.5 Z"/></g>
<g><path style="opacity:0.005" fill="#e8ecec" d="M 224.5,210.5 C 224.67,211.822 224.337,212.989 223.5,214C 221.39,214.554 219.39,215.388 217.5,216.5C 216.584,216.457 215.917,216.124 215.5,215.5C 216.93,214.463 218.597,213.796 220.5,213.5C 221.833,212.5 223.167,211.5 224.5,210.5 Z"/></g>
<g><path style="opacity:0.212" fill="#c7caca" d="M 231.5,213.5 C 231.573,215.027 230.906,216.027 229.5,216.5C 229.427,214.973 230.094,213.973 231.5,213.5 Z"/></g>
<g><path style="opacity:0.184" fill="#c4c5c8" d="M 280.5,213.5 C 280.598,215.553 279.931,217.22 278.5,218.5C 278.5,217.833 278.5,217.167 278.5,216.5C 278.932,215.29 279.599,214.29 280.5,213.5 Z"/></g>
<g><path style="opacity:0.992" fill="#676e71" d="M 226.5,219.5 C 225.656,221.759 223.989,222.759 221.5,222.5C 222.899,221.11 224.566,220.11 226.5,219.5 Z"/></g>
<g><path style="opacity:0.016" fill="#ced1d1" d="M 237.5,220.5 C 237.573,222.027 236.906,223.027 235.5,223.5C 235.427,221.973 236.094,220.973 237.5,220.5 Z"/></g>
<g><path style="opacity:1" fill="#363f41" d="M 80.5,214.5 C 82.6744,217.515 84.3411,220.849 85.5,224.5C 83.3977,224.43 81.3977,223.93 79.5,223C 82.1667,222.333 82.1667,221.667 79.5,221C 79.2575,218.928 79.5908,216.761 80.5,214.5 Z"/></g>
<g><path style="opacity:1" fill="#10171c" d="M 242.5,207.5 C 242.5,208.5 242.5,209.5 242.5,210.5C 241.069,211.78 240.402,213.447 240.5,215.5C 240.25,217.674 239.25,219.341 237.5,220.5C 236.094,220.973 235.427,221.973 235.5,223.5C 235.167,224.5 234.5,225.167 233.5,225.5C 231.973,225.427 230.973,226.094 230.5,227.5C 228.801,227.34 227.134,227.506 225.5,228C 226.056,228.383 226.389,228.883 226.5,229.5C 224.821,229.892 223.154,230.392 221.5,231C 209.993,231.169 198.659,231.669 187.5,232.5C 185.62,232.229 184.287,232.896 183.5,234.5C 180.379,235.288 178.712,237.288 178.5,240.5C 179.5,240.5 180.5,240.5 181.5,240.5C 182.167,240.5 182.5,240.833 182.5,241.5C 182.833,242.5 183.5,243.167 184.5,243.5C 185.972,245.117 186.639,247.117 186.5,249.5C 186.639,251.883 185.972,253.883 184.5,255.5C 182.1,257.694 179.434,259.361 176.5,260.5C 173.183,260.336 170.183,259.336 167.5,257.5C 164.885,253.991 163.885,249.991 164.5,245.5C 164.328,244.508 164.662,243.842 165.5,243.5C 166.5,243.167 167.167,242.5 167.5,241.5C 169.975,240.313 170.975,238.313 170.5,235.5C 171.906,235.027 172.573,234.027 172.5,232.5C 174.167,231.5 175.5,230.167 176.5,228.5C 178.027,228.573 179.027,227.906 179.5,226.5C 181.153,226.34 182.486,225.674 183.5,224.5C 183.833,224.5 184.167,224.5 184.5,224.5C 195.838,224.667 207.172,224.5 218.5,224C 219.737,223.768 220.737,223.268 221.5,222.5C 223.989,222.759 225.656,221.759 226.5,219.5C 227.167,218.167 228.167,217.167 229.5,216.5C 230.906,216.027 231.573,215.027 231.5,213.5C 231.328,212.508 231.662,211.842 232.5,211.5C 233.167,210.5 233.833,209.5 234.5,208.5C 235.038,210.117 235.371,211.784 235.5,213.5C 236.822,213.33 237.989,213.663 239,214.5C 238.893,211.408 240.059,209.075 242.5,207.5 Z M 177.5,250.5 C 176.292,251.234 174.959,251.567 173.5,251.5C 173.5,250.167 173.5,248.833 173.5,247.5C 175.973,247.088 177.306,248.088 177.5,250.5 Z"/></g>
<g><path style="opacity:0.802" fill="#6f7577" d="M 221.5,222.5 C 220.737,223.268 219.737,223.768 218.5,224C 207.172,224.5 195.838,224.667 184.5,224.5C 185.609,223.71 186.942,223.21 188.5,223C 199.495,222.5 210.495,222.333 221.5,222.5 Z"/></g>
<g><path style="opacity:0.047" fill="#dfe3e3" d="M 73.5,219.5 C 75.341,221.849 76.6743,224.515 77.5,227.5C 75.127,225.421 73.7936,222.754 73.5,219.5 Z"/></g>
<g><path style="opacity:0.525" fill="#b0b5b6" d="M 183.5,224.5 C 182.486,225.674 181.153,226.34 179.5,226.5C 180.287,224.896 181.62,224.229 183.5,224.5 Z"/></g>
<g><path style="opacity:0.208" fill="#b6c0c3" d="M 85.5,224.5 C 86.9063,224.973 87.573,225.973 87.5,227.5C 86.0937,227.027 85.427,226.027 85.5,224.5 Z"/></g>
<g><path style="opacity:0.008" fill="#dbdddd" d="M 233.5,225.5 C 233.027,226.906 232.027,227.573 230.5,227.5C 230.973,226.094 231.973,225.427 233.5,225.5 Z"/></g>
<g><path style="opacity:0.678" fill="#919598" d="M 179.5,226.5 C 179.027,227.906 178.027,228.573 176.5,228.5C 176.973,227.094 177.973,226.427 179.5,226.5 Z"/></g>
<g><path style="opacity:0.992" fill="#5d6264" d="M 230.5,227.5 C 230.027,228.906 229.027,229.573 227.5,229.5C 227.167,229.5 226.833,229.5 226.5,229.5C 226.389,228.883 226.056,228.383 225.5,228C 227.134,227.506 228.801,227.34 230.5,227.5 Z"/></g>
<g><path style="opacity:0.161" fill="#d1d5d5" d="M 265.5,225.5 C 265.573,227.027 264.906,228.027 263.5,228.5C 263.427,226.973 264.094,225.973 265.5,225.5 Z"/></g>
<g><path style="opacity:0.122" fill="#d7dcdd" d="M 77.5,227.5 C 79.2503,228.659 80.2503,230.326 80.5,232.5C 78.7497,231.341 77.7497,229.674 77.5,227.5 Z"/></g>
<g><path style="opacity:0.212" fill="#c4c7c8" d="M 87.5,227.5 C 88.9063,227.973 89.573,228.973 89.5,230.5C 88.0937,230.027 87.427,229.027 87.5,227.5 Z"/></g>
<g><path style="opacity:0.325" fill="#cdcfd1" d="M 176.5,228.5 C 175.5,230.167 174.167,231.5 172.5,232.5C 172.833,230.167 174.167,228.833 176.5,228.5 Z"/></g>
<g><path style="opacity:0.051" fill="#cfd2d3" d="M 274.5,226.5 C 274.771,228.38 274.104,229.713 272.5,230.5C 272.66,228.847 273.326,227.514 274.5,226.5 Z"/></g>
<g><path style="opacity:0.461" fill="#9b9fa1" d="M 226.5,229.5 C 226.833,229.5 227.167,229.5 227.5,229.5C 226.319,231.067 224.653,231.901 222.5,232C 211.172,232.5 199.838,232.667 188.5,232.5C 188.167,232.5 187.833,232.5 187.5,232.5C 198.659,231.669 209.993,231.169 221.5,231C 223.154,230.392 224.821,229.892 226.5,229.5 Z"/></g>
<g><path style="opacity:0.247" fill="#c8cece" d="M 89.5,230.5 C 90.9063,230.973 91.573,231.973 91.5,233.5C 90.0937,233.027 89.427,232.027 89.5,230.5 Z"/></g>
<g><path style="opacity:0.012" fill="#e2e4e4" d="M 187.5,232.5 C 187.833,232.5 188.167,232.5 188.5,232.5C 187.152,233.186 185.985,234.186 185,235.5C 184.617,234.944 184.117,234.611 183.5,234.5C 184.287,232.896 185.62,232.229 187.5,232.5 Z"/></g>
<g><path style="opacity:0.322" fill="#b3b8ba" d="M 262.5,230.5 C 262.573,232.027 261.906,233.027 260.5,233.5C 260.427,231.973 261.094,230.973 262.5,230.5 Z"/></g>
<g><path style="opacity:0.161" fill="#bcc4c6" d="M 272.5,230.5 C 272.573,232.027 271.906,233.027 270.5,233.5C 270.427,231.973 271.094,230.973 272.5,230.5 Z"/></g>
<g><path style="opacity:0.518" fill="#bcc0c1" d="M 91.5,233.5 C 93.2624,234.262 94.2624,235.596 94.5,237.5C 92.7376,236.738 91.7376,235.404 91.5,233.5 Z"/></g>
<g><path style="opacity:0.208" fill="#bdc0c4" d="M 172.5,232.5 C 172.573,234.027 171.906,235.027 170.5,235.5C 170.427,233.973 171.094,232.973 172.5,232.5 Z"/></g>
<g><path style="opacity:0.012" fill="#cccfd0" d="M 183.5,234.5 C 182.524,235.815 181.524,237.148 180.5,238.5C 180.863,239.183 181.196,239.85 181.5,240.5C 180.5,240.5 179.5,240.5 178.5,240.5C 178.712,237.288 180.379,235.288 183.5,234.5 Z"/></g>
<g><path style="opacity:0.341" fill="#bec0c1" d="M 260.5,233.5 C 259.627,235.886 258.127,237.886 256,239.5C 255.005,238.934 254.172,238.267 253.5,237.5C 256.303,237.039 258.637,235.705 260.5,233.5 Z"/></g>
<g><path style="opacity:0.004" fill="#dcdedc" d="M 269.5,235.5 C 269.573,237.027 268.906,238.027 267.5,238.5C 267.427,236.973 268.094,235.973 269.5,235.5 Z"/></g>
<g><path style="opacity:0.075" fill="#d1dada" d="M 82.5,235.5 C 83.9063,235.973 84.573,236.973 84.5,238.5C 83.0937,238.027 82.427,237.027 82.5,235.5 Z"/></g>
<g><path style="opacity:0.993" fill="#454b50" d="M 84.5,238.5 C 85.7348,238.721 86.7348,239.388 87.5,240.5C 88.086,240.291 88.586,239.957 89,239.5C 89.49,240.793 89.6567,242.127 89.5,243.5C 89.1667,243.5 88.8333,243.5 88.5,243.5C 86.457,242.421 85.1237,240.754 84.5,238.5 Z"/></g>
<g><path style="opacity:0.161" fill="#c5c7c7" d="M 170.5,235.5 C 170.975,238.313 169.975,240.313 167.5,241.5C 167.992,239.181 168.992,237.181 170.5,235.5 Z"/></g>
<g><path style="opacity:0.02" fill="#dddfde" d="M 267.5,238.5 C 267.262,240.404 266.262,241.738 264.5,242.5C 264.738,240.596 265.738,239.262 267.5,238.5 Z"/></g>
<g><path style="opacity:0.004" fill="#e0e2e2" d="M 182.5,241.5 C 183.833,241.5 184.5,242.167 184.5,243.5C 183.5,243.167 182.833,242.5 182.5,241.5 Z"/></g>
<g><path style="opacity:0.2" fill="#bec3c5" d="M 94.5,237.5 C 96.914,238.911 98.5806,240.911 99.5,243.5C 97.086,242.089 95.4194,240.089 94.5,237.5 Z"/></g>
<g><path style="opacity:0.165" fill="#d0d1d1" d="M 167.5,241.5 C 167.167,242.5 166.5,243.167 165.5,243.5C 165.5,242.167 166.167,241.5 167.5,241.5 Z"/></g>
<g><path style="opacity:0.478" fill="#969e9e" d="M 242.5,238.5 C 241.833,239.5 241.167,240.5 240.5,241.5C 238.827,242.343 237.66,243.676 237,245.5C 236.502,248.817 236.335,252.15 236.5,255.5C 235.596,254.791 235.263,253.791 235.5,252.5C 235.5,250.5 235.5,248.5 235.5,246.5C 236.431,242.571 238.764,239.905 242.5,238.5 Z"/></g>
<g><path style="opacity:0.998" fill="#151c21" d="M 273.5,210.5 C 274.32,213.791 273.653,216.957 271.5,220C 272.819,221.628 274.152,221.461 275.5,219.5C 276.057,217.765 276.39,216.098 276.5,214.5C 277.182,215.243 277.849,215.909 278.5,216.5C 278.5,217.167 278.5,217.833 278.5,218.5C 277.721,221.545 276.387,224.211 274.5,226.5C 273.326,227.514 272.66,228.847 272.5,230.5C 271.094,230.973 270.427,231.973 270.5,233.5C 270.672,234.492 270.338,235.158 269.5,235.5C 268.094,235.973 267.427,236.973 267.5,238.5C 265.738,239.262 264.738,240.596 264.5,242.5C 264.5,243.167 264.167,243.5 263.5,243.5C 261.481,244.538 261.147,245.872 262.5,247.5C 263.34,250.634 263.006,253.634 261.5,256.5C 260.094,256.973 259.427,257.973 259.5,259.5C 257.801,259.34 256.134,259.506 254.5,260C 256.619,260.342 256.953,261.175 255.5,262.5C 254.833,262.5 254.167,262.5 253.5,262.5C 253.119,261.069 252.119,260.236 250.5,260C 251.687,258.981 252.687,257.814 253.5,256.5C 253.376,255.893 253.043,255.56 252.5,255.5C 252.833,254.833 253.167,254.167 253.5,253.5C 254.152,252.551 254.486,251.385 254.5,250C 254.392,248.319 253.725,247.152 252.5,246.5C 251.121,244.403 249.455,244.07 247.5,245.5C 247.167,245.5 246.833,245.5 246.5,245.5C 245.094,245.973 244.427,246.973 244.5,248.5C 243.167,249.833 243.167,251.167 244.5,252.5C 244.5,254.5 245.5,255.5 247.5,255.5C 248.5,255.5 249.5,255.5 250.5,255.5C 250.833,255.5 251.167,255.5 251.5,255.5C 251.631,256.239 251.464,256.906 251,257.5C 248.667,256.167 246.333,256.167 244,257.5C 242.35,256.109 241.85,254.609 242.5,253C 236.705,251.477 236.372,249.477 241.5,247C 240.692,246.692 240.025,246.192 239.5,245.5C 240.246,244.264 240.579,242.93 240.5,241.5C 241.167,240.5 241.833,239.5 242.5,238.5C 244.29,237.003 246.456,236.336 249,236.5C 250.707,236.508 252.207,236.842 253.5,237.5C 254.172,238.267 255.005,238.934 256,239.5C 258.127,237.886 259.627,235.886 260.5,233.5C 261.906,233.027 262.573,232.027 262.5,230.5C 262.328,229.508 262.662,228.842 263.5,228.5C 264.906,228.027 265.573,227.027 265.5,225.5C 267.229,221.042 269.229,216.709 271.5,212.5C 272.167,211.833 272.833,211.167 273.5,210.5 Z M 246.5,245.5 C 246.833,245.5 247.167,245.5 247.5,245.5C 249.216,245.629 250.883,245.962 252.5,246.5C 253.369,248.717 253.702,251.05 253.5,253.5C 251.973,253.427 250.973,254.094 250.5,255.5C 249.5,255.5 248.5,255.5 247.5,255.5C 246.833,254.167 245.833,253.167 244.5,252.5C 245.091,251.849 245.757,251.182 246.5,250.5C 245.757,249.818 245.091,249.151 244.5,248.5C 245.906,248.027 246.573,247.027 246.5,245.5 Z"/></g>
<g><path style="opacity:0.004" fill="#d1d6d5" d="M 88.5,243.5 C 88.8333,243.5 89.1667,243.5 89.5,243.5C 90.6005,244.605 91.2671,245.938 91.5,247.5C 89.7376,246.738 88.7376,245.404 88.5,243.5 Z"/></g>
<g><path style="opacity:0.412" fill="#979fa1" d="M 247.5,245.5 C 249.455,244.07 251.121,244.403 252.5,246.5C 250.883,245.962 249.216,245.629 247.5,245.5 Z"/></g>
<g><path style="opacity:0.251" fill="#c0c5ca" d="M 263.5,243.5 C 263.567,244.959 263.234,246.292 262.5,247.5C 261.147,245.872 261.481,244.538 263.5,243.5 Z"/></g>
<g><path style="opacity:0.009" fill="#f9fcfc" d="M 235.5,246.5 C 235.5,248.5 235.5,250.5 235.5,252.5C 234.637,253.463 233.97,253.463 233.5,252.5C 234.05,250.343 234.717,248.343 235.5,246.5 Z"/></g>
<g><path style="opacity:0.012" fill="#d7dadb" d="M 246.5,245.5 C 246.573,247.027 245.906,248.027 244.5,248.5C 244.427,246.973 245.094,245.973 246.5,245.5 Z"/></g>
<g><path style="opacity:0.012" fill="#f0f0f0" d="M 244.5,248.5 C 245.091,249.151 245.757,249.818 246.5,250.5C 245.757,251.182 245.091,251.849 244.5,252.5C 243.167,251.167 243.167,249.833 244.5,248.5 Z"/></g>
<g><path style="opacity:0.016" fill="#cccecf" d="M 106.5,250.5 C 108.749,251.08 110.415,252.413 111.5,254.5C 109.251,253.92 107.585,252.587 106.5,250.5 Z"/></g>
<g><path style="opacity:0.082" fill="#c2c5c5" d="M 252.5,246.5 C 253.725,247.152 254.392,248.319 254.5,250C 254.486,251.385 254.152,252.551 253.5,253.5C 253.702,251.05 253.369,248.717 252.5,246.5 Z"/></g>
<g><path style="opacity:0.773" fill="#838d8e" d="M 177.5,250.5 C 177.38,251.586 176.713,252.253 175.5,252.5C 174.584,252.457 173.917,252.124 173.5,251.5C 174.959,251.567 176.292,251.234 177.5,250.5 Z"/></g>
<g><path style="opacity:0.02" fill="#e0e2e2" d="M 164.5,245.5 C 163.885,249.991 164.885,253.991 167.5,257.5C 165.589,257.426 164.422,256.426 164,254.5C 163.195,251.304 163.362,248.304 164.5,245.5 Z"/></g>
<g><path style="opacity:0.412" fill="#c5c8c8" d="M 244.5,252.5 C 245.833,253.167 246.833,254.167 247.5,255.5C 245.5,255.5 244.5,254.5 244.5,252.5 Z"/></g>
<g><path style="opacity:0.349" fill="#caced0" d="M 253.5,253.5 C 253.167,254.167 252.833,254.833 252.5,255.5C 252.167,255.5 251.833,255.5 251.5,255.5C 251.167,255.5 250.833,255.5 250.5,255.5C 250.973,254.094 251.973,253.427 253.5,253.5 Z"/></g>
<g><path style="opacity:0.722" fill="#a2a6a8" d="M 99.5,255.5 C 102.427,256.757 104.761,258.757 106.5,261.5C 103.573,260.243 101.239,258.243 99.5,255.5 Z"/></g>
<g><path style="opacity:0.008" fill="#d9dcdd" d="M 112.5,255.5 C 114.027,255.427 115.027,256.094 115.5,257.5C 113.973,257.573 112.973,256.906 112.5,255.5 Z"/></g>
<g><path style="opacity:0.008" fill="#d5dbd8" d="M 184.5,255.5 C 183.254,258.643 180.92,260.643 177.5,261.5C 177.5,260.833 177.167,260.5 176.5,260.5C 179.434,259.361 182.1,257.694 184.5,255.5 Z"/></g>
<g><path style="opacity:0.02" fill="#bdc1c2" d="M 115.5,257.5 C 117.23,258.026 118.564,259.026 119.5,260.5C 117.368,260.446 116.035,259.446 115.5,257.5 Z"/></g>
<g><path style="opacity:0.067" fill="#d6d9d9" d="M 261.5,256.5 C 261.573,258.027 260.906,259.027 259.5,259.5C 259.427,257.973 260.094,256.973 261.5,256.5 Z"/></g>
<g><path style="opacity:1" fill="#656b6e" d="M 236.5,256.5 C 237.014,257.625 237.347,258.791 237.5,260C 236.551,260.617 235.718,260.451 235,259.5C 234.184,260.823 233.017,261.489 231.5,261.5C 232.973,259.605 234.64,257.939 236.5,256.5 Z"/></g>
<g><path style="opacity:1" fill="#696e6f" d="M 259.5,259.5 C 258.738,261.262 257.404,262.262 255.5,262.5C 256.953,261.175 256.619,260.342 254.5,260C 256.134,259.506 257.801,259.34 259.5,259.5 Z"/></g>
<g><path style="opacity:0.004" fill="#e3e5e5" d="M 167.5,257.5 C 170.183,259.336 173.183,260.336 176.5,260.5C 177.167,260.5 177.5,260.833 177.5,261.5C 173.276,263.635 169.942,262.302 167.5,257.5 Z"/></g>
<g><path style="opacity:0.737" fill="#8f9596" d="M 106.5,261.5 C 108.404,261.738 109.738,262.738 110.5,264.5C 108.596,264.262 107.262,263.262 106.5,261.5 Z"/></g>
<g><path style="opacity:0.004" fill="#b6bdbe" d="M 119.5,260.5 C 121.882,261.351 123.882,262.684 125.5,264.5C 122.733,264.13 120.733,262.796 119.5,260.5 Z"/></g>
<g><path style="opacity:0.09" fill="#d9dbdc" d="M 231.5,261.5 C 230.341,263.25 228.674,264.25 226.5,264.5C 227.659,262.75 229.326,261.75 231.5,261.5 Z"/></g>
<g><path style="opacity:0.884" fill="#4a5153" d="M 253.5,262.5 C 254.167,262.5 254.833,262.5 255.5,262.5C 255.158,263.338 254.492,263.672 253.5,263.5C 250.5,263.5 247.5,263.5 244.5,263.5C 242.938,263.733 241.605,264.4 240.5,265.5C 240.167,265.5 239.833,265.5 239.5,265.5C 239.5,264.5 239.5,263.5 239.5,262.5C 244.167,262.5 248.833,262.5 253.5,262.5 Z"/></g>
<g><path style="opacity:0.18" fill="#e0e6e6" d="M 244.5,263.5 C 247.5,263.5 250.5,263.5 253.5,263.5C 251.444,264.216 249.277,264.883 247,265.5C 246.005,264.934 245.172,264.267 244.5,263.5 Z"/></g>
<g><path style="opacity:1" fill="#10171c" d="M 78.5,211.5 C 78.427,213.027 79.0937,214.027 80.5,214.5C 79.5908,216.761 79.2575,218.928 79.5,221C 82.1667,221.667 82.1667,222.333 79.5,223C 81.3977,223.93 83.3977,224.43 85.5,224.5C 85.427,226.027 86.0937,227.027 87.5,227.5C 87.427,229.027 88.0937,230.027 89.5,230.5C 89.427,232.027 90.0937,233.027 91.5,233.5C 91.7376,235.404 92.7376,236.738 94.5,237.5C 95.4194,240.089 97.086,242.089 99.5,243.5C 102.167,245.5 104.5,247.833 106.5,250.5C 107.585,252.587 109.251,253.92 111.5,254.5C 112.167,254.5 112.5,254.833 112.5,255.5C 112.973,256.906 113.973,257.573 115.5,257.5C 116.035,259.446 117.368,260.446 119.5,260.5C 120.733,262.796 122.733,264.13 125.5,264.5C 125.833,265.167 126.167,265.833 126.5,266.5C 125.624,266.369 124.957,266.702 124.5,267.5C 125.541,269.585 127.041,271.252 129,272.5C 128.645,273.959 128.811,275.293 129.5,276.5C 127.847,276.34 126.514,275.674 125.5,274.5C 125.027,273.094 124.027,272.427 122.5,272.5C 121.508,272.672 120.842,272.338 120.5,271.5C 120.027,270.094 119.027,269.427 117.5,269.5C 117.027,268.094 116.027,267.427 114.5,267.5C 113.738,265.738 112.404,264.738 110.5,264.5C 109.738,262.738 108.404,261.738 106.5,261.5C 104.761,258.757 102.427,256.757 99.5,255.5C 96.5,253.167 93.8333,250.5 91.5,247.5C 91.2671,245.938 90.6005,244.605 89.5,243.5C 89.6567,242.127 89.49,240.793 89,239.5C 88.586,239.957 88.086,240.291 87.5,240.5C 86.7348,239.388 85.7348,238.721 84.5,238.5C 84.573,236.973 83.9063,235.973 82.5,235.5C 81.0937,235.027 80.427,234.027 80.5,232.5C 80.2503,230.326 79.2503,228.659 77.5,227.5C 76.6743,224.515 75.341,221.849 73.5,219.5C 70.9174,213.879 72.584,211.212 78.5,211.5 Z"/></g>
<g><path style="opacity:0.514" fill="#9ea4a8" d="M 110.5,264.5 C 112.404,264.738 113.738,265.738 114.5,267.5C 112.596,267.262 111.262,266.262 110.5,264.5 Z"/></g>
<g><path style="opacity:0.153" fill="#c5c8c9" d="M 125.5,264.5 C 127.027,264.427 128.027,265.094 128.5,266.5C 127.833,266.5 127.167,266.5 126.5,266.5C 126.167,265.833 125.833,265.167 125.5,264.5 Z"/></g>
<g><path style="opacity:0.451" fill="#b8bec2" d="M 226.5,264.5 C 226.027,265.906 225.027,266.573 223.5,266.5C 223.973,265.094 224.973,264.427 226.5,264.5 Z"/></g>
<g><path style="opacity:0.008" fill="#dee0e1" d="M 239.5,265.5 C 239.833,265.5 240.167,265.5 240.5,265.5C 240.027,266.906 239.027,267.573 237.5,267.5C 237.833,266.5 238.5,265.833 239.5,265.5 Z"/></g>
<g><path style="opacity:0.31" fill="#acb0b3" d="M 114.5,267.5 C 116.027,267.427 117.027,268.094 117.5,269.5C 115.973,269.573 114.973,268.906 114.5,267.5 Z"/></g>
<g><path style="opacity:0.737" fill="#a7aaab" d="M 179.5,268.5 C 176.482,268.704 173.482,269.037 170.5,269.5C 173.373,267.518 176.373,267.185 179.5,268.5 Z"/></g>
<g><path style="opacity:0.016" fill="#d5d8d7" d="M 179.5,268.5 C 182.089,268.461 184.089,269.461 185.5,271.5C 184.833,271.5 184.167,271.5 183.5,271.5C 182.167,270.5 180.833,269.5 179.5,268.5 Z"/></g>
<g><path style="opacity:0.271" fill="#b7bdc1" d="M 117.5,269.5 C 119.027,269.427 120.027,270.094 120.5,271.5C 118.973,271.573 117.973,270.906 117.5,269.5 Z"/></g>
<g><path style="opacity:0.757" fill="#95999b" d="M 217.5,269.5 C 216.365,271.213 214.698,271.88 212.5,271.5C 213.93,270.463 215.597,269.796 217.5,269.5 Z"/></g>
<g><path style="opacity:0.165" fill="#c7cbcb" d="M 231.5,271.5 C 230.341,273.25 228.674,274.25 226.5,274.5C 227.659,272.75 229.326,271.75 231.5,271.5 Z"/></g>
<g><path style="opacity:0.188" fill="#bac6c5" d="M 122.5,272.5 C 124.027,272.427 125.027,273.094 125.5,274.5C 123.973,274.573 122.973,273.906 122.5,272.5 Z"/></g>
<g><path style="opacity:1" fill="#10171c" d="M 240.5,241.5 C 240.579,242.93 240.246,244.264 239.5,245.5C 240.025,246.192 240.692,246.692 241.5,247C 236.372,249.477 236.705,251.477 242.5,253C 241.85,254.609 242.35,256.109 244,257.5C 246.333,256.167 248.667,256.167 251,257.5C 251.464,256.906 251.631,256.239 251.5,255.5C 251.833,255.5 252.167,255.5 252.5,255.5C 253.043,255.56 253.376,255.893 253.5,256.5C 252.687,257.814 251.687,258.981 250.5,260C 252.119,260.236 253.119,261.069 253.5,262.5C 248.833,262.5 244.167,262.5 239.5,262.5C 239.5,263.5 239.5,264.5 239.5,265.5C 238.5,265.833 237.833,266.5 237.5,267.5C 235.853,269.326 233.853,270.66 231.5,271.5C 229.326,271.75 227.659,272.75 226.5,274.5C 224.819,276.008 222.819,277.008 220.5,277.5C 218.447,277.402 216.78,278.069 215.5,279.5C 213.447,279.402 211.78,280.069 210.5,281.5C 208.485,282.924 206.152,283.59 203.5,283.5C 198.055,284.074 192.721,285.074 187.5,286.5C 185.283,285.773 182.95,285.94 180.5,287C 182.949,289.197 182.783,290.697 180,291.5C 171.843,293.188 166.676,290.521 164.5,283.5C 166.124,280.752 167.457,278.252 168.5,276C 168.833,275.833 169.167,275.667 169.5,275.5C 170.429,276.689 170.762,278.022 170.5,279.5C 170.076,283.002 171.41,285.335 174.5,286.5C 176.455,287.93 178.121,287.597 179.5,285.5C 182.09,282.617 182.09,279.617 179.5,276.5C 179.5,274.833 179.5,273.167 179.5,271.5C 180.833,271.5 182.167,271.5 183.5,271.5C 184.167,271.5 184.833,271.5 185.5,271.5C 185.427,273.027 186.094,274.027 187.5,274.5C 187.5,275.833 187.5,277.167 187.5,278.5C 193.516,278.167 199.183,276.834 204.5,274.5C 206.936,273.129 209.603,272.129 212.5,271.5C 214.698,271.88 216.365,271.213 217.5,269.5C 219.181,267.992 221.181,266.992 223.5,266.5C 225.027,266.573 226.027,265.906 226.5,264.5C 228.674,264.25 230.341,263.25 231.5,261.5C 233.017,261.489 234.184,260.823 235,259.5C 235.718,260.451 236.551,260.617 237.5,260C 237.347,258.791 237.014,257.625 236.5,256.5C 236.5,256.167 236.5,255.833 236.5,255.5C 236.335,252.15 236.502,248.817 237,245.5C 237.66,243.676 238.827,242.343 240.5,241.5 Z M 177.5,276.5 C 178.167,277.5 178.833,278.5 179.5,279.5C 180.573,281.347 180.573,283.347 179.5,285.5C 177.883,286.038 176.216,286.371 174.5,286.5C 173.26,285.027 172.26,283.36 171.5,281.5C 172.09,280.201 173.09,279.368 174.5,279C 173.944,278.617 173.611,278.117 173.5,277.5C 174.833,277.167 176.167,276.833 177.5,276.5 Z"/></g>
<g><path style="opacity:0.267" fill="#c0c5c6" d="M 185.5,271.5 C 186.906,271.973 187.573,272.973 187.5,274.5C 186.094,274.027 185.427,273.027 185.5,271.5 Z"/></g>
<g><path style="opacity:0.655" fill="#9fa6a7" d="M 187.5,274.5 C 188.315,275.429 189.148,276.429 190,277.5C 194.76,276.269 199.593,275.269 204.5,274.5C 199.183,276.834 193.516,278.167 187.5,278.5C 187.5,277.167 187.5,275.833 187.5,274.5 Z"/></g>
<g><path style="opacity:0.959" fill="#707478" d="M 129.5,276.5 C 132.32,276.087 134.32,277.087 135.5,279.5C 133.181,279.008 131.181,278.008 129.5,276.5 Z"/></g>
<g><path style="opacity:1" fill="#13191e" d="M 126.5,266.5 C 127.167,266.5 127.833,266.5 128.5,266.5C 131.485,267.326 134.151,268.659 136.5,270.5C 137.552,272.256 139.219,272.923 141.5,272.5C 142.791,272.263 143.791,272.596 144.5,273.5C 146.438,275.163 148.772,275.829 151.5,275.5C 152.791,275.263 153.791,275.596 154.5,276.5C 157.544,278.011 160.878,278.678 164.5,278.5C 164.5,277.167 164.5,275.833 164.5,274.5C 166.167,273.5 167.5,272.167 168.5,270.5C 168.842,269.662 169.508,269.328 170.5,269.5C 173.482,269.037 176.482,268.704 179.5,268.5C 180.833,269.5 182.167,270.5 183.5,271.5C 182.167,271.5 180.833,271.5 179.5,271.5C 179.5,273.167 179.5,274.833 179.5,276.5C 178.833,276.5 178.167,276.5 177.5,276.5C 176.167,276.833 174.833,277.167 173.5,277.5C 172.5,278.167 171.5,278.833 170.5,279.5C 170.762,278.022 170.429,276.689 169.5,275.5C 169.167,275.667 168.833,275.833 168.5,276C 167.457,278.252 166.124,280.752 164.5,283.5C 166.676,290.521 171.843,293.188 180,291.5C 182.783,290.697 182.949,289.197 180.5,287C 182.95,285.94 185.283,285.773 187.5,286.5C 187.167,287.833 186.833,289.167 186.5,290.5C 186.5,291.167 186.167,291.5 185.5,291.5C 183.973,291.427 182.973,292.094 182.5,293.5C 177.77,293.717 173.103,293.383 168.5,292.5C 167.833,291.167 166.833,290.167 165.5,289.5C 164.833,289.5 164.5,289.167 164.5,288.5C 164.209,287.351 163.376,286.684 162,286.5C 157.213,285.18 152.379,284.18 147.5,283.5C 145.898,281.926 143.898,281.259 141.5,281.5C 139.898,279.926 137.898,279.259 135.5,279.5C 134.32,277.087 132.32,276.087 129.5,276.5C 128.811,275.293 128.645,273.959 129,272.5C 127.041,271.252 125.541,269.585 124.5,267.5C 124.957,266.702 125.624,266.369 126.5,266.5 Z"/></g>
<g><path style="opacity:0.345" fill="#bbbebf" d="M 144.5,273.5 C 147.067,273.721 149.401,274.388 151.5,275.5C 148.772,275.829 146.438,275.163 144.5,273.5 Z"/></g>
<g><path style="opacity:0.322" fill="#cacecc" d="M 168.5,270.5 C 167.5,272.167 166.167,273.5 164.5,274.5C 164.833,272.167 166.167,270.833 168.5,270.5 Z"/></g>
<g><path style="opacity:0.965" fill="#6d7374" d="M 136.5,270.5 C 138.553,270.402 140.22,271.069 141.5,272.5C 139.219,272.923 137.552,272.256 136.5,270.5 Z"/></g>
<g><path style="opacity:0.341" fill="#9ba3a5" d="M 164.5,274.5 C 164.5,275.833 164.5,277.167 164.5,278.5C 160.878,278.678 157.544,278.011 154.5,276.5C 157.545,276.508 160.545,276.841 163.5,277.5C 163.263,276.209 163.596,275.209 164.5,274.5 Z"/></g>
<g><path style="opacity:0.376" fill="#b8bdc0" d="M 177.5,276.5 C 178.167,276.5 178.833,276.5 179.5,276.5C 182.09,279.617 182.09,282.617 179.5,285.5C 180.573,283.347 180.573,281.347 179.5,279.5C 178.833,278.5 178.167,277.5 177.5,276.5 Z"/></g>
<g><path style="opacity:0.063" fill="#d1d3d5" d="M 220.5,277.5 C 219.22,278.931 217.553,279.598 215.5,279.5C 216.78,278.069 218.447,277.402 220.5,277.5 Z"/></g>
<g><path style="opacity:0.725" fill="#939a9a" d="M 135.5,279.5 C 137.898,279.259 139.898,279.926 141.5,281.5C 139.214,281.405 137.214,280.738 135.5,279.5 Z"/></g>
<g><path style="opacity:0.478" fill="#aeb2b5" d="M 173.5,277.5 C 173.611,278.117 173.944,278.617 174.5,279C 173.09,279.368 172.09,280.201 171.5,281.5C 172.26,283.36 173.26,285.027 174.5,286.5C 171.41,285.335 170.076,283.002 170.5,279.5C 171.5,278.833 172.5,278.167 173.5,277.5 Z"/></g>
<g><path style="opacity:0.106" fill="#ccd1d2" d="M 215.5,279.5 C 214.22,280.931 212.553,281.598 210.5,281.5C 211.78,280.069 213.447,279.402 215.5,279.5 Z"/></g>
<g><path style="opacity:0.435" fill="#99a0a3" d="M 141.5,281.5 C 143.898,281.259 145.898,281.926 147.5,283.5C 145.102,283.741 143.102,283.074 141.5,281.5 Z"/></g>
<g><path style="opacity:0.009" fill="#d3d5d6" d="M 147.5,283.5 C 152.379,284.18 157.213,285.18 162,286.5C 163.376,286.684 164.209,287.351 164.5,288.5C 158.619,287.283 152.952,285.616 147.5,283.5 Z"/></g>
<g><path style="opacity:0.486" fill="#828686" d="M 179.5,285.5 C 178.121,287.597 176.455,287.93 174.5,286.5C 176.216,286.371 177.883,286.038 179.5,285.5 Z"/></g>
<g><path style="opacity:0.141" fill="#bec3c3" d="M 203.5,283.5 C 199.183,285.579 194.516,286.746 189.5,287C 188.837,288.518 187.837,289.685 186.5,290.5C 186.833,289.167 187.167,287.833 187.5,286.5C 192.721,285.074 198.055,284.074 203.5,283.5 Z"/></g>
<g><path style="opacity:0.016" fill="#c8cccc" d="M 165.5,289.5 C 166.833,290.167 167.833,291.167 168.5,292.5C 166.5,292.5 165.5,291.5 165.5,289.5 Z"/></g>
<g><path style="opacity:0.012" fill="#dee0e2" d="M 185.5,291.5 C 185.027,292.906 184.027,293.573 182.5,293.5C 182.973,292.094 183.973,291.427 185.5,291.5 Z"/></g>
<g><path style="opacity:0.822" fill="#898f8d" d="M 168.5,292.5 C 173.103,293.383 177.77,293.717 182.5,293.5C 178.384,295.958 174.05,296.124 169.5,294C 168.944,293.617 168.611,293.117 168.5,292.5 Z"/></g>
</svg>
