<?xml version="1.0" encoding="UTF-8"?>
<!DOCTYPE svg PUBLIC "-//W3C//DTD SVG 1.1//EN" "http://www.w3.org/Graphics/SVG/1.1/DTD/svg11.dtd">
<svg xmlns="http://www.w3.org/2000/svg" version="1.1" width="348px" height="341px" style="shape-rendering:geometricPrecision; text-rendering:geometricPrecision; image-rendering:optimizeQuality; fill-rule:evenodd; clip-rule:evenodd" xmlns:xlink="http://www.w3.org/1999/xlink">
<g><path style="opacity:1" fill="#090909" d="M 261.5,62.5 C 261.666,68.1764 261.499,73.8431 261,79.5C 257.5,83 254,86.5 250.5,90C 247.854,90.4974 245.187,90.6641 242.5,90.5C 242.667,102.838 242.5,115.171 242,127.5C 229.77,139.641 217.77,151.974 206,164.5C 202.164,169.515 200.664,175.182 201.5,181.5C 213.587,180.707 216.92,185.874 211.5,197C 208.183,197.498 204.85,197.665 201.5,197.5C 201.5,208.833 201.5,220.167 201.5,231.5C 205.514,231.334 209.514,231.501 213.5,232C 208.017,238.65 202.017,244.817 195.5,250.5C 189.167,244.833 183.167,238.833 177.5,232.5C 181.445,231.509 185.445,231.176 189.5,231.5C 189.5,220.167 189.5,208.833 189.5,197.5C 177.64,199.638 173.64,194.971 177.5,183.5C 181.217,181.656 185.217,180.989 189.5,181.5C 191.068,172.707 188.734,165.207 182.5,159C 165.586,149.627 148.752,140.127 132,130.5C 131.5,117.171 131.333,103.837 131.5,90.5C 129.143,90.6633 126.81,90.4966 124.5,90C 120.667,86.1667 116.833,82.3333 113,78.5C 112.501,73.8452 112.334,69.1785 112.5,64.5C 112.297,62.6096 112.963,61.1096 114.5,60C 127.688,59.7878 140.855,59.2878 154,58.5C 189.354,58.7937 224.854,59.2937 260.5,60C 261.252,60.6708 261.586,61.5041 261.5,62.5 Z"/></g>
<g><path style="opacity:0.995" fill="#f9f9f9" d="M 261.5,62.5 C 262.166,66.3525 262.833,70.3525 263.5,74.5C 269.115,78.6118 274.281,83.2785 279,88.5C 280.751,90.4899 281.751,92.8232 282,95.5C 282.667,110.5 282.667,125.5 282,140.5C 279.659,155.743 278.992,171.077 280,186.5C 280.669,188.59 281.836,190.257 283.5,191.5C 277.5,191.5 271.5,191.5 265.5,191.5C 265.667,210.503 265.5,229.503 265,248.5C 263.459,255.434 259.626,260.601 253.5,264C 203.558,265.653 153.558,265.986 103.5,265C 95.7136,262.212 91.2136,256.712 90,248.5C 89.6667,218.5 89.3333,188.5 89,158.5C 85.6847,154.895 82.018,154.561 78,157.5C 77.2086,158.745 76.7086,160.078 76.5,161.5C 75.8826,161.611 75.3826,161.944 75,162.5C 72.727,154.235 70.227,146.069 67.5,138C 68.056,137.617 68.3893,137.117 68.5,136.5C 71.1639,140.016 74.4973,142.85 78.5,145C 83.8333,146 89.1667,147 94.5,148C 96,149.5 97.5,151 99,152.5C 100.303,175.437 100.969,198.437 101,221.5C 108.022,235.392 118.189,238.225 131.5,230C 134.933,226.896 137.1,223.063 138,218.5C 138.333,203.833 138.667,189.167 139,174.5C 143,169.167 147,169.167 151,174.5C 151.5,184.828 151.666,195.161 151.5,205.5C 155.833,205.5 160.167,205.5 164.5,205.5C 164.667,194.162 164.5,182.828 164,171.5C 159.066,160.283 150.566,155.783 138.5,158C 132.242,160.59 128.075,165.09 126,171.5C 125.667,186.5 125.333,201.5 125,216.5C 122.947,220.292 119.781,221.458 115.5,220C 115,219.5 114.5,219 114,218.5C 113.667,196.167 113.333,173.833 113,151.5C 108.46,137.966 98.9604,131.466 84.5,132C 81.2716,130.437 79.1049,127.937 78,124.5C 77.3333,115.833 77.3333,107.167 78,98.5C 79.8048,94.8571 82.6381,92.5237 86.5,91.5C 92.1667,91.5 97.8333,91.5 103.5,91.5C 103.819,86.6367 103.486,81.97 102.5,77.5C 86.3754,73.9139 74.0421,78.9139 65.5,92.5C 67.6361,84.0709 71.9694,76.9042 78.5,71C 81.618,69.107 84.9513,67.7736 88.5,67C 96.5962,66.544 104.596,65.7107 112.5,64.5C 112.334,69.1785 112.501,73.8452 113,78.5C 116.833,82.3333 120.667,86.1667 124.5,90C 126.81,90.4966 129.143,90.6633 131.5,90.5C 131.333,103.837 131.5,117.171 132,130.5C 148.752,140.127 165.586,149.627 182.5,159C 188.734,165.207 191.068,172.707 189.5,181.5C 185.217,180.989 181.217,181.656 177.5,183.5C 173.64,194.971 177.64,199.638 189.5,197.5C 189.5,208.833 189.5,220.167 189.5,231.5C 185.445,231.176 181.445,231.509 177.5,232.5C 183.167,238.833 189.167,244.833 195.5,250.5C 202.017,244.817 208.017,238.65 213.5,232C 209.514,231.501 205.514,231.334 201.5,231.5C 201.5,220.167 201.5,208.833 201.5,197.5C 204.85,197.665 208.183,197.498 211.5,197C 216.92,185.874 213.587,180.707 201.5,181.5C 200.664,175.182 202.164,169.515 206,164.5C 217.77,151.974 229.77,139.641 242,127.5C 242.5,115.171 242.667,102.838 242.5,90.5C 245.187,90.6641 247.854,90.4974 250.5,90C 254,86.5 257.5,83 261,79.5C 261.499,73.8431 261.666,68.1764 261.5,62.5 Z"/></g>
<g><path style="opacity:1" fill="#f9f9f9" d="M 124.5,71.5 C 166.505,71.1668 208.505,71.5001 250.5,72.5C 248.684,74.8169 246.684,76.9835 244.5,79C 206.5,79.6667 168.5,79.6667 130.5,79C 127.882,76.8943 125.882,74.3943 124.5,71.5 Z"/></g>
<g><path style="opacity:1" fill="#090909" d="M 102.5,77.5 C 102.5,81.8333 102.5,86.1667 102.5,90.5C 96.9738,90.1786 91.6405,90.5119 86.5,91.5C 82.6381,92.5237 79.8048,94.8571 78,98.5C 77.3333,107.167 77.3333,115.833 78,124.5C 79.1049,127.937 81.2716,130.437 84.5,132C 98.9604,131.466 108.46,137.966 113,151.5C 113.333,173.833 113.667,196.167 114,218.5C 114.5,219 115,219.5 115.5,220C 119.781,221.458 122.947,220.292 125,216.5C 125.333,201.5 125.667,186.5 126,171.5C 128.075,165.09 132.242,160.59 138.5,158C 150.566,155.783 159.066,160.283 164,171.5C 164.5,182.828 164.667,194.162 164.5,205.5C 160.167,205.5 155.833,205.5 151.5,205.5C 151.666,195.161 151.5,184.828 151,174.5C 147,169.167 143,169.167 139,174.5C 138.667,189.167 138.333,203.833 138,218.5C 137.1,223.063 134.933,226.896 131.5,230C 118.189,238.225 108.022,235.392 101,221.5C 100.969,198.437 100.303,175.437 99,152.5C 97.5,151 96,149.5 94.5,148C 89.1667,147 83.8333,146 78.5,145C 74.4973,142.85 71.1639,140.016 68.5,136.5C 65.6413,133.098 64.1413,129.098 64,124.5C 63.0248,113.704 63.5248,103.037 65.5,92.5C 74.0421,78.9139 86.3754,73.9139 102.5,77.5 Z"/></g>
<g><path style="opacity:1" fill="#484848" d="M 102.5,77.5 C 103.486,81.97 103.819,86.6367 103.5,91.5C 97.8333,91.5 92.1667,91.5 86.5,91.5C 91.6405,90.5119 96.9738,90.1786 102.5,90.5C 102.5,86.1667 102.5,81.8333 102.5,77.5 Z"/></g>
<g><path style="opacity:1" fill="#fafafa" d="M 156.5,122.5 C 159.118,126.291 161.951,129.957 165,133.5C 165.688,134.332 165.521,134.998 164.5,135.5C 157.485,132.329 150.818,128.662 144.5,124.5C 144.5,113.5 144.5,102.5 144.5,91.5C 148.167,91.5 151.833,91.5 155.5,91.5C 155.172,102.014 155.506,112.347 156.5,122.5 Z"/></g>
<g><path style="opacity:1" fill="#f6f6f6" d="M 168.5,90.5 C 172.5,90.5 176.5,90.5 180.5,90.5C 180.334,100.172 180.5,109.839 181,119.5C 183.519,128.104 185.519,136.77 187,145.5C 181,137.5 175,129.5 169,121.5C 168.5,111.172 168.334,100.839 168.5,90.5 Z"/></g>
<g><path style="opacity:1" fill="#f9f9f9" d="M 193.5,90.5 C 197.5,90.5 201.5,90.5 205.5,90.5C 207.177,109.349 205.01,127.682 199,145.5C 196.504,138.376 194.838,131.043 194,123.5C 193.5,112.505 193.333,101.505 193.5,90.5 Z"/></g>
<g><path style="opacity:1" fill="#f8f8f8" d="M 229.5,123.5 C 223.505,129.663 217.671,135.996 212,142.5C 213.506,135.47 215.34,128.47 217.5,121.5C 218.494,111.681 218.827,101.681 218.5,91.5C 222.167,91.5 225.833,91.5 229.5,91.5C 229.5,102.167 229.5,112.833 229.5,123.5 Z"/></g>
<g><path style="opacity:1" fill="#020202" d="M 268.5,97.5 C 272.192,96.9712 275.358,97.9712 278,100.5C 278.5,128.165 278.667,155.831 278.5,183.5C 274.233,183.797 270.066,183.464 266,182.5C 265.333,155.5 265.333,128.5 266,101.5C 266.662,100.016 267.496,98.6828 268.5,97.5 Z"/></g>
<g><path style="opacity:1" fill="#bfbfbf" d="M 229.5,123.5 C 229.5,112.833 229.5,102.167 229.5,91.5C 225.833,91.5 222.167,91.5 218.5,91.5C 218.827,101.681 218.494,111.681 217.5,121.5C 217.5,111.167 217.5,100.833 217.5,90.5C 221.833,90.5 226.167,90.5 230.5,90.5C 230.828,101.679 230.495,112.679 229.5,123.5 Z"/></g>
<g><path style="opacity:1" fill="#101010" d="M 90.5,100.5 C 92.1439,100.286 93.6439,100.62 95,101.5C 95.4994,106.823 95.666,112.156 95.5,117.5C 103.42,117.185 111.253,117.518 119,118.5C 119.743,120.441 119.576,122.274 118.5,124C 109.5,124.667 100.5,124.667 91.5,124C 91,123.5 90.5,123 90,122.5C 89.2036,115.087 89.3703,107.754 90.5,100.5 Z"/></g>
<g><path style="opacity:1" fill="#a9a9a9" d="M 156.5,122.5 C 155.506,112.347 155.172,102.014 155.5,91.5C 151.833,91.5 148.167,91.5 144.5,91.5C 144.5,102.5 144.5,113.5 144.5,124.5C 143.505,113.346 143.172,102.012 143.5,90.5C 147.833,90.5 152.167,90.5 156.5,90.5C 156.5,101.167 156.5,111.833 156.5,122.5 Z"/></g>
<g><path style="opacity:1" fill="#0e0e0e" d="M 237.5,149.5 C 241.161,149.35 242.161,150.85 240.5,154C 236.707,154.487 235.707,152.987 237.5,149.5 Z"/></g>
<g><path style="opacity:1" fill="#0c0c0c" d="M 283.5,191.5 C 289.873,191.368 292.373,194.368 291,200.5C 290.292,201.381 289.458,202.047 288.5,202.5C 285.167,202.5 281.833,202.5 278.5,202.5C 278.5,219.833 278.5,237.167 278.5,254.5C 277.039,264.946 271.705,272.613 262.5,277.5C 260.847,277.66 259.514,278.326 258.5,279.5C 256.189,281.068 253.522,281.902 250.5,282C 201.5,282.667 152.5,282.667 103.5,282C 99.7821,281.627 96.4488,280.461 93.5,278.5C 93.0269,277.094 92.0269,276.427 90.5,276.5C 88.6115,275.396 86.9448,274.063 85.5,272.5C 85.573,270.973 84.9063,269.973 83.5,269.5C 80.3389,266.525 78.1723,262.858 77,258.5C 76.5001,243.504 76.3334,228.504 76.5,213.5C 76.5,209.833 76.5,206.167 76.5,202.5C 73.1667,202.5 69.8333,202.5 66.5,202.5C 62.3362,198.634 62.6695,195.134 67.5,192C 70.4816,191.502 73.4816,191.335 76.5,191.5C 76.5,181.5 76.5,171.5 76.5,161.5C 76.7086,160.078 77.2086,158.745 78,157.5C 82.018,154.561 85.6847,154.895 89,158.5C 89.3333,188.5 89.6667,218.5 90,248.5C 91.2136,256.712 95.7136,262.212 103.5,265C 153.558,265.986 203.558,265.653 253.5,264C 259.626,260.601 263.459,255.434 265,248.5C 265.5,229.503 265.667,210.503 265.5,191.5C 271.5,191.5 277.5,191.5 283.5,191.5 Z"/></g>
<g><path style="opacity:1" fill="#111111" d="M 235.5,162.5 C 243.993,161.471 246.327,164.637 242.5,172C 237.403,174.283 234.403,172.616 233.5,167C 233.519,165.167 234.185,163.667 235.5,162.5 Z"/></g>
<g><path style="opacity:1" fill="#161616" d="M 236.5,181.5 C 238.167,181.5 239.833,181.5 241.5,181.5C 241.5,182.833 241.5,184.167 241.5,185.5C 239.833,185.5 238.167,185.5 236.5,185.5C 236.5,184.167 236.5,182.833 236.5,181.5 Z"/></g>
<g><path style="opacity:1" fill="#0a0a0a" d="M 229.5,191.5 C 233.426,191.047 236.592,192.38 239,195.5C 243.041,190.687 247.375,190.354 252,194.5C 252.79,197.634 252.457,200.634 251,203.5C 247.5,207 244,210.5 240.5,214C 239.5,214.667 238.5,214.667 237.5,214C 232.966,209.801 228.799,205.301 225,200.5C 224.377,196.412 225.877,193.412 229.5,191.5 Z"/></g>
<g><path style="opacity:0.013" fill="#dddddd" d="M 66.5,202.5 C 69.8333,202.5 73.1667,202.5 76.5,202.5C 76.5,206.167 76.5,209.833 76.5,213.5C 75.5206,210.375 75.1872,207.042 75.5,203.5C 72.2869,203.81 69.2869,203.477 66.5,202.5 Z"/></g>
<g><path style="opacity:0.312" fill="#aeaeae" d="M 288.5,202.5 C 285.713,203.477 282.713,203.81 279.5,203.5C 279.83,220.675 279.497,237.675 278.5,254.5C 278.5,237.167 278.5,219.833 278.5,202.5C 281.833,202.5 285.167,202.5 288.5,202.5 Z"/></g>
<g><path style="opacity:1" fill="#131313" d="M 151.5,213.5 C 155.514,213.334 159.514,213.501 163.5,214C 165.527,215.396 165.86,217.062 164.5,219C 160.167,219.667 155.833,219.667 151.5,219C 148.982,217.19 148.982,215.357 151.5,213.5 Z"/></g>
<g><path style="opacity:1" fill="#1b1b1b" d="M 236.5,220.5 C 238.167,220.5 239.833,220.5 241.5,220.5C 242.169,224.676 240.669,226.009 237,224.5C 236.51,223.207 236.343,221.873 236.5,220.5 Z"/></g>
<g><path style="opacity:1" fill="#808080" d="M 148.5,228.5 C 154.645,227.51 160.978,227.177 167.5,227.5C 167.818,232.032 167.485,236.366 166.5,240.5C 166.5,236.5 166.5,232.5 166.5,228.5C 160.5,228.5 154.5,228.5 148.5,228.5 Z"/></g>
<g><path style="opacity:1" fill="#050505" d="M 148.5,228.5 C 154.5,228.5 160.5,228.5 166.5,228.5C 166.5,232.5 166.5,236.5 166.5,240.5C 165.167,240.5 163.833,240.5 162.5,240.5C 162.665,244.182 162.499,247.848 162,251.5C 158.581,254.39 155.581,254.057 153,250.5C 152.502,247.183 152.335,243.85 152.5,240.5C 151.167,240.5 149.833,240.5 148.5,240.5C 148.5,236.5 148.5,232.5 148.5,228.5 Z"/></g>
<g><path style="opacity:1" fill="#0d0d0d" d="M 236.5,231.5 C 244.302,231.787 246.302,235.287 242.5,242C 237.308,243.872 234.308,242.205 233.5,237C 233.863,234.808 234.863,232.974 236.5,231.5 Z"/></g>
<g><path style="opacity:1" fill="#131313" d="M 115.5,242.5 C 121.806,241.707 124.639,244.374 124,250.5C 120.234,255.796 116.567,255.796 113,250.5C 112.018,247.225 112.851,244.559 115.5,242.5 Z"/></g>
<g><path style="opacity:0.004" fill="#cccccc" d="M 83.5,269.5 C 84.9063,269.973 85.573,270.973 85.5,272.5C 84.0937,272.027 83.427,271.027 83.5,269.5 Z"/></g>
<g><path style="opacity:0.345" fill="#a7a7a7" d="M 90.5,276.5 C 92.0269,276.427 93.0269,277.094 93.5,278.5C 91.9731,278.573 90.9731,277.906 90.5,276.5 Z"/></g>
<g><path style="opacity:0.145" fill="#bbbbbb" d="M 262.5,277.5 C 261.713,279.104 260.38,279.771 258.5,279.5C 259.514,278.326 260.847,277.66 262.5,277.5 Z"/></g>
</svg>
