<?xml version="1.0" encoding="UTF-8"?>
<!DOCTYPE svg PUBLIC "-//W3C//DTD SVG 1.1//EN" "http://www.w3.org/Graphics/SVG/1.1/DTD/svg11.dtd">
<svg xmlns="http://www.w3.org/2000/svg" version="1.1" width="317px" height="240px" style="shape-rendering:geometricPrecision; text-rendering:geometricPrecision; image-rendering:optimizeQuality; fill-rule:evenodd; clip-rule:evenodd" xmlns:xlink="http://www.w3.org/1999/xlink">
<g><path style="opacity:1" fill="#1e1e1e" d="M 167.5,28.5 C 166.094,28.9731 165.427,29.9731 165.5,31.5C 162.72,34.0638 159.72,36.3971 156.5,38.5C 153.833,41.1667 153.833,43.8333 156.5,46.5C 156.5,48.5 157.5,49.5 159.5,49.5C 165.173,49.4993 169.506,47.166 172.5,42.5C 173.609,42.5569 174.609,42.8902 175.5,43.5C 176.865,46.959 176.531,50.2924 174.5,53.5C 173.265,55.017 173.265,56.6837 174.5,58.5C 172.955,59.4519 171.288,59.7852 169.5,59.5C 162.489,58.3278 155.489,58.3278 148.5,59.5C 147.209,59.7373 146.209,59.404 145.5,58.5C 146.674,57.4863 147.34,56.153 147.5,54.5C 148.715,53.221 148.382,52.221 146.5,51.5C 145.899,49.422 145.566,47.2554 145.5,45C 145.3,42.1345 145.967,39.6345 147.5,37.5C 148.89,36.1007 149.89,34.4341 150.5,32.5C 151.5,32.1667 152.167,31.5 152.5,30.5C 152.833,29.5 153.5,28.8333 154.5,28.5C 157.621,27.7124 159.288,25.7124 159.5,22.5C 157.75,18.4133 159.083,16.9133 163.5,18C 167.603,20.668 168.937,24.168 167.5,28.5 Z"/></g>
<g><path style="opacity:0.4" fill="#afafaf" d="M 159.5,22.5 C 159.288,25.7124 157.621,27.7124 154.5,28.5C 156.196,26.4752 157.863,24.4752 159.5,22.5 Z"/></g>
<g><path style="opacity:0.012" fill="#cbcbcb" d="M 167.5,28.5 C 167.573,30.0269 166.906,31.0269 165.5,31.5C 165.427,29.9731 166.094,28.9731 167.5,28.5 Z"/></g>
<g><path style="opacity:0.357" fill="#bababa" d="M 152.5,30.5 C 152.167,31.5 151.5,32.1667 150.5,32.5C 150.5,31.1667 151.167,30.5 152.5,30.5 Z"/></g>
<g><path style="opacity:0.545" fill="#979797" d="M 150.5,32.5 C 149.89,34.4341 148.89,36.1007 147.5,37.5C 147.273,35.0672 148.273,33.4006 150.5,32.5 Z"/></g>
<g><path style="opacity:0.999" fill="#1d1d1d" d="M 117.5,39.5 C 117.5,42.1667 117.5,44.8333 117.5,47.5C 116.094,47.9731 115.427,48.9731 115.5,50.5C 111.726,54.1516 110.392,58.4849 111.5,63.5C 111.414,64.4959 111.748,65.3292 112.5,66C 114.387,66.7796 116.054,66.6129 117.5,65.5C 117.842,64.6618 118.508,64.3284 119.5,64.5C 121.404,64.2624 122.738,63.2624 123.5,61.5C 125.027,61.573 126.027,60.9063 126.5,59.5C 126.842,58.6618 127.508,58.3284 128.5,58.5C 129.693,58.0296 130.36,57.0296 130.5,55.5C 130.66,53.6455 129.993,52.3121 128.5,51.5C 128.196,50.8501 127.863,50.1835 127.5,49.5C 129.743,48.5258 132.076,48.1924 134.5,48.5C 138.498,50.1443 140.831,53.1443 141.5,57.5C 141.473,59.1993 140.806,60.5326 139.5,61.5C 137.491,63.0652 135.157,64.0652 132.5,64.5C 130.973,64.427 129.973,65.0937 129.5,66.5C 127.973,66.427 126.973,67.0937 126.5,68.5C 120.076,73.2622 115.076,79.2622 111.5,86.5C 105.791,88.5455 101.124,87.2122 97.5,82.5C 96.6403,78.5662 96.307,74.5662 96.5,70.5C 98.2915,70.366 99.9582,70.6993 101.5,71.5C 103.484,75.3685 106.484,76.3685 110.5,74.5C 111.885,73.0527 111.552,72.0527 109.5,71.5C 106.265,70.7328 104.099,68.7328 103,65.5C 102.232,61.0804 102.398,56.7471 103.5,52.5C 104.906,52.0269 105.573,51.0269 105.5,49.5C 105.328,48.5084 105.662,47.8417 106.5,47.5C 107.906,47.0269 108.573,46.0269 108.5,44.5C 109.014,42.6336 109.68,40.8003 110.5,39C 109.508,36.3134 110.508,34.9801 113.5,35C 115.041,36.3712 116.375,37.8712 117.5,39.5 Z"/></g>
<g><path style="opacity:0.008" fill="#cecece" d="M 217.5,40.5 C 218.833,40.5 219.5,41.1667 219.5,42.5C 218.5,42.1667 217.833,41.5 217.5,40.5 Z"/></g>
<g><path style="opacity:0.769" fill="#757575" d="M 156.5,38.5 C 155.167,41.1667 155.167,43.8333 156.5,46.5C 153.833,43.8333 153.833,41.1667 156.5,38.5 Z"/></g>
<g><path style="opacity:0.29" fill="#c4c4c4" d="M 172.5,42.5 C 173.947,41.1148 174.947,41.4482 175.5,43.5C 174.609,42.8902 173.609,42.5569 172.5,42.5 Z"/></g>
<g><path style="opacity:0.173" fill="#bebebe" d="M 216.5,40.5 C 216.068,41.7095 215.401,42.7095 214.5,43.5C 214.285,41.8212 214.952,40.8212 216.5,40.5 Z"/></g>
<g><path style="opacity:1" fill="#151515" d="M 216.5,40.5 C 216.833,40.5 217.167,40.5 217.5,40.5C 217.833,41.5 218.5,42.1667 219.5,42.5C 219.5,45.5 219.5,48.5 219.5,51.5C 219.047,52.4584 218.381,53.2917 217.5,54C 212.909,55.3877 208.575,57.221 204.5,59.5C 201.833,62.1667 201.833,64.8333 204.5,67.5C 205.167,67.5 205.5,67.8333 205.5,68.5C 205.611,69.1174 205.944,69.6174 206.5,70C 209.5,70.6667 212.5,70.6667 215.5,70C 216.056,69.6174 216.389,69.1174 216.5,68.5C 219.167,67.8333 220.833,66.1667 221.5,63.5C 222.5,63.5 223.5,63.5 224.5,63.5C 226.66,73.1894 223.326,80.5227 214.5,85.5C 212.214,85.595 210.214,86.2616 208.5,87.5C 207.105,88.8146 206.105,88.4812 205.5,86.5C 205.741,83.9664 204.741,82.2998 202.5,81.5C 201.5,80.1667 200.5,78.8333 199.5,77.5C 198.92,75.2512 197.587,73.5846 195.5,72.5C 194.415,70.4131 192.749,69.0798 190.5,68.5C 190.027,67.0937 189.027,66.427 187.5,66.5C 187.027,65.0937 186.027,64.427 184.5,64.5C 183.508,64.6716 182.842,64.3382 182.5,63.5C 181.032,62.2209 180.365,60.5542 180.5,58.5C 180.461,55.911 181.461,53.911 183.5,52.5C 185.167,51.5 186.5,50.1667 187.5,48.5C 189.604,48.2011 191.604,48.5344 193.5,49.5C 191.673,51.4872 190.673,53.8205 190.5,56.5C 190.657,59.3176 191.991,61.3176 194.5,62.5C 194.783,63.2891 195.283,63.9558 196,64.5C 196.32,60.7858 196.82,57.1191 197.5,53.5C 199.167,52.5 200.5,51.1667 201.5,49.5C 202.78,48.0687 204.447,47.4021 206.5,47.5C 208.898,47.7406 210.898,47.0739 212.5,45.5C 212.833,44.5 213.5,43.8333 214.5,43.5C 215.401,42.7095 216.068,41.7095 216.5,40.5 Z"/></g>
<g><path style="opacity:0.733" fill="#898989" d="M 117.5,39.5 C 120.167,42.1667 120.167,44.8333 117.5,47.5C 117.5,44.8333 117.5,42.1667 117.5,39.5 Z"/></g>
<g><path style="opacity:0.767" fill="#949494" d="M 219.5,42.5 C 222.017,45.4611 222.017,48.4611 219.5,51.5C 219.5,48.5 219.5,45.5 219.5,42.5 Z"/></g>
<g><path style="opacity:0.361" fill="#aaaaaa" d="M 108.5,44.5 C 108.573,46.0269 107.906,47.0269 106.5,47.5C 106.427,45.9731 107.094,44.9731 108.5,44.5 Z"/></g>
<g><path style="opacity:0.816" fill="#8c8c8c" d="M 212.5,45.5 C 210.898,47.0739 208.898,47.7406 206.5,47.5C 208.214,46.2616 210.214,45.595 212.5,45.5 Z"/></g>
<g><path style="opacity:0.553" fill="#aaaaaa" d="M 156.5,46.5 C 157.833,47.1667 158.833,48.1667 159.5,49.5C 157.5,49.5 156.5,48.5 156.5,46.5 Z"/></g>
<g><path style="opacity:0.016" fill="#c7c7c7" d="M 117.5,47.5 C 117.573,49.0269 116.906,50.0269 115.5,50.5C 115.427,48.9731 116.094,47.9731 117.5,47.5 Z"/></g>
<g><path style="opacity:0.371" fill="#afafaf" d="M 134.5,48.5 C 132.076,48.1924 129.743,48.5258 127.5,49.5C 127.863,50.1835 128.196,50.8501 128.5,51.5C 126.824,50.8166 126.157,49.4832 126.5,47.5C 129.385,47.1936 132.052,47.5269 134.5,48.5 Z"/></g>
<g><path style="opacity:0.522" fill="#a1a1a1" d="M 187.5,48.5 C 186.5,50.1667 185.167,51.5 183.5,52.5C 183.833,50.1667 185.167,48.8333 187.5,48.5 Z"/></g>
<g><path style="opacity:0.655" fill="#909090" d="M 201.5,49.5 C 200.5,51.1667 199.167,52.5 197.5,53.5C 197.833,51.1667 199.167,49.8333 201.5,49.5 Z"/></g>
<g><path style="opacity:0.247" fill="#b3b3b3" d="M 105.5,49.5 C 105.573,51.0269 104.906,52.0269 103.5,52.5C 103.427,50.9731 104.094,49.9731 105.5,49.5 Z"/></g>
<g><path style="opacity:0.18" fill="#ababab" d="M 187.5,48.5 C 189.607,47.5318 191.941,47.1984 194.5,47.5C 194.076,50.9181 192.742,53.9181 190.5,56.5C 190.673,53.8205 191.673,51.4872 193.5,49.5C 191.604,48.5344 189.604,48.2011 187.5,48.5 Z"/></g>
<g><path style="opacity:0.639" fill="#818181" d="M 146.5,51.5 C 148.382,52.221 148.715,53.221 147.5,54.5C 146.89,53.609 146.557,52.609 146.5,51.5 Z"/></g>
<g><path style="opacity:0.188" fill="#b4b4b4" d="M 147.5,54.5 C 147.34,56.153 146.674,57.4863 145.5,58.5C 145.229,56.6203 145.896,55.287 147.5,54.5 Z"/></g>
<g><path style="opacity:0.259" fill="#d4d4d4" d="M 128.5,51.5 C 129.993,52.3121 130.66,53.6455 130.5,55.5C 130.36,57.0296 129.693,58.0296 128.5,58.5C 129.686,56.2078 129.686,53.8744 128.5,51.5 Z"/></g>
<g><path style="opacity:0.165" fill="#d0d0d0" d="M 141.5,57.5 C 142.434,58.5676 142.768,59.901 142.5,61.5C 141.5,61.5 140.5,61.5 139.5,61.5C 140.806,60.5326 141.473,59.1993 141.5,57.5 Z"/></g>
<g><path style="opacity:0.141" fill="#dfdfdf" d="M 145.5,58.5 C 146.209,59.404 147.209,59.7373 148.5,59.5C 147.292,60.782 145.958,60.782 144.5,59.5C 144.624,58.8933 144.957,58.56 145.5,58.5 Z"/></g>
<g><path style="opacity:0.751" fill="#868686" d="M 174.5,53.5 C 174.665,55.8268 175.331,57.9935 176.5,60C 175.975,60.6924 175.308,61.1924 174.5,61.5C 172.664,60.9724 170.997,60.3058 169.5,59.5C 171.288,59.7852 172.955,59.4519 174.5,58.5C 173.265,56.6837 173.265,55.017 174.5,53.5 Z"/></g>
<g><path style="opacity:0.669" fill="#878787" d="M 197.5,53.5 C 196.82,57.1191 196.32,60.7858 196,64.5C 195.283,63.9558 194.783,63.2891 194.5,62.5C 195.317,60.0314 195.817,57.3647 196,54.5C 196.383,53.944 196.883,53.6107 197.5,53.5 Z"/></g>
<g><path style="opacity:0.71" fill="#8e8e8e" d="M 126.5,59.5 C 126.027,60.9063 125.027,61.573 123.5,61.5C 123.973,60.0937 124.973,59.427 126.5,59.5 Z"/></g>
<g><path style="opacity:0.6" fill="#9f9f9f" d="M 180.5,58.5 C 180.365,60.5542 181.032,62.2209 182.5,63.5C 178.161,63.1632 177.494,61.4965 180.5,58.5 Z"/></g>
<g><path style="opacity:0.545" fill="#999999" d="M 123.5,61.5 C 122.738,63.2624 121.404,64.2624 119.5,64.5C 120.262,62.7376 121.596,61.7376 123.5,61.5 Z"/></g>
<g><path style="opacity:0.525" fill="#9d9d9d" d="M 204.5,59.5 C 203.167,62.1667 203.167,64.8333 204.5,67.5C 201.833,64.8333 201.833,62.1667 204.5,59.5 Z"/></g>
<g><path style="opacity:0.608" fill="#a1a1a1" d="M 224.5,63.5 C 223.5,63.5 222.5,63.5 221.5,63.5C 222.5,60.8333 223.5,60.8333 224.5,63.5 Z"/></g>
<g><path style="opacity:0.024" fill="#d3d3d3" d="M 111.5,63.5 C 113.142,65.0808 115.142,65.7475 117.5,65.5C 116.054,66.6129 114.387,66.7796 112.5,66C 111.748,65.3292 111.414,64.4959 111.5,63.5 Z"/></g>
<g><path style="opacity:0.012" fill="#d2d2d2" d="M 132.5,64.5 C 132.027,65.9063 131.027,66.573 129.5,66.5C 129.973,65.0937 130.973,64.427 132.5,64.5 Z"/></g>
<g><path style="opacity:0.267" fill="#b3b3b3" d="M 184.5,64.5 C 186.027,64.427 187.027,65.0937 187.5,66.5C 185.973,66.573 184.973,65.9063 184.5,64.5 Z"/></g>
<g><path style="opacity:0.004" fill="#dfdfdf" d="M 129.5,66.5 C 129.027,67.9063 128.027,68.573 126.5,68.5C 126.973,67.0937 127.973,66.427 129.5,66.5 Z"/></g>
<g><path style="opacity:0.314" fill="#b4b4b4" d="M 187.5,66.5 C 189.027,66.427 190.027,67.0937 190.5,68.5C 188.973,68.573 187.973,67.9063 187.5,66.5 Z"/></g>
<g><path style="opacity:0.529" fill="#989898" d="M 221.5,63.5 C 220.833,66.1667 219.167,67.8333 216.5,68.5C 217.833,66.5 219.5,64.8333 221.5,63.5 Z"/></g>
<g><path style="opacity:0.569" fill="#a0a0a0" d="M 190.5,68.5 C 192.749,69.0798 194.415,70.4131 195.5,72.5C 193.251,71.9202 191.585,70.5869 190.5,68.5 Z"/></g>
<g><path style="opacity:0.076" fill="#b7b7b7" d="M 205.5,68.5 C 209.167,69.8333 212.833,69.8333 216.5,68.5C 216.389,69.1174 216.056,69.6174 215.5,70C 212.5,70.6667 209.5,70.6667 206.5,70C 205.944,69.6174 205.611,69.1174 205.5,68.5 Z"/></g>
<g><path style="opacity:1" fill="#1c1c1c" d="M 186.5,80.5 C 187.5,82.1667 188.833,83.5 190.5,84.5C 190.738,86.4044 191.738,87.7377 193.5,88.5C 194.674,89.5137 195.34,90.847 195.5,92.5C 195.66,94.153 196.326,95.4863 197.5,96.5C 197.565,99.4282 198.232,102.095 199.5,104.5C 200.645,108.311 200.812,112.311 200,116.5C 199.943,119.851 199.109,122.851 197.5,125.5C 196.069,126.78 195.402,128.447 195.5,130.5C 195.25,132.674 194.25,134.341 192.5,135.5C 191.094,135.973 190.427,136.973 190.5,138.5C 188.1,141.903 185.1,144.57 181.5,146.5C 179.446,146.635 177.779,145.968 176.5,144.5C 175.07,142.545 175.403,140.879 177.5,139.5C 179.749,138.92 181.415,137.587 182.5,135.5C 182.5,134.833 182.833,134.5 183.5,134.5C 184.906,134.027 185.573,133.027 185.5,131.5C 186.906,131.027 187.573,130.027 187.5,128.5C 188.227,126.046 189.227,123.713 190.5,121.5C 192.223,119.22 192.889,116.553 192.5,113.5C 191.167,113.5 189.833,113.5 188.5,113.5C 188.5,113.167 188.5,112.833 188.5,112.5C 188.773,109.718 190.106,107.551 192.5,106C 192.43,105.235 192.097,104.735 191.5,104.5C 190.629,101.509 189.629,98.5085 188.5,95.5C 188.446,93.368 187.446,92.0347 185.5,91.5C 182.815,87.8169 179.482,84.8169 175.5,82.5C 174.313,80.0246 172.313,79.0246 169.5,79.5C 167.139,79.3259 164.806,78.9926 162.5,78.5C 163.329,83.5011 161.329,85.6678 156.5,85C 155.944,84.6174 155.611,84.1174 155.5,83.5C 155.5,81.5 155.5,79.5 155.5,77.5C 153.585,77.2155 151.919,77.5489 150.5,78.5C 148.102,78.2594 146.102,78.9261 144.5,80.5C 136.833,84.8333 130.833,90.8333 126.5,98.5C 124.882,101.171 124.215,104.171 124.5,107.5C 125.959,107.433 127.292,107.766 128.5,108.5C 129.833,110.167 129.833,111.833 128.5,113.5C 126.517,113.157 125.183,113.824 124.5,115.5C 124.5,115.833 124.5,116.167 124.5,116.5C 124.171,119.228 124.837,121.562 126.5,123.5C 128.485,126.798 130.485,130.131 132.5,133.5C 132.5,135.5 133.5,136.5 135.5,136.5C 136.167,136.5 136.5,136.833 136.5,137.5C 136.973,138.906 137.973,139.573 139.5,139.5C 141.382,140.221 141.715,141.221 140.5,142.5C 139.5,142.833 138.833,143.5 138.5,144.5C 137.625,146.806 136.292,147.473 134.5,146.5C 132.761,143.757 130.427,141.757 127.5,140.5C 127.573,138.973 126.906,137.973 125.5,137.5C 120.977,132.784 118.31,127.117 117.5,120.5C 117.153,112.064 117.819,103.731 119.5,95.5C 120.674,94.4863 121.34,93.153 121.5,91.5C 121.845,88.8021 123.178,86.8021 125.5,85.5C 127.833,83.8333 129.833,81.8333 131.5,79.5C 132.262,77.7376 133.596,76.7376 135.5,76.5C 137.027,76.573 138.027,75.9063 138.5,74.5C 142.533,73.9751 146.2,72.6418 149.5,70.5C 160.312,68.3247 170.645,69.8247 180.5,75C 182.996,76.331 184.996,78.1644 186.5,80.5 Z"/></g>
<g><path style="opacity:0.122" fill="#e3e3e3" d="M 109.5,71.5 C 111.552,72.0527 111.885,73.0527 110.5,74.5C 110.443,73.391 110.11,72.391 109.5,71.5 Z"/></g>
<g><path style="opacity:0.749" fill="#7d7d7d" d="M 101.5,71.5 C 99.9582,70.6993 98.2915,70.366 96.5,70.5C 96.307,74.5662 96.6403,78.5662 97.5,82.5C 96.8826,82.3893 96.3826,82.056 96,81.5C 95.3333,77.5 95.3333,73.5 96,69.5C 98.8108,67.8203 100.644,68.4869 101.5,71.5 Z"/></g>
<g><path style="opacity:1" fill="#666666" d="M 149.5,70.5 C 146.2,72.6418 142.533,73.9751 138.5,74.5C 141.689,72.1103 145.356,70.7769 149.5,70.5 Z"/></g>
<g><path style="opacity:0.004" fill="#c4c4c4" d="M 195.5,72.5 C 197.587,73.5846 198.92,75.2512 199.5,77.5C 197.413,76.4154 196.08,74.7488 195.5,72.5 Z"/></g>
<g><path style="opacity:0.733" fill="#8b8b8b" d="M 138.5,74.5 C 138.027,75.9063 137.027,76.573 135.5,76.5C 135.973,75.0937 136.973,74.427 138.5,74.5 Z"/></g>
<g><path style="opacity:0.282" fill="#a9a9a9" d="M 150.5,78.5 C 151.919,77.5489 153.585,77.2155 155.5,77.5C 155.5,79.5 155.5,81.5 155.5,83.5C 154.549,82.0813 154.216,80.4147 154.5,78.5C 153.167,78.5 151.833,78.5 150.5,78.5 Z"/></g>
<g><path style="opacity:0.114" fill="#cbcbcb" d="M 150.5,78.5 C 148.786,79.7384 146.786,80.405 144.5,80.5C 146.102,78.9261 148.102,78.2594 150.5,78.5 Z"/></g>
<g><path style="opacity:0.953" fill="#7b7b7b" d="M 169.5,79.5 C 172.313,79.0246 174.313,80.0246 175.5,82.5C 173.456,81.4918 171.456,80.4918 169.5,79.5 Z"/></g>
<g><path style="opacity:0.012" fill="#c8c8c8" d="M 186.5,80.5 C 188.833,80.8333 190.167,82.1667 190.5,84.5C 188.833,83.5 187.5,82.1667 186.5,80.5 Z"/></g>
<g><path style="opacity:0.886" fill="#838383" d="M 202.5,81.5 C 204.741,82.2998 205.741,83.9664 205.5,86.5C 204.263,85.0351 203.263,83.3684 202.5,81.5 Z"/></g>
<g><path style="opacity:0.569" fill="#a6a6a6" d="M 131.5,79.5 C 129.833,81.8333 127.833,83.8333 125.5,85.5C 126.5,82.5 128.5,80.5 131.5,79.5 Z"/></g>
<g><path style="opacity:0.584" fill="#909090" d="M 190.5,84.5 C 192.262,85.2623 193.262,86.5956 193.5,88.5C 191.738,87.7377 190.738,86.4044 190.5,84.5 Z"/></g>
<g><path style="opacity:0.004" fill="#d0d0d0" d="M 214.5,85.5 C 212.898,87.0739 210.898,87.7406 208.5,87.5C 210.214,86.2616 212.214,85.595 214.5,85.5 Z"/></g>
<g><path style="opacity:1" fill="#1a1a1a" d="M 163.5,87.5 C 165.214,88.7384 167.214,89.405 169.5,89.5C 172.396,90.398 174.729,92.0647 176.5,94.5C 176.738,96.4044 177.738,97.7377 179.5,98.5C 180.338,98.8417 180.672,99.5084 180.5,100.5C 182.772,107.717 183.106,115.05 181.5,122.5C 179.669,128.335 176.002,132.669 170.5,135.5C 169.667,147.82 169.167,160.153 169,172.5C 167.667,173.833 166.333,175.167 165,176.5C 164.667,187.5 164.333,198.5 164,209.5C 163.722,210.416 163.222,211.082 162.5,211.5C 160.435,211.483 158.435,211.15 156.5,210.5C 156.333,198.495 156.5,186.495 157,174.5C 158.667,172.833 160.333,171.167 162,169.5C 162.5,156.504 162.667,143.504 162.5,130.5C 167.063,128.605 170.73,125.605 173.5,121.5C 175.213,120.365 175.88,118.698 175.5,116.5C 176.082,109.58 174.082,103.58 169.5,98.5C 169.027,97.0937 168.027,96.427 166.5,96.5C 151.865,93.1458 143.198,98.8125 140.5,113.5C 140.171,116.228 140.837,118.562 142.5,120.5C 143.338,120.842 143.672,121.508 143.5,122.5C 143.427,124.027 144.094,125.027 145.5,125.5C 145.973,126.906 146.973,127.573 148.5,127.5C 148.821,129.048 149.821,129.715 151.5,129.5C 152.791,129.263 153.791,129.596 154.5,130.5C 154.798,144.216 154.465,157.882 153.5,171.5C 153.167,172.5 152.5,173.167 151.5,173.5C 150.883,173.611 150.383,173.944 150,174.5C 149.5,186.829 149.333,199.162 149.5,211.5C 147.856,211.714 146.356,211.38 145,210.5C 144.5,196.837 144.333,183.171 144.5,169.5C 145.167,168.167 146.167,167.167 147.5,166.5C 148.659,156.342 148.825,146.008 148,135.5C 147.329,134.748 146.496,134.414 145.5,134.5C 145.027,133.094 144.027,132.427 142.5,132.5C 140.413,131.415 139.08,129.749 138.5,127.5C 138.167,126.5 137.5,125.833 136.5,125.5C 135.207,124.158 134.374,122.491 134,120.5C 133.501,116.179 133.334,111.846 133.5,107.5C 135.074,105.898 135.741,103.898 135.5,101.5C 137.482,99.4984 139.148,97.1651 140.5,94.5C 142.749,93.9202 144.415,92.5869 145.5,90.5C 145.842,89.6618 146.508,89.3284 147.5,89.5C 150.152,89.5905 152.485,88.9238 154.5,87.5C 157.396,86.2248 160.396,86.2248 163.5,87.5 Z"/></g>
<g><path style="opacity:0.012" fill="#c7c7c7" d="M 163.5,87.5 C 165.898,87.2594 167.898,87.9261 169.5,89.5C 167.214,89.405 165.214,88.7384 163.5,87.5 Z"/></g>
<g><path style="opacity:0.816" fill="#777777" d="M 154.5,87.5 C 152.485,88.9238 150.152,89.5905 147.5,89.5C 149.438,87.8372 151.772,87.1706 154.5,87.5 Z"/></g>
<g><path style="opacity:0.8" fill="#939393" d="M 185.5,91.5 C 187.446,92.0347 188.446,93.368 188.5,95.5C 187.026,94.5637 186.026,93.2303 185.5,91.5 Z"/></g>
<g><path style="opacity:1" fill="#181818" d="M 227.5,94.5 C 227.81,96.1436 228.81,97.1436 230.5,97.5C 230.833,98.5 231.5,99.1667 232.5,99.5C 232.5,101.167 232.5,102.833 232.5,104.5C 230.724,104.794 228.724,104.96 226.5,105C 223.671,106.356 221.004,107.856 218.5,109.5C 215.833,109.5 213.167,109.5 210.5,109.5C 210.784,107.585 210.451,105.919 209.5,104.5C 208.89,103.609 208.557,102.609 208.5,101.5C 208.88,99.302 208.213,97.6354 206.5,96.5C 207.024,93.8122 208.691,92.3122 211.5,92C 215.167,91.3333 218.833,91.3333 222.5,92C 224.491,92.3736 226.158,93.207 227.5,94.5 Z"/></g>
<g><path style="opacity:0.796" fill="#767676" d="M 109.5,93.5 C 105.154,93.3343 100.821,93.501 96.5,94C 93.6473,95.4301 90.6473,96.2634 87.5,96.5C 89.8577,94.8714 92.5243,93.7048 95.5,93C 100.352,92.1849 105.019,92.3516 109.5,93.5 Z"/></g>
<g><path style="opacity:1" fill="#191919" d="M 109.5,93.5 C 110.097,93.7352 110.43,94.2352 110.5,95C 108.403,99.757 107.07,104.59 106.5,109.5C 102.885,109.845 99.5516,109.178 96.5,107.5C 94.4634,105.47 92.1301,103.804 89.5,102.5C 89.1667,102.667 88.8333,102.833 88.5,103C 90.0629,103.759 91.0629,104.926 91.5,106.5C 91.427,108.027 92.0937,109.027 93.5,109.5C 93.4095,112.152 94.0762,114.485 95.5,116.5C 95.427,118.027 96.0937,119.027 97.5,119.5C 99.4352,120.15 101.435,120.483 103.5,120.5C 105.621,120.325 107.621,120.659 109.5,121.5C 110.338,121.842 110.672,122.508 110.5,123.5C 110.443,124.609 110.11,125.609 109.5,126.5C 104.139,130.294 98.8058,130.294 93.5,126.5C 92.5,124.833 91.1667,123.5 89.5,122.5C 88.6618,122.158 88.3284,121.492 88.5,120.5C 88.405,118.214 87.7384,116.214 86.5,114.5C 86.1667,113.833 85.8333,113.167 85.5,112.5C 85.7148,110.821 85.0481,109.821 83.5,109.5C 82.1667,108.833 81.1667,107.833 80.5,106.5C 78.8624,105.295 78.5291,103.962 79.5,102.5C 79.5,101.833 79.8333,101.5 80.5,101.5C 82.7488,100.92 84.4154,99.5869 85.5,97.5C 85.8417,96.6618 86.5084,96.3284 87.5,96.5C 90.6473,96.2634 93.6473,95.4301 96.5,94C 100.821,93.501 105.154,93.3343 109.5,93.5 Z"/></g>
<g><path style="opacity:0.196" fill="#afafaf" d="M 121.5,91.5 C 121.34,93.153 120.674,94.4863 119.5,95.5C 119.229,93.6203 119.896,92.287 121.5,91.5 Z"/></g>
<g><path style="opacity:0.839" fill="#6d6d6d" d="M 145.5,90.5 C 144.415,92.5869 142.749,93.9202 140.5,94.5C 141.585,92.4131 143.251,91.0798 145.5,90.5 Z"/></g>
<g><path style="opacity:0.102" fill="#c1c1c1" d="M 195.5,92.5 C 197.104,93.287 197.771,94.6203 197.5,96.5C 196.326,95.4863 195.66,94.153 195.5,92.5 Z"/></g>
<g><path style="opacity:0.741" fill="#969696" d="M 176.5,94.5 C 178.262,95.2623 179.262,96.5956 179.5,98.5C 177.738,97.7377 176.738,96.4044 176.5,94.5 Z"/></g>
<g><path style="opacity:0.329" fill="#a4a4a4" d="M 227.5,94.5 C 229.19,94.8564 230.19,95.8564 230.5,97.5C 228.81,97.1436 227.81,96.1436 227.5,94.5 Z"/></g>
<g><path style="opacity:0.412" fill="#9e9e9e" d="M 166.5,96.5 C 168.027,96.427 169.027,97.0937 169.5,98.5C 167.973,98.573 166.973,97.9063 166.5,96.5 Z"/></g>
<g><path style="opacity:0.012" fill="#d5d5d5" d="M 230.5,97.5 C 231.833,97.5 232.5,98.1667 232.5,99.5C 231.5,99.1667 230.833,98.5 230.5,97.5 Z"/></g>
<g><path style="opacity:0.302" fill="#8d8d8d" d="M 140.5,94.5 C 139.148,97.1651 137.482,99.4984 135.5,101.5C 136.01,98.3257 137.677,95.9923 140.5,94.5 Z"/></g>
<g><path style="opacity:0.494" fill="#acacac" d="M 157.5,99.5 C 156.041,99.4326 154.708,99.7659 153.5,100.5C 153.62,99.4138 154.287,98.7472 155.5,98.5C 156.416,98.5427 157.083,98.8761 157.5,99.5 Z"/></g>
<g><path style="opacity:0.384" fill="#bababa" d="M 206.5,96.5 C 208.213,97.6354 208.88,99.302 208.5,101.5C 207.463,100.07 206.796,98.403 206.5,96.5 Z"/></g>
<g><path style="opacity:1" fill="#1c1c1c" d="M 157.5,99.5 C 157.427,101.027 158.094,102.027 159.5,102.5C 160.924,105.125 160.591,107.458 158.5,109.5C 157.094,109.973 156.427,110.973 156.5,112.5C 154.937,115.132 155.27,117.465 157.5,119.5C 159.128,120.853 160.462,120.519 161.5,118.5C 164.054,117.612 166.721,117.279 169.5,117.5C 169.5,118.5 169.5,119.5 169.5,120.5C 166.196,127.108 160.863,129.275 153.5,127C 152.584,126.722 151.918,126.222 151.5,125.5C 150.738,123.738 149.404,122.738 147.5,122.5C 146.778,122.082 146.278,121.416 146,120.5C 145.502,117.518 145.335,114.518 145.5,111.5C 146.906,111.027 147.573,110.027 147.5,108.5C 148.5,106.833 149.833,105.5 151.5,104.5C 153.104,103.713 153.771,102.38 153.5,100.5C 154.708,99.7659 156.041,99.4326 157.5,99.5 Z"/></g>
<g><path style="opacity:0.867" fill="#737373" d="M 85.5,97.5 C 84.4154,99.5869 82.7488,100.92 80.5,101.5C 81.5846,99.4131 83.2512,98.0798 85.5,97.5 Z"/></g>
<g><path style="opacity:0.624" fill="#949494" d="M 119.5,95.5 C 117.819,103.731 117.153,112.064 117.5,120.5C 116.347,114.347 116.18,108.014 117,101.5C 117.24,99.1484 118.073,97.1484 119.5,95.5 Z"/></g>
<g><path style="opacity:0.255" fill="#b4b4b4" d="M 157.5,99.5 C 158.906,99.9731 159.573,100.973 159.5,102.5C 158.094,102.027 157.427,101.027 157.5,99.5 Z"/></g>
<g><path style="opacity:0.349" fill="#a6a6a6" d="M 197.5,96.5 C 199.04,98.8383 199.706,101.505 199.5,104.5C 198.232,102.095 197.565,99.4282 197.5,96.5 Z"/></g>
<g><path style="opacity:0.871" fill="#7b7b7b" d="M 232.5,99.5 C 233.249,100.531 233.915,101.698 234.5,103C 233.956,103.717 233.289,104.217 232.5,104.5C 232.5,102.833 232.5,101.167 232.5,99.5 Z"/></g>
<g><path style="opacity:0.208" fill="#c4c4c4" d="M 79.5,102.5 C 78.5291,103.962 78.8624,105.295 80.5,106.5C 78.7483,106.582 77.7483,105.749 77.5,104C 77.8361,102.97 78.5028,102.47 79.5,102.5 Z"/></g>
<g><path style="opacity:0.408" fill="#b2b2b2" d="M 153.5,100.5 C 153.771,102.38 153.104,103.713 151.5,104.5C 151.66,102.847 152.326,101.514 153.5,100.5 Z"/></g>
<g><path style="opacity:0.188" fill="#cccccc" d="M 126.5,98.5 C 126.167,101.167 125.833,103.833 125.5,106.5C 127.179,106.285 128.179,106.952 128.5,108.5C 127.292,107.766 125.959,107.433 124.5,107.5C 124.215,104.171 124.882,101.171 126.5,98.5 Z"/></g>
<g><path style="opacity:0.345" fill="#a4a4a4" d="M 135.5,101.5 C 135.741,103.898 135.074,105.898 133.5,107.5C 133.259,105.102 133.926,103.102 135.5,101.5 Z"/></g>
<g><path style="opacity:0.145" fill="#b3b3b3" d="M 191.5,104.5 C 192.097,104.735 192.43,105.235 192.5,106C 190.106,107.551 188.773,109.718 188.5,112.5C 187.402,111.399 187.235,110.066 188,108.5C 189.627,107.468 190.793,106.134 191.5,104.5 Z"/></g>
<g><path style="opacity:0.224" fill="#adadad" d="M 91.5,106.5 C 92.9063,106.973 93.573,107.973 93.5,109.5C 92.0937,109.027 91.427,108.027 91.5,106.5 Z"/></g>
<g><path style="opacity:0.804" fill="#8f8f8f" d="M 83.5,109.5 C 85.0481,109.821 85.7148,110.821 85.5,112.5C 84.5987,111.71 83.9321,110.71 83.5,109.5 Z"/></g>
<g><path style="opacity:0.365" fill="#a0a0a0" d="M 96.5,107.5 C 99.5516,109.178 102.885,109.845 106.5,109.5C 104.034,110.634 101.367,110.801 98.5,110C 97.6195,109.292 96.9528,108.458 96.5,107.5 Z"/></g>
<g><path style="opacity:0.294" fill="#b8b8b8" d="M 209.5,104.5 C 210.451,105.919 210.784,107.585 210.5,109.5C 213.167,109.5 215.833,109.5 218.5,109.5C 215.713,110.477 212.713,110.81 209.5,110.5C 209.5,108.5 209.5,106.5 209.5,104.5 Z"/></g>
<g><path style="opacity:0.169" fill="#cdcdcd" d="M 147.5,108.5 C 147.573,110.027 146.906,111.027 145.5,111.5C 145.427,109.973 146.094,108.973 147.5,108.5 Z"/></g>
<g><path style="opacity:0.02" fill="#cdcdcd" d="M 158.5,109.5 C 158.573,111.027 157.906,112.027 156.5,112.5C 156.427,110.973 157.094,109.973 158.5,109.5 Z"/></g>
<g><path style="opacity:0.004" fill="#fefffe" d="M 213.5,112.5 C 214.251,111.427 215.251,111.26 216.5,112C 215.552,112.483 214.552,112.649 213.5,112.5 Z"/></g>
<g><path style="opacity:0.598" fill="#999999" d="M 180.5,100.5 C 181.966,101.347 182.8,102.68 183,104.5C 183.167,107 183.333,109.5 183.5,112C 183.696,115.805 183.03,119.305 181.5,122.5C 183.106,115.05 182.772,107.717 180.5,100.5 Z"/></g>
<g><path style="opacity:0.125" fill="#b1b1b1" d="M 93.5,109.5 C 94.9238,111.515 95.5905,113.848 95.5,116.5C 94.0762,114.485 93.4095,112.152 93.5,109.5 Z"/></g>
<g><path style="opacity:0.714" fill="#868686" d="M 128.5,113.5 C 127.329,114.345 125.995,115.011 124.5,115.5C 125.183,113.824 126.517,113.157 128.5,113.5 Z"/></g>
<g><path style="opacity:0.784" fill="#868686" d="M 188.5,113.5 C 189.833,113.5 191.167,113.5 192.5,113.5C 192.889,116.553 192.223,119.22 190.5,121.5C 190.993,119.194 191.326,116.861 191.5,114.5C 190.209,114.737 189.209,114.404 188.5,113.5 Z"/></g>
<g><path style="opacity:0.09" fill="#dadada" d="M 217.5,114.5 C 215.265,114.205 213.265,114.539 211.5,115.5C 210.833,115.833 210.167,116.167 209.5,116.5C 209.414,115.504 209.748,114.671 210.5,114C 213.039,113.204 215.372,113.371 217.5,114.5 Z"/></g>
<g><path style="opacity:0.835" fill="#606060" d="M 211.5,115.5 C 213.265,114.539 215.265,114.205 217.5,114.5C 219.833,114.833 221.167,116.167 221.5,118.5C 218.766,115.857 215.433,114.857 211.5,115.5 Z"/></g>
<g><path style="opacity:1" fill="#1b1b1b" d="M 211.5,115.5 C 215.433,114.857 218.766,115.857 221.5,118.5C 221.5,120.5 222.5,121.5 224.5,121.5C 232.462,123.763 232.462,126.263 224.5,129C 220.167,129.667 215.833,129.667 211.5,129C 209.934,128.392 208.6,127.558 207.5,126.5C 208.578,123.598 209.244,120.598 209.5,117.5C 209.5,117.167 209.5,116.833 209.5,116.5C 210.167,116.167 210.833,115.833 211.5,115.5 Z"/></g>
<g><path style="opacity:0.247" fill="#bbbbbb" d="M 169.5,120.5 C 169.5,119.5 169.5,118.5 169.5,117.5C 166.721,117.279 164.054,117.612 161.5,118.5C 162.514,117.235 164.014,116.569 166,116.5C 167.5,116.667 169,116.833 170.5,117C 171.8,118.579 171.466,119.745 169.5,120.5 Z"/></g>
<g><path style="opacity:0.008" fill="#c3c3c3" d="M 86.5,114.5 C 87.7384,116.214 88.405,118.214 88.5,120.5C 86.9261,118.898 86.2594,116.898 86.5,114.5 Z"/></g>
<g><path style="opacity:0.737" fill="#a5a5a5" d="M 140.5,113.5 C 141.612,115.599 142.279,117.933 142.5,120.5C 140.837,118.562 140.171,116.228 140.5,113.5 Z"/></g>
<g><path style="opacity:0.322" fill="#bbbbbb" d="M 95.5,116.5 C 96.9063,116.973 97.573,117.973 97.5,119.5C 96.0937,119.027 95.427,118.027 95.5,116.5 Z"/></g>
<g><path style="opacity:0.655" fill="#959595" d="M 103.5,120.5 C 104.274,119.853 105.274,119.52 106.5,119.5C 108.03,119.64 109.03,120.307 109.5,121.5C 107.621,120.659 105.621,120.325 103.5,120.5 Z"/></g>
<g><path style="opacity:0.533" fill="#818181" d="M 161.5,118.5 C 160.462,120.519 159.128,120.853 157.5,119.5C 158.833,119.167 160.167,118.833 161.5,118.5 Z"/></g>
<g><path style="opacity:0.702" fill="#a1a1a1" d="M 175.5,116.5 C 175.88,118.698 175.213,120.365 173.5,121.5C 173.796,119.597 174.463,117.93 175.5,116.5 Z"/></g>
<g><path style="opacity:0.773" fill="#8d8d8d" d="M 221.5,118.5 C 222.833,119.167 223.833,120.167 224.5,121.5C 222.5,121.5 221.5,120.5 221.5,118.5 Z"/></g>
<g><path style="opacity:0.761" fill="#8b8b8b" d="M 124.5,116.5 C 125.612,118.599 126.279,120.933 126.5,123.5C 124.837,121.562 124.171,119.228 124.5,116.5 Z"/></g>
<g><path style="opacity:0.702" fill="#949494" d="M 147.5,122.5 C 149.404,122.738 150.738,123.738 151.5,125.5C 149.596,125.262 148.262,124.262 147.5,122.5 Z"/></g>
<g><path style="opacity:0.012" fill="#bababa" d="M 89.5,122.5 C 91.1667,123.5 92.5,124.833 93.5,126.5C 91.1667,126.167 89.8333,124.833 89.5,122.5 Z"/></g>
<g><path style="opacity:0.725" fill="#8c8c8c" d="M 209.5,117.5 C 209.244,120.598 208.578,123.598 207.5,126.5C 206.903,126.265 206.57,125.765 206.5,125C 207.233,122.28 208.233,119.78 209.5,117.5 Z"/></g>
<g><path style="opacity:0.302" fill="#bebebe" d="M 143.5,122.5 C 144.906,122.973 145.573,123.973 145.5,125.5C 144.094,125.027 143.427,124.027 143.5,122.5 Z"/></g>
<g><path style="opacity:0.004" fill="#d5d5d5" d="M 110.5,123.5 C 111.885,124.947 111.552,125.947 109.5,126.5C 110.11,125.609 110.443,124.609 110.5,123.5 Z"/></g>
<g><path style="opacity:0.004" fill="#dbdbdb" d="M 145.5,125.5 C 147.027,125.427 148.027,126.094 148.5,127.5C 146.973,127.573 145.973,126.906 145.5,125.5 Z"/></g>
<g><path style="opacity:0.024" fill="#c3c3c3" d="M 136.5,125.5 C 137.5,125.833 138.167,126.5 138.5,127.5C 137.167,127.5 136.5,126.833 136.5,125.5 Z"/></g>
<g><path style="opacity:0.827" fill="#838383" d="M 148.5,127.5 C 149.71,127.932 150.71,128.599 151.5,129.5C 149.821,129.715 148.821,129.048 148.5,127.5 Z"/></g>
<g><path style="opacity:0.439" fill="#9e9e9e" d="M 197.5,125.5 C 197.598,127.553 196.931,129.22 195.5,130.5C 195.402,128.447 196.069,126.78 197.5,125.5 Z"/></g>
<g><path style="opacity:0.208" fill="#c1c1c1" d="M 187.5,128.5 C 187.573,130.027 186.906,131.027 185.5,131.5C 185.427,129.973 186.094,128.973 187.5,128.5 Z"/></g>
<g><path style="opacity:0.635" fill="#9c9c9c" d="M 185.5,131.5 C 185.573,133.027 184.906,134.027 183.5,134.5C 183.427,132.973 184.094,131.973 185.5,131.5 Z"/></g>
<g><path style="opacity:0.467" fill="#919191" d="M 142.5,132.5 C 144.027,132.427 145.027,133.094 145.5,134.5C 143.973,134.573 142.973,133.906 142.5,132.5 Z"/></g>
<g><path style="opacity:0.33" fill="#afafaf" d="M 154.5,130.5 C 155.66,143.66 155.827,156.994 155,170.5C 154.617,171.056 154.117,171.389 153.5,171.5C 154.465,157.882 154.798,144.216 154.5,130.5 Z"/></g>
<g><path style="opacity:1" fill="#1a1a1a" d="M 109.5,134.5 C 109.66,136.153 110.326,137.486 111.5,138.5C 111.427,140.027 112.094,141.027 113.5,141.5C 114.702,144.487 114.035,147.154 111.5,149.5C 110.094,149.973 109.427,150.973 109.5,152.5C 109.5,153.167 109.5,153.833 109.5,154.5C 109.167,154.5 108.833,154.5 108.5,154.5C 107.427,155.251 107.26,156.251 108,157.5C 108.717,156.956 109.217,156.289 109.5,155.5C 111.027,155.573 112.027,154.906 112.5,153.5C 115.152,153.59 117.485,152.924 119.5,151.5C 121.437,150.294 123.104,150.627 124.5,152.5C 124.5,153.5 124.5,154.5 124.5,155.5C 125.833,155.5 127.167,155.5 128.5,155.5C 129.492,155.328 130.158,155.662 130.5,156.5C 131.11,157.391 131.443,158.391 131.5,159.5C 129.948,162.112 127.614,163.445 124.5,163.5C 119.156,163.334 113.823,163.501 108.5,164C 106.922,165.094 105.255,165.928 103.5,166.5C 98.821,158.143 97.321,149.143 99,139.5C 100.009,137.975 100.509,136.308 100.5,134.5C 103.673,133.632 106.673,133.632 109.5,134.5 Z"/></g>
<g><path style="opacity:0.8" fill="#898989" d="M 132.5,133.5 C 133.833,134.167 134.833,135.167 135.5,136.5C 133.5,136.5 132.5,135.5 132.5,133.5 Z"/></g>
<g><path style="opacity:1" fill="#1e1e1e" d="M 214.5,140.5 C 214.259,142.898 214.926,144.898 216.5,146.5C 219.252,151.341 218.919,156.008 215.5,160.5C 214.167,161.167 213.167,162.167 212.5,163.5C 212.389,164.117 212.056,164.617 211.5,165C 205.409,167.912 199.409,168.079 193.5,165.5C 192.101,164.11 190.434,163.11 188.5,162.5C 187.5,162.167 186.833,161.5 186.5,160.5C 186.366,158.708 186.699,157.042 187.5,155.5C 189.163,153.51 191.163,151.843 193.5,150.5C 197.1,152.797 200.767,154.797 204.5,156.5C 205.708,157.782 207.042,157.782 208.5,156.5C 208.376,155.893 208.043,155.56 207.5,155.5C 207.167,154.833 206.833,154.167 206.5,153.5C 206.741,150.966 205.741,149.3 203.5,148.5C 202.694,147.003 202.028,145.336 201.5,143.5C 202.26,141.64 203.26,139.973 204.5,138.5C 205.906,138.027 206.573,137.027 206.5,135.5C 207.952,133.148 209.952,132.815 212.5,134.5C 213.477,136.411 214.143,138.411 214.5,140.5 Z"/></g>
<g><path style="opacity:0.192" fill="#b0b0b0" d="M 109.5,134.5 C 111.104,135.287 111.771,136.62 111.5,138.5C 110.326,137.486 109.66,136.153 109.5,134.5 Z"/></g>
<g><path style="opacity:0.635" fill="#878787" d="M 182.5,135.5 C 181.415,137.587 179.749,138.92 177.5,139.5C 178.585,137.413 180.251,136.08 182.5,135.5 Z"/></g>
<g><path style="opacity:0.016" fill="#cecece" d="M 192.5,135.5 C 192.573,137.027 191.906,138.027 190.5,138.5C 190.427,136.973 191.094,135.973 192.5,135.5 Z"/></g>
<g><path style="opacity:0.004" fill="#d8d8d8" d="M 136.5,137.5 C 138.027,137.427 139.027,138.094 139.5,139.5C 137.973,139.573 136.973,138.906 136.5,137.5 Z"/></g>
<g><path style="opacity:0.204" fill="#b5b5b5" d="M 206.5,135.5 C 206.573,137.027 205.906,138.027 204.5,138.5C 204.427,136.973 205.094,135.973 206.5,135.5 Z"/></g>
<g><path style="opacity:0.024" fill="#d0d0d0" d="M 125.5,137.5 C 126.906,137.973 127.573,138.973 127.5,140.5C 126.094,140.027 125.427,139.027 125.5,137.5 Z"/></g>
<g><path style="opacity:0.333" fill="#afafaf" d="M 111.5,138.5 C 112.906,138.973 113.573,139.973 113.5,141.5C 112.094,141.027 111.427,140.027 111.5,138.5 Z"/></g>
<g><path style="opacity:0.612" fill="#a2a2a2" d="M 127.5,140.5 C 130.427,141.757 132.761,143.757 134.5,146.5C 131.573,145.243 129.239,143.243 127.5,140.5 Z"/></g>
<g><path style="opacity:0.035" fill="#bfbfbf" d="M 140.5,142.5 C 140.5,143.833 139.833,144.5 138.5,144.5C 138.833,143.5 139.5,142.833 140.5,142.5 Z"/></g>
<g><path style="opacity:0.737" fill="#959595" d="M 214.5,140.5 C 215.738,142.214 216.405,144.214 216.5,146.5C 214.926,144.898 214.259,142.898 214.5,140.5 Z"/></g>
<g><path style="opacity:0.239" fill="#b1b1b1" d="M 176.5,144.5 C 177.779,145.968 179.446,146.635 181.5,146.5C 180.081,147.451 178.415,147.784 176.5,147.5C 176.5,146.5 176.5,145.5 176.5,144.5 Z"/></g>
<g><path style="opacity:0.961" fill="#858585" d="M 203.5,148.5 C 205.741,149.3 206.741,150.966 206.5,153.5C 205.263,152.035 204.263,150.368 203.5,148.5 Z"/></g>
<g><path style="opacity:0.012" fill="#d5d5d5" d="M 111.5,149.5 C 111.573,151.027 110.906,152.027 109.5,152.5C 109.427,150.973 110.094,149.973 111.5,149.5 Z"/></g>
<g><path style="opacity:0.71" fill="#9e9e9e" d="M 119.5,151.5 C 117.485,152.924 115.152,153.59 112.5,153.5C 114.515,152.076 116.848,151.41 119.5,151.5 Z"/></g>
<g><path style="opacity:0.557" fill="#737373" d="M 145.5,134.5 C 146.496,134.414 147.329,134.748 148,135.5C 148.825,146.008 148.659,156.342 147.5,166.5C 147.666,156.494 147.5,146.494 147,136.5C 146.283,135.956 145.783,135.289 145.5,134.5 Z"/></g>
<g><path style="opacity:0.631" fill="#9f9f9f" d="M 112.5,153.5 C 112.027,154.906 111.027,155.573 109.5,155.5C 109.5,155.167 109.5,154.833 109.5,154.5C 110.391,153.89 111.391,153.557 112.5,153.5 Z"/></g>
<g><path style="opacity:0.984" fill="#646464" d="M 124.5,152.5 C 126.23,153.026 127.564,154.026 128.5,155.5C 127.167,155.5 125.833,155.5 124.5,155.5C 124.5,154.5 124.5,153.5 124.5,152.5 Z"/></g>
<g><path style="opacity:0.027" fill="#d4d4d4" d="M 108.5,154.5 C 108.5,155.167 108.833,155.5 109.5,155.5C 109.217,156.289 108.717,156.956 108,157.5C 107.26,156.251 107.427,155.251 108.5,154.5 Z"/></g>
<g><path style="opacity:0.153" fill="#bababa" d="M 130.5,156.5 C 132.552,157.053 132.885,158.053 131.5,159.5C 131.443,158.391 131.11,157.391 130.5,156.5 Z"/></g>
<g><path style="opacity:0.702" fill="#9d9d9d" d="M 187.5,155.5 C 186.699,157.042 186.366,158.708 186.5,160.5C 183.874,157.987 184.207,156.32 187.5,155.5 Z"/></g>
<g><path style="opacity:0.071" fill="#c6c6c6" d="M 207.5,155.5 C 208.043,155.56 208.376,155.893 208.5,156.5C 207.042,157.782 205.708,157.782 204.5,156.5C 205.791,156.737 206.791,156.404 207.5,155.5 Z"/></g>
<g><path style="opacity:1" fill="#2e2e2e" d="M 137.5,161.5 C 138.167,161.5 138.833,161.5 139.5,161.5C 140.369,163.717 140.702,166.05 140.5,168.5C 139.5,168.833 138.833,169.5 138.5,170.5C 138.667,183.504 138.5,196.504 138,209.5C 137.722,210.416 137.222,211.082 136.5,211.5C 134.435,211.483 132.435,211.15 130.5,210.5C 129.352,196.241 129.185,181.908 130,167.5C 130.708,166.619 131.542,165.953 132.5,165.5C 134.749,164.92 136.415,163.587 137.5,161.5 Z"/></g>
<g><path style="opacity:1" fill="#313131" d="M 185.5,174.5 C 184.18,175.942 182.514,176.608 180.5,176.5C 177.645,174.299 176.311,171.299 176.5,167.5C 176.156,164.528 177.156,162.194 179.5,160.5C 182.522,162.688 185.022,165.355 187,168.5C 187.738,170.881 187.238,172.881 185.5,174.5 Z"/></g>
<g><path style="opacity:0.008" fill="#d4d4d4" d="M 215.5,160.5 C 215.5,162.5 214.5,163.5 212.5,163.5C 213.167,162.167 214.167,161.167 215.5,160.5 Z"/></g>
<g><path style="opacity:0.406" fill="#b0b0b0" d="M 124.5,163.5 C 119.684,164.326 114.684,164.826 109.5,165C 107.99,165.85 106.49,166.683 105,167.5C 104.235,167.43 103.735,167.097 103.5,166.5C 105.255,165.928 106.922,165.094 108.5,164C 113.823,163.501 119.156,163.334 124.5,163.5 Z"/></g>
<g><path style="opacity:0.576" fill="#9a9a9a" d="M 188.5,162.5 C 190.434,163.11 192.101,164.11 193.5,165.5C 191.067,165.727 189.401,164.727 188.5,162.5 Z"/></g>
<g><path style="opacity:0.792" fill="#767676" d="M 137.5,161.5 C 136.415,163.587 134.749,164.92 132.5,165.5C 133.585,163.413 135.251,162.08 137.5,161.5 Z"/></g>
<g><path style="opacity:0.969" fill="#676767" d="M 139.5,161.5 C 141.439,162.014 142.439,163.347 142.5,165.5C 142.547,167.038 141.88,168.038 140.5,168.5C 140.702,166.05 140.369,163.717 139.5,161.5 Z"/></g>
<g><path style="opacity:0.004" fill="#d6d6d6" d="M 140.5,168.5 C 140.5,169.833 139.833,170.5 138.5,170.5C 138.833,169.5 139.5,168.833 140.5,168.5 Z"/></g>
<g><path style="opacity:0.22" fill="#c9c9c9" d="M 185.5,174.5 C 185.586,175.496 185.252,176.329 184.5,177C 182.934,177.765 181.601,177.598 180.5,176.5C 182.514,176.608 184.18,175.942 185.5,174.5 Z"/></g>
<g><path style="opacity:0.7" fill="#535353" d="M 75.5,185.5 C 91.328,184.339 107.328,184.172 123.5,185C 124.056,185.383 124.389,185.883 124.5,186.5C 108.214,185.529 91.8808,185.196 75.5,185.5 Z"/></g>
<g><path style="opacity:0.723" fill="#505050" d="M 169.5,185.5 C 193.997,184.337 218.663,184.17 243.5,185C 245.636,187.445 245.636,189.612 243.5,191.5C 243.739,189.533 243.406,187.699 242.5,186C 218.169,185.5 193.836,185.333 169.5,185.5 Z"/></g>
<g><path style="opacity:1" fill="#141414" d="M 75.5,185.5 C 91.8808,185.196 108.214,185.529 124.5,186.5C 125.887,188.489 125.553,190.322 123.5,192C 107.5,192.667 91.5,192.667 75.5,192C 74.1888,189.726 74.1888,187.56 75.5,185.5 Z"/></g>
<g><path style="opacity:0.79" fill="#7c7c7c" d="M 144.5,169.5 C 144.333,183.171 144.5,196.837 145,210.5C 146.356,211.38 147.856,211.714 149.5,211.5C 145.792,213.436 143.459,212.27 142.5,208C 142.457,195.899 142.624,183.732 143,171.5C 143.278,170.584 143.778,169.918 144.5,169.5 Z"/></g>
<g><path style="opacity:1" fill="#111111" d="M 169.5,185.5 C 193.836,185.333 218.169,185.5 242.5,186C 243.406,187.699 243.739,189.533 243.5,191.5C 218.997,192.829 194.33,192.829 169.5,191.5C 168.181,189.468 168.181,187.468 169.5,185.5 Z"/></g>
<g><path style="opacity:0.806" fill="#696969" d="M 151.5,173.5 C 151.012,179.946 151.012,186.446 151.5,193C 150.934,199.324 150.268,205.491 149.5,211.5C 149.333,199.162 149.5,186.829 150,174.5C 150.383,173.944 150.883,173.611 151.5,173.5 Z"/></g>
<g><path style="opacity:0.159" fill="#c2c2c2" d="M 162.5,130.5 C 162.667,143.504 162.5,156.504 162,169.5C 160.333,171.167 158.667,172.833 157,174.5C 156.5,186.495 156.333,198.495 156.5,210.5C 155.34,198.34 155.173,186.007 156,173.5C 157.667,171.833 159.333,170.167 161,168.5C 161.169,155.66 161.669,142.993 162.5,130.5 Z"/></g>
<g><path style="opacity:0.38" fill="#a2a2a2" d="M 130.5,210.5 C 132.435,211.15 134.435,211.483 136.5,211.5C 135.903,212.139 135.07,212.472 134,212.5C 132.301,212.613 131.134,211.947 130.5,210.5 Z"/></g>
<g><path style="opacity:0.357" fill="#a3a3a3" d="M 156.5,210.5 C 158.435,211.15 160.435,211.483 162.5,211.5C 161.903,212.139 161.07,212.472 160,212.5C 158.301,212.613 157.134,211.947 156.5,210.5 Z"/></g>
</svg>
