<?xml version="1.0" encoding="UTF-8"?>
<!DOCTYPE svg PUBLIC "-//W3C//DTD SVG 1.1//EN" "http://www.w3.org/Graphics/SVG/1.1/DTD/svg11.dtd">
<svg xmlns="http://www.w3.org/2000/svg" version="1.1" width="354px" height="342px" style="shape-rendering:geometricPrecision; text-rendering:geometricPrecision; image-rendering:optimizeQuality; fill-rule:evenodd; clip-rule:evenodd" xmlns:xlink="http://www.w3.org/1999/xlink">
<g><path style="opacity:1" fill="#151a1e" d="M 166.5,59.5 C 176.518,59.41 186.518,59.7433 196.5,60.5C 198.415,60.2155 200.081,60.5489 201.5,61.5C 203.838,63.0395 206.505,63.7062 209.5,63.5C 210.492,63.3284 211.158,63.6618 211.5,64.5C 213.214,65.7384 215.214,66.405 217.5,66.5C 218.492,66.3284 219.158,66.6618 219.5,67.5C 219.67,68.8221 219.337,69.9887 218.5,71C 219.833,71.3333 221.167,71.6667 222.5,72C 220.968,72.6995 219.968,73.8662 219.5,75.5C 218.311,76.4287 216.978,76.762 215.5,76.5C 212.421,75.696 209.421,74.696 206.5,73.5C 204.898,71.9261 202.898,71.2594 200.5,71.5C 188.558,69.2378 176.558,68.5711 164.5,69.5C 161.119,69.4595 157.786,69.7929 154.5,70.5C 150.849,71.9099 147.183,72.5766 143.5,72.5C 143.167,72.1667 142.833,71.8333 142.5,71.5C 146.686,67.3427 146.186,66.676 141,69.5C 139.955,68.6266 139.122,67.6266 138.5,66.5C 141.346,66.4484 143.68,65.4484 145.5,63.5C 152.121,60.7675 159.121,59.4342 166.5,59.5 Z"/></g>
<g><path style="opacity:0.184" fill="#b0b5b9" d="M 166.5,59.5 C 170.151,58.8345 173.985,58.5012 178,58.5C 184.399,58.3703 190.566,59.037 196.5,60.5C 186.518,59.7433 176.518,59.41 166.5,59.5 Z"/></g>
<g><path style="opacity:0.129" fill="#c4c6c7" d="M 201.5,61.5 C 204.428,61.5651 207.095,62.2318 209.5,63.5C 206.505,63.7062 203.838,63.0395 201.5,61.5 Z"/></g>
<g><path style="opacity:0.008" fill="#cbcdd0" d="M 211.5,64.5 C 213.898,64.2594 215.898,64.9261 217.5,66.5C 215.214,66.405 213.214,65.7384 211.5,64.5 Z"/></g>
<g><path style="opacity:0.859" fill="#66696d" d="M 145.5,63.5 C 143.68,65.4484 141.346,66.4484 138.5,66.5C 138.167,66.5 137.833,66.5 137.5,66.5C 139.848,64.9028 142.514,63.9028 145.5,63.5 Z"/></g>
<g><path style="opacity:0.745" fill="#7a7f83" d="M 137.5,66.5 C 135.967,68.2451 133.967,69.2451 131.5,69.5C 133.033,67.7549 135.033,66.7549 137.5,66.5 Z"/></g>
<g><path style="opacity:0.741" fill="#7f8a8e" d="M 130.5,69.5 C 130.027,70.9063 129.027,71.573 127.5,71.5C 127.973,70.0937 128.973,69.427 130.5,69.5 Z"/></g>
<g><path style="opacity:0.078" fill="#b7babe" d="M 164.5,69.5 C 161.411,70.7846 158.078,71.4512 154.5,71.5C 154.5,71.1667 154.5,70.8333 154.5,70.5C 157.786,69.7929 161.119,69.4595 164.5,69.5 Z"/></g>
<g><path style="opacity:0.729" fill="#9ca0a2" d="M 200.5,71.5 C 202.898,71.2594 204.898,71.9261 206.5,73.5C 204.214,73.405 202.214,72.7384 200.5,71.5 Z"/></g>
<g><path style="opacity:0.604" fill="#a1a6a6" d="M 126.5,71.5 C 126.027,72.9063 125.027,73.573 123.5,73.5C 123.973,72.0937 124.973,71.427 126.5,71.5 Z"/></g>
<g><path style="opacity:1" fill="#2e3338" d="M 219.5,67.5 C 226.999,69.6653 233.666,73.332 239.5,78.5C 237.83,78.2488 236.33,77.5822 235,76.5C 233.16,77.8331 232.66,77.6665 233.5,76C 232.421,75.044 231.255,74.2106 230,73.5C 227.722,74.2636 225.222,75.4303 222.5,77C 223.883,78.2708 224.883,79.7708 225.5,81.5C 221.849,80.3411 218.515,78.6744 215.5,76.5C 216.978,76.762 218.311,76.4287 219.5,75.5C 219.968,73.8662 220.968,72.6995 222.5,72C 221.167,71.6667 219.833,71.3333 218.5,71C 219.337,69.9887 219.67,68.8221 219.5,67.5 Z"/></g>
<g><path style="opacity:0.067" fill="#e8f0f1" d="M 260.5,71.5 C 260.5,72.5 260.5,73.5 260.5,74.5C 259.167,74.5 257.833,74.5 256.5,74.5C 257.926,73.6588 259.26,72.6588 260.5,71.5 Z"/></g>
<g><path style="opacity:0.671" fill="#868a8c" d="M 180.5,75.5 C 178.833,75.5 177.167,75.5 175.5,75.5C 177.286,73.0776 178.952,73.0776 180.5,75.5 Z"/></g>
<g><path style="opacity:1" fill="#5e656a" d="M 123.5,73.5 C 123.013,74.4734 122.513,75.4734 122,76.5C 121.014,75.8288 119.847,75.8288 118.5,76.5C 119.659,74.7497 121.326,73.7497 123.5,73.5 Z"/></g>
<g><path style="opacity:0.997" fill="#272b2f" d="M 268.5,79.5 C 267.167,79.5 265.833,79.5 264.5,79.5C 264.5,80.8333 264.5,82.1667 264.5,83.5C 263.167,83.5 261.833,83.5 260.5,83.5C 260.5,82.5 260.5,81.5 260.5,80.5C 258.097,80.607 256.264,79.607 255,77.5C 254.415,76.0024 254.915,75.0024 256.5,74.5C 257.833,74.5 259.167,74.5 260.5,74.5C 260.5,73.5 260.5,72.5 260.5,71.5C 260.722,68.9236 262.055,68.0902 264.5,69C 265.38,70.3561 265.714,71.8561 265.5,73.5C 268.59,72.83 270.257,73.9967 270.5,77C 270.316,78.3756 269.649,79.2089 268.5,79.5 Z"/></g>
<g><path style="opacity:0.999" fill="#191f23" d="M 137.5,66.5 C 137.833,66.5 138.167,66.5 138.5,66.5C 139.122,67.6266 139.955,68.6266 141,69.5C 146.186,66.676 146.686,67.3427 142.5,71.5C 142.833,71.8333 143.167,72.1667 143.5,72.5C 147.183,72.5766 150.849,71.9099 154.5,70.5C 154.5,70.8333 154.5,71.1667 154.5,71.5C 145.247,74.2847 136.247,77.9514 127.5,82.5C 126.85,82.1961 126.183,81.8627 125.5,81.5C 124.107,82.8631 122.441,83.6964 120.5,84C 122.619,84.3418 122.953,85.1751 121.5,86.5C 121.5,87.1667 121.167,87.5 120.5,87.5C 118.61,87.7035 117.11,87.0368 116,85.5C 115.316,86.7839 115.483,87.9505 116.5,89C 113.19,88.7712 111.356,90.2712 111,93.5C 110.333,92.1667 109.667,92.1667 109,93.5C 108.51,94.7932 108.343,96.1266 108.5,97.5C 107.167,99.5 105.5,101.167 103.5,102.5C 102.094,102.973 101.427,103.973 101.5,105.5C 100.396,107.389 99.0627,109.055 97.5,110.5C 96.0937,110.973 95.427,111.973 95.5,113.5C 95.5,114.167 95.1667,114.5 94.5,114.5C 92.087,115.68 91.087,117.68 91.5,120.5C 91.1667,121.167 90.8333,121.833 90.5,122.5C 88.8958,123.287 88.2291,124.62 88.5,126.5C 86.8333,131.167 85.1667,135.833 83.5,140.5C 82.8333,141.5 82.1667,142.5 81.5,143.5C 80.3483,139.946 80.515,136.28 82,132.5C 82.6543,133.696 83.1543,133.696 83.5,132.5C 82.6906,130.929 82.3573,129.262 82.5,127.5C 79.538,127.117 78.538,128.117 79.5,130.5C 78.3981,134.18 77.0648,137.68 75.5,141C 75.8333,141.333 76.1667,141.667 76.5,142C 73.4489,143.36 72.7823,145.527 74.5,148.5C 73.5729,154.843 72.5729,161.177 71.5,167.5C 72.1667,168.167 72.8333,168.833 73.5,169.5C 71.455,181.43 73.955,192.43 81,202.5C 81.5074,201.004 81.0074,199.837 79.5,199C 80.8146,197.605 80.4812,196.605 78.5,196C 79.5742,195.261 80.2409,194.261 80.5,193C 79.9221,191.189 79.4221,189.355 79,187.5C 78.4444,189.595 77.9444,189.762 77.5,188C 77.6719,176.376 78.6719,164.876 80.5,153.5C 80.0739,166.244 80.7405,178.911 82.5,191.5C 82.32,195.286 83.32,198.619 85.5,201.5C 87.1654,205.495 88.8321,209.495 90.5,213.5C 90.6596,215.153 91.3263,216.486 92.5,217.5C 92.427,219.027 93.0937,220.027 94.5,220.5C 94.427,222.027 95.0937,223.027 96.5,223.5C 96.7376,225.404 97.7376,226.738 99.5,227.5C 99.427,229.027 100.094,230.027 101.5,230.5C 101.833,231.5 102.5,232.167 103.5,232.5C 107.167,235.5 110.5,238.833 113.5,242.5C 114.262,244.262 115.596,245.262 117.5,245.5C 117.973,246.906 118.973,247.573 120.5,247.5C 121.167,247.5 121.5,247.833 121.5,248.5C 120.279,249.028 119.113,249.695 118,250.5C 117.517,249.552 117.351,248.552 117.5,247.5C 116.178,247.67 115.011,247.337 114,246.5C 112.933,247.191 111.766,247.691 110.5,248C 111.861,249.584 112.528,251.418 112.5,253.5C 112.167,253.5 111.833,253.5 111.5,253.5C 111.027,252.094 110.027,251.427 108.5,251.5C 106.833,250.5 105.5,249.167 104.5,247.5C 103.089,245.086 101.089,243.419 98.5,242.5C 87.9417,231.259 80.275,218.259 75.5,203.5C 75.5905,200.848 74.9238,198.515 73.5,196.5C 68.1848,176.933 68.1848,157.266 73.5,137.5C 75.0739,135.898 75.7406,133.898 75.5,131.5C 77.205,125.044 79.8717,119.044 83.5,113.5C 84.8853,112.386 86.3853,111.386 88,110.5C 88.6172,109.551 88.4506,108.718 87.5,108C 88.8228,107.184 89.4894,106.017 89.5,104.5C 91.2624,103.738 92.2624,102.404 92.5,100.5C 94.2624,99.7377 95.2624,98.4044 95.5,96.5C 95.8333,95.5 96.5,94.8333 97.5,94.5C 99.8333,92.8333 101.833,90.8333 103.5,88.5C 104.167,87.1667 105.167,86.1667 106.5,85.5C 108.749,84.9202 110.415,83.5869 111.5,81.5C 113.404,81.2624 114.738,80.2624 115.5,78.5C 117.027,78.573 118.027,77.9063 118.5,76.5C 119.847,75.8288 121.014,75.8288 122,76.5C 122.513,75.4734 123.013,74.4734 123.5,73.5C 125.027,73.573 126.027,72.9063 126.5,71.5C 126.833,71.5 127.167,71.5 127.5,71.5C 129.027,71.573 130.027,70.9063 130.5,69.5C 130.833,69.5 131.167,69.5 131.5,69.5C 133.967,69.2451 135.967,68.2451 137.5,66.5 Z"/></g>
<g><path style="opacity:0.502" fill="#a3a3a9" d="M 154.5,77.5 C 155.274,76.8529 156.274,76.5195 157.5,76.5C 159.03,76.6399 160.03,77.3065 160.5,78.5C 158.621,77.6586 156.621,77.3253 154.5,77.5 Z"/></g>
<g><path style="opacity:0.224" fill="#c8c9ca" d="M 201.5,77.5 C 199.708,77.366 198.042,77.6993 196.5,78.5C 198.042,77.6993 199.708,77.366 201.5,77.5 Z"/></g>
<g><path style="opacity:0.671" fill="#95989d" d="M 118.5,76.5 C 118.027,77.9063 117.027,78.573 115.5,78.5C 115.973,77.0937 116.973,76.427 118.5,76.5 Z"/></g>
<g><path style="opacity:0.012" fill="#d9d9da" d="M 239.5,78.5 C 241.027,78.427 242.027,79.0937 242.5,80.5C 240.973,80.573 239.973,79.9063 239.5,78.5 Z"/></g>
<g><path style="opacity:0.604" fill="#8f9496" d="M 115.5,78.5 C 114.738,80.2624 113.404,81.2624 111.5,81.5C 112.262,79.7376 113.596,78.7376 115.5,78.5 Z"/></g>
<g><path style="opacity:0.192" fill="#bec4c6" d="M 201.5,77.5 C 203.597,78.8786 203.93,80.5453 202.5,82.5C 202.371,80.7839 202.038,79.1172 201.5,77.5 Z"/></g>
<g><path style="opacity:0.608" fill="#8f9599" d="M 268.5,79.5 C 267.791,80.404 266.791,80.7373 265.5,80.5C 265.369,85.0592 263.702,86.0592 260.5,83.5C 261.833,83.5 263.167,83.5 264.5,83.5C 264.5,82.1667 264.5,80.8333 264.5,79.5C 265.833,79.5 267.167,79.5 268.5,79.5 Z"/></g>
<g><path style="opacity:0.188" fill="#b8bdc1" d="M 225.5,81.5 C 227.027,81.427 228.027,82.0937 228.5,83.5C 226.973,83.573 225.973,82.9063 225.5,81.5 Z"/></g>
<g><path style="opacity:0.016" fill="#c8cdce" d="M 244.5,82.5 C 246.027,82.427 247.027,83.0937 247.5,84.5C 245.973,84.573 244.973,83.9063 244.5,82.5 Z"/></g>
<g><path style="opacity:1" fill="#4d5255" d="M 127.5,82.5 C 125.853,84.3264 123.853,85.6597 121.5,86.5C 122.953,85.1751 122.619,84.3418 120.5,84C 122.441,83.6964 124.107,82.8631 125.5,81.5C 126.183,81.8627 126.85,82.1961 127.5,82.5 Z"/></g>
<g><path style="opacity:0.133" fill="#cdced0" d="M 140.5,84.5 C 138.784,84.6287 137.117,84.962 135.5,85.5C 136.879,83.4031 138.545,83.0698 140.5,84.5 Z"/></g>
<g><path style="opacity:0.137" fill="#e6e9ec" d="M 174.5,77.5 C 174.5,79.8333 174.5,82.1667 174.5,84.5C 172.5,84.5 170.5,84.5 168.5,84.5C 169.919,83.5489 171.585,83.2155 173.5,83.5C 173.205,81.2646 173.539,79.2646 174.5,77.5 Z"/></g>
<g><path style="opacity:1" fill="#171c20" d="M 175.5,75.5 C 177.167,75.5 178.833,75.5 180.5,75.5C 181.167,75.5 181.5,75.8333 181.5,76.5C 181.5,79.1667 181.5,81.8333 181.5,84.5C 183.5,84.5 185.5,84.5 187.5,84.5C 189.467,84.2606 191.301,84.5939 193,85.5C 193.278,84.5842 193.778,83.9175 194.5,83.5C 195.537,82.0697 196.204,80.403 196.5,78.5C 198.042,77.6993 199.708,77.366 201.5,77.5C 202.038,79.1172 202.371,80.7839 202.5,82.5C 202.579,83.9305 202.246,85.2638 201.5,86.5C 204.305,88.215 207.305,89.5483 210.5,90.5C 212.984,88.2572 215.484,85.9239 218,83.5C 218.995,84.0659 219.828,84.7326 220.5,85.5C 219.442,88.1893 218.442,91.5227 217.5,95.5C 217.957,96.2975 218.624,96.6309 219.5,96.5C 220.492,96.3284 221.158,96.6618 221.5,97.5C 221.414,98.4959 221.748,99.3292 222.5,100C 219.527,101.129 216.527,101.963 213.5,102.5C 212.609,101.89 211.609,101.557 210.5,101.5C 209.508,101.672 208.842,101.338 208.5,100.5C 206.824,98.1663 204.491,97.1663 201.5,97.5C 198.916,95.5275 195.916,94.5275 192.5,94.5C 180.354,92.821 168.354,93.4877 156.5,96.5C 158.541,94.6462 160.874,93.1462 163.5,92C 163.835,90.836 163.835,89.5026 163.5,88C 165.619,87.6582 165.953,86.8249 164.5,85.5C 165.791,85.7373 166.791,85.404 167.5,84.5C 167.833,84.5 168.167,84.5 168.5,84.5C 170.5,84.5 172.5,84.5 174.5,84.5C 174.5,82.1667 174.5,79.8333 174.5,77.5C 174.328,76.5084 174.662,75.8417 175.5,75.5 Z"/></g>
<g><path style="opacity:0.102" fill="#b7b9bd" d="M 196.5,78.5 C 196.204,80.403 195.537,82.0697 194.5,83.5C 194.12,81.302 194.787,79.6354 196.5,78.5 Z"/></g>
<g><path style="opacity:0.11" fill="#e1e2e3" d="M 181.5,76.5 C 182.468,78.6074 182.802,80.9407 182.5,83.5C 184.415,83.2155 186.081,83.5489 187.5,84.5C 185.5,84.5 183.5,84.5 181.5,84.5C 181.5,81.8333 181.5,79.1667 181.5,76.5 Z"/></g>
<g><path style="opacity:0.804" fill="#7b7f83" d="M 111.5,81.5 C 110.415,83.5869 108.749,84.9202 106.5,85.5C 107.585,83.4131 109.251,82.0798 111.5,81.5 Z"/></g>
<g><path style="opacity:0.89" fill="#73797e" d="M 161.5,82.5 C 163.114,84.0746 165.114,84.7413 167.5,84.5C 166.791,85.404 165.791,85.7373 164.5,85.5C 162.121,86.5669 161.121,85.5669 161.5,82.5 Z"/></g>
<g><path style="opacity:0.529" fill="#989da0" d="M 230.5,84.5 C 232.404,84.7376 233.738,85.7376 234.5,87.5C 232.596,87.2624 231.262,86.2624 230.5,84.5 Z"/></g>
<g><path style="opacity:0.525" fill="#959c9f" d="M 88.5,83.5 C 89.4345,84.5676 89.7678,85.901 89.5,87.5C 91.099,87.2322 92.4324,87.5655 93.5,88.5C 91.8333,88.5 90.1667,88.5 88.5,88.5C 88.5,86.8333 88.5,85.1667 88.5,83.5 Z"/></g>
<g><path style="opacity:0.647" fill="#9b9da3" d="M 234.5,87.5 C 236.027,87.427 237.027,88.0937 237.5,89.5C 235.973,89.573 234.973,88.9063 234.5,87.5 Z"/></g>
<g><path style="opacity:0.988" fill="#222528" d="M 88.5,83.5 C 88.5,85.1667 88.5,86.8333 88.5,88.5C 90.1667,88.5 91.8333,88.5 93.5,88.5C 95.3607,92.3282 94.0274,93.9949 89.5,93.5C 89.7678,95.099 89.4345,96.4324 88.5,97.5C 87.1667,97.5 85.8333,97.5 84.5,97.5C 84.7678,95.901 84.4345,94.5676 83.5,93.5C 82.4324,92.5655 81.099,92.2322 79.5,92.5C 77.6393,88.6718 78.9726,87.0051 83.5,87.5C 83.2606,85.5328 83.5939,83.6995 84.5,82C 86.4628,81.1558 87.7961,81.6558 88.5,83.5 Z"/></g>
<g><path style="opacity:1" fill="#11161c" d="M 239.5,78.5 C 239.973,79.9063 240.973,80.573 242.5,80.5C 243.5,80.8333 244.167,81.5 244.5,82.5C 244.973,83.9063 245.973,84.573 247.5,84.5C 251.167,87.5 254.5,90.8333 257.5,94.5C 258.08,96.7488 259.413,98.4154 261.5,99.5C 261.738,101.404 262.738,102.738 264.5,103.5C 264.738,105.404 265.738,106.738 267.5,107.5C 268.338,107.842 268.672,108.508 268.5,109.5C 268.427,111.027 269.094,112.027 270.5,112.5C 275.443,119.733 278.777,127.733 280.5,136.5C 280.5,137.167 280.5,137.833 280.5,138.5C 279.414,138.62 278.747,139.287 278.5,140.5C 279.198,141.863 279.198,143.029 278.5,144C 276.65,143.405 274.65,142.905 272.5,142.5C 272.5,143.5 272.5,144.5 272.5,145.5C 271.21,142.358 270.21,139.025 269.5,135.5C 269.741,133.102 269.074,131.102 267.5,129.5C 267.598,127.447 266.931,125.78 265.5,124.5C 263.992,122.819 262.992,120.819 262.5,118.5C 262.573,116.973 261.906,115.973 260.5,115.5C 260.067,112.834 259.567,110.168 259,107.5C 258.259,106.359 257.425,106.359 256.5,107.5C 255.719,106.271 255.219,104.938 255,103.5C 254.014,104.171 252.847,104.171 251.5,103.5C 251.5,103.167 251.5,102.833 251.5,102.5C 251.167,101.5 250.5,100.833 249.5,100.5C 245.459,96.824 241.459,93.1573 237.5,89.5C 237.027,88.0937 236.027,87.427 234.5,87.5C 233.738,85.7376 232.404,84.7376 230.5,84.5C 229.508,84.6716 228.842,84.3382 228.5,83.5C 228.027,82.0937 227.027,81.427 225.5,81.5C 224.883,79.7708 223.883,78.2708 222.5,77C 225.222,75.4303 227.722,74.2636 230,73.5C 231.255,74.2106 232.421,75.044 233.5,76C 232.66,77.6665 233.16,77.8331 235,76.5C 236.33,77.5822 237.83,78.2488 239.5,78.5 Z"/></g>
<g><path style="opacity:1" fill="#878c8f" d="M 135.5,85.5 C 136.114,88.435 137.114,91.2683 138.5,94C 138.43,94.7648 138.097,95.2648 137.5,95.5C 136.928,93.7446 136.094,92.0779 135,90.5C 134.22,88.6131 134.387,86.9464 135.5,85.5 Z"/></g>
<g><path style="opacity:1" fill="#5d6265" d="M 220.5,85.5 C 221.88,85.9623 222.547,86.9623 222.5,88.5C 220.946,90.9441 219.946,93.6108 219.5,96.5C 218.624,96.6309 217.957,96.2975 217.5,95.5C 218.442,91.5227 219.442,88.1893 220.5,85.5 Z"/></g>
<g><path style="opacity:0.584" fill="#8d9194" d="M 79.5,92.5 C 81.099,92.2322 82.4324,92.5655 83.5,93.5C 82.7784,93.9175 82.2784,94.5842 82,95.5C 81.3021,94.3094 80.4687,93.3094 79.5,92.5 Z"/></g>
<g><path style="opacity:0.502" fill="#aaadb0" d="M 103.5,88.5 C 101.833,90.8333 99.8333,92.8333 97.5,94.5C 98.5,91.5 100.5,89.5 103.5,88.5 Z"/></g>
<g><path style="opacity:1" fill="#3c4247" d="M 120.5,87.5 C 116.54,90.823 112.54,94.1563 108.5,97.5C 108.343,96.1266 108.51,94.7932 109,93.5C 109.667,92.1667 110.333,92.1667 111,93.5C 111.356,90.2712 113.19,88.7712 116.5,89C 115.483,87.9505 115.316,86.7839 116,85.5C 117.11,87.0368 118.61,87.7035 120.5,87.5 Z"/></g>
<g><path style="opacity:1" fill="#12171b" d="M 154.5,77.5 C 156.621,77.3253 158.621,77.6586 160.5,78.5C 161.434,79.5676 161.768,80.901 161.5,82.5C 161.121,85.5669 162.121,86.5669 164.5,85.5C 165.953,86.8249 165.619,87.6582 163.5,88C 163.835,89.5026 163.835,90.836 163.5,92C 160.874,93.1462 158.541,94.6462 156.5,96.5C 155.791,97.404 154.791,97.7373 153.5,97.5C 151.473,97.3379 149.473,97.5045 147.5,98C 148.598,98.7697 148.598,99.603 147.5,100.5C 145.337,102.083 143.004,103.416 140.5,104.5C 139.292,103.766 137.959,103.433 136.5,103.5C 136.649,104.552 136.483,105.552 136,106.5C 134.817,105.269 133.651,105.269 132.5,106.5C 132.709,107.086 133.043,107.586 133.5,108C 132.223,108.127 131.057,107.627 130,106.5C 128.829,107.34 127.662,108.173 126.5,109C 127.167,109.333 127.833,109.667 128.5,110C 126.317,112.35 123.984,114.517 121.5,116.5C 122.246,117.736 122.579,119.07 122.5,120.5C 121.833,120.833 121.167,121.167 120.5,121.5C 118.402,120.086 117.402,120.752 117.5,123.5C 111.641,123.724 110.641,122.057 114.5,118.5C 113.037,114.895 111.037,114.062 108.5,116C 106.859,114.871 105.859,113.371 105.5,111.5C 107.5,111.5 109.5,111.5 111.5,111.5C 111.973,112.906 112.973,113.573 114.5,113.5C 115.833,112.833 117.167,112.167 118.5,111.5C 120.683,110.15 122.35,108.316 123.5,106C 123.252,104.251 122.252,103.418 120.5,103.5C 117.551,101.735 116.885,99.4017 118.5,96.5C 120.199,96.3398 121.866,96.5065 123.5,97C 125.017,98.6851 126.684,100.185 128.5,101.5C 129.107,101.376 129.44,101.043 129.5,100.5C 131.027,100.573 132.027,99.9063 132.5,98.5C 133.899,97.1103 135.566,96.1103 137.5,95.5C 138.097,95.2648 138.43,94.7648 138.5,94C 137.114,91.2683 136.114,88.435 135.5,85.5C 137.117,84.962 138.784,84.6287 140.5,84.5C 140.427,86.0269 141.094,87.0269 142.5,87.5C 142.506,89.8444 143.673,91.1777 146,91.5C 147.699,91.6134 148.866,90.9468 149.5,89.5C 151.672,88.8718 153.338,87.5384 154.5,85.5C 153.278,82.7766 153.278,80.1099 154.5,77.5 Z"/></g>
<g><path style="opacity:0.922" fill="#72787d" d="M 142.5,87.5 C 143.659,88.4558 144.826,89.4558 146,90.5C 147.138,90.0109 148.305,89.6775 149.5,89.5C 148.866,90.9468 147.699,91.6134 146,91.5C 143.673,91.1777 142.506,89.8444 142.5,87.5 Z"/></g>
<g><path style="opacity:0.404" fill="#969fa2" d="M 140.5,84.5 C 141.906,84.9731 142.573,85.9731 142.5,87.5C 141.094,87.0269 140.427,86.0269 140.5,84.5 Z"/></g>
<g><path style="opacity:0.902" fill="#8c8f91" d="M 192.5,94.5 C 195.916,94.5275 198.916,95.5275 201.5,97.5C 198.215,97.0719 195.215,96.0719 192.5,94.5 Z"/></g>
<g><path style="opacity:0.694" fill="#9da0a6" d="M 257.5,94.5 C 259.587,95.5846 260.92,97.2512 261.5,99.5C 259.413,98.4154 258.08,96.7488 257.5,94.5 Z"/></g>
<g><path style="opacity:0.761" fill="#85888b" d="M 118.5,96.5 C 120.288,95.3775 122.288,95.2109 124.5,96C 126.037,97.7073 127.704,99.2073 129.5,100.5C 129.44,101.043 129.107,101.376 128.5,101.5C 126.684,100.185 125.017,98.6851 123.5,97C 121.866,96.5065 120.199,96.3398 118.5,96.5 Z"/></g>
<g><path style="opacity:0.729" fill="#9d9fa2" d="M 83.5,93.5 C 84.4345,94.5676 84.7678,95.901 84.5,97.5C 85.8333,97.5 87.1667,97.5 88.5,97.5C 87.2233,99.914 85.5566,100.081 83.5,98C 83.0338,96.7012 83.0338,95.2012 83.5,93.5 Z"/></g>
<g><path style="opacity:0.812" fill="#8b8c8d" d="M 95.5,96.5 C 95.2624,98.4044 94.2624,99.7377 92.5,100.5C 92.7376,98.5956 93.7376,97.2623 95.5,96.5 Z"/></g>
<g><path style="opacity:1" fill="#676c71" d="M 153.5,97.5 C 151.819,99.0075 149.819,100.008 147.5,100.5C 148.598,99.603 148.598,98.7697 147.5,98C 149.473,97.5045 151.473,97.3379 153.5,97.5 Z"/></g>
<g><path style="opacity:0.91" fill="#73777a" d="M 201.5,97.5 C 204.491,97.1663 206.824,98.1663 208.5,100.5C 205.843,100.065 203.509,99.0652 201.5,97.5 Z"/></g>
<g><path style="opacity:0.478" fill="#b2b6b8" d="M 132.5,98.5 C 132.027,99.9063 131.027,100.573 129.5,100.5C 129.973,99.0937 130.973,98.427 132.5,98.5 Z"/></g>
<g><path style="opacity:0.737" fill="#8b9294" d="M 261.5,99.5 C 263.262,100.262 264.262,101.596 264.5,103.5C 262.738,102.738 261.738,101.404 261.5,99.5 Z"/></g>
<g><path style="opacity:0.008" fill="#bdc1c3" d="M 249.5,100.5 C 250.5,100.833 251.167,101.5 251.5,102.5C 250.167,102.5 249.5,101.833 249.5,100.5 Z"/></g>
<g><path style="opacity:0.639" fill="#7e8287" d="M 92.5,100.5 C 92.2624,102.404 91.2624,103.738 89.5,104.5C 89.7376,102.596 90.7376,101.262 92.5,100.5 Z"/></g>
<g><path style="opacity:0.369" fill="#a4a7aa" d="M 210.5,101.5 C 211.609,101.557 212.609,101.89 213.5,102.5C 213.5,102.833 213.5,103.167 213.5,103.5C 211.973,103.573 210.973,102.906 210.5,101.5 Z"/></g>
<g><path style="opacity:1" fill="#3a3d40" d="M 221.5,97.5 C 224.195,100.45 223.529,102.783 219.5,104.5C 218.609,105.11 217.609,105.443 216.5,105.5C 215.29,105.068 214.29,104.401 213.5,103.5C 213.5,103.167 213.5,102.833 213.5,102.5C 216.527,101.963 219.527,101.129 222.5,100C 221.748,99.3292 221.414,98.4959 221.5,97.5 Z"/></g>
<g><path style="opacity:0.016" fill="#d8dadc" d="M 103.5,102.5 C 103.573,104.027 102.906,105.027 101.5,105.5C 101.427,103.973 102.094,102.973 103.5,102.5 Z"/></g>
<g><path style="opacity:0.694" fill="#9a9fa1" d="M 120.5,103.5 C 122.252,103.418 123.252,104.251 123.5,106C 122.35,108.316 120.683,110.15 118.5,111.5C 119.203,109.284 120.536,107.451 122.5,106C 121.619,105.292 120.953,104.458 120.5,103.5 Z"/></g>
<g><path style="opacity:0.733" fill="#6c7275" d="M 233.5,102.5 C 232.415,104.587 230.749,105.92 228.5,106.5C 229.585,104.413 231.251,103.08 233.5,102.5 Z"/></g>
<g><path style="opacity:0.012" fill="#dadbdb" d="M 219.5,104.5 C 218.947,106.552 217.947,106.885 216.5,105.5C 217.609,105.443 218.609,105.11 219.5,104.5 Z"/></g>
<g><path style="opacity:0.267" fill="#9da0a4" d="M 233.5,102.5 C 238.833,100.5 240.5,102.167 238.5,107.5C 239.167,103.5 237.5,101.833 233.5,102.5 Z"/></g>
<g><path style="opacity:0.502" fill="#a1a8ab" d="M 264.5,103.5 C 266.262,104.262 267.262,105.596 267.5,107.5C 265.738,106.738 264.738,105.404 264.5,103.5 Z"/></g>
<g><path style="opacity:1" fill="#373b40" d="M 251.5,103.5 C 252.847,104.171 254.014,104.171 255,103.5C 255.219,104.938 255.719,106.271 256.5,107.5C 257.425,106.359 258.259,106.359 259,107.5C 259.567,110.168 260.067,112.834 260.5,115.5C 259.326,114.486 258.66,113.153 258.5,111.5C 258.167,110.5 257.5,109.833 256.5,109.5C 254.844,107.54 253.177,105.54 251.5,103.5 Z"/></g>
<g><path style="opacity:1" fill="#595e63" d="M 89.5,104.5 C 89.4894,106.017 88.8228,107.184 87.5,108C 88.4506,108.718 88.6172,109.551 88,110.5C 86.3853,111.386 84.8853,112.386 83.5,113.5C 84.7589,109.975 86.7589,106.975 89.5,104.5 Z"/></g>
<g><path style="opacity:0.792" fill="#7a7f82" d="M 111.5,111.5 C 109.5,111.5 107.5,111.5 105.5,111.5C 107.406,109.006 109.406,109.006 111.5,111.5 Z"/></g>
<g><path style="opacity:1" fill="#2b2f31" d="M 140.5,104.5 C 136.233,107.427 132.233,110.76 128.5,114.5C 126.5,114.5 125.5,115.5 125.5,117.5C 124.833,118.833 123.833,119.833 122.5,120.5C 122.579,119.07 122.246,117.736 121.5,116.5C 123.984,114.517 126.317,112.35 128.5,110C 127.833,109.667 127.167,109.333 126.5,109C 127.662,108.173 128.829,107.34 130,106.5C 131.057,107.627 132.223,108.127 133.5,108C 133.043,107.586 132.709,107.086 132.5,106.5C 133.651,105.269 134.817,105.269 136,106.5C 136.483,105.552 136.649,104.552 136.5,103.5C 137.959,103.433 139.292,103.766 140.5,104.5 Z"/></g>
<g><path style="opacity:0.859" fill="#6d7172" d="M 228.5,106.5 C 227.089,108.914 225.089,110.581 222.5,111.5C 223.911,109.086 225.911,107.419 228.5,106.5 Z"/></g>
<g><path style="opacity:0.004" fill="#d6d8da" d="M 256.5,109.5 C 257.5,109.833 258.167,110.5 258.5,111.5C 257.167,111.5 256.5,110.833 256.5,109.5 Z"/></g>
<g><path style="opacity:0.016" fill="#d0d3d3" d="M 111.5,111.5 C 113.027,111.427 114.027,112.094 114.5,113.5C 112.973,113.573 111.973,112.906 111.5,111.5 Z"/></g>
<g><path style="opacity:0.184" fill="#babec1" d="M 268.5,109.5 C 269.906,109.973 270.573,110.973 270.5,112.5C 269.094,112.027 268.427,111.027 268.5,109.5 Z"/></g>
<g><path style="opacity:0.071" fill="#d0d1d2" d="M 97.5,110.5 C 97.573,112.027 96.9063,113.027 95.5,113.5C 95.427,111.973 96.0937,110.973 97.5,110.5 Z"/></g>
<g><path style="opacity:0.592" fill="#9a9ca3" d="M 222.5,111.5 C 222.027,112.906 221.027,113.573 219.5,113.5C 219.973,112.094 220.973,111.427 222.5,111.5 Z"/></g>
<g><path style="opacity:0.024" fill="#cfd1d2" d="M 234.5,111.5 C 234.262,113.404 233.262,114.738 231.5,115.5C 231.738,113.596 232.738,112.262 234.5,111.5 Z"/></g>
<g><path style="opacity:0.624" fill="#929697" d="M 250.5,118.5 C 250.938,114.092 248.938,112.425 244.5,113.5C 246.139,111.058 248.139,110.891 250.5,113C 251.807,114.943 251.807,116.777 250.5,118.5 Z"/></g>
<g><path style="opacity:0.035" fill="#c5c7d1" d="M 128.5,114.5 C 127.833,115.833 126.833,116.833 125.5,117.5C 125.5,115.5 126.5,114.5 128.5,114.5 Z"/></g>
<g><path style="opacity:0.416" fill="#9da0a3" d="M 219.5,113.5 C 218.135,115.86 216.135,117.527 213.5,118.5C 214.891,116.11 216.891,114.443 219.5,113.5 Z"/></g>
<g><path style="opacity:1" fill="#050b0e" d="M 244.5,113.5 C 248.938,112.425 250.938,114.092 250.5,118.5C 249.178,118.67 248.011,118.337 247,117.5C 246,121.5 245,121.5 244,117.5C 243.667,117.833 243.333,118.167 243,118.5C 243.134,116.811 243.634,115.144 244.5,113.5 Z"/></g>
<g><path style="opacity:0.984" fill="#727679" d="M 94.5,114.5 C 94.0075,116.819 93.0075,118.819 91.5,120.5C 91.087,117.68 92.087,115.68 94.5,114.5 Z"/></g>
<g><path style="opacity:0.361" fill="#9ca0a2" d="M 105.5,116.5 C 107.027,116.427 108.027,117.094 108.5,118.5C 106.973,118.573 105.973,117.906 105.5,116.5 Z"/></g>
<g><path style="opacity:0.998" fill="#3f4449" d="M 244.5,113.5 C 243.634,115.144 243.134,116.811 243,118.5C 243.333,118.167 243.667,117.833 244,117.5C 245,121.5 246,121.5 247,117.5C 248.011,118.337 249.178,118.67 250.5,118.5C 248.906,119.983 247.24,121.483 245.5,123C 246.914,124.993 247.914,127.16 248.5,129.5C 247.13,129.144 246.13,128.31 245.5,127C 245.248,123.427 243.748,120.594 241,118.5C 240.28,120.056 239.113,121.056 237.5,121.5C 239.094,118.236 241.427,115.569 244.5,113.5 Z"/></g>
<g><path style="opacity:0.22" fill="#b8bcc0" d="M 260.5,115.5 C 261.906,115.973 262.573,116.973 262.5,118.5C 261.094,118.027 260.427,117.027 260.5,115.5 Z"/></g>
<g><path style="opacity:0.208" fill="#c4c7c8" d="M 213.5,118.5 C 213.167,119.5 212.5,120.167 211.5,120.5C 211.5,119.167 212.167,118.5 213.5,118.5 Z"/></g>
<g><path style="opacity:0.004" fill="#ccd4d6" d="M 228.5,118.5 C 228.573,120.027 227.906,121.027 226.5,121.5C 226.427,119.973 227.094,118.973 228.5,118.5 Z"/></g>
<g><path style="opacity:0.012" fill="#c8cfd1" d="M 122.5,120.5 C 122.573,122.027 121.906,123.027 120.5,123.5C 120.5,122.833 120.5,122.167 120.5,121.5C 121.167,121.167 121.833,120.833 122.5,120.5 Z"/></g>
<g><path style="opacity:0.18" fill="#cbced0" d="M 237.5,121.5 C 236.4,122.605 235.733,123.938 235.5,125.5C 234.024,123.291 234.691,121.958 237.5,121.5 Z"/></g>
<g><path style="opacity:0.212" fill="#cbcfd2" d="M 90.5,122.5 C 90.3404,124.153 89.6737,125.486 88.5,126.5C 88.2291,124.62 88.8958,123.287 90.5,122.5 Z"/></g>
<g><path style="opacity:0.82" fill="#7f8381" d="M 208.5,122.5 C 207.415,124.587 205.749,125.92 203.5,126.5C 204.585,124.413 206.251,123.08 208.5,122.5 Z"/></g>
<g><path style="opacity:0.039" fill="#c5d1d2" d="M 222.5,125.5 C 222.573,127.027 221.906,128.027 220.5,128.5C 220.427,126.973 221.094,125.973 222.5,125.5 Z"/></g>
<g><path style="opacity:0.31" fill="#b4b8bb" d="M 265.5,124.5 C 266.931,125.78 267.598,127.447 267.5,129.5C 266.069,128.22 265.402,126.553 265.5,124.5 Z"/></g>
<g><path style="opacity:0.831" fill="#757a7d" d="M 203.5,126.5 C 202.415,128.587 200.749,129.92 198.5,130.5C 199.585,128.413 201.251,127.08 203.5,126.5 Z"/></g>
<g><path style="opacity:0.235" fill="#b6babd" d="M 116.5,129.5 C 116.573,131.027 115.906,132.027 114.5,132.5C 114.427,130.973 115.094,129.973 116.5,129.5 Z"/></g>
<g><path style="opacity:0.137" fill="#cfd0d2" d="M 258.5,129.5 C 260.597,130.879 260.93,132.545 259.5,134.5C 259.371,132.784 259.038,131.117 258.5,129.5 Z"/></g>
<g><path style="opacity:0.396" fill="#b2b6b8" d="M 267.5,129.5 C 269.074,131.102 269.741,133.102 269.5,135.5C 268.262,133.786 267.595,131.786 267.5,129.5 Z"/></g>
<g><path style="opacity:1" fill="#050f16" d="M 81.5,143.5 C 81.5,145.167 81.5,146.833 81.5,148.5C 81.7845,150.415 81.4511,152.081 80.5,153.5C 78.6719,164.876 77.6719,176.376 77.5,188C 77.9444,189.762 78.4444,189.595 79,187.5C 79.4221,189.355 79.9221,191.189 80.5,193C 80.2409,194.261 79.5742,195.261 78.5,196C 80.4812,196.605 80.8146,197.605 79.5,199C 81.0074,199.837 81.5074,201.004 81,202.5C 73.955,192.43 71.455,181.43 73.5,169.5C 72.8333,168.833 72.1667,168.167 71.5,167.5C 72.5729,161.177 73.5729,154.843 74.5,148.5C 72.7823,145.527 73.4489,143.36 76.5,142C 76.1667,141.667 75.8333,141.333 75.5,141C 77.0648,137.68 78.3981,134.18 79.5,130.5C 78.538,128.117 79.538,127.117 82.5,127.5C 82.3573,129.262 82.6906,130.929 83.5,132.5C 83.1543,133.696 82.6543,133.696 82,132.5C 80.515,136.28 80.3483,139.946 81.5,143.5 Z"/></g>
<g><path style="opacity:0.682" fill="#a1a4a6" d="M 75.5,131.5 C 75.7406,133.898 75.0739,135.898 73.5,137.5C 73.595,135.214 74.2616,133.214 75.5,131.5 Z"/></g>
<g><path style="opacity:0.098" fill="#bfc6c7" d="M 95.5,133.5 C 97.153,133.66 98.4863,134.326 99.5,135.5C 97.6203,135.771 96.287,135.104 95.5,133.5 Z"/></g>
<g><path style="opacity:1" fill="#101619" d="M 233.5,102.5 C 237.5,101.833 239.167,103.5 238.5,107.5C 237.5,109.167 236.167,110.5 234.5,111.5C 232.738,112.262 231.738,113.596 231.5,115.5C 230.833,116.833 229.833,117.833 228.5,118.5C 227.094,118.973 226.427,119.973 226.5,121.5C 225.5,123.167 224.167,124.5 222.5,125.5C 221.094,125.973 220.427,126.973 220.5,128.5C 218.058,131.729 215.392,134.729 212.5,137.5C 211.094,137.973 210.427,138.973 210.5,140.5C 208.058,143.729 205.392,146.729 202.5,149.5C 201.094,149.973 200.427,150.973 200.5,152.5C 200.167,153.5 199.5,154.167 198.5,154.5C 197.118,155.801 195.452,156.634 193.5,157C 194.252,157.671 194.586,158.504 194.5,159.5C 193.167,159.5 191.833,159.5 190.5,159.5C 190.567,160.959 190.234,162.292 189.5,163.5C 183.07,166.761 177.237,165.761 172,160.5C 168.551,154.935 168.718,149.601 172.5,144.5C 174.749,143.92 176.415,142.587 177.5,140.5C 180.391,139.597 183.391,139.264 186.5,139.5C 192.185,138.822 196.185,135.822 198.5,130.5C 200.749,129.92 202.415,128.587 203.5,126.5C 205.749,125.92 207.415,124.587 208.5,122.5C 208.973,121.094 209.973,120.427 211.5,120.5C 212.5,120.167 213.167,119.5 213.5,118.5C 216.135,117.527 218.135,115.86 219.5,113.5C 221.027,113.573 222.027,112.906 222.5,111.5C 225.089,110.581 227.089,108.914 228.5,106.5C 230.749,105.92 232.415,104.587 233.5,102.5 Z"/></g>
<g><path style="opacity:1" fill="#1c2024" d="M 105.5,111.5 C 105.859,113.371 106.859,114.871 108.5,116C 111.037,114.062 113.037,114.895 114.5,118.5C 110.641,122.057 111.641,123.724 117.5,123.5C 117.402,120.752 118.402,120.086 120.5,121.5C 120.5,122.167 120.5,122.833 120.5,123.5C 119.525,125.795 118.192,127.795 116.5,129.5C 115.094,129.973 114.427,130.973 114.5,132.5C 112.82,137.257 111.153,141.923 109.5,146.5C 108.732,147.263 108.232,148.263 108,149.5C 107.502,152.817 107.335,156.15 107.5,159.5C 107.572,162.193 107.905,164.86 108.5,167.5C 108.514,169.593 107.848,171.426 106.5,173C 100.984,173.817 95.6503,173.651 90.5,172.5C 90.5,170.5 90.5,168.5 90.5,166.5C 92.6074,165.532 94.9407,165.198 97.5,165.5C 97.2161,162.223 97.5495,159.057 98.5,156C 95.4937,155.668 92.6604,154.834 90,153.5C 89.3333,151.833 89.3333,150.167 90,148.5C 90.6708,147.748 91.5041,147.414 92.5,147.5C 95.1667,147.5 97.8333,147.5 100.5,147.5C 100.993,145.194 101.326,142.861 101.5,140.5C 101.414,139.504 101.748,138.671 102.5,138C 101.429,137.148 100.429,136.315 99.5,135.5C 98.4863,134.326 97.153,133.66 95.5,133.5C 93.5,128.657 95.1667,126.491 100.5,127C 102.263,128.602 104.096,129.102 106,128.5C 107.3,125.705 108.8,123.039 110.5,120.5C 109.757,119.818 109.091,119.151 108.5,118.5C 108.027,117.094 107.027,116.427 105.5,116.5C 104.167,114.833 104.167,113.167 105.5,111.5 Z"/></g>
<g><path style="opacity:1" fill="#3a3f41" d="M 198.5,130.5 C 196.185,135.822 192.185,138.822 186.5,139.5C 190.212,136.122 194.212,133.122 198.5,130.5 Z"/></g>
<g><path style="opacity:0.016" fill="#cfd2d2" d="M 212.5,137.5 C 212.573,139.027 211.906,140.027 210.5,140.5C 210.427,138.973 211.094,137.973 212.5,137.5 Z"/></g>
<g><path style="opacity:0.502" fill="#92969a" d="M 258.5,135.5 C 256.364,136.653 254.364,137.986 252.5,139.5C 251.226,138.811 251.226,137.977 252.5,137C 254.345,135.872 256.345,135.372 258.5,135.5 Z"/></g>
<g><path style="opacity:0.439" fill="#a7aaab" d="M 241.5,136.5 C 243.074,138.102 243.741,140.102 243.5,142.5C 242.262,140.786 241.595,138.786 241.5,136.5 Z"/></g>
<g><path style="opacity:0.69" fill="#989a9d" d="M 280.5,136.5 C 281.913,139.219 282.58,142.219 282.5,145.5C 281.388,143.401 280.721,141.067 280.5,138.5C 280.5,137.833 280.5,137.167 280.5,136.5 Z"/></g>
<g><path style="opacity:0.776" fill="#7e8285" d="M 177.5,140.5 C 176.415,142.587 174.749,143.92 172.5,144.5C 173.585,142.413 175.251,141.08 177.5,140.5 Z"/></g>
<g><path style="opacity:0.18" fill="#c3c7cd" d="M 83.5,140.5 C 83.4349,143.428 82.7682,146.095 81.5,148.5C 81.5,146.833 81.5,145.167 81.5,143.5C 82.1667,142.5 82.8333,141.5 83.5,140.5 Z"/></g>
<g><path style="opacity:0.161" fill="#cfd2d7" d="M 101.5,140.5 C 101.326,142.861 100.993,145.194 100.5,147.5C 97.8333,147.5 95.1667,147.5 92.5,147.5C 94.6074,146.532 96.9407,146.198 99.5,146.5C 99.595,144.214 100.262,142.214 101.5,140.5 Z"/></g>
<g><path style="opacity:0.008" fill="#c8cbcb" d="M 202.5,149.5 C 202.573,151.027 201.906,152.027 200.5,152.5C 200.427,150.973 201.094,149.973 202.5,149.5 Z"/></g>
<g><path style="opacity:1" fill="#171b1f" d="M 248.5,129.5 C 251.743,128.922 255.077,128.922 258.5,129.5C 259.038,131.117 259.371,132.784 259.5,134.5C 259.5,135.167 259.167,135.5 258.5,135.5C 256.345,135.372 254.345,135.872 252.5,137C 251.226,137.977 251.226,138.811 252.5,139.5C 253.247,142.15 254.247,144.816 255.5,147.5C 259.918,145.528 262.918,146.695 264.5,151C 264.415,152.107 264.081,153.107 263.5,154C 260.768,154.413 258.101,155.08 255.5,156C 256.451,159.057 256.784,162.223 256.5,165.5C 258.857,165.337 261.19,165.503 263.5,166C 266.134,168.293 266.134,170.46 263.5,172.5C 258.489,172.666 253.489,172.499 248.5,172C 247.855,166.733 247.188,161.567 246.5,156.5C 246.5,156.167 246.5,155.833 246.5,155.5C 246.678,151.878 246.011,148.544 244.5,145.5C 243.89,144.609 243.557,143.609 243.5,142.5C 243.741,140.102 243.074,138.102 241.5,136.5C 239.25,133.001 237.25,129.335 235.5,125.5C 235.733,123.938 236.4,122.605 237.5,121.5C 239.113,121.056 240.28,120.056 241,118.5C 243.748,120.594 245.248,123.427 245.5,127C 246.13,128.31 247.13,129.144 248.5,129.5 Z"/></g>
<g><path style="opacity:1" fill="#0e151a" d="M 280.5,138.5 C 280.721,141.067 281.388,143.401 282.5,145.5C 282.527,151.051 283.194,156.384 284.5,161.5C 285.357,167.407 285.357,173.073 284.5,178.5C 283.011,182.236 282.344,186.236 282.5,190.5C 281.087,193.219 280.42,196.219 280.5,199.5C 280.097,202.486 279.097,205.152 277.5,207.5C 276.099,207.971 274.766,208.638 273.5,209.5C 274.246,210.736 274.579,212.07 274.5,213.5C 272.901,213.232 271.568,213.566 270.5,214.5C 268.621,214.607 268.288,214.107 269.5,213C 267.398,211.27 267.565,209.437 270,207.5C 270.667,208.833 271.333,208.833 272,207.5C 272.995,202.547 273.662,197.547 274,192.5C 275.011,191.663 276.178,191.33 277.5,191.5C 277.137,180.319 277.137,168.652 277.5,156.5C 277.333,154.833 277.167,153.167 277,151.5C 276.667,152.5 276.333,153.5 276,154.5C 275.768,153.263 275.268,152.263 274.5,151.5C 274.125,149.302 273.458,147.302 272.5,145.5C 272.5,144.5 272.5,143.5 272.5,142.5C 274.65,142.905 276.65,143.405 278.5,144C 279.198,143.029 279.198,141.863 278.5,140.5C 278.747,139.287 279.414,138.62 280.5,138.5 Z"/></g>
<g><path style="opacity:0.369" fill="#b5b7bb" d="M 109.5,146.5 C 109.116,151.01 108.449,155.343 107.5,159.5C 107.335,156.15 107.502,152.817 108,149.5C 108.232,148.263 108.732,147.263 109.5,146.5 Z"/></g>
<g><path style="opacity:0.29" fill="#aaaeb2" d="M 244.5,145.5 C 246.011,148.544 246.678,151.878 246.5,155.5C 245.215,152.411 244.549,149.078 244.5,145.5 Z"/></g>
<g><path style="opacity:0.576" fill="#8e9398" d="M 272.5,145.5 C 273.458,147.302 274.125,149.302 274.5,151.5C 274.5,154.167 274.5,156.833 274.5,159.5C 273.199,155.057 272.532,150.391 272.5,145.5 Z"/></g>
<g><path style="opacity:0.867" fill="#777d81" d="M 282.5,145.5 C 284.26,150.553 284.927,155.886 284.5,161.5C 283.194,156.384 282.527,151.051 282.5,145.5 Z"/></g>
<g><path style="opacity:1" fill="#74797d" d="M 198.5,154.5 C 197.92,156.749 196.587,158.415 194.5,159.5C 194.586,158.504 194.252,157.671 193.5,157C 195.452,156.634 197.118,155.801 198.5,154.5 Z"/></g>
<g><path style="opacity:1" fill="#5b5d5f" d="M 194.5,159.5 C 193.415,161.587 191.749,162.92 189.5,163.5C 190.234,162.292 190.567,160.959 190.5,159.5C 191.833,159.5 193.167,159.5 194.5,159.5 Z"/></g>
<g><path style="opacity:0.878" fill="#747679" d="M 90.5,166.5 C 90.5,168.5 90.5,170.5 90.5,172.5C 87.8333,170.5 87.8333,168.5 90.5,166.5 Z"/></g>
<g><path style="opacity:0.196" fill="#c9cccf" d="M 184.5,172.5 C 166.453,172.193 148.453,172.527 130.5,173.5C 130.611,172.883 130.944,172.383 131.5,172C 149.338,171.171 167.005,171.338 184.5,172.5 Z"/></g>
<g><path style="opacity:0.492" fill="#82878a" d="M 246.5,156.5 C 247.188,161.567 247.855,166.733 248.5,172C 253.489,172.499 258.489,172.666 263.5,172.5C 258.35,173.651 253.016,173.817 247.5,173C 246.527,167.593 246.193,162.093 246.5,156.5 Z"/></g>
<g><path style="opacity:1" fill="#14191d" d="M 184.5,172.5 C 189.804,175.812 194.804,179.479 199.5,183.5C 199.973,184.906 200.973,185.573 202.5,185.5C 204.23,186.026 205.564,187.026 206.5,188.5C 206.611,189.117 206.944,189.617 207.5,190C 217.494,190.5 227.494,190.666 237.5,190.5C 242.101,191.342 246.435,192.675 250.5,194.5C 252.588,198.359 252.921,202.359 251.5,206.5C 249.801,206.34 248.134,206.506 246.5,207C 247.451,210.057 247.784,213.223 247.5,216.5C 249.167,216.5 250.833,216.5 252.5,216.5C 252.5,218.5 252.5,220.5 252.5,222.5C 248.208,224.723 243.708,225.056 239,223.5C 239.215,220.189 239.215,216.856 239,213.5C 238.157,209.779 236.657,206.446 234.5,203.5C 234.027,202.094 233.027,201.427 231.5,201.5C 228.743,200.488 226.076,199.488 223.5,198.5C 223.5,198.167 223.5,197.833 223.5,197.5C 225.54,196.481 227.54,196.481 229.5,197.5C 229.291,198.086 228.957,198.586 228.5,199C 230.167,199.333 231.833,199.667 233.5,200C 234.641,202.783 236.475,204.95 239,206.5C 239.617,205.551 239.451,204.718 238.5,204C 240.468,202.539 241.802,200.705 242.5,198.5C 242.5,199.833 242.5,201.167 242.5,202.5C 243.791,202.737 244.791,202.404 245.5,201.5C 245.5,200.833 245.5,200.167 245.5,199.5C 245.5,199.167 245.5,198.833 245.5,198.5C 244.836,196.133 243.503,194.133 241.5,192.5C 236.409,194.998 231.243,194.998 226,192.5C 223.241,193.654 220.575,193.321 218,191.5C 215.3,193.784 212.467,193.784 209.5,191.5C 208.094,192.668 206.928,192.335 206,190.5C 205.275,191.059 204.442,191.392 203.5,191.5C 200.451,189.073 197.617,186.407 195,183.5C 194.289,185.367 194.789,186.867 196.5,188C 195.041,187.645 193.707,187.811 192.5,188.5C 191.609,187.89 190.609,187.557 189.5,187.5C 188.738,185.738 187.404,184.738 185.5,184.5C 185.027,183.094 184.027,182.427 182.5,182.5C 181.508,182.672 180.842,182.338 180.5,181.5C 173.687,180.509 166.687,180.175 159.5,180.5C 159.918,179.778 160.584,179.278 161.5,179C 160.151,178.228 159.318,177.061 159,175.5C 158.309,177.891 157.309,177.891 156,175.5C 154.324,176.061 152.991,177.061 152,178.5C 150.915,176.343 149.749,176.176 148.5,178C 151.411,178.698 152.077,180.198 150.5,182.5C 150.167,182.5 149.833,182.5 149.5,182.5C 145.299,181.264 140.965,181.264 136.5,182.5C 134.856,182.714 133.356,182.38 132,181.5C 132.355,182.959 132.189,184.293 131.5,185.5C 130.564,186.974 129.23,187.974 127.5,188.5C 126.833,188.5 126.167,188.5 125.5,188.5C 124.749,187.427 123.749,187.26 122.5,188C 123.451,188.718 123.617,189.551 123,190.5C 121.325,189.405 120.158,187.905 119.5,186C 117.753,185.648 116.086,185.148 114.5,184.5C 114.833,183.833 115.167,183.167 115.5,182.5C 117.674,182.25 119.341,181.25 120.5,179.5C 123.161,176.498 126.495,174.498 130.5,173.5C 148.453,172.527 166.453,172.193 184.5,172.5 Z M 149.5,182.5 C 149.216,184.877 149.216,187.044 149.5,189C 141.988,189.822 134.655,189.655 127.5,188.5C 129.23,187.974 130.564,186.974 131.5,185.5C 133.674,185.25 135.341,184.25 136.5,182.5C 140.965,181.264 145.299,181.264 149.5,182.5 Z M 180.5,181.5 C 180.842,182.338 181.508,182.672 182.5,182.5C 182.973,183.906 183.973,184.573 185.5,184.5C 186.262,186.262 187.596,187.262 189.5,187.5C 189.611,188.117 189.944,188.617 190.5,189C 179.839,189.5 169.172,189.667 158.5,189.5C 158.5,188.167 158.5,186.833 158.5,185.5C 158.5,184.167 158.5,182.833 158.5,181.5C 165.833,181.5 173.167,181.5 180.5,181.5 Z M 245.5,199.5 C 245.5,200.167 245.5,200.833 245.5,201.5C 242.833,200.833 242.833,200.167 245.5,199.5 Z"/></g>
<g><path style="opacity:0.153" fill="#c6c6c8" d="M 120.5,179.5 C 119.341,181.25 117.674,182.25 115.5,182.5C 116.659,180.75 118.326,179.75 120.5,179.5 Z"/></g>
<g><path style="opacity:0.046" fill="#e4ebf7" d="M 159.5,180.5 C 166.687,180.175 173.687,180.509 180.5,181.5C 173.167,181.5 165.833,181.5 158.5,181.5C 158.5,182.833 158.5,184.167 158.5,185.5C 157.861,184.903 157.528,184.07 157.5,183C 157.684,181.624 158.351,180.791 159.5,180.5 Z"/></g>
<g><path style="opacity:1" fill="#676c6f" d="M 136.5,182.5 C 135.341,184.25 133.674,185.25 131.5,185.5C 132.189,184.293 132.355,182.959 132,181.5C 133.356,182.38 134.856,182.714 136.5,182.5 Z"/></g>
<g><path style="opacity:0.431" fill="#9a9ea2" d="M 115.5,182.5 C 115.167,183.167 114.833,183.833 114.5,184.5C 108.833,184.5 103.167,184.5 97.5,184.5C 97.1667,184.5 96.8333,184.5 96.5,184.5C 102.7,183.757 109.034,183.09 115.5,182.5 Z"/></g>
<g><path style="opacity:0.482" fill="#909496" d="M 182.5,182.5 C 184.027,182.427 185.027,183.094 185.5,184.5C 183.973,184.573 182.973,183.906 182.5,182.5 Z"/></g>
<g><path style="opacity:0.024" fill="#cccecf" d="M 199.5,183.5 C 201.027,183.427 202.027,184.094 202.5,185.5C 200.973,185.573 199.973,184.906 199.5,183.5 Z"/></g>
<g><path style="opacity:1" fill="#060c12" d="M 97.5,184.5 C 103.167,184.5 108.833,184.5 114.5,184.5C 116.086,185.148 117.753,185.648 119.5,186C 120.158,187.905 121.325,189.405 123,190.5C 123.617,189.551 123.451,188.718 122.5,188C 123.749,187.26 124.749,187.427 125.5,188.5C 128.337,190.402 131.671,191.069 135.5,190.5C 134.571,191.315 133.571,192.148 132.5,193C 135.536,193.709 138.369,194.876 141,196.5C 142.131,195.396 142.965,195.729 143.5,197.5C 140.634,197.554 137.801,197.554 135,197.5C 133.036,195.312 131.536,195.312 130.5,197.5C 128.143,197.337 125.81,197.503 123.5,198C 121.68,198.2 120.347,199.034 119.5,200.5C 119.158,201.338 118.492,201.672 117.5,201.5C 115.774,201.185 114.107,201.019 112.5,201C 115.028,203.075 114.861,203.908 112,203.5C 111.51,204.793 111.343,206.127 111.5,207.5C 110.069,208.78 109.402,210.447 109.5,212.5C 108.549,213.919 108.216,215.585 108.5,217.5C 107.167,217.5 105.833,217.5 104.5,217.5C 103.508,217.672 102.842,217.338 102.5,216.5C 102.027,215.094 101.027,214.427 99.5,214.5C 98.0937,214.027 97.427,213.027 97.5,211.5C 97.5,202.5 97.5,193.5 97.5,184.5 Z"/></g>
<g><path style="opacity:0.776" fill="#909598" d="M 274.5,176.5 C 274.917,180.817 274.25,184.817 272.5,188.5C 272.717,184.295 273.383,180.295 274.5,176.5 Z"/></g>
<g><path style="opacity:1" fill="#060d12" d="M 159.5,180.5 C 158.351,180.791 157.684,181.624 157.5,183C 157.528,184.07 157.861,184.903 158.5,185.5C 158.5,186.833 158.5,188.167 158.5,189.5C 168.319,190.494 178.319,190.827 188.5,190.5C 179.225,192.473 169.558,193.14 159.5,192.5C 159.771,194.821 159.104,196.821 157.5,198.5C 155.082,199.457 152.916,200.791 151,202.5C 150.151,199.479 148.651,198.979 146.5,201C 147.525,205.37 148.858,208.203 150.5,209.5C 148.379,209.675 146.379,209.341 144.5,208.5C 144.33,207.178 144.663,206.011 145.5,205C 144.207,204.51 142.873,204.343 141.5,204.5C 141.5,202.5 140.5,201.5 138.5,201.5C 136.847,201.34 135.514,200.674 134.5,199.5C 133.329,198.655 131.995,197.989 130.5,197.5C 131.536,195.312 133.036,195.312 135,197.5C 137.801,197.554 140.634,197.554 143.5,197.5C 142.965,195.729 142.131,195.396 141,196.5C 138.369,194.876 135.536,193.709 132.5,193C 133.571,192.148 134.571,191.315 135.5,190.5C 140.5,190.5 145.5,190.5 150.5,190.5C 150.5,187.833 150.5,185.167 150.5,182.5C 152.077,180.198 151.411,178.698 148.5,178C 149.749,176.176 150.915,176.343 152,178.5C 152.991,177.061 154.324,176.061 156,175.5C 157.309,177.891 158.309,177.891 159,175.5C 159.318,177.061 160.151,178.228 161.5,179C 160.584,179.278 159.918,179.778 159.5,180.5 Z"/></g>
<g><path style="opacity:0.655" fill="#7e8284" d="M 185.5,184.5 C 187.404,184.738 188.738,185.738 189.5,187.5C 187.596,187.262 186.262,186.262 185.5,184.5 Z"/></g>
<g><path style="opacity:0.404" fill="#a8acb0" d="M 284.5,178.5 C 284.656,182.764 283.989,186.764 282.5,190.5C 282.344,186.236 283.011,182.236 284.5,178.5 Z"/></g>
<g><path style="opacity:0.579" fill="#7d8285" d="M 149.5,182.5 C 149.833,182.5 150.167,182.5 150.5,182.5C 150.5,185.167 150.5,187.833 150.5,190.5C 145.5,190.5 140.5,190.5 135.5,190.5C 131.671,191.069 128.337,190.402 125.5,188.5C 126.167,188.5 126.833,188.5 127.5,188.5C 134.655,189.655 141.988,189.822 149.5,189C 149.216,187.044 149.216,184.877 149.5,182.5 Z"/></g>
<g><path style="opacity:0.567" fill="#6d7276" d="M 189.5,187.5 C 190.609,187.557 191.609,187.89 192.5,188.5C 191.817,190.176 190.483,190.843 188.5,190.5C 178.319,190.827 168.319,190.494 158.5,189.5C 169.172,189.667 179.839,189.5 190.5,189C 189.944,188.617 189.611,188.117 189.5,187.5 Z"/></g>
<g><path style="opacity:1" fill="#040c14" d="M 245.5,198.5 C 244.5,198.5 243.5,198.5 242.5,198.5C 241.802,200.705 240.468,202.539 238.5,204C 239.451,204.718 239.617,205.551 239,206.5C 236.475,204.95 234.641,202.783 233.5,200C 231.833,199.667 230.167,199.333 228.5,199C 228.957,198.586 229.291,198.086 229.5,197.5C 227.54,196.481 225.54,196.481 223.5,197.5C 220.171,197.215 217.171,197.882 214.5,199.5C 210.209,202.123 206.543,205.456 203.5,209.5C 185.833,209.5 168.167,209.5 150.5,209.5C 148.858,208.203 147.525,205.37 146.5,201C 148.651,198.979 150.151,199.479 151,202.5C 152.916,200.791 155.082,199.457 157.5,198.5C 159.104,196.821 159.771,194.821 159.5,192.5C 169.558,193.14 179.225,192.473 188.5,190.5C 190.483,190.843 191.817,190.176 192.5,188.5C 193.707,187.811 195.041,187.645 196.5,188C 194.789,186.867 194.289,185.367 195,183.5C 197.617,186.407 200.451,189.073 203.5,191.5C 204.442,191.392 205.275,191.059 206,190.5C 206.928,192.335 208.094,192.668 209.5,191.5C 212.467,193.784 215.3,193.784 218,191.5C 220.575,193.321 223.241,193.654 226,192.5C 231.243,194.998 236.409,194.998 241.5,192.5C 243.503,194.133 244.836,196.133 245.5,198.5 Z"/></g>
<g><path style="opacity:0.632" fill="#6e7175" d="M 206.5,188.5 C 216.963,189.121 227.296,189.788 237.5,190.5C 227.494,190.666 217.494,190.5 207.5,190C 206.944,189.617 206.611,189.117 206.5,188.5 Z"/></g>
<g><path style="opacity:0.852" fill="#686c70" d="M 96.5,184.5 C 96.8333,184.5 97.1667,184.5 97.5,184.5C 97.5,193.5 97.5,202.5 97.5,211.5C 96.7784,211.082 96.2784,210.416 96,209.5C 95.199,201.088 95.3656,192.755 96.5,184.5 Z"/></g>
<g><path style="opacity:0.749" fill="#878c8e" d="M 272.5,190.5 C 272.435,193.428 271.768,196.095 270.5,198.5C 270.294,195.505 270.96,192.838 272.5,190.5 Z"/></g>
<g><path style="opacity:0.014" fill="#c6c9ca" d="M 282.5,190.5 C 282.58,193.781 281.913,196.781 280.5,199.5C 280.42,196.219 281.087,193.219 282.5,190.5 Z"/></g>
<g><path style="opacity:0.843" fill="#969fa1" d="M 82.5,191.5 C 83.8699,194.619 84.8699,197.952 85.5,201.5C 83.32,198.619 82.32,195.286 82.5,191.5 Z"/></g>
<g><path style="opacity:0.494" fill="#9ea1a3" d="M 130.5,197.5 C 131.995,197.989 133.329,198.655 134.5,199.5C 129.397,198.119 124.397,198.452 119.5,200.5C 120.347,199.034 121.68,198.2 123.5,198C 125.81,197.503 128.143,197.337 130.5,197.5 Z"/></g>
<g><path style="opacity:0.016" fill="#bdc0c5" d="M 223.5,197.5 C 223.5,197.833 223.5,198.167 223.5,198.5C 220.482,198.704 217.482,199.037 214.5,199.5C 217.171,197.882 220.171,197.215 223.5,197.5 Z"/></g>
<g><path style="opacity:0.027" fill="#cbcdd0" d="M 73.5,196.5 C 74.9238,198.515 75.5905,200.848 75.5,203.5C 74.0762,201.485 73.4095,199.152 73.5,196.5 Z"/></g>
<g><path style="opacity:0.6" fill="#8a8e90" d="M 250.5,194.5 C 252.959,195.874 253.959,198.04 253.5,201C 253.333,202.5 253.167,204 253,205.5C 252.617,206.056 252.117,206.389 251.5,206.5C 252.921,202.359 252.588,198.359 250.5,194.5 Z"/></g>
<g><path style="opacity:0.055" fill="#dadfe7" d="M 242.5,198.5 C 243.5,198.5 244.5,198.5 245.5,198.5C 245.5,198.833 245.5,199.167 245.5,199.5C 242.833,200.167 242.833,200.833 245.5,201.5C 244.791,202.404 243.791,202.737 242.5,202.5C 242.5,201.167 242.5,199.833 242.5,198.5 Z"/></g>
<g><path style="opacity:0.847" fill="#838889" d="M 138.5,201.5 C 140.5,201.5 141.5,202.5 141.5,204.5C 140.167,203.833 139.167,202.833 138.5,201.5 Z"/></g>
<g><path style="opacity:0.741" fill="#8a8e90" d="M 231.5,201.5 C 233.027,201.427 234.027,202.094 234.5,203.5C 232.973,203.573 231.973,202.906 231.5,201.5 Z"/></g>
<g><path style="opacity:0.992" fill="#696b6e" d="M 117.5,201.5 C 115.833,203.833 113.833,205.833 111.5,207.5C 111.343,206.127 111.51,204.793 112,203.5C 114.861,203.908 115.028,203.075 112.5,201C 114.107,201.019 115.774,201.185 117.5,201.5 Z"/></g>
<g><path style="opacity:1" fill="#5a5d60" d="M 141.5,204.5 C 142.873,204.343 144.207,204.51 145.5,205C 144.663,206.011 144.33,207.178 144.5,208.5C 143.026,207.564 142.026,206.23 141.5,204.5 Z"/></g>
<g><path style="opacity:0.443" fill="#b0b3b6" d="M 120.5,205.5 C 119.5,207.167 118.167,208.5 116.5,209.5C 116.833,207.167 118.167,205.833 120.5,205.5 Z"/></g>
<g><path style="opacity:1" fill="#717679" d="M 251.5,206.5 C 249.049,208.896 248.049,211.896 248.5,215.5C 254.368,215.578 255.701,217.911 252.5,222.5C 252.5,220.5 252.5,218.5 252.5,216.5C 250.833,216.5 249.167,216.5 247.5,216.5C 247.784,213.223 247.451,210.057 246.5,207C 248.134,206.506 249.801,206.34 251.5,206.5 Z"/></g>
<g><path style="opacity:0.995" fill="#151a1f" d="M 233.5,211.5 C 233.677,215.234 233.344,218.901 232.5,222.5C 231.5,225.5 229.5,227.5 226.5,228.5C 223.545,229.159 220.545,229.492 217.5,229.5C 214.663,229.316 212.663,227.982 211.5,225.5C 211.167,224.5 210.5,223.833 209.5,223.5C 207.364,219.724 207.031,215.724 208.5,211.5C 209.906,211.027 210.573,210.027 210.5,208.5C 215.352,202.293 221.352,201.126 228.5,205C 230.79,206.777 232.457,208.944 233.5,211.5 Z M 224.5,213.5 C 225.938,216.083 225.604,218.417 223.5,220.5C 220.812,220.834 218.479,220.168 216.5,218.5C 216.629,216.784 216.962,215.117 217.5,213.5C 219.833,212.167 222.167,212.167 224.5,213.5 Z"/></g>
<g><path style="opacity:0.129" fill="#b7b8bd" d="M 267.5,206.5 C 267.34,208.153 266.674,209.486 265.5,210.5C 265.229,208.62 265.896,207.287 267.5,206.5 Z"/></g>
<g><path style="opacity:1" fill="#464b4f" d="M 277.5,207.5 C 276.607,211.613 274.94,215.28 272.5,218.5C 272.34,216.847 271.674,215.514 270.5,214.5C 271.568,213.566 272.901,213.232 274.5,213.5C 274.579,212.07 274.246,210.736 273.5,209.5C 274.766,208.638 276.099,207.971 277.5,207.5 Z"/></g>
<g><path style="opacity:0.42" fill="#979a9f" d="M 137.5,207.5 C 138.906,207.973 139.573,208.973 139.5,210.5C 138.094,210.027 137.427,209.027 137.5,207.5 Z"/></g>
<g><path style="opacity:0.71" fill="#8d9194" d="M 144.5,208.5 C 146.379,209.341 148.379,209.675 150.5,209.5C 168.167,209.5 185.833,209.5 203.5,209.5C 203.389,210.117 203.056,210.617 202.5,211C 183.342,211.056 164.342,211.056 145.5,211C 144.748,210.329 144.414,209.496 144.5,208.5 Z"/></g>
<g><path style="opacity:0.31" fill="#b4b9ba" d="M 111.5,207.5 C 111.598,209.553 110.931,211.22 109.5,212.5C 109.402,210.447 110.069,208.78 111.5,207.5 Z"/></g>
<g><path style="opacity:0.227" fill="#aeaeb8" d="M 210.5,208.5 C 210.573,210.027 209.906,211.027 208.5,211.5C 208.427,209.973 209.094,208.973 210.5,208.5 Z"/></g>
<g><path style="opacity:0.275" fill="#bdc0c3" d="M 224.5,213.5 C 222.167,212.167 219.833,212.167 217.5,213.5C 218.134,212.053 219.301,211.387 221,211.5C 222.699,211.387 223.866,212.053 224.5,213.5 Z"/></g>
<g><path style="opacity:0.294" fill="#bec0c3" d="M 233.5,211.5 C 234.641,214.64 234.808,217.973 234,221.5C 233.617,222.056 233.117,222.389 232.5,222.5C 233.344,218.901 233.677,215.234 233.5,211.5 Z"/></g>
<g><path style="opacity:0.161" fill="#b3b8bb" d="M 90.5,213.5 C 92.1042,214.287 92.7709,215.62 92.5,217.5C 91.3263,216.486 90.6596,215.153 90.5,213.5 Z"/></g>
<g><path style="opacity:0.275" fill="#b7babd" d="M 99.5,214.5 C 101.027,214.427 102.027,215.094 102.5,216.5C 100.973,216.573 99.9731,215.906 99.5,214.5 Z"/></g>
<g><path style="opacity:0.42" fill="#95999c" d="M 201.5,216.5 C 183.09,216.18 164.757,216.514 146.5,217.5C 155.308,216.168 164.475,215.502 174,215.5C 183.34,215.5 192.506,215.834 201.5,216.5 Z"/></g>
<g><path style="opacity:0.318" fill="#a9adb1" d="M 217.5,213.5 C 216.962,215.117 216.629,216.784 216.5,218.5C 215.07,216.545 215.403,214.879 217.5,213.5 Z"/></g>
<g><path style="opacity:0.999" fill="#1e2327" d="M 201.5,216.5 C 203.974,219.021 203.974,221.521 201.5,224C 182.995,224.829 164.662,224.662 146.5,223.5C 146.5,221.5 146.5,219.5 146.5,217.5C 164.757,216.514 183.09,216.18 201.5,216.5 Z"/></g>
<g><path style="opacity:0.396" fill="#b2b5b8" d="M 109.5,212.5 C 109.5,214.5 109.5,216.5 109.5,218.5C 107.585,218.784 105.919,218.451 104.5,217.5C 105.833,217.5 107.167,217.5 108.5,217.5C 108.216,215.585 108.549,213.919 109.5,212.5 Z"/></g>
<g><path style="opacity:0.298" fill="#a7acb7" d="M 262.5,216.5 C 262.573,218.027 261.906,219.027 260.5,219.5C 260.427,217.973 261.094,216.973 262.5,216.5 Z"/></g>
<g><path style="opacity:1" fill="#161b20" d="M 274.5,151.5 C 275.268,152.263 275.768,153.263 276,154.5C 276.333,153.5 276.667,152.5 277,151.5C 277.167,153.167 277.333,154.833 277.5,156.5C 277.137,168.652 277.137,180.319 277.5,191.5C 276.178,191.33 275.011,191.663 274,192.5C 273.662,197.547 272.995,202.547 272,207.5C 271.333,208.833 270.667,208.833 270,207.5C 267.565,209.437 267.398,211.27 269.5,213C 268.288,214.107 268.621,214.607 270.5,214.5C 271.674,215.514 272.34,216.847 272.5,218.5C 272.672,219.492 272.338,220.158 271.5,220.5C 269.241,221.344 268.241,223.011 268.5,225.5C 266.6,229.732 263.933,233.399 260.5,236.5C 259.833,236.833 259.167,237.167 258.5,237.5C 256.952,237.821 256.285,238.821 256.5,240.5C 253.874,241.762 251.207,243.096 248.5,244.5C 249.246,245.736 249.579,247.07 249.5,248.5C 247.442,249.933 245.108,250.6 242.5,250.5C 242.567,251.959 242.234,253.292 241.5,254.5C 241.167,255.5 240.5,256.167 239.5,256.5C 238.178,256.67 237.011,256.337 236,255.5C 235.59,256.901 235.09,258.234 234.5,259.5C 233.101,260.89 231.434,261.89 229.5,262.5C 227.973,262.427 226.973,263.094 226.5,264.5C 224.321,263.897 222.154,263.23 220,262.5C 216.263,264.92 212.096,266.086 207.5,266C 206.833,266.333 206.167,266.667 205.5,267C 206.977,269.148 208.977,270.482 211.5,271C 228.83,271.5 246.163,271.667 263.5,271.5C 262.088,272.533 260.422,273.199 258.5,273.5C 240.468,273.182 222.135,272.849 203.5,272.5C 198.536,273.543 196.869,271.876 198.5,267.5C 200.308,267.509 201.975,267.009 203.5,266C 201.065,265.925 200.398,265.092 201.5,263.5C 204.636,263.397 207.302,262.397 209.5,260.5C 211.698,260.88 213.365,260.213 214.5,258.5C 214.842,257.662 215.508,257.328 216.5,257.5C 219.899,257.391 222.566,256.058 224.5,253.5C 224.833,253.5 225.167,253.5 225.5,253.5C 227.027,253.573 228.027,252.906 228.5,251.5C 230.027,251.573 231.027,250.906 231.5,249.5C 233.027,249.573 234.027,248.906 234.5,247.5C 236.404,247.262 237.738,246.262 238.5,244.5C 241.089,243.581 243.089,241.914 244.5,239.5C 244.5,238.167 245.167,237.5 246.5,237.5C 248.914,236.089 250.581,234.089 251.5,231.5C 251.833,230.5 252.5,229.833 253.5,229.5C 255.262,228.738 256.262,227.404 256.5,225.5C 257.906,225.027 258.573,224.027 258.5,222.5C 259.906,222.027 260.573,221.027 260.5,219.5C 261.906,219.027 262.573,218.027 262.5,216.5C 262.992,214.181 263.992,212.181 265.5,210.5C 266.674,209.486 267.34,208.153 267.5,206.5C 267.733,203.458 268.733,200.792 270.5,198.5C 271.768,196.095 272.435,193.428 272.5,190.5C 272.5,189.833 272.5,189.167 272.5,188.5C 274.25,184.817 274.917,180.817 274.5,176.5C 274.5,170.833 274.5,165.167 274.5,159.5C 274.5,156.833 274.5,154.167 274.5,151.5 Z"/></g>
<g><path style="opacity:0.424" fill="#8e9899" d="M 92.5,217.5 C 93.9063,217.973 94.573,218.973 94.5,220.5C 93.0937,220.027 92.427,219.027 92.5,217.5 Z"/></g>
<g><path style="opacity:0.655" fill="#9fa2a5" d="M 146.5,217.5 C 146.5,219.5 146.5,221.5 146.5,223.5C 144.269,221.642 144.269,219.642 146.5,217.5 Z"/></g>
<g><path style="opacity:0.051" fill="#ccd1d5" d="M 216.5,218.5 C 218.479,220.168 220.812,220.834 223.5,220.5C 221.712,221.622 219.712,221.789 217.5,221C 216.748,220.329 216.414,219.496 216.5,218.5 Z"/></g>
<g><path style="opacity:0.275" fill="#b4b7bb" d="M 260.5,219.5 C 260.573,221.027 259.906,222.027 258.5,222.5C 258.427,220.973 259.094,219.973 260.5,219.5 Z"/></g>
<g><path style="opacity:0.986" fill="#6e7275" d="M 271.5,220.5 C 271.25,222.674 270.25,224.341 268.5,225.5C 268.241,223.011 269.241,221.344 271.5,220.5 Z"/></g>
<g><path style="opacity:0.447" fill="#979a9d" d="M 94.5,220.5 C 95.9063,220.973 96.573,221.973 96.5,223.5C 95.0937,223.027 94.427,222.027 94.5,220.5 Z"/></g>
<g><path style="opacity:1" fill="#1a1f24" d="M 137.5,207.5 C 137.427,209.027 138.094,210.027 139.5,210.5C 140.222,210.918 140.722,211.584 141,212.5C 142.332,217.628 141.165,221.961 137.5,225.5C 136.5,225.833 135.833,226.5 135.5,227.5C 134.22,228.931 132.553,229.598 130.5,229.5C 127.482,229.296 124.482,228.963 121.5,228.5C 120.833,228.5 120.5,228.167 120.5,227.5C 120.027,226.094 119.027,225.427 117.5,225.5C 115.136,223.052 114.136,220.052 114.5,216.5C 114.316,213.795 114.983,211.462 116.5,209.5C 118.167,208.5 119.5,207.167 120.5,205.5C 126.665,201.435 132.332,202.101 137.5,207.5 Z M 130.5,220.5 C 127.812,220.834 125.479,220.168 123.5,218.5C 123.164,214 125.164,212.167 129.5,213C 132.945,215.148 133.279,217.648 130.5,220.5 Z"/></g>
<g><path style="opacity:0.075" fill="#caccce" d="M 123.5,218.5 C 125.479,220.168 127.812,220.834 130.5,220.5C 128.712,221.622 126.712,221.789 124.5,221C 123.748,220.329 123.414,219.496 123.5,218.5 Z"/></g>
<g><path style="opacity:0.016" fill="#c9cccc" d="M 209.5,223.5 C 210.5,223.833 211.167,224.5 211.5,225.5C 210.167,225.5 209.5,224.833 209.5,223.5 Z"/></g>
<g><path style="opacity:0.353" fill="#a9b3b4" d="M 258.5,222.5 C 258.573,224.027 257.906,225.027 256.5,225.5C 256.427,223.973 257.094,222.973 258.5,222.5 Z"/></g>
<g><path style="opacity:0.514" fill="#9fa3a5" d="M 96.5,223.5 C 98.2624,224.262 99.2624,225.596 99.5,227.5C 97.7376,226.738 96.7376,225.404 96.5,223.5 Z"/></g>
<g><path style="opacity:0.678" fill="#94969c" d="M 117.5,225.5 C 119.027,225.427 120.027,226.094 120.5,227.5C 118.973,227.573 117.973,226.906 117.5,225.5 Z"/></g>
<g><path style="opacity:0.004" fill="#ced1d3" d="M 137.5,225.5 C 137.5,226.833 136.833,227.5 135.5,227.5C 135.833,226.5 136.5,225.833 137.5,225.5 Z"/></g>
<g><path style="opacity:0.569" fill="#91959a" d="M 256.5,225.5 C 256.262,227.404 255.262,228.738 253.5,229.5C 253.738,227.596 254.738,226.262 256.5,225.5 Z"/></g>
<g><path style="opacity:0.733" fill="#8b8f95" d="M 99.5,227.5 C 100.906,227.973 101.573,228.973 101.5,230.5C 100.094,230.027 99.427,229.027 99.5,227.5 Z"/></g>
<g><path style="opacity:0.022" fill="#d8d9db" d="M 121.5,228.5 C 124.482,228.963 127.482,229.296 130.5,229.5C 127.373,230.815 124.373,230.482 121.5,228.5 Z"/></g>
<g><path style="opacity:0.022" fill="#e6e7e8" d="M 226.5,228.5 C 225.054,229.94 223.221,230.607 221,230.5C 219.615,230.486 218.449,230.152 217.5,229.5C 220.545,229.492 223.545,229.159 226.5,228.5 Z"/></g>
<g><path style="opacity:0.004" fill="#ccced2" d="M 101.5,230.5 C 102.833,230.5 103.5,231.167 103.5,232.5C 102.5,232.167 101.833,231.5 101.5,230.5 Z"/></g>
<g><path style="opacity:0.467" fill="#a0a4a6" d="M 251.5,231.5 C 250.581,234.089 248.914,236.089 246.5,237.5C 247.419,234.911 249.086,232.911 251.5,231.5 Z"/></g>
<g><path style="opacity:1" fill="#262a2f" d="M 226.5,236.5 C 227.15,238.435 227.483,240.435 227.5,242.5C 227.389,243.117 227.056,243.617 226.5,244C 193.5,244.667 160.5,244.667 127.5,244C 126.944,243.617 126.611,243.117 126.5,242.5C 126.253,240.142 126.919,238.142 128.5,236.5C 161.069,235.172 193.736,235.172 226.5,236.5 Z"/></g>
<g><path style="opacity:0.02" fill="#cccfd1" d="M 260.5,236.5 C 260.262,238.404 259.262,239.738 257.5,240.5C 257.557,239.391 257.89,238.391 258.5,237.5C 259.167,237.167 259.833,236.833 260.5,236.5 Z"/></g>
<g><path style="opacity:0.082" fill="#cfd0d1" d="M 128.5,236.5 C 126.919,238.142 126.253,240.142 126.5,242.5C 125.387,241.054 125.22,239.387 126,237.5C 126.671,236.748 127.504,236.414 128.5,236.5 Z"/></g>
<g><path style="opacity:0.173" fill="#c4c7c8" d="M 226.5,236.5 C 227.947,237.134 228.613,238.301 228.5,240C 228.472,241.07 228.139,241.903 227.5,242.5C 227.483,240.435 227.15,238.435 226.5,236.5 Z"/></g>
<g><path style="opacity:0.498" fill="#b1b3b6" d="M 98.5,242.5 C 101.089,243.419 103.089,245.086 104.5,247.5C 101.911,246.581 99.9108,244.914 98.5,242.5 Z"/></g>
<g><path style="opacity:0.039" fill="#b4bec1" d="M 113.5,242.5 C 115.404,242.738 116.738,243.738 117.5,245.5C 115.596,245.262 114.262,244.262 113.5,242.5 Z"/></g>
<g><path style="opacity:0.729" fill="#777d7f" d="M 244.5,239.5 C 243.089,241.914 241.089,243.581 238.5,244.5C 239.911,242.086 241.911,240.419 244.5,239.5 Z"/></g>
<g><path style="opacity:1" fill="#3b4044" d="M 258.5,237.5 C 257.89,238.391 257.557,239.391 257.5,240.5C 255.167,243.5 252.5,246.167 249.5,248.5C 249.579,247.07 249.246,245.736 248.5,244.5C 251.207,243.096 253.874,241.762 256.5,240.5C 256.285,238.821 256.952,237.821 258.5,237.5 Z"/></g>
<g><path style="opacity:0.004" fill="#d5dbdc" d="M 117.5,245.5 C 119.027,245.427 120.027,246.094 120.5,247.5C 118.973,247.573 117.973,246.906 117.5,245.5 Z"/></g>
<g><path style="opacity:0.608" fill="#8e9596" d="M 238.5,244.5 C 237.738,246.262 236.404,247.262 234.5,247.5C 235.262,245.738 236.596,244.738 238.5,244.5 Z"/></g>
<g><path style="opacity:0.71" fill="#8d9698" d="M 234.5,247.5 C 234.027,248.906 233.027,249.573 231.5,249.5C 231.973,248.094 232.973,247.427 234.5,247.5 Z"/></g>
<g><path style="opacity:0.901" fill="#55585c" d="M 200.5,257.5 C 199.833,257.5 199.167,257.5 198.5,257.5C 198.703,255.956 199.37,254.622 200.5,253.5C 200.291,252.914 199.957,252.414 199.5,252C 184.504,251.5 169.504,251.333 154.5,251.5C 154.611,250.883 154.944,250.383 155.5,250C 170.167,249.333 184.833,249.333 199.5,250C 201.646,252.357 201.979,254.857 200.5,257.5 Z"/></g>
<g><path style="opacity:0.745" fill="#888b8f" d="M 231.5,249.5 C 231.027,250.906 230.027,251.573 228.5,251.5C 228.973,250.094 229.973,249.427 231.5,249.5 Z"/></g>
<g><path style="opacity:0.999" fill="#010910" d="M 154.5,251.5 C 169.504,251.333 184.504,251.5 199.5,252C 199.957,252.414 200.291,252.914 200.5,253.5C 199.37,254.622 198.703,255.956 198.5,257.5C 183.452,257.801 168.452,257.468 153.5,256.5C 153.366,254.708 153.699,253.042 154.5,251.5 Z"/></g>
<g><path style="opacity:0.992" fill="#73767b" d="M 249.5,248.5 C 247.2,250.984 244.533,252.984 241.5,254.5C 242.234,253.292 242.567,251.959 242.5,250.5C 245.108,250.6 247.442,249.933 249.5,248.5 Z"/></g>
<g><path style="opacity:0.384" fill="#a5adaf" d="M 108.5,251.5 C 110.027,251.427 111.027,252.094 111.5,253.5C 109.973,253.573 108.973,252.906 108.5,251.5 Z"/></g>
<g><path style="opacity:0.988" fill="#777c80" d="M 124.5,250.5 C 126.674,250.75 128.341,251.75 129.5,253.5C 127.011,253.759 125.344,252.759 124.5,250.5 Z"/></g>
<g><path style="opacity:0.765" fill="#777f82" d="M 228.5,251.5 C 228.027,252.906 227.027,253.573 225.5,253.5C 225.973,252.094 226.973,251.427 228.5,251.5 Z"/></g>
<g><path style="opacity:0.569" fill="#909499" d="M 111.5,253.5 C 111.833,253.5 112.167,253.5 112.5,253.5C 113.833,254.167 114.833,255.167 115.5,256.5C 113.596,256.262 112.262,255.262 111.5,253.5 Z"/></g>
<g><path style="opacity:0.361" fill="#acb3b1" d="M 154.5,251.5 C 153.699,253.042 153.366,254.708 153.5,256.5C 152.861,255.903 152.528,255.07 152.5,254C 152.684,252.624 153.351,251.791 154.5,251.5 Z"/></g>
<g><path style="opacity:0.588" fill="#8a8f92" d="M 224.5,253.5 C 222.566,256.058 219.899,257.391 216.5,257.5C 218.897,255.805 221.563,254.472 224.5,253.5 Z"/></g>
<g><path style="opacity:0.996" fill="#6a7275" d="M 239.5,256.5 C 238.101,257.89 236.434,258.89 234.5,259.5C 235.09,258.234 235.59,256.901 236,255.5C 237.011,256.337 238.178,256.67 239.5,256.5 Z"/></g>
<g><path style="opacity:0.322" fill="#a9acaf" d="M 115.5,256.5 C 117.027,256.427 118.027,257.094 118.5,258.5C 116.973,258.573 115.973,257.906 115.5,256.5 Z"/></g>
<g><path style="opacity:0.561" fill="#72777b" d="M 153.5,256.5 C 168.452,257.468 183.452,257.801 198.5,257.5C 199.167,257.5 199.833,257.5 200.5,257.5C 185.339,258.661 170.006,258.828 154.5,258C 153.944,257.617 153.611,257.117 153.5,256.5 Z"/></g>
<g><path style="opacity:0.306" fill="#aeb0b8" d="M 118.5,258.5 C 120.027,258.427 121.027,259.094 121.5,260.5C 119.973,260.573 118.973,259.906 118.5,258.5 Z"/></g>
<g><path style="opacity:0.431" fill="#9ea1a5" d="M 139.5,258.5 C 141.553,258.402 143.22,259.069 144.5,260.5C 142.447,260.598 140.78,259.931 139.5,258.5 Z"/></g>
<g><path style="opacity:0.816" fill="#84898b" d="M 214.5,258.5 C 213.365,260.213 211.698,260.88 209.5,260.5C 210.93,259.463 212.597,258.796 214.5,258.5 Z"/></g>
<g><path style="opacity:0.902" fill="#7a7d80" d="M 209.5,260.5 C 207.302,262.397 204.636,263.397 201.5,263.5C 201.167,263.5 200.833,263.5 200.5,263.5C 203.215,261.928 206.215,260.928 209.5,260.5 Z"/></g>
<g><path style="opacity:1" fill="#171c20" d="M 121.5,248.5 C 122.71,248.932 123.71,249.599 124.5,250.5C 125.344,252.759 127.011,253.759 129.5,253.5C 133.151,254.659 136.485,256.326 139.5,258.5C 140.78,259.931 142.447,260.598 144.5,260.5C 145.469,261.309 146.302,262.309 147,263.5C 148.356,262.62 149.856,262.286 151.5,262.5C 167.75,266.086 184.084,266.42 200.5,263.5C 200.833,263.5 201.167,263.5 201.5,263.5C 200.398,265.092 201.065,265.925 203.5,266C 201.975,267.009 200.308,267.509 198.5,267.5C 196.869,271.876 198.536,273.543 203.5,272.5C 202.791,273.404 201.791,273.737 200.5,273.5C 196.236,273.344 192.236,274.011 188.5,275.5C 177.128,276.822 165.794,276.322 154.5,274C 133.17,273.094 111.837,272.261 90.5,271.5C 89.0866,268.843 89.42,266.51 91.5,264.5C 103.505,264.667 115.505,264.5 127.5,264C 126.756,262.961 125.756,262.461 124.5,262.5C 123.29,262.068 122.29,261.401 121.5,260.5C 121.027,259.094 120.027,258.427 118.5,258.5C 118.027,257.094 117.027,256.427 115.5,256.5C 114.833,255.167 113.833,254.167 112.5,253.5C 112.528,251.418 111.861,249.584 110.5,248C 111.766,247.691 112.933,247.191 114,246.5C 115.011,247.337 116.178,247.67 117.5,247.5C 117.351,248.552 117.517,249.552 118,250.5C 119.113,249.695 120.279,249.028 121.5,248.5 Z"/></g>
<g><path style="opacity:1" fill="#77797d" d="M 144.5,260.5 C 147.067,260.721 149.401,261.388 151.5,262.5C 149.856,262.286 148.356,262.62 147,263.5C 146.302,262.309 145.469,261.309 144.5,260.5 Z"/></g>
<g><path style="opacity:0.433" fill="#8f9498" d="M 124.5,262.5 C 125.756,262.461 126.756,262.961 127.5,264C 115.505,264.5 103.505,264.667 91.5,264.5C 102.5,263.833 113.5,263.167 124.5,262.5 Z"/></g>
<g><path style="opacity:1" fill="#020b12" d="M 226.5,264.5 C 238.5,264.5 250.5,264.5 262.5,264.5C 263.167,264.5 263.5,264.833 263.5,265.5C 263.5,267.5 263.5,269.5 263.5,271.5C 246.163,271.667 228.83,271.5 211.5,271C 208.977,270.482 206.977,269.148 205.5,267C 206.167,266.667 206.833,266.333 207.5,266C 212.096,266.086 216.263,264.92 220,262.5C 222.154,263.23 224.321,263.897 226.5,264.5 Z"/></g>
<g><path style="opacity:0.457" fill="#8d9397" d="M 229.5,262.5 C 240.5,263.167 251.5,263.833 262.5,264.5C 250.5,264.5 238.5,264.5 226.5,264.5C 226.973,263.094 227.973,262.427 229.5,262.5 Z"/></g>
<g><path style="opacity:0.706" fill="#8f9496" d="M 263.5,265.5 C 265.994,267.406 265.994,269.406 263.5,271.5C 263.5,269.5 263.5,267.5 263.5,265.5 Z"/></g>
<g><path style="opacity:0.018" fill="#c3c7cc" d="M 200.5,273.5 C 196.733,274.795 192.733,275.461 188.5,275.5C 192.236,274.011 196.236,273.344 200.5,273.5 Z"/></g>
</svg>
