<?xml version="1.0" encoding="UTF-8"?>
<!DOCTYPE svg PUBLIC "-//W3C//DTD SVG 1.1//EN" "http://www.w3.org/Graphics/SVG/1.1/DTD/svg11.dtd">
<svg xmlns="http://www.w3.org/2000/svg" version="1.1" width="350px" height="339px" style="shape-rendering:geometricPrecision; text-rendering:geometricPrecision; image-rendering:optimizeQuality; fill-rule:evenodd; clip-rule:evenodd" xmlns:xlink="http://www.w3.org/1999/xlink">
<g><path style="opacity:1" fill="#191f21" d="M 189.5,68.5 C 190.568,69.4345 191.901,69.7678 193.5,69.5C 193.586,70.4959 193.252,71.3292 192.5,72C 195.544,72.3589 195.878,73.0255 193.5,74C 194.833,74.3333 196.167,74.6667 197.5,75C 194.854,75.4974 192.187,75.6641 189.5,75.5C 180.692,74.2413 172.025,74.2413 163.5,75.5C 161.958,76.3007 160.292,76.634 158.5,76.5C 157.909,75.8485 157.243,75.1818 156.5,74.5C 160.265,74.7049 160.265,73.8716 156.5,72C 157.609,70.187 156.942,69.3537 154.5,69.5C 166.02,67.321 177.686,66.9877 189.5,68.5 Z"/></g>
<g><path style="opacity:0.137" fill="#bbbebf" d="M 189.5,68.5 C 193.458,68.2511 197.124,68.9177 200.5,70.5C 198.097,70.552 195.764,70.2186 193.5,69.5C 191.901,69.7678 190.568,69.4345 189.5,68.5 Z"/></g>
<g><path style="opacity:1" fill="#13191b" d="M 154.5,69.5 C 156.942,69.3537 157.609,70.187 156.5,72C 160.265,73.8716 160.265,74.7049 156.5,74.5C 157.243,75.1818 157.909,75.8485 158.5,76.5C 155.171,76.2153 152.171,76.8819 149.5,78.5C 148.167,78.5 146.833,78.5 145.5,78.5C 143.856,78.7135 142.356,78.3802 141,77.5C 138.699,79.5245 136.866,78.8579 135.5,75.5C 137.38,75.7709 138.713,75.1042 139.5,73.5C 144.334,71.6645 149.334,70.3312 154.5,69.5 Z"/></g>
<g><path style="opacity:0.831" fill="#828687" d="M 139.5,73.5 C 138.713,75.1042 137.38,75.7709 135.5,75.5C 135.167,75.5 134.833,75.5 134.5,75.5C 135.78,74.0687 137.447,73.4021 139.5,73.5 Z"/></g>
<g><path style="opacity:0.22" fill="#a8afb1" d="M 163.5,75.5 C 172.025,74.2413 180.692,74.2413 189.5,75.5C 189.5,75.8333 189.5,76.1667 189.5,76.5C 180.867,75.6228 172.2,75.2895 163.5,75.5 Z"/></g>
<g><path style="opacity:1" fill="#13191c" d="M 193.5,69.5 C 195.764,70.2186 198.097,70.552 200.5,70.5C 203.01,70.9267 205.343,71.5933 207.5,72.5C 207.987,73.4734 208.487,74.4734 209,75.5C 210.618,75.4022 212.118,75.4022 213.5,75.5C 214.791,76.4728 214.791,77.4728 213.5,78.5C 211.257,79.4742 208.924,79.8076 206.5,79.5C 204.565,78.8505 202.565,78.5172 200.5,78.5C 200.167,78.5 199.833,78.5 199.5,78.5C 197.22,76.7773 194.553,76.1107 191.5,76.5C 190.833,76.5 190.167,76.5 189.5,76.5C 189.5,76.1667 189.5,75.8333 189.5,75.5C 192.187,75.6641 194.854,75.4974 197.5,75C 196.167,74.6667 194.833,74.3333 193.5,74C 195.878,73.0255 195.544,72.3589 192.5,72C 193.252,71.3292 193.586,70.4959 193.5,69.5 Z"/></g>
<g><path style="opacity:1" fill="#606466" d="M 207.5,72.5 C 210.486,72.9028 213.152,73.9028 215.5,75.5C 214.833,75.5 214.167,75.5 213.5,75.5C 212.118,75.4022 210.618,75.4022 209,75.5C 208.487,74.4734 207.987,73.4734 207.5,72.5 Z"/></g>
<g><path style="opacity:0.361" fill="#b7babb" d="M 191.5,76.5 C 194.553,76.1107 197.22,76.7773 199.5,78.5C 196.627,78.1977 193.961,77.531 191.5,76.5 Z"/></g>
<g><path style="opacity:0.322" fill="#b6b9ba" d="M 215.5,75.5 C 217.553,75.4021 219.22,76.0687 220.5,77.5C 218.447,77.5979 216.78,76.9313 215.5,75.5 Z"/></g>
<g><path style="opacity:0.004" fill="#cbd1d2" d="M 158.5,76.5 C 155.727,77.6572 152.727,78.3239 149.5,78.5C 152.171,76.8819 155.171,76.2153 158.5,76.5 Z"/></g>
<g><path style="opacity:1" fill="#1c2224" d="M 134.5,75.5 C 134.833,75.5 135.167,75.5 135.5,75.5C 136.866,78.8579 138.699,79.5245 141,77.5C 142.356,78.3802 143.856,78.7135 145.5,78.5C 144.5,79.1667 143.5,79.8333 142.5,80.5C 140.429,81.9451 138.096,82.9451 135.5,83.5C 132.68,83.087 130.68,84.087 129.5,86.5C 129.158,87.3382 128.492,87.6716 127.5,87.5C 127.019,84.6027 125.352,82.9361 122.5,82.5C 122.5,82.1667 122.5,81.8333 122.5,81.5C 126.182,78.9922 130.182,76.9922 134.5,75.5 Z"/></g>
<g><path style="opacity:0.378" fill="#a4a7a9" d="M 164.5,79.5 C 167.984,78.8346 171.651,78.5013 175.5,78.5C 181.086,78.3182 186.42,78.9848 191.5,80.5C 182.518,79.7817 173.518,79.4484 164.5,79.5 Z"/></g>
<g><path style="opacity:0.651" fill="#abadae" d="M 200.5,78.5 C 202.565,78.5172 204.565,78.8505 206.5,79.5C 206.5,79.8333 206.5,80.1667 206.5,80.5C 204.214,80.405 202.214,79.7384 200.5,78.5 Z"/></g>
<g><path style="opacity:0.012" fill="#d2d4d3" d="M 145.5,78.5 C 146.833,78.5 148.167,78.5 149.5,78.5C 147.485,79.9238 145.152,80.5905 142.5,80.5C 143.5,79.8333 144.5,79.1667 145.5,78.5 Z"/></g>
<g><path style="opacity:1" fill="#0a1317" d="M 164.5,79.5 C 173.518,79.4484 182.518,79.7817 191.5,80.5C 191.082,81.2216 190.416,81.7216 189.5,82C 191.595,82.5556 191.762,83.0556 190,83.5C 188.403,82.1153 186.57,81.4486 184.5,81.5C 184.67,82.8221 184.337,83.9887 183.5,85C 177.5,85.3333 171.5,85.6667 165.5,86C 163.942,86.21 162.609,86.71 161.5,87.5C 160.833,87.5 160.167,87.5 159.5,87.5C 157.05,87.702 154.717,87.3686 152.5,86.5C 152.389,85.8826 152.056,85.3826 151.5,85C 152.833,84.6667 154.167,84.3333 155.5,84C 153.19,83.5034 150.857,83.3367 148.5,83.5C 148.5,83.1667 148.5,82.8333 148.5,82.5C 148.833,82.5 149.167,82.5 149.5,82.5C 152.152,82.5905 154.485,81.9238 156.5,80.5C 159.127,79.9084 161.794,79.5751 164.5,79.5 Z"/></g>
<g><path style="opacity:0.647" fill="#a4a8a9" d="M 156.5,80.5 C 154.485,81.9238 152.152,82.5905 149.5,82.5C 151.515,81.0762 153.848,80.4095 156.5,80.5 Z"/></g>
<g><path style="opacity:1" fill="#1e2427" d="M 213.5,75.5 C 214.167,75.5 214.833,75.5 215.5,75.5C 216.78,76.9313 218.447,77.5979 220.5,77.5C 226.689,80.0394 232.356,83.3727 237.5,87.5C 237.5,87.8333 237.5,88.1667 237.5,88.5C 237.389,89.1174 237.056,89.6174 236.5,90C 239.018,91.8101 239.018,93.6434 236.5,95.5C 236.167,95.5 235.833,95.5 235.5,95.5C 234.833,95.5 234.5,95.1667 234.5,94.5C 234.027,93.0937 233.027,92.427 231.5,92.5C 231.027,91.0937 230.027,90.427 228.5,90.5C 227.508,90.6716 226.842,90.3382 226.5,89.5C 226.027,88.0937 225.027,87.427 223.5,87.5C 223.167,87.5 222.833,87.5 222.5,87.5C 222.027,86.0937 221.027,85.427 219.5,85.5C 215.062,84.1147 210.729,82.448 206.5,80.5C 206.5,80.1667 206.5,79.8333 206.5,79.5C 208.924,79.8076 211.257,79.4742 213.5,78.5C 214.791,77.4728 214.791,76.4728 213.5,75.5 Z"/></g>
<g><path style="opacity:0.725" fill="#8a9090" d="M 122.5,81.5 C 122.5,81.8333 122.5,82.1667 122.5,82.5C 121.609,83.1098 120.609,83.4431 119.5,83.5C 119.973,82.0937 120.973,81.427 122.5,81.5 Z"/></g>
<g><path style="opacity:0.98" fill="#7f8382" d="M 135.5,83.5 C 133.819,85.0075 131.819,86.0075 129.5,86.5C 130.68,84.087 132.68,83.087 135.5,83.5 Z"/></g>
<g><path style="opacity:0.875" fill="#797e81" d="M 148.5,82.5 C 148.5,82.8333 148.5,83.1667 148.5,83.5C 146.228,84.3186 143.894,84.9853 141.5,85.5C 143.395,83.7587 145.728,82.7587 148.5,82.5 Z"/></g>
<g><path style="opacity:1" fill="#2b3135" d="M 191.5,80.5 C 199.802,81.0472 207.468,83.3806 214.5,87.5C 216.181,89.0075 218.181,90.0075 220.5,90.5C 221.492,90.3284 222.158,90.6618 222.5,91.5C 222.611,92.1174 222.944,92.6174 223.5,93C 220.527,93.4912 218.693,94.6578 218,96.5C 216.779,95.7282 215.779,94.7282 215,93.5C 214.329,94.2524 213.496,94.5858 212.5,94.5C 196.088,87.9827 179.088,85.6494 161.5,87.5C 162.609,86.71 163.942,86.21 165.5,86C 171.5,85.6667 177.5,85.3333 183.5,85C 184.337,83.9887 184.67,82.8221 184.5,81.5C 186.57,81.4486 188.403,82.1153 190,83.5C 191.762,83.0556 191.595,82.5556 189.5,82C 190.416,81.7216 191.082,81.2216 191.5,80.5 Z"/></g>
<g><path style="opacity:1" fill="#1c2226" d="M 148.5,83.5 C 150.857,83.3367 153.19,83.5034 155.5,84C 154.167,84.3333 152.833,84.6667 151.5,85C 152.056,85.3826 152.389,85.8826 152.5,86.5C 152.443,87.609 152.11,88.609 151.5,89.5C 145.172,92.1654 138.838,94.8321 132.5,97.5C 130.973,97.427 129.973,98.0937 129.5,99.5C 127.833,99.5 126.167,99.5 124.5,99.5C 123.624,99.6309 122.957,99.2975 122.5,98.5C 123.641,97.5745 123.641,96.7412 122.5,96C 124.598,96.9845 126.598,96.6511 128.5,95C 127.549,94.2825 127.383,93.4491 128,92.5C 129.729,92.0257 130.895,91.0257 131.5,89.5C 134.34,87.0849 137.673,85.7516 141.5,85.5C 143.894,84.9853 146.228,84.3186 148.5,83.5 Z"/></g>
<g><path style="opacity:0.18" fill="#c3c5c5" d="M 219.5,85.5 C 221.027,85.427 222.027,86.0937 222.5,87.5C 220.973,87.573 219.973,86.9063 219.5,85.5 Z"/></g>
<g><path style="opacity:1" fill="#141b1d" d="M 122.5,82.5 C 125.352,82.9361 127.019,84.6027 127.5,87.5C 126.486,88.6737 125.153,89.3404 123.5,89.5C 122.85,89.1961 122.183,88.8627 121.5,88.5C 119.821,90.1045 117.821,90.7711 115.5,90.5C 115.5,92.1667 115.5,93.8333 115.5,95.5C 113.525,97.137 111.525,98.8036 109.5,100.5C 107.596,100.738 106.262,101.738 105.5,103.5C 103.833,104.833 102.167,106.167 100.5,107.5C 99.2502,107.577 98.4169,108.244 98,109.5C 96.3375,107.842 95.5041,105.842 95.5,103.5C 96.1667,102.167 97.1667,101.167 98.5,100.5C 99.8333,99.8333 100.833,98.8333 101.5,97.5C 101.5,96.8333 101.833,96.5 102.5,96.5C 105.427,95.2427 107.761,93.2427 109.5,90.5C 109.5,89.8333 109.833,89.5 110.5,89.5C 112.027,89.573 113.027,88.9063 113.5,87.5C 115.147,85.6736 117.147,84.3403 119.5,83.5C 120.609,83.4431 121.609,83.1098 122.5,82.5 Z"/></g>
<g><path style="opacity:1" fill="#64696b" d="M 152.5,86.5 C 154.717,87.3686 157.05,87.702 159.5,87.5C 157.162,89.0395 154.495,89.7062 151.5,89.5C 152.11,88.609 152.443,87.609 152.5,86.5 Z"/></g>
<g><path style="opacity:0.004" fill="#d3d7d7" d="M 237.5,88.5 C 237.5,88.1667 237.5,87.8333 237.5,87.5C 239.027,87.427 240.027,88.0937 240.5,89.5C 239.391,89.4431 238.391,89.1098 237.5,88.5 Z"/></g>
<g><path style="opacity:0.682" fill="#888f92" d="M 113.5,87.5 C 113.027,88.9063 112.027,89.573 110.5,89.5C 110.973,88.0937 111.973,87.427 113.5,87.5 Z"/></g>
<g><path style="opacity:0.212" fill="#b7bac0" d="M 214.5,87.5 C 217.089,87.461 219.089,88.461 220.5,90.5C 218.181,90.0075 216.181,89.0075 214.5,87.5 Z"/></g>
<g><path style="opacity:0.341" fill="#9fa0a2" d="M 223.5,87.5 C 225.027,87.427 226.027,88.0937 226.5,89.5C 224.973,89.573 223.973,88.9063 223.5,87.5 Z"/></g>
<g><path style="opacity:0.996" fill="#4a4f51" d="M 123.5,89.5 C 121.14,91.8532 118.473,93.8532 115.5,95.5C 115.5,93.8333 115.5,92.1667 115.5,90.5C 117.821,90.7711 119.821,90.1045 121.5,88.5C 122.183,88.8627 122.85,89.1961 123.5,89.5 Z"/></g>
<g><path style="opacity:0.337" fill="#a3a5ad" d="M 228.5,90.5 C 230.027,90.427 231.027,91.0937 231.5,92.5C 229.973,92.573 228.973,91.9063 228.5,90.5 Z"/></g>
<g><path style="opacity:0.424" fill="#9ca1a4" d="M 240.5,89.5 C 242.19,89.8564 243.19,90.8564 243.5,92.5C 241.81,92.1436 240.81,91.1436 240.5,89.5 Z"/></g>
<g><path style="opacity:0.408" fill="#9a9da0" d="M 231.5,92.5 C 233.027,92.427 234.027,93.0937 234.5,94.5C 232.973,94.573 231.973,93.9063 231.5,92.5 Z"/></g>
<g><path style="opacity:0.867" fill="#636b6d" d="M 109.5,90.5 C 107.761,93.2427 105.427,95.2427 102.5,96.5C 104.239,93.7573 106.573,91.7573 109.5,90.5 Z"/></g>
<g><path style="opacity:1" fill="#444c4d" d="M 222.5,91.5 C 224.674,91.7497 226.341,92.7497 227.5,94.5C 227.5,94.8333 227.5,95.1667 227.5,95.5C 222.843,93.5256 220.843,94.8589 221.5,99.5C 218.008,98.5903 215.008,96.9236 212.5,94.5C 213.496,94.5858 214.329,94.2524 215,93.5C 215.779,94.7282 216.779,95.7282 218,96.5C 218.693,94.6578 220.527,93.4912 223.5,93C 222.944,92.6174 222.611,92.1174 222.5,91.5 Z"/></g>
<g><path style="opacity:0.369" fill="#a1a3a7" d="M 177.5,96.5 C 175.435,96.5172 173.435,96.8505 171.5,97.5C 172.134,96.0532 173.301,95.3866 175,95.5C 176.07,95.528 176.903,95.8614 177.5,96.5 Z"/></g>
<g><path style="opacity:0.122" fill="#c4c6c9" d="M 227.5,95.5 C 227.5,95.1667 227.5,94.8333 227.5,94.5C 229.027,94.427 230.027,95.0937 230.5,96.5C 229.391,96.4431 228.391,96.1098 227.5,95.5 Z"/></g>
<g><path style="opacity:0.624" fill="#a9acac" d="M 235.5,95.5 C 235.833,95.5 236.167,95.5 236.5,95.5C 237.833,96.1667 238.833,97.1667 239.5,98.5C 237.596,98.2624 236.262,97.2624 235.5,95.5 Z"/></g>
<g><path style="opacity:0.012" fill="#cecfd1" d="M 177.5,96.5 C 179.027,96.427 180.027,97.0937 180.5,98.5C 178.973,98.573 177.973,97.9063 177.5,96.5 Z"/></g>
<g><path style="opacity:0.082" fill="#d2d3d4" d="M 230.5,96.5 C 232.027,96.427 233.027,97.0937 233.5,98.5C 231.973,98.573 230.973,97.9063 230.5,96.5 Z"/></g>
<g><path style="opacity:0.02" fill="#d6d9db" d="M 132.5,97.5 C 132.027,98.9063 131.027,99.573 129.5,99.5C 129.973,98.0937 130.973,97.427 132.5,97.5 Z"/></g>
<g><path style="opacity:0.784" fill="#868b8d" d="M 171.5,97.5 C 171.389,98.1174 171.056,98.6174 170.5,99C 168.527,99.4955 166.527,99.6621 164.5,99.5C 166.657,98.5933 168.99,97.9267 171.5,97.5 Z"/></g>
<g><path style="opacity:0.824" fill="#7b8383" d="M 239.5,98.5 C 241.404,98.7376 242.738,99.7376 243.5,101.5C 241.596,101.262 240.262,100.262 239.5,98.5 Z"/></g>
<g><path style="opacity:0.357" fill="#babdbf" d="M 101.5,97.5 C 100.833,98.8333 99.8333,99.8333 98.5,100.5C 98.5,98.5 99.5,97.5 101.5,97.5 Z"/></g>
<g><path style="opacity:1" fill="#6c7074" d="M 124.5,99.5 C 126.167,99.5 127.833,99.5 129.5,99.5C 128.101,100.89 126.434,101.89 124.5,102.5C 125.833,101.5 125.833,100.5 124.5,99.5 Z"/></g>
<g><path style="opacity:1" fill="#091215" d="M 227.5,95.5 C 228.391,96.1098 229.391,96.4431 230.5,96.5C 230.973,97.9063 231.973,98.573 233.5,98.5C 231.773,100.567 229.773,102.233 227.5,103.5C 227.027,102.094 226.027,101.427 224.5,101.5C 224.027,100.094 223.027,99.427 221.5,99.5C 220.843,94.8589 222.843,93.5256 227.5,95.5 Z"/></g>
<g><path style="opacity:0.008" fill="#c7cace" d="M 234.5,99.5 C 236.404,99.7376 237.738,100.738 238.5,102.5C 236.596,102.262 235.262,101.262 234.5,99.5 Z"/></g>
<g><path style="opacity:0.447" fill="#8b9090" d="M 221.5,99.5 C 223.027,99.427 224.027,100.094 224.5,101.5C 222.973,101.573 221.973,100.906 221.5,99.5 Z"/></g>
<g><path style="opacity:0.016" fill="#d1d3d3" d="M 109.5,100.5 C 108.738,102.262 107.404,103.262 105.5,103.5C 106.262,101.738 107.596,100.738 109.5,100.5 Z"/></g>
<g><path style="opacity:1" fill="#3a4043" d="M 181.5,98.5 C 186.422,98.8704 191.089,99.8704 195.5,101.5C 196.78,102.931 198.447,103.598 200.5,103.5C 200.5,104.833 200.5,106.167 200.5,107.5C 200.582,109.252 199.749,110.252 198,110.5C 192.569,108.847 187.069,107.514 181.5,106.5C 180.833,112.654 180.167,118.654 179.5,124.5C 179.5,118.167 179.5,111.833 179.5,105.5C 180.833,105.5 182.167,105.5 183.5,105.5C 183.714,103.856 183.38,102.356 182.5,101C 183.167,100.667 183.833,100.333 184.5,100C 183.263,99.7679 182.263,99.2679 181.5,98.5 Z"/></g>
<g><path style="opacity:1" fill="#242a2f" d="M 233.5,98.5 C 234.167,98.5 234.5,98.8333 234.5,99.5C 235.262,101.262 236.596,102.262 238.5,102.5C 240.341,103.402 241.674,104.736 242.5,106.5C 240.332,105.821 238.332,104.821 236.5,103.5C 233.937,103.737 233.937,104.237 236.5,105C 235.833,105.333 235.167,105.667 234.5,106C 235.598,106.77 235.598,107.603 234.5,108.5C 234.167,108.5 233.833,108.5 233.5,108.5C 231.091,107.299 229.091,105.633 227.5,103.5C 229.773,102.233 231.773,100.567 233.5,98.5 Z"/></g>
<g><path style="opacity:1" fill="#192023" d="M 237.5,88.5 C 238.391,89.1098 239.391,89.4431 240.5,89.5C 240.81,91.1436 241.81,92.1436 243.5,92.5C 250.167,96.5 255.5,101.833 259.5,108.5C 256.996,108.19 254.829,106.856 253,104.5C 252.5,104.667 252,104.833 251.5,105C 252.09,106.509 252.756,108.009 253.5,109.5C 254.086,109.291 254.586,108.957 255,108.5C 255.81,110.306 256.976,111.806 258.5,113C 258.265,113.873 257.931,114.707 257.5,115.5C 258.167,115.833 258.833,116.167 259.5,116.5C 259.553,117.847 259.553,119.18 259.5,120.5C 257.674,118.853 256.34,116.853 255.5,114.5C 255.167,113.5 254.5,112.833 253.5,112.5C 251.359,110.878 249.692,108.878 248.5,106.5C 247.167,104.5 245.5,102.833 243.5,101.5C 242.738,99.7376 241.404,98.7376 239.5,98.5C 238.833,97.1667 237.833,96.1667 236.5,95.5C 239.018,93.6434 239.018,91.8101 236.5,90C 237.056,89.6174 237.389,89.1174 237.5,88.5 Z"/></g>
<g><path style="opacity:0.741" fill="#7b8386" d="M 116.5,99.5 C 115.089,101.914 113.089,103.581 110.5,104.5C 111.911,102.086 113.911,100.419 116.5,99.5 Z"/></g>
<g><path style="opacity:0.486" fill="#8f9292" d="M 224.5,101.5 C 226.027,101.427 227.027,102.094 227.5,103.5C 225.973,103.573 224.973,102.906 224.5,101.5 Z"/></g>
<g><path style="opacity:0.047" fill="#bdc0c1" d="M 243.5,101.5 C 245.5,102.833 247.167,104.5 248.5,106.5C 245.833,105.833 244.167,104.167 243.5,101.5 Z"/></g>
<g><path style="opacity:0.4" fill="#9ea2a2" d="M 154.5,101.5 C 153.22,102.931 151.553,103.598 149.5,103.5C 149.5,104.5 149.5,105.5 149.5,106.5C 148.566,105.432 148.232,104.099 148.5,102.5C 150.5,102.167 152.5,101.833 154.5,101.5 Z"/></g>
<g><path style="opacity:0.796" fill="#919698" d="M 195.5,101.5 C 197.827,101.665 199.993,102.331 202,103.5C 202.348,105.14 201.848,106.473 200.5,107.5C 200.5,106.167 200.5,104.833 200.5,103.5C 198.447,103.598 196.78,102.931 195.5,101.5 Z"/></g>
<g><path style="opacity:0.006" fill="#dcdedf" d="M 108.5,106.5 C 108.167,107.5 107.5,108.167 106.5,108.5C 106.131,106.007 106.797,105.34 108.5,106.5 Z"/></g>
<g><path style="opacity:0.008" fill="#e6e8e9" d="M 122.5,104.5 C 122.027,105.906 121.027,106.573 119.5,106.5C 119.973,105.094 120.973,104.427 122.5,104.5 Z"/></g>
<g><path style="opacity:0.655" fill="#92989b" d="M 93.5,105.5 C 93.573,107.027 92.9063,108.027 91.5,108.5C 91.427,106.973 92.0937,105.973 93.5,105.5 Z"/></g>
<g><path style="opacity:0.025" fill="#f5f6f6" d="M 168.5,106.5 C 168.56,105.957 168.893,105.624 169.5,105.5C 170.496,111.463 170.829,117.463 170.5,123.5C 169.833,117.833 169.167,112.167 168.5,106.5 Z"/></g>
<g><path style="opacity:0.012" fill="#d6d8d9" d="M 242.5,106.5 C 245.167,107.167 246.833,108.833 247.5,111.5C 245.5,110.167 243.833,108.5 242.5,106.5 Z"/></g>
<g><path style="opacity:0.051" fill="#c9cbcb" d="M 105.5,103.5 C 104.581,106.089 102.914,108.089 100.5,109.5C 100.5,108.833 100.5,108.167 100.5,107.5C 102.167,106.167 103.833,104.833 105.5,103.5 Z"/></g>
<g><path style="opacity:0.733" fill="#a3a7a9" d="M 233.5,108.5 C 233.833,108.5 234.167,108.5 234.5,108.5C 238.566,111.563 241.899,115.229 244.5,119.5C 240.5,116.167 236.833,112.5 233.5,108.5 Z"/></g>
<g><path style="opacity:0.933" fill="#6f7275" d="M 134.5,110.5 C 132.167,110.5 129.833,110.5 127.5,110.5C 129.833,107.833 132.167,107.833 134.5,110.5 Z"/></g>
<g><path style="opacity:0.027" fill="#d5d6d7" d="M 150.5,108.5 C 151.391,109.11 152.391,109.443 153.5,109.5C 152.053,110.885 151.053,110.552 150.5,108.5 Z"/></g>
<g><path style="opacity:1" fill="#161c1e" d="M 177.5,96.5 C 177.973,97.9063 178.973,98.573 180.5,98.5C 180.833,98.5 181.167,98.5 181.5,98.5C 182.263,99.2679 183.263,99.7679 184.5,100C 183.833,100.333 183.167,100.667 182.5,101C 183.38,102.356 183.714,103.856 183.5,105.5C 182.167,105.5 180.833,105.5 179.5,105.5C 179.5,111.833 179.5,118.167 179.5,124.5C 179.167,125.5 178.5,126.167 177.5,126.5C 175.435,126.483 173.435,126.15 171.5,125.5C 170.662,125.158 170.328,124.492 170.5,123.5C 170.829,117.463 170.496,111.463 169.5,105.5C 168.893,105.624 168.56,105.957 168.5,106.5C 163.527,107.628 158.527,108.628 153.5,109.5C 152.391,109.443 151.391,109.11 150.5,108.5C 149.662,108.158 149.328,107.492 149.5,106.5C 149.5,105.5 149.5,104.5 149.5,103.5C 151.553,103.598 153.22,102.931 154.5,101.5C 157.544,99.9886 160.878,99.322 164.5,99.5C 166.527,99.6621 168.527,99.4955 170.5,99C 171.056,98.6174 171.389,98.1174 171.5,97.5C 173.435,96.8505 175.435,96.5172 177.5,96.5 Z"/></g>
<g><path style="opacity:0.02" fill="#caccce" d="M 221.5,109.5 C 222.833,109.5 223.5,110.167 223.5,111.5C 222.5,111.167 221.833,110.5 221.5,109.5 Z"/></g>
<g><path style="opacity:0.929" fill="#697371" d="M 259.5,108.5 C 261.587,109.585 262.92,111.251 263.5,113.5C 261.413,112.415 260.08,110.749 259.5,108.5 Z"/></g>
<g><path style="opacity:0.239" fill="#cbcfd1" d="M 106.5,108.5 C 105.833,109.833 104.833,110.833 103.5,111.5C 103.5,109.5 104.5,108.5 106.5,108.5 Z"/></g>
<g><path style="opacity:1" fill="#171e1f" d="M 131.5,89.5 C 130.895,91.0257 129.729,92.0257 128,92.5C 127.383,93.4491 127.549,94.2825 128.5,95C 126.598,96.6511 124.598,96.9845 122.5,96C 123.641,96.7412 123.641,97.5745 122.5,98.5C 122.957,99.2975 123.624,99.6309 124.5,99.5C 125.833,100.5 125.833,101.5 124.5,102.5C 124.167,103.5 123.5,104.167 122.5,104.5C 120.973,104.427 119.973,105.094 119.5,106.5C 118.833,107.833 117.833,108.833 116.5,109.5C 114.596,109.738 113.262,110.738 112.5,112.5C 112.5,113.167 112.167,113.5 111.5,113.5C 110.094,113.973 109.427,114.973 109.5,116.5C 108.5,118.167 107.167,119.5 105.5,120.5C 104.5,121.167 103.5,121.833 102.5,122.5C 100.032,121.097 99.3657,119.097 100.5,116.5C 101.925,115.078 102.925,113.411 103.5,111.5C 104.833,110.833 105.833,109.833 106.5,108.5C 107.5,108.167 108.167,107.5 108.5,106.5C 108.833,105.5 109.5,104.833 110.5,104.5C 113.089,103.581 115.089,101.914 116.5,99.5C 120.951,95.3897 125.951,92.0563 131.5,89.5 Z"/></g>
<g><path style="opacity:0.016" fill="#d4d7d8" d="M 116.5,109.5 C 115.738,111.262 114.404,112.262 112.5,112.5C 113.262,110.738 114.596,109.738 116.5,109.5 Z"/></g>
<g><path style="opacity:0.792" fill="#899093" d="M 134.5,110.5 C 136.914,111.911 138.581,113.911 139.5,116.5C 137.086,115.089 135.419,113.089 134.5,110.5 Z"/></g>
<g><path style="opacity:0.412" fill="#afb6b8" d="M 217.5,109.5 C 216.5,111.167 215.167,112.5 213.5,113.5C 213.833,111.167 215.167,109.833 217.5,109.5 Z"/></g>
<g><path style="opacity:1" fill="#1e2528" d="M 221.5,109.5 C 221.833,110.5 222.5,111.167 223.5,111.5C 225.471,113.808 227.471,116.142 229.5,118.5C 231.399,127.304 229.733,128.304 224.5,121.5C 223.583,120.873 222.583,120.539 221.5,120.5C 219.704,121.793 218.037,123.293 216.5,125C 209.755,125.593 207.588,122.76 210,116.5C 211.039,115.29 212.206,114.29 213.5,113.5C 215.167,112.5 216.5,111.167 217.5,109.5C 218.833,108.167 220.167,108.167 221.5,109.5 Z"/></g>
<g><path style="opacity:0.451" fill="#99a0a0" d="M 89.5,110.5 C 89.573,112.027 88.9063,113.027 87.5,113.5C 87.427,111.973 88.0937,110.973 89.5,110.5 Z"/></g>
<g><path style="opacity:0.996" fill="#1a2023" d="M 95.5,103.5 C 95.5041,105.842 96.3375,107.842 98,109.5C 98.4169,108.244 99.2502,107.577 100.5,107.5C 100.5,108.167 100.5,108.833 100.5,109.5C 100.167,110.5 99.5,111.167 98.5,111.5C 97.0937,111.973 96.427,112.973 96.5,114.5C 96.1667,115.5 95.5,116.167 94.5,116.5C 93.0937,116.973 92.427,117.973 92.5,119.5C 91.6493,121.882 90.316,123.882 88.5,125.5C 88.2131,123.879 87.2131,122.879 85.5,122.5C 82.7028,123.258 80.7028,124.591 79.5,126.5C 79.6596,124.847 80.3263,123.514 81.5,122.5C 82.9063,122.027 83.573,121.027 83.5,119.5C 84.3507,117.118 85.684,115.118 87.5,113.5C 88.9063,113.027 89.573,112.027 89.5,110.5C 89.8333,109.5 90.5,108.833 91.5,108.5C 92.9063,108.027 93.573,107.027 93.5,105.5C 93.8333,104.5 94.5,103.833 95.5,103.5 Z"/></g>
<g><path style="opacity:0.016" fill="#d9dada" d="M 98.5,111.5 C 98.573,113.027 97.9063,114.027 96.5,114.5C 96.427,112.973 97.0937,111.973 98.5,111.5 Z"/></g>
<g><path style="opacity:1" fill="#171d1f" d="M 127.5,110.5 C 129.833,110.5 132.167,110.5 134.5,110.5C 135.419,113.089 137.086,115.089 139.5,116.5C 142.653,120.673 141.653,123.673 136.5,125.5C 134.829,125.332 133.496,124.665 132.5,123.5C 132.042,120.691 130.709,120.024 128.5,121.5C 126.167,124.5 123.5,127.167 120.5,129.5C 118.766,130.562 117.099,130.562 115.5,129.5C 114.766,128.292 114.433,126.959 114.5,125.5C 119.948,121.391 124.281,116.391 127.5,110.5 Z"/></g>
<g><path style="opacity:0.004" fill="#dadadd" d="M 253.5,112.5 C 254.5,112.833 255.167,113.5 255.5,114.5C 254.167,114.5 253.5,113.833 253.5,112.5 Z"/></g>
<g><path style="opacity:0.624" fill="#8c999c" d="M 103.5,111.5 C 102.925,113.411 101.925,115.078 100.5,116.5C 100.167,116.5 99.8333,116.5 99.5,116.5C 100.08,114.251 101.413,112.585 103.5,111.5 Z"/></g>
<g><path style="opacity:0.008" fill="#ccd0d0" d="M 111.5,113.5 C 111.573,115.027 110.906,116.027 109.5,116.5C 109.427,114.973 110.094,113.973 111.5,113.5 Z"/></g>
<g><path style="opacity:0.78" fill="#8e9296" d="M 263.5,113.5 C 265.262,114.262 266.262,115.596 266.5,117.5C 264.738,116.738 263.738,115.404 263.5,113.5 Z"/></g>
<g><path style="opacity:1" fill="#041114" d="M 259.5,108.5 C 260.08,110.749 261.413,112.415 263.5,113.5C 263.738,115.404 264.738,116.738 266.5,117.5C 267.15,119.435 267.483,121.435 267.5,123.5C 268.955,125.31 268.788,126.977 267,128.5C 264.674,127.187 263.341,125.187 263,122.5C 261.887,121.695 260.721,121.028 259.5,120.5C 259.553,119.18 259.553,117.847 259.5,116.5C 258.833,116.167 258.167,115.833 257.5,115.5C 257.931,114.707 258.265,113.873 258.5,113C 256.976,111.806 255.81,110.306 255,108.5C 254.586,108.957 254.086,109.291 253.5,109.5C 252.756,108.009 252.09,106.509 251.5,105C 252,104.833 252.5,104.667 253,104.5C 254.829,106.856 256.996,108.19 259.5,108.5 Z"/></g>
<g><path style="opacity:1" fill="#0a1315" d="M 242.5,106.5 C 243.833,108.5 245.5,110.167 247.5,111.5C 248.5,111.833 249.167,112.5 249.5,113.5C 250.08,115.749 251.413,117.415 253.5,118.5C 253.733,120.062 254.4,121.395 255.5,122.5C 254.2,123.108 252.867,123.775 251.5,124.5C 250.151,124.154 248.817,123.821 247.5,123.5C 247.573,121.973 246.906,120.973 245.5,120.5C 244.833,120.5 244.5,120.167 244.5,119.5C 241.899,115.229 238.566,111.563 234.5,108.5C 235.598,107.603 235.598,106.77 234.5,106C 235.167,105.667 235.833,105.333 236.5,105C 233.937,104.237 233.937,103.737 236.5,103.5C 238.332,104.821 240.332,105.821 242.5,106.5 Z"/></g>
<g><path style="opacity:0.282" fill="#aeb2b5" d="M 249.5,113.5 C 251.587,114.585 252.92,116.251 253.5,118.5C 251.413,117.415 250.08,115.749 249.5,113.5 Z"/></g>
<g><path style="opacity:0.098" fill="#c9cbcc" d="M 94.5,116.5 C 94.573,118.027 93.9063,119.027 92.5,119.5C 92.427,117.973 93.0937,116.973 94.5,116.5 Z"/></g>
<g><path style="opacity:0.463" fill="#adb1b2" d="M 127.5,110.5 C 124.281,116.391 119.948,121.391 114.5,125.5C 118.466,120.199 122.8,115.199 127.5,110.5 Z"/></g>
<g><path style="opacity:1" fill="#3a4043" d="M 99.5,116.5 C 99.8333,116.5 100.167,116.5 100.5,116.5C 99.3657,119.097 100.032,121.097 102.5,122.5C 102.5,123.167 102.5,123.833 102.5,124.5C 101.649,126.882 100.316,128.882 98.5,130.5C 98.3285,128.508 98.9951,126.842 100.5,125.5C 99.9598,124.252 99.2931,123.085 98.5,122C 98.8333,121.667 99.1667,121.333 99.5,121C 98.552,120.517 97.552,120.351 96.5,120.5C 96.7376,118.596 97.7376,117.262 99.5,116.5 Z"/></g>
<g><path style="opacity:0.392" fill="#b6b9ba" d="M 253.5,118.5 C 255.262,119.262 256.262,120.596 256.5,122.5C 256.167,122.5 255.833,122.5 255.5,122.5C 254.4,121.395 253.733,120.062 253.5,118.5 Z"/></g>
<g><path style="opacity:0.325" fill="#a9adae" d="M 83.5,119.5 C 83.573,121.027 82.9063,122.027 81.5,122.5C 81.427,120.973 82.0937,119.973 83.5,119.5 Z"/></g>
<g><path style="opacity:0.008" fill="#d1d5d5" d="M 105.5,120.5 C 105.262,122.404 104.262,123.738 102.5,124.5C 102.5,123.833 102.5,123.167 102.5,122.5C 103.5,121.833 104.5,121.167 105.5,120.5 Z"/></g>
<g><path style="opacity:0.051" fill="#c5c9ca" d="M 128.5,121.5 C 130.709,120.024 132.042,120.691 132.5,123.5C 131.395,122.4 130.062,121.733 128.5,121.5 Z"/></g>
<g><path style="opacity:0.024" fill="#d3d7d6" d="M 245.5,120.5 C 246.906,120.973 247.573,121.973 247.5,123.5C 246.094,123.027 245.427,122.027 245.5,120.5 Z"/></g>
<g><path style="opacity:0.973" fill="#6d7374" d="M 266.5,117.5 C 268.588,119.336 269.921,121.669 270.5,124.5C 269.609,123.89 268.609,123.557 267.5,123.5C 267.483,121.435 267.15,119.435 266.5,117.5 Z"/></g>
<g><path style="opacity:0.584" fill="#898e90" d="M 96.5,120.5 C 96.2624,122.404 95.2624,123.738 93.5,124.5C 93.7376,122.596 94.7376,121.262 96.5,120.5 Z"/></g>
<g><path style="opacity:0.999" fill="#2d3536" d="M 229.5,118.5 C 232.167,120.5 234.5,122.833 236.5,125.5C 236.5,126.5 236.5,127.5 236.5,128.5C 235.594,130.914 233.928,131.747 231.5,131C 227.85,127.702 224.516,124.202 221.5,120.5C 222.583,120.539 223.583,120.873 224.5,121.5C 229.733,128.304 231.399,127.304 229.5,118.5 Z"/></g>
<g><path style="opacity:1" fill="#444b4d" d="M 255.5,122.5 C 255.833,122.5 256.167,122.5 256.5,122.5C 257.338,122.842 257.672,123.508 257.5,124.5C 256.85,124.196 256.183,123.863 255.5,123.5C 254.5,125.167 253.167,126.5 251.5,127.5C 252.742,129.79 254.408,131.623 256.5,133C 255.748,133.671 255.414,134.504 255.5,135.5C 252.474,131.795 249.808,127.795 247.5,123.5C 248.817,123.821 250.151,124.154 251.5,124.5C 252.867,123.775 254.2,123.108 255.5,122.5 Z"/></g>
<g><path style="opacity:0.878" fill="#7e8286" d="M 114.5,125.5 C 114.433,126.959 114.766,128.292 115.5,129.5C 112.588,128.422 112.254,127.088 114.5,125.5 Z"/></g>
<g><path style="opacity:0.141" fill="#caced0" d="M 171.5,125.5 C 173.435,126.15 175.435,126.483 177.5,126.5C 176.903,127.139 176.07,127.472 175,127.5C 173.301,127.613 172.134,126.947 171.5,125.5 Z"/></g>
<g><path style="opacity:0.592" fill="#afb2b2" d="M 236.5,125.5 C 239.167,126.5 239.167,127.5 236.5,128.5C 236.5,127.5 236.5,126.5 236.5,125.5 Z"/></g>
<g><path style="opacity:0.282" fill="#b0b3b5" d="M 257.5,124.5 C 258.906,124.973 259.573,125.973 259.5,127.5C 258.094,127.027 257.427,126.027 257.5,124.5 Z"/></g>
<g><path style="opacity:1" fill="#666a70" d="M 93.5,124.5 C 93.2639,127.621 91.9305,129.954 89.5,131.5C 90.0787,128.669 91.412,126.336 93.5,124.5 Z"/></g>
<g><path style="opacity:0.541" fill="#b9bcbd" d="M 115.5,129.5 C 117.099,130.562 118.766,130.562 120.5,129.5C 118.758,133.404 117.091,133.404 115.5,129.5 Z"/></g>
<g><path style="opacity:0.993" fill="#575b5e" d="M 259.5,127.5 C 261.008,129.181 262.008,131.181 262.5,133.5C 258.703,132.738 257.703,130.738 259.5,127.5 Z"/></g>
<g><path style="opacity:0.929" fill="#6a7071" d="M 77.5,130.5 C 77.8337,133.491 76.8337,135.824 74.5,137.5C 74.9348,134.843 75.9348,132.509 77.5,130.5 Z"/></g>
<g><path style="opacity:1" fill="#12181b" d="M 257.5,124.5 C 257.427,126.027 258.094,127.027 259.5,127.5C 257.703,130.738 258.703,132.738 262.5,133.5C 263.674,134.514 264.34,135.847 264.5,137.5C 264.259,139.898 264.926,141.898 266.5,143.5C 266.56,146.341 267.226,149.007 268.5,151.5C 265.733,151.87 263.733,153.204 262.5,155.5C 261.596,154.791 261.263,153.791 261.5,152.5C 261.993,147.774 260.66,143.774 257.5,140.5C 256.069,139.22 255.402,137.553 255.5,135.5C 255.414,134.504 255.748,133.671 256.5,133C 254.408,131.623 252.742,129.79 251.5,127.5C 253.167,126.5 254.5,125.167 255.5,123.5C 256.183,123.863 256.85,124.196 257.5,124.5 Z"/></g>
<g><path style="opacity:1" fill="#262c2f" d="M 88.5,125.5 C 81.2535,139.782 76.9202,154.782 75.5,170.5C 75.6653,166.818 75.4986,163.152 75,159.5C 74,159.5 73,159.5 72,159.5C 71.4054,158.101 71.5721,156.768 72.5,155.5C 72.1445,154.478 71.4778,153.811 70.5,153.5C 70.5,152.833 70.5,152.167 70.5,151.5C 71.9238,149.485 72.5905,147.152 72.5,144.5C 72.5,144.167 72.5,143.833 72.5,143.5C 74.0739,141.898 74.7406,139.898 74.5,137.5C 76.8337,135.824 77.8337,133.491 77.5,130.5C 77.6596,128.847 78.3263,127.514 79.5,126.5C 80.7028,124.591 82.7028,123.258 85.5,122.5C 87.2131,122.879 88.2131,123.879 88.5,125.5 Z"/></g>
<g><path style="opacity:0.988" fill="#5c6164" d="M 89.5,131.5 C 89.0104,136.05 87.3437,140.05 84.5,143.5C 85.0966,138.983 86.7633,134.983 89.5,131.5 Z"/></g>
<g><path style="opacity:1" fill="#12181b" d="M 96.5,120.5 C 97.552,120.351 98.552,120.517 99.5,121C 99.1667,121.333 98.8333,121.667 98.5,122C 99.2931,123.085 99.9598,124.252 100.5,125.5C 98.9951,126.842 98.3285,128.508 98.5,130.5C 97.6743,133.485 96.341,136.151 94.5,138.5C 91.9791,140.03 90.9791,142.364 91.5,145.5C 89.9261,147.102 89.2594,149.102 89.5,151.5C 88.7784,151.082 88.2784,150.416 88,149.5C 87,149.833 86,150.167 85,150.5C 84.5,150 84,149.5 83.5,149C 84.3802,147.644 84.7135,146.144 84.5,144.5C 84.5,144.167 84.5,143.833 84.5,143.5C 87.3437,140.05 89.0104,136.05 89.5,131.5C 91.9305,129.954 93.2639,127.621 93.5,124.5C 95.2624,123.738 96.2624,122.404 96.5,120.5 Z"/></g>
<g><path style="opacity:0.967" fill="#787b7e" d="M 108.5,139.5 C 105.465,138.266 102.465,138.266 99.5,139.5C 102.404,135.549 105.404,135.549 108.5,139.5 Z"/></g>
<g><path style="opacity:0.227" fill="#b3b7b8" d="M 248.5,137.5 C 250.179,137.285 251.179,137.952 251.5,139.5C 250.29,139.068 249.29,138.401 248.5,137.5 Z"/></g>
<g><path style="opacity:1" fill="#272e31" d="M 259.5,120.5 C 260.721,121.028 261.887,121.695 263,122.5C 263.341,125.187 264.674,127.187 267,128.5C 268.788,126.977 268.955,125.31 267.5,123.5C 268.609,123.557 269.609,123.89 270.5,124.5C 272.341,126.849 273.674,129.515 274.5,132.5C 275.053,134.939 275.053,137.273 274.5,139.5C 274.846,140.696 275.346,140.696 276,139.5C 276.608,141.066 277.442,142.4 278.5,143.5C 278.5,143.833 278.5,144.167 278.5,144.5C 278.41,147.152 279.076,149.485 280.5,151.5C 281.341,153.379 281.675,155.379 281.5,157.5C 281.5,157.833 281.5,158.167 281.5,158.5C 280.71,159.609 280.21,160.942 280,162.5C 278.488,161.743 277.154,160.743 276,159.5C 275.502,162.482 275.335,165.482 275.5,168.5C 275.5,170.167 275.5,171.833 275.5,173.5C 274.532,154.551 269.198,136.884 259.5,120.5 Z"/></g>
<g><path style="opacity:1" fill="#1d2325" d="M 108.5,139.5 C 108.833,140.5 109.5,141.167 110.5,141.5C 113.777,143.177 114.277,145.51 112,148.5C 109.984,150.608 107.817,150.942 105.5,149.5C 105.027,148.094 104.027,147.427 102.5,147.5C 102.5,145.5 101.5,144.5 99.5,144.5C 98.1667,142.833 98.1667,141.167 99.5,139.5C 102.465,138.266 105.465,138.266 108.5,139.5 Z"/></g>
<g><path style="opacity:0.004" fill="#d2d5d6" d="M 108.5,139.5 C 109.833,139.5 110.5,140.167 110.5,141.5C 109.5,141.167 108.833,140.5 108.5,139.5 Z"/></g>
<g><path style="opacity:1" fill="#52585c" d="M 274.5,132.5 C 276.601,135.797 277.935,139.463 278.5,143.5C 277.442,142.4 276.608,141.066 276,139.5C 275.346,140.696 274.846,140.696 274.5,139.5C 275.053,137.273 275.053,134.939 274.5,132.5 Z"/></g>
<g><path style="opacity:0.694" fill="#9da2a4" d="M 74.5,137.5 C 74.7406,139.898 74.0739,141.898 72.5,143.5C 72.595,141.214 73.2616,139.214 74.5,137.5 Z"/></g>
<g><path style="opacity:0.984" fill="#6e7275" d="M 94.5,138.5 C 94.0652,141.157 93.0652,143.491 91.5,145.5C 90.9791,142.364 91.9791,140.03 94.5,138.5 Z"/></g>
<g><path style="opacity:0.69" fill="#979ea0" d="M 205.5,139.5 C 205.027,140.906 204.027,141.573 202.5,141.5C 202.973,140.094 203.973,139.427 205.5,139.5 Z"/></g>
<g><path style="opacity:1" fill="#0f1618" d="M 205.5,139.5 C 211.509,139.334 217.509,139.501 223.5,140C 225.464,141.451 226.797,143.284 227.5,145.5C 222.944,147.442 217.944,148.108 212.5,147.5C 212.649,146.448 212.483,145.448 212,144.5C 210.984,145.634 210.317,145.301 210,143.5C 209.333,144.833 208.667,144.833 208,143.5C 207.28,145.112 207.446,146.612 208.5,148C 207.744,149.38 207.078,149.547 206.5,148.5C 205.752,146.265 204.919,146.598 204,149.5C 203.667,148.167 203.333,146.833 203,145.5C 202.23,146.598 201.397,146.598 200.5,145.5C 200.5,145.167 200.5,144.833 200.5,144.5C 201.906,144.027 202.573,143.027 202.5,141.5C 204.027,141.573 205.027,140.906 205.5,139.5 Z"/></g>
<g><path style="opacity:1" fill="#1e2326" d="M 248.5,137.5 C 249.29,138.401 250.29,139.068 251.5,139.5C 251.483,141.565 251.15,143.565 250.5,145.5C 250.158,146.338 249.492,146.672 248.5,146.5C 247.167,147.167 246.167,148.167 245.5,149.5C 243.833,150.833 242.167,150.833 240.5,149.5C 240.167,148.5 239.5,147.833 238.5,147.5C 237.167,146.167 237.167,144.833 238.5,143.5C 240.5,142.167 242.167,140.5 243.5,138.5C 244.995,136.655 246.662,136.322 248.5,137.5 Z"/></g>
<g><path style="opacity:0.227" fill="#ced1d2" d="M 251.5,139.5 C 252.139,140.097 252.472,140.93 252.5,142C 252.613,143.699 251.947,144.866 250.5,145.5C 251.15,143.565 251.483,141.565 251.5,139.5 Z"/></g>
<g><path style="opacity:0.482" fill="#9ba0a0" d="M 243.5,138.5 C 242.167,140.5 240.5,142.167 238.5,143.5C 239.167,140.833 240.833,139.167 243.5,138.5 Z"/></g>
<g><path style="opacity:0.553" fill="#97999b" d="M 264.5,137.5 C 266.074,139.102 266.741,141.102 266.5,143.5C 264.926,141.898 264.259,139.898 264.5,137.5 Z"/></g>
<g><path style="opacity:0.424" fill="#959b9e" d="M 202.5,141.5 C 202.573,143.027 201.906,144.027 200.5,144.5C 200.427,142.973 201.094,141.973 202.5,141.5 Z"/></g>
<g><path style="opacity:0.749" fill="#939799" d="M 99.5,144.5 C 101.5,144.5 102.5,145.5 102.5,147.5C 101.167,146.833 100.167,145.833 99.5,144.5 Z"/></g>
<g><path style="opacity:1" fill="#72757a" d="M 257.5,140.5 C 260.66,143.774 261.993,147.774 261.5,152.5C 259.993,148.647 258.66,144.647 257.5,140.5 Z"/></g>
<g><path style="opacity:0.035" fill="#f4f8f8" d="M 200.5,144.5 C 200.5,144.833 200.5,145.167 200.5,145.5C 195.36,146.488 190.026,146.821 184.5,146.5C 189.732,145.79 195.065,145.123 200.5,144.5 Z"/></g>
<g><path style="opacity:0.999" fill="#0b1415" d="M 200.5,145.5 C 201.397,146.598 202.23,146.598 203,145.5C 203.333,146.833 203.667,148.167 204,149.5C 204.919,146.598 205.752,146.265 206.5,148.5C 205.188,149.812 203.854,151.146 202.5,152.5C 203.934,153.23 205.1,154.23 206,155.5C 206.333,155.167 206.667,154.833 207,154.5C 208.804,156.924 208.638,159.257 206.5,161.5C 205.5,161.5 204.5,161.5 203.5,161.5C 202.833,160.167 201.833,159.167 200.5,158.5C 200.5,158.167 200.5,157.833 200.5,157.5C 198.429,156.191 195.929,155.525 193,155.5C 190.31,155.503 187.81,155.836 185.5,156.5C 185.5,157.167 185.167,157.5 184.5,157.5C 183.167,157.5 182.5,158.167 182.5,159.5C 182.737,160.791 182.404,161.791 181.5,162.5C 181.799,160.396 181.466,158.396 180.5,156.5C 178.533,157.682 177.2,157.015 176.5,154.5C 175.591,156.375 174.257,157.708 172.5,158.5C 172.5,158.167 172.5,157.833 172.5,157.5C 173.674,156.486 174.34,155.153 174.5,153.5C 175.906,153.027 176.573,152.027 176.5,150.5C 178.027,150.573 179.027,149.906 179.5,148.5C 181.153,148.34 182.486,147.674 183.5,146.5C 183.833,146.5 184.167,146.5 184.5,146.5C 190.026,146.821 195.36,146.488 200.5,145.5 Z"/></g>
<g><path style="opacity:0.565" fill="#a7aaaa" d="M 102.5,147.5 C 104.027,147.427 105.027,148.094 105.5,149.5C 103.973,149.573 102.973,148.906 102.5,147.5 Z"/></g>
<g><path style="opacity:0.588" fill="#9ea3a4" d="M 183.5,146.5 C 182.486,147.674 181.153,148.34 179.5,148.5C 180.287,146.896 181.62,146.229 183.5,146.5 Z"/></g>
<g><path style="opacity:0.061" fill="#e1e4e4" d="M 227.5,145.5 C 228.404,146.209 228.737,147.209 228.5,148.5C 223.5,148.5 218.5,148.5 213.5,148.5C 213.5,150.167 213.5,151.833 213.5,153.5C 214.791,153.263 215.791,153.596 216.5,154.5C 215.167,154.5 213.833,154.5 212.5,154.5C 212.5,152.167 212.5,149.833 212.5,147.5C 217.944,148.108 222.944,147.442 227.5,145.5 Z"/></g>
<g><path style="opacity:0.651" fill="#8b9094" d="M 91.5,145.5 C 91.2785,148.067 90.6118,150.401 89.5,152.5C 89.5,152.167 89.5,151.833 89.5,151.5C 89.2594,149.102 89.9261,147.102 91.5,145.5 Z"/></g>
<g><path style="opacity:0.008" fill="#cacece" d="M 238.5,147.5 C 239.5,147.833 240.167,148.5 240.5,149.5C 239.167,149.5 238.5,148.833 238.5,147.5 Z"/></g>
<g><path style="opacity:0.004" fill="#d9dbdc" d="M 248.5,146.5 C 248.5,148.5 247.5,149.5 245.5,149.5C 246.167,148.167 247.167,147.167 248.5,146.5 Z"/></g>
<g><path style="opacity:0.639" fill="#929797" d="M 179.5,148.5 C 179.027,149.906 178.027,150.573 176.5,150.5C 176.973,149.094 177.973,148.427 179.5,148.5 Z"/></g>
<g><path style="opacity:0.675" fill="#868c8d" d="M 266.5,143.5 C 268.483,146.799 269.483,150.466 269.5,154.5C 268.596,153.791 268.263,152.791 268.5,151.5C 267.226,149.007 266.56,146.341 266.5,143.5 Z"/></g>
<g><path style="opacity:0.467" fill="#95989c" d="M 72.5,144.5 C 72.5905,147.152 71.9238,149.485 70.5,151.5C 70.4095,148.848 71.0762,146.515 72.5,144.5 Z"/></g>
<g><path style="opacity:0.451" fill="#959ea0" d="M 278.5,144.5 C 279.924,146.515 280.59,148.848 280.5,151.5C 279.076,149.485 278.41,147.152 278.5,144.5 Z"/></g>
<g><path style="opacity:0.663" fill="#929999" d="M 176.5,150.5 C 176.573,152.027 175.906,153.027 174.5,153.5C 174.427,151.973 175.094,150.973 176.5,150.5 Z"/></g>
<g><path style="opacity:0.755" fill="#686d6f" d="M 226.5,158.5 C 226.5,157.5 226.5,156.5 226.5,155.5C 221.637,155.819 216.97,155.486 212.5,154.5C 213.833,154.5 215.167,154.5 216.5,154.5C 220.054,154.583 223.721,154.416 227.5,154C 228.916,155.915 228.582,157.415 226.5,158.5 Z"/></g>
<g><path style="opacity:0.231" fill="#a7abab" d="M 174.5,153.5 C 174.34,155.153 173.674,156.486 172.5,157.5C 172.229,155.62 172.896,154.287 174.5,153.5 Z"/></g>
<g><path style="opacity:0.07" fill="#dee8e9" d="M 185.5,156.5 C 187.81,155.836 190.31,155.503 193,155.5C 195.929,155.525 198.429,156.191 200.5,157.5C 195.595,156.555 190.595,156.221 185.5,156.5 Z"/></g>
<g><path style="opacity:0.997" fill="#0f1619" d="M 70.5,153.5 C 71.4778,153.811 72.1445,154.478 72.5,155.5C 71.5721,156.768 71.4054,158.101 72,159.5C 73,159.5 74,159.5 75,159.5C 75.4986,163.152 75.6653,166.818 75.5,170.5C 75.5,172.833 75.5,175.167 75.5,177.5C 75.1557,183.098 75.8224,188.432 77.5,193.5C 77.5,193.833 77.5,194.167 77.5,194.5C 77.1107,197.553 77.7773,200.22 79.5,202.5C 80.404,203.209 80.7373,204.209 80.5,205.5C 80.5,206.167 80.5,206.833 80.5,207.5C 78.2258,206.048 76.7258,206.715 76,209.5C 75.6667,208.5 75.3333,207.5 75,206.5C 74.5357,207.094 74.369,207.761 74.5,208.5C 73.8333,207.5 73.1667,206.5 72.5,205.5C 71.596,204.791 71.2627,203.791 71.5,202.5C 72.0029,196.422 71.0029,190.756 68.5,185.5C 68.5,185.167 68.5,184.833 68.5,184.5C 68.4343,175.148 68.7676,165.815 69.5,156.5C 69.2627,155.209 69.596,154.209 70.5,153.5 Z"/></g>
<g><path style="opacity:1" fill="#1f2528" d="M 84.5,144.5 C 84.7135,146.144 84.3802,147.644 83.5,149C 84,149.5 84.5,150 85,150.5C 86,150.167 87,149.833 88,149.5C 88.2784,150.416 88.7784,151.082 89.5,151.5C 89.5,151.833 89.5,152.167 89.5,152.5C 87.8819,155.171 87.2153,158.171 87.5,161.5C 87.0427,165.815 86.7093,170.149 86.5,174.5C 87.1115,182.223 88.1115,189.889 89.5,197.5C 89.2594,199.898 89.9261,201.898 91.5,203.5C 92.7298,205.297 93.3964,207.297 93.5,209.5C 92.1497,208.517 91.1497,207.184 90.5,205.5C 89.8076,206.025 89.3076,206.692 89,207.5C 88.7266,205.899 88.2266,204.399 87.5,203C 88.9928,201.844 88.8261,201.01 87,200.5C 84.9655,201.944 84.1322,203.944 84.5,206.5C 82.7424,203.146 81.7424,199.479 81.5,195.5C 81.8412,191.84 81.1745,188.507 79.5,185.5C 78.3124,179.156 78.3124,172.822 79.5,166.5C 80.6167,162.705 81.2833,158.705 81.5,154.5C 81.5902,150.786 82.5902,147.452 84.5,144.5 Z"/></g>
<g><path style="opacity:0.251" fill="#bcc0c2" d="M 89.5,152.5 C 89.3239,155.727 88.6572,158.727 87.5,161.5C 87.2153,158.171 87.8819,155.171 89.5,152.5 Z"/></g>
<g><path style="opacity:1" fill="#040f11" d="M 181.5,162.5 C 180.673,167.985 180.173,173.652 180,179.5C 178.513,180.253 178.346,181.086 179.5,182C 178.207,182.49 176.873,182.657 175.5,182.5C 173.857,182.48 172.524,183.147 171.5,184.5C 170.893,184.376 170.56,184.043 170.5,183.5C 171.11,182.609 171.443,181.609 171.5,180.5C 172.468,178.393 172.802,176.059 172.5,173.5C 170.5,173.5 168.5,173.5 166.5,173.5C 167.263,172.732 168.263,172.232 169.5,172C 167.009,171.374 167.009,170.541 169.5,169.5C 168.451,167.784 167.118,166.451 165.5,165.5C 167.833,165.5 170.167,165.5 172.5,165.5C 172.5,163.167 172.5,160.833 172.5,158.5C 174.257,157.708 175.591,156.375 176.5,154.5C 177.2,157.015 178.533,157.682 180.5,156.5C 181.466,158.396 181.799,160.396 181.5,162.5 Z"/></g>
<g><path style="opacity:0.075" fill="#d2dada" d="M 184.5,157.5 C 184.167,158.5 183.5,159.167 182.5,159.5C 182.5,158.167 183.167,157.5 184.5,157.5 Z"/></g>
<g><path style="opacity:1" fill="#030e12" d="M 212.5,147.5 C 212.5,149.833 212.5,152.167 212.5,154.5C 216.97,155.486 221.637,155.819 226.5,155.5C 226.5,156.5 226.5,157.5 226.5,158.5C 224.908,157.398 224.075,158.065 224,160.5C 222.927,159.72 221.76,159.887 220.5,161C 215.845,161.499 211.179,161.666 206.5,161.5C 208.638,159.257 208.804,156.924 207,154.5C 206.667,154.833 206.333,155.167 206,155.5C 205.1,154.23 203.934,153.23 202.5,152.5C 203.854,151.146 205.188,149.812 206.5,148.5C 207.078,149.547 207.744,149.38 208.5,148C 207.446,146.612 207.28,145.112 208,143.5C 208.667,144.833 209.333,144.833 210,143.5C 210.317,145.301 210.984,145.634 212,144.5C 212.483,145.448 212.649,146.448 212.5,147.5 Z"/></g>
<g><path style="opacity:0.008" fill="#d5d8d8" d="M 200.5,158.5 C 201.833,159.167 202.833,160.167 203.5,161.5C 201.5,161.5 200.5,160.5 200.5,158.5 Z"/></g>
<g><path style="opacity:0.067" fill="#bec3c8" d="M 81.5,154.5 C 81.2833,158.705 80.6167,162.705 79.5,166.5C 79.1977,162.21 79.8643,158.21 81.5,154.5 Z"/></g>
<g><path style="opacity:0.805" fill="#696e70" d="M 226.5,158.5 C 226.084,160.752 224.751,162.252 222.5,163C 216.833,163.667 211.167,163.667 205.5,163C 204.584,162.722 203.918,162.222 203.5,161.5C 204.5,161.5 205.5,161.5 206.5,161.5C 211.179,161.666 215.845,161.499 220.5,161C 221.76,159.887 222.927,159.72 224,160.5C 224.075,158.065 224.908,157.398 226.5,158.5 Z"/></g>
<g><path style="opacity:0.608" fill="#bdc0c2" d="M 69.5,156.5 C 68.7676,165.815 68.4343,175.148 68.5,184.5C 67.8348,181.183 67.5014,177.683 67.5,174C 67.3905,167.933 68.0571,162.1 69.5,156.5 Z"/></g>
<g><path style="opacity:1" fill="#1e2627" d="M 127.5,162.5 C 127.427,164.027 128.094,165.027 129.5,165.5C 129.427,167.027 130.094,168.027 131.5,168.5C 132.222,168.918 132.722,169.584 133,170.5C 133.667,173.5 133.667,176.5 133,179.5C 129.88,185.43 126.047,190.763 121.5,195.5C 121.328,193.508 121.995,191.842 123.5,190.5C 122.148,189.476 120.815,188.476 119.5,187.5C 119.833,186.833 120.167,186.167 120.5,185.5C 121.64,183.22 122.807,180.886 124,178.5C 124.497,176.19 124.663,173.857 124.5,171.5C 124.573,169.973 123.906,168.973 122.5,168.5C 122.114,166.063 120.947,164.063 119,162.5C 118.51,163.793 118.343,165.127 118.5,166.5C 117.691,164.972 117.024,163.306 116.5,161.5C 116.39,158.975 116.723,156.308 117.5,153.5C 118.789,152.499 120.122,152.666 121.5,154C 123.888,156.629 125.888,159.462 127.5,162.5 Z"/></g>
<g><path style="opacity:0.404" fill="#979b9c" d="M 127.5,162.5 C 128.906,162.973 129.573,163.973 129.5,165.5C 128.094,165.027 127.427,164.027 127.5,162.5 Z"/></g>
<g><path style="opacity:0.251" fill="#b7bdbe" d="M 172.5,158.5 C 172.5,160.833 172.5,163.167 172.5,165.5C 170.167,165.5 167.833,165.5 165.5,165.5C 164.5,165.5 163.5,165.5 162.5,165.5C 165.287,164.523 168.287,164.19 171.5,164.5C 171.205,162.265 171.539,160.265 172.5,158.5 Z"/></g>
<g><path style="opacity:1" fill="#040f13" d="M 281.5,158.5 C 281.5,160.833 281.5,163.167 281.5,165.5C 281.666,171.509 281.499,177.509 281,183.5C 280.29,184.973 279.124,185.64 277.5,185.5C 277.55,179.611 276.884,173.944 275.5,168.5C 275.335,165.482 275.502,162.482 276,159.5C 277.154,160.743 278.488,161.743 280,162.5C 280.21,160.942 280.71,159.609 281.5,158.5 Z"/></g>
<g><path style="opacity:0.375" fill="#9fa3a7" d="M 117.5,153.5 C 116.723,156.308 116.39,158.975 116.5,161.5C 115.167,161.5 113.833,161.5 112.5,161.5C 112.5,164.833 112.5,168.167 112.5,171.5C 109.5,171.5 106.5,171.5 103.5,171.5C 103.5,169.167 103.5,166.833 103.5,164.5C 104.461,166.265 104.795,168.265 104.5,170.5C 106.833,170.5 109.167,170.5 111.5,170.5C 111.5,167.167 111.5,163.833 111.5,160.5C 112.833,160.5 114.167,160.5 115.5,160.5C 114.99,157.612 115.656,155.279 117.5,153.5 Z"/></g>
<g><path style="opacity:0.647" fill="#99a0a1" d="M 161.5,165.5 C 161.027,166.906 160.027,167.573 158.5,167.5C 158.973,166.094 159.973,165.427 161.5,165.5 Z"/></g>
<g><path style="opacity:1" fill="#091314" d="M 161.5,165.5 C 161.833,165.5 162.167,165.5 162.5,165.5C 163.5,165.5 164.5,165.5 165.5,165.5C 167.118,166.451 168.451,167.784 169.5,169.5C 167.009,170.541 167.009,171.374 169.5,172C 168.263,172.232 167.263,172.732 166.5,173.5C 165.167,173.5 164.5,174.167 164.5,175.5C 164.5,176.167 164.167,176.5 163.5,176.5C 162.566,177.568 162.232,178.901 162.5,180.5C 160.833,180.5 159.167,180.5 157.5,180.5C 156.91,179.234 156.41,177.901 156,176.5C 155.722,177.416 155.222,178.082 154.5,178.5C 154.5,176.5 154.5,174.5 154.5,172.5C 154.328,171.508 154.662,170.842 155.5,170.5C 156.5,170.167 157.167,169.5 157.5,168.5C 157.5,167.833 157.833,167.5 158.5,167.5C 160.027,167.573 161.027,166.906 161.5,165.5 Z"/></g>
<g><path style="opacity:1" fill="#040d11" d="M 234.5,161.5 C 240.833,161.5 247.167,161.5 253.5,161.5C 253.5,163.5 253.5,165.5 253.5,167.5C 248.833,167.5 244.167,167.5 239.5,167.5C 239.5,168.833 239.5,170.167 239.5,171.5C 242.833,171.5 246.167,171.5 249.5,171.5C 249.5,173.5 249.5,175.5 249.5,177.5C 246.167,177.5 242.833,177.5 239.5,177.5C 239.5,178.5 239.5,179.5 239.5,180.5C 238.175,181.953 237.342,181.619 237,179.5C 236.667,181.167 236.333,182.833 236,184.5C 235.667,184.167 235.333,183.833 235,183.5C 234.833,180.333 234.667,177.167 234.5,174C 234.55,170.397 235.217,167.064 236.5,164C 235.244,163.583 234.577,162.75 234.5,161.5 Z"/></g>
<g><path style="opacity:0.322" fill="#a6aab0" d="M 129.5,165.5 C 130.906,165.973 131.573,166.973 131.5,168.5C 130.094,168.027 129.427,167.027 129.5,165.5 Z"/></g>
<g><path style="opacity:0.639" fill="#838889" d="M 269.5,154.5 C 271.145,159.234 271.811,164.234 271.5,169.5C 271.167,169.5 270.833,169.5 270.5,169.5C 270.084,164.507 269.751,159.507 269.5,154.5 Z"/></g>
<g><path style="opacity:0.255" fill="#c0c5c7" d="M 157.5,168.5 C 157.167,169.5 156.5,170.167 155.5,170.5C 155.5,169.167 156.167,168.5 157.5,168.5 Z"/></g>
<g><path style="opacity:0.141" fill="#c4c6ca" d="M 122.5,168.5 C 123.906,168.973 124.573,169.973 124.5,171.5C 123.094,171.027 122.427,170.027 122.5,168.5 Z"/></g>
<g><path style="opacity:0.333" fill="#acb1b4" d="M 233.5,161.5 C 240.313,160.509 247.313,160.175 254.5,160.5C 254.5,163.167 254.5,165.833 254.5,168.5C 249.786,168.173 245.12,168.507 240.5,169.5C 243.977,170.167 247.311,170.834 250.5,171.5C 250.167,171.5 249.833,171.5 249.5,171.5C 246.167,171.5 242.833,171.5 239.5,171.5C 239.5,170.167 239.5,168.833 239.5,167.5C 244.167,167.5 248.833,167.5 253.5,167.5C 253.5,165.5 253.5,163.5 253.5,161.5C 247.167,161.5 240.833,161.5 234.5,161.5C 234.167,161.5 233.833,161.5 233.5,161.5 Z"/></g>
<g><path style="opacity:0.983" fill="#1a2022" d="M 268.5,151.5 C 268.263,152.791 268.596,153.791 269.5,154.5C 269.751,159.507 270.084,164.507 270.5,169.5C 270.937,174.568 270.27,179.401 268.5,184C 269.286,187.458 269.62,190.958 269.5,194.5C 269.5,194.833 269.5,195.167 269.5,195.5C 268.549,196.919 268.216,198.585 268.5,200.5C 267.935,204.537 266.601,208.203 264.5,211.5C 264.372,209.91 263.705,208.577 262.5,207.5C 262.598,208.616 262.098,209.616 261,210.5C 259.989,209.944 259.156,209.278 258.5,208.5C 259.301,206.958 259.634,205.292 259.5,203.5C 261.68,200.619 262.68,197.286 262.5,193.5C 262.896,186.643 263.563,179.809 264.5,173C 263.317,167.221 262.65,161.387 262.5,155.5C 263.733,153.204 265.733,151.87 268.5,151.5 Z"/></g>
<g><path style="opacity:0.104" fill="#cccfd2" d="M 281.5,157.5 C 282.931,162.933 283.598,168.599 283.5,174.5C 283.498,178.018 283.165,181.351 282.5,184.5C 282.823,177.978 282.49,171.645 281.5,165.5C 281.5,163.167 281.5,160.833 281.5,158.5C 281.5,158.167 281.5,157.833 281.5,157.5 Z"/></g>
<g><path style="opacity:0.329" fill="#aab2b4" d="M 122.5,168.5 C 121.21,167.942 120.377,166.942 120,165.5C 119.179,172.346 119.346,179.013 120.5,185.5C 120.167,186.167 119.833,186.833 119.5,187.5C 118.509,181.021 118.176,174.354 118.5,167.5C 118.5,167.167 118.5,166.833 118.5,166.5C 118.343,165.127 118.51,163.793 119,162.5C 120.947,164.063 122.114,166.063 122.5,168.5 Z"/></g>
<g><path style="opacity:0.497" fill="#899092" d="M 166.5,173.5 C 168.5,173.5 170.5,173.5 172.5,173.5C 172.802,176.059 172.468,178.393 171.5,180.5C 171.5,178.5 171.5,176.5 171.5,174.5C 169.05,174.298 166.717,174.631 164.5,175.5C 164.5,174.167 165.167,173.5 166.5,173.5 Z"/></g>
<g><path style="opacity:1" fill="#050e12" d="M 103.5,161.5 C 103.5,162.5 103.5,163.5 103.5,164.5C 103.5,166.833 103.5,169.167 103.5,171.5C 106.5,171.5 109.5,171.5 112.5,171.5C 112.5,168.167 112.5,164.833 112.5,161.5C 113.833,161.5 115.167,161.5 116.5,161.5C 117.024,163.306 117.691,164.972 118.5,166.5C 118.5,166.833 118.5,167.167 118.5,167.5C 117.676,171.312 117.176,175.312 117,179.5C 116.5,178.333 115.667,177.5 114.5,177C 116.966,176.07 116.799,175.237 114,174.5C 113.5,174.833 113,175.167 112.5,175.5C 113.653,176.687 113.653,177.687 112.5,178.5C 109.713,177.523 106.713,177.19 103.5,177.5C 103.5,181.167 103.5,184.833 103.5,188.5C 101.5,188.5 99.5,188.5 97.5,188.5C 97.5,179.5 97.5,170.5 97.5,161.5C 99.5,161.5 101.5,161.5 103.5,161.5 Z"/></g>
<g><path style="opacity:0.322" fill="#adb2b4" d="M 154.5,172.5 C 154.5,174.5 154.5,176.5 154.5,178.5C 154.715,180.179 154.048,181.179 152.5,181.5C 153.088,178.39 153.755,175.39 154.5,172.5 Z"/></g>
<g><path style="opacity:0.478" fill="#808485" d="M 103.5,161.5 C 101.5,161.5 99.5,161.5 97.5,161.5C 97.5,170.5 97.5,179.5 97.5,188.5C 99.5,188.5 101.5,188.5 103.5,188.5C 103.5,188.833 103.5,189.167 103.5,189.5C 101.412,189.865 99.0787,189.865 96.5,189.5C 96.5,179.833 96.5,170.167 96.5,160.5C 99.0593,160.198 101.393,160.532 103.5,161.5 Z"/></g>
<g><path style="opacity:1" fill="#12191c" d="M 118.5,167.5 C 118.176,174.354 118.509,181.021 119.5,187.5C 120.815,188.476 122.148,189.476 123.5,190.5C 121.995,191.842 121.328,193.508 121.5,195.5C 119.379,195.675 117.379,195.341 115.5,194.5C 114.691,192.987 114.524,191.32 115,189.5C 114.023,190.774 113.189,190.774 112.5,189.5C 112.5,185.833 112.5,182.167 112.5,178.5C 113.653,177.687 113.653,176.687 112.5,175.5C 113,175.167 113.5,174.833 114,174.5C 116.799,175.237 116.966,176.07 114.5,177C 115.667,177.5 116.5,178.333 117,179.5C 117.176,175.312 117.676,171.312 118.5,167.5 Z"/></g>
<g><path style="opacity:0.631" fill="#6e7377" d="M 249.5,171.5 C 249.833,171.5 250.167,171.5 250.5,171.5C 250.5,173.833 250.5,176.167 250.5,178.5C 247.167,178.5 243.833,178.5 240.5,178.5C 240.433,179.959 240.766,181.292 241.5,182.5C 240.167,182.5 239.5,181.833 239.5,180.5C 239.5,179.5 239.5,178.5 239.5,177.5C 242.833,177.5 246.167,177.5 249.5,177.5C 249.5,175.5 249.5,173.5 249.5,171.5 Z"/></g>
<g><path style="opacity:0.997" fill="#4b5052" d="M 270.5,169.5 C 270.833,169.5 271.167,169.5 271.5,169.5C 271.666,176.508 271.5,183.508 271,190.5C 270.79,192.058 270.29,193.391 269.5,194.5C 269.62,190.958 269.286,187.458 268.5,184C 270.27,179.401 270.937,174.568 270.5,169.5 Z"/></g>
<g><path style="opacity:0.371" fill="#aaafb0" d="M 112.5,178.5 C 112.5,182.167 112.5,185.833 112.5,189.5C 111.518,186.038 111.185,182.371 111.5,178.5C 109.167,178.5 106.833,178.5 104.5,178.5C 104.815,182.371 104.482,186.038 103.5,189.5C 103.5,189.167 103.5,188.833 103.5,188.5C 103.5,184.833 103.5,181.167 103.5,177.5C 106.713,177.19 109.713,177.523 112.5,178.5 Z"/></g>
<g><path style="opacity:1" fill="#11181a" d="M 163.5,176.5 C 163.025,179.082 163.692,181.082 165.5,182.5C 166.919,183.451 168.585,183.784 170.5,183.5C 170.56,184.043 170.893,184.376 171.5,184.5C 172.524,183.147 173.857,182.48 175.5,182.5C 176.041,186.295 174.375,188.295 170.5,188.5C 175.317,189.167 179.983,189.834 184.5,190.5C 175.167,190.5 165.833,190.5 156.5,190.5C 156.5,205.833 156.5,221.167 156.5,236.5C 155.596,235.791 155.263,234.791 155.5,233.5C 155.667,219.163 155.5,204.829 155,190.5C 153.924,193.36 153.091,196.36 152.5,199.5C 151.796,196.296 151.13,193.129 150.5,190C 151.772,188.693 152.772,187.193 153.5,185.5C 154.258,186.811 155.258,187.311 156.5,187C 155.185,185.605 155.519,184.605 157.5,184C 154.93,182.651 154.93,181.484 157.5,180.5C 159.167,180.5 160.833,180.5 162.5,180.5C 162.232,178.901 162.566,177.568 163.5,176.5 Z"/></g>
<g><path style="opacity:0.702" fill="#909597" d="M 171.5,180.5 C 171.443,181.609 171.11,182.609 170.5,183.5C 168.585,183.784 166.919,183.451 165.5,182.5C 167.858,182.747 169.858,182.081 171.5,180.5 Z"/></g>
<g><path style="opacity:1" fill="#2c3334" d="M 181.5,162.5 C 181.5,168.167 181.5,173.833 181.5,179.5C 181.427,181.027 182.094,182.027 183.5,182.5C 185.265,183.461 187.265,183.795 189.5,183.5C 189.5,181.167 189.5,178.833 189.5,176.5C 190.706,173.861 192.706,173.028 195.5,174C 197.074,175.826 197.907,177.993 198,180.5C 199.154,181.743 200.488,182.743 202,183.5C 203.642,203.491 203.642,223.491 202,243.5C 201.5,244 201,244.5 200.5,245C 183.662,245.828 166.995,245.662 150.5,244.5C 166.006,245.098 181.339,244.431 196.5,242.5C 198.048,242.179 198.715,241.179 198.5,239.5C 199.5,239.5 200.5,239.5 201.5,239.5C 201.667,221.497 201.5,203.497 201,185.5C 200.167,183 199,182.833 197.5,185C 198.167,185.333 198.833,185.667 199.5,186C 198.807,187.684 198.474,189.184 198.5,190.5C 197.417,190.539 196.417,190.873 195.5,191.5C 194.833,206.328 194.167,220.994 193.5,235.5C 193.5,220.833 193.5,206.167 193.5,191.5C 190.713,190.523 187.713,190.19 184.5,190.5C 179.983,189.834 175.317,189.167 170.5,188.5C 174.375,188.295 176.041,186.295 175.5,182.5C 176.873,182.657 178.207,182.49 179.5,182C 178.346,181.086 178.513,180.253 180,179.5C 180.173,173.652 180.673,167.985 181.5,162.5 Z"/></g>
<g><path style="opacity:0.51" fill="#b5b9bc" d="M 189.5,176.5 C 189.5,178.833 189.5,181.167 189.5,183.5C 187.265,183.795 185.265,183.461 183.5,182.5C 185.167,182.5 186.833,182.5 188.5,182.5C 188.205,180.265 188.539,178.265 189.5,176.5 Z"/></g>
<g><path style="opacity:0.318" fill="#b9bdbd" d="M 181.5,179.5 C 182.906,179.973 183.573,180.973 183.5,182.5C 182.094,182.027 181.427,181.027 181.5,179.5 Z"/></g>
<g><path style="opacity:1" fill="#5b5f61" d="M 152.5,181.5 C 151.952,183.532 150.619,184.532 148.5,184.5C 149.035,182.554 150.368,181.554 152.5,181.5 Z"/></g>
<g><path style="opacity:1" fill="#081113" d="M 233.5,161.5 C 233.833,161.5 234.167,161.5 234.5,161.5C 234.577,162.75 235.244,163.583 236.5,164C 235.217,167.064 234.55,170.397 234.5,174C 234.667,177.167 234.833,180.333 235,183.5C 235.333,183.833 235.667,184.167 236,184.5C 236.333,182.833 236.667,181.167 237,179.5C 237.342,181.619 238.175,181.953 239.5,180.5C 239.5,181.833 240.167,182.5 241.5,182.5C 245.5,182.5 249.5,182.5 253.5,182.5C 253.5,184.5 253.5,186.5 253.5,188.5C 246.833,188.5 240.167,188.5 233.5,188.5C 233.5,179.5 233.5,170.5 233.5,161.5 Z"/></g>
<g><path style="opacity:0.525" fill="#858b8b" d="M 275.5,178.5 C 275.666,182.846 275.499,187.179 275,191.5C 274.722,192.416 274.222,193.082 273.5,193.5C 274.006,188.346 274.673,183.346 275.5,178.5 Z"/></g>
<g><path style="opacity:0.651" fill="#a7acae" d="M 75.5,177.5 C 76.5514,182.646 77.2181,187.979 77.5,193.5C 75.8224,188.432 75.1557,183.098 75.5,177.5 Z"/></g>
<g><path style="opacity:1" fill="#020e10" d="M 196.5,242.5 C 196.5,241.833 196.5,241.167 196.5,240.5C 197.727,238.368 198.727,236.034 199.5,233.5C 199.803,219.368 199.47,205.034 198.5,190.5C 198.474,189.184 198.807,187.684 199.5,186C 198.833,185.667 198.167,185.333 197.5,185C 199,182.833 200.167,183 201,185.5C 201.5,203.497 201.667,221.497 201.5,239.5C 200.5,239.5 199.5,239.5 198.5,239.5C 198.715,241.179 198.048,242.179 196.5,242.5 Z"/></g>
<g><path style="opacity:0.686" fill="#6e7375" d="M 253.5,182.5 C 254.629,184.628 254.796,186.961 254,189.5C 253.439,190.022 252.772,190.355 252,190.5C 245.689,189.89 239.523,189.224 233.5,188.5C 240.167,188.5 246.833,188.5 253.5,188.5C 253.5,186.5 253.5,184.5 253.5,182.5 Z"/></g>
<g><path style="opacity:1" fill="#030e10" d="M 157.5,180.5 C 154.93,181.484 154.93,182.651 157.5,184C 155.519,184.605 155.185,185.605 156.5,187C 155.258,187.311 154.258,186.811 153.5,185.5C 152.772,187.193 151.772,188.693 150.5,190C 151.13,193.129 151.796,196.296 152.5,199.5C 153.091,196.36 153.924,193.36 155,190.5C 155.5,204.829 155.667,219.163 155.5,233.5C 154.778,233.918 154.278,234.584 154,235.5C 153.405,231.918 152.071,231.584 150,234.5C 149.667,236.5 149.333,238.5 149,240.5C 148.5,221.836 148.333,203.17 148.5,184.5C 150.619,184.532 151.952,183.532 152.5,181.5C 154.048,181.179 154.715,180.179 154.5,178.5C 155.222,178.082 155.722,177.416 156,176.5C 156.41,177.901 156.91,179.234 157.5,180.5 Z"/></g>
<g><path style="opacity:1" fill="#030e13" d="M 198.5,190.5 C 199.47,205.034 199.803,219.368 199.5,233.5C 198.727,236.034 197.727,238.368 196.5,240.5C 193.501,241.574 190.501,241.407 187.5,240C 189.134,239.506 190.801,239.34 192.5,239.5C 192.5,238.5 192.5,237.5 192.5,236.5C 193.167,236.5 193.5,236.167 193.5,235.5C 194.167,220.994 194.833,206.328 195.5,191.5C 196.417,190.873 197.417,190.539 198.5,190.5 Z"/></g>
<g><path style="opacity:0.506" fill="#9fa6a8" d="M 79.5,185.5 C 81.1745,188.507 81.8412,191.84 81.5,195.5C 79.9886,192.456 79.322,189.122 79.5,185.5 Z"/></g>
<g><path style="opacity:1" fill="#1a2023" d="M 281.5,165.5 C 282.49,171.645 282.823,177.978 282.5,184.5C 282.721,187.279 282.388,189.946 281.5,192.5C 279.989,195.544 279.322,198.878 279.5,202.5C 279.443,203.609 279.11,204.609 278.5,205.5C 277.833,206.5 277.167,207.5 276.5,208.5C 275.22,207.069 273.553,206.402 271.5,206.5C 271.5,205.5 271.5,204.5 271.5,203.5C 271.54,200.012 272.207,196.679 273.5,193.5C 274.222,193.082 274.722,192.416 275,191.5C 275.499,187.179 275.666,182.846 275.5,178.5C 274.438,176.766 274.438,175.099 275.5,173.5C 275.5,171.833 275.5,170.167 275.5,168.5C 276.884,173.944 277.55,179.611 277.5,185.5C 279.124,185.64 280.29,184.973 281,183.5C 281.499,177.509 281.666,171.509 281.5,165.5 Z"/></g>
<g><path style="opacity:0.969" fill="#656a6e" d="M 68.5,185.5 C 71.0029,190.756 72.0029,196.422 71.5,202.5C 69.7393,197.09 68.7393,191.423 68.5,185.5 Z"/></g>
<g><path style="opacity:0.808" fill="#7e8486" d="M 115.5,194.5 C 117.379,195.341 119.379,195.675 121.5,195.5C 120.726,196.147 119.726,196.48 118.5,196.5C 116.97,196.36 115.97,195.693 115.5,194.5 Z"/></g>
<g><path style="opacity:0.055" fill="#d1d4d5" d="M 269.5,195.5 C 269.938,195.435 270.272,195.601 270.5,196C 269.901,197.622 269.234,199.122 268.5,200.5C 268.216,198.585 268.549,196.919 269.5,195.5 Z"/></g>
<g><path style="opacity:0.122" fill="#a8aeaf" d="M 77.5,194.5 C 78.7682,196.905 79.4349,199.572 79.5,202.5C 77.7773,200.22 77.1107,197.553 77.5,194.5 Z"/></g>
<g><path style="opacity:0.255" fill="#b5b9bb" d="M 281.5,192.5 C 281.451,196.078 280.785,199.411 279.5,202.5C 279.322,198.878 279.989,195.544 281.5,192.5 Z"/></g>
<g><path style="opacity:0.682" fill="#a2a9ab" d="M 89.5,197.5 C 90.7384,199.214 91.405,201.214 91.5,203.5C 89.9261,201.898 89.2594,199.898 89.5,197.5 Z"/></g>
<g><path style="opacity:0.678" fill="#8e9195" d="M 262.5,193.5 C 262.68,197.286 261.68,200.619 259.5,203.5C 260.13,199.952 261.13,196.619 262.5,193.5 Z"/></g>
<g><path style="opacity:0.604" fill="#5a6163" d="M 188.5,205.5 C 179.833,205.5 171.167,205.5 162.5,205.5C 162.5,207.5 162.5,209.5 162.5,211.5C 167.695,211.179 172.695,211.513 177.5,212.5C 172.167,212.5 166.833,212.5 161.5,212.5C 161.5,209.833 161.5,207.167 161.5,204.5C 170.221,204.804 178.888,204.471 187.5,203.5C 188.298,203.957 188.631,204.624 188.5,205.5 Z"/></g>
<g><path style="opacity:1" fill="#0a1317" d="M 188.5,205.5 C 188.839,211.033 188.839,216.366 188.5,221.5C 179.5,221.5 170.5,221.5 161.5,221.5C 161.5,219.833 161.5,218.167 161.5,216.5C 166.179,216.666 170.845,216.499 175.5,216C 176.056,215.617 176.389,215.117 176.5,214.5C 176.833,213.833 177.167,213.167 177.5,212.5C 172.695,211.513 167.695,211.179 162.5,211.5C 162.5,209.5 162.5,207.5 162.5,205.5C 171.167,205.5 179.833,205.5 188.5,205.5 Z"/></g>
<g><path style="opacity:0.753" fill="#9b9e9f" d="M 259.5,203.5 C 259.634,205.292 259.301,206.958 258.5,208.5C 258.167,208.5 257.833,208.5 257.5,208.5C 257.796,206.597 258.463,204.93 259.5,203.5 Z"/></g>
<g><path style="opacity:0.156" fill="#bbc0c4" d="M 184.5,190.5 C 187.713,190.19 190.713,190.523 193.5,191.5C 181.5,191.5 169.5,191.5 157.5,191.5C 157.5,206.167 157.5,220.833 157.5,235.5C 169.5,235.5 181.5,235.5 193.5,235.5C 193.5,236.167 193.167,236.5 192.5,236.5C 180.5,236.5 168.5,236.5 156.5,236.5C 156.5,221.167 156.5,205.833 156.5,190.5C 165.833,190.5 175.167,190.5 184.5,190.5 Z"/></g>
<g><path style="opacity:0.012" fill="#c9cecf" d="M 72.5,205.5 C 73.1667,206.5 73.8333,207.5 74.5,208.5C 74.5,209.5 74.5,210.5 74.5,211.5C 72.9261,209.898 72.2594,207.898 72.5,205.5 Z"/></g>
<g><path style="opacity:0.671" fill="#a2a6a9" d="M 80.5,205.5 C 81.7384,207.214 82.405,209.214 82.5,211.5C 81.3263,210.486 80.6596,209.153 80.5,207.5C 80.5,206.833 80.5,206.167 80.5,205.5 Z"/></g>
<g><path style="opacity:0.004" fill="#cfd1d2" d="M 278.5,205.5 C 278.741,207.898 278.074,209.898 276.5,211.5C 276.5,210.5 276.5,209.5 276.5,208.5C 277.167,207.5 277.833,206.5 278.5,205.5 Z"/></g>
<g><path style="opacity:0.412" fill="#a0a9a8" d="M 84.5,206.5 C 85.9313,207.78 86.5979,209.447 86.5,211.5C 85.0687,210.22 84.4021,208.553 84.5,206.5 Z"/></g>
<g><path style="opacity:0.039" fill="#e5f4f4" d="M 161.5,204.5 C 161.5,207.167 161.5,209.833 161.5,212.5C 166.833,212.5 172.167,212.5 177.5,212.5C 177.167,213.167 176.833,213.833 176.5,214.5C 176.167,214.5 175.833,214.5 175.5,214.5C 170.695,213.513 165.695,213.179 160.5,213.5C 160.19,210.287 160.523,207.287 161.5,204.5 Z"/></g>
<g><path style="opacity:1" fill="#1d2427" d="M 80.5,207.5 C 80.6596,209.153 81.3263,210.486 82.5,211.5C 83.9313,212.78 84.5979,214.447 84.5,216.5C 84.5,217.167 84.5,217.833 84.5,218.5C 84.0338,220.201 84.0338,221.701 84.5,223C 82.6992,223.317 82.3659,223.984 83.5,225C 82.244,225.417 81.5774,226.25 81.5,227.5C 78.3964,222.529 76.0631,217.196 74.5,211.5C 74.5,210.5 74.5,209.5 74.5,208.5C 74.369,207.761 74.5357,207.094 75,206.5C 75.3333,207.5 75.6667,208.5 76,209.5C 76.7258,206.715 78.2258,206.048 80.5,207.5 Z"/></g>
<g><path style="opacity:0.29" fill="#b8bbbf" d="M 86.5,211.5 C 87.9313,212.78 88.5979,214.447 88.5,216.5C 87.0687,215.22 86.4021,213.553 86.5,211.5 Z"/></g>
<g><path style="opacity:1" fill="#161d20" d="M 271.5,203.5 C 271.5,204.5 271.5,205.5 271.5,206.5C 273.553,206.402 275.22,207.069 276.5,208.5C 276.5,209.5 276.5,210.5 276.5,211.5C 275.527,213.25 274.193,214.75 272.5,216C 273.252,216.671 273.586,217.504 273.5,218.5C 273.771,220.38 273.104,221.713 271.5,222.5C 270.032,223.869 268.365,225.036 266.5,226C 267.641,226.741 267.641,227.575 266.5,228.5C 265.311,229.429 263.978,229.762 262.5,229.5C 262.5,228.5 262.5,227.5 262.5,226.5C 262.5,225.833 262.5,225.167 262.5,224.5C 265.716,217.494 268.716,210.494 271.5,203.5 Z"/></g>
<g><path style="opacity:0.922" fill="#6f7376" d="M 276.5,211.5 C 276.293,214.241 275.293,216.574 273.5,218.5C 273.586,217.504 273.252,216.671 272.5,216C 274.193,214.75 275.527,213.25 276.5,211.5 Z"/></g>
<g><path style="opacity:1" fill="#121a1c" d="M 93.5,209.5 C 95.6744,212.515 97.3411,215.849 98.5,219.5C 98.427,221.027 99.0937,222.027 100.5,222.5C 100.427,224.027 101.094,225.027 102.5,225.5C 102.738,227.404 103.738,228.738 105.5,229.5C 106.5,229.833 107.167,230.5 107.5,231.5C 109.5,235.5 112.5,238.5 116.5,240.5C 116.751,242.17 117.418,243.67 118.5,245C 116.519,245.605 116.185,246.605 117.5,248C 116.906,248.464 116.239,248.631 115.5,248.5C 114.078,247.075 112.411,246.075 110.5,245.5C 106.833,242.5 103.5,239.167 100.5,235.5C 100.573,233.973 99.9063,232.973 98.5,232.5C 97.0937,232.027 96.427,231.027 96.5,229.5C 96.4456,227.368 95.4456,226.035 93.5,225.5C 93.573,223.973 92.9063,222.973 91.5,222.5C 90.1302,220.75 89.1302,218.75 88.5,216.5C 88.5979,214.447 87.9313,212.78 86.5,211.5C 86.5979,209.447 85.9313,207.78 84.5,206.5C 84.1322,203.944 84.9655,201.944 87,200.5C 88.8261,201.01 88.9928,201.844 87.5,203C 88.2266,204.399 88.7266,205.899 89,207.5C 89.3076,206.692 89.8076,206.025 90.5,205.5C 91.1497,207.184 92.1497,208.517 93.5,209.5 Z"/></g>
<g><path style="opacity:0.129" fill="#c6cbce" d="M 254.5,215.5 C 254.573,217.027 253.906,218.027 252.5,218.5C 252.427,216.973 253.094,215.973 254.5,215.5 Z"/></g>
<g><path style="opacity:0.165" fill="#b3b8bc" d="M 84.5,216.5 C 86.1042,217.287 86.7709,218.62 86.5,220.5C 85.8333,219.833 85.1667,219.167 84.5,218.5C 84.5,217.833 84.5,217.167 84.5,216.5 Z"/></g>
<g><path style="opacity:0.482" fill="#868b90" d="M 98.5,219.5 C 99.9063,219.973 100.573,220.973 100.5,222.5C 99.0937,222.027 98.427,221.027 98.5,219.5 Z"/></g>
<g><path style="opacity:0.713" fill="#5b6365" d="M 175.5,214.5 C 175.833,214.5 176.167,214.5 176.5,214.5C 176.389,215.117 176.056,215.617 175.5,216C 170.845,216.499 166.179,216.666 161.5,216.5C 161.5,218.167 161.5,219.833 161.5,221.5C 170.5,221.5 179.5,221.5 188.5,221.5C 179.348,222.494 170.015,222.827 160.5,222.5C 160.5,220.167 160.5,217.833 160.5,215.5C 165.595,215.779 170.595,215.445 175.5,214.5 Z"/></g>
<g><path style="opacity:0.169" fill="#cbcfcf" d="M 260.5,220.5 C 260.25,222.674 259.25,224.341 257.5,225.5C 257.75,223.326 258.75,221.659 260.5,220.5 Z"/></g>
<g><path style="opacity:0.012" fill="#e0e3e4" d="M 91.5,222.5 C 92.9063,222.973 93.573,223.973 93.5,225.5C 92.0937,225.027 91.427,224.027 91.5,222.5 Z"/></g>
<g><path style="opacity:0.145" fill="#c3cccc" d="M 87.5,222.5 C 88.9063,222.973 89.573,223.973 89.5,225.5C 88.0937,225.027 87.427,224.027 87.5,222.5 Z"/></g>
<g><path style="opacity:0.494" fill="#8c9799" d="M 100.5,222.5 C 101.906,222.973 102.573,223.973 102.5,225.5C 101.094,225.027 100.427,224.027 100.5,222.5 Z"/></g>
<g><path style="opacity:0.878" fill="#7d8285" d="M 93.5,225.5 C 95.4456,226.035 96.4456,227.368 96.5,229.5C 95.0256,228.564 94.0256,227.23 93.5,225.5 Z"/></g>
<g><path style="opacity:0.353" fill="#9ea1a5" d="M 262.5,224.5 C 262.5,225.167 262.5,225.833 262.5,226.5C 261.833,226.833 261.167,227.167 260.5,227.5C 260.427,225.973 261.094,224.973 262.5,224.5 Z"/></g>
<g><path style="opacity:0.624" fill="#868a93" d="M 102.5,225.5 C 104.262,226.262 105.262,227.596 105.5,229.5C 103.738,228.738 102.738,227.404 102.5,225.5 Z"/></g>
<g><path style="opacity:1" fill="#1b2223" d="M 264.5,211.5 C 263.958,214.912 262.625,217.912 260.5,220.5C 258.75,221.659 257.75,223.326 257.5,225.5C 256.094,225.973 255.427,226.973 255.5,228.5C 254.094,228.973 253.427,229.973 253.5,231.5C 253.144,233.19 252.144,234.19 250.5,234.5C 248.621,233.105 247.621,231.105 247.5,228.5C 247.5,227.833 247.5,227.167 247.5,226.5C 249.181,223.797 250.847,221.131 252.5,218.5C 253.906,218.027 254.573,217.027 254.5,215.5C 255.227,213.046 256.227,210.713 257.5,208.5C 257.833,208.5 258.167,208.5 258.5,208.5C 259.156,209.278 259.989,209.944 261,210.5C 262.098,209.616 262.598,208.616 262.5,207.5C 263.705,208.577 264.372,209.91 264.5,211.5 Z"/></g>
<g><path style="opacity:0.098" fill="#c6cecc" d="M 257.5,225.5 C 257.573,227.027 256.906,228.027 255.5,228.5C 255.427,226.973 256.094,225.973 257.5,225.5 Z"/></g>
<g><path style="opacity:0.396" fill="#a7acae" d="M 247.5,226.5 C 247.5,227.167 247.5,227.833 247.5,228.5C 246.833,228.833 246.167,229.167 245.5,229.5C 245.427,227.973 246.094,226.973 247.5,226.5 Z"/></g>
<g><path style="opacity:0.094" fill="#d1d2d3" d="M 255.5,228.5 C 255.573,230.027 254.906,231.027 253.5,231.5C 253.427,229.973 254.094,228.973 255.5,228.5 Z"/></g>
<g><path style="opacity:0.725" fill="#9ca0a2" d="M 107.5,231.5 C 110.833,234.167 113.833,237.167 116.5,240.5C 112.5,238.5 109.5,235.5 107.5,231.5 Z"/></g>
<g><path style="opacity:0.251" fill="#a9adad" d="M 91.5,229.5 C 93.5869,230.585 94.9202,232.251 95.5,234.5C 93.4131,233.415 92.0798,231.749 91.5,229.5 Z"/></g>
<g><path style="opacity:0.012" fill="#dbdddf" d="M 98.5,232.5 C 99.9063,232.973 100.573,233.973 100.5,235.5C 99.0937,235.027 98.427,234.027 98.5,232.5 Z"/></g>
<g><path style="opacity:1" fill="#1a2122" d="M 247.5,228.5 C 247.621,231.105 248.621,233.105 250.5,234.5C 247.206,240.127 242.873,244.794 237.5,248.5C 237.167,248.5 236.833,248.5 236.5,248.5C 234.576,246.91 234.243,245.076 235.5,243C 234.181,242.805 232.847,242.972 231.5,243.5C 232.585,241.413 234.251,240.08 236.5,239.5C 239.573,237.431 241.906,234.764 243.5,231.5C 243.833,230.5 244.5,229.833 245.5,229.5C 246.167,229.167 246.833,228.833 247.5,228.5 Z"/></g>
<g><path style="opacity:0.667" fill="#7d8285" d="M 257.5,232.5 C 257.262,234.404 256.262,235.738 254.5,236.5C 254.738,234.596 255.738,233.262 257.5,232.5 Z"/></g>
<g><path style="opacity:1" fill="#242b2c" d="M 271.5,222.5 C 268.764,229.641 264.764,235.974 259.5,241.5C 258.68,239.86 257.847,238.193 257,236.5C 256.517,237.448 256.351,238.448 256.5,239.5C 255.167,239.5 253.833,239.5 252.5,239.5C 252.5,239.167 252.5,238.833 252.5,238.5C 252.833,237.5 253.5,236.833 254.5,236.5C 256.262,235.738 257.262,234.404 257.5,232.5C 258.11,230.566 259.11,228.899 260.5,227.5C 261.167,227.167 261.833,226.833 262.5,226.5C 262.5,227.5 262.5,228.5 262.5,229.5C 263.978,229.762 265.311,229.429 266.5,228.5C 267.641,227.575 267.641,226.741 266.5,226C 268.365,225.036 270.032,223.869 271.5,222.5 Z"/></g>
<g><path style="opacity:0.635" fill="#a4acaa" d="M 95.5,234.5 C 97.2624,235.262 98.2624,236.596 98.5,238.5C 96.7376,237.738 95.7376,236.404 95.5,234.5 Z"/></g>
<g><path style="opacity:1" fill="#161d21" d="M 84.5,218.5 C 85.1667,219.167 85.8333,219.833 86.5,220.5C 87.3382,220.842 87.6716,221.508 87.5,222.5C 87.427,224.027 88.0937,225.027 89.5,225.5C 90.6737,226.514 91.3404,227.847 91.5,229.5C 92.0798,231.749 93.4131,233.415 95.5,234.5C 95.7376,236.404 96.7376,237.738 98.5,238.5C 100.094,241.764 102.427,244.431 105.5,246.5C 107.404,246.738 108.738,247.738 109.5,249.5C 109.5,249.833 109.5,250.167 109.5,250.5C 108.883,250.389 108.383,250.056 108,249.5C 106.302,250.741 104.802,252.074 103.5,253.5C 103.167,253.5 102.833,253.5 102.5,253.5C 99.8333,251.5 97.5,249.167 95.5,246.5C 95.573,244.973 94.9063,243.973 93.5,243.5C 93.1667,242.5 92.5,241.833 91.5,241.5C 90.8333,241.5 90.5,241.167 90.5,240.5C 90.573,238.973 89.9063,237.973 88.5,237.5C 85.6869,234.554 83.3535,231.221 81.5,227.5C 81.5774,226.25 82.244,225.417 83.5,225C 82.3659,223.984 82.6992,223.317 84.5,223C 84.0338,221.701 84.0338,220.201 84.5,218.5 Z"/></g>
<g><path style="opacity:1" fill="#151c1d" d="M 148.5,184.5 C 148.333,203.17 148.5,221.836 149,240.5C 149.333,238.5 149.667,236.5 150,234.5C 152.071,231.584 153.405,231.918 154,235.5C 154.278,234.584 154.778,233.918 155.5,233.5C 155.263,234.791 155.596,235.791 156.5,236.5C 168.5,236.5 180.5,236.5 192.5,236.5C 192.5,237.5 192.5,238.5 192.5,239.5C 190.801,239.34 189.134,239.506 187.5,240C 190.501,241.407 193.501,241.574 196.5,240.5C 196.5,241.167 196.5,241.833 196.5,242.5C 181.339,244.431 166.006,245.098 150.5,244.5C 149.542,244.047 148.708,243.381 148,242.5C 147.171,222.996 147.338,203.662 148.5,184.5 Z"/></g>
<g><path style="opacity:0.482" fill="#9b9fa0" d="M 243.5,231.5 C 241.906,234.764 239.573,237.431 236.5,239.5C 238.094,236.236 240.427,233.569 243.5,231.5 Z"/></g>
<g><path style="opacity:0.004" fill="#c6caca" d="M 88.5,237.5 C 89.9063,237.973 90.573,238.973 90.5,240.5C 89.0937,240.027 88.427,239.027 88.5,237.5 Z"/></g>
<g><path style="opacity:0.835" fill="#8f9697" d="M 98.5,238.5 C 101.573,240.569 103.906,243.236 105.5,246.5C 102.427,244.431 100.094,241.764 98.5,238.5 Z"/></g>
<g><path style="opacity:0.004" fill="#d3d7d8" d="M 91.5,241.5 C 92.5,241.833 93.1667,242.5 93.5,243.5C 92.1667,243.5 91.5,242.833 91.5,241.5 Z"/></g>
<g><path style="opacity:0.02" fill="#cfd2d3" d="M 259.5,241.5 C 259.262,243.404 258.262,244.738 256.5,245.5C 256.5,244.833 256.5,244.167 256.5,243.5C 257.5,242.833 258.5,242.167 259.5,241.5 Z"/></g>
<g><path style="opacity:0.376" fill="#abb0b1" d="M 252.5,238.5 C 252.5,238.833 252.5,239.167 252.5,239.5C 250.5,242.167 248.167,244.5 245.5,246.5C 247.094,243.236 249.427,240.569 252.5,238.5 Z"/></g>
<g><path style="opacity:0.012" fill="#c3c5c7" d="M 93.5,243.5 C 94.9063,243.973 95.573,244.973 95.5,246.5C 94.0937,246.027 93.427,245.027 93.5,243.5 Z"/></g>
<g><path style="opacity:0.635" fill="#7e8486" d="M 231.5,243.5 C 230.738,245.262 229.404,246.262 227.5,246.5C 228.262,244.738 229.596,243.738 231.5,243.5 Z"/></g>
<g><path style="opacity:0.741" fill="#989b9c" d="M 110.5,245.5 C 112.411,246.075 114.078,247.075 115.5,248.5C 115.5,248.833 115.5,249.167 115.5,249.5C 113.251,248.92 111.585,247.587 110.5,245.5 Z"/></g>
<g><path style="opacity:1" fill="#1b2122" d="M 236.5,248.5 C 235.5,248.833 234.833,249.5 234.5,250.5C 234.5,251.167 234.167,251.5 233.5,251.5C 231.973,251.427 230.973,252.094 230.5,253.5C 228.371,255.95 225.704,257.617 222.5,258.5C 224.678,253.026 222.678,251.359 216.5,253.5C 216.973,252.094 217.973,251.427 219.5,251.5C 221.027,251.573 222.027,250.906 222.5,249.5C 222.842,248.662 223.508,248.328 224.5,248.5C 226.027,248.573 227.027,247.906 227.5,246.5C 229.404,246.262 230.738,245.262 231.5,243.5C 232.847,242.972 234.181,242.805 235.5,243C 234.243,245.076 234.576,246.91 236.5,248.5 Z"/></g>
<g><path style="opacity:0.906" fill="#7f888c" d="M 122.5,245.5 C 124.23,246.026 125.564,247.026 126.5,248.5C 124.368,248.446 123.035,247.446 122.5,245.5 Z"/></g>
<g><path style="opacity:1" fill="#414849" d="M 256.5,243.5 C 256.5,244.167 256.5,244.833 256.5,245.5C 253.833,248.833 250.833,251.833 247.5,254.5C 247.586,253.504 247.252,252.671 246.5,252C 247.448,251.517 248.448,251.351 249.5,251.5C 250.689,250.205 251.522,248.205 252,245.5C 253.33,244.418 254.83,243.751 256.5,243.5 Z"/></g>
<g><path style="opacity:0.718" fill="#86888d" d="M 227.5,246.5 C 227.027,247.906 226.027,248.573 224.5,248.5C 224.973,247.094 225.973,246.427 227.5,246.5 Z"/></g>
<g><path style="opacity:0.999" fill="#0e1519" d="M 259.5,241.5 C 258.5,242.167 257.5,242.833 256.5,243.5C 254.83,243.751 253.33,244.418 252,245.5C 251.522,248.205 250.689,250.205 249.5,251.5C 248.448,251.351 247.448,251.517 246.5,252C 247.252,252.671 247.586,253.504 247.5,254.5C 245.596,254.738 244.262,255.738 243.5,257.5C 243.167,258.5 242.5,259.167 241.5,259.5C 240.971,257.216 239.971,255.216 238.5,253.5C 239.551,252.778 240.218,251.778 240.5,250.5C 242.981,250.226 244.647,248.893 245.5,246.5C 248.167,244.5 250.5,242.167 252.5,239.5C 253.833,239.5 255.167,239.5 256.5,239.5C 256.351,238.448 256.517,237.448 257,236.5C 257.847,238.193 258.68,239.86 259.5,241.5 Z"/></g>
<g><path style="opacity:0.004" fill="#d3d5d7" d="M 109.5,250.5 C 109.5,250.167 109.5,249.833 109.5,249.5C 110.833,249.5 111.5,250.167 111.5,251.5C 110.833,251.167 110.167,250.833 109.5,250.5 Z"/></g>
<g><path style="opacity:0.008" fill="#dde0e1" d="M 236.5,248.5 C 236.833,248.5 237.167,248.5 237.5,248.5C 237.027,249.906 236.027,250.573 234.5,250.5C 234.833,249.5 235.5,248.833 236.5,248.5 Z"/></g>
<g><path style="opacity:1" fill="#5e6265" d="M 245.5,246.5 C 244.647,248.893 242.981,250.226 240.5,250.5C 241.585,248.413 243.251,247.08 245.5,246.5 Z"/></g>
<g><path style="opacity:0.514" fill="#b1b5bc" d="M 222.5,249.5 C 222.027,250.906 221.027,251.573 219.5,251.5C 219.973,250.094 220.973,249.427 222.5,249.5 Z"/></g>
<g><path style="opacity:1" fill="#1c2224" d="M 116.5,240.5 C 118.54,242.177 120.54,243.844 122.5,245.5C 123.035,247.446 124.368,248.446 126.5,248.5C 129.511,249.669 132.178,251.336 134.5,253.5C 129.759,252.594 127.759,254.26 128.5,258.5C 127.508,258.672 126.842,258.338 126.5,257.5C 126.027,256.094 125.027,255.427 123.5,255.5C 123.027,254.094 122.027,253.427 120.5,253.5C 120.027,252.094 119.027,251.427 117.5,251.5C 116.5,251.167 115.833,250.5 115.5,249.5C 115.5,249.167 115.5,248.833 115.5,248.5C 116.239,248.631 116.906,248.464 117.5,248C 116.185,246.605 116.519,245.605 118.5,245C 117.418,243.67 116.751,242.17 116.5,240.5 Z"/></g>
<g><path style="opacity:0.165" fill="#c8ccd0" d="M 117.5,251.5 C 119.027,251.427 120.027,252.094 120.5,253.5C 118.973,253.573 117.973,252.906 117.5,251.5 Z"/></g>
<g><path style="opacity:0.016" fill="#dedee4" d="M 233.5,251.5 C 233.027,252.906 232.027,253.573 230.5,253.5C 230.973,252.094 231.973,251.427 233.5,251.5 Z"/></g>
<g><path style="opacity:0.522" fill="#878c8f" d="M 240.5,250.5 C 240.218,251.778 239.551,252.778 238.5,253.5C 237.395,254.6 236.062,255.267 234.5,255.5C 235.891,253.11 237.891,251.443 240.5,250.5 Z"/></g>
<g><path style="opacity:0.635" fill="#9ba0a1" d="M 102.5,253.5 C 102.833,253.5 103.167,253.5 103.5,253.5C 104.5,253.833 105.167,254.5 105.5,255.5C 103.973,255.573 102.973,254.906 102.5,253.5 Z"/></g>
<g><path style="opacity:0.004" fill="#b9bebf" d="M 113.5,252.5 C 115.754,253.124 117.421,254.457 118.5,256.5C 116.205,255.864 114.539,254.531 113.5,252.5 Z"/></g>
<g><path style="opacity:0.161" fill="#b8bdbe" d="M 134.5,253.5 C 136.38,253.229 137.713,253.896 138.5,255.5C 136.847,255.34 135.514,254.674 134.5,253.5 Z"/></g>
<g><path style="opacity:0.314" fill="#b1b3b5" d="M 120.5,253.5 C 122.027,253.427 123.027,254.094 123.5,255.5C 121.973,255.573 120.973,254.906 120.5,253.5 Z"/></g>
<g><path style="opacity:0.675" fill="#979ca3" d="M 215.5,253.5 C 215.027,254.906 214.027,255.573 212.5,255.5C 212.973,254.094 213.973,253.427 215.5,253.5 Z"/></g>
<g><path style="opacity:1" fill="#1c2325" d="M 222.5,258.5 C 220.847,258.66 219.514,259.326 218.5,260.5C 218.5,261.167 218.167,261.5 217.5,261.5C 214.364,260.979 212.03,261.979 210.5,264.5C 209.209,264.263 208.209,264.596 207.5,265.5C 204.854,267.253 201.854,268.253 198.5,268.5C 196.901,268.232 195.568,268.566 194.5,269.5C 192.565,270.15 190.565,270.483 188.5,270.5C 189.598,269.603 189.598,268.77 188.5,268C 192.237,267.001 192.237,265.668 188.5,264C 186.866,263.506 185.199,263.34 183.5,263.5C 188.656,262.218 193.989,261.218 199.5,260.5C 202.716,260.655 205.383,259.655 207.5,257.5C 208.78,256.069 210.447,255.402 212.5,255.5C 214.027,255.573 215.027,254.906 215.5,253.5C 215.833,253.5 216.167,253.5 216.5,253.5C 222.678,251.359 224.678,253.026 222.5,258.5 Z"/></g>
<g><path style="opacity:1" fill="#181f21" d="M 238.5,253.5 C 239.971,255.216 240.971,257.216 241.5,259.5C 239.381,261.4 237.047,263.066 234.5,264.5C 232.011,264.241 230.344,265.241 229.5,267.5C 226.76,269.56 223.76,271.226 220.5,272.5C 219.5,272.5 218.5,272.5 217.5,272.5C 217.389,271.883 217.056,271.383 216.5,271C 217.891,269.98 219.391,269.147 221,268.5C 221.333,269.167 221.667,269.833 222,270.5C 222.914,268.336 224.081,266.336 225.5,264.5C 223.794,264.101 222.294,264.101 221,264.5C 220.623,265.942 219.79,266.942 218.5,267.5C 218.557,266.391 218.89,265.391 219.5,264.5C 220.514,263.326 221.847,262.66 223.5,262.5C 225.989,262.759 227.656,261.759 228.5,259.5C 230.027,259.573 231.027,258.906 231.5,257.5C 233.027,257.573 234.027,256.906 234.5,255.5C 236.062,255.267 237.395,254.6 238.5,253.5 Z"/></g>
<g><path style="opacity:0.004" fill="#d2d7d8" d="M 247.5,254.5 C 246.738,256.262 245.404,257.262 243.5,257.5C 244.262,255.738 245.596,254.738 247.5,254.5 Z"/></g>
<g><path style="opacity:0.004" fill="#cbccce" d="M 105.5,255.5 C 106.5,255.833 107.167,256.5 107.5,257.5C 106.167,257.5 105.5,256.833 105.5,255.5 Z"/></g>
<g><path style="opacity:0.302" fill="#b5b4b4" d="M 123.5,255.5 C 125.027,255.427 126.027,256.094 126.5,257.5C 124.973,257.573 123.973,256.906 123.5,255.5 Z"/></g>
<g><path style="opacity:0.325" fill="#b8bbc3" d="M 139.5,255.5 C 141.153,255.66 142.486,256.326 143.5,257.5C 141.62,257.771 140.287,257.104 139.5,255.5 Z"/></g>
<g><path style="opacity:0.698" fill="#858a8e" d="M 234.5,255.5 C 234.027,256.906 233.027,257.573 231.5,257.5C 231.973,256.094 232.973,255.427 234.5,255.5 Z"/></g>
<g><path style="opacity:0.804" fill="#83898e" d="M 107.5,257.5 C 109.404,257.738 110.738,258.738 111.5,260.5C 109.596,260.262 108.262,259.262 107.5,257.5 Z"/></g>
<g><path style="opacity:1" fill="#0f1618" d="M 134.5,253.5 C 135.514,254.674 136.847,255.34 138.5,255.5C 138.833,255.5 139.167,255.5 139.5,255.5C 140.287,257.104 141.62,257.771 143.5,257.5C 146.673,258.042 149.673,259.042 152.5,260.5C 154.838,262.04 157.505,262.706 160.5,262.5C 164.728,264.025 169.228,264.692 174,264.5C 177.352,264.498 180.518,264.165 183.5,263.5C 185.199,263.34 186.866,263.506 188.5,264C 192.237,265.668 192.237,267.001 188.5,268C 189.598,268.77 189.598,269.603 188.5,270.5C 180.5,270.5 172.5,270.5 164.5,270.5C 163.833,270.5 163.167,270.5 162.5,270.5C 160.435,270.483 158.435,270.15 156.5,269.5C 154.485,268.076 152.152,267.41 149.5,267.5C 149.167,267.5 148.833,267.5 148.5,267.5C 146.898,265.926 144.898,265.259 142.5,265.5C 141.097,264.069 139.431,262.902 137.5,262C 136.207,261.51 134.873,261.343 133.5,261.5C 132.508,261.672 131.842,261.338 131.5,260.5C 131.027,259.094 130.027,258.427 128.5,258.5C 127.759,254.26 129.759,252.594 134.5,253.5 Z"/></g>
<g><path style="opacity:0.659" fill="#8b9092" d="M 231.5,257.5 C 231.027,258.906 230.027,259.573 228.5,259.5C 228.973,258.094 229.973,257.427 231.5,257.5 Z"/></g>
<g><path style="opacity:0.071" fill="#caccd3" d="M 121.5,258.5 C 123.027,258.427 124.027,259.094 124.5,260.5C 122.973,260.573 121.973,259.906 121.5,258.5 Z"/></g>
<g><path style="opacity:0.196" fill="#bbbfc1" d="M 128.5,258.5 C 130.027,258.427 131.027,259.094 131.5,260.5C 129.973,260.573 128.973,259.906 128.5,258.5 Z"/></g>
<g><path style="opacity:0.89" fill="#565f5f" d="M 207.5,257.5 C 205.383,259.655 202.716,260.655 199.5,260.5C 201.848,258.903 204.514,257.903 207.5,257.5 Z"/></g>
<g><path style="opacity:0.149" fill="#bec1bf" d="M 222.5,258.5 C 221.713,260.104 220.38,260.771 218.5,260.5C 219.514,259.326 220.847,258.66 222.5,258.5 Z"/></g>
<g><path style="opacity:0.016" fill="#ced3d4" d="M 152.5,260.5 C 155.428,260.565 158.095,261.232 160.5,262.5C 157.505,262.706 154.838,262.04 152.5,260.5 Z"/></g>
<g><path style="opacity:0.608" fill="#7d8385" d="M 111.5,260.5 C 113.404,260.738 114.738,261.738 115.5,263.5C 113.596,263.262 112.262,262.262 111.5,260.5 Z"/></g>
<g><path style="opacity:0.949" fill="#7d8081" d="M 133.5,261.5 C 134.873,261.343 136.207,261.51 137.5,262C 139.431,262.902 141.097,264.069 142.5,265.5C 139.053,264.917 136.053,263.584 133.5,261.5 Z"/></g>
<g><path style="opacity:0.992" fill="#676c70" d="M 217.5,261.5 C 215.351,262.736 213.018,263.736 210.5,264.5C 212.03,261.979 214.364,260.979 217.5,261.5 Z"/></g>
<g><path style="opacity:1" fill="#575e62" d="M 228.5,259.5 C 227.656,261.759 225.989,262.759 223.5,262.5C 224.659,260.75 226.326,259.75 228.5,259.5 Z"/></g>
<g><path style="opacity:1" fill="#1c2225" d="M 109.5,250.5 C 110.167,250.833 110.833,251.167 111.5,251.5C 112.492,251.328 113.158,251.662 113.5,252.5C 114.539,254.531 116.205,255.864 118.5,256.5C 119.71,256.932 120.71,257.599 121.5,258.5C 121.973,259.906 122.973,260.573 124.5,260.5C 126.153,260.66 127.486,261.326 128.5,262.5C 128.821,264.048 129.821,264.715 131.5,264.5C 140.274,268.398 149.274,271.398 158.5,273.5C 155.482,273.335 152.482,273.502 149.5,274C 150.167,274.333 150.833,274.667 151.5,275C 150.829,275.986 150.829,277.153 151.5,278.5C 148.833,278.167 146.167,277.833 143.5,277.5C 143.167,277.5 142.833,277.5 142.5,277.5C 141.365,275.787 139.698,275.12 137.5,275.5C 131.538,273.853 126.205,271.186 121.5,267.5C 121.027,266.094 120.027,265.427 118.5,265.5C 118.027,264.094 117.027,263.427 115.5,263.5C 114.738,261.738 113.404,260.738 111.5,260.5C 110.738,258.738 109.404,257.738 107.5,257.5C 107.167,256.5 106.5,255.833 105.5,255.5C 105.167,254.5 104.5,253.833 103.5,253.5C 104.802,252.074 106.302,250.741 108,249.5C 108.383,250.056 108.883,250.389 109.5,250.5 Z"/></g>
<g><path style="opacity:0.827" fill="#808b8b" d="M 128.5,262.5 C 129.71,262.932 130.71,263.599 131.5,264.5C 129.821,264.715 128.821,264.048 128.5,262.5 Z"/></g>
<g><path style="opacity:0.247" fill="#a2a8ab" d="M 160.5,262.5 C 168.146,263.207 175.813,263.54 183.5,263.5C 180.518,264.165 177.352,264.498 174,264.5C 169.228,264.692 164.728,264.025 160.5,262.5 Z"/></g>
<g><path style="opacity:0.345" fill="#a6a9aa" d="M 115.5,263.5 C 117.027,263.427 118.027,264.094 118.5,265.5C 116.973,265.573 115.973,264.906 115.5,263.5 Z"/></g>
<g><path style="opacity:0.011" fill="#ececec" d="M 207.5,265.5 C 208.209,264.596 209.209,264.263 210.5,264.5C 211.167,265.167 211.833,265.833 212.5,266.5C 210.784,266.371 209.117,266.038 207.5,265.5 Z"/></g>
<g><path style="opacity:0.894" fill="#7b8484" d="M 234.5,264.5 C 233.101,265.89 231.434,266.89 229.5,267.5C 230.344,265.241 232.011,264.241 234.5,264.5 Z"/></g>
<g><path style="opacity:0.761" fill="#929598" d="M 142.5,265.5 C 144.898,265.259 146.898,265.926 148.5,267.5C 146.214,267.405 144.214,266.738 142.5,265.5 Z"/></g>
<g><path style="opacity:0.349" fill="#a2a6a8" d="M 118.5,265.5 C 120.027,265.427 121.027,266.094 121.5,267.5C 119.973,267.573 118.973,266.906 118.5,265.5 Z"/></g>
<g><path style="opacity:1" fill="#5d6269" d="M 219.5,264.5 C 218.89,265.391 218.557,266.391 218.5,267.5C 216.703,267.065 214.703,267.065 212.5,267.5C 212.5,267.167 212.5,266.833 212.5,266.5C 214.921,266.122 217.254,265.455 219.5,264.5 Z"/></g>
<g><path style="opacity:0.451" fill="#909497" d="M 149.5,267.5 C 152.152,267.41 154.485,268.076 156.5,269.5C 153.848,269.59 151.515,268.924 149.5,267.5 Z"/></g>
<g><path style="opacity:0.01" fill="#dde0e2" d="M 194.5,269.5 C 195.568,268.566 196.901,268.232 198.5,268.5C 198.631,269.239 198.464,269.906 198,270.5C 196.989,269.663 195.822,269.33 194.5,269.5 Z"/></g>
<g><path style="opacity:0.984" fill="#5b6163" d="M 212.5,267.5 C 210.824,269.834 208.491,270.834 205.5,270.5C 207.509,268.935 209.843,267.935 212.5,267.5 Z"/></g>
<g><path style="opacity:1" fill="#12181c" d="M 217.5,272.5 C 216.833,273.167 216.167,273.833 215.5,274.5C 215.158,275.338 214.492,275.672 213.5,275.5C 211.102,275.259 209.102,275.926 207.5,277.5C 205.485,278.924 203.152,279.59 200.5,279.5C 196.418,279.656 192.418,279.156 188.5,278C 189.337,276.989 189.67,275.822 189.5,274.5C 192.877,274.932 195.877,274.265 198.5,272.5C 201.152,272.59 203.485,271.924 205.5,270.5C 208.491,270.834 210.824,269.834 212.5,267.5C 214.703,267.065 216.703,267.065 218.5,267.5C 219.79,266.942 220.623,265.942 221,264.5C 222.294,264.101 223.794,264.101 225.5,264.5C 224.081,266.336 222.914,268.336 222,270.5C 221.667,269.833 221.333,269.167 221,268.5C 219.391,269.147 217.891,269.98 216.5,271C 217.056,271.383 217.389,271.883 217.5,272.5 Z"/></g>
<g><path style="opacity:0.004" fill="#fafafa" d="M 162.5,270.5 C 163.167,270.5 163.833,270.5 164.5,270.5C 164.5,270.833 164.5,271.167 164.5,271.5C 163.938,273.665 163.271,273.332 162.5,270.5 Z"/></g>
<g><path style="opacity:0.059" fill="#cdcfcf" d="M 164.5,271.5 C 164.5,271.167 164.5,270.833 164.5,270.5C 172.5,270.5 180.5,270.5 188.5,270.5C 180.693,272.466 172.693,272.799 164.5,271.5 Z"/></g>
<g><path style="opacity:0.835" fill="#71797b" d="M 205.5,270.5 C 203.485,271.924 201.152,272.59 198.5,272.5C 200.515,271.076 202.848,270.41 205.5,270.5 Z"/></g>
<g><path style="opacity:0.161" fill="#c3c7c8" d="M 217.5,272.5 C 218.5,272.5 219.5,272.5 220.5,272.5C 219.22,273.931 217.553,274.598 215.5,274.5C 216.167,273.833 216.833,273.167 217.5,272.5 Z"/></g>
<g><path style="opacity:0.765" fill="#8c8f92" d="M 137.5,275.5 C 139.698,275.12 141.365,275.787 142.5,277.5C 140.597,277.204 138.93,276.537 137.5,275.5 Z"/></g>
<g><path style="opacity:1" fill="#2a2f33" d="M 198.5,272.5 C 195.877,274.265 192.877,274.932 189.5,274.5C 189.67,275.822 189.337,276.989 188.5,278C 192.418,279.156 196.418,279.656 200.5,279.5C 196.434,281.018 192.101,281.851 187.5,282C 178.139,282.721 168.806,282.554 159.5,281.5C 157.095,280.232 154.428,279.565 151.5,279.5C 151.5,279.167 151.5,278.833 151.5,278.5C 150.829,277.153 150.829,275.986 151.5,275C 150.833,274.667 150.167,274.333 149.5,274C 152.482,273.502 155.482,273.335 158.5,273.5C 171.884,275.011 185.217,274.677 198.5,272.5 Z"/></g>
<g><path style="opacity:0.094" fill="#c2c7c8" d="M 213.5,275.5 C 211.786,276.738 209.786,277.405 207.5,277.5C 209.102,275.926 211.102,275.259 213.5,275.5 Z"/></g>
<g><path style="opacity:0.69" fill="#8a9395" d="M 143.5,277.5 C 146.167,277.833 148.833,278.167 151.5,278.5C 151.5,278.833 151.5,279.167 151.5,279.5C 148.505,279.706 145.838,279.04 143.5,277.5 Z"/></g>
<g><path style="opacity:0.267" fill="#afb3b5" d="M 151.5,279.5 C 154.428,279.565 157.095,280.232 159.5,281.5C 156.505,281.706 153.838,281.04 151.5,279.5 Z"/></g>
</svg>
