<?xml version="1.0" encoding="UTF-8"?>
<!DOCTYPE svg PUBLIC "-//W3C//DTD SVG 1.1//EN" "http://www.w3.org/Graphics/SVG/1.1/DTD/svg11.dtd">
<svg xmlns="http://www.w3.org/2000/svg" version="1.1" width="349px" height="344px" style="shape-rendering:geometricPrecision; text-rendering:geometricPrecision; image-rendering:optimizeQuality; fill-rule:evenodd; clip-rule:evenodd" xmlns:xlink="http://www.w3.org/1999/xlink">
<g><path style="opacity:0.886" fill="#7e7e7f" d="M 188.5,51.5 C 175.817,51.3742 163.15,51.7075 150.5,52.5C 156.838,51.0517 163.338,50.0517 170,49.5C 176.266,50.1486 182.433,50.8153 188.5,51.5 Z"/></g>
<g><path style="opacity:0.863" fill="#727677" d="M 145.5,53.5 C 143.485,54.9238 141.152,55.5905 138.5,55.5C 140.515,54.0762 142.848,53.4095 145.5,53.5 Z"/></g>
<g><path style="opacity:0.012" fill="#cdcdce" d="M 205.5,55.5 C 207.898,55.2594 209.898,55.9261 211.5,57.5C 209.214,57.405 207.214,56.7384 205.5,55.5 Z"/></g>
<g><path style="opacity:0.718" fill="#9d9d9d" d="M 137.5,55.5 C 135.898,57.0739 133.898,57.7406 131.5,57.5C 133.214,56.2616 135.214,55.595 137.5,55.5 Z"/></g>
<g><path style="opacity:0.369" fill="#b2b3b2" d="M 211.5,57.5 C 213.553,57.4021 215.22,58.0687 216.5,59.5C 214.447,59.5979 212.78,58.9313 211.5,57.5 Z"/></g>
<g><path style="opacity:1" fill="#4e4f4f" d="M 129.5,58.5 C 126.963,60.379 124.796,62.0457 123,63.5C 122.329,62.7476 121.496,62.4142 120.5,62.5C 123.088,60.3754 126.088,59.0421 129.5,58.5 Z"/></g>
<g><path style="opacity:1" fill="#111415" d="M 188.5,51.5 C 194.46,52.0748 200.126,53.4081 205.5,55.5C 207.214,56.7384 209.214,57.405 211.5,57.5C 212.78,58.9313 214.447,59.5979 216.5,59.5C 219.157,59.9348 221.491,60.9348 223.5,62.5C 224.659,64.2503 226.326,65.2503 228.5,65.5C 231.331,66.0787 233.664,67.412 235.5,69.5C 235.973,70.9063 236.973,71.573 238.5,71.5C 241.563,73.0252 244.23,75.0252 246.5,77.5C 246.833,78.5 247.5,79.1667 248.5,79.5C 249.492,79.3284 250.158,79.6618 250.5,80.5C 250.833,83.5 252.5,85.1667 255.5,85.5C 257.167,86.5 258.5,87.8333 259.5,89.5C 259.738,91.4044 260.738,92.7377 262.5,93.5C 263.5,93.8333 264.167,94.5 264.5,95.5C 264.738,97.4044 265.738,98.7377 267.5,99.5C 267.427,101.027 268.094,102.027 269.5,102.5C 269.427,104.027 270.094,105.027 271.5,105.5C 272.167,105.5 272.5,105.833 272.5,106.5C 272.427,108.027 273.094,109.027 274.5,109.5C 275.674,110.514 276.34,111.847 276.5,113.5C 276.66,115.153 277.326,116.486 278.5,117.5C 280.008,119.181 281.008,121.181 281.5,123.5C 281.12,125.698 281.787,127.365 283.5,128.5C 284.39,134.166 286.057,139.5 288.5,144.5C 289.15,146.435 289.483,148.435 289.5,150.5C 289.5,162.833 289.5,175.167 289.5,187.5C 289.373,192.151 288.373,196.485 286.5,200.5C 285.076,202.515 284.41,204.848 284.5,207.5C 280.896,219.38 275.229,230.047 267.5,239.5C 265.127,240.294 262.794,241.294 260.5,242.5C 259.289,243.274 259.289,244.107 260.5,245C 259.069,245.465 257.903,246.299 257,247.5C 255.951,246.483 254.784,246.316 253.5,247C 254.374,250.859 252.874,253.692 249,255.5C 247.285,255.48 245.452,254.814 243.5,253.5C 242.239,255.562 242.739,257.228 245,258.5C 245.71,257.027 246.876,256.36 248.5,256.5C 248.5,257.833 248.5,259.167 248.5,260.5C 247.205,261.488 245.872,262.488 244.5,263.5C 242.973,263.427 241.973,264.094 241.5,265.5C 240.738,267.262 239.404,268.262 237.5,268.5C 235.801,268.34 234.134,268.506 232.5,269C 233.252,269.671 233.586,270.504 233.5,271.5C 233.158,272.338 232.492,272.672 231.5,272.5C 228.923,272.455 226.923,273.455 225.5,275.5C 211.736,283.532 196.736,288.032 180.5,289C 167.933,289.886 155.6,288.72 143.5,285.5C 140.916,283.528 137.916,282.528 134.5,282.5C 132.898,280.926 130.898,280.259 128.5,280.5C 127.365,278.787 125.698,278.12 123.5,278.5C 122.047,277.175 122.381,276.342 124.5,276C 122.19,275.503 119.857,275.337 117.5,275.5C 116.555,272.013 114.222,270.68 110.5,271.5C 110.027,270.094 109.027,269.427 107.5,269.5C 107.027,268.094 106.027,267.427 104.5,267.5C 103.738,265.738 102.404,264.738 100.5,264.5C 99.7377,262.738 98.4044,261.738 96.5,261.5C 95.4154,259.413 93.7488,258.08 91.5,257.5C 87.8333,254.5 84.5,251.167 81.5,247.5C 81.573,245.973 80.9063,244.973 79.5,244.5C 72.1495,237.134 66.8162,228.467 63.5,218.5C 63.913,215.68 62.913,213.68 60.5,212.5C 59.2616,210.786 58.595,208.786 58.5,206.5C 58.405,204.214 57.7384,202.214 56.5,200.5C 54.7619,195.346 53.7619,190.012 53.5,184.5C 53.5,174.167 53.5,163.833 53.5,153.5C 53.448,151.097 53.7814,148.764 54.5,146.5C 55.7682,144.095 56.4349,141.428 56.5,138.5C 56.5,138.167 56.5,137.833 56.5,137.5C 58.0739,135.898 58.7406,133.898 58.5,131.5C 60.7689,123.633 64.1022,116.299 68.5,109.5C 69.9063,109.027 70.573,108.027 70.5,106.5C 72.2624,105.738 73.2624,104.404 73.5,102.5C 74.9063,102.027 75.573,101.027 75.5,99.5C 77.2624,98.7377 78.2624,97.4044 78.5,95.5C 79.5,95.1667 80.1667,94.5 80.5,93.5C 81.9063,93.0269 82.573,92.0269 82.5,90.5C 82.8333,89.5 83.5,88.8333 84.5,88.5C 86.5,88.5 87.5,87.5 87.5,85.5C 87.8333,84.5 88.5,83.8333 89.5,83.5C 91.7488,82.9202 93.4154,81.5869 94.5,79.5C 96.7488,78.9202 98.4154,77.5869 99.5,75.5C 101.404,75.2624 102.738,74.2624 103.5,72.5C 108.641,68.3774 114.308,65.0441 120.5,62.5C 121.496,62.4142 122.329,62.7476 123,63.5C 124.796,62.0457 126.963,60.379 129.5,58.5C 129.842,57.6618 130.508,57.3284 131.5,57.5C 133.898,57.7406 135.898,57.0739 137.5,55.5C 137.833,55.5 138.167,55.5 138.5,55.5C 141.152,55.5905 143.485,54.9238 145.5,53.5C 146.919,52.5489 148.585,52.2155 150.5,52.5C 163.15,51.7075 175.817,51.3742 188.5,51.5 Z M 179.5,65.5 C 183.639,66.5629 187.972,67.2296 192.5,67.5C 192.833,67.5 193.167,67.5 193.5,67.5C 195.599,68.6118 197.933,69.2785 200.5,69.5C 200.833,69.5 201.167,69.5 201.5,69.5C 205.666,71.4088 209.999,73.0755 214.5,74.5C 216.849,76.341 219.515,77.6743 222.5,78.5C 222.973,79.9063 223.973,80.573 225.5,80.5C 225.842,81.3382 226.508,81.6716 227.5,81.5C 228.262,83.2624 229.596,84.2624 231.5,84.5C 231.973,85.9063 232.973,86.573 234.5,86.5C 235.585,88.5869 237.251,89.9202 239.5,90.5C 241.833,93.5 244.5,96.1667 247.5,98.5C 248.5,100.167 249.833,101.5 251.5,102.5C 251.427,104.027 252.094,105.027 253.5,105.5C 254.604,107.389 255.937,109.055 257.5,110.5C 257.427,112.027 258.094,113.027 259.5,113.5C 260.596,116.032 261.929,118.365 263.5,120.5C 265.264,125.022 267.264,129.355 269.5,133.5C 269.595,135.786 270.262,137.786 271.5,139.5C 272.249,143.582 273.249,147.582 274.5,151.5C 275.782,162.169 275.782,172.835 274.5,183.5C 273.392,188.484 272.392,193.484 271.5,198.5C 270.262,200.214 269.595,202.214 269.5,204.5C 269.5,204.833 269.5,205.167 269.5,205.5C 266.93,210.311 264.597,215.311 262.5,220.5C 260.75,221.659 259.75,223.326 259.5,225.5C 258.094,225.973 257.427,226.973 257.5,228.5C 255.738,229.262 254.738,230.596 254.5,232.5C 252.413,233.585 251.08,235.251 250.5,237.5C 246.167,241.167 242.167,245.167 238.5,249.5C 236.251,250.08 234.585,251.413 233.5,253.5C 231.596,253.738 230.262,254.738 229.5,256.5C 228.508,256.328 227.842,256.662 227.5,257.5C 225.973,257.427 224.973,258.094 224.5,259.5C 222.973,259.427 221.973,260.094 221.5,261.5C 219.62,261.229 218.287,261.896 217.5,263.5C 216.508,263.328 215.842,263.662 215.5,264.5C 213.62,264.229 212.287,264.896 211.5,266.5C 211.167,266.5 210.833,266.5 210.5,266.5C 208.597,266.796 206.93,267.463 205.5,268.5C 203.214,268.595 201.214,269.262 199.5,270.5C 199.167,270.5 198.833,270.5 198.5,270.5C 195.627,270.802 192.961,271.469 190.5,272.5C 175.046,274.255 159.713,273.589 144.5,270.5C 142.786,269.262 140.786,268.595 138.5,268.5C 136.786,267.262 134.786,266.595 132.5,266.5C 126.999,263.249 121.333,260.249 115.5,257.5C 114.564,256.026 113.23,255.026 111.5,254.5C 111.167,254.5 110.833,254.5 110.5,254.5C 110.19,252.856 109.19,251.856 107.5,251.5C 107.027,250.094 106.027,249.427 104.5,249.5C 103.167,247.5 101.5,245.833 99.5,244.5C 98.1667,242.5 96.5,240.833 94.5,239.5C 93.8333,238.167 92.8333,237.167 91.5,236.5C 91.2624,234.596 90.2624,233.262 88.5,232.5C 88.2624,230.596 87.2624,229.262 85.5,228.5C 85.6716,227.508 85.3382,226.842 84.5,226.5C 84.573,224.973 83.9063,223.973 82.5,223.5C 82.573,221.973 81.9063,220.973 80.5,220.5C 79.0698,216.646 77.4031,212.979 75.5,209.5C 75.2041,207.597 74.5375,205.93 73.5,204.5C 73.405,202.214 72.7384,200.214 71.5,198.5C 71.5,198.167 71.5,197.833 71.5,197.5C 71.2785,194.933 70.6118,192.599 69.5,190.5C 69.552,188.097 69.2186,185.764 68.5,183.5C 67.7623,172.762 67.7623,162.096 68.5,151.5C 69.9915,147.736 70.9915,143.736 71.5,139.5C 72.5375,138.07 73.2041,136.403 73.5,134.5C 75.8308,129.171 78.1641,123.838 80.5,118.5C 81.9063,118.027 82.573,117.027 82.5,115.5C 82.8333,114.833 83.1667,114.167 83.5,113.5C 84.9063,113.027 85.573,112.027 85.5,110.5C 87.0627,109.055 88.396,107.389 89.5,105.5C 90.9063,105.027 91.573,104.027 91.5,102.5C 94.5,100.167 97.1667,97.5 99.5,94.5C 104.524,90.4697 109.524,86.4697 114.5,82.5C 119.059,80.3903 123.392,78.057 127.5,75.5C 129.819,75.0075 131.819,74.0075 133.5,72.5C 148.391,67.5627 163.725,65.2294 179.5,65.5 Z M 165.5,126.5 C 168.5,126.5 171.5,126.5 174.5,126.5C 177.341,127.669 180.341,128.669 183.5,129.5C 184.965,130.737 186.632,131.737 188.5,132.5C 190.167,134.833 192.167,136.833 194.5,138.5C 195.833,140.833 197.167,143.167 198.5,145.5C 198.721,148.067 199.388,150.401 200.5,152.5C 200.5,155.167 200.5,157.833 200.5,160.5C 199.388,162.599 198.721,164.933 198.5,167.5C 197.326,168.514 196.66,169.847 196.5,171.5C 195.026,172.436 194.026,173.77 193.5,175.5C 191.142,177.529 188.808,179.529 186.5,181.5C 184.973,181.427 183.973,182.094 183.5,183.5C 173.23,186.65 163.23,185.983 153.5,181.5C 152.564,180.026 151.23,179.026 149.5,178.5C 140.18,168.25 137.847,156.584 142.5,143.5C 146.548,137.118 151.882,132.118 158.5,128.5C 161.152,128.59 163.485,127.924 165.5,126.5 Z M 172.5,89.5 C 173.391,90.1098 174.391,90.4431 175.5,90.5C 174.075,91.922 173.075,93.5887 172.5,95.5C 171.833,95.5 171.5,95.8333 171.5,96.5C 170.391,96.4431 169.391,96.1098 168.5,95.5C 169.415,93.2459 170.748,91.2459 172.5,89.5 Z M 99.5,162.5 C 100.092,165.815 98.5916,168.149 95,169.5C 93.9701,169.164 93.4701,168.497 93.5,167.5C 94.5,167.167 95.1667,166.5 95.5,165.5C 96.8333,164.5 98.1667,163.5 99.5,162.5 Z M 247.5,163.5 C 248.5,163.5 249.5,163.5 250.5,163.5C 249.925,165.411 248.925,167.078 247.5,168.5C 246.292,169.234 244.959,169.567 243.5,169.5C 244.037,166.964 245.37,164.964 247.5,163.5 Z M 172.5,240.5 C 173.167,240.5 173.833,240.5 174.5,240.5C 175.11,241.391 175.443,242.391 175.5,243.5C 174.833,243.5 174.5,243.833 174.5,244.5C 173.185,245.476 171.852,246.476 170.5,247.5C 169.478,247.145 168.811,246.478 168.5,245.5C 169.551,244.778 170.218,243.778 170.5,242.5C 171.833,242.5 172.5,241.833 172.5,240.5 Z"/></g>
<g><path style="opacity:0.247" fill="#b9baba" d="M 223.5,62.5 C 225.674,62.7497 227.341,63.7497 228.5,65.5C 226.326,65.2503 224.659,64.2503 223.5,62.5 Z"/></g>
<g><path style="opacity:0.737" fill="#9a9d9c" d="M 179.5,65.5 C 182.85,65.335 186.183,65.5017 189.5,66C 190.737,66.2321 191.737,66.7321 192.5,67.5C 187.972,67.2296 183.639,66.5629 179.5,65.5 Z"/></g>
<g><path style="opacity:0.745" fill="#949895" d="M 193.5,67.5 C 196.228,67.1706 198.562,67.8372 200.5,69.5C 197.933,69.2785 195.599,68.6118 193.5,67.5 Z"/></g>
<g><path style="opacity:1" fill="#535456" d="M 201.5,69.5 C 204.417,70.2911 207.25,70.2911 210,69.5C 210.483,70.448 210.649,71.448 210.5,72.5C 212.38,72.2291 213.713,72.8958 214.5,74.5C 209.999,73.0755 205.666,71.4088 201.5,69.5 Z"/></g>
<g><path style="opacity:0.102" fill="#cacacb" d="M 235.5,69.5 C 237.027,69.427 238.027,70.0937 238.5,71.5C 236.973,71.573 235.973,70.9063 235.5,69.5 Z"/></g>
<g><path style="opacity:0.702" fill="#818281" d="M 103.5,72.5 C 102.738,74.2624 101.404,75.2624 99.5,75.5C 100.262,73.7376 101.596,72.7376 103.5,72.5 Z"/></g>
<g><path style="opacity:0.153" fill="#c0c0c2" d="M 133.5,72.5 C 131.819,74.0075 129.819,75.0075 127.5,75.5C 128.911,73.461 130.911,72.461 133.5,72.5 Z"/></g>
<g><path style="opacity:0.629" fill="#989999" d="M 177.5,78.5 C 173.102,78.2941 168.768,78.6274 164.5,79.5C 164.611,78.8826 164.944,78.3826 165.5,78C 167.764,77.7638 169.931,77.2638 172,76.5C 173.948,77.1094 175.782,77.776 177.5,78.5 Z"/></g>
<g><path style="opacity:0.004" fill="#d2d3d3" d="M 246.5,77.5 C 247.833,77.5 248.5,78.1667 248.5,79.5C 247.5,79.1667 246.833,78.5 246.5,77.5 Z"/></g>
<g><path style="opacity:0.91" fill="#626666" d="M 99.5,75.5 C 98.4154,77.5869 96.7488,78.9202 94.5,79.5C 95.5846,77.4131 97.2512,76.0798 99.5,75.5 Z"/></g>
<g><path style="opacity:0.38" fill="#a1a1a2" d="M 222.5,78.5 C 224.027,78.427 225.027,79.0937 225.5,80.5C 223.973,80.573 222.973,79.9063 222.5,78.5 Z"/></g>
<g><path style="opacity:0.467" fill="#acaeae" d="M 163.5,79.5 C 162.167,81.5 160.5,83.1667 158.5,84.5C 159.167,81.8333 160.833,80.1667 163.5,79.5 Z"/></g>
<g><path style="opacity:0.659" fill="#909494" d="M 94.5,79.5 C 93.4154,81.5869 91.7488,82.9202 89.5,83.5C 90.5846,81.4131 92.2512,80.0798 94.5,79.5 Z"/></g>
<g><path style="opacity:0.549" fill="#8f9093" d="M 227.5,81.5 C 229.404,81.7376 230.738,82.7376 231.5,84.5C 229.596,84.2624 228.262,83.2624 227.5,81.5 Z"/></g>
<g><path style="opacity:0.875" fill="#6e6f6f" d="M 250.5,80.5 C 252.5,81.8333 254.167,83.5 255.5,85.5C 252.5,85.1667 250.833,83.5 250.5,80.5 Z"/></g>
<g><path style="opacity:0.38" fill="#a7a9aa" d="M 231.5,84.5 C 233.027,84.427 234.027,85.0937 234.5,86.5C 232.973,86.573 231.973,85.9063 231.5,84.5 Z"/></g>
<g><path style="opacity:0.298" fill="#a0a2a3" d="M 184.5,84.5 C 185.906,84.9731 186.573,85.9731 186.5,87.5C 185.094,87.0269 184.427,86.0269 184.5,84.5 Z"/></g>
<g><path style="opacity:0.761" fill="#797d7a" d="M 87.5,85.5 C 87.5,87.5 86.5,88.5 84.5,88.5C 85.1667,87.1667 86.1667,86.1667 87.5,85.5 Z"/></g>
<g><path style="opacity:0.384" fill="#9a9b9c" d="M 234.5,86.5 C 236.749,87.0798 238.415,88.4131 239.5,90.5C 237.251,89.9202 235.585,88.5869 234.5,86.5 Z"/></g>
<g><path style="opacity:1" fill="#3c3d3e" d="M 114.5,82.5 C 109.524,86.4697 104.524,90.4697 99.5,94.5C 99.4226,93.2502 98.756,92.4169 97.5,92C 99.0589,91.0201 100.726,90.1867 102.5,89.5C 102.291,88.914 101.957,88.414 101.5,88C 102.833,87.6667 104.167,87.3333 105.5,87C 105.043,86.586 104.709,86.086 104.5,85.5C 107.809,84.2847 111.142,83.2847 114.5,82.5 Z"/></g>
<g><path style="opacity:0.737" fill="#989899" d="M 259.5,89.5 C 261.262,90.2623 262.262,91.5956 262.5,93.5C 260.738,92.7377 259.738,91.4044 259.5,89.5 Z"/></g>
<g><path style="opacity:0.592" fill="#a0a4a4" d="M 82.5,90.5 C 82.573,92.0269 81.9063,93.0269 80.5,93.5C 80.427,91.9731 81.0937,90.9731 82.5,90.5 Z"/></g>
<g><path style="opacity:0.482" fill="#9b9c9c" d="M 157.5,85.5 C 156.838,89.4659 156.505,93.4659 156.5,97.5C 155.842,96.2067 155.508,94.7067 155.5,93C 155.408,90.1789 156.074,87.6789 157.5,85.5 Z"/></g>
<g><path style="opacity:0.992" fill="#4d4e4d" d="M 239.5,90.5 C 241.315,91.6298 243.315,92.2964 245.5,92.5C 245.704,94.6854 246.37,96.6854 247.5,98.5C 244.5,96.1667 241.833,93.5 239.5,90.5 Z"/></g>
<g><path style="opacity:0.31" fill="#c1c1c1" d="M 80.5,93.5 C 80.1667,94.5 79.5,95.1667 78.5,95.5C 78.5,94.1667 79.1667,93.5 80.5,93.5 Z"/></g>
<g><path style="opacity:0.969" fill="#545554" d="M 143.5,94.5 C 138.62,95.087 133.953,96.4204 129.5,98.5C 133.441,94.1748 138.107,92.8414 143.5,94.5 Z"/></g>
<g><path style="opacity:0.886" fill="#757573" d="M 208.5,95.5 C 205.167,94.1667 201.833,94.1667 198.5,95.5C 198.611,94.8826 198.944,94.3826 199.5,94C 202.167,93.3333 204.833,93.3333 207.5,94C 208.056,94.3826 208.389,94.8826 208.5,95.5 Z"/></g>
<g><path style="opacity:0.733" fill="#949898" d="M 78.5,95.5 C 78.2624,97.4044 77.2624,98.7377 75.5,99.5C 75.7376,97.5956 76.7376,96.2623 78.5,95.5 Z"/></g>
<g><path style="opacity:0.761" fill="#959999" d="M 264.5,95.5 C 266.262,96.2623 267.262,97.5956 267.5,99.5C 265.738,98.7377 264.738,97.4044 264.5,95.5 Z"/></g>
<g><path style="opacity:0.145" fill="#c7c8c8" d="M 144.5,95.5 C 145.993,96.3121 146.66,97.6455 146.5,99.5C 146.66,101.355 145.993,102.688 144.5,103.5C 145.833,100.833 145.833,98.1667 144.5,95.5 Z"/></g>
<g><path style="opacity:0.941" fill="#828483" d="M 157.5,100.5 C 159.785,102.118 161.785,104.118 163.5,106.5C 160.522,105.522 158.522,103.522 157.5,100.5 Z"/></g>
<g><path style="opacity:0.522" fill="#8b8c8b" d="M 75.5,99.5 C 75.573,101.027 74.9063,102.027 73.5,102.5C 73.427,100.973 74.0937,99.9731 75.5,99.5 Z"/></g>
<g><path style="opacity:0.506" fill="#868887" d="M 267.5,99.5 C 268.906,99.9731 269.573,100.973 269.5,102.5C 268.094,102.027 267.427,101.027 267.5,99.5 Z"/></g>
<g><path style="opacity:0.024" fill="#cccdcd" d="M 91.5,102.5 C 91.573,104.027 90.9063,105.027 89.5,105.5C 89.427,103.973 90.0937,102.973 91.5,102.5 Z"/></g>
<g><path style="opacity:0.765" fill="#8a8a8b" d="M 125.5,100.5 C 124.415,102.587 122.749,103.92 120.5,104.5C 121.585,102.413 123.251,101.08 125.5,100.5 Z"/></g>
<g><path style="opacity:0.027" fill="#cacaca" d="M 251.5,102.5 C 252.906,102.973 253.573,103.973 253.5,105.5C 252.094,105.027 251.427,104.027 251.5,102.5 Z"/></g>
<g><path style="opacity:0.643" fill="#87888a" d="M 73.5,102.5 C 73.2624,104.404 72.2624,105.738 70.5,106.5C 70.7376,104.596 71.7376,103.262 73.5,102.5 Z"/></g>
<g><path style="opacity:0.02" fill="#cacacb" d="M 222.5,104.5 C 224.027,104.427 225.027,105.094 225.5,106.5C 223.973,106.573 222.973,105.906 222.5,104.5 Z"/></g>
<g><path style="opacity:0.561" fill="#787d7d" d="M 269.5,102.5 C 270.906,102.973 271.573,103.973 271.5,105.5C 270.094,105.027 269.427,104.027 269.5,102.5 Z"/></g>
<g><path style="opacity:0.651" fill="#838584" d="M 119.5,105.5 C 118.415,107.587 116.749,108.92 114.5,109.5C 115.585,107.413 117.251,106.08 119.5,105.5 Z"/></g>
<g><path style="opacity:0.204" fill="#c0c3c3" d="M 70.5,106.5 C 70.573,108.027 69.9063,109.027 68.5,109.5C 68.427,107.973 69.0937,106.973 70.5,106.5 Z"/></g>
<g><path style="opacity:0.524" fill="#838486" d="M 179.5,106.5 C 178.167,109.167 178.167,111.833 179.5,114.5C 178.252,113.666 177.585,112.333 177.5,110.5C 177.585,108.667 178.252,107.334 179.5,106.5 Z"/></g>
<g><path style="opacity:0.286" fill="#a9aaab" d="M 205.5,107.5 C 207.027,107.427 208.027,108.094 208.5,109.5C 206.973,109.573 205.973,108.906 205.5,107.5 Z"/></g>
<g><path style="opacity:0.169" fill="#c9c9c8" d="M 272.5,106.5 C 273.906,106.973 274.573,107.973 274.5,109.5C 273.094,109.027 272.427,108.027 272.5,106.5 Z"/></g>
<g><path style="opacity:0.631" fill="#777a7a" d="M 163.5,106.5 C 165.369,108.635 166.036,111.302 165.5,114.5C 163.833,114.5 162.167,114.5 160.5,114.5C 161.568,113.566 162.901,113.232 164.5,113.5C 164.702,111.05 164.369,108.717 163.5,106.5 Z"/></g>
<g><path style="opacity:1" fill="#101314" d="M 143.5,94.5 C 144.167,94.5 144.5,94.8333 144.5,95.5C 145.833,98.1667 145.833,100.833 144.5,103.5C 140.37,106.403 136.037,109.07 131.5,111.5C 126.737,110.75 124.404,112.417 124.5,116.5C 123.5,116.833 122.833,117.5 122.5,118.5C 120.413,119.585 119.08,121.251 118.5,123.5C 114.301,130.057 109.968,136.557 105.5,143C 102.312,145.101 99.645,144.601 97.5,141.5C 97.6159,138.14 97.9492,134.807 98.5,131.5C 98.8333,130.833 99.1667,130.167 99.5,129.5C 100.906,129.027 101.573,128.027 101.5,126.5C 103.408,125.514 104.408,123.848 104.5,121.5C 106.587,120.415 107.92,118.749 108.5,116.5C 110.587,115.415 111.92,113.749 112.5,111.5C 112.833,110.5 113.5,109.833 114.5,109.5C 116.749,108.92 118.415,107.587 119.5,105.5C 119.5,104.833 119.833,104.5 120.5,104.5C 122.749,103.92 124.415,102.587 125.5,100.5C 126.514,99.3263 127.847,98.6596 129.5,98.5C 133.953,96.4204 138.62,95.087 143.5,94.5 Z"/></g>
<g><path style="opacity:0.522" fill="#969697" d="M 210.5,110.5 C 212.404,110.738 213.738,111.738 214.5,113.5C 212.596,113.262 211.262,112.262 210.5,110.5 Z"/></g>
<g><path style="opacity:0.808" fill="#858689" d="M 229.5,110.5 C 230.833,111.167 231.833,112.167 232.5,113.5C 230.5,113.5 229.5,112.5 229.5,110.5 Z"/></g>
<g><path style="opacity:0.165" fill="#bbbbbc" d="M 85.5,110.5 C 85.573,112.027 84.9063,113.027 83.5,113.5C 83.427,111.973 84.0937,110.973 85.5,110.5 Z"/></g>
<g><path style="opacity:0.992" fill="#515353" d="M 131.5,111.5 C 129.45,113.547 127.117,115.214 124.5,116.5C 124.404,112.417 126.737,110.75 131.5,111.5 Z"/></g>
<g><path style="opacity:0.176" fill="#b7b7b7" d="M 257.5,110.5 C 258.167,110.833 258.833,111.167 259.5,111.5C 259.5,112.167 259.5,112.833 259.5,113.5C 258.094,113.027 257.427,112.027 257.5,110.5 Z"/></g>
<g><path style="opacity:0.686" fill="#a8a8a8" d="M 214.5,113.5 C 217.089,114.419 219.089,116.086 220.5,118.5C 217.911,117.581 215.911,115.914 214.5,113.5 Z"/></g>
<g><path style="opacity:0.984" fill="#3f4141" d="M 259.5,111.5 C 260.926,112.802 262.259,114.302 263.5,116C 263.034,117.299 263.034,118.799 263.5,120.5C 261.929,118.365 260.596,116.032 259.5,113.5C 259.5,112.833 259.5,112.167 259.5,111.5 Z"/></g>
<g><path style="opacity:0.612" fill="#8b8d8c" d="M 112.5,111.5 C 111.92,113.749 110.587,115.415 108.5,116.5C 109.08,114.251 110.413,112.585 112.5,111.5 Z"/></g>
<g><path style="opacity:0.016" fill="#ced0cf" d="M 180.5,114.5 C 183.152,114.41 185.485,115.076 187.5,116.5C 184.848,116.59 182.515,115.924 180.5,114.5 Z"/></g>
<g><path style="opacity:0.6" fill="#abacad" d="M 232.5,113.5 C 234.262,114.262 235.262,115.596 235.5,117.5C 233.738,116.738 232.738,115.404 232.5,113.5 Z"/></g>
<g><path style="opacity:0.8" fill="#878989" d="M 159.5,114.5 C 157.898,116.074 155.898,116.741 153.5,116.5C 155.102,114.926 157.102,114.259 159.5,114.5 Z"/></g>
<g><path style="opacity:0.176" fill="#b8b9b8" d="M 276.5,113.5 C 278.104,114.287 278.771,115.62 278.5,117.5C 277.326,116.486 276.66,115.153 276.5,113.5 Z"/></g>
<g><path style="opacity:0.129" fill="#c5c6c5" d="M 82.5,115.5 C 82.573,117.027 81.9063,118.027 80.5,118.5C 80.427,116.973 81.0937,115.973 82.5,115.5 Z"/></g>
<g><path style="opacity:0.008" fill="#c8cac8" d="M 124.5,116.5 C 124.5,117.833 123.833,118.5 122.5,118.5C 122.833,117.5 123.5,116.833 124.5,116.5 Z"/></g>
<g><path style="opacity:0.839" fill="#838584" d="M 235.5,117.5 C 237.262,118.262 238.262,119.596 238.5,121.5C 236.738,120.738 235.738,119.404 235.5,117.5 Z"/></g>
<g><path style="opacity:0.325" fill="#989a99" d="M 108.5,116.5 C 107.92,118.749 106.587,120.415 104.5,121.5C 105.08,119.251 106.413,117.585 108.5,116.5 Z"/></g>
<g><path style="opacity:0.008" fill="#d8d8d8" d="M 122.5,118.5 C 121.92,120.749 120.587,122.415 118.5,123.5C 119.08,121.251 120.413,119.585 122.5,118.5 Z"/></g>
<g><path style="opacity:0.008" fill="#bdc4c0" d="M 222.5,120.5 C 224.262,121.262 225.262,122.596 225.5,124.5C 223.738,123.738 222.738,122.404 222.5,120.5 Z"/></g>
<g><path style="opacity:0.412" fill="#9d9e9f" d="M 238.5,121.5 C 239.906,121.973 240.573,122.973 240.5,124.5C 239.094,124.027 238.427,123.027 238.5,121.5 Z"/></g>
<g><path style="opacity:0.98" fill="#666a68" d="M 104.5,121.5 C 104.408,123.848 103.408,125.514 101.5,126.5C 101.75,124.326 102.75,122.659 104.5,121.5 Z"/></g>
<g><path style="opacity:0.286" fill="#c2c4c2" d="M 136.5,126.5 C 136.167,127.5 135.5,128.167 134.5,128.5C 134.5,127.167 135.167,126.5 136.5,126.5 Z"/></g>
<g><path style="opacity:0.302" fill="#b3b4b4" d="M 240.5,124.5 C 241.906,124.973 242.573,125.973 242.5,127.5C 241.094,127.027 240.427,126.027 240.5,124.5 Z"/></g>
<g><path style="opacity:0.871" fill="#838584" d="M 281.5,123.5 C 282.931,124.78 283.598,126.447 283.5,128.5C 281.787,127.365 281.12,125.698 281.5,123.5 Z"/></g>
<g><path style="opacity:0.271" fill="#b1b3b1" d="M 101.5,126.5 C 101.573,128.027 100.906,129.027 99.5,129.5C 99.427,127.973 100.094,126.973 101.5,126.5 Z"/></g>
<g><path style="opacity:0.769" fill="#9b9e9f" d="M 204.5,127.5 C 206.914,128.911 208.581,130.911 209.5,133.5C 207.086,132.089 205.419,130.089 204.5,127.5 Z"/></g>
<g><path style="opacity:1" fill="#111315" d="M 208.5,95.5 C 213.855,97.5058 218.521,100.506 222.5,104.5C 222.973,105.906 223.973,106.573 225.5,106.5C 227.167,107.5 228.5,108.833 229.5,110.5C 229.5,112.5 230.5,113.5 232.5,113.5C 232.738,115.404 233.738,116.738 235.5,117.5C 235.738,119.404 236.738,120.738 238.5,121.5C 238.427,123.027 239.094,124.027 240.5,124.5C 240.427,126.027 241.094,127.027 242.5,127.5C 243.338,127.842 243.672,128.508 243.5,129.5C 243.66,131.153 244.326,132.486 245.5,133.5C 245.296,136.518 244.963,139.518 244.5,142.5C 242.167,142.5 239.833,142.5 237.5,142.5C 233.525,136.57 229.525,130.57 225.5,124.5C 225.262,122.596 224.262,121.262 222.5,120.5C 221.5,120.167 220.833,119.5 220.5,118.5C 219.089,116.086 217.089,114.419 214.5,113.5C 213.738,111.738 212.404,110.738 210.5,110.5C 209.508,110.672 208.842,110.338 208.5,109.5C 208.027,108.094 207.027,107.427 205.5,107.5C 198.97,106.49 196.137,102.824 197,96.5C 197.383,95.944 197.883,95.6107 198.5,95.5C 201.833,94.1667 205.167,94.1667 208.5,95.5 Z"/></g>
<g><path style="opacity:0.18" fill="#b4b6b5" d="M 243.5,129.5 C 245.104,130.287 245.771,131.62 245.5,133.5C 244.326,132.486 243.66,131.153 243.5,129.5 Z"/></g>
<g><path style="opacity:0.494" fill="#9e9fa0" d="M 132.5,130.5 C 131.92,132.749 130.587,134.415 128.5,135.5C 129.08,133.251 130.413,131.585 132.5,130.5 Z"/></g>
<g><path style="opacity:0.757" fill="#919291" d="M 58.5,131.5 C 58.7406,133.898 58.0739,135.898 56.5,137.5C 56.595,135.214 57.2616,133.214 58.5,131.5 Z"/></g>
<g><path style="opacity:0.753" fill="#949595" d="M 283.5,128.5 C 286.076,133.448 287.743,138.781 288.5,144.5C 286.057,139.5 284.39,134.166 283.5,128.5 Z"/></g>
<g><path style="opacity:1" fill="#0d1012" d="M 177.5,78.5 C 180.794,79.4664 183.128,81.4664 184.5,84.5C 184.427,86.0269 185.094,87.0269 186.5,87.5C 189.448,95.9143 187.115,102.248 179.5,106.5C 178.252,107.334 177.585,108.667 177.5,110.5C 177.585,112.333 178.252,113.666 179.5,114.5C 179.833,114.5 180.167,114.5 180.5,114.5C 182.515,115.924 184.848,116.59 187.5,116.5C 194.022,118.922 199.688,122.589 204.5,127.5C 205.419,130.089 207.086,132.089 209.5,133.5C 210.06,135.801 210.56,138.134 211,140.5C 211.333,140.167 211.667,139.833 212,139.5C 212.497,142.146 212.664,144.813 212.5,147.5C 212.276,153.046 212.276,158.713 212.5,164.5C 212.427,166.027 213.094,167.027 214.5,167.5C 214.427,169.027 215.094,170.027 216.5,170.5C 216.427,172.027 217.094,173.027 218.5,173.5C 219.401,174.29 220.068,175.29 220.5,176.5C 220.5,179.167 220.5,181.833 220.5,184.5C 220.027,185.906 219.027,186.573 217.5,186.5C 214.5,186.5 211.5,186.5 208.5,186.5C 208.5,192.167 208.5,197.833 208.5,203.5C 208.262,205.404 207.262,206.738 205.5,207.5C 199.559,208.413 193.559,208.746 187.5,208.5C 187.5,211.167 187.5,213.833 187.5,216.5C 170.833,216.5 154.167,216.5 137.5,216.5C 137.666,211.156 137.499,205.823 137,200.5C 136.617,199.944 136.117,199.611 135.5,199.5C 133.833,198.5 132.5,197.167 131.5,195.5C 131.573,193.973 130.906,192.973 129.5,192.5C 125.839,188.175 123.506,183.175 122.5,177.5C 122.326,175.139 121.993,172.806 121.5,170.5C 117.958,170.187 114.625,170.521 111.5,171.5C 111.672,172.492 111.338,173.158 110.5,173.5C 109.094,173.973 108.427,174.973 108.5,176.5C 108.5,177.167 108.167,177.5 107.5,177.5C 105.973,177.427 104.973,178.094 104.5,179.5C 99.6722,182.954 94.6722,183.287 89.5,180.5C 89.0269,179.094 88.0269,178.427 86.5,178.5C 85.5,176.833 84.1667,175.5 82.5,174.5C 81.6618,174.158 81.3284,173.492 81.5,172.5C 81.2834,167.77 81.6167,163.103 82.5,158.5C 83.9063,158.027 84.573,157.027 84.5,155.5C 86.4044,155.262 87.7377,154.262 88.5,152.5C 93.1304,151.771 97.7971,151.437 102.5,151.5C 105.198,151.845 107.198,153.178 108.5,155.5C 108.414,156.496 108.748,157.329 109.5,158C 113.358,158.81 117.024,158.643 120.5,157.5C 121.657,154.727 122.324,151.727 122.5,148.5C 122.5,148.167 122.5,147.833 122.5,147.5C 124.213,146.365 124.88,144.698 124.5,142.5C 126.759,141.656 127.759,139.989 127.5,137.5C 127.328,136.508 127.662,135.842 128.5,135.5C 130.587,134.415 131.92,132.749 132.5,130.5C 132.833,129.5 133.5,128.833 134.5,128.5C 135.5,128.167 136.167,127.5 136.5,126.5C 141.038,121.392 146.704,118.059 153.5,116.5C 155.898,116.741 157.898,116.074 159.5,114.5C 159.833,114.5 160.167,114.5 160.5,114.5C 162.167,114.5 163.833,114.5 165.5,114.5C 166.036,111.302 165.369,108.635 163.5,106.5C 161.785,104.118 159.785,102.118 157.5,100.5C 156.596,99.791 156.263,98.791 156.5,97.5C 156.505,93.4659 156.838,89.4659 157.5,85.5C 157.5,84.8333 157.833,84.5 158.5,84.5C 160.5,83.1667 162.167,81.5 163.5,79.5C 163.833,79.5 164.167,79.5 164.5,79.5C 168.768,78.6274 173.102,78.2941 177.5,78.5 Z M 165.5,126.5 C 168.5,126.5 171.5,126.5 174.5,126.5C 177.341,127.669 180.341,128.669 183.5,129.5C 184.965,130.737 186.632,131.737 188.5,132.5C 190.167,134.833 192.167,136.833 194.5,138.5C 195.833,140.833 197.167,143.167 198.5,145.5C 198.721,148.067 199.388,150.401 200.5,152.5C 200.5,155.167 200.5,157.833 200.5,160.5C 199.388,162.599 198.721,164.933 198.5,167.5C 197.326,168.514 196.66,169.847 196.5,171.5C 195.026,172.436 194.026,173.77 193.5,175.5C 191.142,177.529 188.808,179.529 186.5,181.5C 184.973,181.427 183.973,182.094 183.5,183.5C 173.23,186.65 163.23,185.983 153.5,181.5C 152.564,180.026 151.23,179.026 149.5,178.5C 140.18,168.25 137.847,156.584 142.5,143.5C 146.548,137.118 151.882,132.118 158.5,128.5C 161.152,128.59 163.485,127.924 165.5,126.5 Z M 172.5,89.5 C 173.391,90.1098 174.391,90.4431 175.5,90.5C 174.075,91.922 173.075,93.5887 172.5,95.5C 171.833,95.5 171.5,95.8333 171.5,96.5C 170.391,96.4431 169.391,96.1098 168.5,95.5C 169.415,93.2459 170.748,91.2459 172.5,89.5 Z M 99.5,162.5 C 100.092,165.815 98.5916,168.149 95,169.5C 93.9701,169.164 93.4701,168.497 93.5,167.5C 94.5,167.167 95.1667,166.5 95.5,165.5C 96.8333,164.5 98.1667,163.5 99.5,162.5 Z"/></g>
<g><path style="opacity:0.616" fill="#ababaa" d="M 188.5,132.5 C 191.5,133.5 193.5,135.5 194.5,138.5C 192.167,136.833 190.167,134.833 188.5,132.5 Z"/></g>
<g><path style="opacity:0.004" fill="#cccfcb" d="M 165.5,126.5 C 163.485,127.924 161.152,128.59 158.5,128.5C 160.515,127.076 162.848,126.41 165.5,126.5 Z"/></g>
<g><path style="opacity:0.796" fill="#919292" d="M 174.5,126.5 C 178.081,126.138 181.081,127.138 183.5,129.5C 180.341,128.669 177.341,127.669 174.5,126.5 Z"/></g>
<g><path style="opacity:0.341" fill="#929799" d="M 168.5,95.5 C 169.391,96.1098 170.391,96.4431 171.5,96.5C 170.053,97.8852 169.053,97.5518 168.5,95.5 Z"/></g>
<g><path style="opacity:0.486" fill="#aaacac" d="M 175.5,90.5 C 176.087,92.6848 175.087,94.3515 172.5,95.5C 173.075,93.5887 174.075,91.922 175.5,90.5 Z"/></g>
<g><path style="opacity:0.38" fill="#a8a9ac" d="M 172.5,89.5 C 173.779,88.2848 174.779,88.6182 175.5,90.5C 174.391,90.4431 173.391,90.1098 172.5,89.5 Z"/></g>
<g><path style="opacity:0.49" fill="#a1a6a3" d="M 73.5,134.5 C 73.2041,136.403 72.5375,138.07 71.5,139.5C 71.1201,137.302 71.7868,135.635 73.5,134.5 Z"/></g>
<g><path style="opacity:0.631" fill="#888987" d="M 98.5,131.5 C 97.9492,134.807 97.6159,138.14 97.5,141.5C 96.8442,140.378 96.5108,139.045 96.5,137.5C 96.361,135.117 97.0277,133.117 98.5,131.5 Z"/></g>
<g><path style="opacity:1" fill="#494b4c" d="M 158.5,128.5 C 151.882,132.118 146.548,137.118 142.5,143.5C 142.337,141.143 142.503,138.81 143,136.5C 143.333,137.167 143.667,137.833 144,138.5C 144.915,136.082 146.415,134.082 148.5,132.5C 151.466,131.301 154.132,129.634 156.5,127.5C 157.183,127.863 157.85,128.196 158.5,128.5 Z"/></g>
<g><path style="opacity:0.849" fill="#707270" d="M 245.5,133.5 C 248.101,136.699 247.767,139.699 244.5,142.5C 244.963,139.518 245.296,136.518 245.5,133.5 Z"/></g>
<g><path style="opacity:0.49" fill="#a3a3a2" d="M 269.5,133.5 C 271.074,135.102 271.741,137.102 271.5,139.5C 270.262,137.786 269.595,135.786 269.5,133.5 Z"/></g>
<g><path style="opacity:1" fill="#5e5f5f" d="M 127.5,137.5 C 127.759,139.989 126.759,141.656 124.5,142.5C 124.75,140.326 125.75,138.659 127.5,137.5 Z"/></g>
<g><path style="opacity:0.788" fill="#444445" d="M 181.5,145.5 C 180.539,143.735 180.205,141.735 180.5,139.5C 178.167,139.5 175.833,139.5 173.5,139.5C 173.5,141.833 173.5,144.167 173.5,146.5C 173.167,146.5 172.833,146.5 172.5,146.5C 172.108,143.278 172.608,140.278 174,137.5C 176.432,138.293 178.766,138.626 181,138.5C 181.497,140.81 181.663,143.143 181.5,145.5 Z"/></g>
<g><path style="opacity:0.58" fill="#848587" d="M 167.5,138.5 C 168.477,141.287 168.81,144.287 168.5,147.5C 167.5,147.5 166.5,147.5 165.5,147.5C 167.242,144.855 167.909,141.855 167.5,138.5 Z"/></g>
<g><path style="opacity:0.837" fill="#6c6e6d" d="M 209.5,133.5 C 213.735,137.737 214.735,142.403 212.5,147.5C 212.664,144.813 212.497,142.146 212,139.5C 211.667,139.833 211.333,140.167 211,140.5C 210.56,138.134 210.06,135.801 209.5,133.5 Z"/></g>
<g><path style="opacity:0.922" fill="#818283" d="M 237.5,142.5 C 239.833,142.5 242.167,142.5 244.5,142.5C 243.469,143.249 242.302,143.915 241,144.5C 239.698,143.915 238.531,143.249 237.5,142.5 Z"/></g>
<g><path style="opacity:0.408" fill="#97999a" d="M 56.5,138.5 C 56.4349,141.428 55.7682,144.095 54.5,146.5C 54.2938,143.505 54.9605,140.838 56.5,138.5 Z"/></g>
<g><path style="opacity:0.851" fill="#898a8b" d="M 124.5,142.5 C 124.88,144.698 124.213,146.365 122.5,147.5C 122.402,145.447 123.069,143.78 124.5,142.5 Z"/></g>
<g><path style="opacity:1" fill="#0c0d0f" d="M 159.5,138.5 C 162.167,138.5 164.833,138.5 167.5,138.5C 167.909,141.855 167.242,144.855 165.5,147.5C 164.094,147.973 163.427,148.973 163.5,150.5C 163.672,151.492 163.338,152.158 162.5,152.5C 159.272,153.414 155.939,153.747 152.5,153.5C 152.5,151.167 152.5,148.833 152.5,146.5C 154.833,146.5 157.167,146.5 159.5,146.5C 159.5,143.833 159.5,141.167 159.5,138.5 Z"/></g>
<g><path style="opacity:0.902" fill="#828383" d="M 168.5,147.5 C 172.628,147.575 173.295,148.909 170.5,151.5C 170.196,149.204 169.196,148.871 167.5,150.5C 167.557,149.391 167.89,148.391 168.5,147.5 Z"/></g>
<g><path style="opacity:1" fill="#1e1e1f" d="M 181.5,145.5 C 189.019,144.007 191.352,146.674 188.5,153.5C 185.833,153.5 183.167,153.5 180.5,153.5C 180.784,151.585 180.451,149.919 179.5,148.5C 179.5,148.167 179.5,147.833 179.5,147.5C 177.735,146.539 175.735,146.205 173.5,146.5C 173.5,144.167 173.5,141.833 173.5,139.5C 175.833,139.5 178.167,139.5 180.5,139.5C 180.205,141.735 180.539,143.735 181.5,145.5 Z"/></g>
<g><path style="opacity:0.514" fill="#a6a7a6" d="M 198.5,145.5 C 200.163,147.438 200.829,149.772 200.5,152.5C 199.388,150.401 198.721,148.067 198.5,145.5 Z"/></g>
<g><path style="opacity:0.149" fill="#c2c2c6" d="M 165.5,147.5 C 165.573,149.027 164.906,150.027 163.5,150.5C 163.427,148.973 164.094,147.973 165.5,147.5 Z"/></g>
<g><path style="opacity:0.984" fill="#252626" d="M 170.5,151.5 C 170.672,152.492 170.338,153.158 169.5,153.5C 168.094,153.027 167.427,152.027 167.5,150.5C 169.196,148.871 170.196,149.204 170.5,151.5 Z"/></g>
<g><path style="opacity:0.569" fill="#909291" d="M 102.5,151.5 C 97.7971,151.437 93.1304,151.771 88.5,152.5C 90.8066,150.953 93.4733,150.287 96.5,150.5C 98.6965,150.505 100.696,150.838 102.5,151.5 Z"/></g>
<g><path style="opacity:0.992" fill="#474847" d="M 167.5,150.5 C 167.427,152.027 168.094,153.027 169.5,153.5C 168.724,157.052 167.391,160.386 165.5,163.5C 163.821,163.715 162.821,163.048 162.5,161.5C 163.382,157.407 165.049,153.74 167.5,150.5 Z"/></g>
<g><path style="opacity:0.333" fill="#acadad" d="M 172.5,146.5 C 172.833,146.5 173.167,146.5 173.5,146.5C 175.735,146.205 177.735,146.539 179.5,147.5C 177.621,147.393 177.288,147.893 178.5,149C 177.771,151.058 176.771,152.891 175.5,154.5C 175.421,153.07 175.754,151.736 176.5,150.5C 175.575,149.438 174.575,149.438 173.5,150.5C 173.414,149.504 173.748,148.671 174.5,148C 173.584,147.722 172.918,147.222 172.5,146.5 Z"/></g>
<g><path style="opacity:0.639" fill="#8e9090" d="M 88.5,152.5 C 87.7377,154.262 86.4044,155.262 84.5,155.5C 85.2623,153.738 86.5956,152.738 88.5,152.5 Z"/></g>
<g><path style="opacity:0.496" fill="#8a8a8a" d="M 159.5,138.5 C 159.5,141.167 159.5,143.833 159.5,146.5C 157.167,146.5 154.833,146.5 152.5,146.5C 152.5,148.833 152.5,151.167 152.5,153.5C 155.939,153.747 159.272,153.414 162.5,152.5C 159.316,154.414 155.649,155.08 151.5,154.5C 151.5,151.5 151.5,148.5 151.5,145.5C 153.833,145.5 156.167,145.5 158.5,145.5C 158.198,142.941 158.532,140.607 159.5,138.5 Z"/></g>
<g><path style="opacity:0.478" fill="#7c7d7e" d="M 179.5,148.5 C 180.451,149.919 180.784,151.585 180.5,153.5C 183.167,153.5 185.833,153.5 188.5,153.5C 185.713,154.477 182.713,154.81 179.5,154.5C 179.5,152.5 179.5,150.5 179.5,148.5 Z"/></g>
<g><path style="opacity:0.227" fill="#ababab" d="M 122.5,148.5 C 122.324,151.727 121.657,154.727 120.5,157.5C 120.215,154.171 120.882,151.171 122.5,148.5 Z"/></g>
<g><path style="opacity:0.357" fill="#b9baba" d="M 236.5,154.5 C 236.167,155.5 235.5,156.167 234.5,156.5C 234.5,155.167 235.167,154.5 236.5,154.5 Z"/></g>
<g><path style="opacity:0.216" fill="#a3a3a3" d="M 172.5,153.5 C 172.34,155.153 171.674,156.486 170.5,157.5C 170.229,155.62 170.896,154.287 172.5,153.5 Z"/></g>
<g><path style="opacity:0.475" fill="#989897" d="M 84.5,155.5 C 84.573,157.027 83.9063,158.027 82.5,158.5C 82.427,156.973 83.0937,155.973 84.5,155.5 Z"/></g>
<g><path style="opacity:0.678" fill="#5a5b5b" d="M 108.5,155.5 C 112.187,157.343 116.187,158.01 120.5,157.5C 117.024,158.643 113.358,158.81 109.5,158C 108.748,157.329 108.414,156.496 108.5,155.5 Z"/></g>
<g><path style="opacity:0.994" fill="#3a3b3a" d="M 175.5,154.5 C 175.065,157.157 174.065,159.491 172.5,161.5C 170.402,162.914 169.402,162.248 169.5,159.5C 169.328,158.508 169.662,157.842 170.5,157.5C 171.674,156.486 172.34,155.153 172.5,153.5C 172.263,152.209 172.596,151.209 173.5,150.5C 174.575,149.438 175.575,149.438 176.5,150.5C 175.754,151.736 175.421,153.07 175.5,154.5 Z"/></g>
<g><path style="opacity:0.186" fill="#cccdce" d="M 188.5,158.5 C 184.731,158.244 181.064,158.577 177.5,159.5C 178.871,158.213 180.705,157.547 183,157.5C 185.033,157.506 186.866,157.839 188.5,158.5 Z"/></g>
<g><path style="opacity:0.627" fill="#8b8f8e" d="M 258.5,155.5 C 260.262,156.262 261.262,157.596 261.5,159.5C 259.738,158.738 258.738,157.404 258.5,155.5 Z"/></g>
<g><path style="opacity:0.471" fill="#8b8c8b" d="M 234.5,156.5 C 234.573,158.027 233.906,159.027 232.5,159.5C 232.427,157.973 233.094,156.973 234.5,156.5 Z"/></g>
<g><path style="opacity:0.012" fill="#c6c7c7" d="M 99.5,162.5 C 98.1667,163.5 96.8333,164.5 95.5,165.5C 95.9419,162.668 97.2752,161.668 99.5,162.5 Z"/></g>
<g><path style="opacity:0.706" fill="#9da09d" d="M 169.5,159.5 C 169.402,162.248 170.402,162.914 172.5,161.5C 171.464,164.956 169.797,165.29 167.5,162.5C 167.942,161.261 168.609,160.261 169.5,159.5 Z"/></g>
<g><path style="opacity:1" fill="#191b1c" d="M 188.5,158.5 C 189.833,161.167 189.833,163.833 188.5,166.5C 185.833,166.5 183.167,166.5 180.5,166.5C 180.5,168.833 180.5,171.167 180.5,173.5C 177.833,173.5 175.167,173.5 172.5,173.5C 172.183,170.428 172.516,167.428 173.5,164.5C 175.071,163.025 176.405,161.358 177.5,159.5C 181.064,158.577 184.731,158.244 188.5,158.5 Z"/></g>
<g><path style="opacity:0.125" fill="#e1e2e4" d="M 162.5,161.5 C 162.821,163.048 163.821,163.715 165.5,163.5C 166.167,164.167 166.833,164.833 167.5,165.5C 164.941,165.802 162.607,165.468 160.5,164.5C 161.167,163.5 161.833,162.5 162.5,161.5 Z"/></g>
<g><path style="opacity:1" fill="#151718" d="M 258.5,155.5 C 258.738,157.404 259.738,158.738 261.5,159.5C 264.353,165.244 263.686,170.577 259.5,175.5C 258.167,176.167 257.167,177.167 256.5,178.5C 254.967,180.245 252.967,181.245 250.5,181.5C 246.374,181.428 242.374,180.761 238.5,179.5C 237.167,177.5 235.5,175.833 233.5,174.5C 232.883,174.389 232.383,174.056 232,173.5C 229.872,168.603 230.038,163.936 232.5,159.5C 233.906,159.027 234.573,158.027 234.5,156.5C 235.5,156.167 236.167,155.5 236.5,154.5C 239.227,151.395 242.727,150.062 247,150.5C 251.795,150.152 255.629,151.818 258.5,155.5 Z M 247.5,163.5 C 248.5,163.5 249.5,163.5 250.5,163.5C 249.925,165.411 248.925,167.078 247.5,168.5C 246.292,169.234 244.959,169.567 243.5,169.5C 244.037,166.964 245.37,164.964 247.5,163.5 Z"/></g>
<g><path style="opacity:0.012" fill="#c9cbcc" d="M 250.5,163.5 C 249.5,163.5 248.5,163.5 247.5,163.5C 248.26,161.015 249.26,161.015 250.5,163.5 Z"/></g>
<g><path style="opacity:0.024" fill="#dedfdf" d="M 95.5,165.5 C 95.1667,166.5 94.5,167.167 93.5,167.5C 93.5,166.167 94.1667,165.5 95.5,165.5 Z"/></g>
<g><path style="opacity:0.986" fill="#1c1d1f" d="M 160.5,164.5 C 162.607,165.468 164.941,165.802 167.5,165.5C 167.5,168.167 167.5,170.833 167.5,173.5C 164.833,173.5 162.167,173.5 159.5,173.5C 159.5,171.167 159.5,168.833 159.5,166.5C 156.833,166.5 154.167,166.5 151.5,166.5C 151.5,163.5 151.5,160.5 151.5,157.5C 154.5,157.5 157.5,157.5 160.5,157.5C 160.5,159.833 160.5,162.167 160.5,164.5 Z"/></g>
<g><path style="opacity:0.906" fill="#747577" d="M 200.5,160.5 C 200.662,162.527 200.495,164.527 200,166.5C 199.617,167.056 199.117,167.389 198.5,167.5C 198.721,164.933 199.388,162.599 200.5,160.5 Z"/></g>
<g><path style="opacity:0.571" fill="#9a9d9b" d="M 68.5,151.5 C 67.7623,162.096 67.7623,172.762 68.5,183.5C 66.9925,178.587 66.3258,173.421 66.5,168C 66.3582,162.257 67.0249,156.757 68.5,151.5 Z"/></g>
<g><path style="opacity:0.812" fill="#767676" d="M 82.5,158.5 C 81.6167,163.103 81.2834,167.77 81.5,172.5C 80.353,168.354 80.1864,164.02 81,159.5C 81.3826,158.944 81.8826,158.611 82.5,158.5 Z"/></g>
<g><path style="opacity:0.478" fill="#909192" d="M 212.5,164.5 C 213.906,164.973 214.573,165.973 214.5,167.5C 213.094,167.027 212.427,166.027 212.5,164.5 Z"/></g>
<g><path style="opacity:0.596" fill="#8e8f8f" d="M 274.5,151.5 C 275.99,156.077 276.656,160.91 276.5,166C 276.55,172.059 275.883,177.893 274.5,183.5C 275.782,172.835 275.782,162.169 274.5,151.5 Z"/></g>
<g><path style="opacity:0.023" fill="#c4c6c6" d="M 53.5,153.5 C 53.5,163.833 53.5,174.167 53.5,184.5C 50.8333,174.167 50.8333,163.833 53.5,153.5 Z"/></g>
<g><path style="opacity:0.424" fill="#9a9c9e" d="M 214.5,167.5 C 215.906,167.973 216.573,168.973 216.5,170.5C 215.094,170.027 214.427,169.027 214.5,167.5 Z"/></g>
<g><path style="opacity:0.694" fill="#969a9d" d="M 247.5,168.5 C 247.38,169.586 246.713,170.253 245.5,170.5C 244.584,170.457 243.917,170.124 243.5,169.5C 244.959,169.567 246.292,169.234 247.5,168.5 Z"/></g>
<g><path style="opacity:0.794" fill="#7f8180" d="M 289.5,150.5 C 290.21,155.702 290.876,161.035 291.5,166.5C 291.101,173.465 290.434,180.465 289.5,187.5C 289.5,175.167 289.5,162.833 289.5,150.5 Z"/></g>
<g><path style="opacity:0.741" fill="#5b5c5e" d="M 111.5,171.5 C 114.625,170.521 117.958,170.187 121.5,170.5C 121.993,172.806 122.326,175.139 122.5,177.5C 121.262,175.786 120.595,173.786 120.5,171.5C 117.5,171.5 114.5,171.5 111.5,171.5 Z"/></g>
<g><path style="opacity:0.647" fill="#898b8b" d="M 188.5,166.5 C 186.393,167.468 184.059,167.802 181.5,167.5C 181.5,169.833 181.5,172.167 181.5,174.5C 178.287,174.81 175.287,174.477 172.5,173.5C 175.167,173.5 177.833,173.5 180.5,173.5C 180.5,171.167 180.5,168.833 180.5,166.5C 183.167,166.5 185.833,166.5 188.5,166.5 Z"/></g>
<g><path style="opacity:0.294" fill="#b5b9ba" d="M 216.5,170.5 C 217.906,170.973 218.573,171.973 218.5,173.5C 217.094,173.027 216.427,172.027 216.5,170.5 Z"/></g>
<g><path style="opacity:0.38" fill="#a0a2a1" d="M 167.5,165.5 C 168.477,168.287 168.81,171.287 168.5,174.5C 165.167,174.5 161.833,174.5 158.5,174.5C 158.5,172.167 158.5,169.833 158.5,167.5C 155.941,167.802 153.607,167.468 151.5,166.5C 154.167,166.5 156.833,166.5 159.5,166.5C 159.5,168.833 159.5,171.167 159.5,173.5C 162.167,173.5 164.833,173.5 167.5,173.5C 167.5,170.833 167.5,168.167 167.5,165.5 Z"/></g>
<g><path style="opacity:0.341" fill="#9a9b9b" d="M 196.5,171.5 C 196.446,173.632 195.446,174.965 193.5,175.5C 194.026,173.77 195.026,172.436 196.5,171.5 Z"/></g>
<g><path style="opacity:0.027" fill="#cfd0ce" d="M 110.5,173.5 C 110.573,175.027 109.906,176.027 108.5,176.5C 108.427,174.973 109.094,173.973 110.5,173.5 Z"/></g>
<g><path style="opacity:0.008" fill="#cbcbcb" d="M 82.5,174.5 C 84.1667,175.5 85.5,176.833 86.5,178.5C 84.1667,178.167 82.8333,176.833 82.5,174.5 Z"/></g>
<g><path style="opacity:0.016" fill="#b8b8b6" d="M 233.5,174.5 C 235.5,175.833 237.167,177.5 238.5,179.5C 235.833,178.833 234.167,177.167 233.5,174.5 Z"/></g>
<g><path style="opacity:0.02" fill="#d0d1d2" d="M 259.5,175.5 C 259.5,177.5 258.5,178.5 256.5,178.5C 257.167,177.167 258.167,176.167 259.5,175.5 Z"/></g>
<g><path style="opacity:0.016" fill="#d0d1d1" d="M 107.5,177.5 C 107.027,178.906 106.027,179.573 104.5,179.5C 104.973,178.094 105.973,177.427 107.5,177.5 Z"/></g>
<g><path style="opacity:0.369" fill="#989b99" d="M 86.5,178.5 C 88.0269,178.427 89.0269,179.094 89.5,180.5C 87.9731,180.573 86.9731,179.906 86.5,178.5 Z"/></g>
<g><path style="opacity:0.886" fill="#868887" d="M 149.5,178.5 C 151.23,179.026 152.564,180.026 153.5,181.5C 151.368,181.446 150.035,180.446 149.5,178.5 Z"/></g>
<g><path style="opacity:0.718" fill="#999b99" d="M 220.5,176.5 C 222.972,179.214 222.972,181.881 220.5,184.5C 220.5,181.833 220.5,179.167 220.5,176.5 Z"/></g>
<g><path style="opacity:0.984" fill="#888986" d="M 238.5,179.5 C 242.374,180.761 246.374,181.428 250.5,181.5C 246.211,182.981 242.211,182.315 238.5,179.5 Z"/></g>
<g><path style="opacity:0.592" fill="#abacad" d="M 186.5,181.5 C 186.027,182.906 185.027,183.573 183.5,183.5C 183.973,182.094 184.973,181.427 186.5,181.5 Z"/></g>
<g><path style="opacity:0.447" fill="#9b9d9d" d="M 217.5,186.5 C 215.052,187.473 212.385,187.806 209.5,187.5C 209.821,193.026 209.488,198.36 208.5,203.5C 208.5,197.833 208.5,192.167 208.5,186.5C 211.5,186.5 214.5,186.5 217.5,186.5 Z"/></g>
<g><path style="opacity:0.271" fill="#c1c4c4" d="M 103.5,190.5 C 105.5,190.5 106.5,191.5 106.5,193.5C 105.167,192.833 104.167,191.833 103.5,190.5 Z"/></g>
<g><path style="opacity:0.302" fill="#b5b5b5" d="M 239.5,190.5 C 238.833,191.833 237.833,192.833 236.5,193.5C 236.5,191.5 237.5,190.5 239.5,190.5 Z"/></g>
<g><path style="opacity:0.671" fill="#a4a4a4" d="M 69.5,190.5 C 70.6118,192.599 71.2785,194.933 71.5,197.5C 69.8372,195.562 69.1706,193.228 69.5,190.5 Z"/></g>
<g><path style="opacity:0.075" fill="#cccdcc" d="M 129.5,192.5 C 130.906,192.973 131.573,193.973 131.5,195.5C 130.094,195.027 129.427,194.027 129.5,192.5 Z"/></g>
<g><path style="opacity:0.624" fill="#8c8d8d" d="M 245.5,190.5 C 247.922,191.692 248.922,193.692 248.5,196.5C 248.639,198.883 247.972,200.883 246.5,202.5C 246.827,200.512 247.16,198.512 247.5,196.5C 247.281,194.307 246.615,192.307 245.5,190.5 Z"/></g>
<g><path style="opacity:0.992" fill="#555756" d="M 236.5,193.5 C 236.693,196.811 235.693,199.478 233.5,201.5C 234.129,198.603 235.129,195.936 236.5,193.5 Z"/></g>
<g><path style="opacity:0.651" fill="#a5a9a5" d="M 271.5,198.5 C 271.741,200.898 271.074,202.898 269.5,204.5C 269.595,202.214 270.262,200.214 271.5,198.5 Z"/></g>
<g><path style="opacity:0.91" fill="#7e8181" d="M 71.5,198.5 C 72.7384,200.214 73.405,202.214 73.5,204.5C 71.7202,203.01 71.0535,201.01 71.5,198.5 Z"/></g>
<g><path style="opacity:0.016" fill="#c5c7c5" d="M 56.5,200.5 C 57.7384,202.214 58.405,204.214 58.5,206.5C 56.9261,204.898 56.2594,202.898 56.5,200.5 Z"/></g>
<g><path style="opacity:0.012" fill="#cbcdcd" d="M 286.5,200.5 C 286.59,203.152 285.924,205.485 284.5,207.5C 284.41,204.848 285.076,202.515 286.5,200.5 Z"/></g>
<g><path style="opacity:1" fill="#131516" d="M 103.5,190.5 C 104.167,191.833 105.167,192.833 106.5,193.5C 108.126,196.625 109.46,199.958 110.5,203.5C 110.427,205.027 111.094,206.027 112.5,206.5C 113.338,206.842 113.672,207.508 113.5,208.5C 113.427,210.027 114.094,211.027 115.5,211.5C 115.427,213.027 116.094,214.027 117.5,214.5C 119.5,218.5 122.5,221.5 126.5,223.5C 127.5,223.833 128.167,224.5 128.5,225.5C 130.317,227.012 131.317,229.012 131.5,231.5C 132.959,231.567 134.292,231.234 135.5,230.5C 137.674,230.75 139.341,231.75 140.5,233.5C 141.514,234.674 142.847,235.34 144.5,235.5C 145.219,237.764 145.552,240.097 145.5,242.5C 144.41,244.649 142.576,245.982 140,246.5C 136.55,245.194 133.384,243.527 130.5,241.5C 130.027,240.094 129.027,239.427 127.5,239.5C 127.027,238.094 126.027,237.427 124.5,237.5C 123.738,235.738 122.404,234.738 120.5,234.5C 118.761,231.757 116.427,229.757 113.5,228.5C 112.92,226.251 111.587,224.585 109.5,223.5C 107.457,222.421 106.124,220.754 105.5,218.5C 105.573,216.973 104.906,215.973 103.5,215.5C 103.759,213.011 102.759,211.344 100.5,210.5C 96.1575,205.303 94.3242,199.303 95,192.5C 97.5112,189.701 100.345,189.035 103.5,190.5 Z"/></g>
<g><path style="opacity:0.212" fill="#c1c2c2" d="M 110.5,203.5 C 111.906,203.973 112.573,204.973 112.5,206.5C 111.094,206.027 110.427,205.027 110.5,203.5 Z"/></g>
<g><path style="opacity:0.78" fill="#8d8f8d" d="M 73.5,204.5 C 74.5375,205.93 75.2041,207.597 75.5,209.5C 73.7868,208.365 73.1201,206.698 73.5,204.5 Z"/></g>
<g><path style="opacity:0.259" fill="#b3b7b4" d="M 231.5,205.5 C 231.573,207.027 230.906,208.027 229.5,208.5C 229.427,206.973 230.094,205.973 231.5,205.5 Z"/></g>
<g><path style="opacity:0.212" fill="#c8cdca" d="M 113.5,208.5 C 114.906,208.973 115.573,209.973 115.5,211.5C 114.094,211.027 113.427,210.027 113.5,208.5 Z"/></g>
<g><path style="opacity:1" fill="#777778" d="M 100.5,210.5 C 102.759,211.344 103.759,213.011 103.5,215.5C 101.75,214.341 100.75,212.674 100.5,210.5 Z"/></g>
<g><path style="opacity:1" fill="#5e5f5f" d="M 60.5,212.5 C 62.913,213.68 63.913,215.68 63.5,218.5C 61.7549,216.967 60.7549,214.967 60.5,212.5 Z"/></g>
<g><path style="opacity:0.341" fill="#b1b2b2" d="M 115.5,211.5 C 116.906,211.973 117.573,212.973 117.5,214.5C 116.094,214.027 115.427,213.027 115.5,211.5 Z"/></g>
<g><path style="opacity:0.325" fill="#b7bab9" d="M 229.5,208.5 C 229.155,211.198 227.822,213.198 225.5,214.5C 226.34,212.147 227.674,210.147 229.5,208.5 Z"/></g>
<g><path style="opacity:0.998" fill="#323435" d="M 269.5,205.5 C 269.839,209.669 269.839,213.002 269.5,215.5C 266.885,217.202 264.551,218.869 262.5,220.5C 264.597,215.311 266.93,210.311 269.5,205.5 Z"/></g>
<g><path style="opacity:0.998" fill="#3a3b3b" d="M 75.5,209.5 C 77.4031,212.979 79.0698,216.646 80.5,220.5C 80.5,220.833 80.5,221.167 80.5,221.5C 78.6642,220.189 76.6642,219.022 74.5,218C 75.8146,216.605 75.4812,215.605 73.5,215C 74.5,214.667 75.5,214.333 76.5,214C 75.6198,212.644 75.2865,211.144 75.5,209.5 Z"/></g>
<g><path style="opacity:0.843" fill="#9d9ea0" d="M 117.5,214.5 C 120.833,217.167 123.833,220.167 126.5,223.5C 122.5,221.5 119.5,218.5 117.5,214.5 Z"/></g>
<g><path style="opacity:0.8" fill="#7c8080" d="M 225.5,214.5 C 225.262,216.404 224.262,217.738 222.5,218.5C 222.738,216.596 223.738,215.262 225.5,214.5 Z"/></g>
<g><path style="opacity:0.349" fill="#9d9e9f" d="M 135.5,199.5 C 136.117,199.611 136.617,199.944 137,200.5C 137.499,205.823 137.666,211.156 137.5,216.5C 154.167,216.5 170.833,216.5 187.5,216.5C 187.5,213.833 187.5,211.167 187.5,208.5C 193.559,208.746 199.559,208.413 205.5,207.5C 205.389,208.117 205.056,208.617 204.5,209C 199.177,209.499 193.844,209.666 188.5,209.5C 188.5,212.167 188.5,214.833 188.5,217.5C 171.167,217.5 153.833,217.5 136.5,217.5C 136.746,211.441 136.413,205.441 135.5,199.5 Z"/></g>
<g><path style="opacity:0.133" fill="#c4c4c4" d="M 103.5,215.5 C 104.906,215.973 105.573,216.973 105.5,218.5C 104.094,218.027 103.427,217.027 103.5,215.5 Z"/></g>
<g><path style="opacity:1" fill="#131517" d="M 245.5,190.5 C 246.615,192.307 247.281,194.307 247.5,196.5C 247.16,198.512 246.827,200.512 246.5,202.5C 243.917,210.682 239.584,217.682 233.5,223.5C 232.5,223.833 231.833,224.5 231.5,225.5C 230.92,227.749 229.587,229.415 227.5,230.5C 226.391,230.557 225.391,230.89 224.5,231.5C 224.631,230.761 224.464,230.094 224,229.5C 222.89,231.037 221.39,231.703 219.5,231.5C 219.628,229.345 219.128,227.345 218,225.5C 217.023,226.774 216.189,226.774 215.5,225.5C 217.167,224.5 218.5,223.167 219.5,221.5C 220.833,220.833 221.833,219.833 222.5,218.5C 224.262,217.738 225.262,216.404 225.5,214.5C 227.822,213.198 229.155,211.198 229.5,208.5C 230.906,208.027 231.573,207.027 231.5,205.5C 231.66,203.847 232.326,202.514 233.5,201.5C 235.693,199.478 236.693,196.811 236.5,193.5C 237.833,192.833 238.833,191.833 239.5,190.5C 241.5,189.167 243.5,189.167 245.5,190.5 Z"/></g>
<g><path style="opacity:0.482" fill="#a1a4a5" d="M 222.5,218.5 C 221.833,219.833 220.833,220.833 219.5,221.5C 219.5,219.5 220.5,218.5 222.5,218.5 Z"/></g>
<g><path style="opacity:0.263" fill="#b3b4b3" d="M 80.5,220.5 C 81.9063,220.973 82.573,221.973 82.5,223.5C 81.5,223.167 80.8333,222.5 80.5,221.5C 80.5,221.167 80.5,220.833 80.5,220.5 Z"/></g>
<g><path style="opacity:0.024" fill="#bcb4b3" d="M 109.5,223.5 C 111.587,224.585 112.92,226.251 113.5,228.5C 111.413,227.415 110.08,225.749 109.5,223.5 Z"/></g>
<g><path style="opacity:0.729" fill="#7d7e81" d="M 219.5,221.5 C 218.5,223.167 217.167,224.5 215.5,225.5C 215.167,225.5 214.833,225.5 214.5,225.5C 215.585,223.413 217.251,222.08 219.5,221.5 Z"/></g>
<g><path style="opacity:0.027" fill="#bababb" d="M 233.5,223.5 C 233.5,224.833 232.833,225.5 231.5,225.5C 231.833,224.5 232.5,223.833 233.5,223.5 Z"/></g>
<g><path style="opacity:0.988" fill="#696b6a" d="M 262.5,220.5 C 262.408,222.848 261.408,224.514 259.5,225.5C 259.75,223.326 260.75,221.659 262.5,220.5 Z"/></g>
<g><path style="opacity:0.204" fill="#cacdcb" d="M 82.5,223.5 C 83.9063,223.973 84.573,224.973 84.5,226.5C 83.0937,226.027 82.427,225.027 82.5,223.5 Z"/></g>
<g><path style="opacity:0.373" fill="#a6a6a8" d="M 259.5,225.5 C 259.573,227.027 258.906,228.027 257.5,228.5C 257.427,226.973 258.094,225.973 259.5,225.5 Z"/></g>
<g><path style="opacity:0.694" fill="#a6a6a4" d="M 113.5,228.5 C 116.427,229.757 118.761,231.757 120.5,234.5C 117.573,233.243 115.239,231.243 113.5,228.5 Z"/></g>
<g><path style="opacity:0.999" fill="#505152" d="M 128.5,225.5 C 131.135,226.811 133.469,228.478 135.5,230.5C 134.292,231.234 132.959,231.567 131.5,231.5C 131.317,229.012 130.317,227.012 128.5,225.5 Z"/></g>
<g><path style="opacity:0.663" fill="#979999" d="M 210.5,228.5 C 210.027,229.906 209.027,230.573 207.5,230.5C 207.973,229.094 208.973,228.427 210.5,228.5 Z"/></g>
<g><path style="opacity:1" fill="#2a2c2d" d="M 214.5,225.5 C 214.833,225.5 215.167,225.5 215.5,225.5C 216.189,226.774 217.023,226.774 218,225.5C 219.128,227.345 219.628,229.345 219.5,231.5C 221.39,231.703 222.89,231.037 224,229.5C 224.464,230.094 224.631,230.761 224.5,231.5C 224.5,231.833 224.5,232.167 224.5,232.5C 222.051,235.556 219.051,237.889 215.5,239.5C 215.978,237.083 216.978,234.916 218.5,233C 216.986,231.561 216.653,230.061 217.5,228.5C 215.189,227.425 212.856,227.425 210.5,228.5C 211.436,227.026 212.77,226.026 214.5,225.5 Z"/></g>
<g><path style="opacity:0.514" fill="#999b9a" d="M 85.5,228.5 C 87.2624,229.262 88.2624,230.596 88.5,232.5C 86.7376,231.738 85.7376,230.404 85.5,228.5 Z"/></g>
<g><path style="opacity:0.004" fill="#c4c5c4" d="M 180.5,230.5 C 182.833,230.833 184.167,232.167 184.5,234.5C 182.833,233.5 181.5,232.167 180.5,230.5 Z"/></g>
<g><path style="opacity:0.455" fill="#9ea1a4" d="M 257.5,228.5 C 257.262,230.404 256.262,231.738 254.5,232.5C 254.738,230.596 255.738,229.262 257.5,228.5 Z"/></g>
<g><path style="opacity:0.024" fill="#dadadb" d="M 227.5,230.5 C 227.027,231.906 226.027,232.573 224.5,232.5C 224.5,232.167 224.5,231.833 224.5,231.5C 225.391,230.89 226.391,230.557 227.5,230.5 Z"/></g>
<g><path style="opacity:0.651" fill="#999a9b" d="M 205.5,231.5 C 205.027,232.906 204.027,233.573 202.5,233.5C 202.973,232.094 203.973,231.427 205.5,231.5 Z"/></g>
<g><path style="opacity:1" fill="#181a1b" d="M 215.5,239.5 C 211.67,242.585 207.337,244.918 202.5,246.5C 197.351,245.192 195.684,242.192 197.5,237.5C 199.191,236.136 200.858,234.803 202.5,233.5C 204.027,233.573 205.027,232.906 205.5,231.5C 205.842,230.662 206.508,230.328 207.5,230.5C 209.027,230.573 210.027,229.906 210.5,228.5C 212.856,227.425 215.189,227.425 217.5,228.5C 216.653,230.061 216.986,231.561 218.5,233C 216.978,234.916 215.978,237.083 215.5,239.5 Z"/></g>
<g><path style="opacity:0.706" fill="#929694" d="M 88.5,232.5 C 90.2624,233.262 91.2624,234.596 91.5,236.5C 89.7376,235.738 88.7376,234.404 88.5,232.5 Z"/></g>
<g><path style="opacity:0.208" fill="#babcbc" d="M 140.5,233.5 C 142.38,233.229 143.713,233.896 144.5,235.5C 142.847,235.34 141.514,234.674 140.5,233.5 Z"/></g>
<g><path style="opacity:0.804" fill="#848485" d="M 120.5,234.5 C 122.404,234.738 123.738,235.738 124.5,237.5C 122.596,237.262 121.262,236.262 120.5,234.5 Z"/></g>
<g><path style="opacity:0.557" fill="#9b9c9b" d="M 202.5,233.5 C 200.858,234.803 199.191,236.136 197.5,237.5C 197.967,234.703 199.633,233.369 202.5,233.5 Z"/></g>
<g><path style="opacity:0.412" fill="#b2b3b3" d="M 254.5,232.5 C 253.92,234.749 252.587,236.415 250.5,237.5C 251.08,235.251 252.413,233.585 254.5,232.5 Z"/></g>
<g><path style="opacity:0.176" fill="#c2c3c3" d="M 158.5,234.5 C 158.573,236.027 157.906,237.027 156.5,237.5C 156.427,235.973 157.094,234.973 158.5,234.5 Z"/></g>
<g><path style="opacity:0.278" fill="#a8a9a9" d="M 184.5,234.5 C 185.906,234.973 186.573,235.973 186.5,237.5C 185.094,237.027 184.427,236.027 184.5,234.5 Z"/></g>
<g><path style="opacity:0.471" fill="#919290" d="M 124.5,237.5 C 126.027,237.427 127.027,238.094 127.5,239.5C 125.973,239.573 124.973,238.906 124.5,237.5 Z"/></g>
<g><path style="opacity:1" fill="#151718" d="M 180.5,230.5 C 181.5,232.167 182.833,233.5 184.5,234.5C 184.427,236.027 185.094,237.027 186.5,237.5C 189.231,243.455 188.231,249.122 183.5,254.5C 180.144,253.862 178.144,255.196 177.5,258.5C 176.432,259.434 175.099,259.768 173.5,259.5C 170.873,258.908 168.206,258.575 165.5,258.5C 165.027,257.094 164.027,256.427 162.5,256.5C 159.177,254.898 157.011,252.231 156,248.5C 155.322,244.779 155.489,241.112 156.5,237.5C 157.906,237.027 158.573,236.027 158.5,234.5C 164.79,226.967 172.123,225.634 180.5,230.5 Z M 172.5,240.5 C 173.167,240.5 173.833,240.5 174.5,240.5C 175.11,241.391 175.443,242.391 175.5,243.5C 174.833,243.5 174.5,243.833 174.5,244.5C 173.185,245.476 171.852,246.476 170.5,247.5C 169.478,247.145 168.811,246.478 168.5,245.5C 169.551,244.778 170.218,243.778 170.5,242.5C 171.833,242.5 172.5,241.833 172.5,240.5 Z"/></g>
<g><path style="opacity:0.192" fill="#d3d6d5" d="M 144.5,235.5 C 145.993,236.312 146.66,237.645 146.5,239.5C 146.48,240.726 146.147,241.726 145.5,242.5C 145.552,240.097 145.219,237.764 144.5,235.5 Z"/></g>
<g><path style="opacity:0.663" fill="#a4a5a8" d="M 94.5,239.5 C 96.5,240.833 98.1667,242.5 99.5,244.5C 96.8333,243.833 95.1667,242.167 94.5,239.5 Z"/></g>
<g><path style="opacity:0.392" fill="#9ea0a0" d="M 127.5,239.5 C 129.027,239.427 130.027,240.094 130.5,241.5C 128.973,241.573 127.973,240.906 127.5,239.5 Z"/></g>
<g><path style="opacity:0.549" fill="#aeafb1" d="M 174.5,240.5 C 176.552,241.053 176.885,242.053 175.5,243.5C 175.443,242.391 175.11,241.391 174.5,240.5 Z"/></g>
<g><path style="opacity:0.024" fill="#c0c0c1" d="M 172.5,240.5 C 172.5,241.833 171.833,242.5 170.5,242.5C 170.833,241.5 171.5,240.833 172.5,240.5 Z"/></g>
<g><path style="opacity:0.6" fill="#8a8d8c" d="M 250.5,237.5 C 247.5,242.5 243.5,246.5 238.5,249.5C 242.167,245.167 246.167,241.167 250.5,237.5 Z"/></g>
<g><path style="opacity:0.004" fill="#c1c2c2" d="M 79.5,244.5 C 80.9063,244.973 81.573,245.973 81.5,247.5C 80.0937,247.027 79.427,246.027 79.5,244.5 Z"/></g>
<g><path style="opacity:1" fill="#4f5253" d="M 174.5,244.5 C 174.657,245.873 174.49,247.207 174,248.5C 172.355,248.307 170.521,248.14 168.5,248C 167.226,247.023 167.226,246.189 168.5,245.5C 168.811,246.478 169.478,247.145 170.5,247.5C 171.852,246.476 173.185,245.476 174.5,244.5 Z"/></g>
<g><path style="opacity:1" fill="#2a2d2d" d="M 267.5,239.5 C 262.27,247.402 255.936,254.402 248.5,260.5C 248.5,259.167 248.5,257.833 248.5,256.5C 246.876,256.36 245.71,257.027 245,258.5C 242.739,257.228 242.239,255.562 243.5,253.5C 245.452,254.814 247.285,255.48 249,255.5C 252.874,253.692 254.374,250.859 253.5,247C 254.784,246.316 255.951,246.483 257,247.5C 257.903,246.299 259.069,245.465 260.5,245C 259.289,244.107 259.289,243.274 260.5,242.5C 262.794,241.294 265.127,240.294 267.5,239.5 Z"/></g>
<g><path style="opacity:0.02" fill="#c8c8c8" d="M 104.5,249.5 C 106.027,249.427 107.027,250.094 107.5,251.5C 105.973,251.573 104.973,250.906 104.5,249.5 Z"/></g>
<g><path style="opacity:0.816" fill="#8c8e8c" d="M 107.5,251.5 C 109.19,251.856 110.19,252.856 110.5,254.5C 108.81,254.144 107.81,253.144 107.5,251.5 Z"/></g>
<g><path style="opacity:0.706" fill="#909192" d="M 238.5,249.5 C 237.415,251.587 235.749,252.92 233.5,253.5C 234.585,251.413 236.251,250.08 238.5,249.5 Z"/></g>
<g><path style="opacity:0.518" fill="#989998" d="M 233.5,253.5 C 232.738,255.262 231.404,256.262 229.5,256.5C 230.262,254.738 231.596,253.738 233.5,253.5 Z"/></g>
<g><path style="opacity:0.867" fill="#828384" d="M 111.5,254.5 C 113.23,255.026 114.564,256.026 115.5,257.5C 113.368,257.446 112.035,256.446 111.5,254.5 Z"/></g>
<g><path style="opacity:0.937" fill="#5b5d5e" d="M 183.5,254.5 C 181.853,256.326 179.853,257.66 177.5,258.5C 178.144,255.196 180.144,253.862 183.5,254.5 Z"/></g>
<g><path style="opacity:0.651" fill="#a1a3a3" d="M 91.5,257.5 C 93.7488,258.08 95.4154,259.413 96.5,261.5C 94.2512,260.92 92.5846,259.587 91.5,257.5 Z"/></g>
<g><path style="opacity:0.349" fill="#9c9e9e" d="M 162.5,256.5 C 164.027,256.427 165.027,257.094 165.5,258.5C 163.973,258.573 162.973,257.906 162.5,256.5 Z"/></g>
<g><path style="opacity:0.525" fill="#b2b3b3" d="M 227.5,257.5 C 227.027,258.906 226.027,259.573 224.5,259.5C 224.973,258.094 225.973,257.427 227.5,257.5 Z"/></g>
<g><path style="opacity:0.004" fill="#cecfcf" d="M 165.5,258.5 C 168.206,258.575 170.873,258.908 173.5,259.5C 170.756,260.491 168.089,260.157 165.5,258.5 Z"/></g>
<g><path style="opacity:0.686" fill="#919392" d="M 224.5,259.5 C 224.027,260.906 223.027,261.573 221.5,261.5C 221.973,260.094 222.973,259.427 224.5,259.5 Z"/></g>
<g><path style="opacity:0.808" fill="#828686" d="M 96.5,261.5 C 98.4044,261.738 99.7377,262.738 100.5,264.5C 98.5956,264.262 97.2623,263.262 96.5,261.5 Z"/></g>
<g><path style="opacity:0.514" fill="#afb0b1" d="M 221.5,261.5 C 220.486,262.674 219.153,263.34 217.5,263.5C 218.287,261.896 219.62,261.229 221.5,261.5 Z"/></g>
<g><path style="opacity:0.8" fill="#7f8081" d="M 100.5,264.5 C 102.404,264.738 103.738,265.738 104.5,267.5C 102.596,267.262 101.262,266.262 100.5,264.5 Z"/></g>
<g><path style="opacity:0.016" fill="#dadbdc" d="M 244.5,263.5 C 244.027,264.906 243.027,265.573 241.5,265.5C 241.973,264.094 242.973,263.427 244.5,263.5 Z"/></g>
<g><path style="opacity:0.635" fill="#9f9fa0" d="M 215.5,264.5 C 214.486,265.674 213.153,266.34 211.5,266.5C 212.287,264.896 213.62,264.229 215.5,264.5 Z"/></g>
<g><path style="opacity:0.816" fill="#86898a" d="M 210.5,266.5 C 209.365,268.213 207.698,268.88 205.5,268.5C 206.93,267.463 208.597,266.796 210.5,266.5 Z"/></g>
<g><path style="opacity:0.478" fill="#9b9b9d" d="M 104.5,267.5 C 106.027,267.427 107.027,268.094 107.5,269.5C 105.973,269.573 104.973,268.906 104.5,267.5 Z"/></g>
<g><path style="opacity:1" fill="#5d6061" d="M 132.5,266.5 C 134.786,266.595 136.786,267.262 138.5,268.5C 135.358,269.962 133.358,269.295 132.5,266.5 Z"/></g>
<g><path style="opacity:1" fill="#646667" d="M 237.5,268.5 C 236.564,269.974 235.23,270.974 233.5,271.5C 233.586,270.504 233.252,269.671 232.5,269C 234.134,268.506 235.801,268.34 237.5,268.5 Z"/></g>
<g><path style="opacity:0.541" fill="#999a9a" d="M 138.5,268.5 C 140.786,268.595 142.786,269.262 144.5,270.5C 142.102,270.741 140.102,270.074 138.5,268.5 Z"/></g>
<g><path style="opacity:0.698" fill="#989a9b" d="M 205.5,268.5 C 203.898,270.074 201.898,270.741 199.5,270.5C 201.214,269.262 203.214,268.595 205.5,268.5 Z"/></g>
<g><path style="opacity:0.357" fill="#a9a9aa" d="M 107.5,269.5 C 109.027,269.427 110.027,270.094 110.5,271.5C 108.973,271.573 107.973,270.906 107.5,269.5 Z"/></g>
<g><path style="opacity:0.998" fill="#4e4f4f" d="M 110.5,271.5 C 114.222,270.68 116.555,272.013 117.5,275.5C 114.669,274.921 112.336,273.588 110.5,271.5 Z"/></g>
<g><path style="opacity:0.725" fill="#999a9a" d="M 198.5,270.5 C 196.22,272.223 193.553,272.889 190.5,272.5C 192.961,271.469 195.627,270.802 198.5,270.5 Z"/></g>
<g><path style="opacity:0.918" fill="#7c7e7d" d="M 231.5,272.5 C 229.97,274.346 227.97,275.346 225.5,275.5C 226.923,273.455 228.923,272.455 231.5,272.5 Z"/></g>
<g><path style="opacity:0.993" fill="#575858" d="M 117.5,275.5 C 119.857,275.337 122.19,275.503 124.5,276C 122.381,276.342 122.047,277.175 123.5,278.5C 121.181,278.008 119.181,277.008 117.5,275.5 Z"/></g>
<g><path style="opacity:0.882" fill="#818381" d="M 123.5,278.5 C 125.698,278.12 127.365,278.787 128.5,280.5C 126.447,280.598 124.78,279.931 123.5,278.5 Z"/></g>
<g><path style="opacity:0.122" fill="#a0a0a0" d="M 128.5,280.5 C 130.898,280.259 132.898,280.926 134.5,282.5C 132.102,282.741 130.102,282.074 128.5,280.5 Z"/></g>
<g><path style="opacity:0.941" fill="#7f8181" d="M 134.5,282.5 C 137.916,282.528 140.916,283.528 143.5,285.5C 140.215,285.072 137.215,284.072 134.5,282.5 Z"/></g>
</svg>
