<?xml version="1.0" encoding="UTF-8"?>
<!DOCTYPE svg PUBLIC "-//W3C//DTD SVG 1.1//EN" "http://www.w3.org/Graphics/SVG/1.1/DTD/svg11.dtd">
<svg xmlns="http://www.w3.org/2000/svg" version="1.1" width="348px" height="303px" style="shape-rendering:geometricPrecision; text-rendering:geometricPrecision; image-rendering:optimizeQuality; fill-rule:evenodd; clip-rule:evenodd" xmlns:xlink="http://www.w3.org/1999/xlink">
<g><path style="opacity:0.866" fill="#3d4246" d="M 191.5,73.5 C 178.451,73.2041 165.451,73.5374 152.5,74.5C 152.611,73.8826 152.944,73.3826 153.5,73C 166.34,72.1733 179.007,72.34 191.5,73.5 Z"/></g>
<g><path style="opacity:1" fill="#091117" d="M 191.5,73.5 C 193.262,74.2623 194.262,75.5956 194.5,77.5C 194.5,81.8333 194.5,86.1667 194.5,90.5C 193.624,90.3691 192.957,90.7025 192.5,91.5C 196.712,91.8056 197.378,93.3056 194.5,96C 195.451,96.7175 195.617,97.5509 195,98.5C 193.103,100.016 190.936,100.683 188.5,100.5C 186.708,100.634 185.042,100.301 183.5,99.5C 183.5,94.5 183.5,89.5 183.5,84.5C 176.167,84.5 168.833,84.5 161.5,84.5C 161.5,89.1667 161.5,93.8333 161.5,98.5C 161.5,99.1667 161.167,99.5 160.5,99.5C 157.505,99.2938 154.838,99.9605 152.5,101.5C 150.447,101.402 148.78,102.069 147.5,103.5C 147.158,104.338 146.492,104.672 145.5,104.5C 143.473,104.338 141.473,104.505 139.5,105C 140.598,105.77 140.598,106.603 139.5,107.5C 139.158,108.338 138.492,108.672 137.5,108.5C 136.167,108.5 134.833,108.5 133.5,108.5C 131.098,106.091 128.431,104.091 125.5,102.5C 124.609,101.89 123.609,101.557 122.5,101.5C 122.775,99.2417 123.775,98.9084 125.5,100.5C 128.01,99.4939 130.344,98.1605 132.5,96.5C 131.752,94.6675 130.752,93.0009 129.5,91.5C 130.127,90.5832 130.461,89.5832 130.5,88.5C 132.63,90.1271 134.63,91.9604 136.5,94C 137.793,94.49 139.127,94.6567 140.5,94.5C 142.967,94.2451 144.967,93.2451 146.5,91.5C 147.833,91.5 149.167,91.5 150.5,91.5C 150.5,86.8333 150.5,82.1667 150.5,77.5C 151.906,77.0269 152.573,76.0269 152.5,74.5C 165.451,73.5374 178.451,73.2041 191.5,73.5 Z"/></g>
<g><path style="opacity:0.522" fill="#8b8f92" d="M 152.5,74.5 C 152.573,76.0269 151.906,77.0269 150.5,77.5C 150.427,75.9731 151.094,74.9731 152.5,74.5 Z"/></g>
<g><path style="opacity:0.12" fill="#c9cbd2" d="M 150.5,77.5 C 150.5,82.1667 150.5,86.8333 150.5,91.5C 149.167,91.5 147.833,91.5 146.5,91.5C 147.209,90.596 148.209,90.2627 149.5,90.5C 149.182,85.9677 149.515,81.6344 150.5,77.5 Z"/></g>
<g><path style="opacity:0.064" fill="#f2f6f6" d="M 183.5,99.5 C 182.514,95.03 182.181,90.3633 182.5,85.5C 175.833,85.5 169.167,85.5 162.5,85.5C 162.818,90.0323 162.485,94.3656 161.5,98.5C 161.5,93.8333 161.5,89.1667 161.5,84.5C 168.833,84.5 176.167,84.5 183.5,84.5C 183.5,89.5 183.5,94.5 183.5,99.5 Z"/></g>
<g><path style="opacity:0.863" fill="#717679" d="M 130.5,88.5 C 127.098,88.3424 123.764,88.6758 120.5,89.5C 123.543,85.9705 126.876,85.6371 130.5,88.5 Z"/></g>
<g><path style="opacity:0.116" fill="#e2e3ea" d="M 194.5,77.5 C 195.22,81.7297 195.887,86.063 196.5,90.5C 195.833,90.5 195.167,90.5 194.5,90.5C 194.5,86.1667 194.5,81.8333 194.5,77.5 Z"/></g>
<g><path style="opacity:0.255" fill="#abadaf" d="M 221.5,87.5 C 223.179,87.2852 224.179,87.9519 224.5,89.5C 223.29,89.0679 222.29,88.4013 221.5,87.5 Z"/></g>
<g><path style="opacity:0.365" fill="#b3b5b8" d="M 120.5,89.5 C 120.167,90.5 119.5,91.1667 118.5,91.5C 118.5,90.1667 119.167,89.5 120.5,89.5 Z"/></g>
<g><path style="opacity:0.859" fill="#6f7579" d="M 216.5,87.5 C 215.415,89.5869 213.749,90.9202 211.5,91.5C 212.585,89.4131 214.251,88.0798 216.5,87.5 Z"/></g>
<g><path style="opacity:0.91" fill="#72777b" d="M 146.5,91.5 C 144.967,93.2451 142.967,94.2451 140.5,94.5C 141.911,92.461 143.911,91.461 146.5,91.5 Z"/></g>
<g><path style="opacity:0.663" fill="#9da2a4" d="M 227.5,91.5 C 231.898,94.8947 235.564,98.8947 238.5,103.5C 234.833,100.167 231.167,96.8333 227.5,93.5C 227.5,92.8333 227.5,92.1667 227.5,91.5 Z"/></g>
<g><path style="opacity:0.369" fill="#b7b9bc" d="M 118.5,91.5 C 117.833,92.8333 116.833,93.8333 115.5,94.5C 115.5,92.5 116.5,91.5 118.5,91.5 Z"/></g>
<g><path style="opacity:0.431" fill="#abaeb1" d="M 115.5,94.5 C 115.167,95.5 114.5,96.1667 113.5,96.5C 113.5,95.1667 114.167,94.5 115.5,94.5 Z"/></g>
<g><path style="opacity:1" fill="#151b20" d="M 221.5,87.5 C 222.29,88.4013 223.29,89.0679 224.5,89.5C 226.027,89.427 227.027,90.0937 227.5,91.5C 227.5,92.1667 227.5,92.8333 227.5,93.5C 226.292,94.2341 224.959,94.5674 223.5,94.5C 223.66,96.1992 223.494,97.8659 223,99.5C 222.331,96.9722 221.498,96.9722 220.5,99.5C 221.127,100.417 221.461,101.417 221.5,102.5C 220.833,102.5 220.167,102.5 219.5,102.5C 216.233,104.427 213.233,106.761 210.5,109.5C 209.609,108.89 208.609,108.557 207.5,108.5C 206.508,108.672 205.842,108.338 205.5,107.5C 205.027,106.094 204.027,105.427 202.5,105.5C 201.365,103.787 199.698,103.12 197.5,103.5C 196.365,101.787 194.698,101.12 192.5,101.5C 190.901,101.768 189.568,101.434 188.5,100.5C 190.936,100.683 193.103,100.016 195,98.5C 195.617,97.5509 195.451,96.7175 194.5,96C 197.378,93.3056 196.712,91.8056 192.5,91.5C 192.957,90.7025 193.624,90.3691 194.5,90.5C 195.167,90.5 195.833,90.5 196.5,90.5C 199.912,91.0749 202.912,92.4082 205.5,94.5C 205.917,95.1239 206.584,95.4573 207.5,95.5C 208.713,95.2528 209.38,94.5862 209.5,93.5C 209.833,92.5 210.5,91.8333 211.5,91.5C 213.749,90.9202 215.415,89.5869 216.5,87.5C 218.284,86.2801 219.95,86.2801 221.5,87.5 Z"/></g>
<g><path style="opacity:0.824" fill="#898d8f" d="M 209.5,93.5 C 209.38,94.5862 208.713,95.2528 207.5,95.5C 206.584,95.4573 205.917,95.1239 205.5,94.5C 206.959,94.5674 208.292,94.2341 209.5,93.5 Z"/></g>
<g><path style="opacity:0.369" fill="#b6babc" d="M 111.5,98.5 C 110.833,99.8333 109.833,100.833 108.5,101.5C 108.5,99.5 109.5,98.5 111.5,98.5 Z"/></g>
<g><path style="opacity:0.008" fill="#cdd0d1" d="M 160.5,99.5 C 158.095,100.768 155.428,101.435 152.5,101.5C 154.838,99.9605 157.505,99.2938 160.5,99.5 Z"/></g>
<g><path style="opacity:0.875" fill="#82858a" d="M 192.5,101.5 C 194.698,101.12 196.365,101.787 197.5,103.5C 195.447,103.598 193.78,102.931 192.5,101.5 Z"/></g>
<g><path style="opacity:0.396" fill="#acb2b5" d="M 108.5,101.5 C 108.167,102.5 107.5,103.167 106.5,103.5C 106.5,102.167 107.167,101.5 108.5,101.5 Z"/></g>
<g><path style="opacity:0.118" fill="#c3c9cb" d="M 152.5,101.5 C 151.22,102.931 149.553,103.598 147.5,103.5C 148.78,102.069 150.447,101.402 152.5,101.5 Z"/></g>
<g><path style="opacity:1" fill="#575b5e" d="M 219.5,102.5 C 220.167,102.5 220.833,102.5 221.5,102.5C 222.239,102.369 222.906,102.536 223.5,103C 222.829,103.986 222.829,105.153 223.5,106.5C 221.833,105.5 220.5,104.167 219.5,102.5 Z"/></g>
<g><path style="opacity:0.361" fill="#b4babd" d="M 106.5,103.5 C 106.167,104.5 105.5,105.167 104.5,105.5C 104.5,104.167 105.167,103.5 106.5,103.5 Z"/></g>
<g><path style="opacity:0.937" fill="#747a7e" d="M 197.5,103.5 C 199.698,103.12 201.365,103.787 202.5,105.5C 200.447,105.598 198.78,104.931 197.5,103.5 Z"/></g>
<g><path style="opacity:1" fill="#666c6f" d="M 145.5,104.5 C 143.544,105.492 141.544,106.492 139.5,107.5C 140.598,106.603 140.598,105.77 139.5,105C 141.473,104.505 143.473,104.338 145.5,104.5 Z"/></g>
<g><path style="opacity:0.753" fill="#8b9495" d="M 157.5,103.5 C 155.898,105.074 153.898,105.741 151.5,105.5C 153.214,104.262 155.214,103.595 157.5,103.5 Z"/></g>
<g><path style="opacity:1" fill="#010b13" d="M 192.5,105.5 C 191.555,107.565 190.888,109.399 190.5,111C 191.833,112 193.167,113 194.5,114C 192.879,116.166 192.045,118.666 192,121.5C 191.329,120.748 190.496,120.414 189.5,120.5C 185.259,118.362 180.925,116.862 176.5,116C 175.62,114.644 175.286,113.144 175.5,111.5C 171.278,111.263 167.111,111.596 163,112.5C 160.139,111.518 159.972,110.518 162.5,109.5C 164.167,109.5 165.833,109.5 167.5,109.5C 167.5,108.167 167.5,106.833 167.5,105.5C 170.181,105.538 172.681,104.871 175,103.5C 177.247,104.251 179.581,104.251 182,103.5C 183.167,103.833 184.333,104.167 185.5,104.5C 184.001,105.904 184.334,106.57 186.5,106.5C 188.453,105.844 190.453,105.511 192.5,105.5 Z"/></g>
<g><path style="opacity:1" fill="#030c14" d="M 130.5,88.5 C 130.461,89.5832 130.127,90.5832 129.5,91.5C 130.752,93.0009 131.752,94.6675 132.5,96.5C 130.344,98.1605 128.01,99.4939 125.5,100.5C 123.775,98.9084 122.775,99.2417 122.5,101.5C 122.19,102.738 121.69,102.738 121,101.5C 119.587,103.652 118.754,105.986 118.5,108.5C 116.94,108.481 115.44,108.148 114,107.5C 112.7,108.707 111.2,109.374 109.5,109.5C 109.421,110.93 109.754,112.264 110.5,113.5C 108.009,114.541 108.009,115.374 110.5,116C 108.735,116.64 107.068,116.473 105.5,115.5C 104.053,114.378 103.053,112.878 102.5,111C 103.167,110.667 103.833,110.333 104.5,110C 103.587,108.586 103.587,107.086 104.5,105.5C 105.5,105.167 106.167,104.5 106.5,103.5C 107.5,103.167 108.167,102.5 108.5,101.5C 109.833,100.833 110.833,99.8333 111.5,98.5C 111.5,97.1667 112.167,96.5 113.5,96.5C 114.5,96.1667 115.167,95.5 115.5,94.5C 116.833,93.8333 117.833,92.8333 118.5,91.5C 119.5,91.1667 120.167,90.5 120.5,89.5C 123.764,88.6758 127.098,88.3424 130.5,88.5 Z"/></g>
<g><path style="opacity:0.314" fill="#a3b1b2" d="M 202.5,105.5 C 204.027,105.427 205.027,106.094 205.5,107.5C 203.973,107.573 202.973,106.906 202.5,105.5 Z"/></g>
<g><path style="opacity:0.655" fill="#9d9fa4" d="M 223.5,106.5 C 225.5,106.5 226.5,107.5 226.5,109.5C 225.167,108.833 224.167,107.833 223.5,106.5 Z"/></g>
<g><path style="opacity:1" fill="#686e70" d="M 239.5,103.5 C 241.167,104.5 242.5,105.833 243.5,107.5C 240.858,107.512 239.525,106.179 239.5,103.5 Z"/></g>
<g><path style="opacity:0.69" fill="#a3a6a7" d="M 133.5,108.5 C 134.833,108.5 136.167,108.5 137.5,108.5C 136.167,111.167 134.833,111.167 133.5,108.5 Z"/></g>
<g><path style="opacity:1" fill="#091115" d="M 162.5,109.5 C 159.972,110.518 160.139,111.518 163,112.5C 167.111,111.596 171.278,111.263 175.5,111.5C 175.286,113.144 175.62,114.644 176.5,116C 180.925,116.862 185.259,118.362 189.5,120.5C 188.167,120.5 186.833,120.5 185.5,120.5C 183.05,120.702 180.717,120.369 178.5,119.5C 176.19,118.836 173.69,118.503 171,118.5C 167.195,118.304 163.695,118.97 160.5,120.5C 158.102,120.259 156.102,120.926 154.5,122.5C 154.158,123.338 153.492,123.672 152.5,123.5C 150.708,123.634 149.042,123.301 147.5,122.5C 146.761,122.631 146.094,122.464 145.5,122C 147.736,121.266 149.069,119.766 149.5,117.5C 148.499,114.518 147.999,111.518 148,108.5C 148.333,109.167 148.667,109.833 149,110.5C 149.309,109.234 149.809,108.067 150.5,107C 153.224,106.73 155.891,106.23 158.5,105.5C 160.375,106.409 161.708,107.743 162.5,109.5 Z"/></g>
<g><path style="opacity:1" fill="#53595d" d="M 196.5,106.5 C 198.153,106.66 199.486,107.326 200.5,108.5C 199.486,107.326 198.153,106.66 196.5,106.5 Z"/></g>
<g><path style="opacity:0.635" fill="#979c9e" d="M 243.5,107.5 C 244.906,107.973 245.573,108.973 245.5,110.5C 244.094,110.027 243.427,109.027 243.5,107.5 Z"/></g>
<g><path style="opacity:1" fill="#2b3035" d="M 122.5,101.5 C 123.609,101.557 124.609,101.89 125.5,102.5C 119.833,108.833 113.833,114.833 107.5,120.5C 107.053,117.476 106.22,117.143 105,119.5C 104.626,118.584 104.126,117.75 103.5,117C 104.416,116.722 105.082,116.222 105.5,115.5C 107.068,116.473 108.735,116.64 110.5,116C 108.009,115.374 108.009,114.541 110.5,113.5C 109.754,112.264 109.421,110.93 109.5,109.5C 111.2,109.374 112.7,108.707 114,107.5C 115.44,108.148 116.94,108.481 118.5,108.5C 118.754,105.986 119.587,103.652 121,101.5C 121.69,102.738 122.19,102.738 122.5,101.5 Z"/></g>
<g><path style="opacity:0.729" fill="#8b9293" d="M 144.5,108.5 C 144.027,109.906 143.027,110.573 141.5,110.5C 141.973,109.094 142.973,108.427 144.5,108.5 Z"/></g>
<g><path style="opacity:1" fill="#12181d" d="M 193.5,105.5 C 193.167,105.5 192.833,105.5 192.5,105.5C 190.453,105.511 188.453,105.844 186.5,106.5C 184.334,106.57 184.001,105.904 185.5,104.5C 184.333,104.167 183.167,103.833 182,103.5C 179.581,104.251 177.247,104.251 175,103.5C 172.681,104.871 170.181,105.538 167.5,105.5C 167.5,106.833 167.5,108.167 167.5,109.5C 165.833,109.5 164.167,109.5 162.5,109.5C 161.708,107.743 160.375,106.409 158.5,105.5C 155.891,106.23 153.224,106.73 150.5,107C 149.809,108.067 149.309,109.234 149,110.5C 148.667,109.833 148.333,109.167 148,108.5C 147.999,111.518 148.499,114.518 149.5,117.5C 149.069,119.766 147.736,121.266 145.5,122C 146.094,122.464 146.761,122.631 147.5,122.5C 147.5,123.833 147.5,125.167 147.5,126.5C 143.311,125.282 141.311,126.948 141.5,131.5C 139.777,130.928 138.277,130.928 137,131.5C 136.506,133.134 136.34,134.801 136.5,136.5C 135.85,136.196 135.183,135.863 134.5,135.5C 134.089,136.262 133.923,137.262 134,138.5C 133.617,137.944 133.117,137.611 132.5,137.5C 130.331,138.082 127.998,138.082 125.5,137.5C 125.473,135.801 124.806,134.467 123.5,133.5C 122.967,130.551 123.301,127.551 124.5,124.5C 124.833,123.5 125.5,122.833 126.5,122.5C 128.167,121.5 129.5,120.167 130.5,118.5C 130.5,117.833 130.833,117.5 131.5,117.5C 133.749,116.92 135.415,115.587 136.5,113.5C 138.027,113.573 139.027,112.906 139.5,111.5C 139.842,110.662 140.508,110.328 141.5,110.5C 143.027,110.573 144.027,109.906 144.5,108.5C 146.509,106.935 148.843,105.935 151.5,105.5C 153.898,105.741 155.898,105.074 157.5,103.5C 165.69,101.551 174.024,101.051 182.5,102C 186.475,102.614 190.141,103.781 193.5,105.5 Z"/></g>
<g><path style="opacity:1" fill="#11171c" d="M 192.5,105.5 C 192.833,105.5 193.167,105.5 193.5,105.5C 194.791,105.263 195.791,105.596 196.5,106.5C 196.351,107.552 196.517,108.552 197,109.5C 198.011,108.663 199.178,108.33 200.5,108.5C 205.322,109.998 209.322,112.664 212.5,116.5C 214.833,119.5 217.5,122.167 220.5,124.5C 221.5,124.833 222.167,125.5 222.5,126.5C 222.427,128.027 223.094,129.027 224.5,129.5C 225.674,130.514 226.34,131.847 226.5,133.5C 225.069,133.119 224.236,132.119 224,130.5C 223.586,130.957 223.086,131.291 222.5,131.5C 219.819,126.963 216.819,126.63 213.5,130.5C 215.135,132.646 214.801,133.813 212.5,134C 211.724,130.736 210.057,128.903 207.5,128.5C 207.833,127.833 208.167,127.167 208.5,126.5C 206.542,123.829 205.376,121.162 205,118.5C 202.797,118.239 200.63,118.739 198.5,120C 199.654,120.914 199.487,121.747 198,122.5C 197.282,121.549 196.449,121.383 195.5,122C 195.619,123.145 195.952,124.312 196.5,125.5C 194.181,125.008 192.181,124.008 190.5,122.5C 190.167,121.833 189.833,121.167 189.5,120.5C 190.496,120.414 191.329,120.748 192,121.5C 192.045,118.666 192.879,116.166 194.5,114C 193.167,113 191.833,112 190.5,111C 190.888,109.399 191.555,107.565 192.5,105.5 Z"/></g>
<g><path style="opacity:0.071" fill="#c8ced0" d="M 207.5,108.5 C 208.609,108.557 209.609,108.89 210.5,109.5C 209.221,110.715 208.221,110.382 207.5,108.5 Z"/></g>
<g><path style="opacity:1" fill="#616669" d="M 226.5,109.5 C 229.179,109.525 230.512,110.858 230.5,113.5C 228.833,112.5 227.5,111.167 226.5,109.5 Z"/></g>
<g><path style="opacity:1" fill="#071015" d="M 227.5,93.5 C 231.167,96.8333 234.833,100.167 238.5,103.5C 238.833,103.5 239.167,103.5 239.5,103.5C 239.525,106.179 240.858,107.512 243.5,107.5C 243.427,109.027 244.094,110.027 245.5,110.5C 245.833,110.5 246.167,110.5 246.5,110.5C 247.757,113.427 249.757,115.761 252.5,117.5C 252.741,119.886 252.075,121.886 250.5,123.5C 249.522,123.189 248.855,122.522 248.5,121.5C 250.371,118.252 249.537,115.586 246,113.5C 245.667,114.167 245.333,114.833 245,115.5C 243.596,113.097 242.429,111.097 241.5,109.5C 239.009,109.909 237.009,111.076 235.5,113C 236.376,114.585 237.709,115.585 239.5,116C 238.672,116.915 237.672,117.581 236.5,118C 238.619,118.098 240.286,118.931 241.5,120.5C 240.218,120.088 239.218,120.754 238.5,122.5C 238.672,121.508 238.338,120.842 237.5,120.5C 235.833,119.5 234.5,118.167 233.5,116.5C 233.5,114.5 232.5,113.5 230.5,113.5C 230.512,110.858 229.179,109.525 226.5,109.5C 226.5,107.5 225.5,106.5 223.5,106.5C 222.829,105.153 222.829,103.986 223.5,103C 222.906,102.536 222.239,102.369 221.5,102.5C 221.461,101.417 221.127,100.417 220.5,99.5C 221.498,96.9722 222.331,96.9722 223,99.5C 223.494,97.8659 223.66,96.1992 223.5,94.5C 224.959,94.5674 226.292,94.2341 227.5,93.5 Z"/></g>
<g><path style="opacity:0.58" fill="#a2aab0" d="M 246.5,110.5 C 249.243,112.239 251.243,114.573 252.5,117.5C 249.757,115.761 247.757,113.427 246.5,110.5 Z"/></g>
<g><path style="opacity:0.424" fill="#acb0b2" d="M 99.5,110.5 C 98.8333,111.833 97.8333,112.833 96.5,113.5C 96.5,111.5 97.5,110.5 99.5,110.5 Z"/></g>
<g><path style="opacity:0.647" fill="#9da0a3" d="M 139.5,111.5 C 139.027,112.906 138.027,113.573 136.5,113.5C 136.973,112.094 137.973,111.427 139.5,111.5 Z"/></g>
<g><path style="opacity:0.663" fill="#a1a3a5" d="M 230.5,113.5 C 232.5,113.5 233.5,114.5 233.5,116.5C 232.167,115.833 231.167,114.833 230.5,113.5 Z"/></g>
<g><path style="opacity:0.835" fill="#7b7f83" d="M 136.5,113.5 C 135.415,115.587 133.749,116.92 131.5,117.5C 132.585,115.413 134.251,114.08 136.5,113.5 Z"/></g>
<g><path style="opacity:0.012" fill="#b9bfc1" d="M 212.5,116.5 C 216.167,118.167 218.833,120.833 220.5,124.5C 217.5,122.167 214.833,119.5 212.5,116.5 Z"/></g>
<g><path style="opacity:1" fill="#12181d" d="M 104.5,105.5 C 103.587,107.086 103.587,108.586 104.5,110C 103.833,110.333 103.167,110.667 102.5,111C 103.053,112.878 104.053,114.378 105.5,115.5C 105.082,116.222 104.416,116.722 103.5,117C 104.126,117.75 104.626,118.584 105,119.5C 106.22,117.143 107.053,117.476 107.5,120.5C 109.091,123.431 111.091,126.098 113.5,128.5C 113.5,128.833 113.5,129.167 113.5,129.5C 111.621,129.393 111.288,129.893 112.5,131C 111.299,131.903 110.465,133.069 110,134.5C 109.667,133.5 109.333,132.5 109,131.5C 107.556,133.155 105.722,133.822 103.5,133.5C 103.649,132.448 103.483,131.448 103,130.5C 102.802,132.382 102.302,134.048 101.5,135.5C 101.771,133.62 101.104,132.287 99.5,131.5C 97.1377,128.808 94.8044,126.141 92.5,123.5C 91.2599,119.232 92.5933,115.899 96.5,113.5C 97.8333,112.833 98.8333,111.833 99.5,110.5C 100.478,108.188 102.145,106.522 104.5,105.5 Z"/></g>
<g><path style="opacity:0.165" fill="#b9bbc0" d="M 178.5,119.5 C 172.464,119.36 166.464,119.693 160.5,120.5C 163.695,118.97 167.195,118.304 171,118.5C 173.69,118.503 176.19,118.836 178.5,119.5 Z"/></g>
<g><path style="opacity:0.431" fill="#b1b5b8" d="M 130.5,118.5 C 129.5,120.167 128.167,121.5 126.5,122.5C 126.833,120.167 128.167,118.833 130.5,118.5 Z"/></g>
<g><path style="opacity:0.902" fill="#77797e" d="M 185.5,120.5 C 186.833,120.5 188.167,120.5 189.5,120.5C 189.833,121.167 190.167,121.833 190.5,122.5C 188.447,122.598 186.78,121.931 185.5,120.5 Z"/></g>
<g><path style="opacity:0.169" fill="#b6b9bd" d="M 160.5,120.5 C 158.786,121.738 156.786,122.405 154.5,122.5C 156.102,120.926 158.102,120.259 160.5,120.5 Z"/></g>
<g><path style="opacity:1" fill="#575d60" d="M 147.5,122.5 C 149.042,123.301 150.708,123.634 152.5,123.5C 151.101,124.89 149.434,125.89 147.5,126.5C 147.5,125.167 147.5,123.833 147.5,122.5 Z"/></g>
<g><path style="opacity:1" fill="#6f7376" d="M 252.5,117.5 C 253.629,119.628 253.796,121.961 253,124.5C 252.623,125.942 251.79,126.942 250.5,127.5C 250.5,126.167 250.5,124.833 250.5,123.5C 252.075,121.886 252.741,119.886 252.5,117.5 Z"/></g>
<g><path style="opacity:0.263" fill="#b6b8bb" d="M 92.5,123.5 C 94.8044,126.141 97.1377,128.808 99.5,131.5C 95.7264,130.062 93.3931,127.395 92.5,123.5 Z"/></g>
<g><path style="opacity:0.639" fill="#969c9e" d="M 237.5,120.5 C 238.338,120.842 238.672,121.508 238.5,122.5C 237.415,124.587 235.749,125.92 233.5,126.5C 235.252,124.754 236.585,122.754 237.5,120.5 Z"/></g>
<g><path style="opacity:0.412" fill="#9da1a4" d="M 196.5,125.5 C 198.027,125.427 199.027,126.094 199.5,127.5C 197.973,127.573 196.973,126.906 196.5,125.5 Z"/></g>
<g><path style="opacity:0.831" fill="#9da2a3" d="M 199.5,127.5 C 203.833,129.833 207.167,133.167 209.5,137.5C 205.833,134.5 202.5,131.167 199.5,127.5 Z"/></g>
<g><path style="opacity:1" fill="#404549" d="M 250.5,127.5 C 248.806,129.861 246.806,131.861 244.5,133.5C 244.714,131.856 244.38,130.356 243.5,129C 245.138,128.758 246.638,127.925 248,126.5C 248.671,127.252 249.504,127.586 250.5,127.5 Z"/></g>
<g><path style="opacity:1" fill="#464b4e" d="M 147.5,126.5 C 145.54,128.156 143.54,129.823 141.5,131.5C 141.311,126.948 143.311,125.282 147.5,126.5 Z"/></g>
<g><path style="opacity:0.212" fill="#c8cccd" d="M 222.5,126.5 C 223.906,126.973 224.573,127.973 224.5,129.5C 223.094,129.027 222.427,128.027 222.5,126.5 Z"/></g>
<g><path style="opacity:0.714" fill="#929799" d="M 233.5,126.5 C 232.043,128.628 231.043,130.962 230.5,133.5C 228.944,130.312 229.944,127.979 233.5,126.5 Z"/></g>
<g><path style="opacity:1" fill="#2e3336" d="M 124.5,124.5 C 123.301,127.551 122.967,130.551 123.5,133.5C 121.766,132.438 120.099,132.438 118.5,133.5C 119.723,129.951 121.723,126.951 124.5,124.5 Z"/></g>
<g><path style="opacity:1" fill="#071017" d="M 250.5,123.5 C 250.5,124.833 250.5,126.167 250.5,127.5C 249.504,127.586 248.671,127.252 248,126.5C 246.638,127.925 245.138,128.758 243.5,129C 244.38,130.356 244.714,131.856 244.5,133.5C 243.206,135.68 243.539,137.68 245.5,139.5C 246.11,140.391 246.443,141.391 246.5,142.5C 246.5,143.167 246.5,143.833 246.5,144.5C 245.732,143.737 245.232,142.737 245,141.5C 244.667,141.833 244.333,142.167 244,142.5C 242.806,140.475 241.306,140.141 239.5,141.5C 237.844,138.982 236.511,138.982 235.5,141.5C 235.167,141.5 234.833,141.5 234.5,141.5C 233.596,140.791 233.263,139.791 233.5,138.5C 233.843,136.517 233.176,135.183 231.5,134.5C 230.833,134.5 230.5,134.167 230.5,133.5C 231.043,130.962 232.043,128.628 233.5,126.5C 235.749,125.92 237.415,124.587 238.5,122.5C 239.218,120.754 240.218,120.088 241.5,120.5C 240.286,118.931 238.619,118.098 236.5,118C 237.672,117.581 238.672,116.915 239.5,116C 237.709,115.585 236.376,114.585 235.5,113C 237.009,111.076 239.009,109.909 241.5,109.5C 242.429,111.097 243.596,113.097 245,115.5C 245.333,114.833 245.667,114.167 246,113.5C 249.537,115.586 250.371,118.252 248.5,121.5C 248.855,122.522 249.522,123.189 250.5,123.5 Z"/></g>
<g><path style="opacity:1" fill="#12171c" d="M 113.5,129.5 C 114.234,130.708 114.567,132.041 114.5,133.5C 111.381,140.338 109.048,147.338 107.5,154.5C 101.925,155.452 96.2586,155.786 90.5,155.5C 90.5,162.5 90.5,169.5 90.5,176.5C 96.1667,176.5 101.833,176.5 107.5,176.5C 108.341,178.379 108.675,180.379 108.5,182.5C 107.224,184.562 106.39,186.896 106,189.5C 104.915,190.293 103.748,190.96 102.5,191.5C 101.77,190.066 100.77,188.9 99.5,188C 99.8333,187.667 100.167,187.333 100.5,187C 94.8431,186.501 89.1764,186.334 83.5,186.5C 82.609,185.89 81.609,185.557 80.5,185.5C 79.7784,185.082 79.2784,184.416 79,183.5C 78.3333,171.833 78.3333,160.167 79,148.5C 79.7589,146.937 80.9256,145.937 82.5,145.5C 88.2709,146.113 93.6042,145.446 98.5,143.5C 98.5,143.167 98.5,142.833 98.5,142.5C 100.28,141.01 100.946,139.01 100.5,136.5C 101.167,136.5 101.5,136.167 101.5,135.5C 102.302,134.048 102.802,132.382 103,130.5C 103.483,131.448 103.649,132.448 103.5,133.5C 105.722,133.822 107.556,133.155 109,131.5C 109.333,132.5 109.667,133.5 110,134.5C 110.465,133.069 111.299,131.903 112.5,131C 111.288,129.893 111.621,129.393 113.5,129.5 Z"/></g>
<g><path style="opacity:0.459" fill="#94989c" d="M 113.5,128.5 C 115.597,129.879 115.93,131.545 114.5,133.5C 114.567,132.041 114.234,130.708 113.5,129.5C 113.5,129.167 113.5,128.833 113.5,128.5 Z"/></g>
<g><path style="opacity:1" fill="#44484d" d="M 141.5,131.5 C 140.167,133.5 138.5,135.167 136.5,136.5C 136.34,134.801 136.506,133.134 137,131.5C 138.277,130.928 139.777,130.928 141.5,131.5 Z"/></g>
<g><path style="opacity:1" fill="#13181c" d="M 226.5,133.5 C 227.11,135.434 228.11,137.101 229.5,138.5C 229.12,140.698 229.787,142.365 231.5,143.5C 231.69,146.855 232.69,149.855 234.5,152.5C 235.804,160.53 235.804,168.53 234.5,176.5C 233.232,178.905 232.565,181.572 232.5,184.5C 231.903,189.018 230.236,193.018 227.5,196.5C 227.5,196.167 227.5,195.833 227.5,195.5C 226.529,191.563 227.529,188.063 230.5,185C 229.941,184.275 229.608,183.442 229.5,182.5C 232.437,173.053 232.937,163.72 231,154.5C 230.333,155.833 229.667,155.833 229,154.5C 228.313,152.08 228.813,149.913 230.5,148C 229.213,146.59 228.046,145.09 227,143.5C 226.036,159.35 225.369,175.35 225,191.5C 223.721,186.679 223.054,181.679 223,176.5C 220.772,181.469 218.605,186.469 216.5,191.5C 212.337,192.881 208.67,194.881 205.5,197.5C 207.177,195.46 208.844,193.46 210.5,191.5C 211.906,191.027 212.573,190.027 212.5,188.5C 213.227,186.046 214.227,183.713 215.5,181.5C 217.074,179.898 217.741,177.898 217.5,175.5C 217.5,168.5 217.5,161.5 217.5,154.5C 217.946,151.99 217.28,149.99 215.5,148.5C 213.262,145.028 211.262,141.362 209.5,137.5C 207.167,133.167 203.833,129.833 199.5,127.5C 199.027,126.094 198.027,125.427 196.5,125.5C 195.952,124.312 195.619,123.145 195.5,122C 196.449,121.383 197.282,121.549 198,122.5C 199.487,121.747 199.654,120.914 198.5,120C 200.63,118.739 202.797,118.239 205,118.5C 205.376,121.162 206.542,123.829 208.5,126.5C 208.167,127.167 207.833,127.833 207.5,128.5C 210.057,128.903 211.724,130.736 212.5,134C 214.801,133.813 215.135,132.646 213.5,130.5C 216.819,126.63 219.819,126.963 222.5,131.5C 223.086,131.291 223.586,130.957 224,130.5C 224.236,132.119 225.069,133.119 226.5,133.5 Z"/></g>
<g><path style="opacity:1" fill="#151b1e" d="M 123.5,133.5 C 124.806,134.467 125.473,135.801 125.5,137.5C 127.998,138.082 130.331,138.082 132.5,137.5C 132.5,139.167 132.5,140.833 132.5,142.5C 130.087,143.68 129.087,145.68 129.5,148.5C 127.765,156.715 127.098,165.048 127.5,173.5C 126.676,169.688 126.176,165.688 126,161.5C 125.667,163.5 125.333,165.5 125,167.5C 124.583,166.244 123.75,165.577 122.5,165.5C 122.374,163.8 121.707,162.3 120.5,161C 122.484,157.291 122.484,153.458 120.5,149.5C 119.264,150.246 117.93,150.579 116.5,150.5C 116.938,154.908 114.938,156.575 110.5,155.5C 110.566,151.235 111.566,147.235 113.5,143.5C 114.674,142.486 115.34,141.153 115.5,139.5C 115.263,138.209 115.596,137.209 116.5,136.5C 117.906,136.027 118.573,135.027 118.5,133.5C 120.099,132.438 121.766,132.438 123.5,133.5 Z"/></g>
<g><path style="opacity:0.043" fill="#cecfd1" d="M 99.5,131.5 C 101.104,132.287 101.771,133.62 101.5,135.5C 101.5,136.167 101.167,136.5 100.5,136.5C 100.371,134.784 100.038,133.117 99.5,131.5 Z"/></g>
<g><path style="opacity:1" fill="#656b6d" d="M 231.5,134.5 C 233.176,135.183 233.843,136.517 233.5,138.5C 231.896,137.713 231.229,136.38 231.5,134.5 Z"/></g>
<g><path style="opacity:0.278" fill="#b4b6b7" d="M 118.5,133.5 C 118.573,135.027 117.906,136.027 116.5,136.5C 116.427,134.973 117.094,133.973 118.5,133.5 Z"/></g>
<g><path style="opacity:1" fill="#5c6265" d="M 136.5,136.5 C 135.66,138.853 134.326,140.853 132.5,142.5C 132.5,140.833 132.5,139.167 132.5,137.5C 133.117,137.611 133.617,137.944 134,138.5C 133.923,137.262 134.089,136.262 134.5,135.5C 135.183,135.863 135.85,136.196 136.5,136.5 Z"/></g>
<g><path style="opacity:0.459" fill="#a2aaac" d="M 226.5,133.5 C 228.727,134.401 229.727,136.067 229.5,138.5C 228.11,137.101 227.11,135.434 226.5,133.5 Z"/></g>
<g><path style="opacity:0.847" fill="#8c959b" d="M 244.5,133.5 C 244.833,135.5 245.167,137.5 245.5,139.5C 243.539,137.68 243.206,135.68 244.5,133.5 Z"/></g>
<g><path style="opacity:1" fill="#62656a" d="M 100.5,136.5 C 100.946,139.01 100.28,141.01 98.5,142.5C 98.8751,140.302 99.5418,138.302 100.5,136.5 Z"/></g>
<g><path style="opacity:0.141" fill="#bcbebf" d="M 115.5,139.5 C 115.34,141.153 114.674,142.486 113.5,143.5C 113.229,141.62 113.896,140.287 115.5,139.5 Z"/></g>
<g><path style="opacity:0.965" fill="#656a6b" d="M 229.5,138.5 C 230.931,139.78 231.598,141.447 231.5,143.5C 229.787,142.365 229.12,140.698 229.5,138.5 Z"/></g>
<g><path style="opacity:1" fill="#666c70" d="M 234.5,141.5 C 234.833,141.5 235.167,141.5 235.5,141.5C 235.577,142.75 236.244,143.583 237.5,144C 236.748,144.671 236.414,145.504 236.5,146.5C 235.069,145.22 234.402,143.553 234.5,141.5 Z"/></g>
<g><path style="opacity:0.004" fill="#f4f4f6" d="M 246.5,142.5 C 248.306,143.024 249.972,143.691 251.5,144.5C 249.833,144.5 248.167,144.5 246.5,144.5C 246.5,143.833 246.5,143.167 246.5,142.5 Z"/></g>
<g><path style="opacity:0.657" fill="#95989b" d="M 98.5,143.5 C 93.6042,145.446 88.2709,146.113 82.5,145.5C 82.9175,144.778 83.5842,144.278 84.5,144C 89.3155,143.908 93.9822,143.742 98.5,143.5 Z"/></g>
<g><path style="opacity:1" fill="#65696c" d="M 132.5,142.5 C 132.008,144.819 131.008,146.819 129.5,148.5C 129.087,145.68 130.087,143.68 132.5,142.5 Z"/></g>
<g><path style="opacity:0.702" fill="#989c9e" d="M 175.5,148.5 C 175.5,147.5 175.5,146.5 175.5,145.5C 171.821,145.06 168.488,145.727 165.5,147.5C 165.33,146.178 165.663,145.011 166.5,144C 169.817,143.502 173.15,143.335 176.5,143.5C 176.784,145.415 176.451,147.081 175.5,148.5 Z"/></g>
<g><path style="opacity:0.614" fill="#959a9d" d="M 263.5,145.5 C 257.642,145.822 251.975,145.489 246.5,144.5C 248.167,144.5 249.833,144.5 251.5,144.5C 253.519,144.778 255.686,144.445 258,143.5C 260.111,143.701 261.945,144.367 263.5,145.5 Z"/></g>
<g><path style="opacity:0.675" fill="#959fa2" d="M 263.5,145.5 C 264.906,145.973 265.573,146.973 265.5,148.5C 264.094,148.027 263.427,147.027 263.5,145.5 Z"/></g>
<g><path style="opacity:0.745" fill="#a2a5a8" d="M 156.5,152.5 C 156.674,150.139 157.007,147.806 157.5,145.5C 154.5,145.5 151.5,145.5 148.5,145.5C 148.598,147.553 147.931,149.22 146.5,150.5C 146.665,148.173 147.331,146.007 148.5,144C 151.817,143.502 155.15,143.335 158.5,143.5C 158.785,146.829 158.118,149.829 156.5,152.5 Z"/></g>
<g><path style="opacity:0.537" fill="#a1a5a8" d="M 231.5,143.5 C 233.472,146.084 234.472,149.084 234.5,152.5C 232.69,149.855 231.69,146.855 231.5,143.5 Z"/></g>
<g><path style="opacity:1" fill="#0c1317" d="M 122.5,165.5 C 120.433,168.386 120.6,171.386 123,174.5C 123.828,178.871 123.661,183.205 122.5,187.5C 120.423,186.012 119.423,184.012 119.5,181.5C 117.876,181.64 116.71,180.973 116,179.5C 113.886,182.62 114.386,184.953 117.5,186.5C 117.058,187.739 116.391,188.739 115.5,189.5C 114.833,188.5 114.167,187.5 113.5,186.5C 113.964,181.97 112.964,177.97 110.5,174.5C 109.205,168.197 109.205,161.864 110.5,155.5C 114.938,156.575 116.938,154.908 116.5,150.5C 117.93,150.579 119.264,150.246 120.5,149.5C 122.484,153.458 122.484,157.291 120.5,161C 121.707,162.3 122.374,163.8 122.5,165.5 Z"/></g>
<g><path style="opacity:0.839" fill="#6d7474" d="M 215.5,148.5 C 217.28,149.99 217.946,151.99 217.5,154.5C 216.262,152.786 215.595,150.786 215.5,148.5 Z"/></g>
<g><path style="opacity:1" fill="#141b20" d="M 246.5,144.5 C 251.975,145.489 257.642,145.822 263.5,145.5C 263.427,147.027 264.094,148.027 265.5,148.5C 266.659,159.993 266.826,171.659 266,183.5C 265.252,185.751 263.752,187.084 261.5,187.5C 261.5,187.167 261.5,186.833 261.5,186.5C 262.973,182.532 263.973,178.366 264.5,174C 263.756,166.857 263.256,159.691 263,152.5C 261.956,151.377 261.29,150.044 261,148.5C 259.266,149.249 257.433,149.749 255.5,150C 256.815,151.395 256.481,152.395 254.5,153C 255.598,153.77 255.598,154.603 254.5,155.5C 249.167,155.5 243.833,155.5 238.5,155.5C 238.435,152.572 237.768,149.905 236.5,147.5C 236.5,147.167 236.5,146.833 236.5,146.5C 236.414,145.504 236.748,144.671 237.5,144C 236.244,143.583 235.577,142.75 235.5,141.5C 236.511,138.982 237.844,138.982 239.5,141.5C 241.306,140.141 242.806,140.475 244,142.5C 244.333,142.167 244.667,141.833 245,141.5C 245.232,142.737 245.732,143.737 246.5,144.5 Z"/></g>
<g><path style="opacity:1" fill="#010b14" d="M 261.5,186.5 C 256.5,186.5 251.5,186.5 246.5,186.5C 247.995,183.809 248.995,181.142 249.5,178.5C 251.323,179.747 253.323,180.414 255.5,180.5C 255.48,178.857 256.147,177.524 257.5,176.5C 256.206,170.186 256.206,163.853 257.5,157.5C 257.333,156.833 257.167,156.167 257,155.5C 256.23,156.598 255.397,156.598 254.5,155.5C 255.598,154.603 255.598,153.77 254.5,153C 256.481,152.395 256.815,151.395 255.5,150C 257.433,149.749 259.266,149.249 261,148.5C 261.29,150.044 261.956,151.377 263,152.5C 263.256,159.691 263.756,166.857 264.5,174C 263.973,178.366 262.973,182.532 261.5,186.5 Z"/></g>
<g><path style="opacity:0.008" fill="#c3c6c8" d="M 199.5,153.5 C 200.833,153.5 201.5,154.167 201.5,155.5C 200.5,155.167 199.833,154.5 199.5,153.5 Z"/></g>
<g><path style="opacity:0.827" fill="#8a8f92" d="M 146.5,151.5 C 146.741,153.898 146.074,155.898 144.5,157.5C 144.595,155.214 145.262,153.214 146.5,151.5 Z"/></g>
<g><path style="opacity:0.718" fill="#6d7378" d="M 165.5,148.5 C 165.5,149.833 165.5,151.167 165.5,152.5C 164.833,153.5 164.167,154.5 163.5,155.5C 163.41,152.848 164.076,150.515 165.5,148.5 Z"/></g>
<g><path style="opacity:0.773" fill="#979a9e" d="M 179.5,151.5 C 179.741,153.898 179.074,155.898 177.5,157.5C 177.595,155.214 178.262,153.214 179.5,151.5 Z"/></g>
<g><path style="opacity:0.169" fill="#b4babb" d="M 236.5,147.5 C 237.768,149.905 238.435,152.572 238.5,155.5C 236.96,153.162 236.294,150.495 236.5,147.5 Z"/></g>
<g><path style="opacity:1" fill="#161c21" d="M 175.5,148.5 C 174.063,154.335 172.396,160.002 170.5,165.5C 168.837,167.438 168.171,169.772 168.5,172.5C 167.946,175.746 166.946,178.746 165.5,181.5C 164.661,182.641 163.994,183.974 163.5,185.5C 160.554,186.655 157.554,186.821 154.5,186C 155.38,184.644 155.714,183.144 155.5,181.5C 155.232,179.901 155.566,178.568 156.5,177.5C 158.074,175.898 158.741,173.898 158.5,171.5C 156.393,170.532 154.059,170.198 151.5,170.5C 154.167,169.894 156.834,169.061 159.5,168C 158.934,165.639 159.934,163.806 162.5,162.5C 163.016,159.749 164.183,157.416 166,155.5C 166.333,156.167 166.667,156.833 167,157.5C 167.788,155.835 168.122,154.169 168,152.5C 166.608,154.842 165.775,154.842 165.5,152.5C 165.5,151.167 165.5,149.833 165.5,148.5C 165.5,148.167 165.5,147.833 165.5,147.5C 168.488,145.727 171.821,145.06 175.5,145.5C 175.5,146.5 175.5,147.5 175.5,148.5 Z"/></g>
<g><path style="opacity:0.169" fill="#b3b8bf" d="M 201.5,155.5 C 202.906,155.973 203.573,156.973 203.5,158.5C 202.094,158.027 201.427,157.027 201.5,155.5 Z"/></g>
<g><path style="opacity:0.378" fill="#999da1" d="M 238.5,155.5 C 243.833,155.5 249.167,155.5 254.5,155.5C 254.5,162.5 254.5,169.5 254.5,176.5C 249.167,176.5 243.833,176.5 238.5,176.5C 243.305,175.513 248.305,175.179 253.5,175.5C 253.5,169.167 253.5,162.833 253.5,156.5C 248.305,156.821 243.305,156.487 238.5,155.5 Z"/></g>
<g><path style="opacity:0.417" fill="#969c9f" d="M 107.5,154.5 C 102.604,156.446 97.2709,157.113 91.5,156.5C 91.5,162.833 91.5,169.167 91.5,175.5C 97.0262,175.179 102.36,175.512 107.5,176.5C 101.833,176.5 96.1667,176.5 90.5,176.5C 90.5,169.5 90.5,162.5 90.5,155.5C 96.2586,155.786 101.925,155.452 107.5,154.5 Z"/></g>
<g><path style="opacity:1" fill="#141a1f" d="M 156.5,152.5 C 156.073,155.01 155.407,157.343 154.5,159.5C 153.957,159.56 153.624,159.893 153.5,160.5C 156.428,161.484 159.428,161.817 162.5,161.5C 162.5,160.5 162.5,159.5 162.5,158.5C 162.263,157.209 162.596,156.209 163.5,155.5C 164.167,154.5 164.833,153.5 165.5,152.5C 165.775,154.842 166.608,154.842 168,152.5C 168.122,154.169 167.788,155.835 167,157.5C 166.667,156.833 166.333,156.167 166,155.5C 164.183,157.416 163.016,159.749 162.5,162.5C 159.934,163.806 158.934,165.639 159.5,168C 156.834,169.061 154.167,169.894 151.5,170.5C 151.002,173.829 150.002,176.995 148.5,180C 144.638,180.913 140.972,180.58 137.5,179C 138.582,177.67 139.249,176.17 139.5,174.5C 141.074,172.898 141.741,170.898 141.5,168.5C 143.277,165.495 144.277,162.162 144.5,158.5C 144.5,158.167 144.5,157.833 144.5,157.5C 146.074,155.898 146.741,153.898 146.5,151.5C 146.5,151.167 146.5,150.833 146.5,150.5C 147.931,149.22 148.598,147.553 148.5,145.5C 151.5,145.5 154.5,145.5 157.5,145.5C 157.007,147.806 156.674,150.139 156.5,152.5 Z"/></g>
<g><path style="opacity:0.247" fill="#b3b7bc" d="M 162.5,158.5 C 162.5,159.5 162.5,160.5 162.5,161.5C 159.428,161.817 156.428,161.484 153.5,160.5C 153.624,159.893 153.957,159.56 154.5,159.5C 157.33,160.937 159.997,160.604 162.5,158.5 Z"/></g>
<g><path style="opacity:0.663" fill="#939597" d="M 144.5,158.5 C 144.277,162.162 143.277,165.495 141.5,168.5C 141.723,164.838 142.723,161.505 144.5,158.5 Z"/></g>
<g><path style="opacity:1" fill="#0b1317" d="M 127.5,173.5 C 127.5,173.833 127.5,174.167 127.5,174.5C 127.259,176.898 127.926,178.898 129.5,180.5C 131.438,184.043 133.105,187.71 134.5,191.5C 132.176,190.413 130.342,188.747 129,186.5C 128.186,189.507 127.52,192.507 127,195.5C 126.667,195.833 126.333,196.167 126,196.5C 122.524,193.814 122.024,194.147 124.5,197.5C 124.137,198.183 123.804,198.85 123.5,199.5C 121.255,198.904 119.255,197.904 117.5,196.5C 117.5,196.167 117.5,195.833 117.5,195.5C 117.573,193.973 116.906,192.973 115.5,192.5C 115.5,192.167 115.5,191.833 115.5,191.5C 115.5,190.833 115.5,190.167 115.5,189.5C 116.391,188.739 117.058,187.739 117.5,186.5C 114.386,184.953 113.886,182.62 116,179.5C 116.71,180.973 117.876,181.64 119.5,181.5C 119.423,184.012 120.423,186.012 122.5,187.5C 123.661,183.205 123.828,178.871 123,174.5C 120.6,171.386 120.433,168.386 122.5,165.5C 123.75,165.577 124.583,166.244 125,167.5C 125.333,165.5 125.667,163.5 126,161.5C 126.176,165.688 126.676,169.688 127.5,173.5 Z"/></g>
<g><path style="opacity:0.502" fill="#a8abac" d="M 170.5,165.5 C 170.279,168.067 169.612,170.401 168.5,172.5C 168.171,169.772 168.837,167.438 170.5,165.5 Z"/></g>
<g><path style="opacity:1" fill="#454b4e" d="M 203.5,165.5 C 202.914,170.416 200.247,173.416 195.5,174.5C 195.167,174.5 194.833,174.5 194.5,174.5C 195.183,172.824 196.517,172.157 198.5,172.5C 198.888,170.315 199.888,168.482 201.5,167C 200.226,164.458 200.893,163.958 203.5,165.5 Z"/></g>
<g><path style="opacity:1" fill="#161b20" d="M 199.5,153.5 C 199.833,154.5 200.5,155.167 201.5,155.5C 201.427,157.027 202.094,158.027 203.5,158.5C 204.623,160.979 204.623,163.312 203.5,165.5C 200.893,163.958 200.226,164.458 201.5,167C 199.888,168.482 198.888,170.315 198.5,172.5C 196.517,172.157 195.183,172.824 194.5,174.5C 190.5,174.5 186.5,174.5 182.5,174.5C 182.5,175.5 182.5,176.5 182.5,177.5C 182.167,178.833 181.833,180.167 181.5,181.5C 179.787,182.635 179.12,184.302 179.5,186.5C 178.486,187.765 176.986,188.431 175,188.5C 173.5,188.333 172,188.167 170.5,188C 169.209,186.708 169.209,185.542 170.5,184.5C 171.924,182.485 172.59,180.152 172.5,177.5C 172.5,176.833 172.5,176.167 172.5,175.5C 174.074,173.898 174.741,171.898 174.5,169.5C 174.877,165.327 175.877,161.327 177.5,157.5C 179.074,155.898 179.741,153.898 179.5,151.5C 184.65,150.349 189.984,150.183 195.5,151C 197.32,151.2 198.653,152.034 199.5,153.5 Z M 192.5,160.5 C 193.234,161.708 193.567,163.041 193.5,164.5C 192.833,164.5 192.5,164.833 192.5,165.5C 190.5,165.5 188.5,165.5 186.5,165.5C 186.5,164.167 186.5,162.833 186.5,161.5C 188.379,160.659 190.379,160.325 192.5,160.5 Z"/></g>
<g><path style="opacity:0.312" fill="#a9b0b4" d="M 186.5,161.5 C 186.5,162.833 186.5,164.167 186.5,165.5C 188.5,165.5 190.5,165.5 192.5,165.5C 190.393,166.468 188.059,166.802 185.5,166.5C 185.216,164.585 185.549,162.919 186.5,161.5 Z"/></g>
<g><path style="opacity:0.078" fill="#b4bcbd" d="M 192.5,160.5 C 193.586,160.62 194.253,161.287 194.5,162.5C 194.457,163.416 194.124,164.083 193.5,164.5C 193.567,163.041 193.234,161.708 192.5,160.5 Z"/></g>
<g><path style="opacity:0.22" fill="#c5c7c9" d="M 192.5,160.5 C 190.379,160.325 188.379,160.659 186.5,161.5C 186.97,160.307 187.97,159.64 189.5,159.5C 190.726,159.52 191.726,159.853 192.5,160.5 Z"/></g>
<g><path style="opacity:0.725" fill="#9ea2a6" d="M 141.5,168.5 C 141.741,170.898 141.074,172.898 139.5,174.5C 139.595,172.214 140.262,170.214 141.5,168.5 Z"/></g>
<g><path style="opacity:0.718" fill="#9a9da3" d="M 174.5,169.5 C 174.741,171.898 174.074,173.898 172.5,175.5C 172.595,173.214 173.262,171.214 174.5,169.5 Z"/></g>
<g><path style="opacity:0.914" fill="#6f7375" d="M 158.5,171.5 C 158.741,173.898 158.074,175.898 156.5,177.5C 156.595,175.214 157.262,173.214 158.5,171.5 Z"/></g>
<g><path style="opacity:0.137" fill="#d7dadf" d="M 194.5,174.5 C 194.833,174.5 195.167,174.5 195.5,174.5C 191.05,174.964 186.717,175.964 182.5,177.5C 182.5,176.5 182.5,175.5 182.5,174.5C 186.5,174.5 190.5,174.5 194.5,174.5 Z"/></g>
<g><path style="opacity:0.773" fill="#94999b" d="M 127.5,174.5 C 128.738,176.214 129.405,178.214 129.5,180.5C 127.926,178.898 127.259,176.898 127.5,174.5 Z"/></g>
<g><path style="opacity:0.831" fill="#7e8386" d="M 217.5,175.5 C 217.741,177.898 217.074,179.898 215.5,181.5C 215.595,179.214 216.262,177.214 217.5,175.5 Z"/></g>
<g><path style="opacity:0.998" fill="#6b7072" d="M 110.5,174.5 C 112.964,177.97 113.964,181.97 113.5,186.5C 111.584,182.837 110.584,178.837 110.5,174.5 Z"/></g>
<g><path style="opacity:0.149" fill="#9ca1a3" d="M 238.5,176.5 C 238.59,179.152 237.924,181.485 236.5,183.5C 236.41,180.848 237.076,178.515 238.5,176.5 Z"/></g>
<g><path style="opacity:1" fill="#010b13" d="M 227.5,195.5 C 226.883,195.389 226.383,195.056 226,194.5C 225.355,195.646 224.522,196.646 223.5,197.5C 224.999,198.904 224.666,199.57 222.5,199.5C 222.342,197.081 220.842,195.081 218,193.5C 217.228,194.849 216.061,195.682 214.5,196C 214.833,196.333 215.167,196.667 215.5,197C 213.559,197.304 211.893,198.137 210.5,199.5C 208.836,198.777 207.169,199.11 205.5,200.5C 204.913,199.767 204.913,198.767 205.5,197.5C 208.67,194.881 212.337,192.881 216.5,191.5C 218.605,186.469 220.772,181.469 223,176.5C 223.054,181.679 223.721,186.679 225,191.5C 225.369,175.35 226.036,159.35 227,143.5C 228.046,145.09 229.213,146.59 230.5,148C 228.813,149.913 228.313,152.08 229,154.5C 229.667,155.833 230.333,155.833 231,154.5C 232.937,163.72 232.437,173.053 229.5,182.5C 229.608,183.442 229.941,184.275 230.5,185C 227.529,188.063 226.529,191.563 227.5,195.5 Z"/></g>
<g><path style="opacity:0.486" fill="#acb1b4" d="M 234.5,176.5 C 234.706,179.495 234.04,182.162 232.5,184.5C 232.565,181.572 233.232,178.905 234.5,176.5 Z"/></g>
<g><path style="opacity:0.773" fill="#6e7477" d="M 172.5,177.5 C 172.59,180.152 171.924,182.485 170.5,184.5C 170.171,181.772 170.837,179.438 172.5,177.5 Z"/></g>
<g><path style="opacity:0.808" fill="#787d7f" d="M 181.5,181.5 C 181.598,183.553 180.931,185.22 179.5,186.5C 179.12,184.302 179.787,182.635 181.5,181.5 Z"/></g>
<g><path style="opacity:0.816" fill="#8f9497" d="M 108.5,182.5 C 109.738,184.214 110.405,186.214 110.5,188.5C 108.926,186.898 108.259,184.898 108.5,182.5 Z"/></g>
<g><path style="opacity:0.337" fill="#abb0b2" d="M 80.5,185.5 C 81.609,185.557 82.609,185.89 83.5,186.5C 83.5,186.833 83.5,187.167 83.5,187.5C 81.9731,187.573 80.9731,186.906 80.5,185.5 Z"/></g>
<g><path style="opacity:0.776" fill="#8d9093" d="M 155.5,181.5 C 155.714,183.144 155.38,184.644 154.5,186C 157.554,186.821 160.554,186.655 163.5,185.5C 163.994,183.974 164.661,182.641 165.5,181.5C 166.028,186.486 163.861,188.819 159,188.5C 153.165,188.496 151.999,186.162 155.5,181.5 Z"/></g>
<g><path style="opacity:0.965" fill="#5b6064" d="M 236.5,184.5 C 236.834,187.491 235.834,189.824 233.5,191.5C 233.935,188.843 234.935,186.509 236.5,184.5 Z"/></g>
<g><path style="opacity:0.088" fill="#e5e9e9" d="M 261.5,187.5 C 256.602,188.213 251.602,188.879 246.5,189.5C 251.056,187.558 256.056,186.892 261.5,187.5 Z"/></g>
<g><path style="opacity:0.004" fill="#c7cbcc" d="M 113.5,186.5 C 114.167,187.5 114.833,188.5 115.5,189.5C 115.5,190.167 115.5,190.833 115.5,191.5C 113.787,190.365 113.12,188.698 113.5,186.5 Z"/></g>
<g><path style="opacity:0.243" fill="#b6babc" d="M 212.5,188.5 C 212.573,190.027 211.906,191.027 210.5,191.5C 210.427,189.973 211.094,188.973 212.5,188.5 Z"/></g>
<g><path style="opacity:0.161" fill="#b7b8bb" d="M 110.5,189.5 C 112.539,190.911 113.539,192.911 113.5,195.5C 111.992,193.819 110.992,191.819 110.5,189.5 Z"/></g>
<g><path style="opacity:1" fill="#071016" d="M 254.5,155.5 C 255.397,156.598 256.23,156.598 257,155.5C 257.167,156.167 257.333,156.833 257.5,157.5C 256.206,163.853 256.206,170.186 257.5,176.5C 256.147,177.524 255.48,178.857 255.5,180.5C 253.323,180.414 251.323,179.747 249.5,178.5C 248.995,181.142 247.995,183.809 246.5,186.5C 251.5,186.5 256.5,186.5 261.5,186.5C 261.5,186.833 261.5,187.167 261.5,187.5C 256.056,186.892 251.056,187.558 246.5,189.5C 245.677,192.461 245.01,195.461 244.5,198.5C 245.585,200.587 247.251,201.92 249.5,202.5C 249.554,204.632 250.554,205.965 252.5,206.5C 252.657,207.873 252.49,209.207 252,210.5C 251.586,210.043 251.086,209.709 250.5,209.5C 249.365,211.707 248.699,214.04 248.5,216.5C 247.448,216.351 246.448,216.517 245.5,217C 246.252,217.671 246.586,218.504 246.5,219.5C 243.901,219.451 241.734,218.451 240,216.5C 239.244,218.809 239.744,220.809 241.5,222.5C 240.372,223.262 239.205,223.929 238,224.5C 237.601,224.272 237.435,223.938 237.5,223.5C 236.909,222.849 236.243,222.182 235.5,221.5C 236.326,220.549 236.492,219.549 236,218.5C 233.402,224.011 231.902,223.678 231.5,217.5C 232.833,215.833 234.167,214.167 235.5,212.5C 236.942,211.18 237.608,209.514 237.5,207.5C 235.539,205.037 233.372,202.703 231,200.5C 230.517,199.552 230.351,198.552 230.5,197.5C 230.992,195.181 231.992,193.181 233.5,191.5C 235.834,189.824 236.834,187.491 236.5,184.5C 236.5,184.167 236.5,183.833 236.5,183.5C 237.924,181.485 238.59,179.152 238.5,176.5C 243.833,176.5 249.167,176.5 254.5,176.5C 254.5,169.5 254.5,162.5 254.5,155.5 Z"/></g>
<g><path style="opacity:0.608" fill="#979da1" d="M 134.5,191.5 C 136.587,192.585 137.92,194.251 138.5,196.5C 136.413,195.415 135.08,193.749 134.5,191.5 Z"/></g>
<g><path style="opacity:1" fill="#0a1319" d="M 227.5,195.5 C 227.5,195.833 227.5,196.167 227.5,196.5C 226.525,198.795 225.192,200.795 223.5,202.5C 222.5,202.833 221.833,203.5 221.5,204.5C 220.883,204.389 220.383,204.056 220,203.5C 215.631,208.037 211.131,212.37 206.5,216.5C 205.778,216.082 205.278,215.416 205,214.5C 204.213,215.711 203.546,216.711 203,217.5C 201.739,217.241 200.739,216.574 200,215.5C 198.513,216.741 197.68,216.241 197.5,214C 197.834,211.825 198.834,209.992 200.5,208.5C 199.911,206.627 200.578,204.96 202.5,203.5C 204.916,204.319 205.082,203.652 203,201.5C 202.329,202.252 201.496,202.586 200.5,202.5C 201.833,200.5 203.5,198.833 205.5,197.5C 204.913,198.767 204.913,199.767 205.5,200.5C 207.169,199.11 208.836,198.777 210.5,199.5C 211.893,198.137 213.559,197.304 215.5,197C 215.167,196.667 214.833,196.333 214.5,196C 216.061,195.682 217.228,194.849 218,193.5C 220.842,195.081 222.342,197.081 222.5,199.5C 224.666,199.57 224.999,198.904 223.5,197.5C 224.522,196.646 225.355,195.646 226,194.5C 226.383,195.056 226.883,195.389 227.5,195.5 Z"/></g>
<g><path style="opacity:0.208" fill="#bbbfc1" d="M 115.5,192.5 C 116.906,192.973 117.573,193.973 117.5,195.5C 116.094,195.027 115.427,194.027 115.5,192.5 Z"/></g>
<g><path style="opacity:0.522" fill="#acafb1" d="M 230.5,197.5 C 230.351,198.552 230.517,199.552 231,200.5C 233.372,202.703 235.539,205.037 237.5,207.5C 234.606,206.118 232.106,204.118 230,201.5C 229.235,199.934 229.402,198.601 230.5,197.5 Z"/></g>
<g><path style="opacity:0.012" fill="#bac0c1" d="M 244.5,198.5 C 246.749,199.08 248.415,200.413 249.5,202.5C 247.251,201.92 245.585,200.587 244.5,198.5 Z"/></g>
<g><path style="opacity:1" fill="#4d5256" d="M 117.5,196.5 C 119.255,197.904 121.255,198.904 123.5,199.5C 123.167,200.833 122.833,202.167 122.5,203.5C 120.478,201.469 118.811,199.135 117.5,196.5 Z"/></g>
<g><path style="opacity:1" fill="#0c141a" d="M 134.5,191.5 C 135.08,193.749 136.413,195.415 138.5,196.5C 140.167,197.5 141.5,198.833 142.5,200.5C 143.171,201.847 143.171,203.014 142.5,204C 144.402,204.199 145.902,205.033 147,206.5C 147.671,205.748 148.504,205.414 149.5,205.5C 153.354,206.93 157.021,208.597 160.5,210.5C 157.978,210.128 155.978,210.961 154.5,213C 156.224,213.448 156.891,214.282 156.5,215.5C 157.451,214.674 158.451,214.508 159.5,215C 158.119,218.71 155.452,221.043 151.5,222C 150.748,222.671 150.414,223.504 150.5,224.5C 150.167,224.5 149.833,224.5 149.5,224.5C 146.515,223.674 143.849,222.341 141.5,220.5C 140.738,218.738 139.404,217.738 137.5,217.5C 137.027,216.094 136.027,215.427 134.5,215.5C 133.089,213.086 131.089,211.419 128.5,210.5C 127.5,210.167 126.833,209.5 126.5,208.5C 125.864,206.205 124.531,204.539 122.5,203.5C 122.833,202.167 123.167,200.833 123.5,199.5C 123.804,198.85 124.137,198.183 124.5,197.5C 122.024,194.147 122.524,193.814 126,196.5C 126.333,196.167 126.667,195.833 127,195.5C 127.52,192.507 128.186,189.507 129,186.5C 130.342,188.747 132.176,190.413 134.5,191.5 Z"/></g>
<g><path style="opacity:0.714" fill="#8d9191" d="M 100.5,198.5 C 98.1667,201.5 95.5,204.167 92.5,206.5C 94.1667,202.833 96.8333,200.167 100.5,198.5 Z"/></g>
<g><path style="opacity:1" fill="#161b1f" d="M 108.5,182.5 C 108.259,184.898 108.926,186.898 110.5,188.5C 110.5,188.833 110.5,189.167 110.5,189.5C 110.992,191.819 111.992,193.819 113.5,195.5C 113.773,197.451 113.107,198.951 111.5,200C 112.866,202.438 112.366,202.938 110,201.5C 108.72,201.613 107.887,202.28 107.5,203.5C 108.246,204.736 108.579,206.07 108.5,207.5C 106.576,207.711 106.243,208.377 107.5,209.5C 108.5,209.833 109.167,210.5 109.5,211.5C 109.5,211.833 109.5,212.167 109.5,212.5C 107.856,212.714 106.356,212.38 105,211.5C 104.5,212 104,212.5 103.5,213C 104.624,213.249 105.624,213.749 106.5,214.5C 105.174,214.205 103.841,214.705 102.5,216C 103.833,217 103.833,218 102.5,219C 103.5,220.667 104.833,222 106.5,223C 105.944,223.383 105.611,223.883 105.5,224.5C 104.395,223.4 103.062,222.733 101.5,222.5C 100.449,221.778 99.7822,220.778 99.5,219.5C 98.0892,217.086 96.0892,215.419 93.5,214.5C 91.5606,212.063 91.2272,209.397 92.5,206.5C 95.5,204.167 98.1667,201.5 100.5,198.5C 100.611,197.883 100.944,197.383 101.5,197C 99.8042,194.413 98.8042,191.579 98.5,188.5C 93.3054,188.821 88.3054,188.487 83.5,187.5C 83.5,187.167 83.5,186.833 83.5,186.5C 89.1764,186.334 94.8431,186.501 100.5,187C 100.167,187.333 99.8333,187.667 99.5,188C 100.77,188.9 101.77,190.066 102.5,191.5C 103.748,190.96 104.915,190.293 106,189.5C 106.39,186.896 107.224,184.562 108.5,182.5 Z"/></g>
<g><path style="opacity:1" fill="#474d51" d="M 113.5,195.5 C 114.965,196.406 115.965,197.739 116.5,199.5C 114.146,202.521 111.479,205.188 108.5,207.5C 108.579,206.07 108.246,204.736 107.5,203.5C 107.887,202.28 108.72,201.613 110,201.5C 112.366,202.938 112.866,202.438 111.5,200C 113.107,198.951 113.773,197.451 113.5,195.5 Z"/></g>
<g><path style="opacity:1" fill="#434b4d" d="M 142.5,200.5 C 145.135,201.811 147.469,203.478 149.5,205.5C 147.469,203.478 145.135,201.811 142.5,200.5 Z"/></g>
<g><path style="opacity:0.004" fill="#d6d7d9" d="M 223.5,202.5 C 223.573,204.027 222.906,205.027 221.5,205.5C 221.5,205.167 221.5,204.833 221.5,204.5C 221.833,203.5 222.5,202.833 223.5,202.5 Z"/></g>
<g><path style="opacity:0.686" fill="#859092" d="M 122.5,203.5 C 124.531,204.539 125.864,206.205 126.5,208.5C 124.457,207.421 123.124,205.754 122.5,203.5 Z"/></g>
<g><path style="opacity:1" fill="#565a5e" d="M 200.5,202.5 C 198.547,205.978 195.547,207.645 191.5,207.5C 194.583,206.024 197.583,204.357 200.5,202.5 Z"/></g>
<g><path style="opacity:1" fill="#5d6164" d="M 249.5,202.5 C 251.262,203.262 252.262,204.596 252.5,206.5C 250.554,205.965 249.554,204.632 249.5,202.5 Z"/></g>
<g><path style="opacity:0.157" fill="#c0c6c9" d="M 108.5,207.5 C 108.167,208.167 107.833,208.833 107.5,209.5C 106.243,208.377 106.576,207.711 108.5,207.5 Z"/></g>
<g><path style="opacity:1" fill="#3a4043" d="M 221.5,204.5 C 221.5,204.833 221.5,205.167 221.5,205.5C 217.06,211.278 211.727,215.945 205.5,219.5C 206.11,218.609 206.443,217.609 206.5,216.5C 211.131,212.37 215.631,208.037 220,203.5C 220.383,204.056 220.883,204.389 221.5,204.5 Z"/></g>
<g><path style="opacity:0.827" fill="#878e92" d="M 128.5,210.5 C 131.089,211.419 133.089,213.086 134.5,215.5C 131.911,214.581 129.911,212.914 128.5,210.5 Z"/></g>
<g><path style="opacity:1" fill="#42484d" d="M 252.5,206.5 C 254.132,212.25 252.132,216.584 246.5,219.5C 246.586,218.504 246.252,217.671 245.5,217C 246.448,216.517 247.448,216.351 248.5,216.5C 248.699,214.04 249.365,211.707 250.5,209.5C 251.086,209.709 251.586,210.043 252,210.5C 252.49,209.207 252.657,207.873 252.5,206.5 Z"/></g>
<g><path style="opacity:0.631" fill="#a0a5a8" d="M 109.5,211.5 C 115.5,217.167 121.5,222.833 127.5,228.5C 127.103,229.525 126.437,229.692 125.5,229C 119.964,223.631 114.63,218.131 109.5,212.5C 109.5,212.167 109.5,211.833 109.5,211.5 Z"/></g>
<g><path style="opacity:1" fill="#13191f" d="M 160.5,210.5 C 163.059,210.198 165.393,210.532 167.5,211.5C 169.631,212.314 171.964,212.814 174.5,213C 175.5,213.833 176.5,214.667 177.5,215.5C 177.291,216.086 176.957,216.586 176.5,217C 178.134,217.494 179.801,217.66 181.5,217.5C 181.808,219.924 181.474,222.257 180.5,224.5C 179.604,223.494 178.938,223.494 178.5,224.5C 179.381,225.971 180.714,226.804 182.5,227C 181.944,227.383 181.611,227.883 181.5,228.5C 175.513,229.784 169.513,229.784 163.5,228.5C 161.485,227.076 159.152,226.41 156.5,226.5C 156.167,226.5 155.833,226.5 155.5,226.5C 154.22,225.069 152.553,224.402 150.5,224.5C 150.414,223.504 150.748,222.671 151.5,222C 155.452,221.043 158.119,218.71 159.5,215C 158.451,214.508 157.451,214.674 156.5,215.5C 156.891,214.282 156.224,213.448 154.5,213C 155.978,210.961 157.978,210.128 160.5,210.5 Z"/></g>
<g><path style="opacity:1" fill="#161c1f" d="M 206.5,216.5 C 206.443,217.609 206.11,218.609 205.5,219.5C 204.035,220.737 202.368,221.737 200.5,222.5C 198.447,222.402 196.78,223.069 195.5,224.5C 191.126,226.451 186.46,227.784 181.5,228.5C 181.611,227.883 181.944,227.383 182.5,227C 180.714,226.804 179.381,225.971 178.5,224.5C 178.938,223.494 179.604,223.494 180.5,224.5C 181.474,222.257 181.808,219.924 181.5,217.5C 179.801,217.66 178.134,217.494 176.5,217C 176.957,216.586 177.291,216.086 177.5,215.5C 176.5,214.667 175.5,213.833 174.5,213C 171.964,212.814 169.631,212.314 167.5,211.5C 175.805,211.743 183.805,210.41 191.5,207.5C 195.547,207.645 198.547,205.978 200.5,202.5C 201.496,202.586 202.329,202.252 203,201.5C 205.082,203.652 204.916,204.319 202.5,203.5C 200.578,204.96 199.911,206.627 200.5,208.5C 198.834,209.992 197.834,211.825 197.5,214C 197.68,216.241 198.513,216.741 200,215.5C 200.739,216.574 201.739,217.241 203,217.5C 203.546,216.711 204.213,215.711 205,214.5C 205.278,215.416 205.778,216.082 206.5,216.5 Z"/></g>
<g><path style="opacity:1" fill="#0e151a" d="M 109.5,212.5 C 114.63,218.131 119.964,223.631 125.5,229C 126.437,229.692 127.103,229.525 127.5,228.5C 129.5,227.167 131.167,225.5 132.5,223.5C 133.499,220.826 135.166,220.159 137.5,221.5C 138.035,223.446 139.368,224.446 141.5,224.5C 142.514,225.674 143.847,226.34 145.5,226.5C 146.78,227.931 148.447,228.598 150.5,228.5C 151.492,228.328 152.158,228.662 152.5,229.5C 151.833,229.5 151.167,229.5 150.5,229.5C 145.236,229.417 143.569,231.75 145.5,236.5C 147.059,237.074 148.559,237.74 150,238.5C 151.558,237.655 152.558,238.321 153,240.5C 153.718,244.478 153.218,248.311 151.5,252C 151.989,253.138 152.322,254.305 152.5,255.5C 152.167,255.5 151.833,255.5 151.5,255.5C 149.682,250.729 149.015,245.729 149.5,240.5C 148.365,238.787 146.698,238.12 144.5,238.5C 143.486,237.326 142.153,236.66 140.5,236.5C 139.036,235.595 137.702,235.595 136.5,236.5C 135.5,236.833 134.833,237.5 134.5,238.5C 133.5,240.167 132.167,241.5 130.5,242.5C 127.098,242.658 123.764,242.324 120.5,241.5C 119.094,241.027 118.427,240.027 118.5,238.5C 117.415,236.413 115.749,235.08 113.5,234.5C 113.5,234.167 113.5,233.833 113.5,233.5C 112.415,231.413 110.749,230.08 108.5,229.5C 107.449,228.778 106.782,227.778 106.5,226.5C 106.167,225.833 105.833,225.167 105.5,224.5C 105.611,223.883 105.944,223.383 106.5,223C 104.833,222 103.5,220.667 102.5,219C 103.833,218 103.833,217 102.5,216C 103.841,214.705 105.174,214.205 106.5,214.5C 105.624,213.749 104.624,213.249 103.5,213C 104,212.5 104.5,212 105,211.5C 106.356,212.38 107.856,212.714 109.5,212.5 Z"/></g>
<g><path style="opacity:0.725" fill="#959a9c" d="M 93.5,214.5 C 96.0892,215.419 98.0892,217.086 99.5,219.5C 96.9108,218.581 94.9108,216.914 93.5,214.5 Z"/></g>
<g><path style="opacity:0.455" fill="#b2b6b9" d="M 235.5,212.5 C 234.167,214.167 232.833,215.833 231.5,217.5C 231.167,217.5 230.833,217.5 230.5,217.5C 231.167,214.833 232.833,213.167 235.5,212.5 Z"/></g>
<g><path style="opacity:0.573" fill="#80878d" d="M 134.5,215.5 C 136.027,215.427 137.027,216.094 137.5,217.5C 135.973,217.573 134.973,216.906 134.5,215.5 Z"/></g>
<g><path style="opacity:0.58" fill="#889092" d="M 137.5,217.5 C 139.404,217.738 140.738,218.738 141.5,220.5C 139.596,220.262 138.262,219.262 137.5,217.5 Z"/></g>
<g><path style="opacity:0.294" fill="#bbbfbf" d="M 208.5,221.5 C 209.947,220.115 210.947,220.448 211.5,222.5C 210.609,221.89 209.609,221.557 208.5,221.5 Z"/></g>
<g><path style="opacity:0.58" fill="#a1a6a7" d="M 101.5,222.5 C 103.062,222.733 104.395,223.4 105.5,224.5C 105.833,225.167 106.167,225.833 106.5,226.5C 104.251,225.92 102.585,224.587 101.5,222.5 Z"/></g>
<g><path style="opacity:0.792" fill="#8d989b" d="M 137.5,221.5 C 139.23,222.026 140.564,223.026 141.5,224.5C 139.368,224.446 138.035,223.446 137.5,221.5 Z"/></g>
<g><path style="opacity:0.106" fill="#c9cacc" d="M 200.5,222.5 C 199.22,223.931 197.553,224.598 195.5,224.5C 196.78,223.069 198.447,222.402 200.5,222.5 Z"/></g>
<g><path style="opacity:0.129" fill="#bfc3c6" d="M 141.5,224.5 C 143.38,224.229 144.713,224.896 145.5,226.5C 143.847,226.34 142.514,225.674 141.5,224.5 Z"/></g>
<g><path style="opacity:0.82" fill="#838a8c" d="M 149.5,224.5 C 149.833,224.5 150.167,224.5 150.5,224.5C 152.553,224.402 154.22,225.069 155.5,226.5C 153.214,226.405 151.214,225.738 149.5,224.5 Z"/></g>
<g><path style="opacity:0.51" fill="#aaadb0" d="M 132.5,223.5 C 131.167,225.5 129.5,227.167 127.5,228.5C 128.167,225.833 129.833,224.167 132.5,223.5 Z"/></g>
<g><path style="opacity:0.278" fill="#b8bfc1" d="M 145.5,226.5 C 147.553,226.402 149.22,227.069 150.5,228.5C 148.447,228.598 146.78,227.931 145.5,226.5 Z"/></g>
<g><path style="opacity:0.345" fill="#9da4a7" d="M 156.5,226.5 C 159.152,226.41 161.485,227.076 163.5,228.5C 160.848,228.59 158.515,227.924 156.5,226.5 Z"/></g>
<g><path style="opacity:0.804" fill="#8b8f92" d="M 199.5,226.5 C 198.365,228.213 196.698,228.88 194.5,228.5C 195.93,227.463 197.597,226.796 199.5,226.5 Z"/></g>
<g><path style="opacity:1" fill="#0c141a" d="M 230.5,217.5 C 230.833,217.5 231.167,217.5 231.5,217.5C 231.902,223.678 233.402,224.011 236,218.5C 236.492,219.549 236.326,220.549 235.5,221.5C 236.243,222.182 236.909,222.849 237.5,223.5C 236.209,224.542 236.209,225.708 237.5,227C 235.557,226.695 233.557,226.695 231.5,227C 232.826,229.868 231.992,232.034 229,233.5C 228.667,233.167 228.333,232.833 228,232.5C 225.822,233.893 224.822,235.56 225,237.5C 223.39,237.87 221.89,237.203 220.5,235.5C 218.132,236.765 217.465,238.431 218.5,240.5C 213.631,238.488 212.631,235.322 215.5,231C 214.051,229.883 212.384,229.216 210.5,229C 209.874,228.25 209.374,227.416 209,226.5C 207.038,226.031 205.205,226.697 203.5,228.5C 202.476,227.147 201.143,226.48 199.5,226.5C 202.304,224.595 205.304,222.929 208.5,221.5C 209.609,221.557 210.609,221.89 211.5,222.5C 212.492,222.328 213.158,222.662 213.5,223.5C 214.203,225.716 215.536,227.549 217.5,229C 218.437,229.692 219.103,229.525 219.5,228.5C 222.5,224.167 226.167,220.5 230.5,217.5 Z"/></g>
<g><path style="opacity:0.573" fill="#9fa4a6" d="M 213.5,223.5 C 215.5,225.167 217.5,226.833 219.5,228.5C 219.103,229.525 218.437,229.692 217.5,229C 215.536,227.549 214.203,225.716 213.5,223.5 Z"/></g>
<g><path style="opacity:0.569" fill="#a8acae" d="M 108.5,229.5 C 110.749,230.08 112.415,231.413 113.5,233.5C 111.251,232.92 109.585,231.587 108.5,229.5 Z"/></g>
<g><path style="opacity:0.929" fill="#787d81" d="M 194.5,228.5 C 193.01,230.28 191.01,230.946 188.5,230.5C 190.302,229.542 192.302,228.875 194.5,228.5 Z"/></g>
<g><path style="opacity:1" fill="#0f1519" d="M 199.5,226.5 C 201.143,226.48 202.476,227.147 203.5,228.5C 205.205,226.697 207.038,226.031 209,226.5C 209.374,227.416 209.874,228.25 210.5,229C 212.384,229.216 214.051,229.883 215.5,231C 212.631,235.322 213.631,238.488 218.5,240.5C 219.88,241.19 221.214,241.524 222.5,241.5C 220.257,242.474 217.924,242.808 215.5,242.5C 213.761,239.757 211.427,237.757 208.5,236.5C 205.177,237.492 201.844,238.492 198.5,239.5C 197.167,239.5 195.833,239.5 194.5,239.5C 194.5,243.833 194.5,248.167 194.5,252.5C 194.5,252.833 194.5,253.167 194.5,253.5C 194.167,253.5 193.833,253.5 193.5,253.5C 193.576,250.643 193.243,247.643 192.5,244.5C 192.891,245.891 192.058,246.891 190,247.5C 189.814,245.1 189.314,242.766 188.5,240.5C 187.825,243.812 186.158,246.979 183.5,250C 179.801,250.334 176.301,250.501 173,250.5C 172,249.833 171,249.167 170,248.5C 166.114,248.273 162.114,248.607 158,249.5C 157.762,245.778 157.262,242.111 156.5,238.5C 159.213,236.817 159.713,234.817 158,232.5C 157.667,232.833 157.333,233.167 157,233.5C 154.435,232.53 152.268,231.196 150.5,229.5C 151.167,229.5 151.833,229.5 152.5,229.5C 155.781,229.42 158.781,230.087 161.5,231.5C 161.5,236.5 161.5,241.5 161.5,246.5C 168.833,246.5 176.167,246.5 183.5,246.5C 183.5,241.5 183.5,236.5 183.5,231.5C 185.042,230.699 186.708,230.366 188.5,230.5C 191.01,230.946 193.01,230.28 194.5,228.5C 196.698,228.88 198.365,228.213 199.5,226.5 Z"/></g>
<g><path style="opacity:0.604" fill="#9ea4a6" d="M 113.5,234.5 C 115.749,235.08 117.415,236.413 118.5,238.5C 116.251,237.92 114.585,236.587 113.5,234.5 Z"/></g>
<g><path style="opacity:1" fill="#252a2e" d="M 246.5,219.5 C 239.036,227.465 231.369,235.298 223.5,243C 220.633,243.801 217.966,243.634 215.5,242.5C 217.924,242.808 220.257,242.474 222.5,241.5C 221.214,241.524 219.88,241.19 218.5,240.5C 217.465,238.431 218.132,236.765 220.5,235.5C 221.89,237.203 223.39,237.87 225,237.5C 224.822,235.56 225.822,233.893 228,232.5C 228.333,232.833 228.667,233.167 229,233.5C 231.992,232.034 232.826,229.868 231.5,227C 233.557,226.695 235.557,226.695 237.5,227C 236.209,225.708 236.209,224.542 237.5,223.5C 237.435,223.938 237.601,224.272 238,224.5C 239.205,223.929 240.372,223.262 241.5,222.5C 239.744,220.809 239.244,218.809 240,216.5C 241.734,218.451 243.901,219.451 246.5,219.5 Z"/></g>
<g><path style="opacity:0.643" fill="#9da2a5" d="M 208.5,236.5 C 211.427,237.757 213.761,239.757 215.5,242.5C 212.573,241.243 210.239,239.243 208.5,236.5 Z"/></g>
<g><path style="opacity:0.004" fill="#dcdee0" d="M 136.5,236.5 C 136.5,237.833 135.833,238.5 134.5,238.5C 134.833,237.5 135.5,236.833 136.5,236.5 Z"/></g>
<g><path style="opacity:0.133" fill="#bcc1c2" d="M 140.5,236.5 C 142.153,236.66 143.486,237.326 144.5,238.5C 142.62,238.771 141.287,238.104 140.5,236.5 Z"/></g>
<g><path style="opacity:0.906" fill="#7b7f80" d="M 144.5,238.5 C 146.698,238.12 148.365,238.787 149.5,240.5C 147.447,240.598 145.78,239.931 144.5,238.5 Z"/></g>
<g><path style="opacity:0.09" fill="#dbe0e1" d="M 198.5,239.5 C 197.791,240.404 196.791,240.737 195.5,240.5C 195.817,244.702 195.483,248.702 194.5,252.5C 194.5,248.167 194.5,243.833 194.5,239.5C 195.833,239.5 197.167,239.5 198.5,239.5 Z"/></g>
<g><path style="opacity:0.91" fill="#767c81" d="M 120.5,241.5 C 123.764,242.324 127.098,242.658 130.5,242.5C 127.696,243.638 124.696,243.805 121.5,243C 120.944,242.617 120.611,242.117 120.5,241.5 Z"/></g>
<g><path style="opacity:1" fill="#0f161b" d="M 150.5,229.5 C 152.268,231.196 154.435,232.53 157,233.5C 157.333,233.167 157.667,232.833 158,232.5C 159.713,234.817 159.213,236.817 156.5,238.5C 157.262,242.111 157.762,245.778 158,249.5C 162.114,248.607 166.114,248.273 170,248.5C 171,249.167 172,249.833 173,250.5C 176.301,250.501 179.801,250.334 183.5,250C 186.158,246.979 187.825,243.812 188.5,240.5C 189.314,242.766 189.814,245.1 190,247.5C 192.058,246.891 192.891,245.891 192.5,244.5C 193.243,247.643 193.576,250.643 193.5,253.5C 192.5,254.833 191.5,256.167 190.5,257.5C 178.5,258.833 166.5,258.833 154.5,257.5C 154.167,256.5 153.5,255.833 152.5,255.5C 152.322,254.305 151.989,253.138 151.5,252C 153.218,248.311 153.718,244.478 153,240.5C 152.558,238.321 151.558,237.655 150,238.5C 148.559,237.74 147.059,237.074 145.5,236.5C 143.569,231.75 145.236,229.417 150.5,229.5 Z"/></g>
<g><path style="opacity:0.122" fill="#e8ecec" d="M 161.5,231.5 C 162.486,235.97 162.819,240.637 162.5,245.5C 169.167,245.5 175.833,245.5 182.5,245.5C 182.181,240.637 182.514,235.97 183.5,231.5C 183.5,236.5 183.5,241.5 183.5,246.5C 176.167,246.5 168.833,246.5 161.5,246.5C 161.5,241.5 161.5,236.5 161.5,231.5 Z"/></g>
<g><path style="opacity:0.09" fill="#bcbec0" d="M 193.5,253.5 C 193.833,253.5 194.167,253.5 194.5,253.5C 194.167,255.833 192.833,257.167 190.5,257.5C 191.5,256.167 192.5,254.833 193.5,253.5 Z"/></g>
<g><path style="opacity:0.341" fill="#a5a9b2" d="M 151.5,255.5 C 151.833,255.5 152.167,255.5 152.5,255.5C 153.5,255.833 154.167,256.5 154.5,257.5C 152.973,257.573 151.973,256.906 151.5,255.5 Z"/></g>
</svg>
