<?xml version="1.0" encoding="UTF-8"?>
<!DOCTYPE svg PUBLIC "-//W3C//DTD SVG 1.1//EN" "http://www.w3.org/Graphics/SVG/1.1/DTD/svg11.dtd">
<svg xmlns="http://www.w3.org/2000/svg" version="1.1" width="353px" height="338px" style="shape-rendering:geometricPrecision; text-rendering:geometricPrecision; image-rendering:optimizeQuality; fill-rule:evenodd; clip-rule:evenodd" xmlns:xlink="http://www.w3.org/1999/xlink">
<g><path style="opacity:0.224" fill="#c9ced0" d="M 177.5,66.5 C 175.021,65.3773 172.688,65.3773 170.5,66.5C 169.833,66.5 169.167,66.5 168.5,66.5C 169.492,64.9735 170.992,64.3068 173,64.5C 175.008,64.3068 176.508,64.9735 177.5,66.5 Z"/></g>
<g><path style="opacity:0.165" fill="#dcdfe2" d="M 168.5,66.5 C 168.167,67.5 167.5,68.1667 166.5,68.5C 166.062,68.5654 165.728,68.3988 165.5,68C 166.244,66.9614 167.244,66.4614 168.5,66.5 Z"/></g>
<g><path style="opacity:0.235" fill="#c4c7cd" d="M 177.5,66.5 C 178.906,66.9731 179.573,67.9731 179.5,69.5C 178.094,69.0269 177.427,68.0269 177.5,66.5 Z"/></g>
<g><path style="opacity:0.82" fill="#8f9698" d="M 166.5,69.5 C 162.282,71.4161 157.615,72.4161 152.5,72.5C 156.883,70.7699 161.55,69.7699 166.5,69.5 Z"/></g>
<g><path style="opacity:0.999" fill="#192125" d="M 168.5,66.5 C 169.167,66.5 169.833,66.5 170.5,66.5C 171.19,67.8802 171.524,69.2135 171.5,70.5C 173.394,69.3989 174.061,68.0655 173.5,66.5C 176.86,67.7905 177.194,69.4572 174.5,71.5C 169.886,72.3021 165.552,73.9688 161.5,76.5C 163.396,77.4656 165.396,77.7989 167.5,77.5C 167.666,82.1785 167.499,86.8452 167,91.5C 165.841,92.566 165.008,92.2327 164.5,90.5C 165.167,89.8333 165.833,89.1667 166.5,88.5C 166.5,86.5 166.5,84.5 166.5,82.5C 162.446,81.5044 158.446,81.8377 154.5,83.5C 153.292,84.2341 151.959,84.5674 150.5,84.5C 148.102,84.2594 146.102,84.9261 144.5,86.5C 142.064,87.871 139.397,88.871 136.5,89.5C 134.62,89.2291 133.287,89.8958 132.5,91.5C 131.486,92.6737 130.153,93.3404 128.5,93.5C 127.178,93.67 126.011,93.3366 125,92.5C 124.29,93.9733 123.124,94.6399 121.5,94.5C 121.5,95.5 121.5,96.5 121.5,97.5C 120.5,97.8333 119.833,98.5 119.5,99.5C 117.973,99.427 116.973,100.094 116.5,101.5C 115.5,103.167 114.167,104.5 112.5,105.5C 112.167,105.5 111.833,105.5 111.5,105.5C 111.958,102.606 111.291,100.106 109.5,98C 111.432,96.6482 112.766,94.8149 113.5,92.5C 115.423,91.6922 117.423,91.1922 119.5,91C 120.167,89 121.5,87.6667 123.5,87C 120.626,88.3917 117.626,88.8917 114.5,88.5C 114.973,87.0937 115.973,86.427 117.5,86.5C 119.027,86.573 120.027,85.9063 120.5,84.5C 122.181,82.9925 124.181,81.9925 126.5,81.5C 128.967,81.2451 130.967,80.2451 132.5,78.5C 133.78,77.0687 135.447,76.4021 137.5,76.5C 142.43,75.7411 147.097,74.4078 151.5,72.5C 151.833,72.5 152.167,72.5 152.5,72.5C 157.615,72.4161 162.282,71.4161 166.5,69.5C 166.5,69.1667 166.5,68.8333 166.5,68.5C 167.5,68.1667 168.167,67.5 168.5,66.5 Z"/></g>
<g><path style="opacity:0.773" fill="#82878b" d="M 151.5,72.5 C 147.097,74.4078 142.43,75.7411 137.5,76.5C 141.783,74.1879 146.45,72.8545 151.5,72.5 Z"/></g>
<g><path style="opacity:0.996" fill="#696f72" d="M 189.5,71.5 C 193.8,71.7547 197.8,72.7547 201.5,74.5C 198.881,74.2317 196.381,74.565 194,75.5C 192.804,73.714 191.304,72.3807 189.5,71.5 Z"/></g>
<g><path style="opacity:0.02" fill="#c1c6c8" d="M 201.5,74.5 C 203.898,74.2594 205.898,74.9261 207.5,76.5C 205.214,76.405 203.214,75.7384 201.5,74.5 Z"/></g>
<g><path style="opacity:1" fill="#1d2428" d="M 170.5,66.5 C 172.688,65.3773 175.021,65.3773 177.5,66.5C 177.427,68.0269 178.094,69.0269 179.5,69.5C 183.04,69.7526 186.373,70.4192 189.5,71.5C 191.304,72.3807 192.804,73.714 194,75.5C 196.381,74.565 198.881,74.2317 201.5,74.5C 203.214,75.7384 205.214,76.405 207.5,76.5C 210.241,76.7073 212.574,77.7073 214.5,79.5C 215.183,81.1765 216.517,81.8432 218.5,81.5C 219.183,83.1765 220.517,83.8432 222.5,83.5C 223.795,85.3717 223.628,87.0383 222,88.5C 221.667,87.8333 221.333,87.1667 221,86.5C 221.872,90.1629 220.372,92.4963 216.5,93.5C 215.508,93.6716 214.842,93.3382 214.5,92.5C 214.027,91.0937 213.027,90.427 211.5,90.5C 210.365,88.7868 208.698,88.1201 206.5,88.5C 205.365,86.7868 203.698,86.1201 201.5,86.5C 201.167,86.5 200.833,86.5 200.5,86.5C 197.916,84.5275 194.916,83.5275 191.5,83.5C 188.615,83.8064 185.948,83.4731 183.5,82.5C 183.5,82.1667 183.5,81.8333 183.5,81.5C 184.335,80.0568 185.668,79.0568 187.5,78.5C 185.639,77.4717 184.305,75.9717 183.5,74C 181.527,73.5045 179.527,73.3379 177.5,73.5C 177.649,72.448 177.483,71.448 177,70.5C 176.329,71.2524 175.496,71.5858 174.5,71.5C 177.194,69.4572 176.86,67.7905 173.5,66.5C 174.061,68.0655 173.394,69.3989 171.5,70.5C 171.524,69.2135 171.19,67.8802 170.5,66.5 Z"/></g>
<g><path style="opacity:1" fill="#172024" d="M 183.5,81.5 C 181.833,81.5 180.167,81.5 178.5,81.5C 178.5,84.1667 178.5,86.8333 178.5,89.5C 182.467,89.9195 186.3,90.9195 190,92.5C 190.671,91.7476 191.504,91.4142 192.5,91.5C 192.833,91.5 193.167,91.5 193.5,91.5C 195.102,93.0739 197.102,93.7406 199.5,93.5C 203.327,93.7516 206.66,95.0849 209.5,97.5C 210.95,100.744 212.617,103.744 214.5,106.5C 216.695,105.392 218.695,105.559 220.5,107C 219.134,108.6 218.134,110.433 217.5,112.5C 216.904,111.284 216.737,109.951 217,108.5C 214.342,109.694 213.176,108.694 213.5,105.5C 210.315,105.02 207.481,105.686 205,107.5C 203.599,105.808 201.766,105.141 199.5,105.5C 199.167,105.5 198.833,105.5 198.5,105.5C 196.383,103.345 193.716,102.345 190.5,102.5C 188.379,102.675 186.379,102.341 184.5,101.5C 182.735,100.539 180.735,100.205 178.5,100.5C 178.5,109.833 178.5,119.167 178.5,128.5C 177.167,129.167 176.167,130.167 175.5,131.5C 172.549,131.713 169.882,131.046 167.5,129.5C 166.345,126.737 165.678,123.737 165.5,120.5C 165.88,114.304 166.213,107.971 166.5,101.5C 162.5,101.833 158.5,102.167 154.5,102.5C 150.267,102.668 149.267,101.335 151.5,98.5C 151.167,97.8333 150.833,97.1667 150.5,96.5C 151.763,94.9713 152.763,93.3046 153.5,91.5C 157.119,90.7564 160.785,90.423 164.5,90.5C 165.008,92.2327 165.841,92.566 167,91.5C 167.499,86.8452 167.666,82.1785 167.5,77.5C 165.396,77.7989 163.396,77.4656 161.5,76.5C 165.552,73.9688 169.886,72.3021 174.5,71.5C 175.496,71.5858 176.329,71.2524 177,70.5C 177.483,71.448 177.649,72.448 177.5,73.5C 179.527,73.3379 181.527,73.5045 183.5,74C 184.305,75.9717 185.639,77.4717 187.5,78.5C 185.668,79.0568 184.335,80.0568 183.5,81.5 Z"/></g>
<g><path style="opacity:0.678" fill="#848b8b" d="M 132.5,78.5 C 130.967,80.2451 128.967,81.2451 126.5,81.5C 128.033,79.7549 130.033,78.7549 132.5,78.5 Z"/></g>
<g><path style="opacity:0.971" fill="#5f6567" d="M 214.5,79.5 C 216.38,79.2291 217.713,79.8958 218.5,81.5C 216.517,81.8432 215.183,81.1765 214.5,79.5 Z"/></g>
<g><path style="opacity:0.216" fill="#adb0b5" d="M 166.5,82.5 C 162.519,83.0209 158.519,83.3542 154.5,83.5C 158.446,81.8377 162.446,81.5044 166.5,82.5 Z"/></g>
<g><path style="opacity:1" fill="#6a6f72" d="M 218.5,81.5 C 220.38,81.2291 221.713,81.8958 222.5,83.5C 220.517,83.8432 219.183,83.1765 218.5,81.5 Z"/></g>
<g><path style="opacity:0.859" fill="#9aa0a2" d="M 191.5,83.5 C 194.916,83.5275 197.916,84.5275 200.5,86.5C 197.215,86.0719 194.215,85.0719 191.5,83.5 Z"/></g>
<g><path style="opacity:0.051" fill="#cbcdce" d="M 150.5,84.5 C 148.786,85.7384 146.786,86.405 144.5,86.5C 146.102,84.9261 148.102,84.2594 150.5,84.5 Z"/></g>
<g><path style="opacity:0.757" fill="#8c8f93" d="M 120.5,84.5 C 120.027,85.9063 119.027,86.573 117.5,86.5C 117.973,85.0937 118.973,84.427 120.5,84.5 Z"/></g>
<g><path style="opacity:0.282" fill="#b0b5b7" d="M 183.5,81.5 C 183.5,81.8333 183.5,82.1667 183.5,82.5C 182.167,82.5 180.833,82.5 179.5,82.5C 179.5,84.5 179.5,86.5 179.5,88.5C 181.735,88.2053 183.735,88.5386 185.5,89.5C 183.167,89.5 180.833,89.5 178.5,89.5C 178.5,86.8333 178.5,84.1667 178.5,81.5C 180.167,81.5 181.833,81.5 183.5,81.5 Z"/></g>
<g><path style="opacity:0.878" fill="#797e84" d="M 201.5,86.5 C 203.698,86.1201 205.365,86.7868 206.5,88.5C 204.447,88.5979 202.78,87.9313 201.5,86.5 Z"/></g>
<g><path style="opacity:0.937" fill="#70767d" d="M 206.5,88.5 C 208.698,88.1201 210.365,88.7868 211.5,90.5C 209.447,90.5979 207.78,89.9313 206.5,88.5 Z"/></g>
<g><path style="opacity:0.031" fill="#bcc8c9" d="M 260.5,88.5 C 262.5,88.5 263.5,89.5 263.5,91.5C 262.167,90.8333 261.167,89.8333 260.5,88.5 Z"/></g>
<g><path style="opacity:0.971" fill="#595e61" d="M 178.5,89.5 C 180.833,89.5 183.167,89.5 185.5,89.5C 188.228,89.1706 190.562,89.8372 192.5,91.5C 191.504,91.4142 190.671,91.7476 190,92.5C 186.3,90.9195 182.467,89.9195 178.5,89.5 Z"/></g>
<g><path style="opacity:0.004" fill="#ccd0d2" d="M 136.5,89.5 C 135.486,90.6737 134.153,91.3404 132.5,91.5C 133.287,89.8958 134.62,89.2291 136.5,89.5 Z"/></g>
<g><path style="opacity:0.839" fill="#9a9ea0" d="M 166.5,88.5 C 165.833,89.1667 165.167,89.8333 164.5,90.5C 160.785,90.423 157.119,90.7564 153.5,91.5C 152.833,91.5 152.167,91.5 151.5,91.5C 156.23,89.7632 161.23,88.7632 166.5,88.5 Z"/></g>
<g><path style="opacity:0.247" fill="#b5b8bc" d="M 211.5,90.5 C 213.027,90.427 214.027,91.0937 214.5,92.5C 212.973,92.573 211.973,91.9063 211.5,90.5 Z"/></g>
<g><path style="opacity:0.863" fill="#72787a" d="M 193.5,91.5 C 195.898,91.2594 197.898,91.9261 199.5,93.5C 197.102,93.7406 195.102,93.0739 193.5,91.5 Z"/></g>
<g><path style="opacity:0.353" fill="#bdc1c4" d="M 251.5,91.5 C 251.167,92.5 250.5,93.1667 249.5,93.5C 249.5,92.1667 250.167,91.5 251.5,91.5 Z"/></g>
<g><path style="opacity:1" fill="#4a4e53" d="M 128.5,93.5 C 126.882,95.316 124.882,96.6493 122.5,97.5C 122.167,97.5 121.833,97.5 121.5,97.5C 121.5,96.5 121.5,95.5 121.5,94.5C 123.124,94.6399 124.29,93.9733 125,92.5C 126.011,93.3366 127.178,93.67 128.5,93.5 Z"/></g>
<g><path style="opacity:0.4" fill="#b2b6b8" d="M 249.5,93.5 C 249.5,93.8333 249.5,94.1667 249.5,94.5C 248.833,94.8333 248.167,95.1667 247.5,95.5C 247.5,94.1667 248.167,93.5 249.5,93.5 Z"/></g>
<g><path style="opacity:0.802" fill="#8b8f94" d="M 263.5,91.5 C 264.947,92.1342 265.613,93.3009 265.5,95C 265.613,96.6991 264.947,97.8658 263.5,98.5C 263.5,96.1667 263.5,93.8333 263.5,91.5 Z"/></g>
<g><path style="opacity:0.376" fill="#a1a3ab" d="M 220.5,95.5 C 222.027,95.427 223.027,96.0937 223.5,97.5C 221.973,97.573 220.973,96.9063 220.5,95.5 Z"/></g>
<g><path style="opacity:1" fill="#1b2327" d="M 222.5,83.5 C 229.321,86.3308 235.321,90.3308 240.5,95.5C 240.833,96.5 241.5,97.1667 242.5,97.5C 243.5,98.8333 244.5,98.8333 245.5,97.5C 246.5,97.1667 247.167,96.5 247.5,95.5C 248.167,95.1667 248.833,94.8333 249.5,94.5C 251.029,93.9732 252.362,94.6399 253.5,96.5C 252.05,97.8498 251.383,99.5165 251.5,101.5C 249.94,101.481 248.44,101.148 247,100.5C 245.013,102.628 242.513,103.628 239.5,103.5C 239.5,106.167 239.5,108.833 239.5,111.5C 237.61,111.703 236.11,111.037 235,109.5C 234.184,110.823 233.017,111.489 231.5,111.5C 232.476,110.185 233.476,108.852 234.5,107.5C 233.143,105.814 231.81,104.148 230.5,102.5C 229.738,100.738 228.404,99.7376 226.5,99.5C 226.027,98.0937 225.027,97.427 223.5,97.5C 223.027,96.0937 222.027,95.427 220.5,95.5C 218.847,95.3404 217.514,94.6737 216.5,93.5C 220.372,92.4963 221.872,90.1629 221,86.5C 221.333,87.1667 221.667,87.8333 222,88.5C 223.628,87.0383 223.795,85.3717 222.5,83.5 Z"/></g>
<g><path style="opacity:0.282" fill="#c0c2c8" d="M 247.5,95.5 C 247.167,96.5 246.5,97.1667 245.5,97.5C 245.5,96.1667 246.167,95.5 247.5,95.5 Z"/></g>
<g><path style="opacity:0.004" fill="#e6e8e9" d="M 242.5,97.5 C 241.5,97.1667 240.833,96.5 240.5,95.5C 242.203,94.3398 242.869,95.0065 242.5,97.5 Z"/></g>
<g><path style="opacity:0.043" fill="#b0b3b9" d="M 81.5,97.5 C 85.1309,100.629 88.6309,103.963 92,107.5C 92.7726,109.352 92.2726,110.686 90.5,111.5C 90.4142,110.504 90.7476,109.671 91.5,109C 87.5615,105.571 84.2281,101.737 81.5,97.5 Z"/></g>
<g><path style="opacity:0.008" fill="#e3e5e5" d="M 121.5,97.5 C 121.833,97.5 122.167,97.5 122.5,97.5C 122.027,98.9063 121.027,99.573 119.5,99.5C 119.833,98.5 120.5,97.8333 121.5,97.5 Z"/></g>
<g><path style="opacity:1" fill="#192226" d="M 151.5,91.5 C 152.167,91.5 152.833,91.5 153.5,91.5C 152.763,93.3046 151.763,94.9713 150.5,96.5C 150.833,97.1667 151.167,97.8333 151.5,98.5C 149.267,101.335 150.267,102.668 154.5,102.5C 154.158,103.338 153.492,103.672 152.5,103.5C 150.102,103.259 148.102,103.926 146.5,105.5C 144.784,105.629 143.117,105.962 141.5,106.5C 140.761,106.631 140.094,106.464 139.5,106C 140.696,105.346 140.696,104.846 139.5,104.5C 138.719,105.729 138.219,107.062 138,108.5C 136.951,107.483 135.784,107.316 134.5,108C 135.602,110.391 134.936,110.891 132.5,109.5C 131.708,110.7 131.708,112.033 132.5,113.5C 130.833,113.5 129.167,113.5 127.5,113.5C 126.504,113.414 125.671,113.748 125,114.5C 124.333,111.833 123.667,111.833 123,114.5C 121.548,113.093 121.715,111.593 123.5,110C 121.893,110.019 120.226,110.185 118.5,110.5C 119.167,109.5 119.833,108.5 120.5,107.5C 122.749,106.92 124.415,105.587 125.5,103.5C 126.847,102.829 128.014,102.829 129,103.5C 129.513,102.473 130.013,101.473 130.5,100.5C 132.027,100.573 133.027,99.9063 133.5,98.5C 139.046,95.0625 145.046,92.7292 151.5,91.5 Z"/></g>
<g><path style="opacity:0.404" fill="#9ea1a4" d="M 223.5,97.5 C 225.027,97.427 226.027,98.0937 226.5,99.5C 224.973,99.573 223.973,98.9063 223.5,97.5 Z"/></g>
<g><path style="opacity:0.682" fill="#949a9e" d="M 133.5,98.5 C 133.027,99.9063 132.027,100.573 130.5,100.5C 130.973,99.0937 131.973,98.427 133.5,98.5 Z"/></g>
<g><path style="opacity:0.024" fill="#cdcfd3" d="M 119.5,99.5 C 119.027,100.906 118.027,101.573 116.5,101.5C 116.973,100.094 117.973,99.427 119.5,99.5 Z"/></g>
<g><path style="opacity:0.576" fill="#979d9f" d="M 226.5,99.5 C 228.404,99.7376 229.738,100.738 230.5,102.5C 228.596,102.262 227.262,101.262 226.5,99.5 Z"/></g>
<g><path style="opacity:1" fill="#666d6f" d="M 130.5,100.5 C 130.013,101.473 129.513,102.473 129,103.5C 128.014,102.829 126.847,102.829 125.5,103.5C 126.659,101.75 128.326,100.75 130.5,100.5 Z"/></g>
<g><path style="opacity:0.875" fill="#8b9092" d="M 190.5,102.5 C 193.716,102.345 196.383,103.345 198.5,105.5C 195.603,104.871 192.936,103.871 190.5,102.5 Z"/></g>
<g><path style="opacity:0.008" fill="#dbddde" d="M 263.5,98.5 C 262.833,101.167 261.167,102.833 258.5,103.5C 259.833,101.5 261.5,99.8333 263.5,98.5 Z"/></g>
<g><path style="opacity:0.067" fill="#d0d2d4" d="M 152.5,103.5 C 150.786,104.738 148.786,105.405 146.5,105.5C 148.102,103.926 150.102,103.259 152.5,103.5 Z"/></g>
<g><path style="opacity:0.008" fill="#cfd2d4" d="M 258.5,103.5 C 258.5,104.833 257.833,105.5 256.5,105.5C 256.833,104.5 257.5,103.833 258.5,103.5 Z"/></g>
<g><path style="opacity:0.047" fill="#bcc2c3" d="M 111.5,105.5 C 111.833,105.5 112.167,105.5 112.5,105.5C 111.511,108.249 112.511,110.249 115.5,111.5C 115.103,112.525 114.437,112.692 113.5,112C 112.333,110.833 111.167,109.667 110,108.5C 109.415,107.002 109.915,106.002 111.5,105.5 Z"/></g>
<g><path style="opacity:0.875" fill="#74787b" d="M 125.5,103.5 C 124.415,105.587 122.749,106.92 120.5,107.5C 121.585,105.413 123.251,104.08 125.5,103.5 Z"/></g>
<g><path style="opacity:0.129" fill="#c6cbcc" d="M 146.5,105.5 C 145.22,106.931 143.553,107.598 141.5,107.5C 141.5,107.167 141.5,106.833 141.5,106.5C 143.117,105.962 144.784,105.629 146.5,105.5 Z"/></g>
<g><path style="opacity:0.007" fill="#e3e5e6" d="M 255.5,105.5 C 255.833,105.5 256.167,105.5 256.5,105.5C 256.843,107.483 256.176,108.817 254.5,109.5C 254.5,108.833 254.167,108.5 253.5,108.5C 254.167,107.5 254.833,106.5 255.5,105.5 Z"/></g>
<g><path style="opacity:1" fill="#3e4447" d="M 141.5,106.5 C 141.5,106.833 141.5,107.167 141.5,107.5C 138.523,109.467 135.523,111.467 132.5,113.5C 131.708,112.033 131.708,110.7 132.5,109.5C 134.936,110.891 135.602,110.391 134.5,108C 135.784,107.316 136.951,107.483 138,108.5C 138.219,107.062 138.719,105.729 139.5,104.5C 140.696,104.846 140.696,105.346 139.5,106C 140.094,106.464 140.761,106.631 141.5,106.5 Z"/></g>
<g><path style="opacity:0.686" fill="#8f9395" d="M 120.5,107.5 C 119.833,108.5 119.167,109.5 118.5,110.5C 117.609,111.11 116.609,111.443 115.5,111.5C 116.585,109.413 118.251,108.08 120.5,107.5 Z"/></g>
<g><path style="opacity:0.322" fill="#b0b1b6" d="M 207.5,109.5 C 209.027,109.427 210.027,110.094 210.5,111.5C 208.973,111.573 207.973,110.906 207.5,109.5 Z"/></g>
<g><path style="opacity:1" fill="#1a2327" d="M 111.5,105.5 C 109.915,106.002 109.415,107.002 110,108.5C 111.167,109.667 112.333,110.833 113.5,112C 114.437,112.692 115.103,112.525 115.5,111.5C 116.609,111.443 117.609,111.11 118.5,110.5C 120.226,110.185 121.893,110.019 123.5,110C 121.715,111.593 121.548,113.093 123,114.5C 123.667,111.833 124.333,111.833 125,114.5C 125.671,113.748 126.504,113.414 127.5,113.5C 127.567,114.959 127.234,116.292 126.5,117.5C 125.859,118.482 125.193,119.482 124.5,120.5C 125.857,122.186 127.19,123.852 128.5,125.5C 127.504,125.414 126.671,125.748 126,126.5C 125.712,122.826 124.212,121.993 121.5,124C 122.833,125 122.833,126 121.5,127C 118.082,127.073 114.749,126.74 111.5,126C 114.079,127.076 115.746,128.909 116.5,131.5C 115.603,130.402 114.77,130.402 114,131.5C 109.95,137.606 106.45,143.939 103.5,150.5C 103.344,147.934 103.678,145.434 104.5,143C 104.095,142.055 103.428,141.388 102.5,141C 106.19,140.576 106.357,139.742 103,138.5C 100.635,142.203 98.3016,145.203 96,147.5C 95.0494,147.116 94.2161,146.783 93.5,146.5C 93.5,145.833 93.5,145.167 93.5,144.5C 96.1777,141.79 97.511,138.457 97.5,134.5C 98.9063,134.027 99.573,133.027 99.5,131.5C 101.408,130.514 102.408,128.848 102.5,126.5C 104.262,125.738 105.262,124.404 105.5,122.5C 104.5,121.167 103.5,119.833 102.5,118.5C 101.054,117.387 99.3869,117.22 97.5,118C 98.6843,119.145 98.6843,120.312 97.5,121.5C 97.6716,122.492 97.3382,123.158 96.5,123.5C 95.0937,123.973 94.427,124.973 94.5,126.5C 94.573,128.027 93.9063,129.027 92.5,129.5C 91.3263,130.514 90.6596,131.847 90.5,133.5C 89.0687,134.78 88.4021,136.447 88.5,138.5C 88.0652,141.157 87.0652,143.491 85.5,145.5C 84.0762,147.515 83.4095,149.848 83.5,152.5C 83.3541,156.387 82.6874,160.054 81.5,163.5C 81.6812,159.498 80.0146,157.998 76.5,159C 77.1667,155 77.8333,151 78.5,147C 76.3234,145.814 75.3234,143.981 75.5,141.5C 75.5,140.5 75.5,139.5 75.5,138.5C 76.1084,135.673 77.1084,133.007 78.5,130.5C 80.4077,129.514 81.4077,127.848 81.5,125.5C 82.6737,124.486 83.3404,123.153 83.5,121.5C 83.3284,120.508 83.6618,119.842 84.5,119.5C 85.9063,119.027 86.573,118.027 86.5,116.5C 87.5,116.167 88.1667,115.5 88.5,114.5C 88.427,112.973 89.0937,111.973 90.5,111.5C 92.2726,110.686 92.7726,109.352 92,107.5C 88.6309,103.963 85.1309,100.629 81.5,97.5C 79.8474,93.2831 81.1807,90.1164 85.5,88C 87.3869,87.2204 89.0536,87.3871 90.5,88.5C 92.2393,91.2427 94.5726,93.2427 97.5,94.5C 97.5106,96.0174 98.1772,97.1841 99.5,98C 97.6992,98.3173 97.3659,98.984 98.5,100C 100.14,100.348 101.473,99.8478 102.5,98.5C 103.5,98.1667 104.167,97.5 104.5,96.5C 107.473,95.1897 109.807,93.1897 111.5,90.5C 113.027,90.573 114.027,89.9063 114.5,88.5C 117.626,88.8917 120.626,88.3917 123.5,87C 121.5,87.6667 120.167,89 119.5,91C 117.423,91.1922 115.423,91.6922 113.5,92.5C 112.766,94.8149 111.432,96.6482 109.5,98C 111.291,100.106 111.958,102.606 111.5,105.5 Z"/></g>
<g><path style="opacity:1" fill="#4b5256" d="M 97.5,94.5 C 99.1667,95.8333 100.833,97.1667 102.5,98.5C 101.473,99.8478 100.14,100.348 98.5,100C 97.3659,98.984 97.6992,98.3173 99.5,98C 98.1772,97.1841 97.5106,96.0174 97.5,94.5 Z"/></g>
<g><path style="opacity:0.314" fill="#bbbfbf" d="M 104.5,96.5 C 104.167,97.5 103.5,98.1667 102.5,98.5C 102.5,97.1667 103.167,96.5 104.5,96.5 Z"/></g>
<g><path style="opacity:0.718" fill="#6c7373" d="M 111.5,90.5 C 109.807,93.1897 107.473,95.1897 104.5,96.5C 106.219,93.7805 108.553,91.7805 111.5,90.5 Z"/></g>
<g><path style="opacity:0.655" fill="#909797" d="M 114.5,88.5 C 114.027,89.9063 113.027,90.573 111.5,90.5C 111.973,89.0937 112.973,88.427 114.5,88.5 Z"/></g>
<g><path style="opacity:0.027" fill="#bcbfc2" d="M 90.5,88.5 C 93.4274,89.7573 95.7607,91.7573 97.5,94.5C 94.5726,93.2427 92.2393,91.2427 90.5,88.5 Z"/></g>
<g><path style="opacity:0.012" fill="#d3d6d6" d="M 151.5,112.5 C 153.5,112.5 154.5,113.5 154.5,115.5C 153.167,114.833 152.167,113.833 151.5,112.5 Z"/></g>
<g><path style="opacity:0.2" fill="#c6cbce" d="M 184.5,101.5 C 182.833,101.5 181.167,101.5 179.5,101.5C 179.827,110.682 179.493,119.682 178.5,128.5C 178.5,119.167 178.5,109.833 178.5,100.5C 180.735,100.205 182.735,100.539 184.5,101.5 Z"/></g>
<g><path style="opacity:0.02" fill="#d0d2d3" d="M 199.5,112.5 C 200.833,112.5 201.5,113.167 201.5,114.5C 200.5,114.167 199.833,113.5 199.5,112.5 Z"/></g>
<g><path style="opacity:0.322" fill="#b9b9bb" d="M 210.5,111.5 C 212.027,111.427 213.027,112.094 213.5,113.5C 211.973,113.573 210.973,112.906 210.5,111.5 Z"/></g>
<g><path style="opacity:0.357" fill="#a9b2b4" d="M 254.5,110.5 C 255.906,110.973 256.573,111.973 256.5,113.5C 255.094,113.027 254.427,112.027 254.5,110.5 Z"/></g>
<g><path style="opacity:0.995" fill="#74787b" d="M 127.5,113.5 C 129.167,113.5 130.833,113.5 132.5,113.5C 130.777,115.218 128.777,116.551 126.5,117.5C 127.234,116.292 127.567,114.959 127.5,113.5 Z"/></g>
<g><path style="opacity:0.616" fill="#9fa2a2" d="M 213.5,113.5 C 215.027,113.427 216.027,114.094 216.5,115.5C 214.973,115.573 213.973,114.906 213.5,113.5 Z"/></g>
<g><path style="opacity:1" fill="#161d22" d="M 260.5,88.5 C 261.167,89.8333 262.167,90.8333 263.5,91.5C 263.5,93.8333 263.5,96.1667 263.5,98.5C 261.5,99.8333 259.833,101.5 258.5,103.5C 257.5,103.833 256.833,104.5 256.5,105.5C 256.167,105.5 255.833,105.5 255.5,105.5C 253.436,105.687 251.436,106.187 249.5,107C 250.672,107.419 251.672,108.085 252.5,109C 250.905,108.383 249.572,108.716 248.5,110C 249.167,110.333 249.833,110.667 250.5,111C 249.773,112.399 249.273,113.899 249,115.5C 248.586,115.043 248.086,114.709 247.5,114.5C 245.78,115.934 243.78,116.767 241.5,117C 242.056,117.383 242.389,117.883 242.5,118.5C 239.145,120.185 238.811,122.185 241.5,124.5C 241.738,126.404 242.738,127.738 244.5,128.5C 244.557,129.609 244.89,130.609 245.5,131.5C 245.52,133.143 244.853,134.476 243.5,135.5C 244.609,137.214 243.942,137.881 241.5,137.5C 241.5,138.833 241.5,140.167 241.5,141.5C 240.5,141.5 239.5,141.5 238.5,141.5C 237.662,141.158 237.328,140.492 237.5,139.5C 237.446,137.368 236.446,136.035 234.5,135.5C 233.512,134.205 232.512,132.872 231.5,131.5C 231.5,130.167 230.833,129.5 229.5,129.5C 229.082,128.778 228.416,128.278 227.5,128C 229.271,127.465 229.604,126.631 228.5,125.5C 226.339,124.965 224.339,124.132 222.5,123C 223.428,122.612 224.095,121.945 224.5,121C 223.576,119.85 223.576,118.85 224.5,118C 219.506,114.106 220.173,111.272 226.5,109.5C 225.948,111.331 225.948,112.997 226.5,114.5C 227.503,112.458 228.837,112.125 230.5,113.5C 231.298,113.043 231.631,112.376 231.5,111.5C 233.017,111.489 234.184,110.823 235,109.5C 236.11,111.037 237.61,111.703 239.5,111.5C 239.5,108.833 239.5,106.167 239.5,103.5C 242.513,103.628 245.013,102.628 247,100.5C 248.44,101.148 249.94,101.481 251.5,101.5C 251.383,99.5165 252.05,97.8498 253.5,96.5C 252.362,94.6399 251.029,93.9732 249.5,94.5C 249.5,94.1667 249.5,93.8333 249.5,93.5C 250.5,93.1667 251.167,92.5 251.5,91.5C 253.603,87.6548 256.603,86.6548 260.5,88.5 Z"/></g>
<g><path style="opacity:0.227" fill="#bfc5c5" d="M 88.5,114.5 C 88.1667,115.5 87.5,116.167 86.5,116.5C 86.5,115.167 87.1667,114.5 88.5,114.5 Z"/></g>
<g><path style="opacity:0.525" fill="#868a90" d="M 256.5,113.5 C 257.906,113.973 258.573,114.973 258.5,116.5C 257.094,116.027 256.427,115.027 256.5,113.5 Z"/></g>
<g><path style="opacity:0.996" fill="#81878b" d="M 102.5,118.5 C 100.646,119.241 98.9791,120.241 97.5,121.5C 98.6843,120.312 98.6843,119.145 97.5,118C 99.3869,117.22 101.054,117.387 102.5,118.5 Z"/></g>
<g><path style="opacity:0.208" fill="#c7cecf" d="M 86.5,116.5 C 86.573,118.027 85.9063,119.027 84.5,119.5C 84.427,117.973 85.0937,116.973 86.5,116.5 Z"/></g>
<g><path style="opacity:1" fill="#31373c" d="M 199.5,112.5 C 199.833,113.5 200.5,114.167 201.5,114.5C 204.087,117.01 204.087,119.677 201.5,122.5C 198.934,124.599 196.267,124.932 193.5,123.5C 193.167,122.5 192.5,121.833 191.5,121.5C 188.991,113.68 191.658,110.68 199.5,112.5 Z"/></g>
<g><path style="opacity:0.49" fill="#9da2a5" d="M 258.5,116.5 C 260.262,117.262 261.262,118.596 261.5,120.5C 259.738,119.738 258.738,118.404 258.5,116.5 Z"/></g>
<g><path style="opacity:1" fill="#31393b" d="M 151.5,112.5 C 152.167,113.833 153.167,114.833 154.5,115.5C 155.833,123.003 152.833,125.67 145.5,123.5C 144.833,122.167 143.833,121.167 142.5,120.5C 141.532,113.368 144.532,110.701 151.5,112.5 Z"/></g>
<g><path style="opacity:0.059" fill="#c9cbcb" d="M 242.5,118.5 C 242.833,118.5 243.167,118.5 243.5,118.5C 242.71,119.794 241.71,120.961 240.5,122C 241.252,122.671 241.586,123.504 241.5,124.5C 238.811,122.185 239.145,120.185 242.5,118.5 Z"/></g>
<g><path style="opacity:0.008" fill="#cdcfd0" d="M 142.5,120.5 C 143.833,121.167 144.833,122.167 145.5,123.5C 143.5,123.5 142.5,122.5 142.5,120.5 Z"/></g>
<g><path style="opacity:0.012" fill="#c9cacc" d="M 191.5,121.5 C 192.5,121.833 193.167,122.5 193.5,123.5C 192.167,123.5 191.5,122.833 191.5,121.5 Z"/></g>
<g><path style="opacity:0.18" fill="#b7bbc0" d="M 83.5,121.5 C 83.3404,123.153 82.6737,124.486 81.5,125.5C 81.2291,123.62 81.8958,122.287 83.5,121.5 Z"/></g>
<g><path style="opacity:0.443" fill="#b2b5b7" d="M 221.5,121.5 C 220.833,122.833 219.833,123.833 218.5,124.5C 218.5,122.5 219.5,121.5 221.5,121.5 Z"/></g>
<g><path style="opacity:0.008" fill="#cdcfd1" d="M 96.5,123.5 C 96.573,125.027 95.9063,126.027 94.5,126.5C 94.427,124.973 95.0937,123.973 96.5,123.5 Z"/></g>
<g><path style="opacity:0.541" fill="#9fa2a3" d="M 105.5,122.5 C 105.262,124.404 104.262,125.738 102.5,126.5C 102.738,124.596 103.738,123.262 105.5,122.5 Z"/></g>
<g><path style="opacity:0.541" fill="#a0a2a3" d="M 241.5,124.5 C 243.262,125.262 244.262,126.596 244.5,128.5C 242.738,127.738 241.738,126.404 241.5,124.5 Z"/></g>
<g><path style="opacity:0.188" fill="#c9cacc" d="M 263.5,124.5 C 264.906,124.973 265.573,125.973 265.5,127.5C 264.094,127.027 263.427,126.027 263.5,124.5 Z"/></g>
<g><path style="opacity:1" fill="#1a2225" d="M 128.5,125.5 C 129.511,127.372 130.345,129.372 131,131.5C 132.388,131.214 133.888,131.548 135.5,132.5C 136.833,133.167 137.833,134.167 138.5,135.5C 138.427,137.027 139.094,138.027 140.5,138.5C 141.686,139.705 141.686,141.039 140.5,142.5C 139.167,143.167 138.167,144.167 137.5,145.5C 135.507,147.958 133.174,148.125 130.5,146C 126.296,141.964 122.296,137.798 118.5,133.5C 118.167,132.5 117.5,131.833 116.5,131.5C 115.746,128.909 114.079,127.076 111.5,126C 114.749,126.74 118.082,127.073 121.5,127C 122.833,126 122.833,125 121.5,124C 124.212,121.993 125.712,122.826 126,126.5C 126.671,125.748 127.504,125.414 128.5,125.5 Z"/></g>
<g><path style="opacity:0.467" fill="#b1b4b7" d="M 216.5,126.5 C 215.167,128.5 213.5,130.167 211.5,131.5C 212.167,128.833 213.833,127.167 216.5,126.5 Z"/></g>
<g><path style="opacity:0.878" fill="#888b8e" d="M 81.5,125.5 C 81.4077,127.848 80.4077,129.514 78.5,130.5C 78.7497,128.326 79.7497,126.659 81.5,125.5 Z"/></g>
<g><path style="opacity:1" fill="#1c2428" d="M 209.5,97.5 C 217.51,101.168 224.844,105.835 231.5,111.5C 231.631,112.376 231.298,113.043 230.5,113.5C 228.837,112.125 227.503,112.458 226.5,114.5C 225.948,112.997 225.948,111.331 226.5,109.5C 220.173,111.272 219.506,114.106 224.5,118C 223.576,118.85 223.576,119.85 224.5,121C 224.095,121.945 223.428,122.612 222.5,123C 224.339,124.132 226.339,124.965 228.5,125.5C 229.604,126.631 229.271,127.465 227.5,128C 228.416,128.278 229.082,128.778 229.5,129.5C 228.265,129.721 227.265,130.388 226.5,131.5C 225.914,131.291 225.414,130.957 225,130.5C 224.316,131.784 224.483,132.951 225.5,134C 224.5,134.333 223.5,134.667 222.5,135C 223.252,135.671 223.586,136.504 223.5,137.5C 221.876,137.64 220.71,136.973 220,135.5C 216.851,138.132 215.018,141.466 214.5,145.5C 212.25,148.034 209.916,148.034 207.5,145.5C 207.167,144.5 206.5,143.833 205.5,143.5C 204.853,142.726 204.52,141.726 204.5,140.5C 204.34,138.645 205.007,137.312 206.5,136.5C 207.833,135.833 208.833,134.833 209.5,133.5C 209.5,132.167 210.167,131.5 211.5,131.5C 213.5,130.167 215.167,128.5 216.5,126.5C 216.5,125.167 217.167,124.5 218.5,124.5C 219.833,123.833 220.833,122.833 221.5,121.5C 219.833,119.5 218.167,117.5 216.5,115.5C 216.027,114.094 215.027,113.427 213.5,113.5C 213.027,112.094 212.027,111.427 210.5,111.5C 210.027,110.094 209.027,109.427 207.5,109.5C 204.515,108.674 201.849,107.341 199.5,105.5C 201.766,105.141 203.599,105.808 205,107.5C 207.481,105.686 210.315,105.02 213.5,105.5C 213.176,108.694 214.342,109.694 217,108.5C 216.737,109.951 216.904,111.284 217.5,112.5C 218.134,110.433 219.134,108.6 220.5,107C 218.695,105.559 216.695,105.392 214.5,106.5C 212.617,103.744 210.95,100.744 209.5,97.5 Z"/></g>
<g><path style="opacity:1" fill="#1e262a" d="M 255.5,105.5 C 254.833,106.5 254.167,107.5 253.5,108.5C 254.167,108.5 254.5,108.833 254.5,109.5C 254.5,109.833 254.5,110.167 254.5,110.5C 254.427,112.027 255.094,113.027 256.5,113.5C 256.427,115.027 257.094,116.027 258.5,116.5C 258.738,118.404 259.738,119.738 261.5,120.5C 262.674,121.514 263.34,122.847 263.5,124.5C 263.427,126.027 264.094,127.027 265.5,127.5C 265.5,127.833 265.5,128.167 265.5,128.5C 265.427,130.027 266.094,131.027 267.5,131.5C 268.11,132.391 268.443,133.391 268.5,134.5C 268.12,136.698 268.787,138.365 270.5,139.5C 271.11,140.391 271.443,141.391 271.5,142.5C 271.263,143.791 271.596,144.791 272.5,145.5C 272.5,145.833 272.5,146.167 272.5,146.5C 272.41,149.152 273.076,151.485 274.5,153.5C 274.232,155.099 274.566,156.432 275.5,157.5C 275.5,158.167 275.5,158.833 275.5,159.5C 275.5,160.167 275.5,160.833 275.5,161.5C 274.466,160.313 273.133,159.48 271.5,159C 271.667,156.5 271.833,154 272,151.5C 270.667,151.5 269.333,151.5 268,151.5C 267.784,157.82 266.617,163.82 264.5,169.5C 264.813,165.958 264.479,162.625 263.5,159.5C 262.122,155.279 261.122,150.946 260.5,146.5C 260.598,144.447 259.931,142.78 258.5,141.5C 255.132,133.771 250.966,126.437 246,119.5C 245.329,118.748 244.496,118.414 243.5,118.5C 243.167,118.5 242.833,118.5 242.5,118.5C 242.389,117.883 242.056,117.383 241.5,117C 243.78,116.767 245.78,115.934 247.5,114.5C 248.086,114.709 248.586,115.043 249,115.5C 249.273,113.899 249.773,112.399 250.5,111C 249.833,110.667 249.167,110.333 248.5,110C 249.572,108.716 250.905,108.383 252.5,109C 251.672,108.085 250.672,107.419 249.5,107C 251.436,106.187 253.436,105.687 255.5,105.5 Z"/></g>
<g><path style="opacity:0.973" fill="#667071" d="M 102.5,126.5 C 102.408,128.848 101.408,130.514 99.5,131.5C 99.7497,129.326 100.75,127.659 102.5,126.5 Z"/></g>
<g><path style="opacity:0.004" fill="#e1e3e3" d="M 178.5,128.5 C 178.5,130.5 177.5,131.5 175.5,131.5C 176.167,130.167 177.167,129.167 178.5,128.5 Z"/></g>
<g><path style="opacity:0.212" fill="#c2c3c5" d="M 244.5,128.5 C 245.906,128.973 246.573,129.973 246.5,131.5C 246.167,131.5 245.833,131.5 245.5,131.5C 244.89,130.609 244.557,129.609 244.5,128.5 Z"/></g>
<g><path style="opacity:0.145" fill="#c6cacd" d="M 265.5,128.5 C 266.906,128.973 267.573,129.973 267.5,131.5C 266.094,131.027 265.427,130.027 265.5,128.5 Z"/></g>
<g><path style="opacity:1" fill="#595e60" d="M 128.5,125.5 C 131.167,127.5 133.5,129.833 135.5,132.5C 133.888,131.548 132.388,131.214 131,131.5C 130.345,129.372 129.511,127.372 128.5,125.5 Z"/></g>
<g><path style="opacity:0.341" fill="#adb0b2" d="M 167.5,129.5 C 169.882,131.046 172.549,131.713 175.5,131.5C 172.282,133.184 169.615,132.517 167.5,129.5 Z"/></g>
<g><path style="opacity:1" fill="#4a5052" d="M 229.5,129.5 C 230.833,129.5 231.5,130.167 231.5,131.5C 228.569,133.091 225.902,135.091 223.5,137.5C 223.586,136.504 223.252,135.671 222.5,135C 223.5,134.667 224.5,134.333 225.5,134C 224.483,132.951 224.316,131.784 225,130.5C 225.414,130.957 225.914,131.291 226.5,131.5C 227.265,130.388 228.265,129.721 229.5,129.5 Z"/></g>
<g><path style="opacity:0.063" fill="#cbcdce" d="M 92.5,129.5 C 92.7709,131.38 92.1042,132.713 90.5,133.5C 90.6596,131.847 91.3263,130.514 92.5,129.5 Z"/></g>
<g><path style="opacity:0.004" fill="#d3d6d7" d="M 116.5,131.5 C 117.5,131.833 118.167,132.5 118.5,133.5C 117.167,133.5 116.5,132.833 116.5,131.5 Z"/></g>
<g><path style="opacity:0.216" fill="#b2b8c0" d="M 99.5,131.5 C 99.573,133.027 98.9063,134.027 97.5,134.5C 97.427,132.973 98.0937,131.973 99.5,131.5 Z"/></g>
<g><path style="opacity:0.447" fill="#a8abac" d="M 209.5,133.5 C 208.833,134.833 207.833,135.833 206.5,136.5C 206.5,134.5 207.5,133.5 209.5,133.5 Z"/></g>
<g><path style="opacity:0.843" fill="#8e9596" d="M 234.5,135.5 C 236.446,136.035 237.446,137.368 237.5,139.5C 236.026,138.564 235.026,137.23 234.5,135.5 Z"/></g>
<g><path style="opacity:0.141" fill="#c8cdd1" d="M 90.5,133.5 C 90.5979,135.553 89.9313,137.22 88.5,138.5C 88.4021,136.447 89.0687,134.78 90.5,133.5 Z"/></g>
<g><path style="opacity:0.404" fill="#9fa1a2" d="M 138.5,135.5 C 139.906,135.973 140.573,136.973 140.5,138.5C 139.094,138.027 138.427,137.027 138.5,135.5 Z"/></g>
<g><path style="opacity:0.812" fill="#919698" d="M 268.5,134.5 C 269.931,135.78 270.598,137.447 270.5,139.5C 268.787,138.365 268.12,136.698 268.5,134.5 Z"/></g>
<g><path style="opacity:0.984" fill="#5f6466" d="M 97.5,134.5 C 97.511,138.457 96.1777,141.79 93.5,144.5C 93.7516,140.673 95.0849,137.34 97.5,134.5 Z"/></g>
<g><path style="opacity:0.451" fill="#bbbfc1" d="M 75.5,138.5 C 75.5,139.5 75.5,140.5 75.5,141.5C 75.1667,141.5 74.8333,141.5 74.5,141.5C 74.0618,141.565 73.7284,141.399 73.5,141C 74.0659,140.005 74.7326,139.172 75.5,138.5 Z"/></g>
<g><path style="opacity:1" fill="#434a4c" d="M 223.5,137.5 C 221.1,140.903 218.1,143.57 214.5,145.5C 215.018,141.466 216.851,138.132 220,135.5C 220.71,136.973 221.876,137.64 223.5,137.5 Z"/></g>
<g><path style="opacity:0.933" fill="#797f81" d="M 249.5,137.5 C 250.364,138.688 251.364,139.855 252.5,141C 252.272,141.399 251.938,141.565 251.5,141.5C 249.824,140.817 249.157,139.483 249.5,137.5 Z"/></g>
<g><path style="opacity:0.165" fill="#d7dbde" d="M 271.5,142.5 C 272.267,143.172 272.934,144.005 273.5,145C 273.272,145.399 272.938,145.565 272.5,145.5C 271.596,144.791 271.263,143.791 271.5,142.5 Z"/></g>
<g><path style="opacity:0.047" fill="#c0c2c2" d="M 140.5,142.5 C 140.5,144.5 139.5,145.5 137.5,145.5C 138.167,144.167 139.167,143.167 140.5,142.5 Z"/></g>
<g><path style="opacity:0.004" fill="#d8d8d8" d="M 205.5,143.5 C 206.5,143.833 207.167,144.5 207.5,145.5C 206.167,145.5 205.5,144.833 205.5,143.5 Z"/></g>
<g><path style="opacity:0.102" fill="#c7c8ce" d="M 251.5,142.5 C 253.104,143.287 253.771,144.62 253.5,146.5C 252.326,145.486 251.66,144.153 251.5,142.5 Z"/></g>
<g><path style="opacity:0.396" fill="#afb3b7" d="M 258.5,141.5 C 259.931,142.78 260.598,144.447 260.5,146.5C 259.069,145.22 258.402,143.553 258.5,141.5 Z"/></g>
<g><path style="opacity:0.161" fill="#b3b5ba" d="M 93.5,144.5 C 93.5,145.167 93.5,145.833 93.5,146.5C 92.6873,148.261 91.6873,149.928 90.5,151.5C 90.5516,148.654 91.5516,146.32 93.5,144.5 Z"/></g>
<g><path style="opacity:0.067" fill="#cbccd0" d="M 73.5,144.5 C 73.5905,147.152 72.9238,149.485 71.5,151.5C 71.4095,148.848 72.0762,146.515 73.5,144.5 Z"/></g>
<g><path style="opacity:0.02" fill="#cbcdd0" d="M 85.5,145.5 C 85.5905,148.152 84.9238,150.485 83.5,152.5C 83.4095,149.848 84.0762,147.515 85.5,145.5 Z"/></g>
<g><path style="opacity:0.38" fill="#b6b9bc" d="M 112.5,146.5 C 111.833,147.833 110.833,148.833 109.5,149.5C 109.5,147.5 110.5,146.5 112.5,146.5 Z"/></g>
<g><path style="opacity:1" fill="#1c2428" d="M 245.5,131.5 C 245.833,131.5 246.167,131.5 246.5,131.5C 248.008,133.181 249.008,135.181 249.5,137.5C 249.157,139.483 249.824,140.817 251.5,141.5C 251.5,141.833 251.5,142.167 251.5,142.5C 251.66,144.153 252.326,145.486 253.5,146.5C 254.11,147.391 254.443,148.391 254.5,149.5C 254.41,152.152 255.076,154.485 256.5,156.5C 256.5,156.833 256.5,157.167 256.5,157.5C 256.232,159.099 256.566,160.432 257.5,161.5C 257.5,161.833 257.5,162.167 257.5,162.5C 257.5,164.833 257.5,167.167 257.5,169.5C 256.494,169.938 256.494,170.604 257.5,171.5C 255.801,171.66 254.134,171.494 252.5,171C 250.603,167.634 249.103,164.134 248,160.5C 247.283,161.044 246.783,161.711 246.5,162.5C 245.833,160.833 245.167,159.167 244.5,157.5C 242.509,152.181 240.509,146.848 238.5,141.5C 239.5,141.5 240.5,141.5 241.5,141.5C 241.5,140.167 241.5,138.833 241.5,137.5C 243.942,137.881 244.609,137.214 243.5,135.5C 244.853,134.476 245.52,133.143 245.5,131.5 Z"/></g>
<g><path style="opacity:1" fill="#2d3439" d="M 120.5,155.5 C 119.5,155.833 118.833,156.5 118.5,157.5C 116.167,157.5 113.833,157.5 111.5,157.5C 108.483,155.385 107.816,152.718 109.5,149.5C 110.833,148.833 111.833,147.833 112.5,146.5C 115.542,144.98 118.208,145.647 120.5,148.5C 121.766,150.972 121.766,153.306 120.5,155.5 Z"/></g>
<g><path style="opacity:1" fill="#2f363a" d="M 235.5,148.5 C 235.5,151.167 235.5,153.833 235.5,156.5C 231.493,160.561 227.66,160.228 224,155.5C 222.673,148.497 225.506,145.33 232.5,146C 233.942,146.377 234.942,147.21 235.5,148.5 Z"/></g>
<g><path style="opacity:0.827" fill="#8e9297" d="M 235.5,148.5 C 238.167,151.167 238.167,153.833 235.5,156.5C 235.5,153.833 235.5,151.167 235.5,148.5 Z"/></g>
<g><path style="opacity:0.475" fill="#9fa4a6" d="M 272.5,146.5 C 273.289,146.783 273.956,147.283 274.5,148C 274.146,149.626 274.146,151.459 274.5,153.5C 273.076,151.485 272.41,149.152 272.5,146.5 Z"/></g>
<g><path style="opacity:0.047" fill="#d3d5d7" d="M 254.5,149.5 C 255.578,151.539 256.578,153.706 257.5,156C 257.272,156.399 256.938,156.565 256.5,156.5C 255.076,154.485 254.41,152.152 254.5,149.5 Z"/></g>
<g><path style="opacity:0.059" fill="#ebebec" d="M 274.5,153.5 C 275.249,154.531 275.915,155.698 276.5,157C 276.272,157.399 275.938,157.565 275.5,157.5C 274.566,156.432 274.232,155.099 274.5,153.5 Z"/></g>
<g><path style="opacity:0.012" fill="#cbcecf" d="M 120.5,155.5 C 120.5,156.833 119.833,157.5 118.5,157.5C 118.833,156.5 119.5,155.833 120.5,155.5 Z"/></g>
<g><path style="opacity:0.788" fill="#848b8d" d="M 111.5,157.5 C 113.833,157.5 116.167,157.5 118.5,157.5C 116.167,160.167 113.833,160.167 111.5,157.5 Z"/></g>
<g><path style="opacity:0.006" fill="#ebecec" d="M 256.5,157.5 C 258.842,158.211 259.175,159.544 257.5,161.5C 256.566,160.432 256.232,159.099 256.5,157.5 Z"/></g>
<g><path style="opacity:1" fill="#1e262a" d="M 74.5,141.5 C 74.8333,141.5 75.1667,141.5 75.5,141.5C 75.3234,143.981 76.3234,145.814 78.5,147C 77.8333,151 77.1667,155 76.5,159C 80.0146,157.998 81.6812,159.498 81.5,163.5C 81.5,163.833 81.5,164.167 81.5,164.5C 80.5489,165.919 80.2155,167.585 80.5,169.5C 82.8333,169.5 85.1667,169.5 87.5,169.5C 87.1788,171.048 86.1788,171.715 84.5,171.5C 83.8214,173.668 82.8214,175.668 81.5,177.5C 82.8134,180.725 85.1467,181.891 88.5,181C 88.1667,180.667 87.8333,180.333 87.5,180C 88.9675,178.902 89.8008,177.402 90,175.5C 92.3394,177.673 94.5061,180.006 96.5,182.5C 97.3857,181.675 97.719,180.675 97.5,179.5C 100.841,180.005 104.174,180.172 107.5,180C 107.727,178.865 108.06,177.698 108.5,176.5C 109.524,177.853 110.857,178.52 112.5,178.5C 112.5,179.167 112.5,179.833 112.5,180.5C 112.082,181.222 111.416,181.722 110.5,182C 106.833,182.333 103.167,182.667 99.5,183C 100.423,185.041 100.756,187.208 100.5,189.5C 100.338,191.527 100.505,193.527 101,195.5C 101.383,196.056 101.883,196.389 102.5,196.5C 102.5,196.833 102.5,197.167 102.5,197.5C 102.12,199.698 102.787,201.365 104.5,202.5C 106.438,206.043 108.105,209.71 109.5,213.5C 109.427,215.027 110.094,216.027 111.5,216.5C 112.117,216.611 112.617,216.944 113,217.5C 114.379,215.285 116.213,213.619 118.5,212.5C 118.249,214.17 117.582,215.67 116.5,217C 118.592,217.953 118.925,219.286 117.5,221C 115.632,219.4 113.299,218.233 110.5,217.5C 109.115,216.426 107.949,215.093 107,213.5C 104.626,216.969 105.126,219.803 108.5,222C 105.504,222.666 103.504,221.499 102.5,218.5C 103.025,217.808 103.692,217.308 104.5,217C 102.047,215.153 100.714,215.987 100.5,219.5C 100.167,219.5 99.8333,219.5 99.5,219.5C 92.995,209.14 89.3283,197.806 88.5,185.5C 88.5,184.5 88.5,183.5 88.5,182.5C 85.8333,182.5 83.1667,182.5 80.5,182.5C 80.2627,183.791 80.596,184.791 81.5,185.5C 82.5515,189.426 83.2182,193.426 83.5,197.5C 83.1376,201.081 84.1376,204.081 86.5,206.5C 86.0535,209.01 86.7202,211.01 88.5,212.5C 89.9313,213.78 90.5979,215.447 90.5,217.5C 90.427,219.027 91.0937,220.027 92.5,220.5C 93.3382,220.842 93.6716,221.508 93.5,222.5C 94.17,225.503 95.8367,226.17 98.5,224.5C 98.6107,225.117 98.944,225.617 99.5,226C 98.3434,227.621 97.5101,229.455 97,231.5C 96.6824,229.939 95.8491,228.772 94.5,228C 95.1667,227.667 95.8333,227.333 96.5,227C 94.8876,226.28 93.3876,226.446 92,227.5C 90.5885,230.838 90.0885,234.171 90.5,237.5C 89.7777,236.449 88.7777,235.782 87.5,235.5C 87.7148,233.821 87.0481,232.821 85.5,232.5C 83.4357,229.757 81.769,226.757 80.5,223.5C 80.5979,221.447 79.9313,219.78 78.5,218.5C 77.6618,218.158 77.3284,217.492 77.5,216.5C 77.4208,215.07 77.7542,213.736 78.5,212.5C 77.1457,211.146 75.8123,209.812 74.5,208.5C 70.7749,199.923 69.1082,190.923 69.5,181.5C 69.5,181.167 69.5,180.833 69.5,180.5C 69.5,180.167 69.5,179.833 69.5,179.5C 69.5,176.5 69.5,173.5 69.5,170.5C 69.5,167.5 69.5,164.5 69.5,161.5C 70.7682,159.095 71.4349,156.428 71.5,153.5C 71.5,152.833 71.5,152.167 71.5,151.5C 72.9238,149.485 73.5905,147.152 73.5,144.5C 73.5569,143.391 73.8902,142.391 74.5,141.5 Z"/></g>
<g><path style="opacity:0.259" fill="#abafb0" d="M 90.5,152.5 C 90.3239,155.727 89.6572,158.727 88.5,161.5C 88.2153,158.171 88.8819,155.171 90.5,152.5 Z"/></g>
<g><path style="opacity:0.882" fill="#6c7174" d="M 178.5,157.5 C 177.167,157.5 175.833,157.5 174.5,157.5C 169.729,157.538 165.062,158.204 160.5,159.5C 162.148,158.073 164.148,157.24 166.5,157C 170.689,156.188 174.689,156.355 178.5,157.5 Z"/></g>
<g><path style="opacity:0.2" fill="#bdbfc2" d="M 71.5,153.5 C 71.4349,156.428 70.7682,159.095 69.5,161.5C 69.7845,159.123 69.7845,156.956 69.5,155C 70.0442,154.283 70.7109,153.783 71.5,153.5 Z"/></g>
<g><path style="opacity:0.584" fill="#95989c" d="M 160.5,159.5 C 159.738,161.262 158.404,162.262 156.5,162.5C 157.262,160.738 158.596,159.738 160.5,159.5 Z"/></g>
<g><path style="opacity:0.345" fill="#bdc1c2" d="M 156.5,162.5 C 156.167,163.167 155.833,163.833 155.5,164.5C 155.167,164.5 154.833,164.5 154.5,164.5C 154.5,163.167 155.167,162.5 156.5,162.5 Z"/></g>
<g><path style="opacity:0.675" fill="#a3aaac" d="M 189.5,162.5 C 191.262,163.262 192.262,164.596 192.5,166.5C 190.738,165.738 189.738,164.404 189.5,162.5 Z"/></g>
<g><path style="opacity:0.267" fill="#c6c9c9" d="M 154.5,164.5 C 154.167,165.5 153.5,166.167 152.5,166.5C 152.5,165.167 153.167,164.5 154.5,164.5 Z"/></g>
<g><path style="opacity:0.522" fill="#979a9f" d="M 170.5,167.5 C 173.228,167.171 175.562,167.837 177.5,169.5C 174.167,168.167 170.833,168.167 167.5,169.5C 168.29,168.599 169.29,167.932 170.5,167.5 Z"/></g>
<g><path style="opacity:1" fill="#111b1f" d="M 257.5,171.5 C 257.81,172.738 258.31,172.738 259,171.5C 259.5,172.5 260,173.5 260.5,174.5C 259.731,177.444 258.397,179.11 256.5,179.5C 255.688,180.993 254.355,181.66 252.5,181.5C 249.964,181.131 248.131,179.797 247,177.5C 244.447,179.729 241.614,180.062 238.5,178.5C 237.522,178.977 236.689,179.643 236,180.5C 235.333,177.833 234.667,177.833 234,180.5C 233.467,178.061 232.3,177.395 230.5,178.5C 230.312,175.065 231.312,172.065 233.5,169.5C 237.833,169.5 242.167,169.5 246.5,169.5C 246.5,167.167 246.5,164.833 246.5,162.5C 246.783,161.711 247.283,161.044 248,160.5C 249.103,164.134 250.603,167.634 252.5,171C 254.134,171.494 255.801,171.66 257.5,171.5 Z"/></g>
<g><path style="opacity:0.61" fill="#797e81" d="M 81.5,164.5 C 81.5,165.833 81.5,167.167 81.5,168.5C 83.6112,167.62 85.6112,167.62 87.5,168.5C 87.5,168.833 87.5,169.167 87.5,169.5C 85.1667,169.5 82.8333,169.5 80.5,169.5C 80.2155,167.585 80.5489,165.919 81.5,164.5 Z"/></g>
<g><path style="opacity:0.357" fill="#a5aaac" d="M 152.5,166.5 C 152.573,168.027 151.906,169.027 150.5,169.5C 150.427,167.973 151.094,166.973 152.5,166.5 Z"/></g>
<g><path style="opacity:0.378" fill="#a2a6a8" d="M 244.5,157.5 C 245.167,159.167 245.833,160.833 246.5,162.5C 246.5,164.833 246.5,167.167 246.5,169.5C 242.167,169.5 237.833,169.5 233.5,169.5C 237.298,168.517 241.298,168.183 245.5,168.5C 245.058,164.846 244.724,161.179 244.5,157.5 Z"/></g>
<g><path style="opacity:0.582" fill="#a6a9ac" d="M 263.5,159.5 C 264.479,162.625 264.813,165.958 264.5,169.5C 262.167,169.5 259.833,169.5 257.5,169.5C 257.5,167.167 257.5,164.833 257.5,162.5C 258.461,164.265 258.795,166.265 258.5,168.5C 260.167,168.5 261.833,168.5 263.5,168.5C 263.5,165.5 263.5,162.5 263.5,159.5 Z"/></g>
<g><path style="opacity:1" fill="#161f22" d="M 275.5,161.5 C 275.5,169.5 275.5,177.5 275.5,185.5C 275.5,186.833 275.5,188.167 275.5,189.5C 274.596,190.209 274.263,191.209 274.5,192.5C 273.522,192.189 272.855,191.522 272.5,190.5C 273.593,186.892 273.76,183.225 273,179.5C 272,178.833 271,178.167 270,177.5C 268.786,179.049 267.286,180.215 265.5,181C 268.544,181.359 268.878,182.026 266.5,183C 267.167,183.333 267.833,183.667 268.5,184C 267.398,186.401 267.231,188.901 268,191.5C 268.497,184.497 269.163,184.163 270,190.5C 271.022,191.354 271.855,192.354 272.5,193.5C 270.86,195.14 269.194,196.806 267.5,198.5C 266.083,201.921 265.249,205.254 265,208.5C 263.224,207.464 261.391,207.464 259.5,208.5C 260.301,206.958 260.634,205.292 260.5,203.5C 261.185,198.761 262.185,194.095 263.5,189.5C 264.468,187.393 264.802,185.059 264.5,182.5C 261.695,181.935 259.028,180.935 256.5,179.5C 258.397,179.11 259.731,177.444 260.5,174.5C 260,173.5 259.5,172.5 259,171.5C 258.31,172.738 257.81,172.738 257.5,171.5C 256.494,170.604 256.494,169.938 257.5,169.5C 259.833,169.5 262.167,169.5 264.5,169.5C 266.617,163.82 267.784,157.82 268,151.5C 269.333,151.5 270.667,151.5 272,151.5C 271.833,154 271.667,156.5 271.5,159C 273.133,159.48 274.466,160.313 275.5,161.5 Z"/></g>
<g><path style="opacity:0.009" fill="#f9fdfd" d="M 69.5,170.5 C 69.5,173.5 69.5,176.5 69.5,179.5C 68.1667,179.833 68.1667,180.167 69.5,180.5C 69.5,180.833 69.5,181.167 69.5,181.5C 68.8826,181.611 68.3826,181.944 68,182.5C 67.8333,180.833 67.6667,179.167 67.5,177.5C 67.3161,174.795 67.9827,172.462 69.5,170.5 Z"/></g>
<g><path style="opacity:0.008" fill="#dde1e1" d="M 167.5,169.5 C 167.027,170.906 166.027,171.573 164.5,171.5C 164.973,170.094 165.973,169.427 167.5,169.5 Z"/></g>
<g><path style="opacity:0.529" fill="#b1b4b7" d="M 179.5,170.5 C 181.833,170.833 183.167,172.167 183.5,174.5C 181.833,173.5 180.5,172.167 179.5,170.5 Z"/></g>
<g><path style="opacity:0.992" fill="#656c6f" d="M 192.5,166.5 C 195.79,169.756 197.457,173.756 197.5,178.5C 195.37,174.778 193.703,170.778 192.5,166.5 Z"/></g>
<g><path style="opacity:1" fill="#727577" d="M 233.5,169.5 C 231.312,172.065 230.312,175.065 230.5,178.5C 228.623,177.341 228.123,175.674 229,173.5C 229.748,171.249 231.248,169.916 233.5,169.5 Z"/></g>
<g><path style="opacity:0.89" fill="#767a7d" d="M 164.5,171.5 C 163.488,172.872 162.488,174.205 161.5,175.5C 161.5,174.167 161.5,172.833 161.5,171.5C 162.5,171.5 163.5,171.5 164.5,171.5 Z"/></g>
<g><path style="opacity:1" fill="#1a2328" d="M 103.5,150.5 C 102.01,156.125 100.677,161.792 99.5,167.5C 103.877,168.222 108.21,168.889 112.5,169.5C 114.097,172.319 114.597,175.319 114,178.5C 113.31,177.262 112.81,177.262 112.5,178.5C 110.857,178.52 109.524,177.853 108.5,176.5C 108.06,177.698 107.727,178.865 107.5,180C 104.174,180.172 100.841,180.005 97.5,179.5C 97.719,180.675 97.3857,181.675 96.5,182.5C 94.5061,180.006 92.3394,177.673 90,175.5C 89.8008,177.402 88.9675,178.902 87.5,180C 87.8333,180.333 88.1667,180.667 88.5,181C 85.1467,181.891 82.8134,180.725 81.5,177.5C 82.8214,175.668 83.8214,173.668 84.5,171.5C 86.1788,171.715 87.1788,171.048 87.5,169.5C 87.5,169.167 87.5,168.833 87.5,168.5C 87.6741,166.139 88.0074,163.806 88.5,161.5C 89.6572,158.727 90.3239,155.727 90.5,152.5C 90.5,152.167 90.5,151.833 90.5,151.5C 91.6873,149.928 92.6873,148.261 93.5,146.5C 94.2161,146.783 95.0494,147.116 96,147.5C 98.3016,145.203 100.635,142.203 103,138.5C 106.357,139.742 106.19,140.576 102.5,141C 103.428,141.388 104.095,142.055 104.5,143C 103.678,145.434 103.344,147.934 103.5,150.5 Z"/></g>
<g><path style="opacity:1" fill="#1b2327" d="M 174.5,157.5 C 175.833,157.5 177.167,157.5 178.5,157.5C 182.801,157.818 186.468,159.485 189.5,162.5C 189.738,164.404 190.738,165.738 192.5,166.5C 193.703,170.778 195.37,174.778 197.5,178.5C 198.562,180.099 198.562,181.766 197.5,183.5C 196.232,185.905 195.565,188.572 195.5,191.5C 195.068,192.71 194.401,193.71 193.5,194.5C 193.185,191.269 193.018,187.936 193,184.5C 191.625,186.376 190.458,188.376 189.5,190.5C 188.483,187.972 187.316,187.972 186,190.5C 185.583,189.244 184.75,188.577 183.5,188.5C 183.5,188.167 183.5,187.833 183.5,187.5C 184.059,185.321 184.726,183.154 185.5,181C 184.726,178.846 184.059,176.679 183.5,174.5C 183.167,172.167 181.833,170.833 179.5,170.5C 178.508,170.672 177.842,170.338 177.5,169.5C 175.562,167.837 173.228,167.171 170.5,167.5C 172.984,164.734 174.317,161.401 174.5,157.5 Z"/></g>
<g><path style="opacity:0.835" fill="#777c7f" d="M 275.5,159.5 C 277.624,167.983 277.958,176.65 276.5,185.5C 276.167,185.5 275.833,185.5 275.5,185.5C 275.5,177.5 275.5,169.5 275.5,161.5C 275.5,160.833 275.5,160.167 275.5,159.5 Z"/></g>
<g><path style="opacity:0.99" fill="#797e82" d="M 112.5,169.5 C 116.465,172.028 117.299,175.362 115,179.5C 114.329,180.252 113.496,180.586 112.5,180.5C 112.5,179.833 112.5,179.167 112.5,178.5C 112.81,177.262 113.31,177.262 114,178.5C 114.597,175.319 114.097,172.319 112.5,169.5 Z"/></g>
<g><path style="opacity:0.062" fill="#d4d7d7" d="M 88.5,185.5 C 87.4477,184.47 86.1143,183.803 84.5,183.5C 82.9704,183.64 81.9704,184.307 81.5,185.5C 80.596,184.791 80.2627,183.791 80.5,182.5C 83.1667,182.5 85.8333,182.5 88.5,182.5C 88.5,183.5 88.5,184.5 88.5,185.5 Z"/></g>
<g><path style="opacity:0.082" fill="#cfd2d4" d="M 264.5,182.5 C 264.802,185.059 264.468,187.393 263.5,189.5C 263.5,187.5 263.5,185.5 263.5,183.5C 261.712,183.215 260.045,183.548 258.5,184.5C 258.075,186.149 258.075,187.983 258.5,190C 257.956,190.717 257.289,191.217 256.5,191.5C 256.508,188.455 256.841,185.455 257.5,182.5C 259.833,182.5 262.167,182.5 264.5,182.5 Z"/></g>
<g><path style="opacity:0.769" fill="#757c7e" d="M 149.5,171.5 C 148.965,175.819 148.465,180.152 148,184.5C 147.184,185.823 146.017,186.489 144.5,186.5C 145.122,185.373 145.955,184.373 147,183.5C 147.076,179.204 147.909,175.204 149.5,171.5 Z"/></g>
<g><path style="opacity:0.988" fill="#7b7e81" d="M 161.5,175.5 C 159.891,180.842 160.558,185.842 163.5,190.5C 161.107,189.647 159.774,187.981 159.5,185.5C 159.335,182.482 159.502,179.482 160,176.5C 160.383,175.944 160.883,175.611 161.5,175.5 Z"/></g>
<g><path style="opacity:0.043" fill="#caccce" d="M 197.5,183.5 C 197.706,186.495 197.04,189.162 195.5,191.5C 195.565,188.572 196.232,185.905 197.5,183.5 Z"/></g>
<g><path style="opacity:0.196" fill="#dadee0" d="M 275.5,185.5 C 275.833,185.5 276.167,185.5 276.5,185.5C 277.471,186.962 277.138,188.295 275.5,189.5C 275.5,188.167 275.5,186.833 275.5,185.5 Z"/></g>
<g><path style="opacity:1" fill="#131b20" d="M 174.5,157.5 C 174.317,161.401 172.984,164.734 170.5,167.5C 169.29,167.932 168.29,168.599 167.5,169.5C 165.973,169.427 164.973,170.094 164.5,171.5C 163.5,171.5 162.5,171.5 161.5,171.5C 161.5,172.833 161.5,174.167 161.5,175.5C 160.883,175.611 160.383,175.944 160,176.5C 159.502,179.482 159.335,182.482 159.5,185.5C 157.88,186.841 156.88,188.674 156.5,191C 153.854,191.497 151.187,191.664 148.5,191.5C 148.701,194.728 148.367,197.895 147.5,201C 147.639,202.301 148.305,203.134 149.5,203.5C 149.5,205.5 149.5,207.5 149.5,209.5C 148.5,209.5 147.5,209.5 146.5,209.5C 146.5,210.833 146.5,212.167 146.5,213.5C 146.5,214.167 146.167,214.5 145.5,214.5C 143.719,211.716 142.053,211.883 140.5,215C 141.252,215.671 141.586,216.504 141.5,217.5C 140.5,218.167 139.5,218.833 138.5,219.5C 135.358,219.799 133.191,221.466 132,224.5C 132.01,221.849 130.843,219.515 128.5,217.5C 129.353,215.107 131.019,213.774 133.5,213.5C 133.33,212.178 133.663,211.011 134.5,210C 133.895,207.514 132.895,206.014 131.5,205.5C 131.637,203.893 132.304,202.559 133.5,201.5C 134.425,202.641 135.259,202.641 136,201.5C 136.626,203.991 137.459,203.991 138.5,201.5C 140.44,203.045 141.606,205.045 142,207.5C 142.333,207.167 142.667,206.833 143,206.5C 142.837,201.827 142.337,197.16 141.5,192.5C 143.696,192.435 145.696,191.768 147.5,190.5C 149.246,186.673 151.246,183.007 153.5,179.5C 154.281,180.729 154.781,182.062 155,183.5C 155.814,181.098 155.647,178.765 154.5,176.5C 153.011,176.467 151.678,175.967 150.5,175C 152.902,172.673 155.735,171.173 159,170.5C 159.14,168.479 159.307,166.645 159.5,165C 158.207,164.51 156.873,164.343 155.5,164.5C 155.833,163.833 156.167,163.167 156.5,162.5C 158.404,162.262 159.738,161.262 160.5,159.5C 165.062,158.204 169.729,157.538 174.5,157.5 Z"/></g>
<g><path style="opacity:0.722" fill="#838787" d="M 144.5,186.5 C 141.5,191.5 137.5,195.5 132.5,198.5C 136.167,194.167 140.167,190.167 144.5,186.5 Z"/></g>
<g><path style="opacity:0.145" fill="#bec3c7" d="M 275.5,189.5 C 275.749,193.458 275.082,197.124 273.5,200.5C 273.575,197.794 273.908,195.127 274.5,192.5C 274.263,191.209 274.596,190.209 275.5,189.5 Z"/></g>
<g><path style="opacity:0.749" fill="#8a8f92" d="M 100.5,189.5 C 101.612,191.599 102.279,193.933 102.5,196.5C 101.883,196.389 101.383,196.056 101,195.5C 100.505,193.527 100.338,191.527 100.5,189.5 Z"/></g>
<g><path style="opacity:0.682" fill="#9b9fa2" d="M 244.5,191.5 C 244.435,194.428 243.768,197.095 242.5,199.5C 242.294,196.505 242.96,193.838 244.5,191.5 Z"/></g>
<g><path style="opacity:0.086" fill="#d6dadb" d="M 256.5,191.5 C 257.452,193.112 257.786,194.612 257.5,196C 256.906,196.464 256.239,196.631 255.5,196.5C 255.216,194.585 255.549,192.919 256.5,191.5 Z"/></g>
<g><path style="opacity:0.008" fill="#cccece" d="M 193.5,194.5 C 193.573,196.027 192.906,197.027 191.5,197.5C 191.427,195.973 192.094,194.973 193.5,194.5 Z"/></g>
<g><path style="opacity:1" fill="#182024" d="M 193.5,194.5 C 192.094,194.973 191.427,195.973 191.5,197.5C 188.399,201.383 184.399,203.717 179.5,204.5C 174.821,204.666 170.155,204.499 165.5,204C 165.833,203.667 166.167,203.333 166.5,203C 164.238,202.299 163.238,201.132 163.5,199.5C 159.911,200.71 156.411,202.043 153,203.5C 151.624,200.875 150.458,200.875 149.5,203.5C 148.305,203.134 147.639,202.301 147.5,201C 148.367,197.895 148.701,194.728 148.5,191.5C 151.187,191.664 153.854,191.497 156.5,191C 156.88,188.674 157.88,186.841 159.5,185.5C 159.774,187.981 161.107,189.647 163.5,190.5C 165.062,190.733 166.395,191.4 167.5,192.5C 168.492,194.026 169.992,194.693 172,194.5C 174.221,194.607 176.054,193.94 177.5,192.5C 177.833,192.5 178.167,192.5 178.5,192.5C 180.749,191.92 182.415,190.587 183.5,188.5C 184.75,188.577 185.583,189.244 186,190.5C 187.316,187.972 188.483,187.972 189.5,190.5C 190.458,188.376 191.625,186.376 193,184.5C 193.018,187.936 193.185,191.269 193.5,194.5 Z"/></g>
<g><path style="opacity:0.522" fill="#90989a" d="M 167.5,192.5 C 170.814,193.707 174.148,193.707 177.5,192.5C 176.054,193.94 174.221,194.607 172,194.5C 169.992,194.693 168.492,194.026 167.5,192.5 Z"/></g>
<g><path style="opacity:0.588" fill="#929798" d="M 183.5,187.5 C 183.5,187.833 183.5,188.167 183.5,188.5C 182.415,190.587 180.749,191.92 178.5,192.5C 179.833,190.5 181.5,188.833 183.5,187.5 Z"/></g>
<g><path style="opacity:0.008" fill="#f3f4f4" d="M 255.5,197.5 C 256.686,198.961 256.686,200.295 255.5,201.5C 255.5,200.833 255.167,200.5 254.5,200.5C 254.263,199.209 254.596,198.209 255.5,197.5 Z"/></g>
<g><path style="opacity:1" fill="#494f52" d="M 179.5,204.5 C 172.363,207.251 165.363,206.584 158.5,202.5C 154.48,206.189 150.48,209.855 146.5,213.5C 146.5,212.167 146.5,210.833 146.5,209.5C 147.5,209.5 148.5,209.5 149.5,209.5C 149.5,207.5 149.5,205.5 149.5,203.5C 150.458,200.875 151.624,200.875 153,203.5C 156.411,202.043 159.911,200.71 163.5,199.5C 163.238,201.132 164.238,202.299 166.5,203C 166.167,203.333 165.833,203.667 165.5,204C 170.155,204.499 174.821,204.666 179.5,204.5 Z"/></g>
<g><path style="opacity:0.984" fill="#21292d" d="M 256.5,179.5 C 259.028,180.935 261.695,181.935 264.5,182.5C 262.167,182.5 259.833,182.5 257.5,182.5C 256.841,185.455 256.508,188.455 256.5,191.5C 255.549,192.919 255.216,194.585 255.5,196.5C 255.5,196.833 255.5,197.167 255.5,197.5C 254.596,198.209 254.263,199.209 254.5,200.5C 253.662,200.842 253.328,201.508 253.5,202.5C 252.566,203.568 252.232,204.901 252.5,206.5C 252.167,206.5 251.833,206.5 251.5,206.5C 251.242,202.947 249.575,200.28 246.5,198.5C 244.703,200.918 243.036,203.251 241.5,205.5C 242.341,203.621 242.675,201.621 242.5,199.5C 243.768,197.095 244.435,194.428 244.5,191.5C 244.508,188.455 244.841,185.455 245.5,182.5C 241.486,182.666 237.486,182.499 233.5,182C 231.937,181.241 230.937,180.074 230.5,178.5C 232.3,177.395 233.467,178.061 234,180.5C 234.667,177.833 235.333,177.833 236,180.5C 236.689,179.643 237.522,178.977 238.5,178.5C 241.614,180.062 244.447,179.729 247,177.5C 248.131,179.797 249.964,181.131 252.5,181.5C 254.355,181.66 255.688,180.993 256.5,179.5 Z"/></g>
<g><path style="opacity:0.855" fill="#888d8f" d="M 102.5,197.5 C 103.931,198.78 104.598,200.447 104.5,202.5C 102.787,201.365 102.12,199.698 102.5,197.5 Z"/></g>
<g><path style="opacity:0.827" fill="#909498" d="M 83.5,197.5 C 84.9459,200.254 85.9459,203.254 86.5,206.5C 84.1376,204.081 83.1376,201.081 83.5,197.5 Z"/></g>
<g><path style="opacity:0.014" fill="#eff0f1" d="M 254.5,200.5 C 255.167,200.5 255.5,200.833 255.5,201.5C 255.158,202.338 254.492,202.672 253.5,202.5C 253.328,201.508 253.662,200.842 254.5,200.5 Z"/></g>
<g><path style="opacity:0.969" fill="#606669" d="M 242.5,199.5 C 242.675,201.621 242.341,203.621 241.5,205.5C 240.833,205.833 240.167,206.167 239.5,206.5C 239.707,203.759 240.707,201.426 242.5,199.5 Z"/></g>
<g><path style="opacity:0.014" fill="#d6d9da" d="M 253.5,202.5 C 253.33,203.822 253.663,204.989 254.5,206C 253.906,206.464 253.239,206.631 252.5,206.5C 252.232,204.901 252.566,203.568 253.5,202.5 Z"/></g>
<g><path style="opacity:0.792" fill="#939699" d="M 260.5,203.5 C 260.634,205.292 260.301,206.958 259.5,208.5C 259.167,208.5 258.833,208.5 258.5,208.5C 258.402,206.447 259.069,204.78 260.5,203.5 Z"/></g>
<g><path style="opacity:0.024" fill="#d9dadd" d="M 273.5,200.5 C 273.59,203.152 272.924,205.485 271.5,207.5C 271.41,204.848 272.076,202.515 273.5,200.5 Z"/></g>
<g><path style="opacity:1" fill="#353d3e" d="M 129.5,201.5 C 128.797,203.716 127.464,205.549 125.5,207C 128.167,207.667 128.167,208.333 125.5,209C 127.929,209.451 128.096,210.285 126,211.5C 124.67,210.418 123.17,209.751 121.5,209.5C 123.833,206.5 126.5,203.833 129.5,201.5 Z"/></g>
<g><path style="opacity:0.01" fill="#f0f1f3" d="M 251.5,206.5 C 251.833,206.5 252.167,206.5 252.5,206.5C 254.031,207.925 253.698,208.591 251.5,208.5C 251.5,207.833 251.5,207.167 251.5,206.5 Z"/></g>
<g><path style="opacity:1" fill="#141c1f" d="M 154.5,164.5 C 154.833,164.5 155.167,164.5 155.5,164.5C 156.873,164.343 158.207,164.51 159.5,165C 159.307,166.645 159.14,168.479 159,170.5C 155.735,171.173 152.902,172.673 150.5,175C 151.678,175.967 153.011,176.467 154.5,176.5C 155.647,178.765 155.814,181.098 155,183.5C 154.781,182.062 154.281,180.729 153.5,179.5C 151.246,183.007 149.246,186.673 147.5,190.5C 145.696,191.768 143.696,192.435 141.5,192.5C 142.337,197.16 142.837,201.827 143,206.5C 142.667,206.833 142.333,207.167 142,207.5C 141.606,205.045 140.44,203.045 138.5,201.5C 137.459,203.991 136.626,203.991 136,201.5C 135.259,202.641 134.425,202.641 133.5,201.5C 132.304,202.559 131.637,203.893 131.5,205.5C 132.895,206.014 133.895,207.514 134.5,210C 133.663,211.011 133.33,212.178 133.5,213.5C 131.019,213.774 129.353,215.107 128.5,217.5C 122.45,221.248 116.116,223.248 109.5,223.5C 110.341,221.621 110.675,219.621 110.5,217.5C 113.299,218.233 115.632,219.4 117.5,221C 118.925,219.286 118.592,217.953 116.5,217C 117.582,215.67 118.249,214.17 118.5,212.5C 119.167,211.167 120.167,210.167 121.5,209.5C 123.17,209.751 124.67,210.418 126,211.5C 128.096,210.285 127.929,209.451 125.5,209C 128.167,208.333 128.167,207.667 125.5,207C 127.464,205.549 128.797,203.716 129.5,201.5C 130.167,200.167 131.167,199.167 132.5,198.5C 137.5,195.5 141.5,191.5 144.5,186.5C 146.017,186.489 147.184,185.823 148,184.5C 148.465,180.152 148.965,175.819 149.5,171.5C 149.328,170.508 149.662,169.842 150.5,169.5C 151.906,169.027 152.573,168.027 152.5,166.5C 153.5,166.167 154.167,165.5 154.5,164.5 Z"/></g>
<g><path style="opacity:0.847" fill="#969899" d="M 86.5,206.5 C 87.7384,208.214 88.405,210.214 88.5,212.5C 86.7202,211.01 86.0535,209.01 86.5,206.5 Z"/></g>
<g><path style="opacity:0.98" fill="#62696d" d="M 74.5,208.5 C 75.8123,209.812 77.1457,211.146 78.5,212.5C 77.7542,213.736 77.4208,215.07 77.5,216.5C 76.3376,214.014 75.0042,211.514 73.5,209C 73.7284,208.601 74.0618,208.435 74.5,208.5 Z"/></g>
<g><path style="opacity:0.996" fill="#4f5458" d="M 145.5,214.5 C 144.833,215.833 143.833,216.833 142.5,217.5C 142.167,217.5 141.833,217.5 141.5,217.5C 141.586,216.504 141.252,215.671 140.5,215C 142.053,211.883 143.719,211.716 145.5,214.5 Z"/></g>
<g><path style="opacity:1" fill="#4f5759" d="M 239.5,206.5 C 239.579,209.271 239.079,211.937 238,214.5C 237.23,213.402 236.397,213.402 235.5,214.5C 236.326,211.515 237.659,208.849 239.5,206.5 Z"/></g>
<g><path style="opacity:0.008" fill="#f2f4f5" d="M 250.5,211.5 C 252.031,212.925 251.698,213.591 249.5,213.5C 249.328,212.508 249.662,211.842 250.5,211.5 Z"/></g>
<g><path style="opacity:0.341" fill="#adb3b5" d="M 270.5,210.5 C 270.598,212.553 269.931,214.22 268.5,215.5C 268.402,213.447 269.069,211.78 270.5,210.5 Z"/></g>
<g><path style="opacity:0.388" fill="#a1a4a6" d="M 109.5,213.5 C 110.906,213.973 111.573,214.973 111.5,216.5C 110.094,216.027 109.427,215.027 109.5,213.5 Z"/></g>
<g><path style="opacity:0.22" fill="#cdcdd0" d="M 249.5,213.5 C 248.829,214.847 248.829,216.014 249.5,217C 248.906,217.464 248.239,217.631 247.5,217.5C 247.229,215.62 247.896,214.287 249.5,213.5 Z"/></g>
<g><path style="opacity:0.443" fill="#999da0" d="M 235.5,214.5 C 235.573,216.027 234.906,217.027 233.5,217.5C 233.427,215.973 234.094,214.973 235.5,214.5 Z"/></g>
<g><path style="opacity:0.227" fill="#a9abad" d="M 256.5,214.5 C 256.34,216.153 255.674,217.486 254.5,218.5C 254.229,216.62 254.896,215.287 256.5,214.5 Z"/></g>
<g><path style="opacity:1" fill="#131c21" d="M 128.5,217.5 C 130.843,219.515 132.01,221.849 132,224.5C 133.191,221.466 135.358,219.799 138.5,219.5C 138.167,220.167 137.833,220.833 137.5,221.5C 136.5,221.833 135.833,222.5 135.5,223.5C 134.5,223.833 133.833,224.5 133.5,225.5C 132.167,226.167 131.167,227.167 130.5,228.5C 128.495,229.039 126.495,229.705 124.5,230.5C 124.815,232.483 125.815,233.816 127.5,234.5C 128.167,234.5 128.5,234.833 128.5,235.5C 128.281,236.675 128.614,237.675 129.5,238.5C 131.409,239.348 133.409,239.682 135.5,239.5C 138.968,243.068 139.134,246.735 136,250.5C 134.667,250.5 133.333,250.5 132,250.5C 131.405,249.101 131.572,247.768 132.5,246.5C 127.63,243.652 123.13,240.986 119,238.5C 117.933,239.191 116.766,239.691 115.5,240C 116.252,240.671 116.586,241.504 116.5,242.5C 115.833,243.5 115.167,244.5 114.5,245.5C 113.229,243.891 112.229,242.058 111.5,240C 109.423,239.808 107.423,239.308 105.5,238.5C 107.802,233.646 109.135,228.646 109.5,223.5C 116.116,223.248 122.45,221.248 128.5,217.5 Z"/></g>
<g><path style="opacity:1" fill="#192126" d="M 274.5,192.5 C 273.908,195.127 273.575,197.794 273.5,200.5C 272.076,202.515 271.41,204.848 271.5,207.5C 271.737,208.791 271.404,209.791 270.5,210.5C 269.069,211.78 268.402,213.447 268.5,215.5C 267.069,216.78 266.402,218.447 266.5,220.5C 266.34,222.153 265.674,223.486 264.5,224.5C 262.241,225.344 261.241,227.011 261.5,229.5C 261.672,230.492 261.338,231.158 260.5,231.5C 259.209,231.263 258.209,231.596 257.5,232.5C 255.337,231.719 255.004,232.553 256.5,235C 253.795,234.998 251.795,233.665 250.5,231C 251.167,230.667 251.833,230.333 252.5,230C 248.728,228.611 248.728,227.611 252.5,227C 251.944,226.617 251.611,226.117 251.5,225.5C 251.5,224.833 251.5,224.167 251.5,223.5C 253.408,222.514 254.408,220.848 254.5,218.5C 255.674,217.486 256.34,216.153 256.5,214.5C 256.604,212.297 257.27,210.297 258.5,208.5C 258.833,208.5 259.167,208.5 259.5,208.5C 261.391,207.464 263.224,207.464 265,208.5C 265.249,205.254 266.083,201.921 267.5,198.5C 269.194,196.806 270.86,195.14 272.5,193.5C 271.855,192.354 271.022,191.354 270,190.5C 269.163,184.163 268.497,184.497 268,191.5C 267.231,188.901 267.398,186.401 268.5,184C 267.833,183.667 267.167,183.333 266.5,183C 268.878,182.026 268.544,181.359 265.5,181C 267.286,180.215 268.786,179.049 270,177.5C 271,178.167 272,178.833 273,179.5C 273.76,183.225 273.593,186.892 272.5,190.5C 272.855,191.522 273.522,192.189 274.5,192.5 Z"/></g>
<g><path style="opacity:0.286" fill="#b7bdbe" d="M 268.5,215.5 C 268.598,217.553 267.931,219.22 266.5,220.5C 266.402,218.447 267.069,216.78 268.5,215.5 Z"/></g>
<g><path style="opacity:0.29" fill="#adb2b4" d="M 90.5,217.5 C 91.9063,217.973 92.573,218.973 92.5,220.5C 91.0937,220.027 90.427,219.027 90.5,217.5 Z"/></g>
<g><path style="opacity:0.039" fill="#c5cccc" d="M 141.5,217.5 C 141.833,217.5 142.167,217.5 142.5,217.5C 141.415,219.587 139.749,220.92 137.5,221.5C 137.833,220.833 138.167,220.167 138.5,219.5C 139.5,218.833 140.5,218.167 141.5,217.5 Z"/></g>
<g><path style="opacity:0.6" fill="#909393" d="M 233.5,217.5 C 233.262,219.404 232.262,220.738 230.5,221.5C 230.738,219.596 231.738,218.262 233.5,217.5 Z"/></g>
<g><path style="opacity:0.005" fill="#eaeced" d="M 246.5,218.5 C 247.866,221.425 246.866,223.091 243.5,223.5C 244.263,221.632 245.263,219.965 246.5,218.5 Z"/></g>
<g><path style="opacity:0.251" fill="#b6babd" d="M 78.5,218.5 C 79.9313,219.78 80.5979,221.447 80.5,223.5C 79.0687,222.22 78.4021,220.553 78.5,218.5 Z"/></g>
<g><path style="opacity:0.651" fill="#a7aaad" d="M 99.5,219.5 C 99.8333,219.5 100.167,219.5 100.5,219.5C 100.608,221.514 99.9418,223.18 98.5,224.5C 95.8367,226.17 94.17,225.503 93.5,222.5C 96.4897,224.635 98.4897,223.635 99.5,219.5 Z"/></g>
<g><path style="opacity:1" fill="#141d21" d="M 110.5,217.5 C 110.675,219.621 110.341,221.621 109.5,223.5C 109.135,228.646 107.802,233.646 105.5,238.5C 107.423,239.308 109.423,239.808 111.5,240C 112.229,242.058 113.229,243.891 114.5,245.5C 114.5,246.167 114.5,246.833 114.5,247.5C 114.833,248.5 115.5,249.167 116.5,249.5C 118.027,249.427 119.027,250.094 119.5,251.5C 119.201,252.76 119.201,253.927 119.5,255C 121.234,257.057 123.234,257.557 125.5,256.5C 126.386,257.325 126.719,258.325 126.5,259.5C 124.425,259.302 122.425,259.135 120.5,259C 121.328,259.915 122.328,260.581 123.5,261C 122.264,262.388 120.931,263.554 119.5,264.5C 118.609,263.89 117.609,263.557 116.5,263.5C 116.027,262.094 115.027,261.427 113.5,261.5C 112.738,259.738 111.404,258.738 109.5,258.5C 108.089,256.086 106.089,254.419 103.5,253.5C 101.833,252.5 100.5,251.167 99.5,249.5C 99.1667,248.5 98.5,247.833 97.5,247.5C 95.4131,246.415 94.0798,244.749 93.5,242.5C 93.1436,240.81 92.1436,239.81 90.5,239.5C 90.5,238.833 90.5,238.167 90.5,237.5C 90.0885,234.171 90.5885,230.838 92,227.5C 93.3876,226.446 94.8876,226.28 96.5,227C 95.8333,227.333 95.1667,227.667 94.5,228C 95.8491,228.772 96.6824,229.939 97,231.5C 97.5101,229.455 98.3434,227.621 99.5,226C 98.944,225.617 98.6107,225.117 98.5,224.5C 99.9418,223.18 100.608,221.514 100.5,219.5C 100.714,215.987 102.047,215.153 104.5,217C 103.692,217.308 103.025,217.808 102.5,218.5C 103.504,221.499 105.504,222.666 108.5,222C 105.126,219.803 104.626,216.969 107,213.5C 107.949,215.093 109.115,216.426 110.5,217.5 Z"/></g>
<g><path style="opacity:0.035" fill="#b1b4b6" d="M 137.5,221.5 C 137.5,222.833 136.833,223.5 135.5,223.5C 135.833,222.5 136.5,221.833 137.5,221.5 Z"/></g>
<g><path style="opacity:0.953" fill="#797c7e" d="M 254.5,218.5 C 254.408,220.848 253.408,222.514 251.5,223.5C 251.75,221.326 252.75,219.659 254.5,218.5 Z"/></g>
<g><path style="opacity:0.035" fill="#b2c2c3" d="M 135.5,223.5 C 135.5,224.833 134.833,225.5 133.5,225.5C 133.833,224.5 134.5,223.833 135.5,223.5 Z"/></g>
<g><path style="opacity:0.035" fill="#bdbfc0" d="M 243.5,223.5 C 243.573,225.027 242.906,226.027 241.5,226.5C 241.427,224.973 242.094,223.973 243.5,223.5 Z"/></g>
<g><path style="opacity:1" fill="#171f23" d="M 251.5,206.5 C 251.5,207.167 251.5,207.833 251.5,208.5C 251.737,209.791 251.404,210.791 250.5,211.5C 249.662,211.842 249.328,212.508 249.5,213.5C 247.896,214.287 247.229,215.62 247.5,217.5C 247.5,218.167 247.167,218.5 246.5,218.5C 245.263,219.965 244.263,221.632 243.5,223.5C 242.094,223.973 241.427,224.973 241.5,226.5C 239.937,227.945 238.604,229.611 237.5,231.5C 234.792,233.266 232.792,235.599 231.5,238.5C 229.77,239.026 228.436,240.026 227.5,241.5C 227.5,241.833 227.5,242.167 227.5,242.5C 227.167,242.5 226.833,242.5 226.5,242.5C 224.77,243.026 223.436,244.026 222.5,245.5C 221.564,246.974 220.23,247.974 218.5,248.5C 217.508,248.328 216.842,248.662 216.5,249.5C 214.326,249.75 212.659,250.75 211.5,252.5C 209.447,252.402 207.78,253.069 206.5,254.5C 205.508,254.328 204.842,254.662 204.5,255.5C 203.209,255.263 202.209,255.596 201.5,256.5C 197.884,256.899 194.55,257.899 191.5,259.5C 187.64,259.808 183.974,260.475 180.5,261.5C 179.5,261.5 178.5,261.5 177.5,261.5C 173.833,261.5 170.167,261.5 166.5,261.5C 164.833,261.5 163.167,261.5 161.5,261.5C 158.781,260.087 155.781,259.42 152.5,259.5C 152.5,258.833 152.167,258.5 151.5,258.5C 153.803,257.769 156.136,257.436 158.5,257.5C 157.975,256.808 157.308,256.308 156.5,256C 157.863,253.871 157.529,253.371 155.5,254.5C 154.304,254.154 154.304,253.654 155.5,253C 154.5,252.667 153.5,252.333 152.5,252C 154.568,251.313 156.568,251.48 158.5,252.5C 159.696,252.154 159.696,251.654 158.5,251C 166.344,250.829 174.011,250.329 181.5,249.5C 183.806,249.007 186.139,248.674 188.5,248.5C 191.01,248.946 193.01,248.28 194.5,246.5C 199.162,244.503 203.829,242.503 208.5,240.5C 210.964,241.515 212.63,240.515 213.5,237.5C 215.027,237.573 216.027,236.906 216.5,235.5C 222.167,231.833 226.833,227.167 230.5,221.5C 232.262,220.738 233.262,219.404 233.5,217.5C 234.906,217.027 235.573,216.027 235.5,214.5C 236.397,213.402 237.23,213.402 238,214.5C 239.079,211.937 239.579,209.271 239.5,206.5C 240.167,206.167 240.833,205.833 241.5,205.5C 243.036,203.251 244.703,200.918 246.5,198.5C 249.575,200.28 251.242,202.947 251.5,206.5 Z"/></g>
<g><path style="opacity:0.2" fill="#c2c6c9" d="M 251.5,223.5 C 251.5,224.167 251.5,224.833 251.5,225.5C 250.833,225.833 250.167,226.167 249.5,226.5C 249.427,224.973 250.094,223.973 251.5,223.5 Z"/></g>
<g><path style="opacity:0.914" fill="#7f8284" d="M 264.5,224.5 C 264.25,226.674 263.25,228.341 261.5,229.5C 261.241,227.011 262.241,225.344 264.5,224.5 Z"/></g>
<g><path style="opacity:0.016" fill="#d4d6d7" d="M 133.5,225.5 C 133.5,227.5 132.5,228.5 130.5,228.5C 131.167,227.167 132.167,226.167 133.5,225.5 Z"/></g>
<g><path style="opacity:0.007" fill="#edeeef" d="M 241.5,226.5 C 242.489,229.249 241.489,231.249 238.5,232.5C 238.5,231.833 238.167,231.5 237.5,231.5C 238.604,229.611 239.937,227.945 241.5,226.5 Z"/></g>
<g><path style="opacity:0.443" fill="#9da1a1" d="M 230.5,221.5 C 226.833,227.167 222.167,231.833 216.5,235.5C 220.833,230.5 225.5,225.833 230.5,221.5 Z"/></g>
<g><path style="opacity:1" fill="#50575b" d="M 130.5,228.5 C 129.525,230.193 128.192,231.693 126.5,233C 127.056,233.383 127.389,233.883 127.5,234.5C 125.815,233.816 124.815,232.483 124.5,230.5C 126.495,229.705 128.495,229.039 130.5,228.5 Z"/></g>
<g><path style="opacity:0.541" fill="#acb4b5" d="M 248.5,228.5 C 247.92,230.749 246.587,232.415 244.5,233.5C 245.08,231.251 246.413,229.585 248.5,228.5 Z"/></g>
<g><path style="opacity:1" fill="#717576" d="M 260.5,231.5 C 259.89,233.434 258.89,235.101 257.5,236.5C 257.5,235.167 257.5,233.833 257.5,232.5C 258.209,231.596 259.209,231.263 260.5,231.5 Z"/></g>
<g><path style="opacity:0.855" fill="#888e90" d="M 85.5,232.5 C 87.0481,232.821 87.7148,233.821 87.5,235.5C 86.5987,234.71 85.9321,233.71 85.5,232.5 Z"/></g>
<g><path style="opacity:0.01" fill="#e6e8e8" d="M 237.5,231.5 C 238.167,231.5 238.5,231.833 238.5,232.5C 237.026,235.249 235.026,237.582 232.5,239.5C 232.5,238.833 232.167,238.5 231.5,238.5C 232.792,235.599 234.792,233.266 237.5,231.5 Z"/></g>
<g><path style="opacity:0.875" fill="#929597" d="M 87.5,235.5 C 88.7777,235.782 89.7777,236.449 90.5,237.5C 90.5,238.167 90.5,238.833 90.5,239.5C 89.0256,238.564 88.0256,237.23 87.5,235.5 Z"/></g>
<g><path style="opacity:0.686" fill="#8c9192" d="M 216.5,235.5 C 216.027,236.906 215.027,237.573 213.5,237.5C 213.973,236.094 214.973,235.427 216.5,235.5 Z"/></g>
<g><path style="opacity:0.475" fill="#acaeb1" d="M 244.5,233.5 C 243.92,235.749 242.587,237.415 240.5,238.5C 241.08,236.251 242.413,234.585 244.5,233.5 Z"/></g>
<g><path style="opacity:0.985" fill="#585d5e" d="M 128.5,235.5 C 131.004,236.584 133.337,237.917 135.5,239.5C 133.409,239.682 131.409,239.348 129.5,238.5C 128.614,237.675 128.281,236.675 128.5,235.5 Z"/></g>
<g><path style="opacity:0.009" fill="#eff1f1" d="M 231.5,238.5 C 232.167,238.5 232.5,238.833 232.5,239.5C 230.142,243.661 226.809,245.661 222.5,245.5C 223.436,244.026 224.77,243.026 226.5,242.5C 226.833,243.833 227.167,243.833 227.5,242.5C 228.833,242.167 228.833,241.833 227.5,241.5C 228.436,240.026 229.77,239.026 231.5,238.5 Z"/></g>
<g><path style="opacity:0.02" fill="#e3e5e5" d="M 257.5,236.5 C 257.262,238.404 256.262,239.738 254.5,240.5C 254.738,238.596 255.738,237.262 257.5,236.5 Z"/></g>
<g><path style="opacity:0.957" fill="#616467" d="M 213.5,237.5 C 212.63,240.515 210.964,241.515 208.5,240.5C 209.899,239.11 211.566,238.11 213.5,237.5 Z"/></g>
<g><path style="opacity:0.388" fill="#a0a4a4" d="M 90.5,239.5 C 92.1436,239.81 93.1436,240.81 93.5,242.5C 91.8564,242.19 90.8564,241.19 90.5,239.5 Z"/></g>
<g><path style="opacity:0.006" fill="#f1f2f2" d="M 116.5,242.5 C 116.833,242.5 117.167,242.5 117.5,242.5C 117.804,243.15 118.137,243.817 118.5,244.5C 117.05,245.85 116.383,247.516 116.5,249.5C 115.5,249.167 114.833,248.5 114.5,247.5C 115.833,246.833 115.833,246.167 114.5,245.5C 115.167,244.5 115.833,243.5 116.5,242.5 Z"/></g>
<g><path style="opacity:0.012" fill="#d6d9da" d="M 252.5,242.5 C 252.573,244.027 251.906,245.027 250.5,245.5C 250.427,243.973 251.094,242.973 252.5,242.5 Z"/></g>
<g><path style="opacity:0.494" fill="#a2a8a9" d="M 121.5,244.5 C 123.404,244.738 124.738,245.738 125.5,247.5C 123.596,247.262 122.262,246.262 121.5,244.5 Z"/></g>
<g><path style="opacity:0.999" fill="#2c3438" d="M 135.5,239.5 C 149.763,247.584 165.097,250.917 181.5,249.5C 174.011,250.329 166.344,250.829 158.5,251C 159.696,251.654 159.696,252.154 158.5,252.5C 156.568,251.48 154.568,251.313 152.5,252C 153.5,252.333 154.5,252.667 155.5,253C 154.304,253.654 154.304,254.154 155.5,254.5C 157.529,253.371 157.863,253.871 156.5,256C 157.308,256.308 157.975,256.808 158.5,257.5C 156.136,257.436 153.803,257.769 151.5,258.5C 149.621,257.659 147.621,257.325 145.5,257.5C 145.158,256.662 144.492,256.328 143.5,256.5C 142.365,254.787 140.698,254.12 138.5,254.5C 137.209,254.737 136.209,254.404 135.5,253.5C 135.027,252.094 134.027,251.427 132.5,251.5C 130.847,251.34 129.514,250.674 128.5,249.5C 128.027,248.094 127.027,247.427 125.5,247.5C 124.738,245.738 123.404,244.738 121.5,244.5C 120.167,243.833 118.833,243.167 117.5,242.5C 117.167,242.5 116.833,242.5 116.5,242.5C 116.586,241.504 116.252,240.671 115.5,240C 116.766,239.691 117.933,239.191 119,238.5C 123.13,240.986 127.63,243.652 132.5,246.5C 131.572,247.768 131.405,249.101 132,250.5C 133.333,250.5 134.667,250.5 136,250.5C 139.134,246.735 138.968,243.068 135.5,239.5 Z"/></g>
<g><path style="opacity:0.886" fill="#888c8e" d="M 194.5,246.5 C 193.01,248.28 191.01,248.946 188.5,248.5C 190.302,247.542 192.302,246.875 194.5,246.5 Z"/></g>
<g><path style="opacity:0.533" fill="#a4a9ab" d="M 234.5,244.5 C 233.089,246.914 231.089,248.581 228.5,249.5C 229.911,247.086 231.911,245.419 234.5,244.5 Z"/></g>
<g><path style="opacity:1" fill="#192125" d="M 251.5,225.5 C 251.611,226.117 251.944,226.617 252.5,227C 248.728,227.611 248.728,228.611 252.5,230C 251.833,230.333 251.167,230.667 250.5,231C 251.795,233.665 253.795,234.998 256.5,235C 255.004,232.553 255.337,231.719 257.5,232.5C 257.5,233.833 257.5,235.167 257.5,236.5C 255.738,237.262 254.738,238.596 254.5,240.5C 254.167,241.5 253.5,242.167 252.5,242.5C 251.094,242.973 250.427,243.973 250.5,245.5C 249.5,247.167 248.167,248.5 246.5,249.5C 242.24,248.732 239.906,250.732 239.5,255.5C 239.167,256.5 238.5,257.167 237.5,257.5C 235.973,257.427 234.973,258.094 234.5,259.5C 234.027,260.906 233.027,261.573 231.5,261.5C 230.167,261.5 228.833,261.5 227.5,261.5C 228.203,259.284 229.536,257.451 231.5,256C 229.699,255.683 229.366,255.016 230.5,254C 229.255,253.209 227.922,252.709 226.5,252.5C 227.167,251.5 227.833,250.5 228.5,249.5C 231.089,248.581 233.089,246.914 234.5,244.5C 236.167,242.167 238.167,240.167 240.5,238.5C 242.587,237.415 243.92,235.749 244.5,233.5C 246.587,232.415 247.92,230.749 248.5,228.5C 248.328,227.508 248.662,226.842 249.5,226.5C 250.167,226.167 250.833,225.833 251.5,225.5 Z"/></g>
<g><path style="opacity:0.004" fill="#d5d8d9" d="M 97.5,247.5 C 98.5,247.833 99.1667,248.5 99.5,249.5C 98.1667,249.5 97.5,248.833 97.5,247.5 Z"/></g>
<g><path style="opacity:0.22" fill="#bfc5c6" d="M 125.5,247.5 C 127.027,247.427 128.027,248.094 128.5,249.5C 126.973,249.573 125.973,248.906 125.5,247.5 Z"/></g>
<g><path style="opacity:0.006" fill="#f6f6f6" d="M 216.5,249.5 C 216.842,248.662 217.508,248.328 218.5,248.5C 219.853,249.867 219.519,250.867 217.5,251.5C 216.893,251.376 216.56,251.043 216.5,250.5C 217.833,250.167 217.833,249.833 216.5,249.5 Z"/></g>
<g><path style="opacity:0.007" fill="#eaebec" d="M 216.5,249.5 C 216.5,249.833 216.5,250.167 216.5,250.5C 215.543,253.15 213.876,253.817 211.5,252.5C 212.659,250.75 214.326,249.75 216.5,249.5 Z"/></g>
<g><path style="opacity:0.514" fill="#9da0a4" d="M 228.5,249.5 C 227.833,250.5 227.167,251.5 226.5,252.5C 225.833,252.5 225.167,252.5 224.5,252.5C 225.262,250.738 226.596,249.738 228.5,249.5 Z"/></g>
<g><path style="opacity:0.973" fill="#585e61" d="M 246.5,249.5 C 244.761,252.243 242.427,254.243 239.5,255.5C 239.906,250.732 242.24,248.732 246.5,249.5 Z"/></g>
<g><path style="opacity:0.212" fill="#c2c6c6" d="M 132.5,251.5 C 134.027,251.427 135.027,252.094 135.5,253.5C 133.973,253.573 132.973,252.906 132.5,251.5 Z"/></g>
<g><path style="opacity:0.009" fill="#e4e6e7" d="M 211.5,252.5 C 210.892,255.634 209.226,256.301 206.5,254.5C 207.78,253.069 209.447,252.402 211.5,252.5 Z"/></g>
<g><path style="opacity:0.749" fill="#85888a" d="M 224.5,252.5 C 224.027,253.906 223.027,254.573 221.5,254.5C 221.973,253.094 222.973,252.427 224.5,252.5 Z"/></g>
<g><path style="opacity:0.925" fill="#6b7176" d="M 138.5,254.5 C 140.698,254.12 142.365,254.787 143.5,256.5C 141.447,256.598 139.78,255.931 138.5,254.5 Z"/></g>
<g><path style="opacity:0.009" fill="#e7e8e9" d="M 206.5,254.5 C 207.605,256.3 206.939,257.467 204.5,258C 201.813,259.195 199.146,259.362 196.5,258.5C 195.476,259.853 194.143,260.52 192.5,260.5C 192.5,259.833 192.167,259.5 191.5,259.5C 194.55,257.899 197.884,256.899 201.5,256.5C 202.209,255.596 203.209,255.263 204.5,255.5C 204.842,254.662 205.508,254.328 206.5,254.5 Z"/></g>
<g><path style="opacity:0.427" fill="#a6aaab" d="M 103.5,253.5 C 106.089,254.419 108.089,256.086 109.5,258.5C 106.911,257.581 104.911,255.914 103.5,253.5 Z"/></g>
<g><path style="opacity:0.212" fill="#b7bbbe" d="M 127.5,256.5 C 129.027,256.427 130.027,257.094 130.5,258.5C 128.973,258.573 127.973,257.906 127.5,256.5 Z"/></g>
<g><path style="opacity:0.008" fill="#ecf1f1" d="M 143.5,256.5 C 144.492,256.328 145.158,256.662 145.5,257.5C 144.262,258.412 142.928,258.579 141.5,258C 142.416,257.722 143.082,257.222 143.5,256.5 Z"/></g>
<g><path style="opacity:0.576" fill="#aaadb1" d="M 217.5,256.5 C 217.027,257.906 216.027,258.573 214.5,258.5C 214.973,257.094 215.973,256.427 217.5,256.5 Z"/></g>
<g><path style="opacity:0.698" fill="#a3a6a7" d="M 109.5,258.5 C 111.404,258.738 112.738,259.738 113.5,261.5C 111.596,261.262 110.262,260.262 109.5,258.5 Z"/></g>
<g><path style="opacity:0.039" fill="#c1cacb" d="M 145.5,257.5 C 147.621,257.325 149.621,257.659 151.5,258.5C 152.167,258.5 152.5,258.833 152.5,259.5C 151.883,259.611 151.383,259.944 151,260.5C 149.124,259.391 147.291,258.391 145.5,257.5 Z"/></g>
<g><path style="opacity:0.02" fill="#dadcdd" d="M 237.5,257.5 C 237.027,258.906 236.027,259.573 234.5,259.5C 234.973,258.094 235.973,257.427 237.5,257.5 Z"/></g>
<g><path style="opacity:1" fill="#707577" d="M 130.5,258.5 C 132.403,258.796 134.07,259.463 135.5,260.5C 134.178,260.33 133.011,260.663 132,261.5C 131.487,260.473 130.987,259.473 130.5,258.5 Z"/></g>
<g><path style="opacity:0.173" fill="#c5c8ca" d="M 152.5,259.5 C 155.781,259.42 158.781,260.087 161.5,261.5C 158.219,261.58 155.219,260.913 152.5,259.5 Z"/></g>
<g><path style="opacity:0.02" fill="#dcdee0" d="M 191.5,259.5 C 192.167,259.5 192.5,259.833 192.5,260.5C 190.151,260.12 187.817,260.787 185.5,262.5C 183.865,261.954 182.199,261.62 180.5,261.5C 183.974,260.475 187.64,259.808 191.5,259.5 Z"/></g>
<g><path style="opacity:0.627" fill="#9da2a4" d="M 212.5,259.5 C 211.486,260.674 210.153,261.34 208.5,261.5C 209.287,259.896 210.62,259.229 212.5,259.5 Z"/></g>
<g><path style="opacity:1" fill="#1a2227" d="M 224.5,252.5 C 225.167,252.5 225.833,252.5 226.5,252.5C 227.922,252.709 229.255,253.209 230.5,254C 229.366,255.016 229.699,255.683 231.5,256C 229.536,257.451 228.203,259.284 227.5,261.5C 226.761,261.369 226.094,261.536 225.5,262C 226.684,263.145 226.684,264.312 225.5,265.5C 223.664,267.588 221.331,268.921 218.5,269.5C 216.62,269.229 215.287,269.896 214.5,271.5C 212.447,271.402 210.78,272.069 209.5,273.5C 208.791,274.404 207.791,274.737 206.5,274.5C 205.209,274.263 204.209,274.596 203.5,275.5C 202.791,276.404 201.791,276.737 200.5,276.5C 198.097,276.448 195.764,276.781 193.5,277.5C 194.184,275.815 195.517,274.815 197.5,274.5C 199.198,275.681 200.865,275.681 202.5,274.5C 203.641,273.575 203.641,272.741 202.5,272C 205.7,271.899 208.7,271.232 211.5,270C 208.427,270.438 205.427,269.771 202.5,268C 203.684,266.855 203.684,265.688 202.5,264.5C 202.5,264.167 202.5,263.833 202.5,263.5C 204.698,263.88 206.365,263.213 207.5,261.5C 207.833,261.5 208.167,261.5 208.5,261.5C 210.153,261.34 211.486,260.674 212.5,259.5C 212.842,258.662 213.508,258.328 214.5,258.5C 216.027,258.573 217.027,257.906 217.5,256.5C 218.514,255.326 219.847,254.66 221.5,254.5C 223.027,254.573 224.027,253.906 224.5,252.5 Z"/></g>
<g><path style="opacity:0.978" fill="#586063" d="M 227.5,261.5 C 228.833,261.5 230.167,261.5 231.5,261.5C 229.853,263.326 227.853,264.66 225.5,265.5C 226.684,264.312 226.684,263.145 225.5,262C 226.094,261.536 226.761,261.369 227.5,261.5 Z"/></g>
<g><path style="opacity:0.271" fill="#b9bbbf" d="M 113.5,261.5 C 115.027,261.427 116.027,262.094 116.5,263.5C 114.973,263.573 113.973,262.906 113.5,261.5 Z"/></g>
<g><path style="opacity:0.259" fill="#bdc7c7" d="M 137.5,261.5 C 139.553,261.402 141.22,262.069 142.5,263.5C 140.447,263.598 138.78,262.931 137.5,261.5 Z"/></g>
<g><path style="opacity:0.005" fill="#f9fbfb" d="M 166.5,261.5 C 170.167,261.5 173.833,261.5 177.5,261.5C 178.952,262.302 180.618,262.802 182.5,263C 181.5,263.167 180.5,263.333 179.5,263.5C 174.833,263.5 170.167,263.5 165.5,263.5C 164.5,263.333 163.5,263.167 162.5,263C 164.058,262.79 165.391,262.29 166.5,261.5 Z"/></g>
<g><path style="opacity:0.761" fill="#92969b" d="M 207.5,261.5 C 206.365,263.213 204.698,263.88 202.5,263.5C 203.93,262.463 205.597,261.796 207.5,261.5 Z"/></g>
<g><path style="opacity:0.208" fill="#c8cbce" d="M 116.5,263.5 C 117.609,263.557 118.609,263.89 119.5,264.5C 119.5,264.833 119.5,265.167 119.5,265.5C 117.973,265.573 116.973,264.906 116.5,263.5 Z"/></g>
<g><path style="opacity:0.639" fill="#8d9194" d="M 202.5,263.5 C 202.5,263.833 202.5,264.167 202.5,264.5C 199.598,265.578 196.598,266.244 193.5,266.5C 196.215,264.928 199.215,263.928 202.5,263.5 Z"/></g>
<g><path style="opacity:1" fill="#21282c" d="M 119.5,251.5 C 122.203,253.181 124.869,254.847 127.5,256.5C 127.973,257.906 128.973,258.573 130.5,258.5C 130.987,259.473 131.487,260.473 132,261.5C 133.011,260.663 134.178,260.33 135.5,260.5C 136.492,260.328 137.158,260.662 137.5,261.5C 138.78,262.931 140.447,263.598 142.5,263.5C 145.785,263.928 148.785,264.928 151.5,266.5C 149.61,266.297 148.11,266.963 147,268.5C 143.857,266.828 141.357,267.494 139.5,270.5C 142.54,271.375 145.54,272.375 148.5,273.5C 149.711,274.274 149.711,275.107 148.5,276C 150.035,276.496 151.535,276.33 153,275.5C 154.225,275.862 155.391,276.362 156.5,277C 155.584,277.278 154.918,277.778 154.5,278.5C 153.833,278.5 153.167,278.5 152.5,278.5C 152.167,278.5 151.833,278.5 151.5,278.5C 149.698,277.542 147.698,276.875 145.5,276.5C 139.534,275.351 133.868,273.351 128.5,270.5C 128.027,269.094 127.027,268.427 125.5,268.5C 123.181,268.008 121.181,267.008 119.5,265.5C 119.5,265.167 119.5,264.833 119.5,264.5C 120.931,263.554 122.264,262.388 123.5,261C 122.328,260.581 121.328,259.915 120.5,259C 122.425,259.135 124.425,259.302 126.5,259.5C 126.719,258.325 126.386,257.325 125.5,256.5C 123.234,257.557 121.234,257.057 119.5,255C 119.201,253.927 119.201,252.76 119.5,251.5 Z"/></g>
<g><path style="opacity:1" fill="#192226" d="M 202.5,264.5 C 203.684,265.688 203.684,266.855 202.5,268C 205.427,269.771 208.427,270.438 211.5,270C 208.7,271.232 205.7,271.899 202.5,272C 203.641,272.741 203.641,273.575 202.5,274.5C 200.865,275.681 199.198,275.681 197.5,274.5C 195.517,274.815 194.184,275.815 193.5,277.5C 192.508,277.328 191.842,277.662 191.5,278.5C 190.081,279.451 188.415,279.784 186.5,279.5C 175.813,279.646 165.146,279.312 154.5,278.5C 154.918,277.778 155.584,277.278 156.5,277C 155.391,276.362 154.225,275.862 153,275.5C 151.535,276.33 150.035,276.496 148.5,276C 149.711,275.107 149.711,274.274 148.5,273.5C 145.54,272.375 142.54,271.375 139.5,270.5C 141.357,267.494 143.857,266.828 147,268.5C 148.11,266.963 149.61,266.297 151.5,266.5C 151.833,266.5 152.167,266.5 152.5,266.5C 155.909,267.903 159.575,268.57 163.5,268.5C 173.578,268.777 183.578,268.11 193.5,266.5C 196.598,266.244 199.598,265.578 202.5,264.5 Z"/></g>
<g><path style="opacity:0.196" fill="#b8bdc0" d="M 152.5,266.5 C 156.425,266.43 160.091,267.097 163.5,268.5C 159.575,268.57 155.909,267.903 152.5,266.5 Z"/></g>
<g><path style="opacity:0.216" fill="#babdc0" d="M 125.5,268.5 C 127.027,268.427 128.027,269.094 128.5,270.5C 126.973,270.573 125.973,269.906 125.5,268.5 Z"/></g>
<g><path style="opacity:0.008" fill="#cfd2d5" d="M 218.5,269.5 C 217.486,270.674 216.153,271.34 214.5,271.5C 215.287,269.896 216.62,269.229 218.5,269.5 Z"/></g>
<g><path style="opacity:0.09" fill="#d0d2d3" d="M 214.5,271.5 C 213.22,272.931 211.553,273.598 209.5,273.5C 210.78,272.069 212.447,271.402 214.5,271.5 Z"/></g>
<g><path style="opacity:0.004" fill="#e1e6e7" d="M 203.5,275.5 C 204.209,274.596 205.209,274.263 206.5,274.5C 206.631,275.239 206.464,275.906 206,276.5C 205.329,275.748 204.496,275.414 203.5,275.5 Z"/></g>
<g><path style="opacity:0.01" fill="#e9e9ec" d="M 145.5,276.5 C 147.698,276.875 149.698,277.542 151.5,278.5C 148.99,278.946 146.99,278.28 145.5,276.5 Z"/></g>
<g><path style="opacity:0.013" fill="#d7d9dc" d="M 200.5,276.5 C 197.829,278.118 194.829,278.785 191.5,278.5C 191.842,277.662 192.508,277.328 193.5,277.5C 195.764,276.781 198.097,276.448 200.5,276.5 Z"/></g>
<g><path style="opacity:0.408" fill="#a7abad" d="M 152.5,278.5 C 153.167,278.5 153.833,278.5 154.5,278.5C 165.146,279.312 175.813,279.646 186.5,279.5C 182.012,280.166 177.346,280.499 172.5,280.5C 165.596,280.692 158.93,280.025 152.5,278.5 Z"/></g>
</svg>
