<?xml version="1.0" encoding="UTF-8"?>
<!DOCTYPE svg PUBLIC "-//W3C//DTD SVG 1.1//EN" "http://www.w3.org/Graphics/SVG/1.1/DTD/svg11.dtd">
<svg xmlns="http://www.w3.org/2000/svg" version="1.1" width="348px" height="347px" style="shape-rendering:geometricPrecision; text-rendering:geometricPrecision; image-rendering:optimizeQuality; fill-rule:evenodd; clip-rule:evenodd" xmlns:xlink="http://www.w3.org/1999/xlink">
<g><path style="opacity:0.396" fill="#949796" d="M 208.5,66.5 C 183.122,66.1853 157.789,66.5186 132.5,67.5C 132.611,66.8826 132.944,66.3826 133.5,66C 158.67,65.17 183.67,65.3367 208.5,66.5 Z"/></g>
<g><path style="opacity:1" fill="#061117" d="M 193.5,74.5 C 193.5,74.8333 193.5,75.1667 193.5,75.5C 193.5,79.1667 193.5,82.8333 193.5,86.5C 193.5,86.8333 193.5,87.1667 193.5,87.5C 195.292,88.3091 197.292,88.8091 199.5,89C 198.377,90.0437 197.044,90.7104 195.5,91C 196.973,91.7096 197.64,92.8762 197.5,94.5C 230.559,95.097 215.559,95.4303 152.5,95.5C 152.144,94.1301 151.31,93.1301 150,92.5C 147.861,91.7636 145.861,90.7636 144,89.5C 143.667,89.8333 143.333,90.1667 143,90.5C 142.015,89.1859 140.848,88.1859 139.5,87.5C 142.833,87.5 146.167,87.5 149.5,87.5C 150.097,82.706 149.43,78.3727 147.5,74.5C 143.907,73.8474 140.241,73.0141 136.5,72C 139.028,70.6841 139.028,69.5174 136.5,68.5C 142.667,68.1667 148.833,67.8333 155,67.5C 171.278,67.9044 187.612,67.9044 204,67.5C 206.722,67.9408 208.556,69.4408 209.5,72C 208.314,74.7481 207.314,77.5815 206.5,80.5C 205.103,78.0934 203.77,75.5934 202.5,73C 200.899,72.7266 199.399,72.2266 198,71.5C 195.746,72.4645 194.246,73.4645 193.5,74.5 Z M 184.5,75.5 C 184.5,79.1667 184.5,82.8333 184.5,86.5C 181.833,86.5 179.167,86.5 176.5,86.5C 176.5,82.8333 176.5,79.1667 176.5,75.5C 179.167,75.5 181.833,75.5 184.5,75.5 Z M 158.5,75.5 C 160.833,75.5 163.167,75.5 165.5,75.5C 165.5,79.1667 165.5,82.8333 165.5,86.5C 163.167,86.5 160.833,86.5 158.5,86.5C 158.5,82.8333 158.5,79.1667 158.5,75.5 Z"/></g>
<g><path style="opacity:0.145" fill="#c0c3c0" d="M 110.5,74.5 C 109.766,75.7079 109.433,77.0413 109.5,78.5C 108.876,78.0831 108.543,77.4164 108.5,76.5C 108.747,75.2867 109.414,74.62 110.5,74.5 Z"/></g>
<g><path style="opacity:0.367" fill="#a7a9a2" d="M 229.5,74.5 C 228.766,75.7079 228.433,77.0413 228.5,78.5C 227.876,78.0831 227.543,77.4164 227.5,76.5C 227.747,75.2867 228.414,74.62 229.5,74.5 Z"/></g>
<g><path style="opacity:1" fill="#313434" d="M 228.5,78.5 C 228.433,77.0413 228.766,75.7079 229.5,74.5C 230.313,73.3473 231.313,73.3473 232.5,74.5C 233.452,76.0453 233.785,77.712 233.5,79.5C 231.585,79.7845 229.919,79.4511 228.5,78.5 Z"/></g>
<g><path style="opacity:1" fill="#424544" d="M 109.5,78.5 C 109.433,77.0413 109.766,75.7079 110.5,74.5C 112.707,73.1301 114.374,73.7968 115.5,76.5C 114.045,79.3566 112.045,80.0232 109.5,78.5 Z"/></g>
<g><path style="opacity:1" fill="#414547" d="M 121.5,73.5 C 125.013,74.0282 126.013,75.8615 124.5,79C 121.763,80.0798 120.096,79.2464 119.5,76.5C 119.942,75.2613 120.609,74.2613 121.5,73.5 Z"/></g>
<g><path style="opacity:1" fill="#494a4b" d="M 218.5,73.5 C 224.332,74.8177 224.832,77.1511 220,80.5C 216.282,78.6834 215.782,76.3501 218.5,73.5 Z"/></g>
<g><path style="opacity:1" fill="#040f15" d="M 208.5,66.5 C 209.5,66.8333 210.167,67.5 210.5,68.5C 210.666,74.8421 210.5,81.1754 210,87.5C 208.887,88.7111 207.72,88.7111 206.5,87.5C 205.522,87.9767 204.689,88.6433 204,89.5C 203.722,88.5842 203.222,87.9175 202.5,87.5C 202.5,83.1667 202.5,78.8333 202.5,74.5C 199.5,74.5 196.5,74.5 193.5,74.5C 194.246,73.4645 195.746,72.4645 198,71.5C 199.399,72.2266 200.899,72.7266 202.5,73C 203.77,75.5934 205.103,78.0934 206.5,80.5C 207.314,77.5815 208.314,74.7481 209.5,72C 208.556,69.4408 206.722,67.9408 204,67.5C 187.612,67.9044 171.278,67.9044 155,67.5C 148.833,67.8333 142.667,68.1667 136.5,68.5C 139.028,69.5174 139.028,70.6841 136.5,72C 140.241,73.0141 143.907,73.8474 147.5,74.5C 144.833,74.5 142.167,74.5 139.5,74.5C 139.5,78.8333 139.5,83.1667 139.5,87.5C 140.848,88.1859 142.015,89.1859 143,90.5C 143.333,90.1667 143.667,89.8333 144,89.5C 145.861,90.7636 147.861,91.7636 150,92.5C 151.31,93.1301 152.144,94.1301 152.5,95.5C 136.991,95.1705 121.658,95.5038 106.5,96.5C 104.5,96.5 102.5,96.5 100.5,96.5C 100.5,97.5 100.5,98.5 100.5,99.5C 99.325,99.719 98.325,99.3857 97.5,98.5C 97.7552,96.6565 97.9219,94.6565 98,92.5C 100.683,90.9617 103.183,89.295 105.5,87.5C 114.167,87.5 122.833,87.5 131.5,87.5C 131.5,81.5 131.5,75.5 131.5,69.5C 131.328,68.5084 131.662,67.8417 132.5,67.5C 157.789,66.5186 183.122,66.1853 208.5,66.5 Z M 193.5,75.5 C 196.167,75.5 198.833,75.5 201.5,75.5C 201.5,79.1667 201.5,82.8333 201.5,86.5C 198.833,86.5 196.167,86.5 193.5,86.5C 193.5,82.8333 193.5,79.1667 193.5,75.5 Z M 184.5,75.5 C 184.5,79.1667 184.5,82.8333 184.5,86.5C 181.833,86.5 179.167,86.5 176.5,86.5C 176.5,82.8333 176.5,79.1667 176.5,75.5C 179.167,75.5 181.833,75.5 184.5,75.5 Z M 140.5,75.5 C 143.167,75.5 145.833,75.5 148.5,75.5C 148.5,79.1667 148.5,82.8333 148.5,86.5C 145.833,86.5 143.167,86.5 140.5,86.5C 140.5,82.8333 140.5,79.1667 140.5,75.5 Z M 158.5,75.5 C 158.5,79.1667 158.5,82.8333 158.5,86.5C 160.833,86.5 163.167,86.5 165.5,86.5C 165.5,82.8333 165.5,79.1667 165.5,75.5C 163.167,75.5 160.833,75.5 158.5,75.5 Z"/></g>
<g><path style="opacity:0.188" fill="#c7c8c7" d="M 184.5,75.5 C 181.833,75.5 179.167,75.5 176.5,75.5C 176.5,79.1667 176.5,82.8333 176.5,86.5C 179.167,86.5 181.833,86.5 184.5,86.5C 181.713,87.4767 178.713,87.81 175.5,87.5C 175.5,83.1667 175.5,78.8333 175.5,74.5C 178.713,74.19 181.713,74.5233 184.5,75.5 Z"/></g>
<g><path style="opacity:0.439" fill="#a1a6a5" d="M 193.5,75.5 C 193.5,75.1667 193.5,74.8333 193.5,74.5C 196.5,74.5 199.5,74.5 202.5,74.5C 202.5,78.8333 202.5,83.1667 202.5,87.5C 199.5,87.5 196.5,87.5 193.5,87.5C 193.5,87.1667 193.5,86.8333 193.5,86.5C 196.167,86.5 198.833,86.5 201.5,86.5C 201.5,82.8333 201.5,79.1667 201.5,75.5C 198.833,75.5 196.167,75.5 193.5,75.5 Z"/></g>
<g><path style="opacity:0.594" fill="#878a8a" d="M 147.5,74.5 C 149.43,78.3727 150.097,82.706 149.5,87.5C 146.167,87.5 142.833,87.5 139.5,87.5C 139.5,83.1667 139.5,78.8333 139.5,74.5C 142.167,74.5 144.833,74.5 147.5,74.5 Z M 140.5,75.5 C 140.5,79.1667 140.5,82.8333 140.5,86.5C 143.167,86.5 145.833,86.5 148.5,86.5C 148.5,82.8333 148.5,79.1667 148.5,75.5C 145.833,75.5 143.167,75.5 140.5,75.5 Z"/></g>
<g><path style="opacity:0.263" fill="#adafaf" d="M 131.5,69.5 C 131.5,75.5 131.5,81.5 131.5,87.5C 122.833,87.5 114.167,87.5 105.5,87.5C 104.833,87.5 104.167,87.5 103.5,87.5C 112.318,86.5067 121.318,86.1734 130.5,86.5C 130.178,80.642 130.511,74.9753 131.5,69.5 Z"/></g>
<g><path style="opacity:0.18" fill="#cbcfcf" d="M 157.5,74.5 C 160.5,74.5 163.5,74.5 166.5,74.5C 166.5,78.8333 166.5,83.1667 166.5,87.5C 163.5,87.5 160.5,87.5 157.5,87.5C 157.5,83.1667 157.5,78.8333 157.5,74.5 Z M 158.5,75.5 C 158.5,79.1667 158.5,82.8333 158.5,86.5C 160.833,86.5 163.167,86.5 165.5,86.5C 165.5,82.8333 165.5,79.1667 165.5,75.5C 163.167,75.5 160.833,75.5 158.5,75.5 Z"/></g>
<g><path style="opacity:1" fill="#343b3e" d="M 210.5,68.5 C 211.49,74.31 211.823,80.31 211.5,86.5C 220.506,86.3336 229.506,86.5002 238.5,87C 239.737,87.2321 240.737,87.7321 241.5,88.5C 241.987,89.4734 242.487,90.4734 243,91.5C 243.654,90.3044 244.154,90.3044 244.5,91.5C 243.369,94.3932 241.369,96.3932 238.5,97.5C 194.542,96.5106 150.542,96.1773 106.5,96.5C 121.658,95.5038 136.991,95.1705 152.5,95.5C 215.559,95.4303 230.559,95.097 197.5,94.5C 197.64,92.8762 196.973,91.7096 195.5,91C 197.044,90.7104 198.377,90.0437 199.5,89C 197.292,88.8091 195.292,88.3091 193.5,87.5C 196.5,87.5 199.5,87.5 202.5,87.5C 203.222,87.9175 203.722,88.5842 204,89.5C 204.689,88.6433 205.522,87.9767 206.5,87.5C 207.72,88.7111 208.887,88.7111 210,87.5C 210.5,81.1754 210.666,74.8421 210.5,68.5 Z"/></g>
<g><path style="opacity:1" fill="#242b2e" d="M 103.5,87.5 C 104.167,87.5 104.833,87.5 105.5,87.5C 103.183,89.295 100.683,90.9617 98,92.5C 97.9219,94.6565 97.7552,96.6565 97.5,98.5C 98.325,99.3857 99.325,99.719 100.5,99.5C 100.5,98.5 100.5,97.5 100.5,96.5C 102.5,96.5 104.5,96.5 106.5,96.5C 103.576,97.7533 101.243,99.7533 99.5,102.5C 98.8953,100.974 97.7286,99.9743 96,99.5C 94.6952,103.123 93.1952,103.123 91.5,99.5C 91.5,98.8333 91.5,98.1667 91.5,97.5C 93.8977,92.2938 97.8977,88.9604 103.5,87.5 Z"/></g>
<g><path style="opacity:0.235" fill="#acb1af" d="M 250.5,96.5 C 251.906,96.9731 252.573,97.9731 252.5,99.5C 251.094,99.0269 250.427,98.0269 250.5,96.5 Z"/></g>
<g><path style="opacity:0.094" fill="#babcbc" d="M 91.5,97.5 C 91.5,98.1667 91.5,98.8333 91.5,99.5C 90.8333,100.167 90.1667,100.833 89.5,101.5C 89.2291,99.6203 89.8958,98.287 91.5,97.5 Z"/></g>
<g><path style="opacity:1" fill="#1d2326" d="M 91.5,99.5 C 93.1952,103.123 94.6952,103.123 96,99.5C 97.7286,99.9743 98.8953,100.974 99.5,102.5C 99.6716,103.492 99.3382,104.158 98.5,104.5C 97.5014,145.33 97.168,186.33 97.5,227.5C 96.8496,225.553 95.683,223.887 94,222.5C 93.6667,233.167 93.3333,243.833 93,254.5C 92.6174,255.056 92.1174,255.389 91.5,255.5C 91.1667,255.5 90.8333,255.5 90.5,255.5C 89.6981,254.048 89.1981,252.382 89,250.5C 88.1761,200.792 88.3428,151.126 89.5,101.5C 90.1667,100.833 90.8333,100.167 91.5,99.5 Z"/></g>
<g><path style="opacity:0.58" fill="#9a9d99" d="M 173.5,104.5 C 171.833,104.5 170.167,104.5 168.5,104.5C 170.048,102.078 171.714,102.078 173.5,104.5 Z"/></g>
<g><path style="opacity:0.369" fill="#b4b7b6" d="M 121.5,104.5 C 121.366,106.292 121.699,107.958 122.5,109.5C 121.351,109.209 120.684,108.376 120.5,107C 120.528,105.93 120.861,105.097 121.5,104.5 Z"/></g>
<g><path style="opacity:1" fill="#23292b" d="M 127.5,104.5 C 126.92,106.749 125.587,108.415 123.5,109.5C 123.167,109.5 122.833,109.5 122.5,109.5C 121.699,107.958 121.366,106.292 121.5,104.5C 123.5,103.167 125.5,103.167 127.5,104.5 Z"/></g>
<g><path style="opacity:1" fill="#686b69" d="M 139.5,104.5 C 137.833,104.5 136.167,104.5 134.5,104.5C 133.929,106.36 133.929,108.027 134.5,109.5C 133.351,109.209 132.684,108.376 132.5,107C 132.667,106.167 132.833,105.333 133,104.5C 135.274,103.189 137.44,103.189 139.5,104.5 Z"/></g>
<g><path style="opacity:1" fill="#191f20" d="M 139.5,104.5 C 139.634,106.292 139.301,107.958 138.5,109.5C 137.167,110.833 135.833,110.833 134.5,109.5C 133.929,108.027 133.929,106.36 134.5,104.5C 136.167,104.5 137.833,104.5 139.5,104.5 Z"/></g>
<g><path style="opacity:0.6" fill="#9b9e9d" d="M 139.5,104.5 C 142.114,106.601 141.78,108.268 138.5,109.5C 139.301,107.958 139.634,106.292 139.5,104.5 Z"/></g>
<g><path style="opacity:0.975" fill="#565859" d="M 226.5,104.5 C 226.366,106.292 226.699,107.958 227.5,109.5C 224.028,108.423 223.695,106.756 226.5,104.5 Z"/></g>
<g><path style="opacity:1" fill="#282a2d" d="M 226.5,104.5 C 228.167,104.5 229.833,104.5 231.5,104.5C 231.538,106.636 232.205,107.969 233.5,108.5C 232.866,109.947 231.699,110.613 230,110.5C 228.93,110.472 228.097,110.139 227.5,109.5C 226.699,107.958 226.366,106.292 226.5,104.5 Z"/></g>
<g><path style="opacity:0.988" fill="#5d6061" d="M 226.5,104.5 C 228.288,103.378 230.288,103.211 232.5,104C 234.466,105.347 234.799,106.847 233.5,108.5C 232.205,107.969 231.538,106.636 231.5,104.5C 229.833,104.5 228.167,104.5 226.5,104.5 Z"/></g>
<g><path style="opacity:1" fill="#323739" d="M 116.5,104.5 C 116.634,106.292 116.301,107.958 115.5,109.5C 109.826,111.508 107.826,109.675 109.5,104C 112.039,103.204 114.372,103.371 116.5,104.5 Z"/></g>
<g><path style="opacity:1" fill="#3e4245" d="M 202.5,103.5 C 204.591,103.318 206.591,103.652 208.5,104.5C 210.191,108.003 209.024,110.003 205,110.5C 200.649,109.166 199.815,106.833 202.5,103.5 Z"/></g>
<g><path style="opacity:1" fill="#303436" d="M 220.5,104.5 C 220.634,106.292 220.301,107.958 219.5,109.5C 217.244,110.438 214.91,110.438 212.5,109.5C 212.261,107.533 212.594,105.699 213.5,104C 216.039,103.204 218.372,103.371 220.5,104.5 Z"/></g>
<g><path style="opacity:0.322" fill="#a9b0af" d="M 116.5,104.5 C 117.139,105.097 117.472,105.93 117.5,107C 117.316,108.376 116.649,109.209 115.5,109.5C 116.649,109.209 117.316,108.376 117.5,107C 117.472,105.93 117.139,105.097 116.5,104.5 Z"/></g>
<g><path style="opacity:0.981" fill="#56595c" d="M 127.5,104.5 C 130.396,107.625 129.563,109.625 125,110.5C 124.235,110.43 123.735,110.097 123.5,109.5C 125.587,108.415 126.92,106.749 127.5,104.5 Z"/></g>
<g><path style="opacity:0.459" fill="#a2a5a6" d="M 220.5,104.5 C 223.114,106.601 222.78,108.268 219.5,109.5C 220.301,107.958 220.634,106.292 220.5,104.5 Z"/></g>
<g><path style="opacity:0.298" fill="#b0b6b6" d="M 167.5,105.5 C 167.5,106.833 167.5,108.167 167.5,109.5C 165.5,109.5 163.5,109.5 161.5,109.5C 162.919,108.549 164.585,108.216 166.5,108.5C 166.263,107.209 166.596,106.209 167.5,105.5 Z"/></g>
<g><path style="opacity:1" fill="#0f171b" d="M 168.5,104.5 C 170.167,104.5 171.833,104.5 173.5,104.5C 174.167,104.5 174.5,104.833 174.5,105.5C 174.5,106.833 174.5,108.167 174.5,109.5C 176.5,109.5 178.5,109.5 180.5,109.5C 183.337,111.402 186.671,112.069 190.5,111.5C 191.552,113.256 193.219,113.923 195.5,113.5C 196.598,114.397 196.598,115.23 195.5,116C 199.742,116.578 203.409,118.078 206.5,120.5C 202.362,123.12 198.196,123.12 194,120.5C 193.692,121.308 193.192,121.975 192.5,122.5C 191.304,122.154 191.304,121.654 192.5,121C 188.144,119.937 183.811,118.771 179.5,117.5C 177.667,117.585 176.334,118.252 175.5,119.5C 176.288,127.809 176.621,136.142 176.5,144.5C 175.887,150.271 176.554,155.604 178.5,160.5C 180.062,160.733 181.395,161.4 182.5,162.5C 182.5,162.833 182.5,163.167 182.5,163.5C 179.039,163.854 176.539,162.521 175,159.5C 174.025,145.094 173.692,130.761 174,116.5C 170.571,113.309 169.404,113.809 170.5,118C 169.423,118.47 168.423,118.303 167.5,117.5C 163.554,117.512 161.887,115.512 162.5,111.5C 160.801,111.66 159.134,111.494 157.5,111C 158.737,110.768 159.737,110.268 160.5,109.5C 160.833,109.5 161.167,109.5 161.5,109.5C 163.5,109.5 165.5,109.5 167.5,109.5C 167.5,108.167 167.5,106.833 167.5,105.5C 167.5,104.833 167.833,104.5 168.5,104.5 Z"/></g>
<g><path style="opacity:0.267" fill="#adb5b5" d="M 174.5,105.5 C 175.404,106.209 175.737,107.209 175.5,108.5C 177.415,108.216 179.081,108.549 180.5,109.5C 178.5,109.5 176.5,109.5 174.5,109.5C 174.5,108.167 174.5,106.833 174.5,105.5 Z"/></g>
<g><path style="opacity:1" fill="#525554" d="M 180.5,109.5 C 184.078,109.549 187.411,110.215 190.5,111.5C 186.671,112.069 183.337,111.402 180.5,109.5 Z"/></g>
<g><path style="opacity:1" fill="#021119" d="M 251.5,256.5 C 249.821,256.285 248.821,256.952 248.5,258.5C 247.178,258.33 246.011,258.663 245,259.5C 243.896,258.606 242.73,257.606 241.5,256.5C 243.304,255.619 244.804,254.286 246,252.5C 246.27,248.627 246.77,244.794 247.5,241C 246.605,197.911 246.272,154.745 246.5,111.5C 249.734,111.237 251.068,112.737 250.5,116C 250.126,118.495 249.792,120.995 249.5,123.5C 250.542,167.852 251.209,212.185 251.5,256.5 Z"/></g>
<g><path style="opacity:0.953" fill="#5b6467" d="M 190.5,111.5 C 192.403,111.796 194.07,112.463 195.5,113.5C 193.219,113.923 191.552,113.256 190.5,111.5 Z"/></g>
<g><path style="opacity:0.686" fill="#919595" d="M 148.5,112.5 C 147.486,113.674 146.153,114.34 144.5,114.5C 145.287,112.896 146.62,112.229 148.5,112.5 Z"/></g>
<g><path style="opacity:0.989" fill="#51575a" d="M 195.5,113.5 C 200.575,114.602 204.909,116.936 208.5,120.5C 207.833,120.5 207.167,120.5 206.5,120.5C 203.409,118.078 199.742,116.578 195.5,116C 196.598,115.23 196.598,114.397 195.5,113.5 Z"/></g>
<g><path style="opacity:0.889" fill="#676b6a" d="M 233.5,115.5 C 232.292,114.766 230.959,114.433 229.5,114.5C 229.5,116.833 229.5,119.167 229.5,121.5C 227.255,119.583 226.922,117.25 228.5,114.5C 229.333,114.167 230.167,113.833 231,113.5C 232.376,113.684 233.209,114.351 233.5,115.5 Z"/></g>
<g><path style="opacity:0.592" fill="#8d8e94" d="M 109.5,114.5 C 109.338,116.527 109.505,118.527 110,120.5C 111.011,121.337 112.178,121.67 113.5,121.5C 112.116,122.801 110.616,122.801 109,121.5C 108.204,118.961 108.371,116.628 109.5,114.5 Z"/></g>
<g><path style="opacity:0.997" fill="#282a2c" d="M 113.5,121.5 C 112.178,121.67 111.011,121.337 110,120.5C 109.505,118.527 109.338,116.527 109.5,114.5C 110.884,113.199 112.384,113.199 114,114.5C 114.796,117.039 114.629,119.372 113.5,121.5 Z"/></g>
<g><path style="opacity:1" fill="#1a2125" d="M 160.5,109.5 C 159.737,110.268 158.737,110.768 157.5,111C 159.134,111.494 160.801,111.66 162.5,111.5C 161.887,115.512 163.554,117.512 167.5,117.5C 167.667,131.837 167.5,146.171 167,160.5C 166.31,161.738 165.81,161.738 165.5,160.5C 165.5,158.167 165.5,155.833 165.5,153.5C 165.257,142.136 165.59,130.802 166.5,119.5C 162.802,119.552 159.135,119.886 155.5,120.5C 154.861,121.097 154.528,121.93 154.5,123C 154.387,124.699 155.053,125.866 156.5,126.5C 156.5,127.5 156.5,128.5 156.5,129.5C 154.708,129.366 153.042,129.699 151.5,130.5C 150.058,128.363 148.891,126.03 148,123.5C 143.74,125.378 139.906,127.878 136.5,131C 138.373,132.704 140.04,134.537 141.5,136.5C 142.933,138.558 143.6,140.892 143.5,143.5C 142.491,146.166 140.824,146.833 138.5,145.5C 137.058,144.18 136.392,142.514 136.5,140.5C 134.315,140.296 132.315,139.63 130.5,138.5C 129.833,138.5 129.167,138.5 128.5,138.5C 127.5,137.833 126.5,137.167 125.5,136.5C 125.414,135.504 125.748,134.671 126.5,134C 125.833,133.833 125.167,133.667 124.5,133.5C 122.759,135.244 120.759,136.577 118.5,137.5C 118.5,136.833 118.5,136.167 118.5,135.5C 118.738,133.596 119.738,132.262 121.5,131.5C 124.167,129.5 126.5,127.167 128.5,124.5C 131.089,123.581 133.089,121.914 134.5,119.5C 137.364,116.986 140.698,115.32 144.5,114.5C 146.153,114.34 147.486,113.674 148.5,112.5C 152.273,110.744 156.273,109.744 160.5,109.5 Z"/></g>
<g><path style="opacity:1" fill="#0d161b" d="M 182.5,163.5 C 183.167,164.833 184.167,165.833 185.5,166.5C 188.677,170.394 189.677,174.727 188.5,179.5C 186.333,180.646 185,182.479 184.5,185C 183.167,185.333 181.833,185.667 180.5,186C 180.306,187.43 180.306,188.93 180.5,190.5C 178.955,191.452 177.288,191.785 175.5,191.5C 175.5,192.5 175.5,193.5 175.5,194.5C 171.007,194.731 166.674,194.064 162.5,192.5C 159.167,191.167 156.833,188.833 155.5,185.5C 155.33,184.178 155.663,183.011 156.5,182C 155.473,181.487 154.473,180.987 153.5,180.5C 152.359,178.451 152.359,176.451 153.5,174.5C 154.968,171.12 156.635,167.787 158.5,164.5C 159.539,162.469 161.205,161.136 163.5,160.5C 164.167,160.5 164.833,160.5 165.5,160.5C 165.81,161.738 166.31,161.738 167,160.5C 167.5,146.171 167.667,131.837 167.5,117.5C 168.423,118.303 169.423,118.47 170.5,118C 169.404,113.809 170.571,113.309 174,116.5C 173.692,130.761 174.025,145.094 175,159.5C 176.539,162.521 179.039,163.854 182.5,163.5 Z M 175.5,169.5 C 181.19,176.096 180.19,181.429 172.5,185.5C 170.079,185.122 167.746,184.455 165.5,183.5C 165.573,181.973 164.906,180.973 163.5,180.5C 162.36,171.386 166.36,167.719 175.5,169.5 Z"/></g>
<g><path style="opacity:0.996" fill="#242929" d="M 233.5,115.5 C 234.833,117.167 234.833,118.833 233.5,120.5C 232.292,121.234 230.959,121.567 229.5,121.5C 229.5,119.167 229.5,116.833 229.5,114.5C 230.959,114.433 232.292,114.766 233.5,115.5 Z"/></g>
<g><path style="opacity:1" fill="#32393b" d="M 241.5,88.5 C 245.767,89.7684 248.767,92.4351 250.5,96.5C 250.427,98.0269 251.094,99.0269 252.5,99.5C 253.148,101.086 253.648,102.753 254,104.5C 254.667,152.833 254.667,201.167 254,249.5C 253.61,252.104 252.776,254.438 251.5,256.5C 251.209,212.185 250.542,167.852 249.5,123.5C 249.792,120.995 250.126,118.495 250.5,116C 251.068,112.737 249.734,111.237 246.5,111.5C 246.272,154.745 246.605,197.911 247.5,241C 246.77,244.794 246.27,248.627 246,252.5C 244.804,254.286 243.304,255.619 241.5,256.5C 240.833,256.5 240.167,256.5 239.5,256.5C 239.833,255.5 240.5,254.833 241.5,254.5C 242.906,254.027 243.573,253.027 243.5,251.5C 243.667,201.832 243.5,152.166 243,102.5C 241.941,100.341 240.441,98.6741 238.5,97.5C 241.369,96.3932 243.369,94.3932 244.5,91.5C 244.154,90.3044 243.654,90.3044 243,91.5C 242.487,90.4734 241.987,89.4734 241.5,88.5 Z"/></g>
<g><path style="opacity:0.008" fill="#cacbc9" d="M 233.5,120.5 C 233.423,121.75 232.756,122.583 231.5,123C 232.056,123.383 232.389,123.883 232.5,124.5C 231.5,124.5 230.5,124.5 229.5,124.5C 230.833,123.5 230.833,122.5 229.5,121.5C 230.959,121.567 232.292,121.234 233.5,120.5 Z"/></g>
<g><path style="opacity:0.788" fill="#747777" d="M 134.5,119.5 C 133.089,121.914 131.089,123.581 128.5,124.5C 129.911,122.086 131.911,120.419 134.5,119.5 Z"/></g>
<g><path style="opacity:0.925" fill="#747a79" d="M 155.5,120.5 C 155.517,122.565 155.85,124.565 156.5,126.5C 155.053,125.866 154.387,124.699 154.5,123C 154.528,121.93 154.861,121.097 155.5,120.5 Z"/></g>
<g><path style="opacity:1" fill="#252728" d="M 113.5,124.5 C 113.5,126.167 113.5,127.833 113.5,129.5C 110.09,129.616 108.756,127.95 109.5,124.5C 110.833,123.167 112.167,123.167 113.5,124.5 Z"/></g>
<g><path style="opacity:0.176" fill="#c3c5c3" d="M 229.5,124.5 C 228.766,125.708 228.433,127.041 228.5,128.5C 227.876,128.083 227.543,127.416 227.5,126.5C 227.747,125.287 228.414,124.62 229.5,124.5 Z"/></g>
<g><path style="opacity:1" fill="#373a37" d="M 229.5,124.5 C 230.5,124.5 231.5,124.5 232.5,124.5C 235.266,127.067 234.766,129.067 231,130.5C 229.699,130.361 228.866,129.695 228.5,128.5C 228.433,127.041 228.766,125.708 229.5,124.5 Z"/></g>
<g><path style="opacity:1" fill="#1c2327" d="M 206.5,120.5 C 207.167,120.5 207.833,120.5 208.5,120.5C 211.117,121.786 213.45,123.453 215.5,125.5C 215.557,126.609 215.89,127.609 216.5,128.5C 216.389,129.117 216.056,129.617 215.5,130C 220.596,133.702 221.262,137.869 217.5,142.5C 215.549,141.284 214.049,139.618 213,137.5C 212.241,139.063 211.074,140.063 209.5,140.5C 208.5,140.833 207.833,141.5 207.5,142.5C 205.615,146.734 202.782,147.401 199,144.5C 197.546,142.756 197.379,141.089 198.5,139.5C 199.833,138.833 200.833,137.833 201.5,136.5C 202.203,134.284 203.536,132.451 205.5,131C 204.619,130.292 203.953,129.458 203.5,128.5C 203.027,127.094 202.027,126.427 200.5,126.5C 198.634,125.986 196.8,125.32 195,124.5C 193.14,126.375 191.64,128.542 190.5,131C 188.934,131.765 187.601,131.598 186.5,130.5C 186.5,128.833 186.5,127.167 186.5,125.5C 186.966,123.799 186.966,122.299 186.5,121C 182.914,119.892 179.247,119.392 175.5,119.5C 176.334,118.252 177.667,117.585 179.5,117.5C 183.811,118.771 188.144,119.937 192.5,121C 191.304,121.654 191.304,122.154 192.5,122.5C 193.192,121.975 193.692,121.308 194,120.5C 198.196,123.12 202.362,123.12 206.5,120.5 Z"/></g>
<g><path style="opacity:0.694" fill="#969897" d="M 215.5,125.5 C 216.833,126.167 217.833,127.167 218.5,128.5C 217.833,128.5 217.167,128.5 216.5,128.5C 215.89,127.609 215.557,126.609 215.5,125.5 Z"/></g>
<g><path style="opacity:0.631" fill="#8c8f8e" d="M 113.5,124.5 C 116.167,126.167 116.167,127.833 113.5,129.5C 113.5,127.833 113.5,126.167 113.5,124.5 Z"/></g>
<g><path style="opacity:0.541" fill="#7b817d" d="M 200.5,126.5 C 202.027,126.427 203.027,127.094 203.5,128.5C 201.973,128.573 200.973,127.906 200.5,126.5 Z"/></g>
<g><path style="opacity:0.584" fill="#9da09e" d="M 128.5,124.5 C 126.5,127.167 124.167,129.5 121.5,131.5C 122.833,128.167 125.167,125.833 128.5,124.5 Z"/></g>
<g><path style="opacity:0.737" fill="#848786" d="M 186.5,125.5 C 186.5,127.167 186.5,128.833 186.5,130.5C 184.078,128.952 184.078,127.286 186.5,125.5 Z"/></g>
<g><path style="opacity:0.369" fill="#a5a6a4" d="M 109.5,124.5 C 108.756,127.95 110.09,129.616 113.5,129.5C 112.116,130.801 110.616,130.801 109,129.5C 108.22,127.613 108.387,125.946 109.5,124.5 Z"/></g>
<g><path style="opacity:1" fill="#78797b" d="M 156.5,126.5 C 157.801,127.884 157.801,129.384 156.5,131C 154.613,131.78 152.946,131.613 151.5,130.5C 153.042,129.699 154.708,129.366 156.5,129.5C 156.5,128.5 156.5,127.5 156.5,126.5 Z"/></g>
<g><path style="opacity:0.612" fill="#979b99" d="M 218.5,128.5 C 219.906,128.973 220.573,129.973 220.5,131.5C 219.094,131.027 218.427,130.027 218.5,128.5 Z"/></g>
<g><path style="opacity:0.396" fill="#9a9c9c" d="M 222.5,133.5 C 223.906,133.973 224.573,134.973 224.5,136.5C 223.094,136.027 222.427,135.027 222.5,133.5 Z"/></g>
<g><path style="opacity:0.557" fill="#798081" d="M 118.5,135.5 C 118.5,136.167 118.5,136.833 118.5,137.5C 117.833,137.833 117.167,138.167 116.5,138.5C 116.427,136.973 117.094,135.973 118.5,135.5 Z"/></g>
<g><path style="opacity:0.4" fill="#959b9b" d="M 201.5,136.5 C 200.833,137.833 199.833,138.833 198.5,139.5C 198.5,137.5 199.5,136.5 201.5,136.5 Z"/></g>
<g><path style="opacity:0.471" fill="#888f8f" d="M 224.5,136.5 C 225.906,136.973 226.573,137.973 226.5,139.5C 225.094,139.027 224.427,138.027 224.5,136.5 Z"/></g>
<g><path style="opacity:1" fill="#495154" d="M 130.5,138.5 C 132.315,139.63 134.315,140.296 136.5,140.5C 136.392,142.514 137.058,144.18 138.5,145.5C 135.236,143.906 132.569,141.573 130.5,138.5 Z"/></g>
<g><path style="opacity:0.549" fill="#79807f" d="M 141.5,136.5 C 144.449,138.265 145.115,140.598 143.5,143.5C 143.6,140.892 142.933,138.558 141.5,136.5 Z"/></g>
<g><path style="opacity:0.008" fill="#bec2c1" d="M 209.5,140.5 C 209.5,141.833 208.833,142.5 207.5,142.5C 207.833,141.5 208.5,140.833 209.5,140.5 Z"/></g>
<g><path style="opacity:1" fill="#495052" d="M 125.5,136.5 C 126.5,137.167 127.5,137.833 128.5,138.5C 125.706,141.757 123.706,145.423 122.5,149.5C 121.532,147.393 121.198,145.059 121.5,142.5C 122.5,142.5 123.5,142.5 124.5,142.5C 125.243,140.304 125.576,138.304 125.5,136.5 Z"/></g>
<g><path style="opacity:0.988" fill="#464d4e" d="M 226.5,139.5 C 229.207,142.247 230.873,145.58 231.5,149.5C 230.5,149.5 229.5,149.5 228.5,149.5C 228.33,148.178 228.663,147.011 229.5,146C 226.855,144.713 225.855,142.547 226.5,139.5 Z"/></g>
<g><path style="opacity:1" fill="#494e51" d="M 116.5,138.5 C 115.829,139.847 115.829,141.014 116.5,142C 115.687,143.314 114.687,144.481 113.5,145.5C 114.263,147.727 113.263,149.06 110.5,149.5C 111.742,145.345 113.742,141.678 116.5,138.5 Z"/></g>
<g><path style="opacity:0.969" fill="#565a5c" d="M 123.5,149.5 C 125.583,150.029 127.417,151.029 129,152.5C 129.74,153.749 129.573,154.749 128.5,155.5C 126.833,153.5 125.167,151.5 123.5,149.5 Z"/></g>
<g><path style="opacity:0.049" fill="#e1e1e0" d="M 176.5,144.5 C 177.21,149.732 177.877,155.065 178.5,160.5C 176.554,155.604 175.887,150.271 176.5,144.5 Z"/></g>
<g><path style="opacity:0.812" fill="#8a9091" d="M 121.5,155.5 C 123.565,155.517 125.565,155.85 127.5,156.5C 125.402,157.484 123.402,157.151 121.5,155.5 Z"/></g>
<g><path style="opacity:0.937" fill="#707575" d="M 216.5,150.5 C 215.498,152.011 214.831,153.678 214.5,155.5C 216.5,155.5 218.5,155.5 220.5,155.5C 217.985,157.842 215.485,157.842 213,155.5C 212.36,152.632 213.527,150.965 216.5,150.5 Z"/></g>
<g><path style="opacity:0.106" fill="#d2d3d5" d="M 165.5,153.5 C 165.5,155.833 165.5,158.167 165.5,160.5C 164.833,160.5 164.167,160.5 163.5,160.5C 164.065,158.048 164.732,155.715 165.5,153.5 Z"/></g>
<g><path style="opacity:1" fill="#5d6264" d="M 231.5,149.5 C 233.397,151.698 234.397,154.364 234.5,157.5C 232.661,155.347 231.661,152.68 231.5,149.5 Z"/></g>
<g><path style="opacity:1" fill="#4e5556" d="M 110.5,149.5 C 109.9,155.535 108.566,161.202 106.5,166.5C 106.224,160.354 107.557,154.688 110.5,149.5 Z"/></g>
<g><path style="opacity:1" fill="#12191e" d="M 125.5,136.5 C 125.576,138.304 125.243,140.304 124.5,142.5C 123.5,142.5 122.5,142.5 121.5,142.5C 121.198,145.059 121.532,147.393 122.5,149.5C 122.833,149.5 123.167,149.5 123.5,149.5C 125.167,151.5 126.833,153.5 128.5,155.5C 128.5,156.167 128.167,156.5 127.5,156.5C 125.565,155.85 123.565,155.517 121.5,155.5C 120.5,155.5 119.5,155.5 118.5,155.5C 117.651,159.894 116.651,164.228 115.5,168.5C 114.957,168.56 114.624,168.893 114.5,169.5C 119.12,170.493 123.786,170.827 128.5,170.5C 131.145,173.217 131.145,176.05 128.5,179C 123.981,179.175 119.647,179.675 115.5,180.5C 115.294,183.495 115.96,186.162 117.5,188.5C 118.11,189.391 118.443,190.391 118.5,191.5C 118.62,192.586 119.287,193.253 120.5,193.5C 123.022,192.238 125.689,191.571 128.5,191.5C 128.5,192.5 128.5,193.5 128.5,194.5C 126.801,194.527 125.467,195.194 124.5,196.5C 122.064,196.317 119.897,196.984 118,198.5C 117.552,196.776 116.718,196.109 115.5,196.5C 116.326,195.549 116.492,194.549 116,193.5C 115.667,193.833 115.333,194.167 115,194.5C 113.303,192.368 111.136,191.035 108.5,190.5C 108.232,187.881 108.565,185.381 109.5,183C 108.773,181.601 108.273,180.101 108,178.5C 107.768,179.737 107.268,180.737 106.5,181.5C 105.2,176.4 105.2,171.4 106.5,166.5C 108.566,161.202 109.9,155.535 110.5,149.5C 113.263,149.06 114.263,147.727 113.5,145.5C 114.687,144.481 115.687,143.314 116.5,142C 115.829,141.014 115.829,139.847 116.5,138.5C 117.167,138.167 117.833,137.833 118.5,137.5C 120.759,136.577 122.759,135.244 124.5,133.5C 125.167,133.667 125.833,133.833 126.5,134C 125.748,134.671 125.414,135.504 125.5,136.5 Z"/></g>
<g><path style="opacity:0.616" fill="#a2a5a5" d="M 182.5,162.5 C 184.262,163.262 185.262,164.596 185.5,166.5C 184.167,165.833 183.167,164.833 182.5,163.5C 182.5,163.167 182.5,162.833 182.5,162.5 Z"/></g>
<g><path style="opacity:1" fill="#171f23" d="M 216.5,128.5 C 217.167,128.5 217.833,128.5 218.5,128.5C 218.427,130.027 219.094,131.027 220.5,131.5C 221.5,131.833 222.167,132.5 222.5,133.5C 222.427,135.027 223.094,136.027 224.5,136.5C 224.427,138.027 225.094,139.027 226.5,139.5C 225.855,142.547 226.855,144.713 229.5,146C 228.663,147.011 228.33,148.178 228.5,149.5C 229.5,149.5 230.5,149.5 231.5,149.5C 231.661,152.68 232.661,155.347 234.5,157.5C 234.565,160.428 235.232,163.095 236.5,165.5C 237.463,169.796 237.629,174.129 237,178.5C 236.963,183.582 235.797,188.249 233.5,192.5C 233.893,189.07 233.227,185.904 231.5,183C 232.167,182.333 232.833,181.667 233.5,181C 233.087,179.463 233.087,177.796 233.5,176C 232.976,173.587 231.976,171.42 230.5,169.5C 232.748,168.676 232.914,167.676 231,166.5C 229.595,167.731 228.429,169.064 227.5,170.5C 227.768,168.901 227.434,167.568 226.5,166.5C 225.399,162.503 224.232,158.503 223,154.5C 222.329,155.252 221.496,155.586 220.5,155.5C 218.5,155.5 216.5,155.5 214.5,155.5C 214.831,153.678 215.498,152.011 216.5,150.5C 217.973,149.928 219.307,149.095 220.5,148C 218.84,146.512 217.84,144.679 217.5,142.5C 221.262,137.869 220.596,133.702 215.5,130C 216.056,129.617 216.389,129.117 216.5,128.5 Z"/></g>
<g><path style="opacity:0.322" fill="#b0b3b3" d="M 234.5,157.5 C 236.04,159.838 236.706,162.505 236.5,165.5C 235.232,163.095 234.565,160.428 234.5,157.5 Z"/></g>
<g><path style="opacity:1" fill="#4e5252" d="M 158.5,164.5 C 156.635,167.787 154.968,171.12 153.5,174.5C 153.056,170.054 154.723,166.721 158.5,164.5 Z"/></g>
<g><path style="opacity:0.744" fill="#4a4f4f" d="M 115.5,168.5 C 119.833,169.167 124.167,169.833 128.5,170.5C 123.786,170.827 119.12,170.493 114.5,169.5C 114.624,168.893 114.957,168.56 115.5,168.5 Z"/></g>
<g><path style="opacity:0.98" fill="#414647" d="M 226.5,166.5 C 227.434,167.568 227.768,168.901 227.5,170.5C 223.445,170.176 219.445,170.509 215.5,171.5C 215.024,173.921 214.691,176.254 214.5,178.5C 210.887,176.176 210.553,173.343 213.5,170C 217.821,169.501 222.154,169.334 226.5,169.5C 226.5,168.5 226.5,167.5 226.5,166.5 Z"/></g>
<g><path style="opacity:0.978" fill="#2b3134" d="M 175.5,169.5 C 179.409,168.737 180.742,170.07 179.5,173.5C 179.846,174.696 180.346,174.696 181,173.5C 181.07,176.775 181.237,179.942 181.5,183C 178.893,185.105 175.893,185.938 172.5,185.5C 180.19,181.429 181.19,176.096 175.5,169.5 Z"/></g>
<g><path style="opacity:0.333" fill="#a1a6a6" d="M 214.5,178.5 C 218.833,178.5 223.167,178.5 227.5,178.5C 227.737,179.791 227.404,180.791 226.5,181.5C 222.768,179.869 218.768,178.869 214.5,178.5 Z"/></g>
<g><path style="opacity:1" fill="#585f62" d="M 153.5,180.5 C 154.473,180.987 155.473,181.487 156.5,182C 155.663,183.011 155.33,184.178 155.5,185.5C 154.069,184.22 153.402,182.553 153.5,180.5 Z"/></g>
<g><path style="opacity:0.541" fill="#acb0b0" d="M 163.5,180.5 C 164.906,180.973 165.573,181.973 165.5,183.5C 164.094,183.027 163.427,182.027 163.5,180.5 Z"/></g>
<g><path style="opacity:1" fill="#303639" d="M 188.5,179.5 C 187.408,187.261 183.075,192.261 175.5,194.5C 175.5,193.5 175.5,192.5 175.5,191.5C 177.288,191.785 178.955,191.452 180.5,190.5C 180.306,188.93 180.306,187.43 180.5,186C 181.833,185.667 183.167,185.333 184.5,185C 185,182.479 186.333,180.646 188.5,179.5 Z"/></g>
<g><path style="opacity:0.998" fill="#041017" d="M 233.5,192.5 C 230.637,195.061 229.304,198.394 229.5,202.5C 228.326,203.514 227.66,204.847 227.5,206.5C 226.094,206.973 225.427,207.973 225.5,209.5C 224.833,209.833 224.167,210.167 223.5,210.5C 223.631,209.761 223.464,209.094 223,208.5C 222.28,210.255 221.113,211.089 219.5,211C 219.5,209.667 219.5,208.333 219.5,207C 222.167,205.333 222.167,203.667 219.5,202C 221.967,199.957 221.967,197.79 219.5,195.5C 220.705,193.862 222.038,193.529 223.5,194.5C 224.429,193.311 224.762,191.978 224.5,190.5C 224.5,190.167 224.5,189.833 224.5,189.5C 225.117,189.389 225.617,189.056 226,188.5C 226.495,186.527 226.662,184.527 226.5,182.5C 226.5,182.167 226.5,181.833 226.5,181.5C 227.404,180.791 227.737,179.791 227.5,178.5C 223.167,178.5 218.833,178.5 214.5,178.5C 214.691,176.254 215.024,173.921 215.5,171.5C 219.445,170.509 223.445,170.176 227.5,170.5C 228.429,169.064 229.595,167.731 231,166.5C 232.914,167.676 232.748,168.676 230.5,169.5C 231.976,171.42 232.976,173.587 233.5,176C 233.087,177.796 233.087,179.463 233.5,181C 232.833,181.667 232.167,182.333 231.5,183C 233.227,185.904 233.893,189.07 233.5,192.5 Z"/></g>
<g><path style="opacity:0.522" fill="#8b9392" d="M 115.5,180.5 C 116.768,182.905 117.435,185.572 117.5,188.5C 115.96,186.162 115.294,183.495 115.5,180.5 Z"/></g>
<g><path style="opacity:0.914" fill="#6d7373" d="M 226.5,182.5 C 226.662,184.527 226.495,186.527 226,188.5C 225.617,189.056 225.117,189.389 224.5,189.5C 224.721,186.933 225.388,184.599 226.5,182.5 Z"/></g>
<g><path style="opacity:0.781" fill="#666a6c" d="M 98.5,104.5 C 99.3533,152.912 99.3533,201.246 98.5,249.5C 97.5084,242.352 97.175,235.019 97.5,227.5C 97.168,186.33 97.5014,145.33 98.5,104.5 Z"/></g>
<g><path style="opacity:0.875" fill="#676e70" d="M 128.5,191.5 C 125.689,191.571 123.022,192.238 120.5,193.5C 119.287,193.253 118.62,192.586 118.5,191.5C 121.774,190.872 125.108,190.872 128.5,191.5 Z"/></g>
<g><path style="opacity:0.384" fill="#a3a9a7" d="M 221.5,192.5 C 218.771,191.47 216.104,191.47 213.5,192.5C 213.97,191.307 214.97,190.64 216.5,190.5C 218.557,190.436 220.223,191.102 221.5,192.5 Z"/></g>
<g><path style="opacity:0.012" fill="#c0c4c4" d="M 108.5,191.5 C 109.738,193.214 110.405,195.214 110.5,197.5C 108.926,195.898 108.259,193.898 108.5,191.5 Z"/></g>
<g><path style="opacity:1" fill="#686b6c" d="M 128.5,191.5 C 130.163,195.207 128.829,197.207 124.5,197.5C 124.5,197.167 124.5,196.833 124.5,196.5C 125.467,195.194 126.801,194.527 128.5,194.5C 128.5,193.5 128.5,192.5 128.5,191.5 Z"/></g>
<g><path style="opacity:0.031" fill="#cfd1d3" d="M 162.5,192.5 C 166.674,194.064 171.007,194.731 175.5,194.5C 172.696,195.638 169.696,195.805 166.5,195C 164.68,194.8 163.347,193.966 162.5,192.5 Z"/></g>
<g><path style="opacity:1" fill="#4e5557" d="M 233.5,192.5 C 233.23,196.358 231.897,199.691 229.5,202.5C 229.304,198.394 230.637,195.061 233.5,192.5 Z"/></g>
<g><path style="opacity:0.082" fill="#b8bbb9" d="M 141.5,201.5 C 139.784,201.629 138.117,201.962 136.5,202.5C 137.879,200.403 139.545,200.07 141.5,201.5 Z"/></g>
<g><path style="opacity:0.627" fill="#939493" d="M 208.5,204.5 C 209.906,204.973 210.573,205.973 210.5,207.5C 209.094,207.027 208.427,206.027 208.5,204.5 Z"/></g>
<g><path style="opacity:0.137" fill="#bbc5c6" d="M 229.5,202.5 C 229.771,204.38 229.104,205.713 227.5,206.5C 227.66,204.847 228.326,203.514 229.5,202.5 Z"/></g>
<g><path style="opacity:1" fill="#151c20" d="M 124.5,196.5 C 124.5,196.833 124.5,197.167 124.5,197.5C 123.909,198.151 123.243,198.818 122.5,199.5C 123.127,200.417 123.461,201.417 123.5,202.5C 123.738,204.404 124.738,205.738 126.5,206.5C 127.482,207.141 128.482,207.807 129.5,208.5C 131.853,206.477 134.186,204.477 136.5,202.5C 138.117,201.962 139.784,201.629 141.5,201.5C 142.75,201.577 143.583,202.244 144,203.5C 144.765,205.066 144.598,206.399 143.5,207.5C 142.07,207.421 140.736,207.754 139.5,208.5C 138.252,210.459 136.585,211.959 134.5,213C 135.756,213.417 136.423,214.25 136.5,215.5C 137.5,216.833 138.5,218.167 139.5,219.5C 139.5,220.5 139.5,221.5 139.5,222.5C 139.966,224.201 139.966,225.701 139.5,227C 140.416,227.374 141.25,227.874 142,228.5C 143.337,227.235 144.837,226.735 146.5,227C 145.597,230.774 147.264,233.108 151.5,234C 150.944,234.383 150.611,234.883 150.5,235.5C 147.496,235.278 144.829,234.278 142.5,232.5C 142.027,231.094 141.027,230.427 139.5,230.5C 138.508,230.672 137.842,230.338 137.5,229.5C 137.027,228.094 136.027,227.427 134.5,227.5C 132.539,226.54 130.873,225.207 129.5,223.5C 129.167,222.5 128.5,221.833 127.5,221.5C 125.856,221.19 124.856,220.19 124.5,218.5C 124.167,217.5 123.5,216.833 122.5,216.5C 120.164,214.996 118.331,212.996 117,210.5C 114.279,206.392 112.113,202.059 110.5,197.5C 110.405,195.214 109.738,193.214 108.5,191.5C 106.825,188.493 106.159,185.16 106.5,181.5C 107.268,180.737 107.768,179.737 108,178.5C 108.273,180.101 108.773,181.601 109.5,183C 108.565,185.381 108.232,187.881 108.5,190.5C 111.136,191.035 113.303,192.368 115,194.5C 115.333,194.167 115.667,193.833 116,193.5C 116.492,194.549 116.326,195.549 115.5,196.5C 116.718,196.109 117.552,196.776 118,198.5C 119.897,196.984 122.064,196.317 124.5,196.5 Z"/></g>
<g><path style="opacity:0.612" fill="#8c9092" d="M 123.5,202.5 C 125.262,203.262 126.262,204.596 126.5,206.5C 124.738,205.738 123.738,204.404 123.5,202.5 Z"/></g>
<g><path style="opacity:1" fill="#20282b" d="M 224.5,190.5 C 224.762,191.978 224.429,193.311 223.5,194.5C 222.038,193.529 220.705,193.862 219.5,195.5C 221.967,197.79 221.967,199.957 219.5,202C 222.167,203.667 222.167,205.333 219.5,207C 219.5,208.333 219.5,209.667 219.5,211C 221.113,211.089 222.28,210.255 223,208.5C 223.464,209.094 223.631,209.761 223.5,210.5C 223.5,211.167 223.5,211.833 223.5,212.5C 223.5,213.167 223.167,213.5 222.5,213.5C 222.167,213.5 221.833,213.5 221.5,213.5C 220.07,213.579 218.736,213.246 217.5,212.5C 216.949,210.587 216.782,208.587 217,206.5C 216.617,207.056 216.117,207.389 215.5,207.5C 216.807,204.886 218.14,202.22 219.5,199.5C 217.5,198.167 215.5,196.833 213.5,195.5C 212.347,194.313 212.347,193.313 213.5,192.5C 216.104,191.47 218.771,191.47 221.5,192.5C 222.778,192.218 223.778,191.551 224.5,190.5 Z"/></g>
<g><path style="opacity:0.153" fill="#b8bfbf" d="M 227.5,206.5 C 227.573,208.027 226.906,209.027 225.5,209.5C 225.427,207.973 226.094,206.973 227.5,206.5 Z"/></g>
<g><path style="opacity:1" fill="#343b3d" d="M 143.5,207.5 C 141.906,210.764 139.573,213.431 136.5,215.5C 136.423,214.25 135.756,213.417 134.5,213C 136.585,211.959 138.252,210.459 139.5,208.5C 140.736,207.754 142.07,207.421 143.5,207.5 Z"/></g>
<g><path style="opacity:0.016" fill="#c5cccc" d="M 225.5,209.5 C 225.573,211.027 224.906,212.027 223.5,212.5C 223.5,211.833 223.5,211.167 223.5,210.5C 224.167,210.167 224.833,209.833 225.5,209.5 Z"/></g>
<g><path style="opacity:0.047" fill="#bec8c9" d="M 221.5,213.5 C 221.833,213.5 222.167,213.5 222.5,213.5C 222.262,215.404 221.262,216.738 219.5,217.5C 219.557,216.391 219.89,215.391 220.5,214.5C 221.167,214.5 221.5,214.167 221.5,213.5 Z"/></g>
<g><path style="opacity:0.004" fill="#c9cbcc" d="M 122.5,216.5 C 123.5,216.833 124.167,217.5 124.5,218.5C 123.167,218.5 122.5,217.833 122.5,216.5 Z"/></g>
<g><path style="opacity:0.767" fill="#828684" d="M 186.5,216.5 C 186.5,218.5 186.5,220.5 186.5,222.5C 185.661,221.359 184.994,220.026 184.5,218.5C 184.855,217.478 185.522,216.811 186.5,216.5 Z"/></g>
<g><path style="opacity:0.075" fill="#c7d1d1" d="M 228.5,217.5 C 228.665,220.85 228.498,224.183 228,227.5C 227.617,228.056 227.117,228.389 226.5,228.5C 227.026,224.688 227.693,221.021 228.5,217.5 Z"/></g>
<g><path style="opacity:1" fill="#1a2226" d="M 208.5,204.5 C 208.427,206.027 209.094,207.027 210.5,207.5C 211.75,207.577 212.583,208.244 213,209.5C 213.417,208.244 214.25,207.577 215.5,207.5C 216.117,207.389 216.617,207.056 217,206.5C 216.782,208.587 216.949,210.587 217.5,212.5C 218.736,213.246 220.07,213.579 221.5,213.5C 221.5,214.167 221.167,214.5 220.5,214.5C 219.141,215.007 218.141,216.007 217.5,217.5C 216.808,216.975 216.308,216.308 216,215.5C 215.117,218.1 213.617,220.267 211.5,222C 212.056,222.383 212.389,222.883 212.5,223.5C 210.738,223.643 209.071,223.309 207.5,222.5C 206.548,224.045 206.215,225.712 206.5,227.5C 204.42,228.044 202.42,228.878 200.5,230C 201.056,230.383 201.389,230.883 201.5,231.5C 200.486,232.674 199.153,233.34 197.5,233.5C 195.447,233.402 193.78,234.069 192.5,235.5C 182.69,239.374 172.69,240.374 162.5,238.5C 169.555,238.73 176.555,238.23 183.5,237C 182.167,236 180.833,235 179.5,234C 180.5,233.667 181.5,233.333 182.5,233C 180.754,232.529 179.087,231.862 177.5,231C 171.57,230.951 165.903,230.118 160.5,228.5C 167.826,229.703 175.159,229.703 182.5,228.5C 185.056,228.868 187.056,228.034 188.5,226C 188.361,224.699 187.695,223.866 186.5,223.5C 186.5,223.167 186.5,222.833 186.5,222.5C 186.5,220.5 186.5,218.5 186.5,216.5C 187.601,215.402 188.934,215.235 190.5,216C 191.965,218.43 193.298,220.93 194.5,223.5C 197.22,222.14 199.886,220.807 202.5,219.5C 205.332,219.058 206.332,217.725 205.5,215.5C 202.477,212.474 199.81,209.141 197.5,205.5C 200.577,199.179 204.244,198.846 208.5,204.5 Z"/></g>
<g><path style="opacity:0.627" fill="#868b8d" d="M 205.5,215.5 C 206.332,217.725 205.332,219.058 202.5,219.5C 203.5,218.167 204.5,216.833 205.5,215.5 Z"/></g>
<g><path style="opacity:0.806" fill="#585e5f" d="M 113.5,216.5 C 112.167,216.5 110.833,216.5 109.5,216.5C 108.956,220.673 109.623,224.506 111.5,228C 110.748,228.671 110.414,229.504 110.5,230.5C 109.883,230.389 109.383,230.056 109,229.5C 108.501,224.845 108.334,220.179 108.5,215.5C 110.415,215.216 112.081,215.549 113.5,216.5 Z"/></g>
<g><path style="opacity:0.957" fill="#393d40" d="M 220.5,214.5 C 219.89,215.391 219.557,216.391 219.5,217.5C 217.761,220.243 215.427,222.243 212.5,223.5C 212.389,222.883 212.056,222.383 211.5,222C 213.617,220.267 215.117,218.1 216,215.5C 216.308,216.308 216.808,216.975 217.5,217.5C 218.141,216.007 219.141,215.007 220.5,214.5 Z"/></g>
<g><path style="opacity:0.004" fill="#cbcecf" d="M 127.5,221.5 C 128.5,221.833 129.167,222.5 129.5,223.5C 128.167,223.5 127.5,222.833 127.5,221.5 Z"/></g>
<g><path style="opacity:1" fill="#313638" d="M 155.5,223.5 C 155.688,221.897 155.188,220.563 154,219.5C 152.108,220.617 151.275,222.284 151.5,224.5C 149.801,224.62 148.135,224.954 146.5,225.5C 144.573,223.707 142.239,222.707 139.5,222.5C 139.5,221.5 139.5,220.5 139.5,219.5C 142.229,220.637 144.896,221.97 147.5,223.5C 148.919,221.664 150.086,219.664 151,217.5C 153.864,214.674 156.031,215.174 157.5,219C 157.101,220.728 156.434,222.228 155.5,223.5 Z"/></g>
<g><path style="opacity:1" fill="#363d40" d="M 212.5,223.5 C 209.471,226.867 205.804,229.533 201.5,231.5C 201.389,230.883 201.056,230.383 200.5,230C 202.42,228.878 204.42,228.044 206.5,227.5C 206.215,225.712 206.548,224.045 207.5,222.5C 209.071,223.309 210.738,223.643 212.5,223.5 Z"/></g>
<g><path style="opacity:0.537" fill="#7f8587" d="M 186.5,223.5 C 187.695,223.866 188.361,224.699 188.5,226C 187.056,228.034 185.056,228.868 182.5,228.5C 184.019,227.59 185.685,226.757 187.5,226C 186.748,225.329 186.414,224.496 186.5,223.5 Z"/></g>
<g><path style="opacity:1" fill="#171d1f" d="M 113.5,216.5 C 114.477,219.287 114.81,222.287 114.5,225.5C 114.5,227.167 114.5,228.833 114.5,230.5C 113.167,230.5 111.833,230.5 110.5,230.5C 110.414,229.504 110.748,228.671 111.5,228C 109.623,224.506 108.956,220.673 109.5,216.5C 110.833,216.5 112.167,216.5 113.5,216.5 Z"/></g>
<g><path style="opacity:0.22" fill="#c2c7c8" d="M 155.5,223.5 C 155.433,224.959 155.766,226.292 156.5,227.5C 155.414,227.38 154.747,226.713 154.5,225.5C 154.543,224.584 154.876,223.917 155.5,223.5 Z"/></g>
<g><path style="opacity:0.424" fill="#9da1a2" d="M 134.5,227.5 C 136.027,227.427 137.027,228.094 137.5,229.5C 135.973,229.573 134.973,228.906 134.5,227.5 Z"/></g>
<g><path style="opacity:1" fill="#202629" d="M 233.5,227.5 C 231.468,228.048 230.468,229.381 230.5,231.5C 227.139,233.484 225.472,232.484 225.5,228.5C 225.833,228.5 226.167,228.5 226.5,228.5C 227.117,228.389 227.617,228.056 228,227.5C 228.498,224.183 228.665,220.85 228.5,217.5C 229.932,215.353 231.765,215.02 234,216.5C 234.81,220.358 234.643,224.024 233.5,227.5 Z"/></g>
<g><path style="opacity:0.999" fill="#484e4f" d="M 114.5,225.5 C 115.267,226.172 115.934,227.005 116.5,228C 119.251,228.943 121.917,229.776 124.5,230.5C 121.751,230.726 119.084,230.393 116.5,229.5C 115.027,231.169 114.694,232.836 115.5,234.5C 113.251,233.92 111.585,232.587 110.5,230.5C 111.833,230.5 113.167,230.5 114.5,230.5C 114.5,228.833 114.5,227.167 114.5,225.5 Z"/></g>
<g><path style="opacity:0.994" fill="#1e2326" d="M 124.5,230.5 C 126.582,231.585 126.916,233.085 125.5,235C 121.973,235.808 118.64,235.641 115.5,234.5C 114.694,232.836 115.027,231.169 116.5,229.5C 119.084,230.393 121.751,230.726 124.5,230.5 Z"/></g>
<g><path style="opacity:1" fill="#484f52" d="M 233.5,227.5 C 232.857,230.988 230.857,233.488 227.5,235C 223.642,235.81 219.976,235.643 216.5,234.5C 219.518,234.665 222.518,234.498 225.5,234C 223.609,231.198 220.942,230.032 217.5,230.5C 220.003,229.629 222.67,228.963 225.5,228.5C 225.472,232.484 227.139,233.484 230.5,231.5C 230.468,229.381 231.468,228.048 233.5,227.5 Z"/></g>
<g><path style="opacity:0.286" fill="#a8adac" d="M 139.5,230.5 C 141.027,230.427 142.027,231.094 142.5,232.5C 140.973,232.573 139.973,231.906 139.5,230.5 Z"/></g>
<g><path style="opacity:1" fill="#091319" d="M 155.5,223.5 C 154.876,223.917 154.543,224.584 154.5,225.5C 154.747,226.713 155.414,227.38 156.5,227.5C 158.099,227.232 159.432,227.566 160.5,228.5C 165.903,230.118 171.57,230.951 177.5,231C 179.087,231.862 180.754,232.529 182.5,233C 181.5,233.333 180.5,233.667 179.5,234C 180.833,235 182.167,236 183.5,237C 176.555,238.23 169.555,238.73 162.5,238.5C 160.708,238.634 159.042,238.301 157.5,237.5C 155.485,236.076 153.152,235.41 150.5,235.5C 150.611,234.883 150.944,234.383 151.5,234C 147.264,233.108 145.597,230.774 146.5,227C 144.837,226.735 143.337,227.235 142,228.5C 141.25,227.874 140.416,227.374 139.5,227C 139.966,225.701 139.966,224.201 139.5,222.5C 142.239,222.707 144.573,223.707 146.5,225.5C 148.135,224.954 149.801,224.62 151.5,224.5C 151.275,222.284 152.108,220.617 154,219.5C 155.188,220.563 155.688,221.897 155.5,223.5 Z"/></g>
<g><path style="opacity:0.765" fill="#8a8b8b" d="M 217.5,230.5 C 217.443,231.609 217.11,232.609 216.5,233.5C 215.285,232.221 215.618,231.221 217.5,230.5 Z"/></g>
<g><path style="opacity:1" fill="#0d1316" d="M 217.5,230.5 C 220.942,230.032 223.609,231.198 225.5,234C 222.518,234.498 219.518,234.665 216.5,234.5C 216.5,234.167 216.5,233.833 216.5,233.5C 217.11,232.609 217.443,231.609 217.5,230.5 Z"/></g>
<g><path style="opacity:0.102" fill="#c4c6c7" d="M 197.5,233.5 C 196.22,234.931 194.553,235.598 192.5,235.5C 193.78,234.069 195.447,233.402 197.5,233.5 Z"/></g>
<g><path style="opacity:0.686" fill="#727778" d="M 150.5,235.5 C 153.152,235.41 155.485,236.076 157.5,237.5C 154.848,237.59 152.515,236.924 150.5,235.5 Z"/></g>
<g><path style="opacity:0.8" fill="#505455" d="M 175.5,243.5 C 183.343,242.18 191.343,242.18 199.5,243.5C 201.096,246.567 200.763,249.234 198.5,251.5C 198.5,248.833 198.5,246.167 198.5,243.5C 190.833,243.5 183.167,243.5 175.5,243.5 Z"/></g>
<g><path style="opacity:1" fill="#192023" d="M 175.5,243.5 C 183.167,243.5 190.833,243.5 198.5,243.5C 198.5,246.167 198.5,248.833 198.5,251.5C 191.167,252.833 183.833,252.833 176.5,251.5C 175.612,248.946 175.279,246.279 175.5,243.5 Z"/></g>
<g><path style="opacity:0.253" fill="#babdbf" d="M 209.5,243.5 C 209.279,246.279 209.612,248.946 210.5,251.5C 209.252,250.666 208.585,249.333 208.5,247.5C 208.511,245.955 208.844,244.622 209.5,243.5 Z"/></g>
<g><path style="opacity:0.408" fill="#a3a5a3" d="M 175.5,243.5 C 175.279,246.279 175.612,248.946 176.5,251.5C 175.252,250.666 174.585,249.333 174.5,247.5C 174.511,245.955 174.844,244.622 175.5,243.5 Z"/></g>
<g><path style="opacity:1" fill="#212629" d="M 210.5,251.5 C 209.612,248.946 209.279,246.279 209.5,243.5C 217.323,242.344 225.323,242.177 233.5,243C 235.036,246.24 234.703,249.24 232.5,252C 224.988,252.822 217.655,252.655 210.5,251.5 Z"/></g>
<g><path style="opacity:1" fill="#091217" d="M 131.5,242.5 C 132.403,245.391 132.736,248.391 132.5,251.5C 125.159,251.666 117.826,251.5 110.5,251C 109.565,248.619 109.232,246.119 109.5,243.5C 116.648,242.508 123.981,242.175 131.5,242.5 Z"/></g>
<g><path style="opacity:0.747" fill="#848584" d="M 131.5,242.5 C 133.735,243.286 134.735,244.952 134.5,247.5C 134.66,249.355 133.993,250.688 132.5,251.5C 132.736,248.391 132.403,245.391 131.5,242.5 Z"/></g>
<g><path style="opacity:0.998" fill="#21282c" d="M 143.5,242.5 C 151.174,242.334 158.841,242.5 166.5,243C 167.783,245.795 167.783,248.628 166.5,251.5C 158.883,252.633 151.216,252.8 143.5,252C 142.208,248.835 142.208,245.668 143.5,242.5 Z"/></g>
<g><path style="opacity:0.131" fill="#c4c6c6" d="M 109.5,243.5 C 109.232,246.119 109.565,248.619 110.5,251C 117.826,251.5 125.159,251.666 132.5,251.5C 125.011,252.656 117.345,252.822 109.5,252C 108.183,249.063 108.183,246.23 109.5,243.5 Z"/></g>
<g><path style="opacity:0.337" fill="#a8abab" d="M 243.5,251.5 C 243.573,253.027 242.906,254.027 241.5,254.5C 241.427,252.973 242.094,251.973 243.5,251.5 Z"/></g>
<g><path style="opacity:0.573" fill="#929797" d="M 99.5,252.5 C 101.167,253.5 102.5,254.833 103.5,256.5C 101.167,256.167 99.8333,254.833 99.5,252.5 Z"/></g>
<g><path style="opacity:0.999" fill="#4b5152" d="M 90.5,255.5 C 90.8333,255.5 91.1667,255.5 91.5,255.5C 92.209,256.404 93.209,256.737 94.5,256.5C 94.3433,257.873 94.51,259.207 95,260.5C 96.7198,261.384 97.8865,262.717 98.5,264.5C 94.4351,262.767 91.7684,259.767 90.5,255.5 Z"/></g>
<g><path style="opacity:1" fill="#131b1f" d="M 97.5,227.5 C 97.175,235.019 97.5084,242.352 98.5,249.5C 99.404,250.209 99.7373,251.209 99.5,252.5C 99.8333,254.833 101.167,256.167 103.5,256.5C 105.179,256.892 106.846,257.392 108.5,258C 150.165,258.5 191.832,258.667 233.5,258.5C 233.611,259.117 233.944,259.617 234.5,260C 213.833,260.333 193.167,260.667 172.5,261C 175.217,263.025 178.217,264.525 181.5,265.5C 184.167,264.833 186.833,264.167 189.5,263.5C 193.548,264.697 197.715,265.364 202,265.5C 212.271,265.511 222.271,264.511 232,262.5C 233,265.167 234,265.167 235,262.5C 236.145,263.684 237.312,263.684 238.5,262.5C 239.234,263.708 239.567,265.041 239.5,266.5C 193.833,266.5 148.167,266.5 102.5,266.5C 100.62,266.771 99.287,266.104 98.5,264.5C 97.8865,262.717 96.7198,261.384 95,260.5C 94.51,259.207 94.3433,257.873 94.5,256.5C 93.209,256.737 92.209,256.404 91.5,255.5C 92.1174,255.389 92.6174,255.056 93,254.5C 93.3333,243.833 93.6667,233.167 94,222.5C 95.683,223.887 96.8496,225.553 97.5,227.5 Z"/></g>
<g><path style="opacity:0.992" fill="#585b5b" d="M 239.5,256.5 C 238.448,258.256 236.781,258.923 234.5,258.5C 235.93,257.463 237.597,256.796 239.5,256.5 Z"/></g>
<g><path style="opacity:1" fill="#030f17" d="M 239.5,256.5 C 240.167,256.5 240.833,256.5 241.5,256.5C 242.73,257.606 243.896,258.606 245,259.5C 246.011,258.663 247.178,258.33 248.5,258.5C 247.047,259.849 246.047,261.515 245.5,263.5C 243.914,262.852 242.247,262.352 240.5,262C 244.19,261.576 244.357,260.742 241,259.5C 238.898,260.12 238.065,261.12 238.5,262.5C 237.312,263.684 236.145,263.684 235,262.5C 234,265.167 233,265.167 232,262.5C 222.271,264.511 212.271,265.511 202,265.5C 197.715,265.364 193.548,264.697 189.5,263.5C 186.833,264.167 184.167,264.833 181.5,265.5C 178.217,264.525 175.217,263.025 172.5,261C 193.167,260.667 213.833,260.333 234.5,260C 233.944,259.617 233.611,259.117 233.5,258.5C 233.833,258.5 234.167,258.5 234.5,258.5C 236.781,258.923 238.448,258.256 239.5,256.5 Z"/></g>
<g><path style="opacity:0.929" fill="#5c6262" d="M 251.5,256.5 C 250.19,259.473 248.19,261.807 245.5,263.5C 246.047,261.515 247.047,259.849 248.5,258.5C 248.821,256.952 249.821,256.285 251.5,256.5 Z"/></g>
<g><path style="opacity:0.969" fill="#464d4f" d="M 245.5,263.5 C 243.351,265.746 240.684,267.246 237.5,268C 193.5,268.667 149.5,268.667 105.5,268C 104.263,267.768 103.263,267.268 102.5,266.5C 148.167,266.5 193.833,266.5 239.5,266.5C 239.567,265.041 239.234,263.708 238.5,262.5C 238.065,261.12 238.898,260.12 241,259.5C 244.357,260.742 244.19,261.576 240.5,262C 242.247,262.352 243.914,262.852 245.5,263.5 Z"/></g>
<g><path style="opacity:0.82" fill="#737675" d="M 99.5,274.5 C 101.288,273.378 103.288,273.211 105.5,274C 106.791,275.292 106.791,276.458 105.5,277.5C 105.586,276.504 105.252,275.671 104.5,275C 102.866,274.506 101.199,274.34 99.5,274.5 Z"/></g>
<g><path style="opacity:0.999" fill="#161a1a" d="M 99.5,274.5 C 101.199,274.34 102.866,274.506 104.5,275C 105.252,275.671 105.586,276.504 105.5,277.5C 103.621,278.341 101.621,278.675 99.5,278.5C 98.3143,277.039 98.3143,275.705 99.5,274.5 Z"/></g>
<g><path style="opacity:1" fill="#292c2c" d="M 241.5,273.5 C 242.301,275.042 242.634,276.708 242.5,278.5C 237.673,280.69 235.673,279.023 236.5,273.5C 238.167,273.5 239.833,273.5 241.5,273.5 Z"/></g>
<g><path style="opacity:0.796" fill="#7e7e7f" d="M 111.5,273.5 C 110.699,275.042 110.366,276.708 110.5,278.5C 107.695,276.244 108.028,274.577 111.5,273.5 Z"/></g>
<g><path style="opacity:0.843" fill="#7d7e7d" d="M 231.5,273.5 C 233.922,275.286 233.922,276.952 231.5,278.5C 231.5,276.833 231.5,275.167 231.5,273.5 Z"/></g>
<g><path style="opacity:0.522" fill="#9a9c99" d="M 241.5,273.5 C 242.649,273.791 243.316,274.624 243.5,276C 243.472,277.07 243.139,277.903 242.5,278.5C 242.634,276.708 242.301,275.042 241.5,273.5 Z"/></g>
<g><path style="opacity:0.969" fill="#2a3035" d="M 231.5,273.5 C 231.5,275.167 231.5,276.833 231.5,278.5C 191.167,279.833 150.833,279.833 110.5,278.5C 110.366,276.708 110.699,275.042 111.5,273.5C 151.402,272.171 191.402,272.171 231.5,273.5 Z"/></g>
<g><path style="opacity:0.471" fill="#a0a3a2" d="M 105.5,277.5 C 105.03,278.693 104.03,279.36 102.5,279.5C 101.274,279.48 100.274,279.147 99.5,278.5C 101.621,278.675 103.621,278.341 105.5,277.5 Z"/></g>
</svg>
