<?xml version="1.0" encoding="UTF-8"?>
<!DOCTYPE svg PUBLIC "-//W3C//DTD SVG 1.1//EN" "http://www.w3.org/Graphics/SVG/1.1/DTD/svg11.dtd">
<svg xmlns="http://www.w3.org/2000/svg" version="1.1" width="351px" height="341px" style="shape-rendering:geometricPrecision; text-rendering:geometricPrecision; image-rendering:optimizeQuality; fill-rule:evenodd; clip-rule:evenodd" xmlns:xlink="http://www.w3.org/1999/xlink">
<g><path style="opacity:1" fill="#12151d" d="M 242.5,99.5 C 241.609,98.8902 240.609,98.5569 239.5,98.5C 237.901,98.7678 236.568,98.4345 235.5,97.5C 194.337,96.5014 153.003,96.168 111.5,96.5C 108.563,94.7747 106.397,95.4414 105,98.5C 103.599,94.6155 102.099,90.9489 100.5,87.5C 100.846,86.3044 101.346,86.3044 102,87.5C 102.513,86.4734 103.013,85.4734 103.5,84.5C 148.815,83.359 194.148,83.1923 239.5,84C 239.919,88.8321 242.919,90.9987 248.5,90.5C 249.137,93.6352 248.471,96.6352 246.5,99.5C 245.167,99.5 243.833,99.5 242.5,99.5 Z"/></g>
<g><path style="opacity:1" fill="#5e5f65" d="M 262.5,101.5 C 260.726,100.119 259.226,100.452 258,102.5C 257.3,100.968 256.134,99.968 254.5,99.5C 251.839,101.61 250.839,104.11 251.5,107C 249.839,149.451 248.839,191.951 248.5,234.5C 248.667,192.499 248.5,150.499 248,108.5C 246.727,105.403 244.893,102.736 242.5,100.5C 242.5,100.167 242.5,99.8333 242.5,99.5C 243.833,99.5 245.167,99.5 246.5,99.5C 248.471,96.6352 249.137,93.6352 248.5,90.5C 242.919,90.9987 239.919,88.8321 239.5,84C 194.148,83.1923 148.815,83.359 103.5,84.5C 105.877,83.1127 108.543,82.2794 111.5,82C 153.5,81.3333 195.5,81.3333 237.5,82C 249.517,83.8573 257.85,90.3573 262.5,101.5 Z"/></g>
<g><path style="opacity:0.365" fill="#acadb2" d="M 111.5,96.5 C 153.003,96.168 194.337,96.5014 235.5,97.5C 193.699,97.603 151.699,97.9363 109.5,98.5C 110.167,97.8333 110.833,97.1667 111.5,96.5 Z"/></g>
<g><path style="opacity:1" fill="#1d1f27" d="M 103.5,84.5 C 103.013,85.4734 102.513,86.4734 102,87.5C 101.346,86.3044 100.846,86.3044 100.5,87.5C 102.099,90.9489 103.599,94.6155 105,98.5C 106.397,95.4414 108.563,94.7747 111.5,96.5C 110.833,97.1667 110.167,97.8333 109.5,98.5C 105.5,100.5 102.5,103.5 100.5,107.5C 99.7784,107.918 99.2784,108.584 99,109.5C 98.3333,150.833 98.3333,192.167 99,233.5C 99.2321,234.737 99.7321,235.737 100.5,236.5C 100.5,236.833 100.5,237.167 100.5,237.5C 100.427,239.027 101.094,240.027 102.5,240.5C 104.5,242.167 106.5,243.833 108.5,245.5C 109.167,246.167 109.833,246.833 110.5,247.5C 106.634,247.729 103.134,246.729 100,244.5C 99.586,244.957 99.086,245.291 98.5,245.5C 96.4228,244.012 95.4228,242.012 95.5,239.5C 94.1667,239.5 92.8333,239.5 91.5,239.5C 91.5163,246.32 94.5163,251.153 100.5,254C 101.872,255.242 102.872,256.742 103.5,258.5C 105.022,259.562 106.688,260.229 108.5,260.5C 153.5,260.5 198.5,260.5 243.5,260.5C 197.335,261.665 151.002,261.832 104.5,261C 103.473,260.487 102.473,259.987 101.5,259.5C 101.027,258.094 100.027,257.427 98.5,257.5C 90.3181,252.465 85.4848,245.132 84,235.5C 83.3333,193.5 83.3333,151.5 84,109.5C 85.8326,97.5034 92.3326,89.1701 103.5,84.5 Z"/></g>
<g><path style="opacity:0.455" fill="#8d8f95" d="M 239.5,98.5 C 240.609,98.5569 241.609,98.8902 242.5,99.5C 242.5,99.8333 242.5,100.167 242.5,100.5C 240.973,100.573 239.973,99.9063 239.5,98.5 Z"/></g>
<g><path style="opacity:1" fill="#13151d" d="M 262.5,101.5 C 262.41,104.152 263.076,106.485 264.5,108.5C 264.667,152.835 264.5,197.168 264,241.5C 263.392,243.066 262.558,244.4 261.5,245.5C 259.194,244.215 257.361,244.882 256,247.5C 256,248.833 256,250.167 256,251.5C 254.989,250.663 253.822,250.33 252.5,250.5C 252.587,253.598 252.087,253.932 251,251.5C 250.316,252.784 250.483,253.951 251.5,255C 249.286,256.273 246.953,257.273 244.5,258C 245.598,258.77 245.598,259.603 244.5,260.5C 244.167,260.5 243.833,260.5 243.5,260.5C 198.5,260.5 153.5,260.5 108.5,260.5C 107.321,258.493 107.821,258.16 110,259.5C 111.009,257.975 111.509,256.308 111.5,254.5C 119.528,254.169 127.528,254.502 135.5,255.5C 133.773,256.694 131.94,256.694 130,255.5C 129.5,256 129,256.5 128.5,257C 164.166,257.799 199.833,258.132 235.5,258C 236.938,257.781 238.271,257.281 239.5,256.5C 237.305,255.231 235.139,255.231 233,256.5C 231.007,254.594 231.507,253.427 234.5,253C 233.304,252.346 233.304,251.846 234.5,251.5C 235.736,252.246 237.07,252.579 238.5,252.5C 238.649,251.448 238.483,250.448 238,249.5C 237.086,250.654 236.253,250.487 235.5,249C 193.998,248.833 152.665,248.333 111.5,247.5C 152.833,247.5 194.167,247.5 235.5,247.5C 237.698,247.88 239.365,247.213 240.5,245.5C 242.027,245.573 243.027,244.906 243.5,243.5C 243.833,242.5 244.5,241.833 245.5,241.5C 246.906,241.027 247.573,240.027 247.5,238.5C 247.833,237.167 248.167,235.833 248.5,234.5C 248.839,191.951 249.839,149.451 251.5,107C 250.839,104.11 251.839,101.61 254.5,99.5C 256.134,99.968 257.3,100.968 258,102.5C 259.226,100.452 260.726,100.119 262.5,101.5 Z"/></g>
<g><path style="opacity:0.584" fill="#8e8e93" d="M 262.5,101.5 C 264.163,103.438 264.829,105.772 264.5,108.5C 263.076,106.485 262.41,104.152 262.5,101.5 Z"/></g>
<g><path style="opacity:0.998" fill="#2b2c33" d="M 168.5,114.5 C 171.498,124.695 167.665,130.695 157,132.5C 151.956,132.244 148.456,129.911 146.5,125.5C 148.374,127.128 150.374,127.462 152.5,126.5C 153.275,128.475 154.609,129.309 156.5,129C 155.167,128 155.167,127 156.5,126C 151.765,124.19 151.432,121.69 155.5,118.5C 157.049,116.595 158.882,116.261 161,117.5C 161.333,116.833 161.667,116.167 162,115.5C 164.849,118.868 165.183,122.534 163,126.5C 161.844,125.007 161.01,125.174 160.5,127C 160.833,127.5 161.167,128 161.5,128.5C 162.736,127.754 164.07,127.421 165.5,127.5C 165.275,125.284 166.108,123.617 168,122.5C 168.497,119.854 168.664,117.187 168.5,114.5 Z M 155.5,118.5 C 160.833,119.5 160.833,120.5 155.5,121.5C 155.5,120.5 155.5,119.5 155.5,118.5 Z"/></g>
<g><path style="opacity:1" fill="#2c2e34" d="M 212.5,122.5 C 213.974,123.675 215.64,124.675 217.5,125.5C 214.872,127.633 212.039,127.966 209,126.5C 208.517,127.448 208.351,128.448 208.5,129.5C 210.735,129.205 212.735,129.539 214.5,130.5C 213.833,130.5 213.5,130.833 213.5,131.5C 206.725,135.988 205.725,141.655 210.5,148.5C 209.504,148.414 208.671,148.748 208,149.5C 204.535,145.802 203.535,141.468 205,136.5C 203.721,134.063 202.221,133.563 200.5,135C 201.167,135.333 201.833,135.667 202.5,136C 201.289,137.113 201.289,138.28 202.5,139.5C 201.997,142.509 200.997,145.342 199.5,148C 200.736,148.326 202.07,149.326 203.5,151C 202.627,152.045 201.627,152.878 200.5,153.5C 194.314,142.97 195.647,133.47 204.5,125C 206.909,123.293 209.575,122.46 212.5,122.5 Z"/></g>
<g><path style="opacity:0.51" fill="#72747a" d="M 213.5,131.5 C 213.5,130.833 213.833,130.5 214.5,130.5C 219.118,129.975 220.118,131.308 217.5,134.5C 216.675,135.386 215.675,135.719 214.5,135.5C 215.29,134.206 216.29,133.039 217.5,132C 216.207,131.51 214.873,131.343 213.5,131.5 Z"/></g>
<g><path style="opacity:0.504" fill="#909094" d="M 212.5,122.5 C 219.648,121.508 226.981,121.175 234.5,121.5C 234.826,129.684 234.492,137.684 233.5,145.5C 233.5,144.833 233.5,144.167 233.5,143.5C 233.5,136.5 233.5,129.5 233.5,122.5C 226.5,122.5 219.5,122.5 212.5,122.5 Z"/></g>
<g><path style="opacity:0.737" fill="#8e9193" d="M 179.5,133.5 C 180.906,133.973 181.573,134.973 181.5,136.5C 180.094,136.027 179.427,135.027 179.5,133.5 Z"/></g>
<g><path style="opacity:0.995" fill="#3e3e45" d="M 233.5,143.5 C 233.5,144.167 233.5,144.833 233.5,145.5C 232.916,151.344 229.916,155.344 224.5,157.5C 226.547,155.433 226.547,153.6 224.5,152C 226,149.833 227.167,150 228,152.5C 228.71,151.027 229.876,150.36 231.5,150.5C 231.301,147.989 230.968,145.822 230.5,144C 231.448,143.517 232.448,143.351 233.5,143.5 Z"/></g>
<g><path style="opacity:1" fill="#15181f" d="M 212.5,122.5 C 219.5,122.5 226.5,122.5 233.5,122.5C 233.5,129.5 233.5,136.5 233.5,143.5C 232.448,143.351 231.448,143.517 230.5,144C 230.968,145.822 231.301,147.989 231.5,150.5C 229.876,150.36 228.71,151.027 228,152.5C 227.167,150 226,149.833 224.5,152C 226.547,153.6 226.547,155.433 224.5,157.5C 219.547,158.329 214.547,158.663 209.5,158.5C 208.167,159.5 206.833,160.5 205.5,161.5C 204.167,161.5 202.833,161.5 201.5,161.5C 201.5,162.5 201.5,163.5 201.5,164.5C 199.089,164.137 197.589,165.137 197,167.5C 196.5,167 196,166.5 195.5,166C 198.064,164.149 198.064,162.316 195.5,160.5C 196.274,159.289 197.107,159.289 198,160.5C 200.782,158.647 201.615,156.313 200.5,153.5C 201.627,152.878 202.627,152.045 203.5,151C 202.07,149.326 200.736,148.326 199.5,148C 200.997,145.342 201.997,142.509 202.5,139.5C 201.289,138.28 201.289,137.113 202.5,136C 201.833,135.667 201.167,135.333 200.5,135C 202.221,133.563 203.721,134.063 205,136.5C 203.535,141.468 204.535,145.802 208,149.5C 208.671,148.748 209.504,148.414 210.5,148.5C 212.117,149.972 214.117,150.639 216.5,150.5C 217.833,150.333 219.167,150.167 220.5,150C 221.056,149.617 221.389,149.117 221.5,148.5C 222.512,147.128 223.512,145.795 224.5,144.5C 225.797,142.307 225.797,139.973 224.5,137.5C 223.893,137.624 223.56,137.957 223.5,138.5C 222.5,138.833 221.833,139.5 221.5,140.5C 220.167,141.167 219.167,142.167 218.5,143.5C 216.833,143.5 215.167,143.5 213.5,143.5C 211.403,142.121 211.07,140.455 212.5,138.5C 213.906,138.027 214.573,137.027 214.5,135.5C 215.675,135.719 216.675,135.386 217.5,134.5C 220.118,131.308 219.118,129.975 214.5,130.5C 212.735,129.539 210.735,129.205 208.5,129.5C 208.351,128.448 208.517,127.448 209,126.5C 212.039,127.966 214.872,127.633 217.5,125.5C 215.64,124.675 213.974,123.675 212.5,122.5 Z"/></g>
<g><path style="opacity:0.329" fill="#878a8e" d="M 210.5,148.5 C 214.184,149.728 217.85,149.728 221.5,148.5C 221.389,149.117 221.056,149.617 220.5,150C 219.167,150.167 217.833,150.333 216.5,150.5C 214.117,150.639 212.117,149.972 210.5,148.5 Z"/></g>
<g><path style="opacity:0.788" fill="#868789" d="M 213.5,143.5 C 215.167,143.5 216.833,143.5 218.5,143.5C 216.833,146.167 215.167,146.167 213.5,143.5 Z"/></g>
<g><path style="opacity:0.004" fill="#ced0d2" d="M 221.5,140.5 C 221.5,142.5 220.5,143.5 218.5,143.5C 219.167,142.167 220.167,141.167 221.5,140.5 Z"/></g>
<g><path style="opacity:0.106" fill="#c8c9cb" d="M 223.5,138.5 C 223.56,137.957 223.893,137.624 224.5,137.5C 225.797,139.973 225.797,142.307 224.5,144.5C 224.795,142.265 224.461,140.265 223.5,138.5 Z"/></g>
<g><path style="opacity:0.008" fill="#c4c6c9" d="M 223.5,138.5 C 223.5,139.833 222.833,140.5 221.5,140.5C 221.833,139.5 222.5,138.833 223.5,138.5 Z"/></g>
<g><path style="opacity:0.733" fill="#909198" d="M 214.5,135.5 C 214.573,137.027 213.906,138.027 212.5,138.5C 212.427,136.973 213.094,135.973 214.5,135.5 Z"/></g>
<g><path style="opacity:0.408" fill="#b1b3b6" d="M 151.5,150.5 C 150.833,151.833 149.833,152.833 148.5,153.5C 148.5,151.5 149.5,150.5 151.5,150.5 Z"/></g>
<g><path style="opacity:0.678" fill="#5a5b5f" d="M 171.5,143.5 C 172.812,145.743 173.478,148.41 173.5,151.5C 173.478,154.59 172.812,157.257 171.5,159.5C 172.833,154.167 172.833,148.833 171.5,143.5 Z"/></g>
<g><path style="opacity:0.11" fill="#87888e" d="M 224.5,157.5 C 224.082,158.222 223.416,158.722 222.5,159C 217.98,159.814 213.646,159.647 209.5,158.5C 214.547,158.663 219.547,158.329 224.5,157.5 Z"/></g>
<g><path style="opacity:0.999" fill="#1b1d25" d="M 168.5,114.5 C 168.664,117.187 168.497,119.854 168,122.5C 166.108,123.617 165.275,125.284 165.5,127.5C 164.07,127.421 162.736,127.754 161.5,128.5C 161.167,128 160.833,127.5 160.5,127C 161.01,125.174 161.844,125.007 163,126.5C 165.183,122.534 164.849,118.868 162,115.5C 161.667,116.167 161.333,116.833 161,117.5C 158.882,116.261 157.049,116.595 155.5,118.5C 151.432,121.69 151.765,124.19 156.5,126C 155.167,127 155.167,128 156.5,129C 154.609,129.309 153.275,128.475 152.5,126.5C 150.374,127.462 148.374,127.128 146.5,125.5C 145.596,124.791 145.263,123.791 145.5,122.5C 145.5,120.833 145.5,119.167 145.5,117.5C 142.287,117.19 139.287,117.523 136.5,118.5C 136.5,135.833 136.5,153.167 136.5,170.5C 142.842,170.334 149.175,170.5 155.5,171C 156.056,171.383 156.389,171.883 156.5,172.5C 157.947,173.885 158.947,173.552 159.5,171.5C 160.376,171.631 161.043,171.298 161.5,170.5C 161.212,169.139 160.879,167.806 160.5,166.5C 161.825,165.047 162.658,165.381 163,167.5C 163.974,165.122 164.641,165.456 165,168.5C 167.045,166.957 168.545,167.29 169.5,169.5C 168.016,170.844 167.182,173.178 167,176.5C 166.465,174.729 165.631,174.396 164.5,175.5C 165.246,176.736 165.579,178.07 165.5,179.5C 164.668,181.725 165.668,183.058 168.5,183.5C 170.635,185.369 173.302,186.036 176.5,185.5C 176.427,187.027 177.094,188.027 178.5,188.5C 180.184,191.718 179.517,194.385 176.5,196.5C 173.246,196.793 170.246,196.126 167.5,194.5C 164.848,190.348 161.182,187.515 156.5,186C 154.959,184.629 153.625,183.129 152.5,181.5C 147.025,180.511 141.358,180.178 135.5,180.5C 135.5,188.833 135.5,197.167 135.5,205.5C 134.778,205.918 134.278,206.584 134,207.5C 133.774,204.905 133.274,202.405 132.5,200C 132.619,195.512 132.619,191.012 132.5,186.5C 131.749,187.376 131.249,188.376 131,189.5C 128.219,185.993 125.385,185.827 122.5,189C 120.866,189.494 119.199,189.66 117.5,189.5C 115.947,183.29 114.447,177.29 113,171.5C 112.749,173.433 112.249,175.266 111.5,177C 111.269,186.73 111.603,196.563 112.5,206.5C 114.321,207.728 115.321,209.394 115.5,211.5C 114.5,211.5 113.5,211.5 112.5,211.5C 112.605,216.886 114.105,217.553 117,213.5C 120.346,213.951 123.846,214.618 127.5,215.5C 124.5,215.5 121.5,215.5 118.5,215.5C 118.5,219.167 118.5,222.833 118.5,226.5C 121.167,226.5 123.833,226.5 126.5,226.5C 126.5,227.167 126.5,227.833 126.5,228.5C 123.161,228.89 119.827,229.39 116.5,230C 118.778,232.774 121.778,234.274 125.5,234.5C 129.368,230.925 133.535,230.592 138,233.5C 139,233.167 140,232.833 141,232.5C 152.38,234.401 163.88,234.735 175.5,233.5C 194.478,234.78 213.478,235.447 232.5,235.5C 193.598,236.829 154.598,236.829 115.5,235.5C 115.027,234.094 114.027,233.427 112.5,233.5C 110.577,194.142 109.91,154.475 110.5,114.5C 111.743,110.697 114.41,108.53 118.5,108C 132.5,107.333 146.5,107.333 160.5,108C 164.199,109.001 166.866,111.168 168.5,114.5 Z M 119.5,141.5 C 121.833,141.5 124.167,141.5 126.5,141.5C 126.5,146.5 126.5,151.5 126.5,156.5C 124.167,156.5 121.833,156.5 119.5,156.5C 119.5,151.5 119.5,146.5 119.5,141.5 Z M 155.5,118.5 C 155.5,119.5 155.5,120.5 155.5,121.5C 160.833,120.5 160.833,119.5 155.5,118.5 Z M 126.5,130.5 C 124.374,130.15 122.041,130.15 119.5,130.5C 119.5,126.5 119.5,122.5 119.5,118.5C 121.833,118.5 124.167,118.5 126.5,118.5C 126.5,122.5 126.5,126.5 126.5,130.5 Z M 119.5,167.5 C 121.833,167.5 124.167,167.5 126.5,167.5C 126.5,172.5 126.5,177.5 126.5,182.5C 124.167,182.5 121.833,182.5 119.5,182.5C 119.5,177.5 119.5,172.5 119.5,167.5 Z M 119.5,193.5 C 121.833,193.5 124.167,193.5 126.5,193.5C 126.5,197.5 126.5,201.5 126.5,205.5C 124.167,205.5 121.833,205.5 119.5,205.5C 119.5,201.5 119.5,197.5 119.5,193.5 Z"/></g>
<g><path style="opacity:0.122" fill="#d2d2d5" d="M 118.5,140.5 C 121.5,140.5 124.5,140.5 127.5,140.5C 127.5,146.167 127.5,151.833 127.5,157.5C 124.5,157.5 121.5,157.5 118.5,157.5C 118.5,151.833 118.5,146.167 118.5,140.5 Z M 119.5,141.5 C 119.5,146.5 119.5,151.5 119.5,156.5C 121.833,156.5 124.167,156.5 126.5,156.5C 126.5,151.5 126.5,146.5 126.5,141.5C 124.167,141.5 121.833,141.5 119.5,141.5 Z"/></g>
<g><path style="opacity:0.302" fill="#aaabae" d="M 126.5,130.5 C 126.5,126.5 126.5,122.5 126.5,118.5C 124.167,118.5 121.833,118.5 119.5,118.5C 119.5,122.5 119.5,126.5 119.5,130.5C 118.515,126.366 118.182,122.032 118.5,117.5C 121.5,117.5 124.5,117.5 127.5,117.5C 127.818,122.032 127.485,126.366 126.5,130.5 Z M 126.5,130.5 C 124.374,130.15 122.041,130.15 119.5,130.5C 119.5,126.5 119.5,122.5 119.5,118.5C 121.833,118.5 124.167,118.5 126.5,118.5C 126.5,122.5 126.5,126.5 126.5,130.5 Z"/></g>
<g><path style="opacity:0.678" fill="#75777a" d="M 136.5,118.5 C 139.287,117.523 142.287,117.19 145.5,117.5C 145.5,119.167 145.5,120.833 145.5,122.5C 144.566,121.432 144.232,120.099 144.5,118.5C 141.833,118.5 139.167,118.5 136.5,118.5 Z"/></g>
<g><path style="opacity:0.035" fill="#bbbcbe" d="M 148.5,159.5 C 149.833,160.167 150.833,161.167 151.5,162.5C 149.5,162.5 148.5,161.5 148.5,159.5 Z"/></g>
<g><path style="opacity:1" fill="#202228" d="M 179.5,133.5 C 179.427,135.027 180.094,136.027 181.5,136.5C 182.895,138.847 182.728,141.181 181,143.5C 180.333,147.5 180.333,151.5 181,155.5C 183.04,157.37 184.873,159.37 186.5,161.5C 186.958,164.309 188.291,164.976 190.5,163.5C 191.822,163.33 192.989,163.663 194,164.5C 194.655,166.628 195.489,168.628 196.5,170.5C 195.596,171.209 195.263,172.209 195.5,173.5C 199.042,173.813 202.375,173.479 205.5,172.5C 208.167,169.833 210.833,169.833 213.5,172.5C 215.194,175.589 214.528,178.089 211.5,180C 211.957,180.414 212.291,180.914 212.5,181.5C 211.246,181.568 209.913,182.234 208.5,183.5C 206.319,183.716 204.653,182.883 203.5,181C 199.167,180.667 194.833,180.333 190.5,180C 186.5,176 182.5,172 178.5,168C 177.135,168.143 175.802,168.643 174.5,169.5C 172.833,168.167 171.167,168.167 169.5,169.5C 168.545,167.29 167.045,166.957 165,168.5C 164.641,165.456 163.974,165.122 163,167.5C 162.658,165.381 161.825,165.047 160.5,166.5C 159.292,165.766 157.959,165.433 156.5,165.5C 156.5,164.5 156.5,163.5 156.5,162.5C 154.833,162.5 153.167,162.5 151.5,162.5C 150.833,161.167 149.833,160.167 148.5,159.5C 147.167,157.5 147.167,155.5 148.5,153.5C 149.833,152.833 150.833,151.833 151.5,150.5C 158.485,149.004 161.651,152.004 161,159.5C 162.667,161.167 164.333,162.833 166,164.5C 167.704,162.627 169.537,160.96 171.5,159.5C 172.812,157.257 173.478,154.59 173.5,151.5C 173.478,148.41 172.812,145.743 171.5,143.5C 167.884,137.738 169.551,134.071 176.5,132.5C 177.584,132.685 178.584,133.018 179.5,133.5 Z"/></g>
<g><path style="opacity:0.682" fill="#a2a2a5" d="M 186.5,161.5 C 187.605,162.6 188.938,163.267 190.5,163.5C 188.291,164.976 186.958,164.309 186.5,161.5 Z"/></g>
<g><path style="opacity:1" fill="#2e2f35" d="M 200.5,153.5 C 201.615,156.313 200.782,158.647 198,160.5C 197.107,159.289 196.274,159.289 195.5,160.5C 198.064,162.316 198.064,164.149 195.5,166C 196,166.5 196.5,167 197,167.5C 197.589,165.137 199.089,164.137 201.5,164.5C 201.5,163.5 201.5,162.5 201.5,161.5C 202.833,161.5 204.167,161.5 205.5,161.5C 202.833,164.833 199.833,167.833 196.5,170.5C 195.489,168.628 194.655,166.628 194,164.5C 192.989,163.663 191.822,163.33 190.5,163.5C 193.436,159.713 196.77,156.379 200.5,153.5 Z"/></g>
<g><path style="opacity:1" fill="#4b4c52" d="M 151.5,162.5 C 153.167,162.5 154.833,162.5 156.5,162.5C 156.5,163.5 156.5,164.5 156.5,165.5C 157.959,165.433 159.292,165.766 160.5,166.5C 160.879,167.806 161.212,169.139 161.5,170.5C 161.043,171.298 160.376,171.631 159.5,171.5C 157.541,167.874 154.874,164.874 151.5,162.5 Z"/></g>
<g><path style="opacity:0.302" fill="#b7b9bb" d="M 119.5,167.5 C 119.5,172.5 119.5,177.5 119.5,182.5C 121.833,182.5 124.167,182.5 126.5,182.5C 126.5,177.5 126.5,172.5 126.5,167.5C 127.488,172.64 127.821,177.974 127.5,183.5C 124.5,183.5 121.5,183.5 118.5,183.5C 118.179,177.974 118.512,172.64 119.5,167.5 Z M 119.5,167.5 C 121.833,167.5 124.167,167.5 126.5,167.5C 126.5,172.5 126.5,177.5 126.5,182.5C 124.167,182.5 121.833,182.5 119.5,182.5C 119.5,177.5 119.5,172.5 119.5,167.5 Z"/></g>
<g><path style="opacity:0.69" fill="#a1a2a7" d="M 159.5,171.5 C 158.947,173.552 157.947,173.885 156.5,172.5C 157.609,172.443 158.609,172.11 159.5,171.5 Z"/></g>
<g><path style="opacity:0.443" fill="#9a9b9e" d="M 196.5,170.5 C 198.988,172.388 201.988,173.055 205.5,172.5C 202.375,173.479 199.042,173.813 195.5,173.5C 195.263,172.209 195.596,171.209 196.5,170.5 Z"/></g>
<g><path style="opacity:1" fill="#484a50" d="M 174.5,169.5 C 172.234,173.436 169.234,176.769 165.5,179.5C 165.579,178.07 165.246,176.736 164.5,175.5C 165.631,174.396 166.465,174.729 167,176.5C 167.182,173.178 168.016,170.844 169.5,169.5C 171.167,168.167 172.833,168.167 174.5,169.5 Z"/></g>
<g><path style="opacity:1" fill="#535458" d="M 213.5,172.5 C 217.982,177.89 216.816,181.89 210,184.5C 209.235,184.43 208.735,184.097 208.5,183.5C 209.913,182.234 211.246,181.568 212.5,181.5C 212.291,180.914 211.957,180.414 211.5,180C 214.528,178.089 215.194,175.589 213.5,172.5 Z"/></g>
<g><path style="opacity:0.733" fill="#9c9da5" d="M 165.5,179.5 C 166.5,180.833 167.5,182.167 168.5,183.5C 165.668,183.058 164.668,181.725 165.5,179.5 Z"/></g>
<g><path style="opacity:0.628" fill="#83848a" d="M 152.5,181.5 C 147.167,181.5 141.833,181.5 136.5,181.5C 136.5,189.5 136.5,197.5 136.5,205.5C 136.5,205.833 136.5,206.167 136.5,206.5C 135.833,206.5 135.5,206.167 135.5,205.5C 135.5,197.167 135.5,188.833 135.5,180.5C 141.358,180.178 147.025,180.511 152.5,181.5 Z"/></g>
<g><path style="opacity:0.647" fill="#8f9092" d="M 168.5,183.5 C 171.28,184.078 173.947,184.745 176.5,185.5C 173.302,186.036 170.635,185.369 168.5,183.5 Z"/></g>
<g><path style="opacity:0.8" fill="#8b8c8d" d="M 176.5,185.5 C 177.906,185.973 178.573,186.973 178.5,188.5C 177.094,188.027 176.427,187.027 176.5,185.5 Z"/></g>
<g><path style="opacity:0.908" fill="#606266" d="M 110.5,114.5 C 109.91,154.475 110.577,194.142 112.5,233.5C 110.864,232.251 109.697,230.584 109,228.5C 108.333,191.167 108.333,153.833 109,116.5C 109.278,115.584 109.778,114.918 110.5,114.5 Z"/></g>
<g><path style="opacity:1" fill="#1b1d25" d="M 135.5,205.5 C 135.5,206.167 135.833,206.5 136.5,206.5C 162.833,206.5 189.167,206.5 215.5,206.5C 215.5,205.167 215.5,203.833 215.5,202.5C 219.062,195.307 224.729,192.974 232.5,195.5C 233.785,197.452 235.451,199.118 237.5,200.5C 239.011,202.476 239.844,204.809 240,207.5C 240.167,210.333 240.333,213.167 240.5,216C 240.634,220.758 239.968,225.258 238.5,229.5C 238.5,220.833 238.5,212.167 238.5,203.5C 236.523,204.149 234.69,204.149 233,203.5C 231.699,203.639 230.866,204.305 230.5,205.5C 229.833,205.5 229.167,205.5 228.5,205.5C 226.876,205.36 225.71,206.027 225,207.5C 224.501,213.491 224.334,219.491 224.5,225.5C 223.512,220.36 223.179,215.026 223.5,209.5C 218.488,209.08 213.488,208.913 208.5,209C 207.663,210.011 207.33,211.178 207.5,212.5C 196.831,211.999 186.164,211.833 175.5,212C 176.833,212.667 176.833,213.333 175.5,214C 189.006,214.169 202.34,214.669 215.5,215.5C 188.995,215.169 162.661,215.502 136.5,216.5C 136.5,219.5 136.5,222.5 136.5,225.5C 162.5,225.5 188.5,225.5 214.5,225.5C 214.853,227.635 214.02,228.968 212,229.5C 205.486,228.853 198.986,228.186 192.5,227.5C 191.749,228.376 191.249,229.376 191,230.5C 183.667,229.167 176.333,229.167 169,230.5C 159.594,230.11 150.26,229.11 141,227.5C 136.342,230.499 132.342,229.833 129,225.5C 128.623,226.942 127.79,227.942 126.5,228.5C 126.5,227.833 126.5,227.167 126.5,226.5C 127.482,223.038 127.815,219.371 127.5,215.5C 123.846,214.618 120.346,213.951 117,213.5C 114.105,217.553 112.605,216.886 112.5,211.5C 113.5,211.5 114.5,211.5 115.5,211.5C 115.321,209.394 114.321,207.728 112.5,206.5C 111.603,196.563 111.269,186.73 111.5,177C 112.249,175.266 112.749,173.433 113,171.5C 114.447,177.29 115.947,183.29 117.5,189.5C 119.199,189.66 120.866,189.494 122.5,189C 125.385,185.827 128.219,185.993 131,189.5C 131.249,188.376 131.749,187.376 132.5,186.5C 132.619,191.012 132.619,195.512 132.5,200C 133.274,202.405 133.774,204.905 134,207.5C 134.278,206.584 134.778,205.918 135.5,205.5 Z M 119.5,193.5 C 119.5,197.5 119.5,201.5 119.5,205.5C 121.833,205.5 124.167,205.5 126.5,205.5C 126.5,201.5 126.5,197.5 126.5,193.5C 124.167,193.5 121.833,193.5 119.5,193.5 Z M 228.5,205.5 C 229.46,212.078 229.793,218.745 229.5,225.5C 227.833,225.5 226.167,225.5 224.5,225.5C 224.334,219.491 224.501,213.491 225,207.5C 225.71,206.027 226.876,205.36 228.5,205.5 Z M 136.5,216.5 C 162.5,216.5 188.5,216.5 214.5,216.5C 214.5,219.5 214.5,222.5 214.5,225.5C 188.5,225.5 162.5,225.5 136.5,225.5C 136.5,222.5 136.5,219.5 136.5,216.5 Z"/></g>
<g><path style="opacity:0.277" fill="#a9aaad" d="M 118.5,192.5 C 121.5,192.5 124.5,192.5 127.5,192.5C 127.5,197.167 127.5,201.833 127.5,206.5C 124.5,206.5 121.5,206.5 118.5,206.5C 118.5,201.833 118.5,197.167 118.5,192.5 Z M 119.5,193.5 C 119.5,197.5 119.5,201.5 119.5,205.5C 121.833,205.5 124.167,205.5 126.5,205.5C 126.5,201.5 126.5,197.5 126.5,193.5C 124.167,193.5 121.833,193.5 119.5,193.5 Z"/></g>
<g><path style="opacity:0.667" fill="#87888c" d="M 167.5,194.5 C 170.246,196.126 173.246,196.793 176.5,196.5C 174.034,197.634 171.367,197.801 168.5,197C 167.748,196.329 167.414,195.496 167.5,194.5 Z"/></g>
<g><path style="opacity:0.957" fill="#818387" d="M 232.5,195.5 C 235.189,196.189 236.856,197.856 237.5,200.5C 235.451,199.118 233.785,197.452 232.5,195.5 Z"/></g>
<g><path style="opacity:0.836" fill="#424448" d="M 100.5,107.5 C 99.1722,150.504 99.1722,193.504 100.5,236.5C 99.7321,235.737 99.2321,234.737 99,233.5C 98.3333,192.167 98.3333,150.833 99,109.5C 99.2784,108.584 99.7784,107.918 100.5,107.5 Z"/></g>
<g><path style="opacity:0.353" fill="#a9aaad" d="M 215.5,202.5 C 215.5,203.833 215.5,205.167 215.5,206.5C 189.167,206.5 162.833,206.5 136.5,206.5C 136.5,206.167 136.5,205.833 136.5,205.5C 162.5,205.5 188.5,205.5 214.5,205.5C 214.263,204.209 214.596,203.209 215.5,202.5 Z"/></g>
<g><path style="opacity:1" fill="#12141d" d="M 238.5,229.5 C 238.5,229.833 238.5,230.167 238.5,230.5C 236.5,231.833 234.833,233.5 233.5,235.5C 233.167,235.5 232.833,235.5 232.5,235.5C 213.478,235.447 194.478,234.78 175.5,233.5C 163.88,234.735 152.38,234.401 141,232.5C 140,232.833 139,233.167 138,233.5C 133.535,230.592 129.368,230.925 125.5,234.5C 121.778,234.274 118.778,232.774 116.5,230C 119.827,229.39 123.161,228.89 126.5,228.5C 127.79,227.942 128.623,226.942 129,225.5C 132.342,229.833 136.342,230.499 141,227.5C 150.26,229.11 159.594,230.11 169,230.5C 176.333,229.167 183.667,229.167 191,230.5C 191.249,229.376 191.749,228.376 192.5,227.5C 198.986,228.186 205.486,228.853 212,229.5C 214.02,228.968 214.853,227.635 214.5,225.5C 215.479,222.375 215.813,219.042 215.5,215.5C 202.34,214.669 189.006,214.169 175.5,214C 176.833,213.333 176.833,212.667 175.5,212C 186.164,211.833 196.831,211.999 207.5,212.5C 207.33,211.178 207.663,210.011 208.5,209C 213.488,208.913 218.488,209.08 223.5,209.5C 223.179,215.026 223.512,220.36 224.5,225.5C 226.893,226.21 229.393,226.877 232,227.5C 230.66,220.386 230.16,213.053 230.5,205.5C 230.866,204.305 231.699,203.639 233,203.5C 234.69,204.149 236.523,204.149 238.5,203.5C 238.5,212.167 238.5,220.833 238.5,229.5 Z"/></g>
<g><path style="opacity:0.625" fill="#5f6065" d="M 228.5,205.5 C 229.167,205.5 229.833,205.5 230.5,205.5C 230.16,213.053 230.66,220.386 232,227.5C 229.393,226.877 226.893,226.21 224.5,225.5C 226.167,225.5 227.833,225.5 229.5,225.5C 229.793,218.745 229.46,212.078 228.5,205.5 Z"/></g>
<g><path style="opacity:0.296" fill="#b0b1b5" d="M 136.5,216.5 C 162.661,215.502 188.995,215.169 215.5,215.5C 215.813,219.042 215.479,222.375 214.5,225.5C 214.5,222.5 214.5,219.5 214.5,216.5C 188.5,216.5 162.5,216.5 136.5,216.5 Z"/></g>
<g><path style="opacity:0.305" fill="#aaacad" d="M 127.5,215.5 C 127.815,219.371 127.482,223.038 126.5,226.5C 123.833,226.5 121.167,226.5 118.5,226.5C 118.5,222.833 118.5,219.167 118.5,215.5C 121.5,215.5 124.5,215.5 127.5,215.5 Z M 119.5,216.5 C 121.833,216.5 124.167,216.5 126.5,216.5C 126.5,219.5 126.5,222.5 126.5,225.5C 124.167,225.5 121.833,225.5 119.5,225.5C 119.5,222.5 119.5,219.5 119.5,216.5 Z"/></g>
<g><path style="opacity:0.035" fill="#cacacb" d="M 238.5,230.5 C 237.833,233.167 236.167,234.833 233.5,235.5C 234.833,233.5 236.5,231.833 238.5,230.5 Z"/></g>
<g><path style="opacity:0.314" fill="#a3a6a9" d="M 112.5,233.5 C 114.027,233.427 115.027,234.094 115.5,235.5C 113.973,235.573 112.973,234.906 112.5,233.5 Z"/></g>
<g><path style="opacity:0.427" fill="#9c9da0" d="M 100.5,237.5 C 101.906,237.973 102.573,238.973 102.5,240.5C 101.094,240.027 100.427,239.027 100.5,237.5 Z"/></g>
<g><path style="opacity:0.471" fill="#919497" d="M 247.5,238.5 C 247.573,240.027 246.906,241.027 245.5,241.5C 245.427,239.973 246.094,238.973 247.5,238.5 Z"/></g>
<g><path style="opacity:0.698" fill="#919294" d="M 243.5,243.5 C 243.027,244.906 242.027,245.573 240.5,245.5C 240.973,244.094 241.973,243.427 243.5,243.5 Z"/></g>
<g><path style="opacity:1" fill="#12141e" d="M 110.5,247.5 C 110.833,247.5 111.167,247.5 111.5,247.5C 152.665,248.333 193.998,248.833 235.5,249C 236.253,250.487 237.086,250.654 238,249.5C 238.483,250.448 238.649,251.448 238.5,252.5C 237.07,252.579 235.736,252.246 234.5,251.5C 233.304,251.846 233.304,252.346 234.5,253C 231.507,253.427 231.007,254.594 233,256.5C 235.139,255.231 237.305,255.231 239.5,256.5C 238.271,257.281 236.938,257.781 235.5,258C 199.833,258.132 164.166,257.799 128.5,257C 129,256.5 129.5,256 130,255.5C 131.94,256.694 133.773,256.694 135.5,255.5C 127.528,254.502 119.528,254.169 111.5,254.5C 111.509,256.308 111.009,257.975 110,259.5C 107.821,258.16 107.321,258.493 108.5,260.5C 106.688,260.229 105.022,259.562 103.5,258.5C 102.872,256.742 101.872,255.242 100.5,254C 94.5163,251.153 91.5163,246.32 91.5,239.5C 92.8333,239.5 94.1667,239.5 95.5,239.5C 95.4228,242.012 96.4228,244.012 98.5,245.5C 99.086,245.291 99.586,244.957 100,244.5C 103.134,246.729 106.634,247.729 110.5,247.5 Z"/></g>
<g><path style="opacity:0.089" fill="#dedee4" d="M 108.5,245.5 C 150.803,246.484 193.136,246.817 235.5,246.5C 235.5,246.833 235.5,247.167 235.5,247.5C 194.167,247.5 152.833,247.5 111.5,247.5C 111.167,247.5 110.833,247.5 110.5,247.5C 109.833,246.833 109.167,246.167 108.5,245.5 Z"/></g>
<g><path style="opacity:0.925" fill="#707173" d="M 240.5,245.5 C 239.365,247.213 237.698,247.88 235.5,247.5C 235.5,247.167 235.5,246.833 235.5,246.5C 237.117,245.962 238.784,245.629 240.5,245.5 Z"/></g>
<g><path style="opacity:1" fill="#3e3f46" d="M 261.5,245.5 C 258.039,252.958 252.373,257.958 244.5,260.5C 245.598,259.603 245.598,258.77 244.5,258C 246.953,257.273 249.286,256.273 251.5,255C 250.483,253.951 250.316,252.784 251,251.5C 252.087,253.932 252.587,253.598 252.5,250.5C 253.822,250.33 254.989,250.663 256,251.5C 256,250.167 256,248.833 256,247.5C 257.361,244.882 259.194,244.215 261.5,245.5 Z"/></g>
<g><path style="opacity:0.169" fill="#b7b8bc" d="M 98.5,257.5 C 100.027,257.427 101.027,258.094 101.5,259.5C 99.9731,259.573 98.9731,258.906 98.5,257.5 Z"/></g>
</svg>
