<?xml version="1.0" encoding="UTF-8"?>
<!DOCTYPE svg PUBLIC "-//W3C//DTD SVG 1.1//EN" "http://www.w3.org/Graphics/SVG/1.1/DTD/svg11.dtd">
<svg xmlns="http://www.w3.org/2000/svg" version="1.1" width="355px" height="348px" style="shape-rendering:geometricPrecision; text-rendering:geometricPrecision; image-rendering:optimizeQuality; fill-rule:evenodd; clip-rule:evenodd" xmlns:xlink="http://www.w3.org/1999/xlink">
<g><path style="opacity:1" fill="#181b1f" d="M 201.5,71.5 C 201.5,72.1667 201.5,72.8333 201.5,73.5C 199.94,75.6353 198.273,75.802 196.5,74C 194.833,73.3333 193.167,73.3333 191.5,74C 194.381,75.708 197.381,77.208 200.5,78.5C 199.757,79.1818 199.091,79.8485 198.5,80.5C 196.833,80.5 195.167,80.5 193.5,80.5C 190.763,80.5987 188.096,80.2653 185.5,79.5C 181.681,78.8344 177.681,78.5011 173.5,78.5C 167.902,78.2762 162.569,78.9429 157.5,80.5C 154.781,81.913 151.781,82.5797 148.5,82.5C 146.214,82.595 144.214,83.2616 142.5,84.5C 136.332,88.0845 129.999,91.4178 123.5,94.5C 120.607,93.9241 117.607,93.9241 114.5,94.5C 114.371,92.7839 114.038,91.1172 113.5,89.5C 116.125,86.1848 119.458,83.8514 123.5,82.5C 125.027,82.573 126.027,81.9063 126.5,80.5C 129.785,78.0245 133.452,76.3579 137.5,75.5C 139.898,75.7406 141.898,75.0739 143.5,73.5C 147.162,73.2766 150.495,72.2766 153.5,70.5C 169.531,67 185.531,67.3333 201.5,71.5 Z"/></g>
<g><path style="opacity:0.718" fill="#868b8d" d="M 153.5,70.5 C 150.495,72.2766 147.162,73.2766 143.5,73.5C 146.452,71.5902 149.786,70.5902 153.5,70.5 Z"/></g>
<g><path style="opacity:0.984" fill="#595c60" d="M 201.5,71.5 C 203.553,71.4021 205.22,72.0687 206.5,73.5C 204.833,73.5 203.167,73.5 201.5,73.5C 201.5,72.8333 201.5,72.1667 201.5,71.5 Z"/></g>
<g><path style="opacity:1" fill="#16191d" d="M 201.5,73.5 C 203.167,73.5 204.833,73.5 206.5,73.5C 215.725,75.2821 224.058,78.9487 231.5,84.5C 232.035,86.4456 233.368,87.4456 235.5,87.5C 238.109,88.4431 240.109,90.1097 241.5,92.5C 242.262,94.2624 243.596,95.2624 245.5,95.5C 245.5,96.1667 245.5,96.8333 245.5,97.5C 243.494,96.4892 241.494,95.4892 239.5,94.5C 237.399,94.6316 235.899,95.6316 235,97.5C 233.913,95.0684 233.413,95.4017 233.5,98.5C 233.167,98.5 232.833,98.5 232.5,98.5C 231.738,96.7376 230.404,95.7376 228.5,95.5C 227.29,95.0679 226.29,94.4013 225.5,93.5C 225.027,92.0937 224.027,91.427 222.5,91.5C 215.384,87.9412 208.051,84.9412 200.5,82.5C 199.833,81.8333 199.167,81.1667 198.5,80.5C 199.091,79.8485 199.757,79.1818 200.5,78.5C 197.381,77.208 194.381,75.708 191.5,74C 193.167,73.3333 194.833,73.3333 196.5,74C 198.273,75.802 199.94,75.6353 201.5,73.5 Z"/></g>
<g><path style="opacity:0.902" fill="#62666c" d="M 143.5,73.5 C 141.898,75.0739 139.898,75.7406 137.5,75.5C 139.102,73.9261 141.102,73.2594 143.5,73.5 Z"/></g>
<g><path style="opacity:0.306" fill="#abaeb3" d="M 185.5,79.5 C 176.143,79.3496 166.809,79.683 157.5,80.5C 162.569,78.9429 167.902,78.2762 173.5,78.5C 177.681,78.5011 181.681,78.8344 185.5,79.5 Z"/></g>
<g><path style="opacity:0.698" fill="#999ea1" d="M 193.5,80.5 C 195.167,80.5 196.833,80.5 198.5,80.5C 199.167,81.1667 199.833,81.8333 200.5,82.5C 197.933,82.2785 195.599,81.6118 193.5,80.5 Z"/></g>
<g><path style="opacity:0.706" fill="#8b9093" d="M 126.5,80.5 C 126.027,81.9063 125.027,82.573 123.5,82.5C 123.973,81.0937 124.973,80.427 126.5,80.5 Z"/></g>
<g><path style="opacity:0.008" fill="#c3c7c9" d="M 148.5,82.5 C 146.898,84.0739 144.898,84.7406 142.5,84.5C 144.214,83.2616 146.214,82.595 148.5,82.5 Z"/></g>
<g><path style="opacity:0.804" fill="#9b9da0" d="M 231.5,84.5 C 233.23,85.0256 234.564,86.0256 235.5,87.5C 233.368,87.4456 232.035,86.4456 231.5,84.5 Z"/></g>
<g><path style="opacity:1" fill="#2b2e32" d="M 113.5,89.5 C 114.038,91.1172 114.371,92.7839 114.5,94.5C 117.607,93.9241 120.607,93.9241 123.5,94.5C 120.358,97.4686 117.025,100.302 113.5,103C 108.699,108.145 104.033,113.312 99.5,118.5C 99.5792,117.07 99.2458,115.736 98.5,114.5C 99.6888,113.571 101.022,113.238 102.5,113.5C 101.032,112.248 100.032,110.248 99.5,107.5C 101.467,107.261 103.301,107.594 105,108.5C 105.935,105.898 107.768,104.398 110.5,104C 110.043,103.586 109.709,103.086 109.5,102.5C 111.078,101.702 112.744,101.202 114.5,101C 113.663,99.9887 113.33,98.8221 113.5,97.5C 112.5,97.5 111.5,97.5 110.5,97.5C 110.48,95.857 111.147,94.5237 112.5,93.5C 111.675,92.6143 110.675,92.281 109.5,92.5C 110.262,90.7376 111.596,89.7376 113.5,89.5 Z"/></g>
<g><path style="opacity:0.392" fill="#a1a7a9" d="M 222.5,91.5 C 224.027,91.427 225.027,92.0937 225.5,93.5C 223.973,93.573 222.973,92.9063 222.5,91.5 Z"/></g>
<g><path style="opacity:0.016" fill="#c9caca" d="M 241.5,92.5 C 243.404,92.7376 244.738,93.7376 245.5,95.5C 243.596,95.2624 242.262,94.2624 241.5,92.5 Z"/></g>
<g><path style="opacity:0.56" fill="#868a8d" d="M 179.5,105.5 C 178.518,102.038 178.185,98.3714 178.5,94.5C 176.5,94.5 174.5,94.5 172.5,94.5C 172.815,98.3714 172.482,102.038 171.5,105.5C 171.5,101.5 171.5,97.5 171.5,93.5C 174.167,93.5 176.833,93.5 179.5,93.5C 180.005,97.6 180.005,101.6 179.5,105.5 Z"/></g>
<g><path style="opacity:0.702" fill="#858b8e" d="M 109.5,92.5 C 107.761,95.2427 105.427,97.2427 102.5,98.5C 104.239,95.7573 106.573,93.7573 109.5,92.5 Z"/></g>
<g><path style="opacity:0.498" fill="#9fa1a5" d="M 228.5,95.5 C 230.404,95.7376 231.738,96.7376 232.5,98.5C 230.596,98.2624 229.262,97.2624 228.5,95.5 Z"/></g>
<g><path style="opacity:0.604" fill="#949a9d" d="M 245.5,95.5 C 247.262,96.2623 248.262,97.5956 248.5,99.5C 247.5,98.8333 246.5,98.1667 245.5,97.5C 245.5,96.8333 245.5,96.1667 245.5,95.5 Z"/></g>
<g><path style="opacity:0.8" fill="#979b9d" d="M 232.5,98.5 C 232.833,98.5 233.167,98.5 233.5,98.5C 235.5,99.8333 237.167,101.5 238.5,103.5C 235.911,102.581 233.911,100.914 232.5,98.5 Z"/></g>
<g><path style="opacity:0.718" fill="#595d61" d="M 163.5,94.5 C 161.167,94.5 158.833,94.5 156.5,94.5C 156.5,104.167 156.5,113.833 156.5,123.5C 155.506,113.681 155.173,103.681 155.5,93.5C 158.385,93.1936 161.052,93.5269 163.5,94.5 Z"/></g>
<g><path style="opacity:0.667" fill="#8e9196" d="M 102.5,99.5 C 101.167,101.5 99.5,103.167 97.5,104.5C 98.1667,101.833 99.8333,100.167 102.5,99.5 Z"/></g>
<g><path style="opacity:0.573" fill="#b3b5b8" d="M 249.5,99.5 C 251.587,100.585 252.92,102.251 253.5,104.5C 251.413,103.415 250.08,101.749 249.5,99.5 Z"/></g>
<g><path style="opacity:0.498" fill="#8f9398" d="M 194.5,122.5 C 194.5,113.167 194.5,103.833 194.5,94.5C 192.167,94.5 189.833,94.5 187.5,94.5C 187.815,98.3714 187.482,102.038 186.5,105.5C 186.5,101.5 186.5,97.5 186.5,93.5C 189.5,93.5 192.5,93.5 195.5,93.5C 195.827,103.348 195.494,113.014 194.5,122.5 Z"/></g>
<g><path style="opacity:0.706" fill="#7c7f83" d="M 97.5,104.5 C 96.9202,106.749 95.5869,108.415 93.5,109.5C 94.0798,107.251 95.4131,105.585 97.5,104.5 Z"/></g>
<g><path style="opacity:0.714" fill="#7e8183" d="M 253.5,104.5 C 255.587,105.585 256.92,107.251 257.5,109.5C 255.413,108.415 254.08,106.749 253.5,104.5 Z"/></g>
<g><path style="opacity:1" fill="#16191c" d="M 245.5,97.5 C 246.5,98.1667 247.5,98.8333 248.5,99.5C 248.833,99.5 249.167,99.5 249.5,99.5C 250.08,101.749 251.413,103.415 253.5,104.5C 254.08,106.749 255.413,108.415 257.5,109.5C 259.822,110.802 261.155,112.802 261.5,115.5C 261.427,117.027 262.094,118.027 263.5,118.5C 263.427,120.027 264.094,121.027 265.5,121.5C 265.5,121.833 265.5,122.167 265.5,122.5C 265.66,124.153 266.326,125.486 267.5,126.5C 267.427,128.027 268.094,129.027 269.5,129.5C 270.11,130.391 270.443,131.391 270.5,132.5C 270.259,134.898 270.926,136.898 272.5,138.5C 273.939,140.588 274.606,142.921 274.5,145.5C 273.207,144.158 272.374,142.491 272,140.5C 271.667,141.5 271.333,142.5 271,143.5C 270.667,141.833 270.333,140.167 270,138.5C 269.282,137.549 268.449,137.383 267.5,138C 268.574,138.739 269.241,139.739 269.5,141C 268.287,142.63 267.454,144.464 267,146.5C 266.667,146.167 266.333,145.833 266,145.5C 265.503,147.81 265.337,150.143 265.5,152.5C 264.134,149.039 263.134,145.373 262.5,141.5C 262.88,139.302 262.213,137.635 260.5,136.5C 258.229,132.291 256.229,127.958 254.5,123.5C 254.446,121.368 253.446,120.035 251.5,119.5C 250.833,118.5 250.167,117.5 249.5,116.5C 249.573,114.973 248.906,113.973 247.5,113.5C 244.529,110.192 241.529,106.859 238.5,103.5C 237.167,101.5 235.5,99.8333 233.5,98.5C 233.413,95.4017 233.913,95.0684 235,97.5C 235.899,95.6316 237.399,94.6316 239.5,94.5C 241.494,95.4892 243.494,96.4892 245.5,97.5 Z"/></g>
<g><path style="opacity:1" fill="#5b5e61" d="M 93.5,109.5 C 92.7023,111.966 91.369,113.966 89.5,115.5C 89.8449,112.802 91.1782,110.802 93.5,109.5 Z"/></g>
<g><path style="opacity:0.004" fill="#d6d9da" d="M 247.5,113.5 C 248.906,113.973 249.573,114.973 249.5,116.5C 248.094,116.027 247.427,115.027 247.5,113.5 Z"/></g>
<g><path style="opacity:0.412" fill="#97999c" d="M 89.5,115.5 C 89.573,117.027 88.9063,118.027 87.5,118.5C 87.427,116.973 88.0937,115.973 89.5,115.5 Z"/></g>
<g><path style="opacity:0.329" fill="#a2a4a6" d="M 261.5,115.5 C 262.906,115.973 263.573,116.973 263.5,118.5C 262.094,118.027 261.427,117.027 261.5,115.5 Z"/></g>
<g><path style="opacity:0.58" fill="#9b9fa5" d="M 131.5,118.5 C 130.738,120.262 129.404,121.262 127.5,121.5C 128.262,119.738 129.596,118.738 131.5,118.5 Z"/></g>
<g><path style="opacity:0.012" fill="#b7bdbf" d="M 220.5,119.5 C 222.833,119.833 224.167,121.167 224.5,123.5C 222.833,122.5 221.5,121.167 220.5,119.5 Z"/></g>
<g><path style="opacity:0.827" fill="#888a8e" d="M 251.5,119.5 C 253.446,120.035 254.446,121.368 254.5,123.5C 253.026,122.564 252.026,121.23 251.5,119.5 Z"/></g>
<g><path style="opacity:0.216" fill="#b7babe" d="M 87.5,118.5 C 87.573,120.027 86.9063,121.027 85.5,121.5C 85.427,119.973 86.0937,118.973 87.5,118.5 Z"/></g>
<g><path style="opacity:0.999" fill="#090e13" d="M 163.5,94.5 C 163.5,98.5 163.5,102.5 163.5,106.5C 166.385,106.806 169.052,106.473 171.5,105.5C 172.482,102.038 172.815,98.3714 172.5,94.5C 174.5,94.5 176.5,94.5 178.5,94.5C 178.185,98.3714 178.518,102.038 179.5,105.5C 181.833,105.5 184.167,105.5 186.5,105.5C 187.482,102.038 187.815,98.3714 187.5,94.5C 189.833,94.5 192.167,94.5 194.5,94.5C 194.5,103.833 194.5,113.167 194.5,122.5C 194.737,123.791 194.404,124.791 193.5,125.5C 192.5,125.833 191.833,126.5 191.5,127.5C 190.341,129.25 188.674,130.25 186.5,130.5C 184.167,130.5 181.833,130.5 179.5,130.5C 179.5,135.833 179.5,141.167 179.5,146.5C 176.5,146.5 173.5,146.5 170.5,146.5C 170.5,141.5 170.5,136.5 170.5,131.5C 167.171,131.785 164.171,131.118 161.5,129.5C 160.738,127.738 159.404,126.738 157.5,126.5C 156.596,125.791 156.263,124.791 156.5,123.5C 156.5,113.833 156.5,104.167 156.5,94.5C 158.833,94.5 161.167,94.5 163.5,94.5 Z M 165.5,121.5 C 165.5,119.5 165.5,117.5 165.5,115.5C 167.167,115.5 168.833,115.5 170.5,115.5C 170.5,117.5 170.5,119.5 170.5,121.5C 168.833,121.5 167.167,121.5 165.5,121.5 Z M 185.5,121.5 C 183.833,121.5 182.167,121.5 180.5,121.5C 180.5,119.5 180.5,117.5 180.5,115.5C 182.167,115.5 183.833,115.5 185.5,115.5C 185.5,117.5 185.5,119.5 185.5,121.5 Z"/></g>
<g><path style="opacity:0.055" fill="#ced1d5" d="M 165.5,121.5 C 164.532,119.393 164.198,117.059 164.5,114.5C 166.833,114.5 169.167,114.5 171.5,114.5C 171.5,117.167 171.5,119.833 171.5,122.5C 169.265,122.795 167.265,122.461 165.5,121.5 Z M 165.5,121.5 C 167.167,121.5 168.833,121.5 170.5,121.5C 170.5,119.5 170.5,117.5 170.5,115.5C 168.833,115.5 167.167,115.5 165.5,115.5C 165.5,117.5 165.5,119.5 165.5,121.5 Z"/></g>
<g><path style="opacity:0.06" fill="#c3c5c9" d="M 185.5,121.5 C 183.735,122.461 181.735,122.795 179.5,122.5C 179.5,119.833 179.5,117.167 179.5,114.5C 181.833,114.5 184.167,114.5 186.5,114.5C 186.802,117.059 186.468,119.393 185.5,121.5 Z M 185.5,121.5 C 185.5,119.5 185.5,117.5 185.5,115.5C 183.833,115.5 182.167,115.5 180.5,115.5C 180.5,117.5 180.5,119.5 180.5,121.5C 182.167,121.5 183.833,121.5 185.5,121.5 Z"/></g>
<g><path style="opacity:0.629" fill="#96999c" d="M 163.5,94.5 C 164.482,97.9619 164.815,101.629 164.5,105.5C 166.833,105.5 169.167,105.5 171.5,105.5C 169.052,106.473 166.385,106.806 163.5,106.5C 163.5,102.5 163.5,98.5 163.5,94.5 Z"/></g>
<g><path style="opacity:0.149" fill="#c7c9cc" d="M 263.5,118.5 C 264.906,118.973 265.573,119.973 265.5,121.5C 264.094,121.027 263.427,120.027 263.5,118.5 Z"/></g>
<g><path style="opacity:0.016" fill="#cbcdcf" d="M 98.5,120.5 C 98.573,122.027 97.9063,123.027 96.5,123.5C 96.427,121.973 97.0937,120.973 98.5,120.5 Z"/></g>
<g><path style="opacity:0.294" fill="#b2b3b4" d="M 127.5,121.5 C 127.573,123.027 126.906,124.027 125.5,124.5C 125.427,122.973 126.094,121.973 127.5,121.5 Z"/></g>
<g><path style="opacity:0.569" fill="#929699" d="M 146.5,121.5 C 148.727,122.401 149.727,124.067 149.5,126.5C 148.11,125.101 147.11,123.434 146.5,121.5 Z"/></g>
<g><path style="opacity:0.227" fill="#a8b0b3" d="M 203.5,122.5 C 203.573,124.027 202.906,125.027 201.5,125.5C 201.427,123.973 202.094,122.973 203.5,122.5 Z"/></g>
<g><path style="opacity:0.239" fill="#9d9fa5" d="M 265.5,122.5 C 267.104,123.287 267.771,124.62 267.5,126.5C 266.326,125.486 265.66,124.153 265.5,122.5 Z"/></g>
<g><path style="opacity:0.976" fill="#737779" d="M 84.5,123.5 C 84.6567,124.873 84.49,126.207 84,127.5C 83.0978,129.431 81.9312,131.097 80.5,132.5C 81.083,129.053 82.4163,126.053 84.5,123.5 Z"/></g>
<g><path style="opacity:0.729" fill="#94969c" d="M 157.5,126.5 C 159.404,126.738 160.738,127.738 161.5,129.5C 159.596,129.262 158.262,128.262 157.5,126.5 Z"/></g>
<g><path style="opacity:0.008" fill="#cacccd" d="M 193.5,125.5 C 193.5,126.833 192.833,127.5 191.5,127.5C 191.833,126.5 192.5,125.833 193.5,125.5 Z"/></g>
<g><path style="opacity:0.259" fill="#c0c4c7" d="M 95.5,125.5 C 95.3404,127.153 94.6737,128.486 93.5,129.5C 93.2291,127.62 93.8958,126.287 95.5,125.5 Z"/></g>
<g><path style="opacity:0.188" fill="#b6b9be" d="M 267.5,126.5 C 268.906,126.973 269.573,127.973 269.5,129.5C 268.094,129.027 267.427,128.027 267.5,126.5 Z"/></g>
<g><path style="opacity:1" fill="#181b1f" d="M 146.5,121.5 C 147.11,123.434 148.11,125.101 149.5,126.5C 151.676,134.673 148.676,140.007 140.5,142.5C 135.779,141.82 131.113,140.82 126.5,139.5C 124.655,140.938 123.489,140.604 123,138.5C 121.385,140.905 120.719,140.905 121,138.5C 122.067,137.809 123.234,137.309 124.5,137C 123.748,136.329 123.414,135.496 123.5,134.5C 123.159,130.84 123.825,127.507 125.5,124.5C 126.906,124.027 127.573,123.027 127.5,121.5C 129.404,121.262 130.738,120.262 131.5,118.5C 137.19,115.95 142.19,116.95 146.5,121.5 Z M 140.5,131.5 C 138.577,133.19 136.577,133.523 134.5,132.5C 134.5,130.833 134.5,129.167 134.5,127.5C 138.241,126.599 140.241,127.932 140.5,131.5 Z"/></g>
<g><path style="opacity:1" fill="#0a0f14" d="M 109.5,92.5 C 110.675,92.281 111.675,92.6143 112.5,93.5C 111.147,94.5237 110.48,95.857 110.5,97.5C 111.5,97.5 112.5,97.5 113.5,97.5C 113.33,98.8221 113.663,99.9887 114.5,101C 112.744,101.202 111.078,101.702 109.5,102.5C 109.709,103.086 110.043,103.586 110.5,104C 107.768,104.398 105.935,105.898 105,108.5C 103.301,107.594 101.467,107.261 99.5,107.5C 100.032,110.248 101.032,112.248 102.5,113.5C 101.022,113.238 99.6888,113.571 98.5,114.5C 99.2458,115.736 99.5792,117.07 99.5,118.5C 99.6716,119.492 99.3382,120.158 98.5,120.5C 97.0937,120.973 96.427,121.973 96.5,123.5C 96.6716,124.492 96.3382,125.158 95.5,125.5C 93.8958,126.287 93.2291,127.62 93.5,129.5C 92.8698,131.75 91.8698,133.75 90.5,135.5C 88.9261,137.102 88.2594,139.102 88.5,141.5C 88.6716,142.492 88.3382,143.158 87.5,143.5C 86.087,146.219 85.4203,149.219 85.5,152.5C 84.71,153.609 84.21,154.942 84,156.5C 83.5003,163.826 83.3337,171.159 83.5,178.5C 83.792,184.895 84.292,191.228 85,197.5C 84.3333,194.833 83.6667,194.833 83,197.5C 82.0255,195.122 81.3589,195.456 81,198.5C 79.6267,195.331 77.7934,192.665 75.5,190.5C 74.222,177.17 74.222,163.837 75.5,150.5C 75.7437,146.273 76.7437,142.273 78.5,138.5C 80.0739,136.898 80.7406,134.898 80.5,132.5C 81.9312,131.097 83.0978,129.431 84,127.5C 84.49,126.207 84.6567,124.873 84.5,123.5C 84.8333,122.833 85.1667,122.167 85.5,121.5C 86.9063,121.027 87.573,120.027 87.5,118.5C 88.9063,118.027 89.573,117.027 89.5,115.5C 91.369,113.966 92.7023,111.966 93.5,109.5C 95.5869,108.415 96.9202,106.749 97.5,104.5C 99.5,103.167 101.167,101.5 102.5,99.5C 102.5,99.1667 102.5,98.8333 102.5,98.5C 105.427,97.2427 107.761,95.2427 109.5,92.5 Z"/></g>
<g><path style="opacity:0.745" fill="#72777b" d="M 140.5,131.5 C 140.116,133.293 138.95,134.293 137,134.5C 135.699,134.361 134.866,133.695 134.5,132.5C 136.577,133.523 138.577,133.19 140.5,131.5 Z"/></g>
<g><path style="opacity:0.78" fill="#878b8e" d="M 80.5,132.5 C 80.7406,134.898 80.0739,136.898 78.5,138.5C 78.595,136.214 79.2616,134.214 80.5,132.5 Z"/></g>
<g><path style="opacity:0.992" fill="#65676a" d="M 201.5,134.5 C 202.688,135.684 203.855,135.684 205,134.5C 205.492,135.549 205.326,136.549 204.5,137.5C 205.193,138.518 205.859,139.518 206.5,140.5C 203.914,139.362 202.247,137.362 201.5,134.5 Z"/></g>
<g><path style="opacity:0.733" fill="#96989b" d="M 270.5,132.5 C 271.738,134.214 272.405,136.214 272.5,138.5C 270.926,136.898 270.259,134.898 270.5,132.5 Z"/></g>
<g><path style="opacity:1" fill="#181b1f" d="M 220.5,119.5 C 221.5,121.167 222.833,122.5 224.5,123.5C 226.48,127.694 228.147,132.028 229.5,136.5C 230.419,139.089 232.086,141.089 234.5,142.5C 236.924,145.008 238.59,148.008 239.5,151.5C 237.549,151.227 236.049,151.893 235,153.5C 233.807,151.557 232.307,151.724 230.5,154C 231.109,156.058 232.109,156.891 233.5,156.5C 232.754,157.736 232.421,159.07 232.5,160.5C 230.935,158.491 229.935,156.157 229.5,153.5C 228.914,151.16 227.914,148.993 226.5,147C 226.833,146.667 227.167,146.333 227.5,146C 226.099,145.59 224.766,145.09 223.5,144.5C 222.206,143.71 221.039,142.71 220,141.5C 215.208,144.312 210.708,143.979 206.5,140.5C 205.859,139.518 205.193,138.518 204.5,137.5C 205.326,136.549 205.492,135.549 205,134.5C 203.855,135.684 202.688,135.684 201.5,134.5C 200.167,131.5 200.167,128.5 201.5,125.5C 202.906,125.027 203.573,124.027 203.5,122.5C 208.35,116.216 214.017,115.216 220.5,119.5 Z M 211.5,127.5 C 215.5,126.833 217.167,128.5 216.5,132.5C 214.611,133.38 212.611,133.38 210.5,132.5C 210.366,130.708 210.699,129.042 211.5,127.5 Z"/></g>
<g><path style="opacity:0.188" fill="#bcc2c3" d="M 211.5,127.5 C 216.833,125.5 218.5,127.167 216.5,132.5C 217.167,128.5 215.5,126.833 211.5,127.5 Z"/></g>
<g><path style="opacity:0.89" fill="#898d90" d="M 229.5,136.5 C 231.914,137.911 233.581,139.911 234.5,142.5C 232.086,141.089 230.419,139.089 229.5,136.5 Z"/></g>
<g><path style="opacity:0.431" fill="#a6adaf" d="M 90.5,135.5 C 90.405,137.786 89.7384,139.786 88.5,141.5C 88.2594,139.102 88.9261,137.102 90.5,135.5 Z"/></g>
<g><path style="opacity:0.525" fill="#9ea5a8" d="M 260.5,136.5 C 262.213,137.635 262.88,139.302 262.5,141.5C 261.463,140.07 260.796,138.403 260.5,136.5 Z"/></g>
<g><path style="opacity:0.627" fill="#989b9c" d="M 119.5,138.5 C 119.573,140.027 118.906,141.027 117.5,141.5C 117.427,139.973 118.094,138.973 119.5,138.5 Z"/></g>
<g><path style="opacity:0.502" fill="#969a9e" d="M 186.5,130.5 C 184.735,131.461 182.735,131.795 180.5,131.5C 180.5,136.833 180.5,142.167 180.5,147.5C 176.958,147.813 173.625,147.479 170.5,146.5C 173.5,146.5 176.5,146.5 179.5,146.5C 179.5,141.167 179.5,135.833 179.5,130.5C 181.833,130.5 184.167,130.5 186.5,130.5 Z"/></g>
<g><path style="opacity:1" fill="#272a2e" d="M 123.5,134.5 C 123.414,135.496 123.748,136.329 124.5,137C 123.234,137.309 122.067,137.809 121,138.5C 120.719,140.905 121.385,140.905 123,138.5C 123.489,140.604 124.655,140.938 126.5,139.5C 131.113,140.82 135.779,141.82 140.5,142.5C 137.277,143.925 134.11,143.592 131,141.5C 124.124,148.261 119.624,156.261 117.5,165.5C 117.811,161.754 116.811,158.42 114.5,155.5C 115.025,154.808 115.692,154.308 116.5,154C 115,153.167 113.833,152 113,150.5C 112.939,153.277 111.772,155.277 109.5,156.5C 110.878,150.74 113.545,145.74 117.5,141.5C 118.906,141.027 119.573,140.027 119.5,138.5C 120.5,136.833 121.833,135.5 123.5,134.5 Z"/></g>
<g><path style="opacity:1" fill="#0d1115" d="M 274.5,145.5 C 274.5,145.833 274.5,146.167 274.5,146.5C 276.665,161.122 276.998,175.789 275.5,190.5C 275.768,192.099 275.434,193.432 274.5,194.5C 273.167,194.5 271.833,194.5 270.5,194.5C 270.649,195.552 270.483,196.552 270,197.5C 269.814,195.1 269.314,192.766 268.5,190.5C 267.583,191.127 266.583,191.461 265.5,191.5C 265.5,190.833 265.5,190.167 265.5,189.5C 265.323,185.766 265.656,182.099 266.5,178.5C 267.165,175.518 267.498,172.352 267.5,169C 267.585,163.266 266.918,157.766 265.5,152.5C 265.337,150.143 265.503,147.81 266,145.5C 266.333,145.833 266.667,146.167 267,146.5C 267.454,144.464 268.287,142.63 269.5,141C 269.241,139.739 268.574,138.739 267.5,138C 268.449,137.383 269.282,137.549 270,138.5C 270.333,140.167 270.667,141.833 271,143.5C 271.333,142.5 271.667,141.5 272,140.5C 272.374,142.491 273.207,144.158 274.5,145.5 Z"/></g>
<g><path style="opacity:0.141" fill="#b0b7b9" d="M 87.5,143.5 C 87.5797,146.781 86.913,149.781 85.5,152.5C 85.4203,149.219 86.087,146.219 87.5,143.5 Z"/></g>
<g><path style="opacity:0.863" fill="#767a7d" d="M 223.5,144.5 C 224.766,145.09 226.099,145.59 227.5,146C 227.167,146.333 226.833,146.667 226.5,147C 227.914,148.993 228.914,151.16 229.5,153.5C 227.255,150.68 225.255,147.68 223.5,144.5 Z"/></g>
<g><path style="opacity:0.859" fill="#838789" d="M 239.5,151.5 C 240.931,152.78 241.598,154.447 241.5,156.5C 239.787,155.365 239.12,153.698 239.5,151.5 Z"/></g>
<g><path style="opacity:0.018" fill="#fefffe" d="M 222.5,155.5 C 223.627,156.122 224.627,156.955 225.5,158C 223.872,165.408 222.872,172.908 222.5,180.5C 222.5,178.833 222.5,177.167 222.5,175.5C 222.5,168.833 222.5,162.167 222.5,155.5 Z"/></g>
<g><path style="opacity:1" fill="#0e1216" d="M 154.5,155.5 C 154.5,158.167 154.5,160.833 154.5,163.5C 148.31,163.177 142.31,163.51 136.5,164.5C 136.5,165.833 136.5,167.167 136.5,168.5C 141.5,168.5 146.5,168.5 151.5,168.5C 151.805,171.414 151.805,174.081 151.5,176.5C 146.489,176.334 141.489,176.501 136.5,177C 135.594,178.699 135.261,180.533 135.5,182.5C 141.833,182.5 148.167,182.5 154.5,182.5C 154.5,185.167 154.5,187.833 154.5,190.5C 145.833,190.5 137.167,190.5 128.5,190.5C 128.5,178.833 128.5,167.167 128.5,155.5C 137.128,155.497 145.795,155.497 154.5,155.5 Z"/></g>
<g><path style="opacity:1" fill="#171a1e" d="M 239.5,151.5 C 239.12,153.698 239.787,155.365 241.5,156.5C 241.5,156.833 241.5,157.167 241.5,157.5C 241.41,160.152 242.076,162.485 243.5,164.5C 243.582,171.858 243.248,179.191 242.5,186.5C 240.426,196.414 235.592,204.747 228,211.5C 227.796,214.797 226.963,217.797 225.5,220.5C 225.663,218.143 225.497,215.81 225,213.5C 221.895,216.396 220.562,215.729 221,211.5C 221.893,212.711 222.726,212.711 223.5,211.5C 224.929,209.669 225.429,207.669 225,205.5C 222.061,204.872 219.228,204.205 216.5,203.5C 218.199,203.66 219.866,203.494 221.5,203C 224.745,199.267 227.745,195.434 230.5,191.5C 232.074,189.898 232.741,187.898 232.5,185.5C 232.575,182.794 232.908,180.127 233.5,177.5C 234.163,175.527 234.496,173.361 234.5,171C 234.672,167.523 234.006,164.356 232.5,161.5C 232.5,161.167 232.5,160.833 232.5,160.5C 232.421,159.07 232.754,157.736 233.5,156.5C 232.109,156.891 231.109,156.058 230.5,154C 232.307,151.724 233.807,151.557 235,153.5C 236.049,151.893 237.549,151.227 239.5,151.5 Z"/></g>
<g><path style="opacity:0.694" fill="#7d8386" d="M 169.5,155.5 C 167.967,157.245 165.967,158.245 163.5,158.5C 165.033,156.755 167.033,155.755 169.5,155.5 Z"/></g>
<g><path style="opacity:0.008" fill="#c3cacb" d="M 182.5,157.5 C 184.027,157.427 185.027,158.094 185.5,159.5C 183.973,159.573 182.973,158.906 182.5,157.5 Z"/></g>
<g><path style="opacity:1" fill="#060c12" d="M 222.5,155.5 C 222.5,162.167 222.5,168.833 222.5,175.5C 221.532,177.607 221.198,179.941 221.5,182.5C 219.088,182.756 217.421,181.756 216.5,179.5C 215.281,180.263 214.281,181.263 213.5,182.5C 212.893,182.376 212.56,182.043 212.5,181.5C 213.11,180.609 213.443,179.609 213.5,178.5C 214.196,170.933 214.863,163.266 215.5,155.5C 218.144,155.285 220.477,155.285 222.5,155.5 Z"/></g>
<g><path style="opacity:1" fill="#1e2226" d="M 210.5,181.5 C 211.167,181.5 211.833,181.5 212.5,181.5C 212.56,182.043 212.893,182.376 213.5,182.5C 214.281,181.263 215.281,180.263 216.5,179.5C 217.421,181.756 219.088,182.756 221.5,182.5C 221.198,179.941 221.532,177.607 222.5,175.5C 222.5,177.167 222.5,178.833 222.5,180.5C 221.614,185.72 218.614,189.053 213.5,190.5C 208.463,190.587 203.463,190.254 198.5,189.5C 194.718,188.212 192.551,185.545 192,181.5C 191.5,172.84 191.334,164.173 191.5,155.5C 194.681,155.258 197.681,155.258 200.5,155.5C 201.332,163.479 201.832,171.479 202,179.5C 204.571,182.51 207.404,183.177 210.5,181.5 Z"/></g>
<g><path style="opacity:0.075" fill="#bcbfc4" d="M 274.5,146.5 C 275.856,149.577 276.689,152.91 277,156.5C 277.167,161.333 277.333,166.167 277.5,171C 277.72,177.746 277.054,184.246 275.5,190.5C 276.998,175.789 276.665,161.122 274.5,146.5 Z"/></g>
<g><path style="opacity:0.533" fill="#7c7f84" d="M 109.5,157.5 C 109.59,160.152 108.924,162.485 107.5,164.5C 107.41,161.848 108.076,159.515 109.5,157.5 Z"/></g>
<g><path style="opacity:0.286" fill="#b8bcbf" d="M 154.5,155.5 C 155.477,158.287 155.81,161.287 155.5,164.5C 149.167,164.5 142.833,164.5 136.5,164.5C 142.31,163.51 148.31,163.177 154.5,163.5C 154.5,160.833 154.5,158.167 154.5,155.5 Z"/></g>
<g><path style="opacity:0.467" fill="#979a9e" d="M 241.5,157.5 C 243.163,159.438 243.829,161.772 243.5,164.5C 242.076,162.485 241.41,160.152 241.5,157.5 Z"/></g>
<g><path style="opacity:0.278" fill="#a9aeb1" d="M 85.5,152.5 C 84.7974,161.149 84.464,169.815 84.5,178.5C 84.1667,178.5 83.8333,178.5 83.5,178.5C 83.3337,171.159 83.5003,163.826 84,156.5C 84.21,154.942 84.71,153.609 85.5,152.5 Z"/></g>
<g><path style="opacity:1" fill="#14171b" d="M 117.5,165.5 C 116.636,170.933 116.636,176.266 117.5,181.5C 117.054,184.01 117.72,186.01 119.5,187.5C 119.12,189.698 119.787,191.365 121.5,192.5C 122.674,193.514 123.34,194.847 123.5,196.5C 123.427,198.027 124.094,199.027 125.5,199.5C 126.167,199.5 126.5,199.833 126.5,200.5C 126.738,203.408 125.738,205.742 123.5,207.5C 123.709,208.086 124.043,208.586 124.5,209C 123.181,209.195 121.847,209.028 120.5,208.5C 118.086,207.089 116.419,205.089 115.5,202.5C 115.573,200.973 114.906,199.973 113.5,199.5C 111.036,195.556 109.37,191.223 108.5,186.5C 107.813,179.187 107.479,171.854 107.5,164.5C 108.924,162.485 109.59,160.152 109.5,157.5C 109.5,157.167 109.5,156.833 109.5,156.5C 111.772,155.277 112.939,153.277 113,150.5C 113.833,152 115,153.167 116.5,154C 115.692,154.308 115.025,154.808 114.5,155.5C 116.811,158.42 117.811,161.754 117.5,165.5 Z"/></g>
<g><path style="opacity:0.424" fill="#a3a6ab" d="M 75.5,150.5 C 74.222,163.837 74.222,177.17 75.5,190.5C 73.9463,184.246 73.2796,177.746 73.5,171C 73.3032,163.93 73.9699,157.097 75.5,150.5 Z"/></g>
<g><path style="opacity:0.573" fill="#666b6f" d="M 215.5,155.5 C 214.863,163.266 214.196,170.933 213.5,178.5C 213.334,170.826 213.5,163.159 214,155.5C 214.69,154.262 215.19,154.262 215.5,155.5 Z"/></g>
<g><path style="opacity:0.153" fill="#b6babe" d="M 265.5,152.5 C 266.918,157.766 267.585,163.266 267.5,169C 267.498,172.352 267.165,175.518 266.5,178.5C 266.536,169.815 266.203,161.149 265.5,152.5 Z"/></g>
<g><path style="opacity:1" fill="#202327" d="M 182.5,157.5 C 182.973,158.906 183.973,159.573 185.5,159.5C 187.585,161.684 188.585,164.351 188.5,167.5C 185.102,167.82 181.768,167.487 178.5,166.5C 177.757,165.818 177.091,165.151 176.5,164.5C 175.726,163.853 174.726,163.52 173.5,163.5C 171.645,163.34 170.312,164.007 169.5,165.5C 166.418,169.406 165.751,173.739 167.5,178.5C 167.5,180.5 168.5,181.5 170.5,181.5C 173.893,181.938 176.893,181.105 179.5,179C 182.167,178.333 184.833,178.333 187.5,179C 188.263,184.962 185.596,188.962 179.5,191C 175.833,191.667 172.167,191.667 168.5,191C 167.584,190.722 166.918,190.222 166.5,189.5C 166.027,188.094 165.027,187.427 163.5,187.5C 163.027,186.094 162.027,185.427 160.5,185.5C 155.357,177.686 155.191,169.686 160,161.5C 161.039,160.29 162.206,159.29 163.5,158.5C 165.967,158.245 167.967,157.245 169.5,155.5C 174.223,153.936 178.556,154.603 182.5,157.5 Z"/></g>
<g><path style="opacity:0.431" fill="#969b9e" d="M 176.5,164.5 C 174.097,164.448 171.764,164.781 169.5,165.5C 170.312,164.007 171.645,163.34 173.5,163.5C 174.726,163.52 175.726,163.853 176.5,164.5 Z"/></g>
<g><path style="opacity:0.022" fill="#cfd1d3" d="M 232.5,161.5 C 234.006,164.356 234.672,167.523 234.5,171C 234.496,173.361 234.163,175.527 233.5,177.5C 233.608,172.13 233.275,166.797 232.5,161.5 Z"/></g>
<g><path style="opacity:0.294" fill="#bbbec1" d="M 107.5,164.5 C 107.479,171.854 107.813,179.187 108.5,186.5C 107.032,182.258 106.366,177.758 106.5,173C 106.502,169.979 106.836,167.146 107.5,164.5 Z"/></g>
<g><path style="opacity:0.159" fill="#d5d7da" d="M 243.5,164.5 C 244.164,167.146 244.498,169.979 244.5,173C 244.634,177.758 243.968,182.258 242.5,186.5C 243.248,179.191 243.582,171.858 243.5,164.5 Z"/></g>
<g><path style="opacity:0.448" fill="#a9acaf" d="M 151.5,176.5 C 147.018,177.326 142.351,177.826 137.5,178C 136.663,179.011 136.33,180.178 136.5,181.5C 142.69,181.177 148.69,181.51 154.5,182.5C 148.167,182.5 141.833,182.5 135.5,182.5C 135.261,180.533 135.594,178.699 136.5,177C 141.489,176.501 146.489,176.334 151.5,176.5 Z"/></g>
<g><path style="opacity:0.447" fill="#adb1b7" d="M 167.5,178.5 C 168.833,179.167 169.833,180.167 170.5,181.5C 168.5,181.5 167.5,180.5 167.5,178.5 Z"/></g>
<g><path style="opacity:0.502" fill="#a3a8af" d="M 213.5,178.5 C 213.443,179.609 213.11,180.609 212.5,181.5C 211.833,181.5 211.167,181.5 210.5,181.5C 211.167,180.167 212.167,179.167 213.5,178.5 Z"/></g>
<g><path style="opacity:0.843" fill="#898e90" d="M 117.5,181.5 C 118.458,183.302 119.125,185.302 119.5,187.5C 117.72,186.01 117.054,184.01 117.5,181.5 Z"/></g>
<g><path style="opacity:0.494" fill="#a9abae" d="M 160.5,185.5 C 162.027,185.427 163.027,186.094 163.5,187.5C 161.973,187.573 160.973,186.906 160.5,185.5 Z"/></g>
<g><path style="opacity:0.498" fill="#848789" d="M 163.5,187.5 C 165.027,187.427 166.027,188.094 166.5,189.5C 164.973,189.573 163.973,188.906 163.5,187.5 Z"/></g>
<g><path style="opacity:0.91" fill="#63676b" d="M 232.5,185.5 C 232.741,187.898 232.074,189.898 230.5,191.5C 230.259,189.102 230.926,187.102 232.5,185.5 Z"/></g>
<g><path style="opacity:0.694" fill="#a3a8a9" d="M 119.5,187.5 C 120.537,188.93 121.204,190.597 121.5,192.5C 119.787,191.365 119.12,189.698 119.5,187.5 Z"/></g>
<g><path style="opacity:0.129" fill="#b7babf" d="M 128.5,155.5 C 128.5,167.167 128.5,178.833 128.5,190.5C 137.167,190.5 145.833,190.5 154.5,190.5C 154.5,187.833 154.5,185.167 154.5,182.5C 155.477,185.287 155.81,188.287 155.5,191.5C 146.167,191.5 136.833,191.5 127.5,191.5C 127.172,179.322 127.505,167.322 128.5,155.5 Z"/></g>
<g><path style="opacity:0.514" fill="#8e9399" d="M 198.5,189.5 C 203.463,190.254 208.463,190.587 213.5,190.5C 209.354,191.647 205.02,191.814 200.5,191C 199.584,190.722 198.918,190.222 198.5,189.5 Z"/></g>
<g><path style="opacity:0.773" fill="#83878a" d="M 265.5,189.5 C 265.5,190.167 265.5,190.833 265.5,191.5C 265.125,193.698 264.458,195.698 263.5,197.5C 263.294,194.505 263.96,191.838 265.5,189.5 Z"/></g>
<g><path style="opacity:0.871" fill="#7e8387" d="M 86.5,193.5 C 87.4582,195.302 88.1249,197.302 88.5,199.5C 86.7202,198.01 86.0535,196.01 86.5,193.5 Z"/></g>
<g><path style="opacity:0.345" fill="#a8abad" d="M 123.5,196.5 C 124.906,196.973 125.573,197.973 125.5,199.5C 124.094,199.027 123.427,198.027 123.5,196.5 Z"/></g>
<g><path style="opacity:0.169" fill="#bfc0c3" d="M 113.5,199.5 C 114.906,199.973 115.573,200.973 115.5,202.5C 114.094,202.027 113.427,201.027 113.5,199.5 Z"/></g>
<g><path style="opacity:0.698" fill="#9b9ea2" d="M 262.5,199.5 C 262.741,201.898 262.074,203.898 260.5,205.5C 260.595,203.214 261.262,201.214 262.5,199.5 Z"/></g>
<g><path style="opacity:0.839" fill="#888b90" d="M 88.5,200.5 C 89.9313,201.78 90.5979,203.447 90.5,205.5C 88.7868,204.365 88.1201,202.698 88.5,200.5 Z"/></g>
<g><path style="opacity:1" fill="#1e2124" d="M 126.5,200.5 C 129.27,203.587 132.603,204.254 136.5,202.5C 141.242,202.701 144.909,204.701 147.5,208.5C 147.66,210.153 148.326,211.486 149.5,212.5C 151.316,222.21 147.149,227.544 137,228.5C 134.456,228.664 132.29,227.997 130.5,226.5C 129.118,224.451 127.452,222.785 125.5,221.5C 123.982,218.466 123.149,215.133 123,211.5C 121.955,210.627 121.122,209.627 120.5,208.5C 121.847,209.028 123.181,209.195 124.5,209C 124.043,208.586 123.709,208.086 123.5,207.5C 125.738,205.742 126.738,203.408 126.5,200.5 Z M 135.5,212.5 C 139.485,212.629 140.818,214.463 139.5,218C 134.001,218.806 132.668,216.973 135.5,212.5 Z"/></g>
<g><path style="opacity:0.698" fill="#5f6467" d="M 187.5,214.5 C 184.833,214.5 182.167,214.5 179.5,214.5C 179.5,209.5 179.5,204.5 179.5,199.5C 176.833,199.5 174.167,199.5 171.5,199.5C 171.821,204.695 171.487,209.695 170.5,214.5C 168.167,214.5 165.833,214.5 163.5,214.5C 165.607,213.532 167.941,213.198 170.5,213.5C 170.5,208.5 170.5,203.5 170.5,198.5C 173.833,198.5 177.167,198.5 180.5,198.5C 180.5,203.5 180.5,208.5 180.5,213.5C 183.059,213.198 185.393,213.532 187.5,214.5 Z"/></g>
<g><path style="opacity:0.671" fill="#87888d" d="M 211.5,203.5 C 210.07,204.537 208.403,205.204 206.5,205.5C 207.635,203.787 209.302,203.12 211.5,203.5 Z"/></g>
<g><path style="opacity:0.008" fill="#bfc1c6" d="M 78.5,202.5 C 79.7384,204.214 80.405,206.214 80.5,208.5C 78.9261,206.898 78.2594,204.898 78.5,202.5 Z"/></g>
<g><path style="opacity:1" fill="#121519" d="M 216.5,203.5 C 219.228,204.205 222.061,204.872 225,205.5C 225.429,207.669 224.929,209.669 223.5,211.5C 222.726,212.711 221.893,212.711 221,211.5C 220.562,215.729 221.895,216.396 225,213.5C 225.497,215.81 225.663,218.143 225.5,220.5C 225.672,221.492 225.338,222.158 224.5,222.5C 222.833,223.5 221.5,224.833 220.5,226.5C 220.158,227.338 219.492,227.672 218.5,227.5C 214.766,227.677 211.099,227.344 207.5,226.5C 207.027,225.094 206.027,224.427 204.5,224.5C 202.029,222.116 200.696,219.116 200.5,215.5C 200.555,212.64 201.555,210.307 203.5,208.5C 204.833,207.833 205.833,206.833 206.5,205.5C 208.403,205.204 210.07,204.537 211.5,203.5C 213.167,202.167 214.833,202.167 216.5,203.5 Z M 216.5,214.5 C 216.833,217.5 215.5,218.833 212.5,218.5C 209.734,215.933 210.234,213.933 214,212.5C 215.301,212.639 216.134,213.305 216.5,214.5 Z"/></g>
<g><path style="opacity:0.416" fill="#adafb2" d="M 206.5,205.5 C 205.833,206.833 204.833,207.833 203.5,208.5C 203.5,206.5 204.5,205.5 206.5,205.5 Z"/></g>
<g><path style="opacity:0.173" fill="#afb2b5" d="M 147.5,208.5 C 149.104,209.287 149.771,210.62 149.5,212.5C 148.326,211.486 147.66,210.153 147.5,208.5 Z"/></g>
<g><path style="opacity:0.361" fill="#abb0b1" d="M 80.5,208.5 C 81.9313,209.78 82.5979,211.447 82.5,213.5C 81.0687,212.22 80.4021,210.553 80.5,208.5 Z"/></g>
<g><path style="opacity:0.282" fill="#b8babe" d="M 270.5,208.5 C 270.598,210.553 269.931,212.22 268.5,213.5C 268.402,211.447 269.069,209.78 270.5,208.5 Z"/></g>
<g><path style="opacity:0.196" fill="#b0b4b6" d="M 258.5,210.5 C 258.34,212.153 257.674,213.486 256.5,214.5C 256.229,212.62 256.896,211.287 258.5,210.5 Z"/></g>
<g><path style="opacity:0.247" fill="#bcbdbf" d="M 94.5,214.5 C 95.9063,214.973 96.573,215.973 96.5,217.5C 95.0937,217.027 94.427,216.027 94.5,214.5 Z"/></g>
<g><path style="opacity:0.765" fill="#87898f" d="M 189.5,215.5 C 192.167,216.167 193.833,217.833 194.5,220.5C 192.167,219.5 190.5,217.833 189.5,215.5 Z"/></g>
<g><path style="opacity:0.647" fill="#a6a9ac" d="M 216.5,214.5 C 217.598,215.601 217.765,216.934 217,218.5C 215.384,219.801 213.884,219.801 212.5,218.5C 215.5,218.833 216.833,217.5 216.5,214.5 Z"/></g>
<g><path style="opacity:1" fill="#121619" d="M 163.5,214.5 C 165.833,214.5 168.167,214.5 170.5,214.5C 168.393,215.468 166.059,215.802 163.5,215.5C 164.16,218.232 164.827,220.566 165.5,222.5C 165.5,222.833 165.5,223.167 165.5,223.5C 164.532,225.607 164.198,227.941 164.5,230.5C 166.735,230.795 168.735,230.461 170.5,229.5C 171.167,229.5 171.5,229.167 171.5,228.5C 172.825,227.047 173.658,227.381 174,229.5C 174.308,228.692 174.808,228.025 175.5,227.5C 176.584,228.665 177.417,229.998 178,231.5C 178.181,228.305 178.681,225.305 179.5,222.5C 179.194,225.385 179.527,228.052 180.5,230.5C 181.347,231.966 182.68,232.8 184.5,233C 183.047,235.114 181.047,236.448 178.5,237C 181.695,237.181 184.695,237.681 187.5,238.5C 187.167,238.5 186.833,238.5 186.5,238.5C 184.167,238.5 181.833,238.5 179.5,238.5C 178.521,241.625 178.187,244.958 178.5,248.5C 176.167,248.5 173.833,248.5 171.5,248.5C 171.813,244.958 171.479,241.625 170.5,238.5C 170.167,238.5 169.833,238.5 169.5,238.5C 167.735,237.539 165.735,237.205 163.5,237.5C 163.5,239.167 163.5,240.833 163.5,242.5C 163.92,244.674 163.92,246.674 163.5,248.5C 160.914,249.48 158.247,249.813 155.5,249.5C 155.173,239.652 155.506,229.986 156.5,220.5C 157.906,220.027 158.573,219.027 158.5,217.5C 159.659,215.75 161.326,214.75 163.5,214.5 Z M 165.5,223.5 C 167.167,223.5 168.833,223.5 170.5,223.5C 170.5,225.5 170.5,227.5 170.5,229.5C 168.833,229.5 167.167,229.5 165.5,229.5C 165.5,227.5 165.5,225.5 165.5,223.5 Z"/></g>
<g><path style="opacity:0.949" fill="#707378" d="M 256.5,214.5 C 256.408,216.848 255.408,218.514 253.5,219.5C 253.75,217.326 254.75,215.659 256.5,214.5 Z"/></g>
<g><path style="opacity:0.286" fill="#a9aab3" d="M 158.5,217.5 C 158.573,219.027 157.906,220.027 156.5,220.5C 156.427,218.973 157.094,217.973 158.5,217.5 Z"/></g>
<g><path style="opacity:1" fill="#040a0f" d="M 187.5,214.5 C 188.492,214.328 189.158,214.662 189.5,215.5C 190.5,217.833 192.167,219.5 194.5,220.5C 194.5,220.833 194.5,221.167 194.5,221.5C 194.5,230.5 194.5,239.5 194.5,248.5C 192.167,248.5 189.833,248.5 187.5,248.5C 187.5,245.167 187.5,241.833 187.5,238.5C 184.695,237.681 181.695,237.181 178.5,237C 181.047,236.448 183.047,235.114 184.5,233C 182.68,232.8 181.347,231.966 180.5,230.5C 182.5,230.5 184.5,230.5 186.5,230.5C 186.802,227.941 186.468,225.607 185.5,223.5C 183.735,222.539 181.735,222.205 179.5,222.5C 178.681,225.305 178.181,228.305 178,231.5C 177.417,229.998 176.584,228.665 175.5,227.5C 174.808,228.025 174.308,228.692 174,229.5C 173.658,227.381 172.825,227.047 171.5,228.5C 171.5,226.5 171.5,224.5 171.5,222.5C 169.5,222.5 167.5,222.5 165.5,222.5C 164.827,220.566 164.16,218.232 163.5,215.5C 166.059,215.802 168.393,215.468 170.5,214.5C 171.487,209.695 171.821,204.695 171.5,199.5C 174.167,199.5 176.833,199.5 179.5,199.5C 179.5,204.5 179.5,209.5 179.5,214.5C 182.167,214.5 184.833,214.5 187.5,214.5 Z M 185.5,223.5 C 185.5,225.5 185.5,227.5 185.5,229.5C 183.833,229.5 182.167,229.5 180.5,229.5C 180.5,227.5 180.5,225.5 180.5,223.5C 182.167,223.5 183.833,223.5 185.5,223.5 Z"/></g>
<g><path style="opacity:0.192" fill="#c2c2c7" d="M 97.5,219.5 C 98.9063,219.973 99.573,220.973 99.5,222.5C 98.0937,222.027 97.427,221.027 97.5,219.5 Z"/></g>
<g><path style="opacity:0.243" fill="#b8babd" d="M 253.5,219.5 C 253.573,221.027 252.906,222.027 251.5,222.5C 251.427,220.973 252.094,219.973 253.5,219.5 Z"/></g>
<g><path style="opacity:0.616" fill="#8c8f97" d="M 125.5,221.5 C 127.452,222.785 129.118,224.451 130.5,226.5C 127.856,225.856 126.189,224.189 125.5,221.5 Z"/></g>
<g><path style="opacity:0.263" fill="#bcbec4" d="M 99.5,222.5 C 100.906,222.973 101.573,223.973 101.5,225.5C 100.094,225.027 99.427,224.027 99.5,222.5 Z"/></g>
<g><path style="opacity:0.004" fill="#d6d8da" d="M 224.5,222.5 C 224.167,224.833 222.833,226.167 220.5,226.5C 221.5,224.833 222.833,223.5 224.5,222.5 Z"/></g>
<g><path style="opacity:0.322" fill="#b3b5b9" d="M 251.5,222.5 C 251.573,224.027 250.906,225.027 249.5,225.5C 249.427,223.973 250.094,222.973 251.5,222.5 Z"/></g>
<g><path style="opacity:0.569" fill="#7a7e81" d="M 204.5,224.5 C 206.027,224.427 207.027,225.094 207.5,226.5C 205.973,226.573 204.973,225.906 204.5,224.5 Z"/></g>
<g><path style="opacity:0.502" fill="#96999e" d="M 165.5,223.5 C 165.5,223.167 165.5,222.833 165.5,222.5C 167.5,222.5 169.5,222.5 171.5,222.5C 171.5,224.5 171.5,226.5 171.5,228.5C 171.5,229.167 171.167,229.5 170.5,229.5C 170.5,227.5 170.5,225.5 170.5,223.5C 168.833,223.5 167.167,223.5 165.5,223.5 Z"/></g>
<g><path style="opacity:0.404" fill="#b5b9ba" d="M 101.5,225.5 C 103.262,226.262 104.262,227.596 104.5,229.5C 102.738,228.738 101.738,227.404 101.5,225.5 Z"/></g>
<g><path style="opacity:0.557" fill="#9b9fa2" d="M 207.5,226.5 C 211.099,227.344 214.766,227.677 218.5,227.5C 215.36,228.641 212.027,228.808 208.5,228C 207.944,227.617 207.611,227.117 207.5,226.5 Z"/></g>
<g><path style="opacity:0.463" fill="#a6a9aa" d="M 249.5,225.5 C 249.262,227.404 248.262,228.738 246.5,229.5C 246.738,227.596 247.738,226.262 249.5,225.5 Z"/></g>
<g><path style="opacity:0.478" fill="#a3a5ae" d="M 165.5,223.5 C 165.5,225.5 165.5,227.5 165.5,229.5C 167.167,229.5 168.833,229.5 170.5,229.5C 168.735,230.461 166.735,230.795 164.5,230.5C 164.198,227.941 164.532,225.607 165.5,223.5 Z"/></g>
<g><path style="opacity:0.506" fill="#a0a5a9" d="M 179.5,222.5 C 181.735,222.205 183.735,222.539 185.5,223.5C 186.468,225.607 186.802,227.941 186.5,230.5C 184.5,230.5 182.5,230.5 180.5,230.5C 179.527,228.052 179.194,225.385 179.5,222.5 Z M 185.5,223.5 C 183.833,223.5 182.167,223.5 180.5,223.5C 180.5,225.5 180.5,227.5 180.5,229.5C 182.167,229.5 183.833,229.5 185.5,229.5C 185.5,227.5 185.5,225.5 185.5,223.5 Z"/></g>
<g><path style="opacity:0.569" fill="#909399" d="M 90.5,228.5 C 92.4456,229.035 93.4456,230.368 93.5,232.5C 92.0256,231.564 91.0256,230.23 90.5,228.5 Z"/></g>
<g><path style="opacity:0.718" fill="#a0a3a6" d="M 104.5,229.5 C 106.587,230.585 107.92,232.251 108.5,234.5C 106.413,233.415 105.08,231.749 104.5,229.5 Z"/></g>
<g><path style="opacity:0.447" fill="#9a9fa1" d="M 246.5,229.5 C 242.833,235.167 238.167,239.833 232.5,243.5C 236.833,238.5 241.5,233.833 246.5,229.5 Z"/></g>
<g><path style="opacity:1" fill="#505457" d="M 95.5,234.5 C 96.5,234.5 97.5,234.5 98.5,234.5C 98.9565,237.406 99.9565,240.072 101.5,242.5C 99.016,240.2 97.016,237.533 95.5,234.5 Z"/></g>
<g><path style="opacity:0.804" fill="#7b8185" d="M 169.5,238.5 C 168.105,238.562 166.605,238.562 165,238.5C 164.79,240.058 164.29,241.391 163.5,242.5C 163.5,240.833 163.5,239.167 163.5,237.5C 165.735,237.205 167.735,237.539 169.5,238.5 Z"/></g>
<g><path style="opacity:1" fill="#14181c" d="M 274.5,194.5 C 274.15,199.54 272.816,204.206 270.5,208.5C 269.069,209.78 268.402,211.447 268.5,213.5C 264.91,223.029 259.577,231.363 252.5,238.5C 250.413,239.585 249.08,241.251 248.5,243.5C 247.5,245.167 246.167,246.5 244.5,247.5C 242.973,247.427 241.973,248.094 241.5,249.5C 239.2,251.984 236.533,253.984 233.5,255.5C 232.85,255.196 232.183,254.863 231.5,254.5C 223.068,259.254 221.068,257.254 225.5,248.5C 227.027,248.573 228.027,247.906 228.5,246.5C 230.404,246.262 231.738,245.262 232.5,243.5C 238.167,239.833 242.833,235.167 246.5,229.5C 248.262,228.738 249.262,227.404 249.5,225.5C 250.906,225.027 251.573,224.027 251.5,222.5C 252.906,222.027 253.573,221.027 253.5,219.5C 255.408,218.514 256.408,216.848 256.5,214.5C 257.674,213.486 258.34,212.153 258.5,210.5C 258.402,208.447 259.069,206.78 260.5,205.5C 262.074,203.898 262.741,201.898 262.5,199.5C 262.328,198.508 262.662,197.842 263.5,197.5C 264.458,195.698 265.125,193.698 265.5,191.5C 266.583,191.461 267.583,191.127 268.5,190.5C 269.314,192.766 269.814,195.1 270,197.5C 270.483,196.552 270.649,195.552 270.5,194.5C 271.833,194.5 273.167,194.5 274.5,194.5 Z"/></g>
<g><path style="opacity:1" fill="#13161a" d="M 83.5,178.5 C 83.8333,178.5 84.1667,178.5 84.5,178.5C 85.2482,183.485 85.9149,188.485 86.5,193.5C 86.0535,196.01 86.7202,198.01 88.5,199.5C 88.5,199.833 88.5,200.167 88.5,200.5C 88.1201,202.698 88.7868,204.365 90.5,205.5C 92.2038,208.256 93.5371,211.256 94.5,214.5C 94.427,216.027 95.0937,217.027 96.5,217.5C 97.3382,217.842 97.6716,218.508 97.5,219.5C 97.427,221.027 98.0937,222.027 99.5,222.5C 99.427,224.027 100.094,225.027 101.5,225.5C 101.738,227.404 102.738,228.738 104.5,229.5C 105.08,231.749 106.413,233.415 108.5,234.5C 109.833,235.5 111.167,236.5 112.5,237.5C 112.833,239.833 114.167,241.167 116.5,241.5C 117.872,242.512 119.205,243.512 120.5,244.5C 120.995,246.482 121.495,248.482 122,250.5C 122.601,248.641 123.434,248.308 124.5,249.5C 123.637,250.94 123.637,252.274 124.5,253.5C 123.833,253.833 123.167,254.167 122.5,254.5C 119.376,253.104 116.376,251.437 113.5,249.5C 112.893,249.624 112.56,249.957 112.5,250.5C 111.833,250.5 111.167,250.5 110.5,250.5C 109.5,250.167 108.833,249.5 108.5,248.5C 107.415,246.413 105.749,245.08 103.5,244.5C 102.5,244.167 101.833,243.5 101.5,242.5C 99.9565,240.072 98.9565,237.406 98.5,234.5C 97.5,234.5 96.5,234.5 95.5,234.5C 94.5,234.167 93.8333,233.5 93.5,232.5C 93.4456,230.368 92.4456,229.035 90.5,228.5C 87.0734,223.984 84.4068,218.984 82.5,213.5C 82.5979,211.447 81.9313,209.78 80.5,208.5C 80.405,206.214 79.7384,204.214 78.5,202.5C 76.7547,198.8 75.7547,194.8 75.5,190.5C 77.7934,192.665 79.6267,195.331 81,198.5C 81.3589,195.456 82.0255,195.122 83,197.5C 83.6667,194.833 84.3333,194.833 85,197.5C 84.292,191.228 83.792,184.895 83.5,178.5 Z"/></g>
<g><path style="opacity:0.4" fill="#c1c6c8" d="M 112.5,237.5 C 114.167,238.5 115.5,239.833 116.5,241.5C 114.167,241.167 112.833,239.833 112.5,237.5 Z"/></g>
<g><path style="opacity:0.051" fill="#bcc0c7" d="M 252.5,238.5 C 251.92,240.749 250.587,242.415 248.5,243.5C 249.08,241.251 250.413,239.585 252.5,238.5 Z"/></g>
<g><path style="opacity:0.604" fill="#acaeb0" d="M 103.5,244.5 C 105.749,245.08 107.415,246.413 108.5,248.5C 106.251,247.92 104.585,246.587 103.5,244.5 Z"/></g>
<g><path style="opacity:0.506" fill="#9fa2a5" d="M 232.5,243.5 C 231.738,245.262 230.404,246.262 228.5,246.5C 229.262,244.738 230.596,243.738 232.5,243.5 Z"/></g>
<g><path style="opacity:0.988" fill="#55585e" d="M 120.5,244.5 C 123.047,245.934 125.381,247.6 127.5,249.5C 126.5,249.5 125.5,249.5 124.5,249.5C 123.434,248.308 122.601,248.641 122,250.5C 121.495,248.482 120.995,246.482 120.5,244.5 Z"/></g>
<g><path style="opacity:0.639" fill="#9a9fa4" d="M 228.5,246.5 C 228.027,247.906 227.027,248.573 225.5,248.5C 225.973,247.094 226.973,246.427 228.5,246.5 Z"/></g>
<g><path style="opacity:0.196" fill="#c1c7c9" d="M 170.5,238.5 C 171.479,241.625 171.813,244.958 171.5,248.5C 173.833,248.5 176.167,248.5 178.5,248.5C 178.187,244.958 178.521,241.625 179.5,238.5C 179.5,242.167 179.5,245.833 179.5,249.5C 176.5,249.5 173.5,249.5 170.5,249.5C 170.5,245.833 170.5,242.167 170.5,238.5 Z"/></g>
<g><path style="opacity:0.196" fill="#a9adb0" d="M 194.5,221.5 C 195.494,230.652 195.827,239.985 195.5,249.5C 192.5,249.5 189.5,249.5 186.5,249.5C 186.5,245.833 186.5,242.167 186.5,238.5C 186.833,238.5 187.167,238.5 187.5,238.5C 187.5,241.833 187.5,245.167 187.5,248.5C 189.833,248.5 192.167,248.5 194.5,248.5C 194.5,239.5 194.5,230.5 194.5,221.5 Z"/></g>
<g><path style="opacity:0.008" fill="#d0dadc" d="M 244.5,247.5 C 244.027,248.906 243.027,249.573 241.5,249.5C 241.973,248.094 242.973,247.427 244.5,247.5 Z"/></g>
<g><path style="opacity:0.49" fill="#909a9b" d="M 110.5,250.5 C 111.167,250.5 111.833,250.5 112.5,250.5C 112.833,251.167 113.167,251.833 113.5,252.5C 111.973,252.573 110.973,251.906 110.5,250.5 Z"/></g>
<g><path style="opacity:0.439" fill="#8c9397" d="M 120.5,257.5 C 122.027,257.427 123.027,258.094 123.5,259.5C 121.973,259.573 120.973,258.906 120.5,257.5 Z"/></g>
<g><path style="opacity:0.999" fill="#1b1e22" d="M 225.5,248.5 C 221.068,257.254 223.068,259.254 231.5,254.5C 232.183,254.863 232.85,255.196 233.5,255.5C 226.87,261.316 219.204,265.316 210.5,267.5C 208.214,267.595 206.214,268.262 204.5,269.5C 198.18,271.964 191.514,273.297 184.5,273.5C 175.818,273.479 167.152,273.146 158.5,272.5C 156.784,272.371 155.117,272.038 153.5,271.5C 151.485,270.076 149.152,269.41 146.5,269.5C 140.013,268.25 134.013,265.917 128.5,262.5C 128.027,261.094 127.027,260.427 125.5,260.5C 124.508,260.672 123.842,260.338 123.5,259.5C 123.027,258.094 122.027,257.427 120.5,257.5C 117.63,256.567 115.296,254.9 113.5,252.5C 113.167,251.833 112.833,251.167 112.5,250.5C 112.56,249.957 112.893,249.624 113.5,249.5C 116.376,251.437 119.376,253.104 122.5,254.5C 123.167,254.167 123.833,253.833 124.5,253.5C 123.637,252.274 123.637,250.94 124.5,249.5C 125.5,249.5 126.5,249.5 127.5,249.5C 135.68,254.255 144.347,257.922 153.5,260.5C 153.611,261.117 153.944,261.617 154.5,262C 156.473,262.495 158.473,262.662 160.5,262.5C 173.588,262.964 186.588,262.298 199.5,260.5C 201.898,260.741 203.898,260.074 205.5,258.5C 212.128,255.186 218.795,251.853 225.5,248.5 Z"/></g>
<g><path style="opacity:0.941" fill="#5f6467" d="M 205.5,258.5 C 203.898,260.074 201.898,260.741 199.5,260.5C 201.102,258.926 203.102,258.259 205.5,258.5 Z"/></g>
<g><path style="opacity:0.251" fill="#a4a7ab" d="M 125.5,260.5 C 127.027,260.427 128.027,261.094 128.5,262.5C 126.973,262.573 125.973,261.906 125.5,260.5 Z"/></g>
<g><path style="opacity:0.835" fill="#6f7476" d="M 153.5,260.5 C 156.067,260.721 158.401,261.388 160.5,262.5C 158.473,262.662 156.473,262.495 154.5,262C 153.944,261.617 153.611,261.117 153.5,260.5 Z"/></g>
<g><path style="opacity:0.031" fill="#b2bec0" d="M 210.5,267.5 C 208.898,269.074 206.898,269.741 204.5,269.5C 206.214,268.262 208.214,267.595 210.5,267.5 Z"/></g>
<g><path style="opacity:0.498" fill="#8a8e92" d="M 146.5,269.5 C 149.152,269.41 151.485,270.076 153.5,271.5C 150.848,271.59 148.515,270.924 146.5,269.5 Z"/></g>
<g><path style="opacity:0.106" fill="#d1d4d7" d="M 158.5,272.5 C 167.152,273.146 175.818,273.479 184.5,273.5C 175.784,274.868 167.118,274.535 158.5,272.5 Z"/></g>
</svg>
