<?xml version="1.0" encoding="UTF-8"?>
<svg version="1.1" xmlns="http://www.w3.org/2000/svg" width="512" height="512">
<path d="M0 0 C0.83171722 0.00021149 1.66343445 0.00042297 2.52035522 0.00064087 C16.5337469 0.0360719 29.95644478 1.09237282 43.625 4.375 C44.76340332 4.63990234 44.76340332 4.63990234 45.92480469 4.91015625 C91.62223004 15.90196457 130.77276056 47.01415579 155.4296875 86.41552734 C172.87002456 115.00542629 181.08761585 146.69113034 180.9375 180.0625 C180.93476578 181.32315781 180.93476578 181.32315781 180.93197632 182.60928345 C180.88752419 194.77367435 180.47834366 206.50104626 177.625 218.375 C177.45871094 219.12587891 177.29242188 219.87675781 177.12109375 220.65039062 C166.59164014 267.87693999 137.01049678 307.95474095 96.51953125 333.96875 C67.452815 352.15836804 35.12224114 360.84503143 0.9375 360.6875 C0.09639679 360.68534485 -0.74470642 360.6831897 -1.61129761 360.68096924 C-13.75363032 360.63100733 -25.54265277 360.35315524 -37.375 357.375 C-38.59848145 357.07698486 -38.59848145 357.07698486 -39.84667969 356.77294922 C-88.7410903 344.58130967 -129.09362743 315.45798534 -155.375 272.375 C-172.02284814 244.44713225 -179.82627774 213.38494714 -179.75 181 C-179.74978851 180.16828278 -179.74957703 179.33656555 -179.74935913 178.47964478 C-179.7139281 164.4662531 -178.65762718 151.04355522 -175.375 137.375 C-175.11009766 136.23659668 -175.11009766 136.23659668 -174.83984375 135.07519531 C-163.84803543 89.37776996 -132.73584421 50.22723944 -93.33447266 25.5703125 C-64.87511796 8.20960971 -33.23149565 -0.07827166 0 0 Z " fill="#FCBC3F" transform="translate(255.375,75.625)"/>
<path d="M0 0 C5.67476113 1.96434039 9.31400331 5.62800662 12 11 C12.09288682 13.50236916 12.12582412 15.97662686 12.11352539 18.47900391 C12.11367142 19.24982803 12.11381744 20.02065216 12.1139679 20.81483459 C12.11326989 23.36877229 12.10548275 25.92263751 12.09765625 28.4765625 C12.09579167 30.24490316 12.09436796 32.01324433 12.09336853 33.78158569 C12.0895465 38.44064759 12.07971888 43.09967842 12.06866455 47.75872803 C12.05844369 52.51102274 12.05386946 57.26332247 12.04882812 62.015625 C12.03809634 71.34376367 12.02102367 80.67187925 12 90 C13.44579941 89.99000725 13.44579941 89.99000725 14.92080688 89.97981262 C24.01347864 89.91894313 33.10610894 89.87399934 42.19893837 89.84456348 C46.87343476 89.82892135 51.54776639 89.80770962 56.22216797 89.77368164 C60.73497508 89.74103637 65.24762391 89.72313606 69.76054001 89.71536827 C71.4804979 89.70983404 73.20044734 89.69902697 74.92033768 89.68280983 C77.33331126 89.66096661 79.74563453 89.65803591 82.15869141 89.65942383 C83.22037033 89.64324509 83.22037033 89.64324509 84.30349731 89.6267395 C89.60916063 89.65966472 93.72078938 90.87237583 97.64453125 94.53515625 C101.83364552 100.01322875 102.62152402 103.18625519 102 110 C100.17465409 115.27322153 97.39280797 117.79691086 93 121 C89.43383586 122.18872138 86.20908659 122.13208696 82.49926758 122.11352539 C81.73805099 122.11367142 80.97683441 122.11381744 80.19255066 122.1139679 C77.6765152 122.11327124 75.16055378 122.10549038 72.64453125 122.09765625 C70.90004008 122.09579119 69.1555484 122.0943677 67.41105652 122.09336853 C62.81941278 122.08955026 58.22780067 122.07972584 53.63616943 122.06866455 C48.95081002 122.05843561 44.26544549 122.05386773 39.58007812 122.04882812 C30.38670485 122.03810298 21.19335506 122.02103481 12 122 C12.00999275 123.44579941 12.00999275 123.44579941 12.02018738 124.92080688 C12.08105687 134.01347864 12.12600066 143.10610894 12.15543652 152.19893837 C12.17107865 156.87343476 12.19229038 161.54776639 12.22631836 166.22216797 C12.25896363 170.73497508 12.27686394 175.24762391 12.28463173 179.76054001 C12.29016596 181.4804979 12.30097303 183.20044734 12.31719017 184.92033768 C12.33903339 187.33331126 12.34196409 189.74563453 12.34057617 192.15869141 C12.351362 192.86647736 12.36214783 193.57426331 12.3732605 194.30349731 C12.34034068 199.60829009 11.11086645 203.68574278 7.5 207.64453125 C2.09279135 211.85483174 -2.27893677 212.82862423 -9 212 C-14.3035228 209.29820537 -18.09832298 205.70503105 -20 200 C-20.09085515 197.49019126 -20.1260815 195.00880079 -20.11352539 192.49926758 C-20.11367142 191.73805099 -20.11381744 190.97683441 -20.1139679 190.19255066 C-20.11327124 187.6765152 -20.10549038 185.16055378 -20.09765625 182.64453125 C-20.09579119 180.90004008 -20.0943677 179.1555484 -20.09336853 177.41105652 C-20.08955026 172.81941278 -20.07972584 168.22780067 -20.06866455 163.63616943 C-20.05843561 158.95081002 -20.05386773 154.26544549 -20.04882812 149.58007812 C-20.03810298 140.38670485 -20.02103481 131.19335506 -20 122 C-20.97639435 122.00888245 -21.9527887 122.01776489 -22.95877075 122.0269165 C-32.16914245 122.108072 -41.37944141 122.16799879 -50.5900898 122.20724869 C-55.32518565 122.22810605 -60.0599924 122.25638979 -64.79492188 122.30175781 C-69.36609608 122.34528173 -73.93699255 122.36915104 -78.508358 122.37950897 C-80.25066372 122.38688861 -81.99295457 122.40129947 -83.73514175 122.42292023 C-86.1793911 122.4520419 -88.62249907 122.45595245 -91.06689453 122.45410156 C-91.78403122 122.46848267 -92.50116791 122.48286377 -93.24003601 122.49768066 C-98.29181869 122.45640367 -101.096365 121.14178009 -105 118 C-109.3022759 113.23261319 -110.36282503 109.56252705 -110.28125 103.28125 C-109.69180611 98.50020514 -106.85179203 95.75038822 -103.375 92.6875 C-99.33599018 89.81767723 -96.34060479 89.86278712 -91.52099609 89.88647461 C-90.3647599 89.88625557 -90.3647599 89.88625557 -89.18516541 89.8860321 C-86.63122771 89.88673011 -84.07736249 89.89451725 -81.5234375 89.90234375 C-79.75509684 89.90420833 -77.98675567 89.90563204 -76.21841431 89.90663147 C-71.55935241 89.9104535 -66.90032158 89.92028112 -62.24127197 89.93133545 C-57.48897726 89.94155631 -52.73667753 89.94613054 -47.984375 89.95117188 C-38.65623633 89.96190366 -29.32812075 89.97897633 -20 90 C-20.00888245 89.02360565 -20.01776489 88.0472113 -20.0269165 87.04122925 C-20.108072 77.83085755 -20.16799879 68.62055859 -20.20724869 59.4099102 C-20.22810605 54.67481435 -20.25638979 49.9400076 -20.30175781 45.20507812 C-20.34528173 40.63390392 -20.36915104 36.06300745 -20.37950897 31.491642 C-20.38688861 29.74933628 -20.40129947 28.00704543 -20.42292023 26.26485825 C-20.4520419 23.8206089 -20.45595245 21.37750093 -20.45410156 18.93310547 C-20.46848267 18.21596878 -20.48286377 17.49883209 -20.49768066 16.75996399 C-20.45640663 11.70854335 -19.14550051 8.90110922 -16 5 C-10.58420856 0.22894564 -7.09115125 -0.64682799 0 0 Z " fill="#FEFEFE" transform="translate(260,150)"/>
</svg>
