<?xml version="1.0" encoding="UTF-8"?>
<!DOCTYPE svg PUBLIC "-//W3C//DTD SVG 1.1//EN" "http://www.w3.org/Graphics/SVG/1.1/DTD/svg11.dtd">
<svg xmlns="http://www.w3.org/2000/svg" version="1.1" width="560px" height="445px" style="shape-rendering:geometricPrecision; text-rendering:geometricPrecision; image-rendering:optimizeQuality; fill-rule:evenodd; clip-rule:evenodd" xmlns:xlink="http://www.w3.org/1999/xlink">
<g><path style="opacity:0.196" fill="#b5b9b8" d="M 260.5,87.5 C 257.727,88.6572 254.727,89.3239 251.5,89.5C 254.123,87.7345 257.123,87.0679 260.5,87.5 Z"/></g>
<g><path style="opacity:0.051" fill="#cbcfce" d="M 279.5,88.5 C 273.5,88.1667 267.5,87.8333 261.5,87.5C 264.228,86.7948 267.061,86.1281 270,85.5C 273.134,86.9089 276.301,87.9089 279.5,88.5 Z"/></g>
<g><path style="opacity:0.008" fill="#fefffe" d="M 286.5,88.5 C 287.833,89.1667 287.833,89.1667 286.5,88.5 Z"/></g>
<g><path style="opacity:0.573" fill="#999b9b" d="M 282.5,89.5 C 283.833,89.5 285.167,89.5 286.5,89.5C 288.072,90.6873 289.739,91.6873 291.5,92.5C 288.145,92.3104 285.145,91.3104 282.5,89.5 Z"/></g>
<g><path style="opacity:0.924" fill="#464a48" d="M 251.5,89.5 C 248.226,91.406 244.893,93.406 241.5,95.5C 240.583,94.8728 239.583,94.5394 238.5,94.5C 242.237,91.4733 246.57,89.8067 251.5,89.5 Z"/></g>
<g><path style="opacity:0.302" fill="#b4b5b5" d="M 295.5,94.5 C 294.209,94.7373 293.209,94.404 292.5,93.5C 293.496,93.5858 294.329,93.2524 295,92.5C 295.464,93.0944 295.631,93.7611 295.5,94.5 Z"/></g>
<g><path style="opacity:1" fill="#606562" d="M 238.5,94.5 C 238.013,95.4734 237.513,96.4734 237,97.5C 236.014,96.8288 234.847,96.8288 233.5,97.5C 234.659,95.7497 236.326,94.7497 238.5,94.5 Z"/></g>
<g><path style="opacity:0.114" fill="#cdcfce" d="M 297.5,95.5 C 299.027,95.427 300.027,96.0937 300.5,97.5C 298.973,97.573 297.973,96.9063 297.5,95.5 Z"/></g>
<g><path style="opacity:1" fill="#182122" d="M 260.5,87.5 C 260.833,87.5 261.167,87.5 261.5,87.5C 267.5,87.8333 273.5,88.1667 279.5,88.5C 280.791,88.2627 281.791,88.596 282.5,89.5C 285.145,91.3104 288.145,92.3104 291.5,92.5C 292.167,92.5 292.5,92.8333 292.5,93.5C 293.209,94.404 294.209,94.7373 295.5,94.5C 296.492,94.3284 297.158,94.6618 297.5,95.5C 297.973,96.9063 298.973,97.573 300.5,97.5C 300.973,98.9063 301.973,99.573 303.5,99.5C 304.5,99.8333 305.167,100.5 305.5,101.5C 306.219,103.764 306.552,106.097 306.5,108.5C 306.573,110.027 305.906,111.027 304.5,111.5C 301.904,112.265 299.237,112.599 296.5,112.5C 296.027,111.094 295.027,110.427 293.5,110.5C 293.027,109.094 292.027,108.427 290.5,108.5C 287.314,107.403 284.314,106.07 281.5,104.5C 281.082,103.778 280.416,103.278 279.5,103C 270.833,101 262.167,101 253.5,103C 251.934,103.608 250.6,104.442 249.5,105.5C 249.158,106.338 248.492,106.672 247.5,106.5C 245.833,106.5 244.167,106.5 242.5,106.5C 242.5,107.5 242.5,108.5 242.5,109.5C 241.101,110.89 239.434,111.89 237.5,112.5C 234.549,112.713 231.882,112.046 229.5,110.5C 227.416,108.007 227.083,105.34 228.5,102.5C 230.5,101.167 232.167,99.5 233.5,97.5C 234.847,96.8288 236.014,96.8288 237,97.5C 237.513,96.4734 238.013,95.4734 238.5,94.5C 239.583,94.5394 240.583,94.8728 241.5,95.5C 244.893,93.406 248.226,91.406 251.5,89.5C 254.727,89.3239 257.727,88.6572 260.5,87.5 Z"/></g>
<g><path style="opacity:0.027" fill="#cdd1d0" d="M 300.5,97.5 C 302.027,97.427 303.027,98.0937 303.5,99.5C 301.973,99.573 300.973,98.9063 300.5,97.5 Z"/></g>
<g><path style="opacity:0.502" fill="#979898" d="M 233.5,97.5 C 232.167,99.5 230.5,101.167 228.5,102.5C 229.167,99.8333 230.833,98.1667 233.5,97.5 Z"/></g>
<g><path style="opacity:0.239" fill="#bec2c2" d="M 281.5,104.5 C 270.722,101.604 260.056,101.937 249.5,105.5C 250.6,104.442 251.934,103.608 253.5,103C 262.167,101 270.833,101 279.5,103C 280.416,103.278 281.082,103.778 281.5,104.5 Z"/></g>
<g><path style="opacity:0.067" fill="#ebebeb" d="M 305.5,101.5 C 306.993,102.312 307.66,103.645 307.5,105.5C 307.48,106.726 307.147,107.726 306.5,108.5C 306.552,106.097 306.219,103.764 305.5,101.5 Z"/></g>
<g><path style="opacity:0.373" fill="#9c9f9e" d="M 188.5,107.5 C 188.573,109.027 187.906,110.027 186.5,110.5C 186.427,108.973 187.094,107.973 188.5,107.5 Z"/></g>
<g><path style="opacity:0.784" fill="#838681" d="M 186.5,110.5 C 186.833,113.167 187.167,115.833 187.5,118.5C 185.416,116.007 185.083,113.34 186.5,110.5 Z"/></g>
<g><path style="opacity:0.631" fill="#a2a49e" d="M 187.5,119.5 C 189.404,119.738 190.738,120.738 191.5,122.5C 189.596,122.262 188.262,121.262 187.5,119.5 Z"/></g>
<g><path style="opacity:0.078" fill="#b7bbbb" d="M 347.5,118.5 C 347.167,120.833 345.833,122.167 343.5,122.5C 344.5,120.833 345.833,119.5 347.5,118.5 Z"/></g>
<g><path style="opacity:0.537" fill="#a5a9a8" d="M 191.5,122.5 C 194.385,122.194 197.052,122.527 199.5,123.5C 196.475,125.106 193.808,124.772 191.5,122.5 Z"/></g>
<g><path style="opacity:0.518" fill="#aaadad" d="M 335.5,123.5 C 337.948,122.527 340.615,122.194 343.5,122.5C 341.098,124.514 338.432,124.847 335.5,123.5 Z"/></g>
<g><path style="opacity:0.345" fill="#a6aaa4" d="M 199.5,123.5 C 201.027,123.427 202.027,124.094 202.5,125.5C 200.973,125.573 199.973,124.906 199.5,123.5 Z"/></g>
<g><path style="opacity:0.341" fill="#aeafae" d="M 202.5,125.5 C 204.027,125.427 205.027,126.094 205.5,127.5C 203.973,127.573 202.973,126.906 202.5,125.5 Z"/></g>
<g><path style="opacity:0.396" fill="#a9a9a8" d="M 205.5,127.5 C 207.027,127.427 208.027,128.094 208.5,129.5C 206.973,129.573 205.973,128.906 205.5,127.5 Z"/></g>
<g><path style="opacity:0.345" fill="#b2b4b4" d="M 208.5,129.5 C 210.027,129.427 211.027,130.094 211.5,131.5C 209.973,131.573 208.973,130.906 208.5,129.5 Z"/></g>
<g><path style="opacity:0.02" fill="#dde0e0" d="M 325.5,130.5 C 325.027,131.906 324.027,132.573 322.5,132.5C 322.973,131.094 323.973,130.427 325.5,130.5 Z"/></g>
<g><path style="opacity:0.349" fill="#aeb2af" d="M 211.5,131.5 C 213.027,131.427 214.027,132.094 214.5,133.5C 212.973,133.573 211.973,132.906 211.5,131.5 Z"/></g>
<g><path style="opacity:0.02" fill="#dcddde" d="M 322.5,132.5 C 322.027,133.906 321.027,134.573 319.5,134.5C 319.973,133.094 320.973,132.427 322.5,132.5 Z"/></g>
<g><path style="opacity:0.349" fill="#b0b4b2" d="M 214.5,133.5 C 216.027,133.427 217.027,134.094 217.5,135.5C 215.973,135.573 214.973,134.906 214.5,133.5 Z"/></g>
<g><path style="opacity:0.361" fill="#a7adab" d="M 217.5,135.5 C 219.027,135.427 220.027,136.094 220.5,137.5C 218.973,137.573 217.973,136.906 217.5,135.5 Z"/></g>
<g><path style="opacity:0.369" fill="#aaaeac" d="M 220.5,137.5 C 222.027,137.427 223.027,138.094 223.5,139.5C 221.973,139.573 220.973,138.906 220.5,137.5 Z"/></g>
<g><path style="opacity:0.388" fill="#a1a6a5" d="M 223.5,139.5 C 225.027,139.427 226.027,140.094 226.5,141.5C 224.973,141.573 223.973,140.906 223.5,139.5 Z"/></g>
<g><path style="opacity:0.31" fill="#a9aeac" d="M 226.5,141.5 C 228.027,141.427 229.027,142.094 229.5,143.5C 227.973,143.573 226.973,142.906 226.5,141.5 Z"/></g>
<g><path style="opacity:0.004" fill="#fefffe" d="M 229.5,144.5 C 228.833,145.167 228.833,145.167 229.5,144.5 Z"/></g>
<g><path style="opacity:0.243" fill="#bcbcbc" d="M 229.5,144.5 C 229.5,144.167 229.5,143.833 229.5,143.5C 231.027,143.427 232.027,144.094 232.5,145.5C 231.391,145.443 230.391,145.11 229.5,144.5 Z"/></g>
<g><path style="opacity:0.043" fill="#c9c9c8" d="M 305.5,143.5 C 305.027,144.906 304.027,145.573 302.5,145.5C 302.973,144.094 303.973,143.427 305.5,143.5 Z"/></g>
<g><path style="opacity:0.208" fill="#bfc3c2" d="M 232.5,145.5 C 234.027,145.427 235.027,146.094 235.5,147.5C 233.973,147.573 232.973,146.906 232.5,145.5 Z"/></g>
<g><path style="opacity:0.014" fill="#dedfde" d="M 302.5,145.5 C 301.965,147.446 300.632,148.446 298.5,148.5C 299.262,146.738 300.596,145.738 302.5,145.5 Z"/></g>
<g><path style="opacity:0.006" fill="#e1e1e1" d="M 235.5,147.5 C 236.492,147.328 237.158,147.662 237.5,148.5C 236.662,148.842 236.328,149.508 236.5,150.5C 235.596,149.791 235.263,148.791 235.5,147.5 Z"/></g>
<g><path style="opacity:1" fill="#161f20" d="M 201.5,106.5 C 202.298,108.966 203.631,110.966 205.5,112.5C 206.492,112.328 207.158,112.662 207.5,113.5C 207.973,114.906 208.973,115.573 210.5,115.5C 211.492,115.328 212.158,115.662 212.5,116.5C 212.973,117.906 213.973,118.573 215.5,118.5C 216.492,118.328 217.158,118.662 217.5,119.5C 217.973,120.906 218.973,121.573 220.5,121.5C 221.659,123.25 223.326,124.25 225.5,124.5C 226.492,124.328 227.158,124.662 227.5,125.5C 227.973,126.906 228.973,127.573 230.5,127.5C 231.492,127.328 232.158,127.662 232.5,128.5C 232.973,129.906 233.973,130.573 235.5,130.5C 238.778,131.809 241.778,133.642 244.5,136C 247.095,136.6 249.429,136.1 251.5,134.5C 260.895,130.059 270.562,129.393 280.5,132.5C 282.674,132.75 284.341,133.75 285.5,135.5C 285.884,137.293 287.05,138.293 289,138.5C 290.301,138.361 291.134,137.695 291.5,136.5C 293.147,134.674 295.147,133.34 297.5,132.5C 299.027,132.573 300.027,131.906 300.5,130.5C 302.027,130.573 303.027,129.906 303.5,128.5C 305.027,128.573 306.027,127.906 306.5,126.5C 306.842,125.662 307.508,125.328 308.5,125.5C 310.027,125.573 311.027,124.906 311.5,123.5C 313.027,123.573 314.027,122.906 314.5,121.5C 316.674,121.25 318.341,120.25 319.5,118.5C 321.027,118.573 322.027,117.906 322.5,116.5C 324.027,116.573 325.027,115.906 325.5,114.5C 326.514,113.326 327.847,112.66 329.5,112.5C 331.048,112.179 331.715,111.179 331.5,109.5C 333.167,108.5 334.5,107.167 335.5,105.5C 343.308,102.911 347.975,105.744 349.5,114C 349.475,115.876 348.809,117.376 347.5,118.5C 345.833,119.5 344.5,120.833 343.5,122.5C 340.615,122.194 337.948,122.527 335.5,123.5C 332.554,126.313 329.221,128.646 325.5,130.5C 323.973,130.427 322.973,131.094 322.5,132.5C 320.973,132.427 319.973,133.094 319.5,134.5C 315.181,137.996 310.515,140.996 305.5,143.5C 303.973,143.427 302.973,144.094 302.5,145.5C 300.596,145.738 299.262,146.738 298.5,148.5C 297.193,150.223 297.193,152.057 298.5,154C 323.498,154.5 348.498,154.667 373.5,154.5C 359.269,155.012 344.935,156.012 330.5,157.5C 326.904,156.605 323.404,156.272 320,156.5C 319.308,157.025 318.808,157.692 318.5,158.5C 324.052,159.188 329.552,159.854 335,160.5C 337.333,160.167 339.667,159.833 342,159.5C 342.5,160 343,160.5 343.5,161C 319.364,161.903 295.364,162.236 271.5,162C 278.167,162.333 284.833,162.667 291.5,163C 290.062,163.219 288.729,163.719 287.5,164.5C 293.138,165.33 298.804,165.83 304.5,166C 276.833,166.667 249.167,166.667 221.5,166C 220.5,165.667 219.5,165.333 218.5,165C 219.91,164.632 220.91,163.799 221.5,162.5C 220.092,161.757 218.759,160.923 217.5,160C 218.973,159.29 219.64,158.124 219.5,156.5C 214.926,156.914 210.426,157.581 206,158.5C 205.517,157.552 205.351,156.552 205.5,155.5C 216.014,155.828 226.347,155.494 236.5,154.5C 238.461,152.68 238.794,150.68 237.5,148.5C 237.158,147.662 236.492,147.328 235.5,147.5C 235.027,146.094 234.027,145.427 232.5,145.5C 232.027,144.094 231.027,143.427 229.5,143.5C 229.027,142.094 228.027,141.427 226.5,141.5C 226.027,140.094 225.027,139.427 223.5,139.5C 223.027,138.094 222.027,137.427 220.5,137.5C 220.027,136.094 219.027,135.427 217.5,135.5C 217.027,134.094 216.027,133.427 214.5,133.5C 214.027,132.094 213.027,131.427 211.5,131.5C 211.027,130.094 210.027,129.427 208.5,129.5C 208.027,128.094 207.027,127.427 205.5,127.5C 205.027,126.094 204.027,125.427 202.5,125.5C 202.027,124.094 201.027,123.427 199.5,123.5C 197.052,122.527 194.385,122.194 191.5,122.5C 190.738,120.738 189.404,119.738 187.5,119.5C 187.5,119.167 187.5,118.833 187.5,118.5C 187.167,115.833 186.833,113.167 186.5,110.5C 187.906,110.027 188.573,109.027 188.5,107.5C 190.166,105.172 192.499,104.172 195.5,104.5C 197.883,104.361 199.883,105.028 201.5,106.5 Z M 274.5,145.5 C 274.842,146.338 275.508,146.672 276.5,146.5C 277.167,147.5 277.833,148.5 278.5,149.5C 277.224,150.386 277.224,151.386 278.5,152.5C 279.298,152.043 279.631,151.376 279.5,150.5C 279.833,150.5 280.167,150.5 280.5,150.5C 280.414,151.496 280.748,152.329 281.5,153C 271.991,153.824 262.657,153.658 253.5,152.5C 254.803,150.858 256.136,149.191 257.5,147.5C 262.935,144.723 268.601,144.056 274.5,145.5 Z"/></g>
<g><path style="opacity:0.009" fill="#fefffe" d="M 278.5,149.5 C 278.5,150.167 278.833,150.5 279.5,150.5C 279.631,151.376 279.298,152.043 278.5,152.5C 277.224,151.386 277.224,150.386 278.5,149.5 Z"/></g>
<g><path style="opacity:0.729" fill="#969898" d="M 276.5,146.5 C 278.833,146.833 280.167,148.167 280.5,150.5C 280.167,150.5 279.833,150.5 279.5,150.5C 278.833,150.5 278.5,150.167 278.5,149.5C 277.833,148.5 277.167,147.5 276.5,146.5 Z"/></g>
<g><path style="opacity:0.451" fill="#9ea3a2" d="M 274.5,145.5 C 268.601,144.056 262.935,144.723 257.5,147.5C 261.384,143.774 266.051,142.607 271.5,144C 272.737,144.232 273.737,144.732 274.5,145.5 Z"/></g>
<g><path style="opacity:0.941" fill="#6b7171" d="M 285.5,135.5 C 285.833,135.5 286.167,135.5 286.5,135.5C 287.856,137.538 289.523,137.872 291.5,136.5C 291.134,137.695 290.301,138.361 289,138.5C 287.05,138.293 285.884,137.293 285.5,135.5 Z"/></g>
<g><path style="opacity:0.008" fill="#fefffe" d="M 286.5,134.5 C 287.833,135.167 287.833,135.167 286.5,134.5 Z"/></g>
<g><path style="opacity:0.702" fill="#838484" d="M 300.5,130.5 C 300.027,131.906 299.027,132.573 297.5,132.5C 297.973,131.094 298.973,130.427 300.5,130.5 Z"/></g>
<g><path style="opacity:0.596" fill="#969796" d="M 303.5,128.5 C 303.027,129.906 302.027,130.573 300.5,130.5C 300.973,129.094 301.973,128.427 303.5,128.5 Z"/></g>
<g><path style="opacity:0.49" fill="#a7aaa9" d="M 280.5,132.5 C 270.562,129.393 260.895,130.059 251.5,134.5C 252.749,132.864 254.416,131.697 256.5,131C 264.887,127.283 272.887,127.783 280.5,132.5 Z"/></g>
<g><path style="opacity:0.114" fill="#d3d5cf" d="M 232.5,128.5 C 234.027,128.427 235.027,129.094 235.5,130.5C 233.973,130.573 232.973,129.906 232.5,128.5 Z"/></g>
<g><path style="opacity:0.506" fill="#b7b8b7" d="M 306.5,126.5 C 306.027,127.906 305.027,128.573 303.5,128.5C 303.877,126.176 304.877,125.509 306.5,126.5 Z"/></g>
<g><path style="opacity:0.075" fill="#cecfcf" d="M 227.5,125.5 C 229.027,125.427 230.027,126.094 230.5,127.5C 228.973,127.573 227.973,126.906 227.5,125.5 Z"/></g>
<g><path style="opacity:0.714" fill="#888c8a" d="M 311.5,123.5 C 311.027,124.906 310.027,125.573 308.5,125.5C 308.973,124.094 309.973,123.427 311.5,123.5 Z"/></g>
<g><path style="opacity:0.639" fill="#939595" d="M 314.5,121.5 C 314.027,122.906 313.027,123.573 311.5,123.5C 311.973,122.094 312.973,121.427 314.5,121.5 Z"/></g>
<g><path style="opacity:0.357" fill="#aaaeae" d="M 220.5,121.5 C 222.674,121.75 224.341,122.75 225.5,124.5C 223.326,124.25 221.659,123.25 220.5,121.5 Z"/></g>
<g><path style="opacity:0.208" fill="#b7c0b7" d="M 217.5,119.5 C 219.027,119.427 220.027,120.094 220.5,121.5C 218.973,121.573 217.973,120.906 217.5,119.5 Z"/></g>
<g><path style="opacity:0.216" fill="#bbbcbc" d="M 319.5,118.5 C 318.341,120.25 316.674,121.25 314.5,121.5C 315.659,119.75 317.326,118.75 319.5,118.5 Z"/></g>
<g><path style="opacity:0.565" fill="#a6aca9" d="M 322.5,116.5 C 322.027,117.906 321.027,118.573 319.5,118.5C 319.973,117.094 320.973,116.427 322.5,116.5 Z"/></g>
<g><path style="opacity:0.114" fill="#c6cccb" d="M 212.5,116.5 C 214.027,116.427 215.027,117.094 215.5,118.5C 213.973,118.573 212.973,117.906 212.5,116.5 Z"/></g>
<g><path style="opacity:0.486" fill="#b7b9b8" d="M 325.5,114.5 C 325.027,115.906 324.027,116.573 322.5,116.5C 322.973,115.094 323.973,114.427 325.5,114.5 Z"/></g>
<g><path style="opacity:0.09" fill="#d3d3d2" d="M 207.5,113.5 C 209.027,113.427 210.027,114.094 210.5,115.5C 208.973,115.573 207.973,114.906 207.5,113.5 Z"/></g>
<g><path style="opacity:0.016" fill="#d1d2d1" d="M 304.5,111.5 C 301.966,114.485 299.299,114.818 296.5,112.5C 299.237,112.599 301.904,112.265 304.5,111.5 Z"/></g>
<g><path style="opacity:0.471" fill="#b0afad" d="M 229.5,110.5 C 231.882,112.046 234.549,112.713 237.5,112.5C 236.828,113.267 235.995,113.934 235,114.5C 232.537,113.968 230.703,112.634 229.5,110.5 Z"/></g>
<g><path style="opacity:0.725" fill="#848a8b" d="M 331.5,109.5 C 331.715,111.179 331.048,112.179 329.5,112.5C 329.932,111.29 330.599,110.29 331.5,109.5 Z"/></g>
<g><path style="opacity:0.357" fill="#aeaeae" d="M 293.5,110.5 C 295.027,110.427 296.027,111.094 296.5,112.5C 294.973,112.573 293.973,111.906 293.5,110.5 Z"/></g>
<g><path style="opacity:0.424" fill="#a3a4a4" d="M 290.5,108.5 C 292.027,108.427 293.027,109.094 293.5,110.5C 291.973,110.573 290.973,109.906 290.5,108.5 Z"/></g>
<g><path style="opacity:0.553" fill="#a0a5a3" d="M 335.5,105.5 C 334.5,107.167 333.167,108.5 331.5,109.5C 331.833,107.167 333.167,105.833 335.5,105.5 Z"/></g>
<g><path style="opacity:0.647" fill="#999c9b" d="M 201.5,106.5 C 203.738,107.853 205.071,109.853 205.5,112.5C 203.631,110.966 202.298,108.966 201.5,106.5 Z"/></g>
<g><path style="opacity:0.984" fill="#666a6a" d="M 247.5,106.5 C 246.035,107.737 244.368,108.737 242.5,109.5C 242.5,108.5 242.5,107.5 242.5,106.5C 244.167,106.5 245.833,106.5 247.5,106.5 Z"/></g>
<g><path style="opacity:0.004" fill="#fefffe" d="M 234.5,151.5 C 235.833,152.167 235.833,152.167 234.5,151.5 Z"/></g>
<g><path style="opacity:0.506" fill="#838685" d="M 237.5,148.5 C 238.794,150.68 238.461,152.68 236.5,154.5C 210.5,154.5 184.5,154.5 158.5,154.5C 184.328,153.502 210.328,153.169 236.5,153.5C 236.5,152.5 236.5,151.5 236.5,150.5C 237.338,150.158 237.672,149.492 237.5,148.5 Z"/></g>
<g><path style="opacity:0.49" fill="#8e9291" d="M 280.5,150.5 C 282.104,151.287 282.771,152.62 282.5,154.5C 272.478,154.832 262.478,154.499 252.5,153.5C 252.624,152.893 252.957,152.56 253.5,152.5C 262.657,153.658 271.991,153.824 281.5,153C 280.748,152.329 280.414,151.496 280.5,150.5 Z"/></g>
<g><path style="opacity:0.511" fill="#848686" d="M 298.5,148.5 C 298.286,150.144 298.62,151.644 299.5,153C 325.833,153.333 352.167,153.667 378.5,154C 379.737,154.232 380.737,154.732 381.5,155.5C 378.833,155.167 376.167,154.833 373.5,154.5C 348.498,154.667 323.498,154.5 298.5,154C 297.193,152.057 297.193,150.223 298.5,148.5 Z"/></g>
<g><path style="opacity:0.518" fill="#a0a4a2" d="M 157.5,154.5 C 156.486,155.674 155.153,156.34 153.5,156.5C 153.91,153.569 155.244,152.903 157.5,154.5 Z"/></g>
<g><path style="opacity:1" fill="#141d1e" d="M 157.5,154.5 C 157.833,154.5 158.167,154.5 158.5,154.5C 184.5,154.5 210.5,154.5 236.5,154.5C 226.347,155.494 216.014,155.828 205.5,155.5C 205.351,156.552 205.517,157.552 206,158.5C 210.426,157.581 214.926,156.914 219.5,156.5C 219.64,158.124 218.973,159.29 217.5,160C 218.759,160.923 220.092,161.757 221.5,162.5C 220.91,163.799 219.91,164.632 218.5,165C 219.5,165.333 220.5,165.667 221.5,166C 249.167,166.667 276.833,166.667 304.5,166C 298.804,165.83 293.138,165.33 287.5,164.5C 288.729,163.719 290.062,163.219 291.5,163C 284.833,162.667 278.167,162.333 271.5,162C 295.364,162.236 319.364,161.903 343.5,161C 343,160.5 342.5,160 342,159.5C 339.667,159.833 337.333,160.167 335,160.5C 329.552,159.854 324.052,159.188 318.5,158.5C 318.808,157.692 319.308,157.025 320,156.5C 323.404,156.272 326.904,156.605 330.5,157.5C 344.935,156.012 359.269,155.012 373.5,154.5C 376.167,154.833 378.833,155.167 381.5,155.5C 383.23,156.026 384.564,157.026 385.5,158.5C 386.08,160.749 387.413,162.415 389.5,163.5C 390.473,189.134 390.806,214.801 390.5,240.5C 389.285,237.865 387.951,235.198 386.5,232.5C 388.647,223.415 388.98,214.249 387.5,205C 387.654,202.621 388.32,200.454 389.5,198.5C 389.062,197.494 388.396,197.494 387.5,198.5C 386.669,204.807 386.169,211.141 386,217.5C 385.667,214.167 385.333,210.833 385,207.5C 384.693,212.882 384.026,218.215 383,223.5C 382.667,220.833 382.333,218.167 382,215.5C 381.626,219.665 380.626,223.665 379,227.5C 378.667,245.833 378.333,264.167 378,282.5C 377.667,246.167 377.333,209.833 377,173.5C 376.617,172.944 376.117,172.611 375.5,172.5C 375.5,170.5 374.5,169.5 372.5,169.5C 372.082,168.778 371.416,168.278 370.5,168C 301.999,167.168 233.665,167.335 165.5,168.5C 164.508,168.328 163.842,168.662 163.5,169.5C 161.864,170.749 160.697,172.416 160,174.5C 159.5,210.498 159.333,246.498 159.5,282.5C 159.5,284.5 160.5,285.5 162.5,285.5C 162.611,286.117 162.944,286.617 163.5,287C 232.833,287.5 302.166,287.667 371.5,287.5C 304.237,288.335 236.237,288.835 167.5,289C 167.167,289.333 166.833,289.667 166.5,290C 168.167,290.333 169.833,290.667 171.5,291C 167.523,291.531 163.69,291.031 160,289.5C 159.016,291.795 158.183,291.461 157.5,288.5C 154.056,285.424 152.389,286.257 152.5,291C 152.482,293.379 153.149,295.546 154.5,297.5C 154.376,298.107 154.043,298.44 153.5,298.5C 152.609,297.89 151.609,297.557 150.5,297.5C 150.167,296.5 149.5,295.833 148.5,295.5C 146.75,294.341 145.75,292.674 145.5,290.5C 145.5,248.833 145.5,207.167 145.5,165.5C 145.5,165.167 145.5,164.833 145.5,164.5C 146.906,164.027 147.573,163.027 147.5,161.5C 148.833,160.833 149.833,159.833 150.5,158.5C 150.973,157.094 151.973,156.427 153.5,156.5C 155.153,156.34 156.486,155.674 157.5,154.5 Z M 277.5,199.5 C 279.181,201.008 281.181,202.008 283.5,202.5C 283.5,202.833 283.5,203.167 283.5,203.5C 285.833,205.5 288.167,207.5 290.5,209.5C 292.467,213.096 294.134,216.763 295.5,220.5C 296.833,225.5 296.833,230.5 295.5,235.5C 294.655,238.543 293.655,241.543 292.5,244.5C 290.738,245.262 289.738,246.596 289.5,248.5C 287.5,249.833 285.833,251.5 284.5,253.5C 282.847,253.66 281.514,254.326 280.5,255.5C 277.843,255.935 275.509,256.935 273.5,258.5C 263.893,259.969 255.226,257.969 247.5,252.5C 247.167,252.5 246.833,252.5 246.5,252.5C 245.5,251.5 244.5,250.5 243.5,249.5C 243.19,247.856 242.19,246.856 240.5,246.5C 240.573,244.973 239.906,243.973 238.5,243.5C 238.672,242.508 238.338,241.842 237.5,241.5C 237.167,239.5 236.833,237.5 236.5,235.5C 236.167,235.5 235.833,235.5 235.5,235.5C 235.5,234.833 235.5,234.167 235.5,233.5C 235.177,227.364 235.844,221.364 237.5,215.5C 238.674,214.486 239.34,213.153 239.5,211.5C 241.262,210.738 242.262,209.404 242.5,207.5C 243.833,206.833 244.833,205.833 245.5,204.5C 247.027,204.573 248.027,203.906 248.5,202.5C 249.71,202.068 250.71,201.401 251.5,200.5C 252.496,200.414 253.329,200.748 254,201.5C 257.439,198.799 261.439,197.466 266,197.5C 269.861,198.067 273.695,198.733 277.5,199.5 Z M 262.5,233.5 C 262.167,232.5 261.5,231.833 260.5,231.5C 260.205,229.265 260.539,227.265 261.5,225.5C 262.078,226.547 262.744,226.38 263.5,225C 263.272,224.601 262.938,224.435 262.5,224.5C 262.5,224.167 262.5,223.833 262.5,223.5C 267.335,221.752 270.335,223.419 271.5,228.5C 270.196,232.919 267.196,234.586 262.5,233.5 Z M 188.5,248.5 C 190.903,248.448 193.236,248.781 195.5,249.5C 195.328,250.492 195.662,251.158 196.5,251.5C 196.5,251.833 196.5,252.167 196.5,252.5C 195.167,253.5 195.167,254.5 196.5,255.5C 196.573,257.027 195.906,258.027 194.5,258.5C 194.5,258.833 194.5,259.167 194.5,259.5C 191.642,260.885 188.976,260.552 186.5,258.5C 186.672,257.508 186.338,256.842 185.5,256.5C 185.394,253.921 186.061,251.588 187.5,249.5C 188.167,249.5 188.5,249.167 188.5,248.5 Z"/></g>
<g><path style="opacity:0.345" fill="#c2c6c5" d="M 150.5,158.5 C 149.833,159.833 148.833,160.833 147.5,161.5C 147.5,159.5 148.5,158.5 150.5,158.5 Z"/></g>
<g><path style="opacity:0.231" fill="#a6acab" d="M 385.5,158.5 C 387.587,159.585 388.92,161.251 389.5,163.5C 387.413,162.415 386.08,160.749 385.5,158.5 Z"/></g>
<g><path style="opacity:0.22" fill="#bec0be" d="M 147.5,161.5 C 147.573,163.027 146.906,164.027 145.5,164.5C 145.427,162.973 146.094,161.973 147.5,161.5 Z"/></g>
<g><path style="opacity:0.039" fill="#b2b9b3" d="M 389.5,163.5 C 390.222,163.918 390.722,164.584 391,165.5C 391.831,207.002 391.665,248.335 390.5,289.5C 390.5,273.167 390.5,256.833 390.5,240.5C 390.806,214.801 390.473,189.134 389.5,163.5 Z"/></g>
<g><path style="opacity:0.593" fill="#7e807f" d="M 165.5,168.5 C 233.665,167.335 301.999,167.168 370.5,168C 371.416,168.278 372.082,168.778 372.5,169.5C 312.603,168.895 252.936,168.562 193.5,168.5C 184.167,168.5 174.833,168.5 165.5,168.5 Z"/></g>
<g><path style="opacity:0.007" fill="#fcfcfc" d="M 163.5,169.5 C 163.842,168.662 164.508,168.328 165.5,168.5C 174.833,168.5 184.167,168.5 193.5,168.5C 185.432,169.18 177.265,169.847 169,170.5C 167.286,170.795 165.453,170.462 163.5,169.5 Z"/></g>
<g><path style="opacity:0.451" fill="#b8b9b8" d="M 372.5,169.5 C 374.5,169.5 375.5,170.5 375.5,172.5C 374.167,171.833 373.167,170.833 372.5,169.5 Z"/></g>
<g><path style="opacity:0.008" fill="#fefffe" d="M 392.5,172.5 C 393.573,173.251 393.74,174.251 393,175.5C 392.517,174.552 392.351,173.552 392.5,172.5 Z"/></g>
<g><path style="opacity:0.288" fill="#b5b6b6" d="M 283.5,185.5 C 271.025,181.225 258.692,181.558 246.5,186.5C 248.385,184.689 250.719,183.522 253.5,183C 261.825,181.041 270.158,181.041 278.5,183C 280.491,183.374 282.158,184.207 283.5,185.5 Z"/></g>
<g><path style="opacity:0.231" fill="#c8cac8" d="M 340.5,181.5 C 345.122,179.499 348.455,180.832 350.5,185.5C 347.865,182.519 344.532,181.186 340.5,181.5 Z"/></g>
<g><path style="opacity:0.004" fill="#fefffe" d="M 392.5,181.5 C 393.525,181.897 393.692,182.563 393,183.5C 392.536,182.906 392.369,182.239 392.5,181.5 Z"/></g>
<g><path style="opacity:0.275" fill="#bfbfbf" d="M 338.5,182.5 C 338.167,183.5 337.5,184.167 336.5,184.5C 336.5,183.167 337.167,182.5 338.5,182.5 Z"/></g>
<g><path style="opacity:1" fill="#222829" d="M 340.5,181.5 C 344.532,181.186 347.865,182.519 350.5,185.5C 352.482,189.976 351.482,193.643 347.5,196.5C 346.5,196.5 345.5,196.5 344.5,196.5C 342.097,196.552 339.764,196.219 337.5,195.5C 335.32,193.969 334.32,191.802 334.5,189C 334.307,186.992 334.974,185.492 336.5,184.5C 337.5,184.167 338.167,183.5 338.5,182.5C 338.842,181.662 339.508,181.328 340.5,181.5 Z"/></g>
<g><path style="opacity:1" fill="#172021" d="M 283.5,185.5 C 287.173,187 290.506,189 293.5,191.5C 294.262,193.262 295.596,194.262 297.5,194.5C 298.08,196.749 299.413,198.415 301.5,199.5C 301.738,201.404 302.738,202.738 304.5,203.5C 304.427,205.027 305.094,206.027 306.5,206.5C 307.338,206.842 307.672,207.508 307.5,208.5C 308.901,215.272 309.901,222.106 310.5,229C 310.233,233.512 309.899,238.012 309.5,242.5C 309.267,245.542 308.267,248.208 306.5,250.5C 305.094,250.973 304.427,251.973 304.5,253.5C 303.094,253.973 302.427,254.973 302.5,256.5C 302.5,257.167 302.167,257.5 301.5,257.5C 300.094,257.973 299.427,258.973 299.5,260.5C 297.766,263.2 295.432,265.2 292.5,266.5C 291.417,266.461 290.417,266.127 289.5,265.5C 288.611,267.007 287.611,268.34 286.5,269.5C 280.786,271.409 275.119,273.076 269.5,274.5C 269.167,274.5 268.833,274.5 268.5,274.5C 263.819,274.331 259.152,273.998 254.5,273.5C 253.01,271.72 251.01,271.054 248.5,271.5C 247.486,270.326 246.153,269.66 244.5,269.5C 241.802,269.155 239.802,267.822 238.5,265.5C 238.027,264.094 237.027,263.427 235.5,263.5C 231.372,260.71 228.372,257.043 226.5,252.5C 224.461,247.765 222.461,243.099 220.5,238.5C 218.986,230.423 219.319,222.423 221.5,214.5C 223.065,212.491 224.065,210.157 224.5,207.5C 226.408,206.514 227.408,204.848 227.5,202.5C 229.587,201.415 230.92,199.749 231.5,197.5C 232.5,197.167 233.167,196.5 233.5,195.5C 234.5,195.167 235.167,194.5 235.5,193.5C 237.749,192.92 239.415,191.587 240.5,189.5C 240.842,188.662 241.508,188.328 242.5,188.5C 244.027,188.573 245.027,187.906 245.5,186.5C 245.833,186.5 246.167,186.5 246.5,186.5C 258.692,181.558 271.025,181.225 283.5,185.5 Z M 277.5,199.5 C 279.181,201.008 281.181,202.008 283.5,202.5C 283.5,202.833 283.5,203.167 283.5,203.5C 285.833,205.5 288.167,207.5 290.5,209.5C 292.467,213.096 294.134,216.763 295.5,220.5C 296.833,225.5 296.833,230.5 295.5,235.5C 294.655,238.543 293.655,241.543 292.5,244.5C 290.738,245.262 289.738,246.596 289.5,248.5C 287.5,249.833 285.833,251.5 284.5,253.5C 282.847,253.66 281.514,254.326 280.5,255.5C 277.843,255.935 275.509,256.935 273.5,258.5C 263.893,259.969 255.226,257.969 247.5,252.5C 247.167,252.5 246.833,252.5 246.5,252.5C 245.5,251.5 244.5,250.5 243.5,249.5C 243.19,247.856 242.19,246.856 240.5,246.5C 240.573,244.973 239.906,243.973 238.5,243.5C 238.672,242.508 238.338,241.842 237.5,241.5C 237.167,239.5 236.833,237.5 236.5,235.5C 236.167,235.5 235.833,235.5 235.5,235.5C 235.5,234.833 235.5,234.167 235.5,233.5C 235.177,227.364 235.844,221.364 237.5,215.5C 238.674,214.486 239.34,213.153 239.5,211.5C 241.262,210.738 242.262,209.404 242.5,207.5C 243.833,206.833 244.833,205.833 245.5,204.5C 247.027,204.573 248.027,203.906 248.5,202.5C 249.71,202.068 250.71,201.401 251.5,200.5C 252.496,200.414 253.329,200.748 254,201.5C 257.439,198.799 261.439,197.466 266,197.5C 269.861,198.067 273.695,198.733 277.5,199.5 Z M 262.5,233.5 C 262.167,232.5 261.5,231.833 260.5,231.5C 260.205,229.265 260.539,227.265 261.5,225.5C 262.078,226.547 262.744,226.38 263.5,225C 263.272,224.601 262.938,224.435 262.5,224.5C 262.5,224.167 262.5,223.833 262.5,223.5C 267.335,221.752 270.335,223.419 271.5,228.5C 270.196,232.919 267.196,234.586 262.5,233.5 Z"/></g>
<g><path style="opacity:1" fill="#1c2524" d="M 205.5,184.5 C 206.324,187.764 206.658,191.098 206.5,194.5C 205.18,195.942 203.514,196.608 201.5,196.5C 193.826,196.666 186.159,196.5 178.5,196C 177.627,194.955 176.627,194.122 175.5,193.5C 174.857,189.567 175.857,186.234 178.5,183.5C 186.656,182.343 194.99,182.177 203.5,183C 204.416,183.278 205.082,183.778 205.5,184.5 Z"/></g>
<g><path style="opacity:0.737" fill="#858a8a" d="M 245.5,186.5 C 245.027,187.906 244.027,188.573 242.5,188.5C 242.973,187.094 243.973,186.427 245.5,186.5 Z"/></g>
<g><path style="opacity:0.004" fill="#fefffe" d="M 392.5,187.5 C 393.833,188.167 393.833,188.167 392.5,187.5 Z"/></g>
<g><path style="opacity:0.749" fill="#969a99" d="M 205.5,184.5 C 207.533,185.898 208.533,187.898 208.5,190.5C 208.66,192.355 207.993,193.688 206.5,194.5C 206.658,191.098 206.324,187.764 205.5,184.5 Z"/></g>
<g><path style="opacity:0.635" fill="#9a9b9a" d="M 178.5,183.5 C 175.857,186.234 174.857,189.567 175.5,193.5C 173.401,191.17 173.234,188.503 175,185.5C 175.816,184.177 176.983,183.511 178.5,183.5 Z"/></g>
<g><path style="opacity:0.012" fill="#cacfcf" d="M 293.5,191.5 C 295.404,191.738 296.738,192.738 297.5,194.5C 295.596,194.262 294.262,193.262 293.5,191.5 Z"/></g>
<g><path style="opacity:0.004" fill="#fefffe" d="M 392.5,191.5 C 393.833,192.167 393.833,192.167 392.5,191.5 Z"/></g>
<g><path style="opacity:0.8" fill="#757a78" d="M 240.5,189.5 C 239.415,191.587 237.749,192.92 235.5,193.5C 236.585,191.413 238.251,190.08 240.5,189.5 Z"/></g>
<g><path style="opacity:0.322" fill="#bcbebc" d="M 235.5,193.5 C 235.167,194.5 234.5,195.167 233.5,195.5C 233.5,194.167 234.167,193.5 235.5,193.5 Z"/></g>
<g><path style="opacity:0.047" fill="#adaead" d="M 175.5,193.5 C 176.627,194.122 177.627,194.955 178.5,196C 186.159,196.5 193.826,196.666 201.5,196.5C 201.5,196.833 201.5,197.167 201.5,197.5C 193.598,198.913 185.598,198.746 177.5,197C 176.177,196.184 175.511,195.017 175.5,193.5 Z"/></g>
<g><path style="opacity:0.624" fill="#a2a4a4" d="M 297.5,194.5 C 299.587,195.585 300.92,197.251 301.5,199.5C 299.413,198.415 298.08,196.749 297.5,194.5 Z"/></g>
<g><path style="opacity:0.008" fill="#d3d8d8" d="M 206.5,194.5 C 205.952,197.084 204.285,198.084 201.5,197.5C 201.5,197.167 201.5,196.833 201.5,196.5C 203.514,196.608 205.18,195.942 206.5,194.5 Z"/></g>
<g><path style="opacity:0.302" fill="#bec0c0" d="M 233.5,195.5 C 233.167,196.5 232.5,197.167 231.5,197.5C 231.5,196.167 232.167,195.5 233.5,195.5 Z"/></g>
<g><path style="opacity:0.306" fill="#b9bbbc" d="M 277.5,199.5 C 273.695,198.733 269.861,198.067 266,197.5C 261.439,197.466 257.439,198.799 254,201.5C 253.329,200.748 252.496,200.414 251.5,200.5C 255.808,197.73 260.641,196.396 266,196.5C 270.255,196.354 274.088,197.354 277.5,199.5 Z"/></g>
<g><path style="opacity:0.706" fill="#696b69" d="M 337.5,195.5 C 339.764,196.219 342.097,196.552 344.5,196.5C 343.432,197.434 342.099,197.768 340.5,197.5C 338.973,197.573 337.973,196.906 337.5,195.5 Z"/></g>
<g><path style="opacity:0.118" fill="#d9dad9" d="M 344.5,196.5 C 345.5,196.5 346.5,196.5 347.5,196.5C 345.345,198.534 343.012,198.867 340.5,197.5C 342.099,197.768 343.432,197.434 344.5,196.5 Z"/></g>
<g><path style="opacity:0.831" fill="#858685" d="M 231.5,197.5 C 230.92,199.749 229.587,201.415 227.5,202.5C 228.08,200.251 229.413,198.585 231.5,197.5 Z"/></g>
<g><path style="opacity:0.004" fill="#fefffe" d="M 392.5,199.5 C 393.525,199.897 393.692,200.563 393,201.5C 392.536,200.906 392.369,200.239 392.5,199.5 Z"/></g>
<g><path style="opacity:0.596" fill="#828687" d="M 301.5,199.5 C 303.262,200.262 304.262,201.596 304.5,203.5C 302.738,202.738 301.738,201.404 301.5,199.5 Z"/></g>
<g><path style="opacity:0.878" fill="#838283" d="M 283.5,203.5 C 283.5,203.167 283.5,202.833 283.5,202.5C 286.833,203.833 289.167,206.167 290.5,209.5C 288.167,207.5 285.833,205.5 283.5,203.5 Z"/></g>
<g><path style="opacity:0.004" fill="#fefffe" d="M 392.5,202.5 C 393.833,203.167 393.833,203.167 392.5,202.5 Z"/></g>
<g><path style="opacity:0.016" fill="#dadbdb" d="M 248.5,202.5 C 248.027,203.906 247.027,204.573 245.5,204.5C 245.973,203.094 246.973,202.427 248.5,202.5 Z"/></g>
<g><path style="opacity:0.004" fill="#fefffe" d="M 392.5,204.5 C 393.525,204.897 393.692,205.563 393,206.5C 392.536,205.906 392.369,205.239 392.5,204.5 Z"/></g>
<g><path style="opacity:0.231" fill="#bdc0bf" d="M 304.5,203.5 C 305.906,203.973 306.573,204.973 306.5,206.5C 305.094,206.027 304.427,205.027 304.5,203.5 Z"/></g>
<g><path style="opacity:0.961" fill="#6d7271" d="M 227.5,202.5 C 227.408,204.848 226.408,206.514 224.5,207.5C 224.75,205.326 225.75,203.659 227.5,202.5 Z"/></g>
<g><path style="opacity:0.004" fill="#fefffe" d="M 392.5,207.5 C 393.833,208.167 393.833,208.167 392.5,207.5 Z"/></g>
<g><path style="opacity:0.004" fill="#cbd2ce" d="M 242.5,207.5 C 242.262,209.404 241.262,210.738 239.5,211.5C 239.738,209.596 240.738,208.262 242.5,207.5 Z"/></g>
<g><path style="opacity:0.071" fill="#d1d1d1" d="M 224.5,207.5 C 224.065,210.157 223.065,212.491 221.5,214.5C 221.552,211.654 222.552,209.32 224.5,207.5 Z"/></g>
<g><path style="opacity:0.651" fill="#a3a5a4" d="M 179.5,209.5 C 179.027,210.906 178.027,211.573 176.5,211.5C 176.973,210.094 177.973,209.427 179.5,209.5 Z"/></g>
<g><path style="opacity:0.998" fill="#222a2a" d="M 202.5,209.5 C 203.211,211.201 204.545,212.201 206.5,212.5C 206.658,215.902 206.324,219.236 205.5,222.5C 205.389,223.117 205.056,223.617 204.5,224C 195.833,224.667 187.167,224.667 178.5,224C 177.944,223.617 177.611,223.117 177.5,222.5C 177.167,221.5 176.5,220.833 175.5,220.5C 175.368,217.43 175.701,214.43 176.5,211.5C 178.027,211.573 179.027,210.906 179.5,209.5C 187.295,208.218 194.962,208.218 202.5,209.5 Z"/></g>
<g><path style="opacity:0.843" fill="#777a78" d="M 202.5,209.5 C 204.632,209.554 205.965,210.554 206.5,212.5C 204.545,212.201 203.211,211.201 202.5,209.5 Z"/></g>
<g><path style="opacity:0.533" fill="#9a9f99" d="M 256.5,210.5 C 256.5,210.833 256.5,211.167 256.5,211.5C 255.395,212.6 254.062,213.267 252.5,213.5C 253.262,211.738 254.596,210.738 256.5,210.5 Z"/></g>
<g><path style="opacity:0.016" fill="#c5c7c6" d="M 352.5,211.5 C 355.167,212.167 356.833,213.833 357.5,216.5C 355.5,215.167 353.833,213.5 352.5,211.5 Z"/></g>
<g><path style="opacity:0.016" fill="#d3d4d3" d="M 277.5,212.5 C 280.167,213.167 281.833,214.833 282.5,217.5C 280.5,216.167 278.833,214.5 277.5,212.5 Z"/></g>
<g><path style="opacity:0.29" fill="#c1c4c2" d="M 252.5,213.5 C 252.167,214.5 251.5,215.167 250.5,215.5C 250.5,214.167 251.167,213.5 252.5,213.5 Z"/></g>
<g><path style="opacity:1" fill="#262c2c" d="M 277.5,212.5 C 278.833,214.5 280.5,216.167 282.5,217.5C 283.167,218.167 283.833,218.833 284.5,219.5C 285.567,224.782 285.733,230.115 285,235.5C 284.303,237.584 283.136,239.251 281.5,240.5C 280.094,240.973 279.427,241.973 279.5,243.5C 277.348,245.778 274.681,247.112 271.5,247.5C 271.5,246.5 271.5,245.5 271.5,244.5C 273.199,244.66 274.866,244.494 276.5,244C 273.707,242.455 273.04,240.288 274.5,237.5C 270.562,236.602 266.562,235.268 262.5,233.5C 267.196,234.586 270.196,232.919 271.5,228.5C 270.335,223.419 267.335,221.752 262.5,223.5C 261.833,223.5 261.167,223.5 260.5,223.5C 259.711,223.217 259.044,222.717 258.5,222C 260.833,221.667 263.167,221.333 265.5,221C 264.692,220.692 264.025,220.192 263.5,219.5C 264.641,218.575 264.641,217.741 263.5,217C 265.163,216.735 266.663,217.235 268,218.5C 271.982,217.086 271.815,215.252 267.5,213C 271.269,212.234 271.102,211.401 267,210.5C 263.414,210.741 259.914,211.074 256.5,211.5C 256.5,211.167 256.5,210.833 256.5,210.5C 261.617,208.503 266.95,208.003 272.5,209C 274.584,209.697 276.251,210.864 277.5,212.5 Z"/></g>
<g><path style="opacity:0.62" fill="#a1a1a1" d="M 176.5,211.5 C 175.701,214.43 175.368,217.43 175.5,220.5C 172.928,217.265 173.261,214.265 176.5,211.5 Z"/></g>
<g><path style="opacity:0.725" fill="#959a99" d="M 206.5,212.5 C 209.313,216.114 208.979,219.448 205.5,222.5C 206.324,219.236 206.658,215.902 206.5,212.5 Z"/></g>
<g><path style="opacity:0.49" fill="#a3a7a5" d="M 334.5,211.5 C 332.833,213.833 330.833,215.833 328.5,217.5C 329.5,214.5 331.5,212.5 334.5,211.5 Z"/></g>
<g><path style="opacity:0.933" fill="#7e8180" d="M 307.5,208.5 C 313.075,219.576 313.742,230.909 309.5,242.5C 309.899,238.012 310.233,233.512 310.5,229C 309.901,222.106 308.901,215.272 307.5,208.5 Z"/></g>
<g><path style="opacity:0.569" fill="#979c98" d="M 250.5,215.5 C 250.262,217.404 249.262,218.738 247.5,219.5C 247.738,217.596 248.738,216.262 250.5,215.5 Z"/></g>
<g><path style="opacity:0.094" fill="#cdcecd" d="M 357.5,216.5 C 359.104,217.287 359.771,218.62 359.5,220.5C 358.326,219.486 357.66,218.153 357.5,216.5 Z"/></g>
<g><path style="opacity:0.016" fill="#c9cbcb" d="M 175.5,220.5 C 176.5,220.833 177.167,221.5 177.5,222.5C 176.167,222.5 175.5,221.833 175.5,220.5 Z"/></g>
<g><path style="opacity:1" fill="#151c1d" d="M 260.5,223.5 C 259.233,226.272 259.233,228.939 260.5,231.5C 261.5,231.833 262.167,232.5 262.5,233.5C 266.562,235.268 270.562,236.602 274.5,237.5C 273.04,240.288 273.707,242.455 276.5,244C 274.866,244.494 273.199,244.66 271.5,244.5C 271.5,245.5 271.5,246.5 271.5,247.5C 271.167,247.5 270.833,247.5 270.5,247.5C 266.131,247.533 261.798,247.2 257.5,246.5C 257.027,245.094 256.027,244.427 254.5,244.5C 252.785,242.118 250.785,240.118 248.5,238.5C 247.662,238.158 247.328,237.492 247.5,236.5C 246.167,231.167 246.167,225.833 247.5,220.5C 247.5,220.167 247.5,219.833 247.5,219.5C 249.262,218.738 250.262,217.404 250.5,215.5C 251.5,215.167 252.167,214.5 252.5,213.5C 254.062,213.267 255.395,212.6 256.5,211.5C 259.914,211.074 263.414,210.741 267,210.5C 271.102,211.401 271.269,212.234 267.5,213C 271.815,215.252 271.982,217.086 268,218.5C 266.663,217.235 265.163,216.735 263.5,217C 264.641,217.741 264.641,218.575 263.5,219.5C 264.025,220.192 264.692,220.692 265.5,221C 263.167,221.333 260.833,221.667 258.5,222C 259.044,222.717 259.711,223.217 260.5,223.5 Z"/></g>
<g><path style="opacity:1" fill="#182223" d="M 352.5,211.5 C 353.833,213.5 355.5,215.167 357.5,216.5C 357.66,218.153 358.326,219.486 359.5,220.5C 360.833,224.167 360.833,227.833 359.5,231.5C 358.326,232.514 357.66,233.847 357.5,235.5C 355.833,236.5 354.5,237.833 353.5,239.5C 351.973,239.427 350.973,240.094 350.5,241.5C 348.321,242.926 345.821,243.592 343,243.5C 341.293,243.492 339.793,243.158 338.5,242.5C 337.486,241.326 336.153,240.66 334.5,240.5C 333.738,238.738 332.404,237.738 330.5,237.5C 330.167,236.833 329.833,236.167 329.5,235.5C 329.34,233.847 328.674,232.514 327.5,231.5C 327.283,226.77 327.617,222.103 328.5,217.5C 330.833,215.833 332.833,213.833 334.5,211.5C 340.5,207.5 346.5,207.5 352.5,211.5 Z"/></g>
<g><path style="opacity:0.749" fill="#919695" d="M 328.5,217.5 C 327.617,222.103 327.283,226.77 327.5,231.5C 326.353,227.354 326.186,223.02 327,218.5C 327.383,217.944 327.883,217.611 328.5,217.5 Z"/></g>
<g><path style="opacity:0.149" fill="#b2b5b4" d="M 237.5,215.5 C 235.844,221.364 235.177,227.364 235.5,233.5C 234.353,229.354 234.186,225.02 235,220.5C 235.099,218.347 235.933,216.681 237.5,215.5 Z"/></g>
<g><path style="opacity:0.392" fill="#a7acaa" d="M 247.5,220.5 C 246.167,225.833 246.167,231.167 247.5,236.5C 245.953,234.193 245.287,231.527 245.5,228.5C 245.287,225.473 245.953,222.807 247.5,220.5 Z"/></g>
<g><path style="opacity:0.125" fill="#c5c8c6" d="M 260.5,223.5 C 261.167,223.5 261.833,223.5 262.5,223.5C 262.5,223.833 262.5,224.167 262.5,224.5C 261.833,224.5 261.5,224.833 261.5,225.5C 260.539,227.265 260.205,229.265 260.5,231.5C 259.233,228.939 259.233,226.272 260.5,223.5 Z"/></g>
<g><path style="opacity:0.557" fill="#9fa2a3" d="M 295.5,220.5 C 298.167,225.5 298.167,230.5 295.5,235.5C 296.833,230.5 296.833,225.5 295.5,220.5 Z"/></g>
<g><path style="opacity:0.192" fill="#bcbdbc" d="M 327.5,231.5 C 328.674,232.514 329.34,233.847 329.5,235.5C 327.896,234.713 327.229,233.38 327.5,231.5 Z"/></g>
<g><path style="opacity:0.09" fill="#dce0d9" d="M 359.5,231.5 C 360.429,233.322 359.762,234.655 357.5,235.5C 357.66,233.847 358.326,232.514 359.5,231.5 Z"/></g>
<g><path style="opacity:0.865" fill="#5e6464" d="M 145.5,165.5 C 145.5,207.167 145.5,248.833 145.5,290.5C 144.732,289.737 144.232,288.737 144,287.5C 143.333,247.833 143.333,208.167 144,168.5C 144.232,167.263 144.732,166.263 145.5,165.5 Z"/></g>
<g><path style="opacity:0.333" fill="#bdc1bf" d="M 199.5,236.5 C 193.833,235.167 188.167,235.167 182.5,236.5C 182.918,235.778 183.584,235.278 184.5,235C 188.833,234.333 193.167,234.333 197.5,235C 198.416,235.278 199.082,235.778 199.5,236.5 Z"/></g>
<g><path style="opacity:0.063" fill="#b5b6b5" d="M 201.5,237.5 C 203.027,237.427 204.027,238.094 204.5,239.5C 202.973,239.573 201.973,238.906 201.5,237.5 Z"/></g>
<g><path style="opacity:0.463" fill="#c0c1c2" d="M 330.5,237.5 C 332.404,237.738 333.738,238.738 334.5,240.5C 332.596,240.262 331.262,239.262 330.5,237.5 Z"/></g>
<g><path style="opacity:0.016" fill="#d9dbdb" d="M 357.5,235.5 C 357.167,237.833 355.833,239.167 353.5,239.5C 354.5,237.833 355.833,236.5 357.5,235.5 Z"/></g>
<g><path style="opacity:0.663" fill="#959593" d="M 235.5,235.5 C 235.833,235.5 236.167,235.5 236.5,235.5C 236.833,237.5 237.167,239.5 237.5,241.5C 235.926,239.898 235.259,237.898 235.5,235.5 Z"/></g>
<g><path style="opacity:0.749" fill="#959a9a" d="M 204.5,239.5 C 206.587,240.585 207.92,242.251 208.5,244.5C 206.413,243.415 205.08,241.749 204.5,239.5 Z"/></g>
<g><path style="opacity:0.525" fill="#a2a5a4" d="M 248.5,238.5 C 250.785,240.118 252.785,242.118 254.5,244.5C 251.522,243.522 249.522,241.522 248.5,238.5 Z"/></g>
<g><path style="opacity:0.055" fill="#c4c4c4" d="M 353.5,239.5 C 353.027,240.906 352.027,241.573 350.5,241.5C 350.973,240.094 351.973,239.427 353.5,239.5 Z"/></g>
<g><path style="opacity:0.671" fill="#8a8b8b" d="M 180.5,237.5 C 178.833,239.833 176.833,241.833 174.5,243.5C 175.5,240.5 177.5,238.5 180.5,237.5 Z"/></g>
<g><path style="opacity:0.008" fill="#d4d6d6" d="M 281.5,240.5 C 281.573,242.027 280.906,243.027 279.5,243.5C 279.427,241.973 280.094,240.973 281.5,240.5 Z"/></g>
<g><path style="opacity:0.114" fill="#cfd1d1" d="M 334.5,240.5 C 336.153,240.66 337.486,241.326 338.5,242.5C 336.62,242.771 335.287,242.104 334.5,240.5 Z"/></g>
<g><path style="opacity:1" fill="#141e1e" d="M 199.5,236.5 C 200.492,236.328 201.158,236.662 201.5,237.5C 201.973,238.906 202.973,239.573 204.5,239.5C 205.08,241.749 206.413,243.415 208.5,244.5C 209.338,244.842 209.672,245.508 209.5,246.5C 211.269,253.11 210.603,259.443 207.5,265.5C 205.5,266.833 203.833,268.5 202.5,270.5C 197.135,273.006 191.469,274.006 185.5,273.5C 183.337,271.917 181.004,270.584 178.5,269.5C 178.167,268.5 177.5,267.833 176.5,267.5C 175.5,267.167 174.833,266.5 174.5,265.5C 174.34,263.847 173.674,262.514 172.5,261.5C 172.1,255.346 172.767,249.346 174.5,243.5C 176.833,241.833 178.833,239.833 180.5,237.5C 180.842,236.662 181.508,236.328 182.5,236.5C 188.167,235.167 193.833,235.167 199.5,236.5 Z M 188.5,248.5 C 190.903,248.448 193.236,248.781 195.5,249.5C 195.328,250.492 195.662,251.158 196.5,251.5C 196.5,251.833 196.5,252.167 196.5,252.5C 195.167,253.5 195.167,254.5 196.5,255.5C 196.573,257.027 195.906,258.027 194.5,258.5C 194.5,258.833 194.5,259.167 194.5,259.5C 191.642,260.885 188.976,260.552 186.5,258.5C 186.672,257.508 186.338,256.842 185.5,256.5C 185.394,253.921 186.061,251.588 187.5,249.5C 188.167,249.5 188.5,249.167 188.5,248.5 Z"/></g>
<g><path style="opacity:0.227" fill="#bfc0bf" d="M 238.5,243.5 C 239.906,243.973 240.573,244.973 240.5,246.5C 239.094,246.027 238.427,245.027 238.5,243.5 Z"/></g>
<g><path style="opacity:0.349" fill="#a6aaa8" d="M 254.5,244.5 C 256.027,244.427 257.027,245.094 257.5,246.5C 255.973,246.573 254.973,245.906 254.5,244.5 Z"/></g>
<g><path style="opacity:0.431" fill="#a9acac" d="M 292.5,244.5 C 292.262,246.404 291.262,247.738 289.5,248.5C 289.738,246.596 290.738,245.262 292.5,244.5 Z"/></g>
<g><path style="opacity:0.306" fill="#b7bab5" d="M 220.5,238.5 C 222.461,243.099 224.461,247.765 226.5,252.5C 222.89,248.604 220.89,243.937 220.5,238.5 Z"/></g>
<g><path style="opacity:0.008" fill="#dadbda" d="M 240.5,246.5 C 242.19,246.856 243.19,247.856 243.5,249.5C 241.81,249.144 240.81,248.144 240.5,246.5 Z"/></g>
<g><path style="opacity:0.501" fill="#939392" d="M 257.5,246.5 C 261.798,247.2 266.131,247.533 270.5,247.5C 270.5,247.833 270.5,248.167 270.5,248.5C 267.15,248.665 263.817,248.498 260.5,248C 259.263,247.768 258.263,247.268 257.5,246.5 Z"/></g>
<g><path style="opacity:0.373" fill="#adb1ae" d="M 188.5,248.5 C 189.274,247.853 190.274,247.52 191.5,247.5C 193.355,247.34 194.688,248.007 195.5,249.5C 193.236,248.781 190.903,248.448 188.5,248.5 Z"/></g>
<g><path style="opacity:0.702" fill="#7e8283" d="M 289.5,248.5 C 288.833,251.167 287.167,252.833 284.5,253.5C 285.833,251.5 287.5,249.833 289.5,248.5 Z"/></g>
<g><path style="opacity:0.102" fill="#cdd2d2" d="M 306.5,250.5 C 306.573,252.027 305.906,253.027 304.5,253.5C 304.427,251.973 305.094,250.973 306.5,250.5 Z"/></g>
<g><path style="opacity:0.149" fill="#c7c9c8" d="M 209.5,246.5 C 211.439,250.531 211.939,254.864 211,259.5C 210.576,262.025 209.41,264.025 207.5,265.5C 210.603,259.443 211.269,253.11 209.5,246.5 Z"/></g>
<g><path style="opacity:0.204" fill="#c0c2c3" d="M 187.5,249.5 C 186.061,251.588 185.394,253.921 185.5,256.5C 184.387,255.054 184.22,253.387 185,251.5C 185.417,250.244 186.25,249.577 187.5,249.5 Z"/></g>
<g><path style="opacity:0.02" fill="#d2d7d7" d="M 304.5,253.5 C 304.573,255.027 303.906,256.027 302.5,256.5C 302.427,254.973 303.094,253.973 304.5,253.5 Z"/></g>
<g><path style="opacity:0.804" fill="#868a8a" d="M 174.5,243.5 C 172.767,249.346 172.1,255.346 172.5,261.5C 171.778,261.082 171.278,260.416 171,259.5C 170.333,256.167 170.333,252.833 171,249.5C 171.424,246.975 172.59,244.975 174.5,243.5 Z"/></g>
<g><path style="opacity:0.196" fill="#b7bab9" d="M 246.5,252.5 C 246.833,252.5 247.167,252.5 247.5,252.5C 255.226,257.969 263.893,259.969 273.5,258.5C 264.41,260.714 255.744,259.38 247.5,254.5C 246.702,254.043 246.369,253.376 246.5,252.5 Z"/></g>
<g><path style="opacity:0.961" fill="#494e4c" d="M 196.5,252.5 C 196.5,252.167 196.5,251.833 196.5,251.5C 197.693,251.97 198.36,252.97 198.5,254.5C 198.798,257.603 197.465,259.27 194.5,259.5C 194.5,259.167 194.5,258.833 194.5,258.5C 195.906,258.027 196.573,257.027 196.5,255.5C 197.833,254.5 197.833,253.5 196.5,252.5 Z"/></g>
<g><path style="opacity:0.035" fill="#d0d1ca" d="M 346.5,256.5 C 348.833,256.833 350.167,258.167 350.5,260.5C 348.833,259.5 347.5,258.167 346.5,256.5 Z"/></g>
<g><path style="opacity:0.682" fill="#9a9e9c" d="M 280.5,255.5 C 278.824,257.834 276.491,258.834 273.5,258.5C 275.509,256.935 277.843,255.935 280.5,255.5 Z"/></g>
<g><path style="opacity:0.008" fill="#d1d3d3" d="M 301.5,257.5 C 301.573,259.027 300.906,260.027 299.5,260.5C 299.427,258.973 300.094,257.973 301.5,257.5 Z"/></g>
<g><path style="opacity:0.502" fill="#a8a9a9" d="M 339.5,256.5 C 338.833,257.833 337.833,258.833 336.5,259.5C 336.5,257.5 337.5,256.5 339.5,256.5 Z"/></g>
<g><path style="opacity:0.616" fill="#666969" d="M 186.5,258.5 C 188.976,260.552 191.642,260.885 194.5,259.5C 194.013,260.473 193.513,261.473 193,262.5C 191.215,261.76 189.382,261.093 187.5,260.5C 186.702,260.043 186.369,259.376 186.5,258.5 Z"/></g>
<g><path style="opacity:0.216" fill="#bbbdbc" d="M 172.5,261.5 C 173.674,262.514 174.34,263.847 174.5,265.5C 172.896,264.713 172.229,263.38 172.5,261.5 Z"/></g>
<g><path style="opacity:0.729" fill="#838685" d="M 235.5,263.5 C 237.027,263.427 238.027,264.094 238.5,265.5C 236.973,265.573 235.973,264.906 235.5,263.5 Z"/></g>
<g><path style="opacity:1" fill="#6b6f70" d="M 292.5,266.5 C 290.97,268.346 288.97,269.346 286.5,269.5C 287.611,268.34 288.611,267.007 289.5,265.5C 290.417,266.127 291.417,266.461 292.5,266.5 Z"/></g>
<g><path style="opacity:0.012" fill="#c8cbcb" d="M 176.5,267.5 C 177.5,267.833 178.167,268.5 178.5,269.5C 177.167,269.5 176.5,268.833 176.5,267.5 Z"/></g>
<g><path style="opacity:0.012" fill="#d2d2cf" d="M 207.5,265.5 C 206.833,268.167 205.167,269.833 202.5,270.5C 203.833,268.5 205.5,266.833 207.5,265.5 Z"/></g>
<g><path style="opacity:1" fill="#262c2e" d="M 346.5,256.5 C 347.5,258.167 348.833,259.5 350.5,260.5C 351.833,263.167 351.833,265.833 350.5,268.5C 347.865,271.481 344.532,272.814 340.5,272.5C 335.224,270.274 333.391,266.274 335,260.5C 335.383,259.944 335.883,259.611 336.5,259.5C 337.833,258.833 338.833,257.833 339.5,256.5C 341.833,255.167 344.167,255.167 346.5,256.5 Z"/></g>
<g><path style="opacity:0.137" fill="#c1c3c2" d="M 244.5,269.5 C 246.153,269.66 247.486,270.326 248.5,271.5C 246.62,271.771 245.287,271.104 244.5,269.5 Z"/></g>
<g><path style="opacity:0.035" fill="#d9d8d6" d="M 350.5,268.5 C 348.455,273.168 345.122,274.501 340.5,272.5C 344.532,272.814 347.865,271.481 350.5,268.5 Z"/></g>
<g><path style="opacity:0.871" fill="#858686" d="M 248.5,271.5 C 251.01,271.054 253.01,271.72 254.5,273.5C 252.214,273.405 250.214,272.738 248.5,271.5 Z"/></g>
<g><path style="opacity:0.059" fill="#b9bbbb" d="M 178.5,269.5 C 181.004,270.584 183.337,271.917 185.5,273.5C 182.386,273.445 180.052,272.112 178.5,269.5 Z"/></g>
<g><path style="opacity:0.055" fill="#cccdcb" d="M 202.5,270.5 C 201.025,272.41 199.025,273.576 196.5,274C 192.642,274.81 188.976,274.643 185.5,273.5C 191.469,274.006 197.135,273.006 202.5,270.5 Z"/></g>
<g><path style="opacity:0.129" fill="#c4c8c6" d="M 286.5,269.5 C 281.558,273.158 275.892,274.824 269.5,274.5C 275.119,273.076 280.786,271.409 286.5,269.5 Z"/></g>
<g><path style="opacity:0.009" fill="#eeeeee" d="M 254.5,273.5 C 259.152,273.998 263.819,274.331 268.5,274.5C 263.754,275.789 259.087,275.456 254.5,273.5 Z"/></g>
<g><path style="opacity:0.686" fill="#858582" d="M 159.5,282.5 C 160.833,283.167 161.833,284.167 162.5,285.5C 160.5,285.5 159.5,284.5 159.5,282.5 Z"/></g>
<g><path style="opacity:0.563" fill="#999b98" d="M 162.5,285.5 C 232.833,285.5 303.167,285.5 373.5,285.5C 372.833,286.167 372.167,286.833 371.5,287.5C 302.166,287.667 232.833,287.5 163.5,287C 162.944,286.617 162.611,286.117 162.5,285.5 Z"/></g>
<g><path style="opacity:0.012" fill="#fefffe" d="M 142.5,288.5 C 143.833,289.167 143.833,289.167 142.5,288.5 Z"/></g>
<g><path style="opacity:1" fill="#1b2324" d="M 375.5,172.5 C 376.117,172.611 376.617,172.944 377,173.5C 377.333,209.833 377.667,246.167 378,282.5C 378.333,264.167 378.667,245.833 379,227.5C 380.626,223.665 381.626,219.665 382,215.5C 382.333,218.167 382.667,220.833 383,223.5C 384.026,218.215 384.693,212.882 385,207.5C 385.333,210.833 385.667,214.167 386,217.5C 386.169,211.141 386.669,204.807 387.5,198.5C 388.396,197.494 389.062,197.494 389.5,198.5C 388.32,200.454 387.654,202.621 387.5,205C 388.98,214.249 388.647,223.415 386.5,232.5C 387.951,235.198 389.285,237.865 390.5,240.5C 390.5,256.833 390.5,273.167 390.5,289.5C 390.737,290.791 390.404,291.791 389.5,292.5C 388.094,292.973 387.427,293.973 387.5,295.5C 386.415,297.587 384.749,298.92 382.5,299.5C 376.671,299.968 371.004,300.635 365.5,301.5C 365.5,308.167 365.5,314.833 365.5,321.5C 365.082,322.222 364.416,322.722 363.5,323C 352.167,323.667 340.833,323.667 329.5,323C 328.584,322.722 327.918,322.222 327.5,321.5C 327.167,320.5 326.5,319.833 325.5,319.5C 323.613,317.211 322.279,314.545 321.5,311.5C 321.706,308.003 320.372,305.337 317.5,303.5C 301.18,302.167 284.514,301.5 267.5,301.5C 250.833,301.833 234.167,302.167 217.5,302.5C 216.754,303.736 216.421,305.07 216.5,306.5C 216.34,308.153 215.674,309.486 214.5,310.5C 211.372,313.038 209.705,316.371 209.5,320.5C 208.942,321.79 207.942,322.623 206.5,323C 194.757,323.811 183.091,323.644 171.5,322.5C 171.443,321.391 171.11,320.391 170.5,319.5C 170.5,313.5 170.5,307.5 170.5,301.5C 166.5,301.5 162.5,301.5 158.5,301.5C 156.739,300.687 155.072,299.687 153.5,298.5C 154.043,298.44 154.376,298.107 154.5,297.5C 153.149,295.546 152.482,293.379 152.5,291C 152.389,286.257 154.056,285.424 157.5,288.5C 158.183,291.461 159.016,291.795 160,289.5C 163.69,291.031 167.523,291.531 171.5,291C 169.833,290.667 168.167,290.333 166.5,290C 166.833,289.667 167.167,289.333 167.5,289C 236.237,288.835 304.237,288.335 371.5,287.5C 372.167,286.833 372.833,286.167 373.5,285.5C 373.783,284.711 374.283,284.044 375,283.5C 375.5,246.502 375.667,209.502 375.5,172.5 Z M 200.5,304.5 C 200.167,304.5 199.833,304.5 199.5,304.5C 199.167,305.833 198.833,307.167 198.5,308.5C 194.5,308.5 190.5,308.5 186.5,308.5C 186.537,303.139 189.203,301.139 194.5,302.5C 196.952,302.539 198.952,303.206 200.5,304.5 Z M 335.5,303.5 C 339.733,302.206 344.066,302.206 348.5,303.5C 348.286,305.144 348.62,306.644 349.5,308C 345.514,308.499 341.514,308.666 337.5,308.5C 337.672,307.508 337.338,306.842 336.5,306.5C 336.577,305.25 337.244,304.417 338.5,304C 337.552,303.517 336.552,303.351 335.5,303.5 Z"/></g>
<g><path style="opacity:0.094" fill="#cecfce" d="M 389.5,292.5 C 389.573,294.027 388.906,295.027 387.5,295.5C 387.427,293.973 388.094,292.973 389.5,292.5 Z"/></g>
<g><path style="opacity:0.01" fill="#dfdfdf" d="M 148.5,295.5 C 149.5,295.833 150.167,296.5 150.5,297.5C 148.797,298.66 148.131,297.993 148.5,295.5 Z"/></g>
<g><path style="opacity:0.639" fill="#929392" d="M 150.5,297.5 C 151.609,297.557 152.609,297.89 153.5,298.5C 155.072,299.687 156.739,300.687 158.5,301.5C 154.579,302.27 151.912,300.937 150.5,297.5 Z"/></g>
<g><path style="opacity:0.694" fill="#545959" d="M 187.5,301.5 C 192.305,300.513 197.305,300.179 202.5,300.5C 202.737,301.791 202.404,302.791 201.5,303.5C 197.285,301.564 192.619,300.897 187.5,301.5 Z"/></g>
<g><path style="opacity:0.688" fill="#575c5d" d="M 348.5,301.5 C 343.637,301.181 338.97,301.514 334.5,302.5C 333.957,302.44 333.624,302.107 333.5,301.5C 338.652,300.186 343.652,300.186 348.5,301.5 Z"/></g>
<g><path style="opacity:0.459" fill="#6f7272" d="M 382.5,299.5 C 382.5,299.833 382.5,300.167 382.5,300.5C 380.565,301.15 378.565,301.483 376.5,301.5C 372.833,301.5 369.167,301.5 365.5,301.5C 371.004,300.635 376.671,299.968 382.5,299.5 Z"/></g>
<g><path style="opacity:0.004" fill="#fefffe" d="M 382.5,300.5 C 383.833,301.167 383.833,301.167 382.5,300.5 Z"/></g>
<g><path style="opacity:0.16" fill="#cccdcd" d="M 317.5,303.5 C 317.167,303.5 316.833,303.5 316.5,303.5C 283.998,302.17 251.331,302.17 218.5,303.5C 218.058,304.739 217.391,305.739 216.5,306.5C 216.421,305.07 216.754,303.736 217.5,302.5C 234.167,302.167 250.833,301.833 267.5,301.5C 284.514,301.5 301.18,302.167 317.5,303.5 Z"/></g>
<g><path style="opacity:0.075" fill="#e3e9ea" d="M 348.5,301.5 C 348.5,302.167 348.5,302.833 348.5,303.5C 344.066,302.206 339.733,302.206 335.5,303.5C 334.833,303.5 334.5,303.167 334.5,302.5C 338.97,301.514 343.637,301.181 348.5,301.5 Z"/></g>
<g><path style="opacity:0.012" fill="#fefffe" d="M 316.5,303.5 C 315.833,304.167 315.833,304.167 316.5,303.5 Z"/></g>
<g><path style="opacity:0.013" fill="#eeeeee" d="M 335.5,303.5 C 336.552,303.351 337.552,303.517 338.5,304C 337.244,304.417 336.577,305.25 336.5,306.5C 335.596,305.791 335.263,304.791 335.5,303.5 Z"/></g>
<g><path style="opacity:0.051" fill="#e5e6e6" d="M 169.5,303.5 C 169.179,309.026 169.512,314.36 170.5,319.5C 171.11,320.391 171.443,321.391 171.5,322.5C 170.542,322.047 169.708,321.381 169,320.5C 168.182,314.651 168.348,308.985 169.5,303.5 Z"/></g>
<g><path style="opacity:0.388" fill="#afb3b4" d="M 365.5,301.5 C 369.167,301.5 372.833,301.5 376.5,301.5C 373.359,302.321 370.025,302.821 366.5,303C 366.374,305.234 366.707,307.568 367.5,310C 366.862,313.935 366.196,317.769 365.5,321.5C 365.5,314.833 365.5,308.167 365.5,301.5 Z"/></g>
<g><path style="opacity:1" fill="#808281" d="M 317.5,303.5 C 320.372,305.337 321.706,308.003 321.5,311.5C 319.638,309.109 318.304,306.442 317.5,303.5 Z"/></g>
<g><path style="opacity:0.102" fill="#cfd3d2" d="M 187.5,301.5 C 192.619,300.897 197.285,301.564 201.5,303.5C 201.5,304.167 201.167,304.5 200.5,304.5C 198.952,303.206 196.952,302.539 194.5,302.5C 189.203,301.139 186.537,303.139 186.5,308.5C 190.5,308.5 194.5,308.5 198.5,308.5C 193.985,309.812 189.318,309.812 184.5,308.5C 185.312,306.055 186.312,303.722 187.5,301.5 Z"/></g>
<g><path style="opacity:0.141" fill="#d5d8d9" d="M 348.5,303.5 C 349.738,305.214 350.405,307.214 350.5,309.5C 345.968,309.818 341.634,309.485 337.5,308.5C 341.514,308.666 345.514,308.499 349.5,308C 348.62,306.644 348.286,305.144 348.5,303.5 Z"/></g>
<g><path style="opacity:0.741" fill="#6f7474" d="M 158.5,301.5 C 162.5,301.5 166.5,301.5 170.5,301.5C 170.5,307.5 170.5,313.5 170.5,319.5C 169.512,314.36 169.179,309.026 169.5,303.5C 165.833,302.833 162.167,302.167 158.5,301.5 Z"/></g>
<g><path style="opacity:0.988" fill="#626869" d="M 214.5,310.5 C 213.341,314.151 211.674,317.485 209.5,320.5C 209.705,316.371 211.372,313.038 214.5,310.5 Z"/></g>
<g><path style="opacity:0.067" fill="#b5b5b5" d="M 325.5,319.5 C 326.5,319.833 327.167,320.5 327.5,321.5C 326.167,321.5 325.5,320.833 325.5,319.5 Z"/></g>
</svg>
