<?xml version="1.0" encoding="UTF-8"?>
<!DOCTYPE svg PUBLIC "-//W3C//DTD SVG 1.1//EN" "http://www.w3.org/Graphics/SVG/1.1/DTD/svg11.dtd">
<svg xmlns="http://www.w3.org/2000/svg" version="1.1" width="392px" height="319px" style="shape-rendering:geometricPrecision; text-rendering:geometricPrecision; image-rendering:optimizeQuality; fill-rule:evenodd; clip-rule:evenodd" xmlns:xlink="http://www.w3.org/1999/xlink">
<g><path style="opacity:0.999" fill="#eaeded" d="M 104.5,226.5 C 104.5,223.833 104.5,221.167 104.5,218.5C 102.5,218.5 100.5,218.5 98.5,218.5C 96.2646,218.795 94.2646,218.461 92.5,217.5C 93.0428,215.657 92.3761,213.99 90.5,212.5C 89.3334,181.172 89.1668,149.839 90,118.5C 91.1362,116.257 91.9695,113.924 92.5,111.5C 92.5,110.833 92.8333,110.5 93.5,110.5C 158.459,109.341 223.459,109.174 288.5,110C 292,110.833 294.167,113 295,116.5C 295.667,148.5 295.667,180.5 295,212.5C 294.315,215.057 292.815,216.891 290.5,218C 286.848,218.499 283.182,218.665 279.5,218.5C 279.665,221.85 279.498,225.183 279,228.5C 278.535,229.931 277.701,231.097 276.5,232C 263.5,232.667 250.5,232.667 237.5,232C 236.299,231.097 235.465,229.931 235,228.5C 234.502,225.183 234.335,221.85 234.5,218.5C 206.167,218.5 177.833,218.5 149.5,218.5C 150.429,223.765 149.096,228.265 145.5,232C 132.5,232.667 119.5,232.667 106.5,232C 104.845,230.556 104.178,228.722 104.5,226.5 Z M 286.5,208.5 C 223.167,209.833 159.833,209.833 96.5,208.5C 97.1266,178.754 97.1266,149.088 96.5,119.5C 159.833,119.5 223.167,119.5 286.5,119.5C 286.5,149.167 286.5,178.833 286.5,208.5 Z M 116.5,135.5 C 120.33,135.496 121.33,137.162 119.5,140.5C 117.736,141.326 116.402,142.659 115.5,144.5C 114.603,143.402 113.77,143.402 113,144.5C 111.812,143.437 111.312,142.103 111.5,140.5C 113.5,139.167 115.167,137.5 116.5,135.5 Z M 144.5,136.5 C 182.168,136.333 219.835,136.5 257.5,137C 261.224,139.284 263.891,142.451 265.5,146.5C 266.836,154.663 263.836,160.497 256.5,164C 228.33,164.168 200.33,164.668 172.5,165.5C 171.833,165.5 171.5,165.833 171.5,166.5C 170.623,172.33 168.956,177.996 166.5,183.5C 165.5,183.833 164.833,184.5 164.5,185.5C 162.5,186.833 160.833,188.5 159.5,190.5C 140.924,199.032 126.924,194.365 117.5,176.5C 116.705,172.215 116.372,167.881 116.5,163.5C 117.193,158.748 118.86,154.414 121.5,150.5C 123.527,147.806 125.861,145.473 128.5,143.5C 132.633,141.511 136.967,140.011 141.5,139C 142.571,138.148 143.571,137.315 144.5,136.5 Z M 147.5,160.5 C 141.108,161.062 138.941,164.396 141,170.5C 141.671,171.252 142.504,171.586 143.5,171.5C 144.71,171.932 145.71,172.599 146.5,173.5C 144.352,173.389 144.019,174.056 145.5,175.5C 143.604,176.466 141.604,176.799 139.5,176.5C 131.909,170.382 131.909,164.215 139.5,158C 141.833,157.333 144.167,157.333 146.5,158C 147.252,158.671 147.586,159.504 147.5,160.5 Z M 230.5,175.5 C 237.386,181.289 237.052,186.622 229.5,191.5C 226.763,191.599 224.096,191.265 221.5,190.5C 218.607,187.062 217.773,183.062 219,178.5C 220.039,177.29 221.206,176.29 222.5,175.5C 225.167,174.167 227.833,174.167 230.5,175.5 Z M 261.5,175.5 C 261.833,175.5 262.167,175.5 262.5,175.5C 266.709,179.666 267.375,184.333 264.5,189.5C 254.822,193.921 249.989,190.921 250,180.5C 250.996,178.34 252.496,176.673 254.5,175.5C 256.785,174.454 259.118,174.454 261.5,175.5 Z M 190.5,175.5 C 197.883,173.569 202.55,176.236 204.5,183.5C 202.902,190.635 198.569,193.135 191.5,191C 185.198,186.27 184.865,181.103 190.5,175.5 Z M 269.5,218.5 C 269.5,220.167 269.5,221.833 269.5,223.5C 260.833,223.5 252.167,223.5 243.5,223.5C 244.452,221.888 244.786,220.388 244.5,219C 252.827,218.5 261.16,218.334 269.5,218.5 Z M 113.5,218.5 C 122.016,218.6 130.683,218.6 139.5,218.5C 139.5,220.167 139.5,221.833 139.5,223.5C 130.833,223.5 122.167,223.5 113.5,223.5C 113.5,221.833 113.5,220.167 113.5,218.5 Z"/></g>
<g><path style="opacity:0.365" fill="#08171d" d="M 93.5,110.5 C 92.8333,110.5 92.5,110.833 92.5,111.5C 90.457,112.579 89.1237,114.246 88.5,116.5C 85.7952,116.62 85.1285,115.62 86.5,113.5C 88.2279,111.774 90.2279,110.441 92.5,109.5C 93.1067,109.624 93.44,109.957 93.5,110.5 Z"/></g>
<g><path style="opacity:0.915" fill="#abb4b8" d="M 92.5,111.5 C 91.9695,113.924 91.1362,116.257 90,118.5C 89.1668,149.839 89.3334,181.172 90.5,212.5C 92.3761,213.99 93.0428,215.657 92.5,217.5C 90.5475,216.374 89.0475,214.708 88,212.5C 87.1815,180.458 87.3482,148.458 88.5,116.5C 89.1237,114.246 90.457,112.579 92.5,111.5 Z"/></g>
<g><path style="opacity:1" fill="#eceeee" d="M 277.5,126.5 C 277.5,151.5 277.5,176.5 277.5,201.5C 220.167,202.833 162.833,202.833 105.5,201.5C 105.177,176.425 105.51,151.425 106.5,126.5C 163.35,125.376 220.35,125.376 277.5,126.5 Z M 116.5,135.5 C 120.33,135.496 121.33,137.162 119.5,140.5C 117.736,141.326 116.402,142.659 115.5,144.5C 114.603,143.402 113.77,143.402 113,144.5C 111.812,143.437 111.312,142.103 111.5,140.5C 113.5,139.167 115.167,137.5 116.5,135.5 Z M 144.5,136.5 C 182.168,136.333 219.835,136.5 257.5,137C 261.224,139.284 263.891,142.451 265.5,146.5C 266.836,154.663 263.836,160.497 256.5,164C 228.33,164.168 200.33,164.668 172.5,165.5C 171.833,165.5 171.5,165.833 171.5,166.5C 170.623,172.33 168.956,177.996 166.5,183.5C 165.5,183.833 164.833,184.5 164.5,185.5C 162.5,186.833 160.833,188.5 159.5,190.5C 140.924,199.032 126.924,194.365 117.5,176.5C 116.705,172.215 116.372,167.881 116.5,163.5C 117.193,158.748 118.86,154.414 121.5,150.5C 123.527,147.806 125.861,145.473 128.5,143.5C 132.633,141.511 136.967,140.011 141.5,139C 142.571,138.148 143.571,137.315 144.5,136.5 Z M 147.5,160.5 C 141.108,161.062 138.941,164.396 141,170.5C 141.671,171.252 142.504,171.586 143.5,171.5C 144.71,171.932 145.71,172.599 146.5,173.5C 144.352,173.389 144.019,174.056 145.5,175.5C 143.604,176.466 141.604,176.799 139.5,176.5C 131.909,170.382 131.909,164.215 139.5,158C 141.833,157.333 144.167,157.333 146.5,158C 147.252,158.671 147.586,159.504 147.5,160.5 Z M 230.5,175.5 C 237.386,181.289 237.052,186.622 229.5,191.5C 226.763,191.599 224.096,191.265 221.5,190.5C 218.607,187.062 217.773,183.062 219,178.5C 220.039,177.29 221.206,176.29 222.5,175.5C 225.167,174.167 227.833,174.167 230.5,175.5 Z M 261.5,175.5 C 261.833,175.5 262.167,175.5 262.5,175.5C 266.709,179.666 267.375,184.333 264.5,189.5C 254.822,193.921 249.989,190.921 250,180.5C 250.996,178.34 252.496,176.673 254.5,175.5C 256.785,174.454 259.118,174.454 261.5,175.5 Z M 190.5,175.5 C 184.865,181.103 185.198,186.27 191.5,191C 198.569,193.135 202.902,190.635 204.5,183.5C 202.55,176.236 197.883,173.569 190.5,175.5 Z"/></g>
<g><path style="opacity:0.192" fill="#4e5b5f" d="M 116.5,135.5 C 120.494,133.651 121.994,134.985 121,139.5C 120.617,140.056 120.117,140.389 119.5,140.5C 121.33,137.162 120.33,135.496 116.5,135.5 Z"/></g>
<g><path style="opacity:0.991" fill="#b7bec2" d="M 144.5,136.5 C 143.571,137.315 142.571,138.148 141.5,139C 136.967,140.011 132.633,141.511 128.5,143.5C 128.5,142.5 128.5,141.5 128.5,140.5C 134.337,139.486 139.67,138.153 144.5,136.5 Z"/></g>
<g><path style="opacity:0.588" fill="#626e74" d="M 277.5,126.5 C 278.298,129.171 278.965,132.004 279.5,135C 279.118,156.077 278.951,177.244 279,198.5C 278.768,199.737 278.268,200.737 277.5,201.5C 277.5,176.5 277.5,151.5 277.5,126.5 Z"/></g>
<g><path style="opacity:1" fill="#8e9699" d="M 111.5,140.5 C 111.312,142.103 111.812,143.437 113,144.5C 113.77,143.402 114.603,143.402 115.5,144.5C 114.081,145.451 112.415,145.784 110.5,145.5C 110.216,143.585 110.549,141.919 111.5,140.5 Z"/></g>
<g><path style="opacity:1" fill="#d1d8d9" d="M 161.5,152.5 C 161.5,151.167 161.5,149.833 161.5,148.5C 159.833,148.5 158.167,148.5 156.5,148.5C 155.199,147.116 155.199,145.616 156.5,144C 160.5,143.333 164.5,143.333 168.5,144C 169.204,148.433 167.538,151.933 163.5,154.5C 162.478,154.145 161.811,153.478 161.5,152.5 Z"/></g>
<g><path style="opacity:0.998" fill="#e0e4e5" d="M 254.5,144.5 C 255.114,148.135 255.448,151.802 255.5,155.5C 254.711,155.783 254.044,156.283 253.5,157C 248.5,157.667 243.5,157.667 238.5,157C 237.77,154.846 237.103,152.679 236.5,150.5C 231.164,148.496 229.164,150.496 230.5,156.5C 225.833,156.5 221.167,156.5 216.5,156.5C 215.776,154.782 215.109,152.948 214.5,151C 212.866,150.506 211.199,150.34 209.5,150.5C 208.539,152.265 208.205,154.265 208.5,156.5C 203.833,156.5 199.167,156.5 194.5,156.5C 193.539,154.735 193.205,152.735 193.5,150.5C 191.265,150.205 189.265,150.539 187.5,151.5C 186.549,152.919 186.216,154.585 186.5,156.5C 183.167,156.5 179.833,156.5 176.5,156.5C 175.427,155.749 175.26,154.749 176,153.5C 177.833,150.333 179.667,147.167 181.5,144C 205.906,143.177 230.239,143.344 254.5,144.5 Z"/></g>
<g><path style="opacity:0.64" fill="#95a0a3" d="M 106.5,126.5 C 105.51,151.425 105.177,176.425 105.5,201.5C 104.833,189.171 104.5,176.671 104.5,164C 104.501,151.148 105.168,138.648 106.5,126.5 Z"/></g>
<g><path style="opacity:0.729" fill="#798285" d="M 156.5,148.5 C 158.167,148.5 159.833,148.5 161.5,148.5C 161.5,149.833 161.5,151.167 161.5,152.5C 160.732,151.737 160.232,150.737 160,149.5C 158.687,150.287 157.52,149.954 156.5,148.5 Z"/></g>
<g><path style="opacity:1" fill="#e3e7e8" d="M 159.5,161.5 C 159.628,165.881 159.295,170.215 158.5,174.5C 154.422,182.703 147.755,185.87 138.5,184C 125.756,177.397 123.089,167.897 130.5,155.5C 137.024,149.497 144.357,148.33 152.5,152C 155.848,154.501 158.182,157.668 159.5,161.5 Z M 147.5,160.5 C 141.108,161.062 138.941,164.396 141,170.5C 141.671,171.252 142.504,171.586 143.5,171.5C 144.71,171.932 145.71,172.599 146.5,173.5C 144.352,173.389 144.019,174.056 145.5,175.5C 143.604,176.466 141.604,176.799 139.5,176.5C 131.909,170.382 131.909,164.215 139.5,158C 141.833,157.333 144.167,157.333 146.5,158C 147.252,158.671 147.586,159.504 147.5,160.5 Z"/></g>
<g><path style="opacity:0.996" fill="#b9c1c5" d="M 121.5,150.5 C 118.86,154.414 117.193,158.748 116.5,163.5C 116.167,163.5 115.833,163.5 115.5,163.5C 116.724,160.515 116.391,157.849 114.5,155.5C 116.043,152.61 118.376,150.943 121.5,150.5 Z"/></g>
<g><path style="opacity:0.835" fill="#8e999b" d="M 254.5,144.5 C 257.869,147.976 258.202,151.642 255.5,155.5C 255.448,151.802 255.114,148.135 254.5,144.5 Z"/></g>
<g><path style="opacity:0.169" fill="#434e56" d="M 187.5,151.5 C 187.5,153.5 187.5,155.5 187.5,157.5C 183.629,157.815 179.962,157.482 176.5,156.5C 179.833,156.5 183.167,156.5 186.5,156.5C 186.216,154.585 186.549,152.919 187.5,151.5 Z"/></g>
<g><path style="opacity:0.149" fill="#3a474b" d="M 209.5,150.5 C 209.5,152.833 209.5,155.167 209.5,157.5C 204.305,157.821 199.305,157.487 194.5,156.5C 199.167,156.5 203.833,156.5 208.5,156.5C 208.205,154.265 208.539,152.265 209.5,150.5 Z"/></g>
<g><path style="opacity:0.129" fill="#414d53" d="M 236.5,150.5 C 234.856,150.286 233.356,150.62 232,151.5C 231.505,153.473 231.338,155.473 231.5,157.5C 226.305,157.821 221.305,157.487 216.5,156.5C 221.167,156.5 225.833,156.5 230.5,156.5C 229.164,150.496 231.164,148.496 236.5,150.5 Z"/></g>
<g><path style="opacity:0.985" fill="#7a868c" d="M 265.5,146.5 C 266.485,150.634 266.818,154.968 266.5,159.5C 265.5,159.5 264.5,159.5 263.5,159.5C 263.511,163.352 261.511,165.185 257.5,165C 229.169,165.5 200.835,165.667 172.5,165.5C 200.33,164.668 228.33,164.168 256.5,164C 263.836,160.497 266.836,154.663 265.5,146.5 Z"/></g>
<g><path style="opacity:1" fill="#9ea6ac" d="M 147.5,160.5 C 147.5,161.5 147.5,162.5 147.5,163.5C 141.216,163.504 139.882,166.171 143.5,171.5C 142.504,171.586 141.671,171.252 141,170.5C 138.941,164.396 141.108,161.062 147.5,160.5 Z"/></g>
<g><path style="opacity:0.471" fill="#616e76" d="M 159.5,161.5 C 160.161,163.134 160.494,164.967 160.5,167C 160.7,169.866 160.033,172.366 158.5,174.5C 159.295,170.215 159.628,165.881 159.5,161.5 Z"/></g>
<g><path style="opacity:0.733" fill="#646f74" d="M 115.5,163.5 C 115.833,163.5 116.167,163.5 116.5,163.5C 116.372,167.881 116.705,172.215 117.5,176.5C 116.778,176.082 116.278,175.416 116,174.5C 115.501,170.848 115.335,167.182 115.5,163.5 Z"/></g>
<g><path style="opacity:0.651" fill="#747b80" d="M 230.5,175.5 C 227.833,174.167 225.167,174.167 222.5,175.5C 225.167,172.833 227.833,172.833 230.5,175.5 Z"/></g>
<g><path style="opacity:0.753" fill="#7b8187" d="M 261.5,175.5 C 259.118,174.454 256.785,174.454 254.5,175.5C 256.75,172.966 259.084,172.966 261.5,175.5 Z"/></g>
<g><path style="opacity:0.086" fill="#303c43" d="M 146.5,173.5 C 146.328,174.492 146.662,175.158 147.5,175.5C 146.508,177.026 145.008,177.693 143,177.5C 141.615,177.486 140.449,177.152 139.5,176.5C 141.604,176.799 143.604,176.466 145.5,175.5C 144.019,174.056 144.352,173.389 146.5,173.5 Z"/></g>
<g><path style="opacity:0.995" fill="#b1bbbf" d="M 171.5,166.5 C 171.211,170.106 171.544,173.606 172.5,177C 171.706,180.293 169.706,182.46 166.5,183.5C 168.956,177.996 170.623,172.33 171.5,166.5 Z"/></g>
<g><path style="opacity:0.996" fill="#bdc6ca" d="M 262.5,175.5 C 264.17,175.751 265.67,176.418 267,177.5C 268.392,180.822 268.559,184.155 267.5,187.5C 266.735,188.612 265.735,189.279 264.5,189.5C 267.375,184.333 266.709,179.666 262.5,175.5 Z"/></g>
<g><path style="opacity:0.725" fill="#8e969f" d="M 164.5,185.5 C 163.833,188.167 162.167,189.833 159.5,190.5C 160.833,188.5 162.5,186.833 164.5,185.5 Z"/></g>
<g><path style="opacity:0.098" fill="#484d59" d="M 221.5,190.5 C 224.096,191.265 226.763,191.599 229.5,191.5C 228.551,192.152 227.385,192.486 226,192.5C 223.992,192.693 222.492,192.026 221.5,190.5 Z"/></g>
<g><path style="opacity:0.527" fill="#8e979d" d="M 96.5,208.5 C 159.833,209.833 223.167,209.833 286.5,208.5C 255.174,209.833 223.507,210.5 191.5,210.5C 159.493,210.5 127.826,209.833 96.5,208.5 Z"/></g>
<g><path style="opacity:0.047" fill="#1d282d" d="M 98.5,218.5 C 100.5,218.5 102.5,218.5 104.5,218.5C 104.5,221.167 104.5,223.833 104.5,226.5C 103.532,224.393 103.198,222.059 103.5,219.5C 101.585,219.784 99.9187,219.451 98.5,218.5 Z"/></g>
<g><path style="opacity:0.212" fill="#4b575a" d="M 113.5,218.5 C 113.5,220.167 113.5,221.833 113.5,223.5C 122.167,223.5 130.833,223.5 139.5,223.5C 139.5,221.833 139.5,220.167 139.5,218.5C 140.461,220.265 140.795,222.265 140.5,224.5C 131.167,224.5 121.833,224.5 112.5,224.5C 112.205,222.265 112.539,220.265 113.5,218.5 Z M 113.5,218.5 C 122.016,218.6 130.683,218.6 139.5,218.5C 139.5,220.167 139.5,221.833 139.5,223.5C 130.833,223.5 122.167,223.5 113.5,223.5C 113.5,221.833 113.5,220.167 113.5,218.5 Z"/></g>
<g><path style="opacity:0.191" fill="#3b474c" d="M 269.5,218.5 C 270.461,220.265 270.795,222.265 270.5,224.5C 261.318,224.827 252.318,224.493 243.5,223.5C 252.167,223.5 260.833,223.5 269.5,223.5C 269.5,221.833 269.5,220.167 269.5,218.5 Z"/></g>
</svg>
