<?xml version="1.0" encoding="UTF-8"?>
<!DOCTYPE svg PUBLIC "-//W3C//DTD SVG 1.1//EN" "http://www.w3.org/Graphics/SVG/1.1/DTD/svg11.dtd">
<svg xmlns="http://www.w3.org/2000/svg" version="1.1" width="524px" height="476px" style="shape-rendering:geometricPrecision; text-rendering:geometricPrecision; image-rendering:optimizeQuality; fill-rule:evenodd; clip-rule:evenodd" xmlns:xlink="http://www.w3.org/1999/xlink">
<g><path style="opacity:0.345" fill="#b2b6ba" d="M 256.5,23.5 C 251.463,23.4126 246.463,23.746 241.5,24.5C 241.918,23.7784 242.584,23.2784 243.5,23C 248.02,22.1864 252.354,22.353 256.5,23.5 Z"/></g>
<g><path style="opacity:1" fill="#5c6066" d="M 256.5,23.5 C 259.704,24.3833 262.371,26.0499 264.5,28.5C 262.508,28.6715 260.842,28.0049 259.5,26.5C 258.914,26.7093 258.414,27.0426 258,27.5C 257.59,26.0993 257.09,24.766 256.5,23.5 Z"/></g>
<g><path style="opacity:0.839" fill="#8f9496" d="M 235.5,28.5 C 234.92,30.7488 233.587,32.4154 231.5,33.5C 232.08,31.2512 233.413,29.5846 235.5,28.5 Z"/></g>
<g><path style="opacity:0.91" fill="#7e8389" d="M 264.5,28.5 C 266.587,29.5846 267.92,31.2512 268.5,33.5C 266.413,32.4154 265.08,30.7488 264.5,28.5 Z"/></g>
<g><path style="opacity:0.014" fill="#d6d9db" d="M 268.5,33.5 C 270.104,34.287 270.771,35.6203 270.5,37.5C 269.326,36.4863 268.66,35.153 268.5,33.5 Z"/></g>
<g><path style="opacity:1" fill="#1a242d" d="M 256.5,23.5 C 257.09,24.766 257.59,26.0993 258,27.5C 258.414,27.0426 258.914,26.7093 259.5,26.5C 260.842,28.0049 262.508,28.6715 264.5,28.5C 265.08,30.7488 266.413,32.4154 268.5,33.5C 268.66,35.153 269.326,36.4863 270.5,37.5C 271.301,39.0418 271.634,40.7085 271.5,42.5C 280.179,42.5363 288.846,42.203 297.5,41.5C 303.056,41.5277 308.389,42.1944 313.5,43.5C 314.78,44.9313 316.447,45.5979 318.5,45.5C 321.109,46.4431 323.109,48.1097 324.5,50.5C 325.08,52.7488 326.413,54.4154 328.5,55.5C 328.986,57.8067 328.986,59.9734 328.5,62C 329.373,63.045 330.373,63.8783 331.5,64.5C 332.828,70.1979 331.828,75.5312 328.5,80.5C 327.094,80.9731 326.427,81.9731 326.5,83.5C 324.833,85.5 323.167,87.5 321.5,89.5C 320.833,89.5 320.167,89.5 319.5,89.5C 318.503,106.325 318.17,123.325 318.5,140.5C 317.708,145.542 316.708,150.542 315.5,155.5C 314.201,160.764 311.868,165.431 308.5,169.5C 307.094,169.973 306.427,170.973 306.5,172.5C 305.094,172.973 304.427,173.973 304.5,175.5C 304.167,176.5 303.5,177.167 302.5,177.5C 301.094,177.973 300.427,178.973 300.5,180.5C 298.402,179.086 297.402,179.752 297.5,182.5C 296.448,182.351 295.448,182.517 294.5,183C 295.34,184.666 294.84,184.833 293,183.5C 292.536,184.094 292.369,184.761 292.5,185.5C 291.417,185.539 290.417,185.873 289.5,186.5C 289.002,187.603 288.669,188.603 288.5,189.5C 287.001,187.198 285.668,187.531 284.5,190.5C 285.791,191.527 285.791,192.527 284.5,193.5C 283.833,194.167 283.167,194.833 282.5,195.5C 282.167,195.5 281.833,195.5 281.5,195.5C 278.759,195.707 276.426,196.707 274.5,198.5C 272.786,199.738 270.786,200.405 268.5,200.5C 257.884,202.58 247.218,202.914 236.5,201.5C 233.027,201.424 229.694,200.758 226.5,199.5C 225.5,198.833 224.5,198.167 223.5,197.5C 222.341,195.75 220.674,194.75 218.5,194.5C 217.508,194.672 216.842,194.338 216.5,193.5C 216.027,192.094 215.027,191.427 213.5,191.5C 212.738,189.738 211.404,188.738 209.5,188.5C 208.415,186.413 206.749,185.08 204.5,184.5C 200.043,181.381 196.709,177.381 194.5,172.5C 194.573,170.973 193.906,169.973 192.5,169.5C 191.662,169.158 191.328,168.492 191.5,167.5C 191.66,165.801 191.494,164.134 191,162.5C 190.23,163.598 189.397,163.598 188.5,162.5C 186.935,160.491 185.935,158.157 185.5,155.5C 185.741,153.102 185.074,151.102 183.5,149.5C 183.283,145.295 182.617,141.295 181.5,137.5C 180.188,121.637 180.188,105.803 181.5,90C 177.598,87.6003 174.598,84.4336 172.5,80.5C 172.34,78.847 171.674,77.5137 170.5,76.5C 168.309,71.7134 167.976,66.7134 169.5,61.5C 171.213,60.3646 171.88,58.698 171.5,56.5C 172.906,56.0269 173.573,55.0269 173.5,53.5C 175.833,51.8333 177.833,49.8333 179.5,47.5C 181.027,47.573 182.027,46.9063 182.5,45.5C 186.911,44.402 191.245,43.402 195.5,42.5C 204.833,42.5 214.167,42.5 223.5,42.5C 225.833,42.5 228.167,42.5 230.5,42.5C 230.833,39.8333 231.167,37.1667 231.5,34.5C 231.5,34.1667 231.5,33.8333 231.5,33.5C 233.587,32.4154 234.92,30.7488 235.5,28.5C 237.147,26.6736 239.147,25.3403 241.5,24.5C 246.463,23.746 251.463,23.4126 256.5,23.5 Z M 300.5,93.5 C 300.5,94.5 300.5,95.5 300.5,96.5C 299.814,97.8484 298.814,99.015 297.5,100C 298.448,100.483 299.448,100.649 300.5,100.5C 300.5,100.833 300.5,101.167 300.5,101.5C 267.5,101.5 234.5,101.5 201.5,101.5C 201.5,98.8333 201.5,96.1667 201.5,93.5C 234.678,93.5245 267.678,93.5245 300.5,93.5 Z M 300.5,121.5 C 300.443,127.851 300.11,134.185 299.5,140.5C 298.076,142.515 297.41,144.848 297.5,147.5C 296.463,148.93 295.796,150.597 295.5,152.5C 293.659,154.849 292.326,157.515 291.5,160.5C 289.413,161.585 288.08,163.251 287.5,165.5C 286.5,165.833 285.833,166.5 285.5,167.5C 282.474,170.195 279.474,172.862 276.5,175.5C 274.973,175.427 273.973,176.094 273.5,177.5C 272.508,177.328 271.842,177.662 271.5,178.5C 269.597,178.796 267.93,179.463 266.5,180.5C 264.302,180.875 262.302,181.542 260.5,182.5C 252.466,182.698 244.466,182.365 236.5,181.5C 235.609,180.89 234.609,180.557 233.5,180.5C 233.5,180.167 233.5,179.833 233.5,179.5C 232.167,179.167 230.833,178.833 229.5,178.5C 228.035,177.263 226.368,176.263 224.5,175.5C 224.027,174.094 223.027,173.427 221.5,173.5C 221.167,172.5 220.5,171.833 219.5,171.5C 217.167,168.5 214.5,165.833 211.5,163.5C 211.573,161.973 210.906,160.973 209.5,160.5C 209.672,159.508 209.338,158.842 208.5,158.5C 208.573,156.973 207.906,155.973 206.5,155.5C 205.488,152.743 204.488,150.076 203.5,147.5C 203.405,145.214 202.738,143.214 201.5,141.5C 201.5,134.833 201.5,128.167 201.5,121.5C 234.5,121.5 267.5,121.5 300.5,121.5 Z"/></g>
<g><path style="opacity:0.008" fill="#fefffe" d="M 272.5,39.5 C 273.525,39.8966 273.692,40.5632 273,41.5C 272.536,40.9056 272.369,40.2389 272.5,39.5 Z"/></g>
<g><path style="opacity:0.745" fill="#8d9297" d="M 231.5,34.5 C 231.167,37.1667 230.833,39.8333 230.5,42.5C 228.167,42.5 225.833,42.5 223.5,42.5C 225.265,41.5386 227.265,41.2053 229.5,41.5C 229.171,38.7718 229.837,36.4385 231.5,34.5 Z"/></g>
<g><path style="opacity:0.682" fill="#92989b" d="M 195.5,42.5 C 191.245,43.402 186.911,44.402 182.5,45.5C 184.482,44.438 186.315,43.1047 188,41.5C 190.701,42.3344 193.201,42.6678 195.5,42.5 Z"/></g>
<g><path style="opacity:0.227" fill="#bdc2c4" d="M 313.5,43.5 C 315.553,43.4021 317.22,44.0687 318.5,45.5C 316.447,45.5979 314.78,44.9313 313.5,43.5 Z"/></g>
<g><path style="opacity:0.612" fill="#9fa2a6" d="M 182.5,45.5 C 182.027,46.9063 181.027,47.573 179.5,47.5C 179.973,46.0937 180.973,45.427 182.5,45.5 Z"/></g>
<g><path style="opacity:0.608" fill="#9fa4ab" d="M 179.5,47.5 C 177.833,49.8333 175.833,51.8333 173.5,53.5C 174.5,50.5 176.5,48.5 179.5,47.5 Z"/></g>
<g><path style="opacity:0.851" fill="#8f9397" d="M 324.5,50.5 C 326.587,51.5846 327.92,53.2512 328.5,55.5C 326.413,54.4154 325.08,52.7488 324.5,50.5 Z"/></g>
<g><path style="opacity:0.294" fill="#b0babc" d="M 173.5,53.5 C 173.573,55.0269 172.906,56.0269 171.5,56.5C 171.427,54.9731 172.094,53.9731 173.5,53.5 Z"/></g>
<g><path style="opacity:0.863" fill="#94999d" d="M 171.5,56.5 C 171.88,58.698 171.213,60.3646 169.5,61.5C 169.402,59.4471 170.069,57.7804 171.5,56.5 Z"/></g>
<g><path style="opacity:0.973" fill="#555b64" d="M 328.5,55.5 C 330.868,57.9557 331.868,60.9557 331.5,64.5C 330.373,63.8783 329.373,63.045 328.5,62C 328.986,59.9734 328.986,57.8067 328.5,55.5 Z"/></g>
<g><path style="opacity:0.161" fill="#c0c4c7" d="M 170.5,76.5 C 171.674,77.5137 172.34,78.847 172.5,80.5C 170.896,79.713 170.229,78.3797 170.5,76.5 Z"/></g>
<g><path style="opacity:0.004" fill="#d5dcde" d="M 328.5,80.5 C 328.573,82.0269 327.906,83.0269 326.5,83.5C 326.427,81.9731 327.094,80.9731 328.5,80.5 Z"/></g>
<g><path style="opacity:0.004" fill="#fefffe" d="M 321.5,89.5 C 322.833,90.1667 322.833,90.1667 321.5,89.5 Z"/></g>
<g><path style="opacity:0.022" fill="#e3e6e8" d="M 300.5,93.5 C 267.678,93.5245 234.678,93.5245 201.5,93.5C 201.5,96.1667 201.5,98.8333 201.5,101.5C 234.5,101.5 267.5,101.5 300.5,101.5C 267.338,102.498 234.004,102.832 200.5,102.5C 200.5,99.1667 200.5,95.8333 200.5,92.5C 234.004,92.1684 267.338,92.5017 300.5,93.5 Z"/></g>
<g><path style="opacity:0.007" fill="#fefffe" d="M 300.5,96.5 C 300.5,97.8333 300.5,99.1667 300.5,100.5C 299.448,100.649 298.448,100.483 297.5,100C 298.814,99.015 299.814,97.8484 300.5,96.5 Z"/></g>
<g><path style="opacity:0.795" fill="#83898d" d="M 319.5,89.5 C 320.792,106.451 320.792,123.451 319.5,140.5C 319.167,140.5 318.833,140.5 318.5,140.5C 318.17,123.325 318.503,106.325 319.5,89.5 Z"/></g>
<g><path style="opacity:0.038" fill="#e8f6fa" d="M 300.5,121.5 C 267.5,121.5 234.5,121.5 201.5,121.5C 201.5,128.167 201.5,134.833 201.5,141.5C 200.509,134.687 200.175,127.687 200.5,120.5C 234.004,120.168 267.338,120.502 300.5,121.5 Z"/></g>
<g><path style="opacity:0.055" fill="#bdc2c4" d="M 181.5,137.5 C 182.617,141.295 183.283,145.295 183.5,149.5C 181.864,145.79 181.198,141.79 181.5,137.5 Z"/></g>
<g><path style="opacity:0.565" fill="#b4babf" d="M 201.5,141.5 C 202.738,143.214 203.405,145.214 203.5,147.5C 201.926,145.898 201.259,143.898 201.5,141.5 Z"/></g>
<g><path style="opacity:0.682" fill="#aaafb3" d="M 299.5,140.5 C 299.829,143.228 299.163,145.562 297.5,147.5C 297.41,144.848 298.076,142.515 299.5,140.5 Z"/></g>
<g><path style="opacity:0.784" fill="#999c9f" d="M 297.5,147.5 C 297.88,149.698 297.213,151.365 295.5,152.5C 295.796,150.597 296.463,148.93 297.5,147.5 Z"/></g>
<g><path style="opacity:0.11" fill="#b6bdbf" d="M 318.5,140.5 C 318.833,140.5 319.167,140.5 319.5,140.5C 319.549,145.977 318.216,150.977 315.5,155.5C 316.708,150.542 317.708,145.542 318.5,140.5 Z"/></g>
<g><path style="opacity:0.451" fill="#aaafb1" d="M 183.5,149.5 C 185.074,151.102 185.741,153.102 185.5,155.5C 184.262,153.786 183.595,151.786 183.5,149.5 Z"/></g>
<g><path style="opacity:0.173" fill="#c4c8ca" d="M 206.5,155.5 C 207.906,155.973 208.573,156.973 208.5,158.5C 207.094,158.027 206.427,157.027 206.5,155.5 Z"/></g>
<g><path style="opacity:0.459" fill="#a0a4a8" d="M 209.5,160.5 C 210.906,160.973 211.573,161.973 211.5,163.5C 210.094,163.027 209.427,162.027 209.5,160.5 Z"/></g>
<g><path style="opacity:1" fill="#686b72" d="M 188.5,162.5 C 189.397,163.598 190.23,163.598 191,162.5C 191.494,164.134 191.66,165.801 191.5,167.5C 189.75,166.341 188.75,164.674 188.5,162.5 Z"/></g>
<g><path style="opacity:0.341" fill="#9ea5a7" d="M 291.5,160.5 C 290.92,162.749 289.587,164.415 287.5,165.5C 288.08,163.251 289.413,161.585 291.5,160.5 Z"/></g>
<g><path style="opacity:0.549" fill="#adb3b6" d="M 211.5,163.5 C 214.5,165.833 217.167,168.5 219.5,171.5C 215.833,169.833 213.167,167.167 211.5,163.5 Z"/></g>
<g><path style="opacity:0.208" fill="#bcc0c4" d="M 192.5,169.5 C 193.906,169.973 194.573,170.973 194.5,172.5C 193.094,172.027 192.427,171.027 192.5,169.5 Z"/></g>
<g><path style="opacity:0.165" fill="#c5cacf" d="M 308.5,169.5 C 308.573,171.027 307.906,172.027 306.5,172.5C 306.427,170.973 307.094,169.973 308.5,169.5 Z"/></g>
<g><path style="opacity:1" fill="#596065" d="M 285.5,167.5 C 285.131,169.441 284.464,171.275 283.5,173C 280.94,173.384 278.606,174.217 276.5,175.5C 279.474,172.862 282.474,170.195 285.5,167.5 Z"/></g>
<g><path style="opacity:0.004" fill="#ccd0d2" d="M 221.5,173.5 C 223.027,173.427 224.027,174.094 224.5,175.5C 222.973,175.573 221.973,174.906 221.5,173.5 Z"/></g>
<g><path style="opacity:0.075" fill="#ccd2da" d="M 306.5,172.5 C 307.491,174.123 306.824,175.123 304.5,175.5C 304.427,173.973 305.094,172.973 306.5,172.5 Z"/></g>
<g><path style="opacity:0.604" fill="#a1a7a8" d="M 276.5,175.5 C 276.027,176.906 275.027,177.573 273.5,177.5C 273.973,176.094 274.973,175.427 276.5,175.5 Z"/></g>
<g><path style="opacity:0.027" fill="#cfd2d9" d="M 302.5,177.5 C 302.573,179.027 301.906,180.027 300.5,180.5C 300.427,178.973 301.094,177.973 302.5,177.5 Z"/></g>
<g><path style="opacity:0.408" fill="#a9b2b5" d="M 229.5,178.5 C 230.833,178.833 232.167,179.167 233.5,179.5C 233.5,179.833 233.5,180.167 233.5,180.5C 231.62,180.771 230.287,180.104 229.5,178.5 Z"/></g>
<g><path style="opacity:0.788" fill="#8e9295" d="M 271.5,178.5 C 270.365,180.213 268.698,180.88 266.5,180.5C 267.93,179.463 269.597,178.796 271.5,178.5 Z"/></g>
<g><path style="opacity:0.867" fill="#899093" d="M 266.5,180.5 C 265.01,182.28 263.01,182.946 260.5,182.5C 262.302,181.542 264.302,180.875 266.5,180.5 Z"/></g>
<g><path style="opacity:0.027" fill="#e1e5e7" d="M 236.5,181.5 C 244.466,182.365 252.466,182.698 260.5,182.5C 253.679,183.655 246.679,183.821 239.5,183C 238.263,182.768 237.263,182.268 236.5,181.5 Z"/></g>
<g><path style="opacity:0.741" fill="#abafb2" d="M 204.5,184.5 C 206.749,185.08 208.415,186.413 209.5,188.5C 208.883,188.611 208.383,188.944 208,189.5C 207.003,187.677 205.836,186.01 204.5,184.5 Z"/></g>
<g><path style="opacity:0.992" fill="#6d7379" d="M 300.5,180.5 C 298.167,183.003 296.001,185.669 294,188.5C 293.617,187.944 293.117,187.611 292.5,187.5C 293.506,186.604 293.506,185.938 292.5,185.5C 292.369,184.761 292.536,184.094 293,183.5C 294.84,184.833 295.34,184.666 294.5,183C 295.448,182.517 296.448,182.351 297.5,182.5C 297.402,179.752 298.402,179.086 300.5,180.5 Z"/></g>
<g><path style="opacity:1" fill="#414950" d="M 292.5,185.5 C 293.506,185.938 293.506,186.604 292.5,187.5C 291.5,188.833 290.5,190.167 289.5,191.5C 287.973,191.427 286.973,192.094 286.5,193.5C 285.833,193.5 285.167,193.5 284.5,193.5C 285.791,192.527 285.791,191.527 284.5,190.5C 285.668,187.531 287.001,187.198 288.5,189.5C 288.669,188.603 289.002,187.603 289.5,186.5C 290.417,185.873 291.417,185.539 292.5,185.5 Z"/></g>
<g><path style="opacity:0.804" fill="#878b91" d="M 209.5,188.5 C 211.404,188.738 212.738,189.738 213.5,191.5C 211.596,191.262 210.262,190.262 209.5,188.5 Z"/></g>
<g><path style="opacity:0.004" fill="#fefffe" d="M 292.5,189.5 C 293.833,190.167 293.833,190.167 292.5,189.5 Z"/></g>
<g><path style="opacity:0.009" fill="#fefffe" d="M 289.5,191.5 C 290.773,192.077 290.773,192.743 289.5,193.5C 288.537,193.03 288.537,192.363 289.5,191.5 Z"/></g>
<g><path style="opacity:0.435" fill="#a7a7a9" d="M 213.5,191.5 C 215.027,191.427 216.027,192.094 216.5,193.5C 214.973,193.573 213.973,192.906 213.5,191.5 Z"/></g>
<g><path style="opacity:0.012" fill="#fefffe" d="M 286.5,193.5 C 287.833,194.167 287.833,194.167 286.5,193.5 Z"/></g>
<g><path style="opacity:0.004" fill="#fefffe" d="M 207.5,195.5 C 208.833,196.167 208.833,196.167 207.5,195.5 Z"/></g>
<g><path style="opacity:0.004" fill="#fefffe" d="M 216.5,195.5 C 217.833,196.167 217.833,196.167 216.5,195.5 Z"/></g>
<g><path style="opacity:0.29" fill="#a8adb5" d="M 218.5,194.5 C 220.674,194.75 222.341,195.75 223.5,197.5C 221.326,197.25 219.659,196.25 218.5,194.5 Z"/></g>
<g><path style="opacity:0.243" fill="#c5cacc" d="M 281.5,195.5 C 281.5,195.833 281.5,196.167 281.5,196.5C 279.254,197.455 276.921,198.122 274.5,198.5C 276.426,196.707 278.759,195.707 281.5,195.5 Z"/></g>
<g><path style="opacity:0.008" fill="#fefffe" d="M 282.5,195.5 C 283.833,196.167 283.833,196.167 282.5,195.5 Z"/></g>
<g><path style="opacity:0.698" fill="#9a9ea1" d="M 305.5,197.5 C 302.193,196.949 298.86,196.616 295.5,196.5C 295.866,195.305 296.699,194.639 298,194.5C 300.72,195.233 303.22,196.233 305.5,197.5 Z"/></g>
<g><path style="opacity:0.706" fill="#929599" d="M 207.5,196.5 C 207.5,196.833 207.5,197.167 207.5,197.5C 205.906,197.08 204.406,196.414 203,195.5C 200.361,196.994 197.528,197.661 194.5,197.5C 198.692,194.387 203.026,194.054 207.5,196.5 Z"/></g>
<g><path style="opacity:0.718" fill="#a3a7ab" d="M 193.5,197.5 C 191.898,199.074 189.898,199.741 187.5,199.5C 189.214,198.262 191.214,197.595 193.5,197.5 Z"/></g>
<g><path style="opacity:0.376" fill="#b6bcbf" d="M 306.5,197.5 C 308.553,197.402 310.22,198.069 311.5,199.5C 309.447,199.598 307.78,198.931 306.5,197.5 Z"/></g>
<g><path style="opacity:1" fill="#18222a" d="M 207.5,197.5 C 211.537,200.18 215.537,202.846 219.5,205.5C 219.259,207.898 219.926,209.898 221.5,211.5C 222.634,214.37 223.3,217.37 223.5,220.5C 223.171,223.228 223.837,225.562 225.5,227.5C 226.451,228.919 226.784,230.585 226.5,232.5C 226.41,235.152 227.076,237.485 228.5,239.5C 230.579,244.873 231.912,250.539 232.5,256.5C 233.961,261.787 234.628,261.453 234.5,255.5C 234.5,254.833 234.5,254.167 234.5,253.5C 235.906,253.027 236.573,252.027 236.5,250.5C 237.906,250.027 238.573,249.027 238.5,247.5C 240.749,246.92 242.415,245.587 243.5,243.5C 244.209,242.596 245.209,242.263 246.5,242.5C 247.239,242.631 247.906,242.464 248.5,242C 247.922,240.583 246.922,239.75 245.5,239.5C 245.573,237.973 244.906,236.973 243.5,236.5C 239.788,233.789 236.788,230.456 234.5,226.5C 234.833,225.167 235.167,223.833 235.5,222.5C 236.5,220.833 237.833,219.5 239.5,218.5C 243.147,215.189 246.813,211.855 250.5,208.5C 256.581,213.578 261.915,219.244 266.5,225.5C 264.374,223.148 262.374,223.481 260.5,226.5C 261.309,228.071 261.643,229.738 261.5,231.5C 260.022,231.238 258.689,231.571 257.5,232.5C 257.709,233.086 258.043,233.586 258.5,234C 254.597,234.412 252.93,236.579 253.5,240.5C 252.957,240.56 252.624,240.893 252.5,241.5C 253.325,242.386 254.325,242.719 255.5,242.5C 256.791,242.263 257.791,242.596 258.5,243.5C 260.118,245.785 262.118,247.785 264.5,249.5C 264.635,252.774 265.635,255.774 267.5,258.5C 268.298,258.043 268.631,257.376 268.5,256.5C 268.216,254.585 268.549,252.919 269.5,251.5C 270.768,249.095 271.435,246.428 271.5,243.5C 273.905,238.888 275.238,233.888 275.5,228.5C 277.927,222.466 279.593,216.132 280.5,209.5C 280.5,209.167 280.5,208.833 280.5,208.5C 281.488,207.205 282.488,205.872 283.5,204.5C 285.027,204.573 286.027,203.906 286.5,202.5C 286.842,201.662 287.508,201.328 288.5,201.5C 290.404,201.262 291.738,200.262 292.5,198.5C 294.027,198.573 295.027,197.906 295.5,196.5C 298.86,196.616 302.193,196.949 305.5,197.5C 305.833,197.5 306.167,197.5 306.5,197.5C 307.78,198.931 309.447,199.598 311.5,199.5C 312.791,199.263 313.791,199.596 314.5,200.5C 315.78,201.931 317.447,202.598 319.5,202.5C 321.553,202.402 323.22,203.069 324.5,204.5C 326.426,206.293 328.759,207.293 331.5,207.5C 335.818,208.992 339.818,210.992 343.5,213.5C 343.821,215.048 344.821,215.715 346.5,215.5C 346.973,216.906 347.973,217.573 349.5,217.5C 354.88,219.855 359.546,223.188 363.5,227.5C 363.973,228.906 364.973,229.573 366.5,229.5C 369.215,231.548 371.548,233.882 373.5,236.5C 374.833,238.5 376.5,240.167 378.5,241.5C 379.833,242.167 380.833,243.167 381.5,244.5C 382.08,246.749 383.413,248.415 385.5,249.5C 386.08,251.749 387.413,253.415 389.5,254.5C 389.427,256.027 390.094,257.027 391.5,257.5C 391.738,259.404 392.738,260.738 394.5,261.5C 394.427,263.027 395.094,264.027 396.5,264.5C 399.341,268.849 401.674,273.516 403.5,278.5C 403.697,283.815 405.364,288.482 408.5,292.5C 408.232,294.099 408.566,295.432 409.5,296.5C 409.804,297.15 410.137,297.817 410.5,298.5C 419.606,299.721 422.939,304.721 420.5,313.5C 419.167,313.5 418.5,314.167 418.5,315.5C 416.973,315.427 415.973,316.094 415.5,317.5C 415.167,317.5 414.833,317.5 414.5,317.5C 396.167,317.5 377.833,317.5 359.5,317.5C 359.5,321.833 359.5,326.167 359.5,330.5C 359.829,333.228 359.163,335.562 357.5,337.5C 355.659,339.849 354.326,342.515 353.5,345.5C 352.246,348.093 350.58,350.427 348.5,352.5C 348.167,352.5 347.833,352.5 347.5,352.5C 346.668,378.997 346.168,405.664 346,432.5C 345.433,435.168 344.933,437.834 344.5,440.5C 343.651,443.681 341.985,446.348 339.5,448.5C 339.167,448.5 338.833,448.5 338.5,448.5C 336.164,447.538 334.83,448.538 334.5,451.5C 328.97,453.125 323.303,453.791 317.5,453.5C 316.365,451.787 314.698,451.12 312.5,451.5C 311.738,449.738 310.404,448.738 308.5,448.5C 308.167,447.5 307.5,446.833 306.5,446.5C 305.094,446.027 304.427,445.027 304.5,443.5C 304.573,441.973 303.906,440.973 302.5,440.5C 302.768,438.901 302.434,437.568 301.5,436.5C 302.158,408.48 301.492,380.813 299.5,353.5C 298.738,351.738 297.404,350.738 295.5,350.5C 293.453,348.45 291.786,346.117 290.5,343.5C 290.443,342.391 290.11,341.391 289.5,340.5C 289.44,339.957 289.107,339.624 288.5,339.5C 287.173,357.996 287.173,376.329 288.5,394.5C 288.5,400.833 288.5,407.167 288.5,413.5C 285.316,414.643 281.983,415.309 278.5,415.5C 278.5,414.5 278.5,413.5 278.5,412.5C 280.3,411.395 281.467,412.061 282,414.5C 282.956,413.421 283.789,412.255 284.5,411C 283.262,411.077 282.262,410.911 281.5,410.5C 285.463,406.777 286.463,402.444 284.5,397.5C 284.672,396.508 284.338,395.842 283.5,395.5C 282.699,393.958 282.366,392.292 282.5,390.5C 282.416,387.318 281.083,384.985 278.5,383.5C 278.573,381.973 277.906,380.973 276.5,380.5C 276.167,380.5 275.833,380.5 275.5,380.5C 275.5,379.833 275.167,379.5 274.5,379.5C 274.5,378.833 274.167,378.5 273.5,378.5C 273.5,377.833 273.167,377.5 272.5,377.5C 272.5,377.167 272.5,376.833 272.5,376.5C 272.217,375.711 271.717,375.044 271,374.5C 270.5,348.835 270.333,323.169 270.5,297.5C 270.328,296.508 270.662,295.842 271.5,295.5C 272.833,294.833 273.833,293.833 274.5,292.5C 277.187,292.336 279.854,292.503 282.5,293C 281.346,293.914 281.513,294.747 283,295.5C 283.333,294.833 283.667,294.167 284,293.5C 285.113,294.305 286.279,294.972 287.5,295.5C 288.401,294.71 289.068,293.71 289.5,292.5C 290.906,292.027 291.573,291.027 291.5,289.5C 292.906,289.027 293.573,288.027 293.5,286.5C 295.104,285.713 295.771,284.38 295.5,282.5C 283.322,282.172 271.322,282.505 259.5,283.5C 259.5,284.167 259.5,284.833 259.5,285.5C 258.668,312.664 258.168,339.997 258,367.5C 257.83,361.804 257.33,356.138 256.5,350.5C 255.914,350.709 255.414,351.043 255,351.5C 254.259,354.562 254.425,357.562 255.5,360.5C 252.914,361.48 250.247,361.813 247.5,361.5C 246.955,364.813 246.455,368.146 246,371.5C 245.333,370.167 244.667,368.833 244,367.5C 243.667,368.5 243.333,369.5 243,370.5C 242.832,341.33 242.332,312.33 241.5,283.5C 203.004,282.501 164.337,282.168 125.5,282.5C 125.5,281.5 125.5,280.5 125.5,279.5C 125.328,278.508 125.662,277.842 126.5,277.5C 128.834,275.824 129.834,273.491 129.5,270.5C 130.906,270.027 131.573,269.027 131.5,267.5C 132.41,264.008 134.076,261.008 136.5,258.5C 137.906,258.027 138.573,257.027 138.5,255.5C 138.328,254.508 138.662,253.842 139.5,253.5C 141.262,252.738 142.262,251.404 142.5,249.5C 142.5,249.167 142.5,248.833 142.5,248.5C 144.965,246.824 146.299,244.824 146.5,242.5C 144.379,245.103 142.046,247.436 139.5,249.5C 138.094,249.973 137.427,250.973 137.5,252.5C 134.737,250.184 133.403,251.184 133.5,255.5C 130.752,255.402 130.086,256.402 131.5,258.5C 131.167,258.5 130.833,258.5 130.5,258.5C 128.952,258.821 128.285,259.821 128.5,261.5C 126.058,261.119 125.391,261.786 126.5,263.5C 124.833,264.167 123.167,264.833 121.5,265.5C 122.348,267.409 122.682,269.409 122.5,271.5C 122.672,272.492 122.338,273.158 121.5,273.5C 120.094,273.973 119.427,274.973 119.5,276.5C 119.008,278.819 118.008,280.819 116.5,282.5C 115.662,282.842 115.328,283.508 115.5,284.5C 114.069,285.78 113.402,287.447 113.5,289.5C 113.768,291.099 113.434,292.432 112.5,293.5C 111.662,293.842 111.328,294.508 111.5,295.5C 110.549,296.919 110.216,298.585 110.5,300.5C 120.506,300.666 130.506,300.5 140.5,300C 141.252,299.329 141.586,298.496 141.5,297.5C 142.08,295.251 143.413,293.585 145.5,292.5C 148.5,292.5 151.5,292.5 154.5,292.5C 157.044,293.708 158.378,295.708 158.5,298.5C 158.173,308.681 158.506,318.681 159.5,328.5C 159.932,329.71 160.599,330.71 161.5,331.5C 161.833,332.833 162.167,334.167 162.5,335.5C 163.419,338.089 165.086,340.089 167.5,341.5C 169.404,341.738 170.738,342.738 171.5,344.5C 171.169,374.005 171.502,403.338 172.5,432.5C 172.5,433.167 172.833,433.5 173.5,433.5C 174.167,433.833 174.833,434.167 175.5,434.5C 176.209,435.404 177.209,435.737 178.5,435.5C 180.911,435.863 182.411,434.863 183,432.5C 183.5,403.835 183.667,375.169 183.5,346.5C 186.187,346.664 188.854,346.497 191.5,346C 192.056,345.617 192.389,345.117 192.5,344.5C 194.181,342.992 196.181,341.992 198.5,341.5C 200.749,340.92 202.415,339.587 203.5,337.5C 203.5,336.833 203.833,336.5 204.5,336.5C 205.906,336.027 206.573,335.027 206.5,333.5C 207.906,333.027 208.573,332.027 208.5,330.5C 208.557,329.391 208.89,328.391 209.5,327.5C 210.793,326.158 211.626,324.491 212,322.5C 212.5,313.84 212.666,305.173 212.5,296.5C 212.5,295.833 212.833,295.5 213.5,295.5C 214.833,294.833 215.833,293.833 216.5,292.5C 216.5,292.167 216.5,291.833 216.5,291.5C 218.262,291.643 219.929,291.309 221.5,290.5C 224.523,290.815 226.856,292.148 228.5,294.5C 228.557,295.609 228.89,296.609 229.5,297.5C 229.833,321.176 229.5,344.843 228.5,368.5C 226.216,371.997 225.549,375.664 226.5,379.5C 226.5,379.833 226.5,380.167 226.5,380.5C 226.167,380.5 225.833,380.5 225.5,380.5C 224.527,382.292 225.194,383.625 227.5,384.5C 228.62,388.472 228.62,392.472 227.5,396.5C 226.35,401.316 226.184,406.316 227,411.5C 227.424,414.025 228.59,416.025 230.5,417.5C 231.338,417.842 231.672,418.508 231.5,419.5C 231.738,421.404 232.738,422.738 234.5,423.5C 232.307,427.096 230.974,430.763 230.5,434.5C 233.106,435.652 235.773,435.818 238.5,435C 239.149,432.519 240.149,432.186 241.5,434C 238.79,436.351 239.123,438.351 242.5,440C 242.167,440.333 241.833,440.667 241.5,441C 248.903,443.578 255.903,443.078 262.5,439.5C 262.833,439.833 263.167,440.167 263.5,440.5C 261.43,441.903 259.763,443.57 258.5,445.5C 250.713,445.868 243.046,445.202 235.5,443.5C 234.391,443.443 233.391,443.11 232.5,442.5C 232.5,441.833 232.167,441.5 231.5,441.5C 231.027,440.094 230.027,439.427 228.5,439.5C 227.738,437.738 226.404,436.738 224.5,436.5C 222.833,435.5 221.5,434.167 220.5,432.5C 220.446,430.368 219.446,429.035 217.5,428.5C 216.167,426.5 214.833,424.5 213.5,422.5C 212.962,420.883 212.629,419.216 212.5,417.5C 211.968,411.848 211.635,406.181 211.5,400.5C 212.314,398.369 212.814,396.036 213,393.5C 213.833,376.157 213.666,358.824 212.5,341.5C 211.893,341.624 211.56,341.957 211.5,342.5C 210.662,342.842 210.328,343.508 210.5,344.5C 210.167,345.167 209.833,345.833 209.5,346.5C 209.167,346.5 208.833,346.5 208.5,346.5C 204.949,345.13 203.282,346.464 203.5,350.5C 202.5,350.833 201.833,351.5 201.5,352.5C 201.5,353.167 201.167,353.5 200.5,353.5C 199.801,382.02 199.134,410.687 198.5,439.5C 197.326,440.514 196.66,441.847 196.5,443.5C 195.094,443.973 194.427,444.973 194.5,446.5C 193.5,446.833 192.833,447.5 192.5,448.5C 191.101,449.89 189.434,450.89 187.5,451.5C 185.447,451.402 183.78,452.069 182.5,453.5C 177.738,454.891 173.072,454.558 168.5,452.5C 167.738,450.738 166.404,449.738 164.5,449.5C 163.415,447.413 161.749,446.08 159.5,445.5C 159.167,444.833 158.833,444.167 158.5,443.5C 158.34,441.847 157.674,440.514 156.5,439.5C 155.662,439.158 155.328,438.492 155.5,437.5C 154.549,413.188 154.216,388.855 154.5,364.5C 154.5,364.167 154.5,363.833 154.5,363.5C 155.643,360.024 155.81,356.358 155,352.5C 154.184,351.177 153.017,350.511 151.5,350.5C 151.573,348.973 150.906,347.973 149.5,347.5C 149.167,347.5 148.833,347.5 148.5,347.5C 147.4,346.395 146.733,345.062 146.5,343.5C 145.674,340.515 144.341,337.849 142.5,335.5C 142.737,334.209 142.404,333.209 141.5,332.5C 141.5,332.167 141.5,331.833 141.5,331.5C 141.5,330.833 141.5,330.167 141.5,329.5C 141.817,325.298 141.483,321.298 140.5,317.5C 121.295,316.81 101.961,316.143 82.5,315.5C 81.5,315.167 80.8333,314.5 80.5,313.5C 79.5347,308.317 80.868,303.984 84.5,300.5C 87.3878,301.01 89.7211,300.344 91.5,298.5C 91.3253,296.379 91.6586,294.379 92.5,292.5C 94.2132,291.365 94.8799,289.698 94.5,287.5C 96.6545,285.383 97.6545,282.716 97.5,279.5C 98.766,278.91 100.099,278.41 101.5,278C 100.864,275.606 100.864,273.106 101.5,270.5C 104.515,269.63 105.515,267.964 104.5,265.5C 104.328,264.508 104.662,263.842 105.5,263.5C 106.906,263.027 107.573,262.027 107.5,260.5C 108.906,260.027 109.573,259.027 109.5,257.5C 111.587,256.415 112.92,254.749 113.5,252.5C 115.262,251.738 116.262,250.404 116.5,248.5C 118.914,247.089 120.581,245.089 121.5,242.5C 125.5,239.167 129.167,235.5 132.5,231.5C 135.427,230.243 137.761,228.243 139.5,225.5C 141.404,225.262 142.738,224.262 143.5,222.5C 145.027,222.573 146.027,221.906 146.5,220.5C 148.027,220.573 149.027,219.906 149.5,218.5C 151.027,218.573 152.027,217.906 152.5,216.5C 153.847,215.829 155.014,215.829 156,216.5C 156.513,215.473 157.013,214.473 157.5,213.5C 159.027,213.573 160.027,212.906 160.5,211.5C 164.849,208.659 169.516,206.326 174.5,204.5C 176.698,204.88 178.365,204.213 179.5,202.5C 182.716,202.655 185.383,201.655 187.5,199.5C 189.898,199.741 191.898,199.074 193.5,197.5C 193.833,197.5 194.167,197.5 194.5,197.5C 197.528,197.661 200.361,196.994 203,195.5C 204.406,196.414 205.906,197.08 207.5,197.5 Z M 359.5,249.5 C 361.833,251.5 364.167,253.5 366.5,255.5C 367.167,256.833 368.167,257.833 369.5,258.5C 369.833,259.5 370.5,260.167 371.5,260.5C 371.738,262.404 372.738,263.738 374.5,264.5C 375.026,266.23 376.026,267.564 377.5,268.5C 378.569,270.969 379.902,273.302 381.5,275.5C 381.427,277.027 382.094,278.027 383.5,278.5C 383.796,280.403 384.463,282.07 385.5,283.5C 385.402,285.553 386.069,287.22 387.5,288.5C 387.259,290.898 387.926,292.898 389.5,294.5C 389.5,296.167 389.5,297.833 389.5,299.5C 359.167,299.5 328.833,299.5 298.5,299.5C 298.5,299.167 298.5,298.833 298.5,298.5C 299.167,297.167 299.833,295.833 300.5,294.5C 301.492,291.177 302.492,287.844 303.5,284.5C 304.338,284.158 304.672,283.492 304.5,282.5C 305.906,282.027 306.573,281.027 306.5,279.5C 307.906,279.027 308.573,278.027 308.5,276.5C 309.401,275.71 310.068,274.71 310.5,273.5C 312.833,271.833 314.833,269.833 316.5,267.5C 317.5,267.167 318.167,266.5 318.5,265.5C 320.858,263.471 323.192,261.471 325.5,259.5C 327.027,259.573 328.027,258.906 328.5,257.5C 330.284,257.107 331.95,256.441 333.5,255.5C 333.5,255.167 333.5,254.833 333.5,254.5C 334.496,254.414 335.329,254.748 336,255.5C 336.464,254.906 336.631,254.239 336.5,253.5C 339.443,253.02 342.11,252.02 344.5,250.5C 349.192,249.964 353.858,249.298 358.5,248.5C 359.107,248.624 359.44,248.957 359.5,249.5 Z M 139.5,249.5 C 140.167,249.5 140.833,249.5 141.5,249.5C 141.167,250.5 140.5,251.167 139.5,251.5C 139.5,250.833 139.5,250.167 139.5,249.5 Z M 139.5,251.5 C 139.5,252.167 139.5,252.833 139.5,253.5C 138.662,253.842 138.328,254.508 138.5,255.5C 137.094,255.973 136.427,256.973 136.5,258.5C 134.076,261.008 132.41,264.008 131.5,267.5C 130.094,267.973 129.427,268.973 129.5,270.5C 127.707,272.426 126.707,274.759 126.5,277.5C 125.662,277.842 125.328,278.508 125.5,279.5C 124.609,280.261 123.942,281.261 123.5,282.5C 162.828,283.5 202.161,283.833 241.5,283.5C 241.5,283.833 241.5,284.167 241.5,284.5C 240.127,284.343 238.793,284.51 237.5,285C 238.682,286.768 240.015,286.935 241.5,285.5C 240.857,314.695 240.857,344.028 241.5,373.5C 239.922,375.375 240.255,376.708 242.5,377.5C 242.229,379.38 242.896,380.713 244.5,381.5C 244.5,381.833 244.5,382.167 244.5,382.5C 245.605,383.6 246.938,384.267 248.5,384.5C 248.833,385.167 249.167,385.833 249.5,386.5C 250.167,386.5 250.833,386.5 251.5,386.5C 251.328,387.492 251.662,388.158 252.5,388.5C 252.711,390.424 253.377,390.757 254.5,389.5C 255.167,389.5 255.833,389.5 256.5,389.5C 256.5,389.833 256.5,390.167 256.5,390.5C 257.833,391.5 259.167,392.5 260.5,393.5C 264.445,401.467 264.445,409.467 260.5,417.5C 259.833,417.833 259.167,418.167 258.5,418.5C 257.833,419.833 256.833,420.833 255.5,421.5C 255.5,422.167 255.5,422.833 255.5,423.5C 254.778,423.918 254.278,424.584 254,425.5C 252.334,424.66 252.167,425.16 253.5,427C 252.833,427.333 252.167,427.667 251.5,428C 253.387,428.78 255.054,428.613 256.5,427.5C 257.289,427.783 257.956,428.283 258.5,429C 254.179,429.499 249.846,429.666 245.5,429.5C 244.22,428.069 242.553,427.402 240.5,427.5C 240.027,426.094 239.027,425.427 237.5,425.5C 237.5,424.833 237.167,424.5 236.5,424.5C 236.649,423.448 236.483,422.448 236,421.5C 234.841,422.566 234.008,422.233 233.5,420.5C 232.833,420.167 232.167,419.833 231.5,419.5C 231.672,418.508 231.338,417.842 230.5,417.5C 229.68,415.188 228.847,412.854 228,410.5C 228.351,405.733 228.184,401.066 227.5,396.5C 227.833,396.5 228.167,396.5 228.5,396.5C 228.413,393.402 228.913,393.068 230,395.5C 231.454,393.756 231.621,392.089 230.5,390.5C 230.029,388.421 229.363,386.421 228.5,384.5C 229.833,383.833 229.833,383.167 228.5,382.5C 228.5,381.5 228.5,380.5 228.5,379.5C 230.105,378.994 230.439,378.327 229.5,377.5C 229.833,376.833 230.167,376.167 230.5,375.5C 231.239,375.631 231.906,375.464 232.5,375C 231.915,349.174 231.249,323.341 230.5,297.5C 230.573,295.973 229.906,294.973 228.5,294.5C 226.856,292.148 224.523,290.815 221.5,290.5C 219.929,291.309 218.262,291.643 216.5,291.5C 216.5,291.833 216.5,292.167 216.5,292.5C 214.5,292.5 213.5,293.5 213.5,295.5C 212.833,295.5 212.5,295.833 212.5,296.5C 212.003,306.77 211.003,317.103 209.5,327.5C 208.89,328.391 208.557,329.391 208.5,330.5C 207.094,330.973 206.427,331.973 206.5,333.5C 205.094,333.973 204.427,334.973 204.5,336.5C 203.833,336.5 203.5,336.833 203.5,337.5C 201.251,338.08 199.585,339.413 198.5,341.5C 196.181,341.992 194.181,342.992 192.5,344.5C 189.214,345.207 185.881,345.54 182.5,345.5C 182.667,374.169 182.5,402.835 182,431.5C 181.722,432.416 181.222,433.082 180.5,433.5C 180.44,432.957 180.107,432.624 179.5,432.5C 177.974,432.994 176.641,433.661 175.5,434.5C 174.833,434.167 174.167,433.833 173.5,433.5C 173.286,431.856 173.62,430.356 174.5,429C 173.906,428.536 173.239,428.369 172.5,428.5C 173.339,401.079 173.672,373.913 173.5,347C 172.934,346.005 172.267,345.172 171.5,344.5C 170.738,342.738 169.404,341.738 167.5,341.5C 166.581,338.911 164.914,336.911 162.5,335.5C 162.167,334.167 161.833,332.833 161.5,331.5C 160.599,330.71 159.932,329.71 159.5,328.5C 159.181,318.584 159.514,308.75 160.5,299C 159.906,298.536 159.239,298.369 158.5,298.5C 158.378,295.708 157.044,293.708 154.5,292.5C 155.463,291.637 155.463,290.97 154.5,290.5C 151.36,291.089 148.36,291.756 145.5,292.5C 143.413,293.585 142.08,295.251 141.5,297.5C 140.711,297.783 140.044,298.283 139.5,299C 130.173,299.5 120.839,299.666 111.5,299.5C 111.5,298.167 111.5,296.833 111.5,295.5C 112.158,296.398 112.824,297.398 113.5,298.5C 113.833,298.333 114.167,298.167 114.5,298C 113.733,296.53 113.067,295.03 112.5,293.5C 113.434,292.432 113.768,291.099 113.5,289.5C 113.833,289.5 114.167,289.5 114.5,289.5C 114.328,288.508 114.662,287.842 115.5,287.5C 115.5,286.5 115.5,285.5 115.5,284.5C 117.698,284.591 118.031,283.925 116.5,282.5C 118.008,280.819 119.008,278.819 119.5,276.5C 120.906,276.027 121.573,275.027 121.5,273.5C 122.338,273.158 122.672,272.492 122.5,271.5C 125.313,268.554 127.646,265.221 129.5,261.5C 130.906,261.027 131.573,260.027 131.5,258.5C 133.833,256.833 135.833,254.833 137.5,252.5C 138.167,252.167 138.833,251.833 139.5,251.5 Z M 260.5,283.5 C 271.838,283.333 283.172,283.5 294.5,284C 293.748,284.671 293.414,285.504 293.5,286.5C 292.094,286.973 291.427,287.973 291.5,289.5C 290.094,289.973 289.427,290.973 289.5,292.5C 289.068,293.71 288.401,294.71 287.5,295.5C 285.883,292.394 283.217,290.727 279.5,290.5C 277.664,291.028 275.997,291.694 274.5,292.5C 273.833,292.5 273.167,292.5 272.5,292.5C 271.89,293.391 271.557,294.391 271.5,295.5C 270.662,295.842 270.328,296.508 270.5,297.5C 269.337,323.33 269.17,349.33 270,375.5C 270.671,376.252 271.504,376.586 272.5,376.5C 272.5,376.833 272.5,377.167 272.5,377.5C 271.527,377.987 270.527,378.487 269.5,379C 270.667,379.5 271.5,380.333 272,381.5C 273.209,381.347 274.375,381.014 275.5,380.5C 275.833,380.5 276.167,380.5 276.5,380.5C 276.427,382.027 277.094,383.027 278.5,383.5C 279.11,384.391 279.443,385.391 279.5,386.5C 280.674,387.514 281.34,388.847 281.5,390.5C 281.833,390.5 282.167,390.5 282.5,390.5C 282.366,392.292 282.699,393.958 283.5,395.5C 283.703,397.39 283.037,398.89 281.5,400C 281.653,401.209 281.986,402.375 282.5,403.5C 281.375,404.652 281.375,405.652 282.5,406.5C 280.833,408.5 279.167,410.5 277.5,412.5C 276.833,412.833 276.167,413.167 275.5,413.5C 275.5,412.5 275.5,411.5 275.5,410.5C 276.319,407.695 276.819,404.695 277,401.5C 279.096,400.285 278.929,399.451 276.5,399C 277.378,396.342 277.044,393.842 275.5,391.5C 275.167,388.833 274.833,388.833 274.5,391.5C 274.167,391.5 273.833,391.5 273.5,391.5C 272.82,389.61 272.653,387.61 273,385.5C 272.667,386.167 272.333,386.833 272,387.5C 271.292,386.619 270.458,385.953 269.5,385.5C 268.92,383.251 267.587,381.585 265.5,380.5C 264.5,379.833 263.5,379.167 262.5,378.5C 262.167,377.833 261.833,377.167 261.5,376.5C 262.833,376.167 262.833,375.833 261.5,375.5C 260.796,345.049 260.463,314.382 260.5,283.5 Z M 341.5,328.5 C 339.597,331.979 337.93,335.646 336.5,339.5C 333.369,342.129 330.369,344.962 327.5,348C 328.495,375.426 328.828,402.926 328.5,430.5C 327.5,430.833 326.833,431.5 326.5,432.5C 325.167,432.833 325.167,433.167 326.5,433.5C 325.833,434.167 325.167,434.833 324.5,435.5C 323.833,435.5 323.167,435.5 322.5,435.5C 322.833,432.5 321.5,431.167 318.5,431.5C 320.628,430.719 320.795,429.719 319,428.5C 318.833,424.333 318.667,420.167 318.5,416C 318.378,393.822 318.712,371.655 319.5,349.5C 319.084,347.285 317.75,345.951 315.5,345.5C 314.205,344.512 312.872,343.512 311.5,342.5C 311.262,340.596 310.262,339.262 308.5,338.5C 308.573,336.973 307.906,335.973 306.5,335.5C 306.771,333.62 306.104,332.287 304.5,331.5C 304.324,328.273 303.657,325.273 302.5,322.5C 302.5,321.167 302.5,319.833 302.5,318.5C 315.837,318.333 329.171,318.5 342.5,319C 341.549,322.057 341.216,325.223 341.5,328.5 Z M 284.5,401.5 C 284.768,403.099 284.434,404.432 283.5,405.5C 283.672,404.508 283.338,403.842 282.5,403.5C 282.833,402.5 283.5,401.833 284.5,401.5 Z"/></g>
<g><path style="opacity:0.008" fill="#fefffe" d="M 213.5,199.5 C 212.833,198.167 212.833,198.167 213.5,199.5 Z"/></g>
<g><path style="opacity:0.631" fill="#9a9da1" d="M 295.5,196.5 C 295.027,197.906 294.027,198.573 292.5,198.5C 292.973,197.094 293.973,196.427 295.5,196.5 Z"/></g>
<g><path style="opacity:0.004" fill="#fefffe" d="M 281.5,196.5 C 281.833,196.5 282.167,196.5 282.5,196.5C 282.167,199.167 281.833,199.167 281.5,196.5 Z"/></g>
<g><path style="opacity:0.004" fill="#fefffe" d="M 213.5,199.5 C 214.239,199.369 214.906,199.536 215.5,200C 214.563,200.692 213.897,200.525 213.5,199.5 Z"/></g>
<g><path style="opacity:0.008" fill="#fefffe" d="M 226.5,199.5 C 225.833,200.167 225.833,200.167 226.5,199.5 Z"/></g>
<g><path style="opacity:0.478" fill="#9fa5a8" d="M 292.5,198.5 C 291.738,200.262 290.404,201.262 288.5,201.5C 289.262,199.738 290.596,198.738 292.5,198.5 Z"/></g>
<g><path style="opacity:0.776" fill="#808588" d="M 187.5,199.5 C 185.383,201.655 182.716,202.655 179.5,202.5C 181.89,200.98 184.557,199.98 187.5,199.5 Z"/></g>
<g><path style="opacity:0.008" fill="#fefffe" d="M 268.5,201.5 C 269.833,202.167 269.833,202.167 268.5,201.5 Z"/></g>
<g><path style="opacity:0.443" fill="#a7acaf" d="M 314.5,200.5 C 316.553,200.402 318.22,201.069 319.5,202.5C 317.447,202.598 315.78,201.931 314.5,200.5 Z"/></g>
<g><path style="opacity:0.004" fill="#fefffe" d="M 218.5,202.5 C 219.833,203.167 219.833,203.167 218.5,202.5 Z"/></g>
<g><path style="opacity:0.198" fill="#c7cccf" d="M 268.5,200.5 C 268.5,200.833 268.5,201.167 268.5,201.5C 262.599,202.896 256.599,203.563 250.5,203.5C 245.563,203.7 240.896,203.033 236.5,201.5C 247.218,202.914 257.884,202.58 268.5,200.5 Z"/></g>
<g><path style="opacity:0.863" fill="#848a8e" d="M 179.5,202.5 C 178.365,204.213 176.698,204.88 174.5,204.5C 175.93,203.463 177.597,202.796 179.5,202.5 Z"/></g>
<g><path style="opacity:0.718" fill="#91969a" d="M 286.5,202.5 C 286.027,203.906 285.027,204.573 283.5,204.5C 283.973,203.094 284.973,202.427 286.5,202.5 Z"/></g>
<g><path style="opacity:0.012" fill="#fefffe" d="M 245.5,205.5 C 246.251,204.427 247.251,204.26 248.5,205C 247.552,205.483 246.552,205.649 245.5,205.5 Z"/></g>
<g><path style="opacity:0.271" fill="#b5b8bb" d="M 324.5,204.5 C 327.241,204.707 329.574,205.707 331.5,207.5C 328.759,207.293 326.426,206.293 324.5,204.5 Z"/></g>
<g><path style="opacity:0.055" fill="#cacdd5" d="M 283.5,204.5 C 282.488,205.872 281.488,207.205 280.5,208.5C 280.088,206.027 281.088,204.694 283.5,204.5 Z"/></g>
<g><path style="opacity:0.404" fill="#adb2b6" d="M 266.5,226.5 C 266.5,226.167 266.5,225.833 266.5,225.5C 261.915,219.244 256.581,213.578 250.5,208.5C 246.813,211.855 243.147,215.189 239.5,218.5C 240.415,216.246 241.748,214.246 243.5,212.5C 245.296,211.207 246.963,209.707 248.5,208C 249.833,207.333 251.167,207.333 252.5,208C 257.667,213.167 262.833,218.333 268,223.5C 268.585,224.998 268.085,225.998 266.5,226.5 Z"/></g>
<g><path style="opacity:0.773" fill="#a2aaae" d="M 219.5,205.5 C 220.738,207.214 221.405,209.214 221.5,211.5C 219.926,209.898 219.259,207.898 219.5,205.5 Z"/></g>
<g><path style="opacity:0.004" fill="#fefffe" d="M 243.5,212.5 C 242.833,211.167 242.833,211.167 243.5,212.5 Z"/></g>
<g><path style="opacity:0.667" fill="#969b9d" d="M 160.5,211.5 C 160.027,212.906 159.027,213.573 157.5,213.5C 157.973,212.094 158.973,211.427 160.5,211.5 Z"/></g>
<g><path style="opacity:0.894" fill="#83888d" d="M 343.5,213.5 C 344.71,213.932 345.71,214.599 346.5,215.5C 344.821,215.715 343.821,215.048 343.5,213.5 Z"/></g>
<g><path style="opacity:1" fill="#5f686c" d="M 157.5,213.5 C 157.013,214.473 156.513,215.473 156,216.5C 155.014,215.829 153.847,215.829 152.5,216.5C 153.659,214.75 155.326,213.75 157.5,213.5 Z"/></g>
<g><path style="opacity:0.2" fill="#bec2c5" d="M 346.5,215.5 C 348.027,215.427 349.027,216.094 349.5,217.5C 347.973,217.573 346.973,216.906 346.5,215.5 Z"/></g>
<g><path style="opacity:0.757" fill="#80868a" d="M 152.5,216.5 C 152.027,217.906 151.027,218.573 149.5,218.5C 149.973,217.094 150.973,216.427 152.5,216.5 Z"/></g>
<g><path style="opacity:0.769" fill="#84888c" d="M 149.5,218.5 C 149.027,219.906 148.027,220.573 146.5,220.5C 146.973,219.094 147.973,218.427 149.5,218.5 Z"/></g>
<g><path style="opacity:0.659" fill="#92979a" d="M 146.5,220.5 C 146.027,221.906 145.027,222.573 143.5,222.5C 143.973,221.094 144.973,220.427 146.5,220.5 Z"/></g>
<g><path style="opacity:0.018" fill="#fefffe" d="M 225.5,221.5 C 226.525,221.897 226.692,222.563 226,223.5C 225.536,222.906 225.369,222.239 225.5,221.5 Z"/></g>
<g><path style="opacity:0.384" fill="#9fa5a8" d="M 280.5,209.5 C 279.593,216.132 277.927,222.466 275.5,228.5C 276.183,221.805 277.849,215.472 280.5,209.5 Z"/></g>
<g><path style="opacity:0.541" fill="#9ea7ac" d="M 143.5,222.5 C 142.738,224.262 141.404,225.262 139.5,225.5C 140.262,223.738 141.596,222.738 143.5,222.5 Z"/></g>
<g><path style="opacity:0.706" fill="#9ca2a6" d="M 223.5,220.5 C 224.612,222.599 225.279,224.933 225.5,227.5C 223.837,225.562 223.171,223.228 223.5,220.5 Z"/></g>
<g><path style="opacity:0.004" fill="#fefffe" d="M 226.5,224.5 C 227.833,225.167 227.833,225.167 226.5,224.5 Z"/></g>
<g><path style="opacity:0.482" fill="#9ea2a5" d="M 235.5,222.5 C 235.167,223.833 234.833,225.167 234.5,226.5C 233.147,224.872 233.481,223.538 235.5,222.5 Z"/></g>
<g><path style="opacity:0.004" fill="#fefffe" d="M 266.5,227.5 C 267.833,228.167 267.833,228.167 266.5,227.5 Z"/></g>
<g><path style="opacity:0.012" fill="#d2d4d6" d="M 363.5,227.5 C 365.027,227.427 366.027,228.094 366.5,229.5C 364.973,229.573 363.973,228.906 363.5,227.5 Z"/></g>
<g><path style="opacity:0.729" fill="#83888c" d="M 139.5,225.5 C 137.761,228.243 135.427,230.243 132.5,231.5C 134.239,228.757 136.573,226.757 139.5,225.5 Z"/></g>
<g><path style="opacity:1" fill="#414b51" d="M 266.5,225.5 C 266.5,225.833 266.5,226.167 266.5,226.5C 266.5,226.833 266.5,227.167 266.5,227.5C 262.527,232.14 258.194,236.473 253.5,240.5C 252.93,236.579 254.597,234.412 258.5,234C 258.043,233.586 257.709,233.086 257.5,232.5C 258.689,231.571 260.022,231.238 261.5,231.5C 261.643,229.738 261.309,228.071 260.5,226.5C 262.374,223.481 264.374,223.148 266.5,225.5 Z"/></g>
<g><path style="opacity:0.918" fill="#8d9496" d="M 275.5,228.5 C 275.238,233.888 273.905,238.888 271.5,243.5C 272.076,238.191 273.409,233.191 275.5,228.5 Z"/></g>
<g><path style="opacity:0.004" fill="#fefffe" d="M 228.5,234.5 C 229.833,235.167 229.833,235.167 228.5,234.5 Z"/></g>
<g><path style="opacity:0.004" fill="#c7cacc" d="M 373.5,236.5 C 376.167,237.167 377.833,238.833 378.5,241.5C 376.5,240.167 374.833,238.5 373.5,236.5 Z"/></g>
<g><path style="opacity:0.035" fill="#b4c4c5" d="M 243.5,236.5 C 244.906,236.973 245.573,237.973 245.5,239.5C 244.833,239.167 244.167,238.833 243.5,238.5C 243.5,237.833 243.5,237.167 243.5,236.5 Z"/></g>
<g><path style="opacity:0.506" fill="#b1b6b8" d="M 132.5,231.5 C 129.167,235.5 125.5,239.167 121.5,242.5C 124.167,237.833 127.833,234.167 132.5,231.5 Z"/></g>
<g><path style="opacity:0.455" fill="#a8adb0" d="M 226.5,232.5 C 227.167,233.5 227.833,234.5 228.5,235.5C 228.5,236.833 228.5,238.167 228.5,239.5C 227.076,237.485 226.41,235.152 226.5,232.5 Z"/></g>
<g><path style="opacity:0.004" fill="#fefffe" d="M 243.5,238.5 C 242.833,239.167 242.833,239.167 243.5,238.5 Z"/></g>
<g><path style="opacity:0.006" fill="#fefffe" d="M 245.5,240.5 C 245.103,241.525 244.437,241.692 243.5,241C 244.094,240.536 244.761,240.369 245.5,240.5 Z"/></g>
<g><path style="opacity:0.055" fill="#abb1b9" d="M 245.5,240.5 C 245.5,240.167 245.5,239.833 245.5,239.5C 246.922,239.75 247.922,240.583 248.5,242C 247.906,242.464 247.239,242.631 246.5,242.5C 246.672,241.508 246.338,240.842 245.5,240.5 Z"/></g>
<g><path style="opacity:0.318" fill="#c3c6cd" d="M 253.5,240.5 C 254.167,241.167 254.833,241.833 255.5,242.5C 254.325,242.719 253.325,242.386 252.5,241.5C 252.624,240.893 252.957,240.56 253.5,240.5 Z"/></g>
<g><path style="opacity:0.671" fill="#92969a" d="M 121.5,242.5 C 120.581,245.089 118.914,247.089 116.5,248.5C 117.419,245.911 119.086,243.911 121.5,242.5 Z"/></g>
<g><path style="opacity:0.51" fill="#acb4b6" d="M 258.5,243.5 C 261.522,244.522 263.522,246.522 264.5,249.5C 262.118,247.785 260.118,245.785 258.5,243.5 Z"/></g>
<g><path style="opacity:0.776" fill="#9b9fa3" d="M 381.5,244.5 C 383.587,245.585 384.92,247.251 385.5,249.5C 383.413,248.415 382.08,246.749 381.5,244.5 Z"/></g>
<g><path style="opacity:0.278" fill="#afbac1" d="M 142.5,248.5 C 141.833,248.5 141.5,248.833 141.5,249.5C 140.833,249.5 140.167,249.5 139.5,249.5C 142.046,247.436 144.379,245.103 146.5,242.5C 146.299,244.824 144.965,246.824 142.5,248.5 Z"/></g>
<g><path style="opacity:0.914" fill="#6c7174" d="M 243.5,243.5 C 242.415,245.587 240.749,246.92 238.5,247.5C 239.585,245.413 241.251,244.08 243.5,243.5 Z"/></g>
<g><path style="opacity:0.843" fill="#7e8288" d="M 116.5,248.5 C 116.262,250.404 115.262,251.738 113.5,252.5C 113.738,250.596 114.738,249.262 116.5,248.5 Z"/></g>
<g><path style="opacity:0.557" fill="#828b8e" d="M 238.5,247.5 C 238.573,249.027 237.906,250.027 236.5,250.5C 236.427,248.973 237.094,247.973 238.5,247.5 Z"/></g>
<g><path style="opacity:0.247" fill="#bebfc4" d="M 271.5,243.5 C 271.435,246.428 270.768,249.095 269.5,251.5C 269.294,248.505 269.96,245.838 271.5,243.5 Z"/></g>
<g><path style="opacity:0.043" fill="#c0c3ce" d="M 139.5,249.5 C 139.5,250.167 139.5,250.833 139.5,251.5C 138.833,251.833 138.167,252.167 137.5,252.5C 137.427,250.973 138.094,249.973 139.5,249.5 Z"/></g>
<g><path style="opacity:0.875" fill="#868d93" d="M 385.5,249.5 C 387.587,250.585 388.92,252.251 389.5,254.5C 387.413,253.415 386.08,251.749 385.5,249.5 Z"/></g>
<g><path style="opacity:0.569" fill="#969ea3" d="M 141.5,249.5 C 141.833,249.5 142.167,249.5 142.5,249.5C 142.262,251.404 141.262,252.738 139.5,253.5C 139.5,252.833 139.5,252.167 139.5,251.5C 140.5,251.167 141.167,250.5 141.5,249.5 Z"/></g>
<g><path style="opacity:0.267" fill="#bec7c9" d="M 344.5,250.5 C 342.11,252.02 339.443,253.02 336.5,253.5C 338.684,251.415 341.351,250.415 344.5,250.5 Z"/></g>
<g><path style="opacity:1" fill="#494f56" d="M 137.5,252.5 C 135.833,254.833 133.833,256.833 131.5,258.5C 130.086,256.402 130.752,255.402 133.5,255.5C 133.403,251.184 134.737,250.184 137.5,252.5 Z"/></g>
<g><path style="opacity:0.2" fill="#b8bdc0" d="M 236.5,250.5 C 236.573,252.027 235.906,253.027 234.5,253.5C 234.427,251.973 235.094,250.973 236.5,250.5 Z"/></g>
<g><path style="opacity:0.678" fill="#8d9299" d="M 113.5,252.5 C 112.92,254.749 111.587,256.415 109.5,257.5C 110.08,255.251 111.413,253.585 113.5,252.5 Z"/></g>
<g><path style="opacity:0.788" fill="#747d81" d="M 264.5,249.5 C 265.833,251.833 267.167,254.167 268.5,256.5C 268.631,257.376 268.298,258.043 267.5,258.5C 265.635,255.774 264.635,252.774 264.5,249.5 Z"/></g>
<g><path style="opacity:0.004" fill="#d7dbe1" d="M 333.5,254.5 C 334.209,253.596 335.209,253.263 336.5,253.5C 336.631,254.239 336.464,254.906 336,255.5C 335.329,254.748 334.496,254.414 333.5,254.5 Z"/></g>
<g><path style="opacity:0.78" fill="#8b9294" d="M 366.5,255.5 C 368.5,255.5 369.5,256.5 369.5,258.5C 368.167,257.833 367.167,256.833 366.5,255.5 Z"/></g>
<g><path style="opacity:0.537" fill="#889195" d="M 389.5,254.5 C 390.906,254.973 391.573,255.973 391.5,257.5C 390.094,257.027 389.427,256.027 389.5,254.5 Z"/></g>
<g><path style="opacity:0.42" fill="#a0a3a6" d="M 138.5,255.5 C 138.573,257.027 137.906,258.027 136.5,258.5C 136.427,256.973 137.094,255.973 138.5,255.5 Z"/></g>
<g><path style="opacity:0.341" fill="#b1bac0" d="M 234.5,255.5 C 234.628,261.453 233.961,261.787 232.5,256.5C 233.167,256.167 233.833,255.833 234.5,255.5 Z"/></g>
<g><path style="opacity:0.031" fill="#cadadd" d="M 328.5,257.5 C 328.027,258.906 327.027,259.573 325.5,259.5C 325.973,258.094 326.973,257.427 328.5,257.5 Z"/></g>
<g><path style="opacity:0.416" fill="#a7abb0" d="M 109.5,257.5 C 109.573,259.027 108.906,260.027 107.5,260.5C 107.427,258.973 108.094,257.973 109.5,257.5 Z"/></g>
<g><path style="opacity:0.031" fill="#c6cccd" d="M 130.5,258.5 C 130.833,258.5 131.167,258.5 131.5,258.5C 131.573,260.027 130.906,261.027 129.5,261.5C 129.557,260.391 129.89,259.391 130.5,258.5 Z"/></g>
<g><path style="opacity:0.576" fill="#969ba1" d="M 391.5,257.5 C 393.262,258.262 394.262,259.596 394.5,261.5C 392.738,260.738 391.738,259.404 391.5,257.5 Z"/></g>
<g><path style="opacity:0.004" fill="#c9cdcf" d="M 371.5,260.5 C 373.262,261.262 374.262,262.596 374.5,264.5C 372.738,263.738 371.738,262.404 371.5,260.5 Z"/></g>
<g><path style="opacity:0.294" fill="#b9bec0" d="M 107.5,260.5 C 107.573,262.027 106.906,263.027 105.5,263.5C 105.427,261.973 106.094,260.973 107.5,260.5 Z"/></g>
<g><path style="opacity:0.137" fill="#d2d6d9" d="M 394.5,261.5 C 395.906,261.973 396.573,262.973 396.5,264.5C 395.094,264.027 394.427,263.027 394.5,261.5 Z"/></g>
<g><path style="opacity:1" fill="#53595f" d="M 130.5,258.5 C 129.89,259.391 129.557,260.391 129.5,261.5C 127.646,265.221 125.313,268.554 122.5,271.5C 122.682,269.409 122.348,267.409 121.5,265.5C 123.167,264.833 124.833,264.167 126.5,263.5C 125.391,261.786 126.058,261.119 128.5,261.5C 128.285,259.821 128.952,258.821 130.5,258.5 Z"/></g>
<g><path style="opacity:1" fill="#5b6367" d="M 318.5,265.5 C 318.167,266.5 317.5,267.167 316.5,267.5C 316.167,267.5 315.833,267.5 315.5,267.5C 314.235,264.437 315.235,263.77 318.5,265.5 Z"/></g>
<g><path style="opacity:0.545" fill="#9ea2a6" d="M 374.5,264.5 C 376.446,265.035 377.446,266.368 377.5,268.5C 376.026,267.564 375.026,266.23 374.5,264.5 Z"/></g>
<g><path style="opacity:1" fill="#656e72" d="M 104.5,265.5 C 105.515,267.964 104.515,269.63 101.5,270.5C 102.11,268.566 103.11,266.899 104.5,265.5 Z"/></g>
<g><path style="opacity:0.008" fill="#d3d7d8" d="M 315.5,267.5 C 315.833,267.5 316.167,267.5 316.5,267.5C 314.833,269.833 312.833,271.833 310.5,273.5C 311.419,270.911 313.086,268.911 315.5,267.5 Z"/></g>
<g><path style="opacity:0.286" fill="#b0b6b7" d="M 131.5,267.5 C 131.573,269.027 130.906,270.027 129.5,270.5C 129.427,268.973 130.094,267.973 131.5,267.5 Z"/></g>
<g><path style="opacity:0.235" fill="#e0e3e5" d="M 99.5,274.5 C 99.6716,275.492 99.3382,276.158 98.5,276.5C 97.5613,275.673 97.8946,275.006 99.5,274.5 Z"/></g>
<g><path style="opacity:0.122" fill="#c5ccd1" d="M 121.5,273.5 C 121.573,275.027 120.906,276.027 119.5,276.5C 119.427,274.973 120.094,273.973 121.5,273.5 Z"/></g>
<g><path style="opacity:0.969" fill="#696f73" d="M 129.5,270.5 C 129.834,273.491 128.834,275.824 126.5,277.5C 126.707,274.759 127.707,272.426 129.5,270.5 Z"/></g>
<g><path style="opacity:1" fill="#4b5157" d="M 101.5,270.5 C 100.864,273.106 100.864,275.606 101.5,278C 100.099,278.41 98.766,278.91 97.5,279.5C 97.5569,278.391 97.8902,277.391 98.5,276.5C 99.3382,276.158 99.6716,275.492 99.5,274.5C 99.6596,272.847 100.326,271.514 101.5,270.5 Z"/></g>
<g><path style="opacity:0.176" fill="#c6c9ca" d="M 381.5,275.5 C 382.906,275.973 383.573,276.973 383.5,278.5C 382.094,278.027 381.427,277.027 381.5,275.5 Z"/></g>
<g><path style="opacity:0.059" fill="#dbdfe7" d="M 308.5,276.5 C 308.573,278.027 307.906,279.027 306.5,279.5C 306.427,277.973 307.094,276.973 308.5,276.5 Z"/></g>
<g><path style="opacity:0.094" fill="#c8cad0" d="M 306.5,279.5 C 306.573,281.027 305.906,282.027 304.5,282.5C 304.427,280.973 305.094,279.973 306.5,279.5 Z"/></g>
<g><path style="opacity:0.595" fill="#787e82" d="M 125.5,279.5 C 125.5,280.5 125.5,281.5 125.5,282.5C 164.337,282.168 203.004,282.501 241.5,283.5C 202.161,283.833 162.828,283.5 123.5,282.5C 123.942,281.261 124.609,280.261 125.5,279.5 Z"/></g>
<g><path style="opacity:0.6" fill="#73787c" d="M 259.5,283.5 C 271.322,282.505 283.322,282.172 295.5,282.5C 295.771,284.38 295.104,285.713 293.5,286.5C 293.414,285.504 293.748,284.671 294.5,284C 283.172,283.5 271.838,283.333 260.5,283.5C 260.167,283.5 259.833,283.5 259.5,283.5 Z"/></g>
<g><path style="opacity:0.114" fill="#d3d9de" d="M 116.5,282.5 C 118.031,283.925 117.698,284.591 115.5,284.5C 115.328,283.508 115.662,282.842 116.5,282.5 Z"/></g>
<g><path style="opacity:0.011" fill="#fefffe" d="M 142.5,285.5 C 144.364,284.207 146.364,284.207 148.5,285.5C 146.78,285.746 144.78,285.746 142.5,285.5 Z"/></g>
<g><path style="opacity:0.004" fill="#fefffe" d="M 149.5,285.5 C 150.077,284.227 150.743,284.227 151.5,285.5C 151.03,286.463 150.363,286.463 149.5,285.5 Z"/></g>
<g><path style="opacity:0.012" fill="#fefffe" d="M 215.5,285.5 C 217.288,284.378 219.288,284.211 221.5,285C 219.45,286.332 217.45,286.498 215.5,285.5 Z"/></g>
<g><path style="opacity:0.014" fill="#fefffe" d="M 241.5,284.5 C 241.5,284.833 241.5,285.167 241.5,285.5C 240.015,286.935 238.682,286.768 237.5,285C 238.793,284.51 240.127,284.343 241.5,284.5 Z"/></g>
<g><path style="opacity:0.015" fill="#fefffe" d="M 261.5,284.5 C 266.021,284.326 266.355,284.993 262.5,286.5C 261.702,286.043 261.369,285.376 261.5,284.5 Z"/></g>
<g><path style="opacity:0.898" fill="#6f747b" d="M 97.5,279.5 C 97.6545,282.716 96.6545,285.383 94.5,287.5C 94.9802,284.557 95.9802,281.89 97.5,279.5 Z"/></g>
<g><path style="opacity:0.294" fill="#bdc1c5" d="M 385.5,283.5 C 386.931,284.78 387.598,286.447 387.5,288.5C 386.069,287.22 385.402,285.553 385.5,283.5 Z"/></g>
<g><path style="opacity:0.345" fill="#aab1b6" d="M 115.5,284.5 C 115.5,285.5 115.5,286.5 115.5,287.5C 114.662,287.842 114.328,288.508 114.5,289.5C 114.167,289.5 113.833,289.5 113.5,289.5C 113.402,287.447 114.069,285.78 115.5,284.5 Z"/></g>
<g><path style="opacity:0.463" fill="#99a0a5" d="M 293.5,286.5 C 293.573,288.027 292.906,289.027 291.5,289.5C 291.427,287.973 292.094,286.973 293.5,286.5 Z"/></g>
<g><path style="opacity:0.231" fill="#b0b5ba" d="M 303.5,284.5 C 302.492,287.844 301.492,291.177 300.5,294.5C 299.833,295.833 299.167,297.167 298.5,298.5C 298.61,293.164 300.276,288.497 303.5,284.5 Z"/></g>
<g><path style="opacity:0.941" fill="#797f82" d="M 403.5,278.5 C 405.935,282.799 407.602,287.466 408.5,292.5C 405.364,288.482 403.697,283.815 403.5,278.5 Z"/></g>
<g><path style="opacity:0.133" fill="#c6c8cc" d="M 94.5,287.5 C 94.8799,289.698 94.2132,291.365 92.5,292.5C 92.0618,292.565 91.7284,292.399 91.5,292C 92.3994,290.348 93.3994,288.848 94.5,287.5 Z"/></g>
<g><path style="opacity:0.757" fill="#85888c" d="M 154.5,292.5 C 151.5,292.5 148.5,292.5 145.5,292.5C 148.36,291.756 151.36,291.089 154.5,290.5C 155.463,290.97 155.463,291.637 154.5,292.5 Z"/></g>
<g><path style="opacity:0.239" fill="#b9c0c2" d="M 291.5,289.5 C 291.573,291.027 290.906,292.027 289.5,292.5C 289.427,290.973 290.094,289.973 291.5,289.5 Z"/></g>
<g><path style="opacity:0.306" fill="#c4c9cb" d="M 170.5,292.5 C 170.167,293.5 169.5,294.167 168.5,294.5C 168.5,293.167 169.167,292.5 170.5,292.5 Z"/></g>
<g><path style="opacity:1" fill="#5c6366" d="M 287.5,295.5 C 286.279,294.972 285.113,294.305 284,293.5C 283.667,294.167 283.333,294.833 283,295.5C 281.513,294.747 281.346,293.914 282.5,293C 279.854,292.503 277.187,292.336 274.5,292.5C 275.997,291.694 277.664,291.028 279.5,290.5C 283.217,290.727 285.883,292.394 287.5,295.5 Z"/></g>
<g><path style="opacity:0.013" fill="#f3f5f5" d="M 112.5,293.5 C 113.067,295.03 113.733,296.53 114.5,298C 114.167,298.167 113.833,298.333 113.5,298.5C 112.824,297.398 112.158,296.398 111.5,295.5C 111.328,294.508 111.662,293.842 112.5,293.5 Z"/></g>
<g><path style="opacity:0.565" fill="#9da2a5" d="M 216.5,292.5 C 215.833,293.833 214.833,294.833 213.5,295.5C 213.5,293.5 214.5,292.5 216.5,292.5 Z"/></g>
<g><path style="opacity:0.463" fill="#a1a8ab" d="M 272.5,292.5 C 273.167,292.5 273.833,292.5 274.5,292.5C 273.833,293.833 272.833,294.833 271.5,295.5C 271.557,294.391 271.89,293.391 272.5,292.5 Z"/></g>
<g><path style="opacity:0.007" fill="#fefffe" d="M 90.5,298.5 C 88.3544,298.304 88.1878,297.304 90,295.5C 90.4828,296.448 90.6495,297.448 90.5,298.5 Z"/></g>
<g><path style="opacity:0.549" fill="#afb4b6" d="M 408.5,292.5 C 409.239,292.369 409.906,292.536 410.5,293C 409.663,294.011 409.33,295.178 409.5,296.5C 408.566,295.432 408.232,294.099 408.5,292.5 Z"/></g>
<g><path style="opacity:0.18" fill="#c1c7c9" d="M 228.5,294.5 C 229.906,294.973 230.573,295.973 230.5,297.5C 230.167,297.5 229.833,297.5 229.5,297.5C 228.89,296.609 228.557,295.609 228.5,294.5 Z"/></g>
<g><path style="opacity:0.01" fill="#fefffe" d="M 387.5,296.5 C 388.773,297.077 388.773,297.743 387.5,298.5C 386.537,298.03 386.537,297.363 387.5,296.5 Z"/></g>
<g><path style="opacity:0.016" fill="#fefffe" d="M 411.5,297.5 C 412.833,298.167 412.833,298.167 411.5,297.5 Z"/></g>
<g><path style="opacity:0.576" fill="#9ea5ab" d="M 90.5,298.5 C 90.8333,298.5 91.1667,298.5 91.5,298.5C 89.7211,300.344 87.3878,301.01 84.5,300.5C 86.5,299.833 88.5,299.167 90.5,298.5 Z"/></g>
<g><path style="opacity:0.345" fill="#a0a7ab" d="M 111.5,295.5 C 111.5,296.833 111.5,298.167 111.5,299.5C 120.839,299.666 130.173,299.5 139.5,299C 140.044,298.283 140.711,297.783 141.5,297.5C 141.586,298.496 141.252,299.329 140.5,300C 130.506,300.5 120.506,300.666 110.5,300.5C 110.216,298.585 110.549,296.919 111.5,295.5 Z"/></g>
<g><path style="opacity:0.345" fill="#a3a9ad" d="M 389.5,294.5 C 390.461,296.265 390.795,298.265 390.5,300.5C 359.662,300.831 328.995,300.498 298.5,299.5C 328.833,299.5 359.167,299.5 389.5,299.5C 389.5,297.833 389.5,296.167 389.5,294.5 Z"/></g>
<g><path style="opacity:1" fill="#1f262e" d="M 170.5,292.5 C 173.86,291.79 175.693,293.124 176,296.5C 177,296.167 178,295.833 179,295.5C 179.667,302.833 179.667,310.167 179,317.5C 178.667,317.167 178.333,316.833 178,316.5C 177.517,317.448 177.351,318.448 177.5,319.5C 175.738,319.357 174.071,319.691 172.5,320.5C 171.378,319.37 170.044,318.703 168.5,318.5C 168.167,318.5 167.833,318.5 167.5,318.5C 167.174,310.316 167.508,302.316 168.5,294.5C 169.5,294.167 170.167,293.5 170.5,292.5 Z"/></g>
<g><path style="opacity:0.768" fill="#6e7377" d="M 170.5,292.5 C 175.212,290.355 178.712,291.689 181,296.5C 181.667,303.167 181.667,309.833 181,316.5C 180.338,317.984 179.504,319.317 178.5,320.5C 175.991,321.113 173.491,321.78 171,322.5C 170.338,321.016 169.504,319.683 168.5,318.5C 170.044,318.703 171.378,319.37 172.5,320.5C 174.071,319.691 175.738,319.357 177.5,319.5C 177.351,318.448 177.517,317.448 178,316.5C 178.333,316.833 178.667,317.167 179,317.5C 179.667,310.167 179.667,302.833 179,295.5C 178,295.833 177,296.167 176,296.5C 175.693,293.124 173.86,291.79 170.5,292.5 Z"/></g>
<g><path style="opacity:1" fill="#282f36" d="M 200.5,292.5 C 201.442,301.113 201.775,309.779 201.5,318.5C 200.5,318.833 199.833,319.5 199.5,320.5C 197.735,321.461 195.735,321.795 193.5,321.5C 193.5,321.167 193.5,320.833 193.5,320.5C 193.167,319.5 192.5,318.833 191.5,318.5C 190.778,318.082 190.278,317.416 190,316.5C 189.333,309.167 189.333,301.833 190,294.5C 193.107,291.427 196.607,290.761 200.5,292.5 Z"/></g>
<g><path style="opacity:0.687" fill="#919599" d="M 200.5,292.5 C 201.79,293.058 202.623,294.058 203,295.5C 203.667,302.833 203.667,310.167 203,317.5C 202.617,318.056 202.117,318.389 201.5,318.5C 201.775,309.779 201.442,301.113 200.5,292.5 Z"/></g>
<g><path style="opacity:0.761" fill="#94999d" d="M 84.5,300.5 C 80.868,303.984 79.5347,308.317 80.5,313.5C 79.8333,312.5 79.1667,311.5 78.5,310.5C 78.1875,305.605 80.1875,302.271 84.5,300.5 Z"/></g>
<g><path style="opacity:0.004" fill="#fefffe" d="M 78.5,310.5 C 77.8333,311.167 77.8333,311.167 78.5,310.5 Z"/></g>
<g><path style="opacity:0.345" fill="#a9acb0" d="M 212.5,296.5 C 212.666,305.173 212.5,313.84 212,322.5C 211.626,324.491 210.793,326.158 209.5,327.5C 211.003,317.103 212.003,306.77 212.5,296.5 Z"/></g>
<g><path style="opacity:0.067" fill="#cccdd6" d="M 420.5,313.5 C 420.167,314.5 419.5,315.167 418.5,315.5C 418.5,314.167 419.167,313.5 420.5,313.5 Z"/></g>
<g><path style="opacity:0.082" fill="#e2e6e8" d="M 158.5,298.5 C 159.239,298.369 159.906,298.536 160.5,299C 159.514,308.75 159.181,318.584 159.5,328.5C 158.506,318.681 158.173,308.681 158.5,298.5 Z"/></g>
<g><path style="opacity:0.856" fill="#373e44" d="M 82.5,315.5 C 101.961,316.143 121.295,316.81 140.5,317.5C 122.167,317.5 103.833,317.5 85.5,317.5C 83.9731,317.573 82.9731,316.906 82.5,315.5 Z"/></g>
<g><path style="opacity:0.008" fill="#d7dada" d="M 418.5,315.5 C 418.027,316.906 417.027,317.573 415.5,317.5C 415.973,316.094 416.973,315.427 418.5,315.5 Z"/></g>
<g><path style="opacity:0.257" fill="#b7bcc1" d="M 341.5,328.5 C 341.216,325.223 341.549,322.057 342.5,319C 329.171,318.5 315.837,318.333 302.5,318.5C 302.5,319.833 302.5,321.167 302.5,322.5C 301.549,321.081 301.216,319.415 301.5,317.5C 315.5,317.5 329.5,317.5 343.5,317.5C 343.57,321.425 342.903,325.091 341.5,328.5 Z"/></g>
<g><path style="opacity:0.208" fill="#c0c5c9" d="M 414.5,317.5 C 396.674,318.497 378.674,318.83 360.5,318.5C 360.817,322.702 360.483,326.702 359.5,330.5C 359.5,326.167 359.5,321.833 359.5,317.5C 377.833,317.5 396.167,317.5 414.5,317.5 Z"/></g>
<g><path style="opacity:0.012" fill="#fefffe" d="M 137.5,320.5 C 137.897,319.475 138.563,319.308 139.5,320C 138.906,320.464 138.239,320.631 137.5,320.5 Z"/></g>
<g><path style="opacity:0.675" fill="#92999d" d="M 85.5,317.5 C 103.833,317.5 122.167,317.5 140.5,317.5C 141.483,321.298 141.817,325.298 141.5,329.5C 141.167,329.5 140.833,329.5 140.5,329.5C 140.5,325.833 140.5,322.167 140.5,318.5C 121.992,318.83 103.659,318.497 85.5,317.5 Z"/></g>
<g><path style="opacity:0.035" fill="#afb2c1" d="M 191.5,318.5 C 192.5,318.833 193.167,319.5 193.5,320.5C 192.167,320.5 191.5,319.833 191.5,318.5 Z"/></g>
<g><path style="opacity:0.02" fill="#c9cccd" d="M 201.5,318.5 C 201.5,319.833 200.833,320.5 199.5,320.5C 199.833,319.5 200.5,318.833 201.5,318.5 Z"/></g>
<g><path style="opacity:0.014" fill="#fefffe" d="M 361.5,319.5 C 362.525,319.897 362.692,320.563 362,321.5C 361.536,320.906 361.369,320.239 361.5,319.5 Z"/></g>
<g><path style="opacity:0.004" fill="#fefffe" d="M 361.5,322.5 C 362.833,323.167 362.833,323.167 361.5,322.5 Z"/></g>
<g><path style="opacity:0.009" fill="#f4f5f6" d="M 140.5,329.5 C 140.833,329.5 141.167,329.5 141.5,329.5C 141.5,330.167 141.5,330.833 141.5,331.5C 139.323,332.504 138.989,331.838 140.5,329.5 Z"/></g>
<g><path style="opacity:0.361" fill="#adb0b4" d="M 208.5,330.5 C 208.573,332.027 207.906,333.027 206.5,333.5C 206.427,331.973 207.094,330.973 208.5,330.5 Z"/></g>
<g><path style="opacity:0.235" fill="#cccfd5" d="M 141.5,332.5 C 142.404,333.209 142.737,334.209 142.5,335.5C 140.519,334.895 140.185,333.895 141.5,332.5 Z"/></g>
<g><path style="opacity:0.071" fill="#e1e8ec" d="M 259.5,283.5 C 259.833,283.5 260.167,283.5 260.5,283.5C 260.463,314.382 260.796,345.049 261.5,375.5C 260.167,375.833 260.167,376.167 261.5,376.5C 261.833,377.167 262.167,377.833 262.5,378.5C 261.504,378.586 260.671,378.252 260,377.5C 259.5,346.835 259.333,316.168 259.5,285.5C 259.5,284.833 259.5,284.167 259.5,283.5 Z"/></g>
<g><path style="opacity:0.165" fill="#bdbfc3" d="M 304.5,331.5 C 306.104,332.287 306.771,333.62 306.5,335.5C 305.326,334.486 304.66,333.153 304.5,331.5 Z"/></g>
<g><path style="opacity:0.498" fill="#9da0a3" d="M 206.5,333.5 C 206.573,335.027 205.906,336.027 204.5,336.5C 204.427,334.973 205.094,333.973 206.5,333.5 Z"/></g>
<g><path style="opacity:0.718" fill="#a6acb1" d="M 162.5,335.5 C 164.914,336.911 166.581,338.911 167.5,341.5C 165.086,340.089 163.419,338.089 162.5,335.5 Z"/></g>
<g><path style="opacity:0.247" fill="#b9bdc0" d="M 306.5,335.5 C 307.906,335.973 308.573,336.973 308.5,338.5C 307.094,338.027 306.427,337.027 306.5,335.5 Z"/></g>
<g><path style="opacity:0.302" fill="#b1b4b8" d="M 142.5,335.5 C 144.341,337.849 145.674,340.515 146.5,343.5C 144.127,341.421 142.794,338.754 142.5,335.5 Z"/></g>
<g><path style="opacity:0.475" fill="#a3a6a9" d="M 203.5,337.5 C 202.415,339.587 200.749,340.92 198.5,341.5C 199.585,339.413 201.251,338.08 203.5,337.5 Z"/></g>
<g><path style="opacity:0.663" fill="#9ca1a4" d="M 308.5,338.5 C 310.262,339.262 311.262,340.596 311.5,342.5C 309.738,341.738 308.738,340.404 308.5,338.5 Z"/></g>
<g><path style="opacity:0.251" fill="#b3b9bd" d="M 357.5,337.5 C 357.206,340.754 355.873,343.421 353.5,345.5C 354.326,342.515 355.659,339.849 357.5,337.5 Z"/></g>
<g><path style="opacity:1" fill="#4c5358" d="M 208.5,346.5 C 208.5,346.833 208.5,347.167 208.5,347.5C 207.5,347.833 206.833,348.5 206.5,349.5C 205.833,349.5 205.5,349.833 205.5,350.5C 205.167,350.5 204.833,350.5 204.5,350.5C 204.167,350.5 203.833,350.5 203.5,350.5C 203.282,346.464 204.949,345.13 208.5,346.5 Z"/></g>
<g><path style="opacity:0.012" fill="#fefffe" d="M 209.5,346.5 C 210.043,346.56 210.376,346.893 210.5,347.5C 209.743,348.773 209.077,348.773 208.5,347.5C 209.167,347.5 209.5,347.167 209.5,346.5 Z"/></g>
<g><path style="opacity:0.004" fill="#fefffe" d="M 148.5,347.5 C 147.833,348.167 147.833,348.167 148.5,347.5 Z"/></g>
<g><path style="opacity:0.016" fill="#fefffe" d="M 290.5,347.5 C 291.525,347.897 291.692,348.563 291,349.5C 290.536,348.906 290.369,348.239 290.5,347.5 Z"/></g>
<g><path style="opacity:0.039" fill="#c9cccf" d="M 149.5,347.5 C 150.906,347.973 151.573,348.973 151.5,350.5C 150.094,350.027 149.427,349.027 149.5,347.5 Z"/></g>
<g><path style="opacity:0.098" fill="#dde2e5" d="M 230.5,297.5 C 231.249,323.341 231.915,349.174 232.5,375C 231.906,375.464 231.239,375.631 230.5,375.5C 230.5,349.5 230.5,323.5 230.5,297.5 Z"/></g>
<g><path style="opacity:0.02" fill="#fefffe" d="M 206.5,349.5 C 207.833,350.167 207.833,350.167 206.5,349.5 Z"/></g>
<g><path style="opacity:0.008" fill="#fefffe" d="M 205.5,350.5 C 205.833,350.5 206.167,350.5 206.5,350.5C 206.315,351.17 205.981,351.17 205.5,350.5 Z"/></g>
<g><path style="opacity:0.541" fill="#b1b9ba" d="M 295.5,350.5 C 297.404,350.738 298.738,351.738 299.5,353.5C 297.596,353.262 296.262,352.262 295.5,350.5 Z"/></g>
<g><path style="opacity:0.011" fill="#e2e3e5" d="M 203.5,350.5 C 203.833,350.5 204.167,350.5 204.5,350.5C 204.421,351.958 203.921,353.292 203,354.5C 202.722,353.584 202.222,352.918 201.5,352.5C 201.833,351.5 202.5,350.833 203.5,350.5 Z"/></g>
<g><path style="opacity:0.149" fill="#d9dee1" d="M 211.5,342.5 C 212.496,358.658 212.83,374.991 212.5,391.5C 211.833,375.833 211.167,360.167 210.5,344.5C 210.328,343.508 210.662,342.842 211.5,342.5 Z"/></g>
<g><path style="opacity:0.897" fill="#31393f" d="M 229.5,297.5 C 229.833,297.5 230.167,297.5 230.5,297.5C 230.5,323.5 230.5,349.5 230.5,375.5C 230.167,376.167 229.833,376.833 229.5,377.5C 228.5,377.833 227.833,378.5 227.5,379.5C 227.167,379.5 226.833,379.5 226.5,379.5C 225.549,375.664 226.216,371.997 228.5,368.5C 229.5,344.843 229.833,321.176 229.5,297.5 Z"/></g>
<g><path style="opacity:0.114" fill="#dce0e2" d="M 289.5,340.5 C 290.11,341.391 290.443,342.391 290.5,343.5C 289.503,360.325 289.17,377.325 289.5,394.5C 289.167,394.5 288.833,394.5 288.5,394.5C 288.17,376.326 288.503,358.326 289.5,340.5 Z"/></g>
<g><path style="opacity:0.562" fill="#a4a8aa" d="M 151.5,350.5 C 153.017,350.511 154.184,351.177 155,352.5C 155.81,356.358 155.643,360.024 154.5,363.5C 154.153,360.674 154.153,357.507 154.5,354C 153.29,352.961 152.29,351.794 151.5,350.5 Z"/></g>
<g><path style="opacity:0.271" fill="#b5b9bc" d="M 192.5,344.5 C 192.389,345.117 192.056,345.617 191.5,346C 188.854,346.497 186.187,346.664 183.5,346.5C 183.667,375.169 183.5,403.835 183,432.5C 182.411,434.863 180.911,435.863 178.5,435.5C 177.791,434.596 176.791,434.263 175.5,434.5C 176.641,433.661 177.974,432.994 179.5,432.5C 180.107,432.624 180.44,432.957 180.5,433.5C 181.222,433.082 181.722,432.416 182,431.5C 182.5,402.835 182.667,374.169 182.5,345.5C 185.881,345.54 189.214,345.207 192.5,344.5 Z"/></g>
<g><path style="opacity:0.082" fill="#e3e8ec" d="M 270.5,297.5 C 270.333,323.169 270.5,348.835 271,374.5C 271.717,375.044 272.217,375.711 272.5,376.5C 271.504,376.586 270.671,376.252 270,375.5C 269.17,349.33 269.337,323.33 270.5,297.5 Z"/></g>
<g><path style="opacity:0.538" fill="#959ba0" d="M 315.5,345.5 C 317.75,345.951 319.084,347.285 319.5,349.5C 318.712,371.655 318.378,393.822 318.5,416C 318.667,420.167 318.833,424.333 319,428.5C 320.795,429.719 320.628,430.719 318.5,431.5C 318.135,402.848 317.135,374.181 315.5,345.5 Z"/></g>
<g><path style="opacity:0.863" fill="#3e4347" d="M 289.5,340.5 C 288.503,358.326 288.17,376.326 288.5,394.5C 287.173,376.329 287.173,357.996 288.5,339.5C 289.107,339.624 289.44,339.957 289.5,340.5 Z"/></g>
<g><path style="opacity:0.004" fill="#fefffe" d="M 201.5,372.5 C 202.833,373.167 202.833,373.167 201.5,372.5 Z"/></g>
<g><path style="opacity:0.004" fill="#fefffe" d="M 201.5,374.5 C 202.573,375.251 202.74,376.251 202,377.5C 201.517,376.552 201.351,375.552 201.5,374.5 Z"/></g>
<g><path style="opacity:0.259" fill="#bbc4c6" d="M 241.5,373.5 C 242.434,374.568 242.768,375.901 242.5,377.5C 240.255,376.708 239.922,375.375 241.5,373.5 Z"/></g>
<g><path style="opacity:0.009" fill="#fefffe" d="M 272.5,377.5 C 273.167,377.5 273.5,377.833 273.5,378.5C 274.167,378.5 274.5,378.833 274.5,379.5C 275.167,379.5 275.5,379.833 275.5,380.5C 274.375,381.014 273.209,381.347 272,381.5C 271.5,380.333 270.667,379.5 269.5,379C 270.527,378.487 271.527,377.987 272.5,377.5 Z"/></g>
<g><path style="opacity:0.149" fill="#bfc6c9" d="M 242.5,377.5 C 243.674,378.514 244.34,379.847 244.5,381.5C 242.896,380.713 242.229,379.38 242.5,377.5 Z"/></g>
<g><path style="opacity:0.862" fill="#42474b" d="M 211.5,342.5 C 211.56,341.957 211.893,341.624 212.5,341.5C 213.666,358.824 213.833,376.157 213,393.5C 212.814,396.036 212.314,398.369 211.5,400.5C 211.5,399.5 211.5,398.5 211.5,397.5C 211.325,395.379 211.659,393.379 212.5,391.5C 212.83,374.991 212.496,358.658 211.5,342.5 Z"/></g>
<g><path style="opacity:0.016" fill="#fefffe" d="M 227.5,379.5 C 227.833,379.5 228.167,379.5 228.5,379.5C 228.5,380.5 228.5,381.5 228.5,382.5C 228.167,382.5 227.833,382.5 227.5,382.5C 227.5,381.833 227.167,381.5 226.5,381.5C 226.5,381.167 226.5,380.833 226.5,380.5C 227.167,380.5 227.5,380.167 227.5,379.5 Z"/></g>
<g><path style="opacity:0.005" fill="#fefffe" d="M 201.5,380.5 C 202.613,381.946 202.78,383.613 202,385.5C 201.506,383.866 201.34,382.199 201.5,380.5 Z"/></g>
<g><path style="opacity:0.259" fill="#bbc5c9" d="M 225.5,380.5 C 225.5,381.167 225.833,381.5 226.5,381.5C 227.167,381.5 227.5,381.833 227.5,382.5C 227.5,383.167 227.5,383.833 227.5,384.5C 225.194,383.625 224.527,382.292 225.5,380.5 Z"/></g>
<g><path style="opacity:0.769" fill="#848c8e" d="M 244.5,382.5 C 244.5,382.167 244.5,381.833 244.5,381.5C 246.404,381.738 247.738,382.738 248.5,384.5C 246.938,384.267 245.605,383.6 244.5,382.5 Z"/></g>
<g><path style="opacity:0.596" fill="#a6abae" d="M 265.5,380.5 C 267.587,381.585 268.92,383.251 269.5,385.5C 267.413,384.415 266.08,382.749 265.5,380.5 Z"/></g>
<g><path style="opacity:0.039" fill="#bfcfd2" d="M 276.5,380.5 C 277.906,380.973 278.573,381.973 278.5,383.5C 277.094,383.027 276.427,382.027 276.5,380.5 Z"/></g>
<g><path style="opacity:0.906" fill="#9599a0" d="M 278.5,383.5 C 281.083,384.985 282.416,387.318 282.5,390.5C 282.167,390.5 281.833,390.5 281.5,390.5C 281.34,388.847 280.674,387.514 279.5,386.5C 279.443,385.391 279.11,384.391 278.5,383.5 Z"/></g>
<g><path style="opacity:0.008" fill="#fefffe" d="M 249.5,386.5 C 250.303,387.423 250.47,388.423 250,389.5C 248.926,388.382 247.76,387.382 246.5,386.5C 247.233,385.913 248.233,385.913 249.5,386.5 Z"/></g>
<g><path style="opacity:0.42" fill="#95999d" d="M 248.5,384.5 C 250.027,384.427 251.027,385.094 251.5,386.5C 250.833,386.5 250.167,386.5 249.5,386.5C 249.167,385.833 248.833,385.167 248.5,384.5 Z"/></g>
<g><path style="opacity:0.008" fill="#fefffe" d="M 201.5,387.5 C 202.573,388.251 202.74,389.251 202,390.5C 201.517,389.552 201.351,388.552 201.5,387.5 Z"/></g>
<g><path style="opacity:0.02" fill="#fefffe" d="M 252.5,388.5 C 252.833,388.5 253.167,388.5 253.5,388.5C 253.5,389.167 253.833,389.5 254.5,389.5C 253.377,390.757 252.711,390.424 252.5,388.5 Z"/></g>
<g><path style="opacity:0.396" fill="#9daaac" d="M 253.5,388.5 C 253.5,388.167 253.5,387.833 253.5,387.5C 255.027,387.427 256.027,388.094 256.5,389.5C 255.833,389.5 255.167,389.5 254.5,389.5C 253.833,389.5 253.5,389.167 253.5,388.5 Z"/></g>
<g><path style="opacity:0.549" fill="#afb4b9" d="M 241.5,387.5 C 242.313,388.653 243.313,388.653 244.5,387.5C 245.522,387.855 246.189,388.522 246.5,389.5C 244.801,389.34 243.134,389.506 241.5,390C 240.295,391.376 238.962,392.542 237.5,393.5C 237.859,391.629 238.859,390.129 240.5,389C 239.288,387.893 239.621,387.393 241.5,387.5 Z"/></g>
<g><path style="opacity:0.773" fill="#91989a" d="M 256.5,390.5 C 256.5,390.167 256.5,389.833 256.5,389.5C 258.833,389.833 260.167,391.167 260.5,393.5C 259.167,392.5 257.833,391.5 256.5,390.5 Z"/></g>
<g><path style="opacity:1" fill="#202931" d="M 241.5,283.5 C 242.332,312.33 242.832,341.33 243,370.5C 243.333,369.5 243.667,368.5 244,367.5C 244.667,368.833 245.333,370.167 246,371.5C 246.455,368.146 246.955,364.813 247.5,361.5C 250.247,361.813 252.914,361.48 255.5,360.5C 254.425,357.562 254.259,354.562 255,351.5C 255.414,351.043 255.914,350.709 256.5,350.5C 257.33,356.138 257.83,361.804 258,367.5C 258.168,339.997 258.668,312.664 259.5,285.5C 259.333,316.168 259.5,346.835 260,377.5C 260.671,378.252 261.504,378.586 262.5,378.5C 263.5,379.167 264.5,379.833 265.5,380.5C 266.08,382.749 267.413,384.415 269.5,385.5C 270.34,387.853 271.674,389.853 273.5,391.5C 273.402,393.553 274.069,395.22 275.5,396.5C 275.5,396.833 275.5,397.167 275.5,397.5C 275.5,401.833 275.5,406.167 275.5,410.5C 275.5,411.5 275.5,412.5 275.5,413.5C 276.167,413.167 276.833,412.833 277.5,412.5C 277.833,412.5 278.167,412.5 278.5,412.5C 278.5,413.5 278.5,414.5 278.5,415.5C 281.983,415.309 285.316,414.643 288.5,413.5C 288.5,407.167 288.5,400.833 288.5,394.5C 288.833,394.5 289.167,394.5 289.5,394.5C 289.5,396.167 289.5,397.833 289.5,399.5C 289.5,402.833 289.5,406.167 289.5,409.5C 289.721,412.279 289.388,414.946 288.5,417.5C 287.596,418.209 287.263,419.209 287.5,420.5C 287.672,421.492 287.338,422.158 286.5,422.5C 285.326,423.514 284.66,424.847 284.5,426.5C 284.489,428.017 283.823,429.184 282.5,430C 282.833,430.333 283.167,430.667 283.5,431C 282.058,431.377 281.058,432.21 280.5,433.5C 279.833,433.5 279.5,433.833 279.5,434.5C 279.167,434.5 278.833,434.5 278.5,434.5C 277.5,434.833 276.833,435.5 276.5,436.5C 276.5,436.833 276.5,437.167 276.5,437.5C 275.128,438.512 273.795,439.512 272.5,440.5C 271.609,441.11 270.609,441.443 269.5,441.5C 268.508,441.328 267.842,441.662 267.5,442.5C 266.508,442.328 265.842,442.662 265.5,443.5C 265.631,444.239 265.464,444.906 265,445.5C 264.329,444.748 263.496,444.414 262.5,444.5C 261.833,444.5 261.5,444.833 261.5,445.5C 261.167,445.5 260.833,445.5 260.5,445.5C 259.833,445.5 259.167,445.5 258.5,445.5C 259.763,443.57 261.43,441.903 263.5,440.5C 263.167,440.167 262.833,439.833 262.5,439.5C 255.903,443.078 248.903,443.578 241.5,441C 241.833,440.667 242.167,440.333 242.5,440C 239.123,438.351 238.79,436.351 241.5,434C 240.149,432.186 239.149,432.519 238.5,435C 235.773,435.818 233.106,435.652 230.5,434.5C 230.974,430.763 232.307,427.096 234.5,423.5C 235.167,423.833 235.833,424.167 236.5,424.5C 237.167,424.5 237.5,424.833 237.5,425.5C 237.973,426.906 238.973,427.573 240.5,427.5C 241.78,428.931 243.447,429.598 245.5,429.5C 249.846,429.666 254.179,429.499 258.5,429C 257.956,428.283 257.289,427.783 256.5,427.5C 256.5,427.167 256.5,426.833 256.5,426.5C 256.5,426.167 256.5,425.833 256.5,425.5C 257.382,422.615 258.716,419.948 260.5,417.5C 264.445,409.467 264.445,401.467 260.5,393.5C 260.167,391.167 258.833,389.833 256.5,389.5C 256.027,388.094 255.027,387.427 253.5,387.5C 252.833,387.5 252.5,387.833 252.5,388.5C 251.662,388.158 251.328,387.492 251.5,386.5C 251.027,385.094 250.027,384.427 248.5,384.5C 247.738,382.738 246.404,381.738 244.5,381.5C 244.34,379.847 243.674,378.514 242.5,377.5C 242.768,375.901 242.434,374.568 241.5,373.5C 240.857,344.028 240.857,314.695 241.5,285.5C 241.5,285.167 241.5,284.833 241.5,284.5C 241.5,284.167 241.5,283.833 241.5,283.5 Z M 284.5,401.5 C 284.768,403.099 284.434,404.432 283.5,405.5C 283.672,404.508 283.338,403.842 282.5,403.5C 282.833,402.5 283.5,401.833 284.5,401.5 Z"/></g>
<g><path style="opacity:0.38" fill="#adb0b2" d="M 269.5,385.5 C 270.458,385.953 271.292,386.619 272,387.5C 272.333,386.833 272.667,386.167 273,385.5C 272.653,387.61 272.82,389.61 273.5,391.5C 271.674,389.853 270.34,387.853 269.5,385.5 Z"/></g>
<g><path style="opacity:0.01" fill="#e2e4e7" d="M 273.5,391.5 C 273.833,391.5 274.167,391.5 274.5,391.5C 274.833,394.167 275.167,394.167 275.5,391.5C 277.044,393.842 277.378,396.342 276.5,399C 278.929,399.451 279.096,400.285 277,401.5C 276.819,404.695 276.319,407.695 275.5,410.5C 275.5,406.167 275.5,401.833 275.5,397.5C 276.833,397.167 276.833,396.833 275.5,396.5C 274.069,395.22 273.402,393.553 273.5,391.5 Z"/></g>
<g><path style="opacity:0.702" fill="#979c9f" d="M 246.5,389.5 C 248.922,391.286 248.922,392.952 246.5,394.5C 246.5,392.833 246.5,391.167 246.5,389.5 Z"/></g>
<g><path style="opacity:0.714" fill="#888d91" d="M 171.5,344.5 C 172.267,345.172 172.934,346.005 173.5,347C 173.672,373.913 173.339,401.079 172.5,428.5C 172.5,429.833 172.5,431.167 172.5,432.5C 171.502,403.338 171.169,374.005 171.5,344.5 Z"/></g>
<g><path style="opacity:0.008" fill="#fefffe" d="M 201.5,394.5 C 202.622,396.288 202.789,398.288 202,400.5C 201.505,398.527 201.338,396.527 201.5,394.5 Z"/></g>
<g><path style="opacity:0.063" fill="#c8cdce" d="M 227.5,384.5 C 227.833,384.5 228.167,384.5 228.5,384.5C 229.363,386.421 230.029,388.421 230.5,390.5C 231.621,392.089 231.454,393.756 230,395.5C 228.913,393.068 228.413,393.402 228.5,396.5C 228.167,396.5 227.833,396.5 227.5,396.5C 228.62,392.472 228.62,388.472 227.5,384.5 Z"/></g>
<g><path style="opacity:0.031" fill="#d1e2e4" d="M 246.5,394.5 C 248.031,395.925 247.698,396.591 245.5,396.5C 245.328,395.508 245.662,394.842 246.5,394.5 Z"/></g>
<g><path style="opacity:0.019" fill="#f2f7fb" d="M 154.5,364.5 C 154.216,388.855 154.549,413.188 155.5,437.5C 154.437,434.783 153.437,431.949 152.5,429C 153.161,407.402 153.828,385.902 154.5,364.5 Z"/></g>
<g><path style="opacity:0.008" fill="#f3f3f6" d="M 283.5,395.5 C 284.338,395.842 284.672,396.508 284.5,397.5C 284.5,398.833 284.5,400.167 284.5,401.5C 283.5,401.833 282.833,402.5 282.5,403.5C 281.986,402.375 281.653,401.209 281.5,400C 283.037,398.89 283.703,397.39 283.5,395.5 Z"/></g>
<g><path style="opacity:0.533" fill="#888f95" d="M 237.5,393.5 C 236.771,398.13 236.437,402.797 236.5,407.5C 235.839,405.866 235.506,404.033 235.5,402C 235.36,398.85 236.027,396.017 237.5,393.5 Z"/></g>
<g><path style="opacity:0.718" fill="#71777a" d="M 200.5,353.5 C 201.376,362.593 201.376,371.76 200.5,381C 200.539,385.26 201.206,389.26 202.5,393C 200.623,396.494 199.956,400.327 200.5,404.5C 200.5,404.833 200.5,405.167 200.5,405.5C 200.5,405.833 200.5,406.167 200.5,406.5C 200.5,408.167 200.5,409.833 200.5,411.5C 200.666,419.84 200.5,428.173 200,436.5C 199.768,437.737 199.268,438.737 198.5,439.5C 199.134,410.687 199.801,382.02 200.5,353.5 Z"/></g>
<g><path style="opacity:0.007" fill="#fefffe" d="M 200.5,405.5 C 200.5,405.167 200.5,404.833 200.5,404.5C 201.268,403.737 201.768,402.737 202,401.5C 202.844,403.463 202.344,404.796 200.5,405.5 Z"/></g>
<g><path style="opacity:1" fill="#222c34" d="M 246.5,389.5 C 246.5,391.167 246.5,392.833 246.5,394.5C 245.662,394.842 245.328,395.508 245.5,396.5C 245.5,396.833 245.5,397.167 245.5,397.5C 244.833,401.167 244.167,404.833 243.5,408.5C 241.05,408.702 238.717,408.369 236.5,407.5C 236.437,402.797 236.771,398.13 237.5,393.5C 238.962,392.542 240.295,391.376 241.5,390C 243.134,389.506 244.801,389.34 246.5,389.5 Z"/></g>
<g><path style="opacity:0.009" fill="#fefffe" d="M 282.5,403.5 C 283.338,403.842 283.672,404.508 283.5,405.5C 282.833,405.5 282.5,405.833 282.5,406.5C 281.375,405.652 281.375,404.652 282.5,403.5 Z"/></g>
<g><path style="opacity:0.304" fill="#babfc1" d="M 211.5,397.5 C 211.5,398.5 211.5,399.5 211.5,400.5C 211.635,406.181 211.968,411.848 212.5,417.5C 210.457,410.898 210.123,404.231 211.5,397.5 Z"/></g>
<g><path style="opacity:0.125" fill="#e6eaee" d="M 289.5,409.5 C 289.5,406.167 289.5,402.833 289.5,399.5C 290.29,398.391 290.79,397.058 291,395.5C 291.183,400.348 290.683,405.014 289.5,409.5 Z"/></g>
<g><path style="opacity:0.008" fill="#fefffe" d="M 200.5,406.5 C 202.847,407.607 203.18,409.274 201.5,411.5C 201.167,411.5 200.833,411.5 200.5,411.5C 200.5,409.833 200.5,408.167 200.5,406.5 Z"/></g>
<g><path style="opacity:0.063" fill="#dce6e8" d="M 347.5,352.5 C 347.833,355.167 348.167,355.167 348.5,352.5C 350.656,352.872 350.656,353.872 348.5,355.5C 348.167,357.5 347.833,359.5 347.5,361.5C 347.174,385.428 347.508,409.261 348.5,433C 346.988,435.438 345.654,437.938 344.5,440.5C 344.933,437.834 345.433,435.168 346,432.5C 346.168,405.664 346.668,378.997 347.5,352.5 Z"/></g>
<g><path style="opacity:0.898" fill="#8f949b" d="M 236.5,407.5 C 238.717,408.369 241.05,408.702 243.5,408.5C 243.5,408.833 243.5,409.167 243.5,409.5C 240.351,411.225 238.018,410.559 236.5,407.5 Z"/></g>
<g><path style="opacity:0.604" fill="#74797d" d="M 336.5,339.5 C 334.949,342.563 332.782,345.229 330,347.5C 329.832,375.67 329.332,403.67 328.5,431.5C 328.5,431.167 328.5,430.833 328.5,430.5C 328.828,402.926 328.495,375.426 327.5,348C 330.369,344.962 333.369,342.129 336.5,339.5 Z"/></g>
<g><path style="opacity:0.757" fill="#aab0b3" d="M 227.5,396.5 C 228.184,401.066 228.351,405.733 228,410.5C 228.847,412.854 229.68,415.188 230.5,417.5C 228.59,416.025 227.424,414.025 227,411.5C 226.184,406.316 226.35,401.316 227.5,396.5 Z"/></g>
<g><path style="opacity:0.01" fill="#fefffe" d="M 201.5,411.5 C 202.634,413.966 202.801,416.633 202,419.5C 201.503,416.854 201.336,414.187 201.5,411.5 Z"/></g>
<g><path style="opacity:1" fill="#3c4549" d="M 284.5,397.5 C 286.463,402.444 285.463,406.777 281.5,410.5C 282.262,410.911 283.262,411.077 284.5,411C 283.789,412.255 282.956,413.421 282,414.5C 281.467,412.061 280.3,411.395 278.5,412.5C 278.167,412.5 277.833,412.5 277.5,412.5C 279.167,410.5 280.833,408.5 282.5,406.5C 283.167,406.5 283.5,406.167 283.5,405.5C 284.434,404.432 284.768,403.099 284.5,401.5C 284.5,400.167 284.5,398.833 284.5,397.5 Z"/></g>
<g><path style="opacity:0.004" fill="#fefffe" d="M 209.5,412.5 C 210.833,413.167 210.833,413.167 209.5,412.5 Z"/></g>
<g><path style="opacity:0.78" fill="#8a8e93" d="M 299.5,353.5 C 301.492,380.813 302.158,408.48 301.5,436.5C 300.698,435.048 300.198,433.382 300,431.5C 299.833,425.667 299.667,419.833 299.5,414C 300,394.084 300,373.918 299.5,353.5 Z"/></g>
<g><path style="opacity:0.51" fill="#979ca1" d="M 260.5,417.5 C 258.716,419.948 257.382,422.615 256.5,425.5C 255.662,425.158 255.328,424.492 255.5,423.5C 255.5,422.833 255.5,422.167 255.5,421.5C 256.833,420.833 257.833,419.833 258.5,418.5C 259.167,418.167 259.833,417.833 260.5,417.5 Z"/></g>
<g><path style="opacity:0.006" fill="#ebefef" d="M 288.5,417.5 C 288.414,418.496 288.748,419.329 289.5,420C 288.906,420.464 288.239,420.631 287.5,420.5C 287.263,419.209 287.596,418.209 288.5,417.5 Z"/></g>
<g><path style="opacity:0.012" fill="#caced1" d="M 231.5,419.5 C 232.167,419.833 232.833,420.167 233.5,420.5C 234.008,422.233 234.841,422.566 236,421.5C 236.483,422.448 236.649,423.448 236.5,424.5C 235.833,424.167 235.167,423.833 234.5,423.5C 232.738,422.738 231.738,421.404 231.5,419.5 Z"/></g>
<g><path style="opacity:0.004" fill="#fefffe" d="M 213.5,422.5 C 212.833,423.167 212.833,423.167 213.5,422.5 Z"/></g>
<g><path style="opacity:0.012" fill="#fbfbfc" d="M 255.5,423.5 C 255.328,424.492 255.662,425.158 256.5,425.5C 256.5,425.833 256.5,426.167 256.5,426.5C 255.167,426.833 255.167,427.167 256.5,427.5C 255.054,428.613 253.387,428.78 251.5,428C 252.167,427.667 252.833,427.333 253.5,427C 252.167,425.16 252.334,424.66 254,425.5C 254.278,424.584 254.778,423.918 255.5,423.5 Z"/></g>
<g><path style="opacity:0.125" fill="#c3cacd" d="M 286.5,422.5 C 286.771,424.38 286.104,425.713 284.5,426.5C 284.66,424.847 285.326,423.514 286.5,422.5 Z"/></g>
<g><path style="opacity:0.227" fill="#afbfc1" d="M 237.5,425.5 C 239.027,425.427 240.027,426.094 240.5,427.5C 238.973,427.573 237.973,426.906 237.5,425.5 Z"/></g>
<g><path style="opacity:0.011" fill="#eceff0" d="M 172.5,428.5 C 173.239,428.369 173.906,428.536 174.5,429C 173.62,430.356 173.286,431.856 173.5,433.5C 172.833,433.5 172.5,433.167 172.5,432.5C 172.5,431.167 172.5,429.833 172.5,428.5 Z"/></g>
<g><path style="opacity:0.357" fill="#b4bbbe" d="M 240.5,427.5 C 242.553,427.402 244.22,428.069 245.5,429.5C 243.447,429.598 241.78,428.931 240.5,427.5 Z"/></g>
<g><path style="opacity:0.004" fill="#fefffe" d="M 201.5,430.5 C 202.833,431.167 202.833,431.167 201.5,430.5 Z"/></g>
<g><path style="opacity:0.565" fill="#979ca1" d="M 217.5,428.5 C 219.446,429.035 220.446,430.368 220.5,432.5C 219.026,431.564 218.026,430.23 217.5,428.5 Z"/></g>
<g><path style="opacity:0.008" fill="#dee1e4" d="M 318.5,431.5 C 321.5,431.167 322.833,432.5 322.5,435.5C 320.821,435.715 319.821,435.048 319.5,433.5C 318.662,433.158 318.328,432.492 318.5,431.5 Z"/></g>
<g><path style="opacity:0.008" fill="#fefffe" d="M 280.5,433.5 C 281.833,434.167 281.833,434.167 280.5,433.5 Z"/></g>
<g><path style="opacity:0.008" fill="#fefffe" d="M 279.5,434.5 C 279.833,434.5 280.167,434.5 280.5,434.5C 280.315,435.17 279.981,435.17 279.5,434.5 Z"/></g>
<g><path style="opacity:0.173" fill="#cdd0d4" d="M 328.5,430.5 C 328.5,430.833 328.5,431.167 328.5,431.5C 328.833,434.5 327.5,435.833 324.5,435.5C 325.167,434.833 325.833,434.167 326.5,433.5C 327.833,433.167 327.833,432.833 326.5,432.5C 326.833,431.5 327.5,430.833 328.5,430.5 Z"/></g>
<g><path style="opacity:0.008" fill="#e7eaea" d="M 278.5,434.5 C 278.5,435.167 278.833,435.5 279.5,435.5C 279.167,436.5 278.5,437.167 277.5,437.5C 277.5,436.833 277.167,436.5 276.5,436.5C 276.833,435.5 277.5,434.833 278.5,434.5 Z"/></g>
<g><path style="opacity:0.792" fill="#888f92" d="M 224.5,436.5 C 226.404,436.738 227.738,437.738 228.5,439.5C 226.596,439.262 225.262,438.262 224.5,436.5 Z"/></g>
<g><path style="opacity:0.004" fill="#fefffe" d="M 276.5,437.5 C 276.833,437.5 277.167,437.5 277.5,437.5C 277.315,438.17 276.981,438.17 276.5,437.5 Z"/></g>
<g><path style="opacity:0.01" fill="#d2d3d5" d="M 301.5,436.5 C 302.434,437.568 302.768,438.901 302.5,440.5C 301.761,440.631 301.094,440.464 300.5,440C 301.337,438.989 301.67,437.822 301.5,436.5 Z"/></g>
<g><path style="opacity:0.271" fill="#b6b8be" d="M 156.5,439.5 C 157.674,440.514 158.34,441.847 158.5,443.5C 156.896,442.713 156.229,441.38 156.5,439.5 Z"/></g>
<g><path style="opacity:0.114" fill="#cbd0d2" d="M 198.5,439.5 C 199.471,440.962 199.138,442.295 197.5,443.5C 197.167,443.5 196.833,443.5 196.5,443.5C 196.66,441.847 197.326,440.514 198.5,439.5 Z"/></g>
<g><path style="opacity:0.373" fill="#989ea3" d="M 228.5,439.5 C 230.027,439.427 231.027,440.094 231.5,441.5C 229.973,441.573 228.973,440.906 228.5,439.5 Z"/></g>
<g><path style="opacity:0.012" fill="#fefffe" d="M 272.5,440.5 C 273.833,441.167 273.833,441.167 272.5,440.5 Z"/></g>
<g><path style="opacity:0.122" fill="#d0d5d7" d="M 267.5,442.5 C 267.842,441.662 268.508,441.328 269.5,441.5C 269.591,443.698 268.925,444.031 267.5,442.5 Z"/></g>
<g><path style="opacity:0.012" fill="#f2f3f4" d="M 231.5,441.5 C 232.167,441.5 232.5,441.833 232.5,442.5C 230.654,443.742 230.321,443.409 231.5,441.5 Z"/></g>
<g><path style="opacity:0.059" fill="#d6d7d8" d="M 265.5,443.5 C 265.842,442.662 266.508,442.328 267.5,442.5C 267.591,444.698 266.925,445.031 265.5,443.5 Z"/></g>
<g><path style="opacity:0.235" fill="#bfc2c5" d="M 302.5,440.5 C 303.906,440.973 304.573,441.973 304.5,443.5C 304.167,443.5 303.833,443.5 303.5,443.5C 303.082,442.778 302.416,442.278 301.5,442C 302.056,441.617 302.389,441.117 302.5,440.5 Z"/></g>
<g><path style="opacity:0.008" fill="#fefffe" d="M 197.5,443.5 C 198.833,444.167 198.833,444.167 197.5,443.5 Z"/></g>
<g><path style="opacity:0.008" fill="#fefffe" d="M 303.5,443.5 C 302.833,444.167 302.833,444.167 303.5,443.5 Z"/></g>
<g><path style="opacity:0.031" fill="#cbd0d4" d="M 196.5,443.5 C 196.573,445.027 195.906,446.027 194.5,446.5C 194.427,444.973 195.094,443.973 196.5,443.5 Z"/></g>
<g><path style="opacity:0.639" fill="#9599a2" d="M 159.5,445.5 C 161.749,446.08 163.415,447.413 164.5,449.5C 162.251,448.92 160.585,447.587 159.5,445.5 Z"/></g>
<g><path style="opacity:0.49" fill="#a4a9ad" d="M 235.5,443.5 C 243.046,445.202 250.713,445.868 258.5,445.5C 259.167,445.5 259.833,445.5 260.5,445.5C 257.833,446.167 255.167,446.833 252.5,447.5C 246.411,447.378 240.745,446.045 235.5,443.5 Z"/></g>
<g><path style="opacity:0.004" fill="#f3f5f5" d="M 262.5,444.5 C 263.679,446.409 263.346,446.742 261.5,445.5C 261.5,444.833 261.833,444.5 262.5,444.5 Z"/></g>
<g><path style="opacity:0.012" fill="#f0f0f2" d="M 194.5,446.5 C 194.5,447.833 193.833,448.5 192.5,448.5C 192.833,447.5 193.5,446.833 194.5,446.5 Z"/></g>
<g><path style="opacity:0.008" fill="#fefffe" d="M 252.5,447.5 C 253.833,448.167 253.833,448.167 252.5,447.5 Z"/></g>
<g><path style="opacity:0.01" fill="#edf1f1" d="M 306.5,446.5 C 307.5,446.833 308.167,447.5 308.5,448.5C 306.007,448.869 305.34,448.203 306.5,446.5 Z"/></g>
<g><path style="opacity:1" fill="#687172" d="M 338.5,448.5 C 337.738,450.262 336.404,451.262 334.5,451.5C 334.83,448.538 336.164,447.538 338.5,448.5 Z"/></g>
<g><path style="opacity:0.706" fill="#a8adb3" d="M 308.5,448.5 C 310.404,448.738 311.738,449.738 312.5,451.5C 311.883,451.611 311.383,451.944 311,452.5C 310.338,451.016 309.504,449.683 308.5,448.5 Z"/></g>
<g><path style="opacity:0.004" fill="#fefffe" d="M 339.5,448.5 C 340.833,449.167 340.833,449.167 339.5,448.5 Z"/></g>
<g><path style="opacity:0.004" fill="#fefffe" d="M 164.5,450.5 C 163.833,451.167 163.833,451.167 164.5,450.5 Z"/></g>
<g><path style="opacity:0.467" fill="#9da2a5" d="M 164.5,450.5 C 164.5,450.167 164.5,449.833 164.5,449.5C 166.404,449.738 167.738,450.738 168.5,452.5C 166.938,452.267 165.605,451.6 164.5,450.5 Z"/></g>
<g><path style="opacity:0.906" fill="#848a8f" d="M 312.5,451.5 C 314.698,451.12 316.365,451.787 317.5,453.5C 315.447,453.598 313.78,452.931 312.5,451.5 Z"/></g>
<g><path style="opacity:0.004" fill="#cfd1d3" d="M 187.5,451.5 C 187.5,451.833 187.5,452.167 187.5,452.5C 186.542,452.953 185.708,453.619 185,454.5C 184.329,453.748 183.496,453.414 182.5,453.5C 183.78,452.069 185.447,451.402 187.5,451.5 Z"/></g>
<g><path style="opacity:0.008" fill="#fefffe" d="M 187.5,452.5 C 188.833,453.167 188.833,453.167 187.5,452.5 Z"/></g>
<g><path style="opacity:0.306" fill="#c3c8cd" d="M 334.5,451.5 C 333.312,452.364 332.145,453.364 331,454.5C 326.518,454.739 322.018,454.406 317.5,453.5C 323.303,453.791 328.97,453.125 334.5,451.5 Z"/></g>
</svg>
