<?xml version="1.0" encoding="UTF-8"?>
<!DOCTYPE svg PUBLIC "-//W3C//DTD SVG 1.1//EN" "http://www.w3.org/Graphics/SVG/1.1/DTD/svg11.dtd">
<svg xmlns="http://www.w3.org/2000/svg" version="1.1" width="378px" height="349px" style="shape-rendering:geometricPrecision; text-rendering:geometricPrecision; image-rendering:optimizeQuality; fill-rule:evenodd; clip-rule:evenodd" xmlns:xlink="http://www.w3.org/1999/xlink">
<g><path style="opacity:0.237" fill="#535a60" d="M 188.5,51.5 C 183.463,51.4126 178.463,51.746 173.5,52.5C 176.186,51.0092 179.186,50.3425 182.5,50.5C 184.696,50.5046 186.696,50.838 188.5,51.5 Z"/></g>
<g><path style="opacity:0.999" fill="#f1f3f4" d="M 188.5,51.5 C 190.553,51.4021 192.22,52.0687 193.5,53.5C 194.514,54.6737 195.847,55.3404 197.5,55.5C 199.5,56.8333 201.167,58.5 202.5,60.5C 202.942,63.3321 204.275,64.3321 206.5,63.5C 206.833,63.5 207.167,63.5 207.5,63.5C 211.833,63.5 216.167,63.5 220.5,63.5C 225.462,64.31 229.462,66.6433 232.5,70.5C 232.427,72.0269 233.094,73.0269 234.5,73.5C 236.539,74.911 237.539,76.911 237.5,79.5C 237.468,85.1886 237.134,90.8552 236.5,96.5C 235.326,97.5137 234.66,98.847 234.5,100.5C 232.746,104.588 229.746,107.255 225.5,108.5C 223.597,108.796 221.93,109.463 220.5,110.5C 218.537,117.424 217.87,124.757 218.5,132.5C 218.5,133.833 217.833,134.5 216.5,134.5C 193.831,134.667 171.164,134.5 148.5,134C 148,133.5 147.5,133 147,132.5C 146.667,125.5 146.333,118.5 146,111.5C 145.329,110.748 144.496,110.414 143.5,110.5C 142.209,110.737 141.209,110.404 140.5,109.5C 140.027,108.094 139.027,107.427 137.5,107.5C 134.937,107.269 133.27,105.935 132.5,103.5C 132.144,101.81 131.144,100.81 129.5,100.5C 128.662,100.158 128.328,99.4916 128.5,98.5C 128.405,96.2143 127.738,94.2143 126.5,92.5C 126.5,92.1667 126.5,91.8333 126.5,91.5C 126.5,88.5 126.5,85.5 126.5,82.5C 126.5,81.5 126.5,80.5 126.5,79.5C 127.906,79.0269 128.573,78.0269 128.5,76.5C 131.444,69.2228 136.777,64.8895 144.5,63.5C 148.5,63.5 152.5,63.5 156.5,63.5C 156.833,63.5 157.167,63.5 157.5,63.5C 160.235,64.8211 161.902,63.8211 162.5,60.5C 164.995,56.3544 168.661,53.6877 173.5,52.5C 178.463,51.746 183.463,51.4126 188.5,51.5 Z M 204.5,82.5 C 206.5,82.5 207.5,81.5 207.5,79.5C 208.105,77.0259 209.105,74.6926 210.5,72.5C 210.833,72.5 211.167,72.5 211.5,72.5C 217.494,72.1617 222.494,74.1617 226.5,78.5C 226.229,80.3797 226.896,81.713 228.5,82.5C 229.584,89.318 227.584,94.9846 222.5,99.5C 218.08,101.125 213.747,101.792 209.5,101.5C 208.819,109.235 208.152,117.068 207.5,125C 192.494,125.145 177.494,125.312 162.5,125.5C 159.887,125.357 157.553,124.69 155.5,123.5C 155.5,115.833 155.5,108.167 155.5,100.5C 151.531,101.515 147.531,101.515 143.5,100.5C 140.48,98.4768 138.146,95.8102 136.5,92.5C 135.295,88.5132 135.295,84.5132 136.5,80.5C 138.5,78.5 140.5,76.5 142.5,74.5C 144.153,74.3404 145.486,73.6737 146.5,72.5C 148.833,72.5 151.167,72.5 153.5,72.5C 154.209,73.404 155.209,73.7373 156.5,73.5C 156.198,76.0593 156.532,78.3926 157.5,80.5C 158.312,81.9931 159.645,82.6598 161.5,82.5C 163.942,82.7142 165.608,81.7142 166.5,79.5C 167.402,76.0032 168.069,72.3366 168.5,68.5C 176.98,58.3349 185.813,58.0015 195,67.5C 196.891,71.6111 197.891,75.9444 198,80.5C 199.789,82.229 201.956,82.8957 204.5,82.5 Z"/></g>
<g><path style="opacity:0.098" fill="#424849" d="M 193.5,53.5 C 195.38,53.2291 196.713,53.8958 197.5,55.5C 195.847,55.3404 194.514,54.6737 193.5,53.5 Z"/></g>
<g><path style="opacity:0.478" fill="#5e666d" d="M 156.5,63.5 C 152.5,63.5 148.5,63.5 144.5,63.5C 145.261,62.6091 146.261,61.9424 147.5,61.5C 149.5,62.8333 151.5,62.8333 153.5,61.5C 154.739,61.9424 155.739,62.6091 156.5,63.5 Z"/></g>
<g><path style="opacity:0.263" fill="#475254" d="M 202.5,60.5 C 203.872,61.5116 205.205,62.5116 206.5,63.5C 204.275,64.3321 202.942,63.3321 202.5,60.5 Z"/></g>
<g><path style="opacity:0.267" fill="#434855" d="M 220.5,63.5 C 216.167,63.5 211.833,63.5 207.5,63.5C 211.833,60.8333 216.167,60.8333 220.5,63.5 Z"/></g>
<g><path style="opacity:0.337" fill="#6b7275" d="M 162.5,60.5 C 161.902,63.8211 160.235,64.8211 157.5,63.5C 159.411,62.925 161.078,61.925 162.5,60.5 Z"/></g>
<g><path style="opacity:1" fill="#b4bbbf" d="M 211.5,72.5 C 215.298,71.5166 219.298,71.1832 223.5,71.5C 224.199,73.9948 225.199,76.3281 226.5,78.5C 222.494,74.1617 217.494,72.1617 211.5,72.5 Z"/></g>
<g><path style="opacity:0.463" fill="#68677e" d="M 232.5,70.5 C 233.906,70.9731 234.573,71.9731 234.5,73.5C 233.094,73.0269 232.427,72.0269 232.5,70.5 Z"/></g>
<g><path style="opacity:0.02" fill="#4b4e51" d="M 146.5,72.5 C 145.486,73.6737 144.153,74.3404 142.5,74.5C 143.287,72.8958 144.62,72.2291 146.5,72.5 Z"/></g>
<g><path style="opacity:0.196" fill="#53595e" d="M 168.5,68.5 C 168.069,72.3366 167.402,76.0032 166.5,79.5C 166.335,76.1501 166.502,72.8168 167,69.5C 167.383,68.944 167.883,68.6107 168.5,68.5 Z"/></g>
<g><path style="opacity:0.039" fill="#333b3c" d="M 210.5,72.5 C 209.105,74.6926 208.105,77.0259 207.5,79.5C 207.5,77.1667 207.5,74.8333 207.5,72.5C 208.5,72.5 209.5,72.5 210.5,72.5 Z"/></g>
<g><path style="opacity:0.314" fill="#596365" d="M 153.5,72.5 C 154.833,72.5 156.167,72.5 157.5,72.5C 157.5,75.1667 157.5,77.8333 157.5,80.5C 156.532,78.3926 156.198,76.0593 156.5,73.5C 155.209,73.7373 154.209,73.404 153.5,72.5 Z"/></g>
<g><path style="opacity:0.122" fill="#3e4848" d="M 128.5,76.5 C 128.573,78.0269 127.906,79.0269 126.5,79.5C 126.427,77.9731 127.094,76.9731 128.5,76.5 Z"/></g>
<g><path style="opacity:0.392" fill="#5e696e" d="M 226.5,78.5 C 228.104,79.287 228.771,80.6203 228.5,82.5C 226.896,81.713 226.229,80.3797 226.5,78.5 Z"/></g>
<g><path style="opacity:0.004" fill="#2c2e2f" d="M 207.5,79.5 C 207.5,81.5 206.5,82.5 204.5,82.5C 205.167,81.1667 206.167,80.1667 207.5,79.5 Z"/></g>
<g><path style="opacity:0.533" fill="#84898c" d="M 136.5,80.5 C 135.295,84.5132 135.295,88.5132 136.5,92.5C 135.028,90.8825 134.361,88.8825 134.5,86.5C 134.361,84.1175 135.028,82.1175 136.5,80.5 Z"/></g>
<g><path style="opacity:0.424" fill="#505666" d="M 126.5,82.5 C 126.5,85.5 126.5,88.5 126.5,91.5C 125.522,91.189 124.855,90.5223 124.5,89.5C 125.695,88.0325 125.695,86.5325 124.5,85C 124.639,83.699 125.305,82.8656 126.5,82.5 Z"/></g>
<g><path style="opacity:0.986" fill="#8b9196" d="M 237.5,79.5 C 240.288,85.3282 239.955,90.9949 236.5,96.5C 237.134,90.8552 237.468,85.1886 237.5,79.5 Z"/></g>
<g><path style="opacity:0.055" fill="#4e5a5d" d="M 126.5,92.5 C 127.738,94.2143 128.405,96.2143 128.5,98.5C 126.926,96.8984 126.259,94.8984 126.5,92.5 Z"/></g>
<g><path style="opacity:1" fill="#fafcfc" d="M 168.5,98.5 C 170.792,98.2436 172.959,98.5769 175,99.5C 175.499,105.157 175.666,110.824 175.5,116.5C 173.167,116.5 170.833,116.5 168.5,116.5C 168.5,110.5 168.5,104.5 168.5,98.5 Z"/></g>
<g><path style="opacity:0.686" fill="#757f82" d="M 195.5,99.5 C 193.5,99.5 191.5,99.5 189.5,99.5C 191.5,96.8333 193.5,96.8333 195.5,99.5 Z"/></g>
<g><path style="opacity:0.153" fill="#526062" d="M 236.5,96.5 C 236.771,98.3797 236.104,99.713 234.5,100.5C 234.66,98.847 235.326,97.5137 236.5,96.5 Z"/></g>
<g><path style="opacity:1" fill="#f2f5f5" d="M 189.5,99.5 C 191.5,99.5 193.5,99.5 195.5,99.5C 195.5,100.167 195.5,100.833 195.5,101.5C 195.782,106.927 195.449,112.26 194.5,117.5C 193.167,118.833 191.833,118.833 190.5,117.5C 188.621,112.13 187.955,106.463 188.5,100.5C 188.5,99.8333 188.833,99.5 189.5,99.5 Z"/></g>
<g><path style="opacity:0.271" fill="#4f5458" d="M 129.5,100.5 C 131.144,100.81 132.144,101.81 132.5,103.5C 130.856,103.19 129.856,102.19 129.5,100.5 Z"/></g>
<g><path style="opacity:0.337" fill="#666f74" d="M 143.5,100.5 C 147.531,101.515 151.531,101.515 155.5,100.5C 155.5,108.167 155.5,115.833 155.5,123.5C 155.5,124.5 155.5,125.5 155.5,126.5C 154.508,118.684 154.174,110.684 154.5,102.5C 150.511,102.884 146.845,102.217 143.5,100.5 Z"/></g>
<g><path style="opacity:0.2" fill="#3f454b" d="M 188.5,100.5 C 187.955,106.463 188.621,112.13 190.5,117.5C 189.811,118.774 188.977,118.774 188,117.5C 187.182,111.651 187.348,105.985 188.5,100.5 Z"/></g>
<g><path style="opacity:0.505" fill="#858c90" d="M 168.5,98.5 C 168.5,104.5 168.5,110.5 168.5,116.5C 170.833,116.5 173.167,116.5 175.5,116.5C 173.192,118.772 170.525,119.106 167.5,117.5C 167.177,110.978 167.51,104.645 168.5,98.5 Z"/></g>
<g><path style="opacity:0.725" fill="#7f878a" d="M 175.5,116.5 C 175.666,110.824 175.499,105.157 175,99.5C 172.959,98.5769 170.792,98.2436 168.5,98.5C 170.877,95.8763 173.377,95.8763 176,98.5C 176.5,102 177,105.5 177.5,109C 177.354,111.76 176.687,114.26 175.5,116.5 Z"/></g>
<g><path style="opacity:0.306" fill="#5f6b6e" d="M 137.5,107.5 C 139.027,107.427 140.027,108.094 140.5,109.5C 138.973,109.573 137.973,108.906 137.5,107.5 Z"/></g>
<g><path style="opacity:0.02" fill="#4e5457" d="M 225.5,108.5 C 224.365,110.213 222.698,110.88 220.5,110.5C 221.93,109.463 223.597,108.796 225.5,108.5 Z"/></g>
<g><path style="opacity:0.118" fill="#2d393b" d="M 195.5,99.5 C 196.117,99.6107 196.617,99.944 197,100.5C 197.817,106.016 197.651,111.35 196.5,116.5C 196.821,111.305 196.487,106.305 195.5,101.5C 195.5,100.833 195.5,100.167 195.5,99.5 Z"/></g>
<g><path style="opacity:0.686" fill="#a7afb2" d="M 222.5,99.5 C 221.653,100.966 220.32,101.8 218.5,102C 215.854,102.497 213.187,102.664 210.5,102.5C 210.826,110.684 210.492,118.684 209.5,126.5C 209.5,118.167 209.5,109.833 209.5,101.5C 213.747,101.792 218.08,101.125 222.5,99.5 Z"/></g>
<g><path style="opacity:0.714" fill="#979ca6" d="M 195.5,101.5 C 196.487,106.305 196.821,111.305 196.5,116.5C 195.994,118.105 195.327,118.439 194.5,117.5C 195.449,112.26 195.782,106.927 195.5,101.5 Z"/></g>
<g><path style="opacity:0.029" fill="#252a2c" d="M 220.5,110.5 C 219.864,117.933 219.198,125.266 218.5,132.5C 217.87,124.757 218.537,117.424 220.5,110.5 Z"/></g>
<g><path style="opacity:1" fill="#edeff0" d="M 273.5,117.5 C 273.833,117.5 274.167,117.5 274.5,117.5C 276.452,120.118 278.785,122.452 281.5,124.5C 282.338,124.842 282.672,125.508 282.5,126.5C 282.427,128.027 283.094,129.027 284.5,129.5C 284.5,129.833 284.5,130.167 284.5,130.5C 285.307,136.464 285.64,142.464 285.5,148.5C 285.443,149.609 285.11,150.609 284.5,151.5C 283.094,151.973 282.427,152.973 282.5,154.5C 280.225,158.307 276.892,160.641 272.5,161.5C 271.513,166.305 271.179,171.305 271.5,176.5C 276.203,176.437 280.87,176.771 285.5,177.5C 289.226,178.953 291.559,181.619 292.5,185.5C 292.5,187.5 292.5,189.5 292.5,191.5C 294.833,191.5 297.167,191.5 299.5,191.5C 300.117,191.611 300.617,191.944 301,192.5C 301.667,205.167 301.667,217.833 301,230.5C 300.093,233.572 298.26,235.905 295.5,237.5C 286.201,239.374 277.201,238.708 268.5,235.5C 268.027,234.094 267.027,233.427 265.5,233.5C 264.496,232.317 263.662,230.984 263,229.5C 262.501,225.514 262.334,221.514 262.5,217.5C 262.027,216.094 261.027,215.427 259.5,215.5C 258.778,215.082 258.278,214.416 258,213.5C 258.174,208.626 257.007,204.293 254.5,200.5C 254.027,199.094 253.027,198.427 251.5,198.5C 249.864,197.251 248.697,195.584 248,193.5C 245.565,185.035 248.399,179.369 256.5,176.5C 258.5,176.5 260.5,176.5 262.5,176.5C 262.821,171.305 262.487,166.305 261.5,161.5C 258.454,161.275 256.121,159.942 254.5,157.5C 253.028,154.349 251.028,151.683 248.5,149.5C 245.972,143.615 245.972,137.615 248.5,131.5C 250.245,129.967 251.245,127.967 251.5,125.5C 251.738,123.596 252.738,122.262 254.5,121.5C 256.821,121.342 258.654,120.342 260,118.5C 261.364,119.258 262.531,118.758 263.5,117C 266.849,116.612 270.183,116.779 273.5,117.5 Z M 276.5,137.5 C 277.037,142.266 276.037,146.6 273.5,150.5C 268.03,153.474 263.03,152.807 258.5,148.5C 257.833,145.833 257.167,143.167 256.5,140.5C 257.768,138.095 258.435,135.428 258.5,132.5C 259.906,132.027 260.573,131.027 260.5,129.5C 264.678,124.272 268.844,124.272 273,129.5C 274.076,132.237 275.243,134.904 276.5,137.5 Z M 282.5,188.5 C 282.815,191.211 282.148,193.544 280.5,195.5C 279.711,195.217 279.044,194.717 278.5,194C 272.833,193.667 267.167,193.333 261.5,193C 258.694,191.695 257.86,189.528 259,186.5C 265.752,185.355 272.586,185.189 279.5,186C 280.373,187.045 281.373,187.878 282.5,188.5 Z M 283.5,200.5 C 283.967,203.297 285.633,204.631 288.5,204.5C 289.692,206.113 290.692,207.78 291.5,209.5C 290.713,215.87 290.379,222.203 290.5,228.5C 284.701,230.054 279.034,229.72 273.5,227.5C 273.167,226.833 272.833,226.167 272.5,225.5C 272.422,222.513 273.589,221.847 276,223.5C 277.301,223.361 278.134,222.695 278.5,221.5C 280.027,221.573 281.027,220.906 281.5,219.5C 282.622,217.712 282.789,215.712 282,213.5C 281.329,212.748 280.496,212.414 279.5,212.5C 278.081,211.549 276.415,211.216 274.5,211.5C 274.338,209.473 274.505,207.473 275,205.5C 276.579,206.8 277.745,206.466 278.5,204.5C 279.71,204.068 280.71,203.401 281.5,202.5C 282.167,201.833 282.833,201.167 283.5,200.5 Z"/></g>
<g><path style="opacity:0.996" fill="#b3babd" d="M 273.5,117.5 C 270.183,116.779 266.849,116.612 263.5,117C 262.531,118.758 261.364,119.258 260,118.5C 258.654,120.342 256.821,121.342 254.5,121.5C 258.775,115.91 264.441,114.076 271.5,116C 272.416,116.278 273.082,116.778 273.5,117.5 Z"/></g>
<g><path style="opacity:0.847" fill="#676b73" d="M 274.5,117.5 C 277.855,118.855 280.189,121.189 281.5,124.5C 278.785,122.452 276.452,120.118 274.5,117.5 Z"/></g>
<g><path style="opacity:0.678" fill="#6e757c" d="M 88.5,122.5 C 86.1799,120.774 83.5133,120.107 80.5,120.5C 83.9948,117.663 86.6615,118.33 88.5,122.5 Z"/></g>
<g><path style="opacity:1" fill="#f3f5f6" d="M 80.5,120.5 C 83.5133,120.107 86.1799,120.774 88.5,122.5C 88.5,130.833 88.5,139.167 88.5,147.5C 90.2646,148.461 92.2646,148.795 94.5,148.5C 94.5,139.5 94.5,130.5 94.5,121.5C 97.2585,119.952 99.7585,120.285 102,122.5C 102.5,130.827 102.666,139.16 102.5,147.5C 104.167,147.5 105.833,147.5 107.5,147.5C 108.33,139.01 108.83,130.343 109,121.5C 111.041,120.577 113.208,120.244 115.5,120.5C 116.222,120.918 116.722,121.584 117,122.5C 117.667,131.5 117.667,140.5 117,149.5C 115.543,155.484 111.709,158.484 105.5,158.5C 104.5,158.5 103.5,158.5 102.5,158.5C 102.5,164.5 102.5,170.5 102.5,176.5C 104.5,176.5 106.5,176.5 108.5,176.5C 112.407,177.407 115.074,179.74 116.5,183.5C 116.354,187.519 116.021,191.519 115.5,195.5C 114.856,198.144 113.189,199.811 110.5,200.5C 109.167,200.5 107.833,200.5 106.5,200.5C 106.5,204.833 106.5,209.167 106.5,213.5C 103.406,218.008 101.739,223.008 101.5,228.5C 100.326,229.514 99.6596,230.847 99.5,232.5C 98.1667,233.167 97.1667,234.167 96.5,235.5C 95.3406,237.25 93.674,238.25 91.5,238.5C 84.1319,238.683 76.7985,238.35 69.5,237.5C 68.5,235.833 67.1667,234.5 65.5,233.5C 65.6107,232.883 65.944,232.383 66.5,232C 64.5291,218.747 63.8624,205.247 64.5,191.5C 66.8333,191.5 69.1667,191.5 71.5,191.5C 71.5,190.5 71.5,189.5 71.5,188.5C 73.9979,185.511 75.9979,182.178 77.5,178.5C 77.8417,177.662 78.5084,177.328 79.5,177.5C 84.0102,177.116 88.3435,176.449 92.5,175.5C 93.4896,169.69 93.8229,163.69 93.5,157.5C 91.1667,157.5 88.8333,157.5 86.5,157.5C 86.1667,157.5 85.8333,157.5 85.5,157.5C 84.7377,155.738 83.4044,154.738 81.5,154.5C 81.2914,153.078 80.7914,151.745 80,150.5C 79.5002,141.506 79.3336,132.506 79.5,123.5C 79.5569,122.391 79.8902,121.391 80.5,120.5 Z M 85.5,185.5 C 92.1364,186.616 98.8031,186.616 105.5,185.5C 105.5,186.167 105.833,186.5 106.5,186.5C 107.488,189.539 106.488,191.872 103.5,193.5C 98.5,193.5 93.5,193.5 88.5,193.5C 82.9385,195.319 81.2718,193.319 83.5,187.5C 84.5,187.167 85.1667,186.5 85.5,185.5 Z M 81.5,200.5 C 82.1001,201.9 83.1001,202.9 84.5,203.5C 85.4006,205.727 87.0672,206.727 89.5,206.5C 89.5,207.833 89.5,209.167 89.5,210.5C 87.1133,210.912 85.1133,211.912 83.5,213.5C 80.6628,216.995 81.3295,219.661 85.5,221.5C 87.4519,223.742 89.7852,224.076 92.5,222.5C 92.5,223.167 92.5,223.833 92.5,224.5C 91.3263,225.514 90.6596,226.847 90.5,228.5C 85.5523,229.559 80.5523,229.726 75.5,229C 74.6195,228.292 73.9528,227.458 73.5,226.5C 73.3337,219.159 73.5003,211.826 74,204.5C 74.3333,205.167 74.6667,205.833 75,206.5C 76.6516,205.601 78.1516,204.601 79.5,203.5C 80.9063,203.027 81.573,202.027 81.5,200.5 Z"/></g>
<g><path style="opacity:0.242" fill="#3f484b" d="M 209.5,101.5 C 209.5,109.833 209.5,118.167 209.5,126.5C 191.5,126.5 173.5,126.5 155.5,126.5C 155.5,125.5 155.5,124.5 155.5,123.5C 157.553,124.69 159.887,125.357 162.5,125.5C 177.494,125.312 192.494,125.145 207.5,125C 208.152,117.068 208.819,109.235 209.5,101.5 Z"/></g>
<g><path style="opacity:0.594" fill="#8f969b" d="M 115.5,120.5 C 113.208,120.244 111.041,120.577 109,121.5C 108.83,130.343 108.33,139.01 107.5,147.5C 107.5,140.5 107.5,133.5 107.5,126.5C 106.239,121.598 108.072,118.932 113,118.5C 114.301,118.639 115.134,119.305 115.5,120.5 Z"/></g>
<g><path style="opacity:0.11" fill="#3b4046" d="M 282.5,126.5 C 283.906,126.973 284.573,127.973 284.5,129.5C 283.094,129.027 282.427,128.027 282.5,126.5 Z"/></g>
<g><path style="opacity:0.839" fill="#899093" d="M 251.5,125.5 C 251.245,127.967 250.245,129.967 248.5,131.5C 248.461,128.911 249.461,126.911 251.5,125.5 Z"/></g>
<g><path style="opacity:0.05" fill="#141b1f" d="M 93.5,122.5 C 93.5,130.5 93.5,138.5 93.5,146.5C 93.1667,146.5 92.8333,146.5 92.5,146.5C 91.9586,140.188 91.6253,134.188 91.5,128.5C 91.5992,126.201 92.2658,124.201 93.5,122.5 Z"/></g>
<g><path style="opacity:0.02" fill="#424647" d="M 260.5,129.5 C 260.573,131.027 259.906,132.027 258.5,132.5C 258.427,130.973 259.094,129.973 260.5,129.5 Z"/></g>
<g><path style="opacity:0.067" fill="#292c3b" d="M 79.5,123.5 C 79.3336,132.506 79.5002,141.506 80,150.5C 80.7914,151.745 81.2914,153.078 81.5,154.5C 80.2101,153.942 79.3768,152.942 79,151.5C 78.1757,141.991 78.3424,132.657 79.5,123.5 Z"/></g>
<g><path style="opacity:0.389" fill="#6f777b" d="M 143.5,110.5 C 144.496,110.414 145.329,110.748 146,111.5C 146.333,118.5 146.667,125.5 147,132.5C 147.5,133 148,133.5 148.5,134C 171.164,134.5 193.831,134.667 216.5,134.5C 193.67,135.663 170.67,135.83 147.5,135C 147,134.5 146.5,134 146,133.5C 145.72,128.803 145.22,124.137 144.5,119.5C 145.117,116.526 144.783,113.526 143.5,110.5 Z"/></g>
<g><path style="opacity:0.703" fill="#b0b5b9" d="M 94.5,121.5 C 94.5,130.5 94.5,139.5 94.5,148.5C 92.2646,148.795 90.2646,148.461 88.5,147.5C 90.4147,147.784 92.0813,147.451 93.5,146.5C 93.5,138.5 93.5,130.5 93.5,122.5C 93.5,121.833 93.8333,121.5 94.5,121.5 Z"/></g>
<g><path style="opacity:0.294" fill="#646c72" d="M 284.5,130.5 C 286.03,133.695 286.696,137.195 286.5,141C 286.497,143.69 286.164,146.19 285.5,148.5C 285.64,142.464 285.307,136.464 284.5,130.5 Z"/></g>
<g><path style="opacity:0.157" fill="#3b4249" d="M 258.5,132.5 C 258.435,135.428 257.768,138.095 256.5,140.5C 256.111,137.447 256.777,134.78 258.5,132.5 Z"/></g>
<g><path style="opacity:0.196" fill="#354043" d="M 88.5,122.5 C 89.3895,128.158 90.0562,133.992 90.5,140C 90.4202,141.894 90.0869,143.727 89.5,145.5C 90.325,146.386 91.325,146.719 92.5,146.5C 92.8333,146.5 93.1667,146.5 93.5,146.5C 92.0813,147.451 90.4147,147.784 88.5,147.5C 88.5,139.167 88.5,130.833 88.5,122.5 Z"/></g>
<g><path style="opacity:0.176" fill="#383d45" d="M 107.5,126.5 C 107.5,133.5 107.5,140.5 107.5,147.5C 105.833,147.5 104.167,147.5 102.5,147.5C 102.666,139.16 102.5,130.827 102,122.5C 99.7585,120.285 97.2585,119.952 94.5,121.5C 97.019,117.671 99.8524,117.671 103,121.5C 103.257,127.196 103.757,132.863 104.5,138.5C 102.906,141.443 103.239,144.11 105.5,146.5C 106.167,139.679 106.833,133.012 107.5,126.5 Z"/></g>
<g><path style="opacity:0.999" fill="#f2f4f4" d="M 187.5,143.5 C 188.29,144.401 189.29,145.068 190.5,145.5C 190.833,145.5 191.167,145.5 191.5,145.5C 191.738,147.404 192.738,148.738 194.5,149.5C 195.11,150.391 195.443,151.391 195.5,152.5C 194.582,157.495 196.582,159.828 201.5,159.5C 204.706,160.454 207.706,161.787 210.5,163.5C 211.035,165.446 212.368,166.446 214.5,166.5C 218.792,169.309 222.125,172.975 224.5,177.5C 224.427,179.027 225.094,180.027 226.5,180.5C 228.733,183.39 230.066,186.723 230.5,190.5C 230.119,191.931 229.119,192.764 227.5,193C 196.502,193.5 165.502,193.667 134.5,193.5C 134.5,191.833 134.5,190.167 134.5,188.5C 134.925,185.881 135.925,183.547 137.5,181.5C 138.906,181.027 139.573,180.027 139.5,178.5C 139.427,176.973 140.094,175.973 141.5,175.5C 142.906,175.027 143.573,174.027 143.5,172.5C 143.833,171.5 144.5,170.833 145.5,170.5C 148.089,169.581 150.089,167.914 151.5,165.5C 152.873,165.657 154.207,165.49 155.5,165C 157.043,163.261 158.71,161.761 160.5,160.5C 162.214,159.262 164.214,158.595 166.5,158.5C 167.5,158.5 168.5,158.5 169.5,158.5C 169.5,156.5 169.5,154.5 169.5,152.5C 169.263,151.209 169.596,150.209 170.5,149.5C 172.833,147.833 174.833,145.833 176.5,143.5C 180.268,142.213 183.935,142.213 187.5,143.5 Z M 180.5,154.5 C 181.251,153.427 182.251,153.26 183.5,154C 182.648,155.728 181.648,155.895 180.5,154.5 Z M 197.5,168.5 C 201.354,170.258 205.021,172.258 208.5,174.5C 208.973,175.906 209.973,176.573 211.5,176.5C 212.026,178.23 213.026,179.564 214.5,180.5C 214.5,181.5 214.5,182.5 214.5,183.5C 204.161,183.666 193.828,183.5 183.5,183C 182.244,182.583 181.577,181.75 181.5,180.5C 182.947,179.866 183.613,178.699 183.5,177C 183.613,175.301 182.947,174.134 181.5,173.5C 179.034,172.366 176.367,172.199 173.5,173C 171.68,173.2 170.347,174.034 169.5,175.5C 166.911,175.461 164.911,176.461 163.5,178.5C 161.068,179.75 158.734,181.25 156.5,183C 154.098,183.814 151.765,183.647 149.5,182.5C 150.127,181.583 150.461,180.583 150.5,179.5C 153.545,176.453 156.878,173.787 160.5,171.5C 162.153,171.34 163.486,170.674 164.5,169.5C 166.153,169.34 167.486,168.674 168.5,167.5C 178.264,165.876 187.931,166.21 197.5,168.5 Z"/></g>
<g><path style="opacity:0.153" fill="#494e52" d="M 187.5,143.5 C 189.179,143.285 190.179,143.952 190.5,145.5C 189.29,145.068 188.29,144.401 187.5,143.5 Z"/></g>
<g><path style="opacity:0.549" fill="#565f61" d="M 191.5,145.5 C 193.262,146.262 194.262,147.596 194.5,149.5C 192.738,148.738 191.738,147.404 191.5,145.5 Z"/></g>
<g><path style="opacity:0.553" fill="#677176" d="M 176.5,143.5 C 174.833,145.833 172.833,147.833 170.5,149.5C 171.5,146.5 173.5,144.5 176.5,143.5 Z"/></g>
<g><path style="opacity:0.969" fill="#9fa8a9" d="M 276.5,137.5 C 277.643,140.976 277.81,144.642 277,148.5C 275.887,149.305 274.721,149.972 273.5,150.5C 276.037,146.6 277.037,142.266 276.5,137.5 Z"/></g>
<g><path style="opacity:0.99" fill="#a6afb1" d="M 248.5,149.5 C 251.028,151.683 253.028,154.349 254.5,157.5C 253.504,157.586 252.671,157.252 252,156.5C 250.121,154.473 248.954,152.14 248.5,149.5 Z"/></g>
<g><path style="opacity:1" fill="#9da6aa" d="M 258.5,148.5 C 263.03,152.807 268.03,153.474 273.5,150.5C 272.076,152.715 269.909,153.715 267,153.5C 264.347,153.379 261.847,152.712 259.5,151.5C 258.873,150.583 258.539,149.583 258.5,148.5 Z"/></g>
<g><path style="opacity:0.02" fill="#3e3f45" d="M 180.5,151.5 C 184.5,150.833 186.167,152.5 185.5,156.5C 183.167,156.5 180.833,156.5 178.5,156.5C 178.392,154.486 179.058,152.82 180.5,151.5 Z M 180.5,154.5 C 181.648,155.895 182.648,155.728 183.5,154C 182.251,153.26 181.251,153.427 180.5,154.5 Z"/></g>
<g><path style="opacity:0.016" fill="#293c3e" d="M 195.5,152.5 C 196.163,154.042 196.83,155.709 197.5,157.5C 199.026,157.994 200.359,158.661 201.5,159.5C 196.582,159.828 194.582,157.495 195.5,152.5 Z"/></g>
<g><path style="opacity:0.035" fill="#36393a" d="M 284.5,151.5 C 284.573,153.027 283.906,154.027 282.5,154.5C 282.427,152.973 283.094,151.973 284.5,151.5 Z"/></g>
<g><path style="opacity:0.178" fill="#2f323a" d="M 169.5,152.5 C 169.5,154.5 169.5,156.5 169.5,158.5C 168.5,158.5 167.5,158.5 166.5,158.5C 167.13,156.25 168.13,154.25 169.5,152.5 Z"/></g>
<g><path style="opacity:0.349" fill="#4e5657" d="M 81.5,154.5 C 83.4044,154.738 84.7377,155.738 85.5,157.5C 83.5956,157.262 82.2623,156.262 81.5,154.5 Z"/></g>
<g><path style="opacity:0.275" fill="#5a6065" d="M 86.5,157.5 C 88.8333,157.5 91.1667,157.5 93.5,157.5C 93.8229,163.69 93.4896,169.69 92.5,175.5C 92.5,174.833 92.1667,174.5 91.5,174.5C 92.4726,169.43 92.8059,164.43 92.5,159.5C 90.6755,159.19 88.6755,158.523 86.5,157.5 Z"/></g>
<g><path style="opacity:0.978" fill="#a6afb2" d="M 160.5,160.5 C 158.71,161.761 157.043,163.261 155.5,165C 154.207,165.49 152.873,165.657 151.5,165.5C 153.748,162.607 156.748,160.94 160.5,160.5 Z"/></g>
<g><path style="opacity:0.02" fill="#56595d" d="M 210.5,163.5 C 212.23,164.026 213.564,165.026 214.5,166.5C 212.368,166.446 211.035,165.446 210.5,163.5 Z"/></g>
<g><path style="opacity:0.122" fill="#3b4349" d="M 105.5,158.5 C 103.621,163.87 102.955,169.537 103.5,175.5C 105.415,175.216 107.081,175.549 108.5,176.5C 106.5,176.5 104.5,176.5 102.5,176.5C 102.5,170.5 102.5,164.5 102.5,158.5C 103.5,158.5 104.5,158.5 105.5,158.5 Z"/></g>
<g><path style="opacity:0.098" fill="#5b6368" d="M 197.5,168.5 C 187.931,166.21 178.264,165.876 168.5,167.5C 169.263,166.732 170.263,166.232 171.5,166C 178.833,165.333 186.167,165.333 193.5,166C 195.32,166.2 196.653,167.034 197.5,168.5 Z"/></g>
<g><path style="opacity:0.733" fill="#838f91" d="M 151.5,165.5 C 150.089,167.914 148.089,169.581 145.5,170.5C 146.911,168.086 148.911,166.419 151.5,165.5 Z"/></g>
<g><path style="opacity:0.008" fill="#2d3537" d="M 164.5,169.5 C 163.486,170.674 162.153,171.34 160.5,171.5C 161.287,169.896 162.62,169.229 164.5,169.5 Z"/></g>
<g><path style="opacity:0.314" fill="#656d72" d="M 261.5,161.5 C 262.487,166.305 262.821,171.305 262.5,176.5C 260.5,176.5 258.5,176.5 256.5,176.5C 257.919,175.549 259.585,175.216 261.5,175.5C 261.5,170.833 261.5,166.167 261.5,161.5 Z"/></g>
<g><path style="opacity:0.353" fill="#5f6a6f" d="M 181.5,173.5 C 177.342,173.332 173.342,173.998 169.5,175.5C 170.347,174.034 171.68,173.2 173.5,173C 176.367,172.199 179.034,172.366 181.5,173.5 Z"/></g>
<g><path style="opacity:0.404" fill="#606e74" d="M 143.5,172.5 C 143.573,174.027 142.906,175.027 141.5,175.5C 141.427,173.973 142.094,172.973 143.5,172.5 Z"/></g>
<g><path style="opacity:0.482" fill="#686b6d" d="M 208.5,174.5 C 210.027,174.427 211.027,175.094 211.5,176.5C 209.973,176.573 208.973,175.906 208.5,174.5 Z"/></g>
<g><path style="opacity:0.403" fill="#71787c" d="M 91.5,174.5 C 92.1667,174.5 92.5,174.833 92.5,175.5C 88.3435,176.449 84.0102,177.116 79.5,177.5C 80.6883,176.636 81.8549,175.636 83,174.5C 85.8316,175.786 88.6649,175.786 91.5,174.5 Z"/></g>
<g><path style="opacity:0.399" fill="#5b6368" d="M 272.5,161.5 C 272.5,166.167 272.5,170.833 272.5,175.5C 275.85,175.335 279.183,175.502 282.5,176C 283.737,176.232 284.737,176.732 285.5,177.5C 280.87,176.771 276.203,176.437 271.5,176.5C 271.179,171.305 271.513,166.305 272.5,161.5 Z"/></g>
<g><path style="opacity:0.247" fill="#58696d" d="M 224.5,177.5 C 225.906,177.973 226.573,178.973 226.5,180.5C 225.094,180.027 224.427,179.027 224.5,177.5 Z"/></g>
<g><path style="opacity:0.294" fill="#606a6f" d="M 139.5,178.5 C 139.573,180.027 138.906,181.027 137.5,181.5C 137.427,179.973 138.094,178.973 139.5,178.5 Z"/></g>
<g><path style="opacity:0.02" fill="#414a4e" d="M 163.5,178.5 C 159.593,184.31 154.26,185.977 147.5,183.5C 148.035,181.739 149.035,180.406 150.5,179.5C 150.461,180.583 150.127,181.583 149.5,182.5C 151.765,183.647 154.098,183.814 156.5,183C 158.734,181.25 161.068,179.75 163.5,178.5 Z"/></g>
<g><path style="opacity:0.084" fill="#31393d" d="M 181.5,180.5 C 181.577,181.75 182.244,182.583 183.5,183C 193.828,183.5 204.161,183.666 214.5,183.5C 214.5,182.5 214.5,181.5 214.5,180.5C 215.812,181.145 216.812,182.145 217.5,183.5C 202.511,184.666 187.511,184.833 172.5,184C 175.293,182.346 178.293,181.179 181.5,180.5 Z"/></g>
<g><path style="opacity:0.992" fill="#878b91" d="M 77.5,178.5 C 75.9979,182.178 73.9979,185.511 71.5,188.5C 71.5,187.833 71.5,187.167 71.5,186.5C 72.0789,182.639 74.0789,179.973 77.5,178.5 Z"/></g>
<g><path style="opacity:0.18" fill="#31373b" d="M 85.5,185.5 C 92.1667,184.167 98.8333,184.167 105.5,185.5C 98.8031,186.616 92.1364,186.616 85.5,185.5 Z"/></g>
<g><path style="opacity:0.627" fill="#8f979d" d="M 116.5,183.5 C 117.16,184.964 117.493,186.631 117.5,188.5C 117.684,191.205 117.017,193.538 115.5,195.5C 116.021,191.519 116.354,187.519 116.5,183.5 Z"/></g>
<g><path style="opacity:0.129" fill="#2f363e" d="M 71.5,186.5 C 71.5,187.167 71.5,187.833 71.5,188.5C 71.5,189.5 71.5,190.5 71.5,191.5C 69.1667,191.5 66.8333,191.5 64.5,191.5C 65.9516,190.698 67.6183,190.198 69.5,190C 70.0848,188.698 70.7515,187.531 71.5,186.5 Z"/></g>
<g><path style="opacity:0.149" fill="#464e53" d="M 292.5,185.5 C 293.339,186.641 294.006,187.974 294.5,189.5C 296.291,190.17 297.958,190.837 299.5,191.5C 297.167,191.5 294.833,191.5 292.5,191.5C 292.5,189.5 292.5,187.5 292.5,185.5 Z"/></g>
<g><path style="opacity:0.698" fill="#8c9598" d="M 106.5,186.5 C 107.586,186.62 108.253,187.287 108.5,188.5C 107.954,190.135 107.62,191.801 107.5,193.5C 106.167,193.5 104.833,193.5 103.5,193.5C 106.488,191.872 107.488,189.539 106.5,186.5 Z"/></g>
<g><path style="opacity:0.555" fill="#9ca4a8" d="M 134.5,188.5 C 134.5,190.167 134.5,191.833 134.5,193.5C 165.502,193.667 196.502,193.5 227.5,193C 229.119,192.764 230.119,191.931 230.5,190.5C 231.791,191.542 231.791,192.708 230.5,194C 198.168,194.5 165.835,194.667 133.5,194.5C 133.205,192.265 133.539,190.265 134.5,188.5 Z"/></g>
<g><path style="opacity:0.027" fill="#30353a" d="M 83.5,187.5 C 81.2718,193.319 82.9385,195.319 88.5,193.5C 83.6306,195.249 82.2973,198.583 84.5,203.5C 83.1001,202.9 82.1001,201.9 81.5,200.5C 80.9031,195.706 81.5698,191.373 83.5,187.5 Z"/></g>
<g><path style="opacity:0.616" fill="#6b7275" d="M 251.5,198.5 C 253.027,198.427 254.027,199.094 254.5,200.5C 252.973,200.573 251.973,199.906 251.5,198.5 Z"/></g>
<g><path style="opacity:0.243" fill="#33383a" d="M 282.5,188.5 C 283.483,192.298 283.817,196.298 283.5,200.5C 282.833,201.167 282.167,201.833 281.5,202.5C 281.552,200.097 281.219,197.764 280.5,195.5C 282.148,193.544 282.815,191.211 282.5,188.5 Z"/></g>
<g><path style="opacity:0.999" fill="#ebedee" d="M 230.5,200.5 C 230.5,202.833 230.5,205.167 230.5,207.5C 230.5,208.167 230.167,208.5 229.5,208.5C 197.456,208.819 165.456,208.485 133.5,207.5C 133.298,205.05 133.631,202.717 134.5,200.5C 166.402,199.172 198.402,199.172 230.5,200.5 Z"/></g>
<g><path style="opacity:0.849" fill="#7a8183" d="M 134.5,200.5 C 133.631,202.717 133.298,205.05 133.5,207.5C 130.665,204.68 130.999,202.347 134.5,200.5 Z"/></g>
<g><path style="opacity:0.902" fill="#969ea2" d="M 230.5,200.5 C 231.947,201.134 232.613,202.301 232.5,204C 232.613,205.699 231.947,206.866 230.5,207.5C 230.5,205.167 230.5,202.833 230.5,200.5 Z"/></g>
<g><path style="opacity:0.231" fill="#455054" d="M 84.5,203.5 C 86.6976,203.875 88.6976,204.542 90.5,205.5C 89.8333,205.5 89.5,205.833 89.5,206.5C 87.0672,206.727 85.4006,205.727 84.5,203.5 Z"/></g>
<g><path style="opacity:0.6" fill="#959da2" d="M 110.5,200.5 C 110.5,201.167 110.167,201.5 109.5,201.5C 107.631,203.635 106.964,206.302 107.5,209.5C 107.768,211.099 107.434,212.432 106.5,213.5C 106.5,209.167 106.5,204.833 106.5,200.5C 107.833,200.5 109.167,200.5 110.5,200.5 Z"/></g>
<g><path style="opacity:0.586" fill="#797e82" d="M 278.5,204.5 C 277.745,206.466 276.579,206.8 275,205.5C 274.505,207.473 274.338,209.473 274.5,211.5C 276.415,211.216 278.081,211.549 279.5,212.5C 277.5,212.5 275.5,212.5 273.5,212.5C 273.5,209.833 273.5,207.167 273.5,204.5C 275.167,204.5 276.833,204.5 278.5,204.5 Z"/></g>
<g><path style="opacity:0.035" fill="#253536" d="M 291.5,203.5 C 291.5,205.5 291.5,207.5 291.5,209.5C 290.692,207.78 289.692,206.113 288.5,204.5C 289.391,203.89 290.391,203.557 291.5,203.5 Z"/></g>
<g><path style="opacity:0.02" fill="#242e31" d="M 109.5,201.5 C 108.922,204.28 108.255,206.947 107.5,209.5C 106.964,206.302 107.631,203.635 109.5,201.5 Z"/></g>
<g><path style="opacity:0.618" fill="#7b8288" d="M 133.5,207.5 C 165.456,208.485 197.456,208.819 229.5,208.5C 228.737,209.268 227.737,209.768 226.5,210C 196.5,210.667 166.5,210.667 136.5,210C 135.058,209.623 134.058,208.79 133.5,207.5 Z"/></g>
<g><path style="opacity:0.587" fill="#7f8489" d="M 291.5,203.5 C 292.656,211.323 292.823,219.323 292,227.5C 291.617,228.056 291.117,228.389 290.5,228.5C 290.379,222.203 290.713,215.87 291.5,209.5C 291.5,207.5 291.5,205.5 291.5,203.5 Z"/></g>
<g><path style="opacity:0.261" fill="#586065" d="M 79.5,203.5 C 78.1516,204.601 76.6516,205.601 75,206.5C 74.6667,205.833 74.3333,205.167 74,204.5C 73.5003,211.826 73.3337,219.159 73.5,226.5C 72.508,219.018 72.1746,211.352 72.5,203.5C 74.8333,203.5 77.1667,203.5 79.5,203.5 Z"/></g>
<g><path style="opacity:0.302" fill="#5a5b69" d="M 89.5,210.5 C 89.5,211.167 89.8333,211.5 90.5,211.5C 88.3432,212.407 86.0098,213.073 83.5,213.5C 85.1133,211.912 87.1133,210.912 89.5,210.5 Z"/></g>
<g><path style="opacity:0.544" fill="#707779" d="M 64.5,191.5 C 63.8624,205.247 64.5291,218.747 66.5,232C 65.944,232.383 65.6107,232.883 65.5,233.5C 64.0337,232.653 63.2004,231.32 63,229.5C 62.8333,224.333 62.6667,219.167 62.5,214C 62.316,206.272 62.9826,198.772 64.5,191.5 Z"/></g>
<g><path style="opacity:0.584" fill="#697378" d="M 259.5,215.5 C 261.027,215.427 262.027,216.094 262.5,217.5C 260.973,217.573 259.973,216.906 259.5,215.5 Z"/></g>
<g><path style="opacity:0.878" fill="#889197" d="M 83.5,213.5 C 83.1072,216.513 83.7739,219.18 85.5,221.5C 81.3295,219.661 80.6628,216.995 83.5,213.5 Z"/></g>
<g><path style="opacity:0.447" fill="#747a7f" d="M 279.5,212.5 C 280.496,212.414 281.329,212.748 282,213.5C 282.789,215.712 282.622,217.712 281.5,219.5C 281.606,216.921 280.939,214.588 279.5,212.5 Z"/></g>
<g><path style="opacity:0.337" fill="#4c5154" d="M 85.5,221.5 C 88.0593,221.198 90.3926,221.532 92.5,222.5C 89.7852,224.076 87.4519,223.742 85.5,221.5 Z"/></g>
<g><path style="opacity:0.427" fill="#7a8589" d="M 231.5,223.5 C 198.123,223.181 164.79,223.514 131.5,224.5C 131.611,223.883 131.944,223.383 132.5,223C 165.669,222.169 198.669,222.336 231.5,223.5 Z"/></g>
<g><path style="opacity:0.267" fill="#545a60" d="M 278.5,221.5 C 278.134,222.695 277.301,223.361 276,223.5C 273.589,221.847 272.422,222.513 272.5,225.5C 271.566,224.432 271.232,223.099 271.5,221.5C 273.833,221.5 276.167,221.5 278.5,221.5 Z"/></g>
<g><path style="opacity:1" fill="#f4f6f6" d="M 231.5,223.5 C 232.833,223.5 233.5,224.167 233.5,225.5C 233.5,226.833 233.5,228.167 233.5,229.5C 235.5,229.5 237.5,229.5 239.5,229.5C 247.657,232.423 250.157,238.09 247,246.5C 245.223,248.79 243.056,250.457 240.5,251.5C 236.486,251.334 232.486,251.501 228.5,252C 227.242,253.741 226.242,255.574 225.5,257.5C 222.833,258.833 222.833,260.167 225.5,261.5C 249.169,261.333 272.836,261.5 296.5,262C 300.161,264.837 300.161,267.67 296.5,270.5C 220.499,270.667 144.499,270.5 68.5,270C 66.8446,268.556 66.178,266.722 66.5,264.5C 66.5,263.167 67.1667,262.5 68.5,262.5C 92.169,262.667 115.836,262.5 139.5,262C 141.311,260.959 141.645,259.793 140.5,258.5C 138.065,257.73 136.731,256.063 136.5,253.5C 132.971,251.577 128.971,250.911 124.5,251.5C 120.833,250.5 118.5,248.167 117.5,244.5C 117.342,241.098 117.676,237.764 118.5,234.5C 118.5,233.833 118.833,233.5 119.5,233.5C 120.833,232.833 121.833,231.833 122.5,230.5C 125.428,230.435 128.095,229.768 130.5,228.5C 130.232,226.901 130.566,225.568 131.5,224.5C 164.79,223.514 198.123,223.181 231.5,223.5 Z M 216.5,232.5 C 217.568,233.434 218.901,233.768 220.5,233.5C 220.5,237.5 220.5,241.5 220.5,245.5C 217.917,251.751 213.584,256.418 207.5,259.5C 192.597,261.542 177.597,262.042 162.5,261C 160.482,260.495 158.482,259.995 156.5,259.5C 152.544,257.212 149.211,254.212 146.5,250.5C 145.344,248.176 144.344,245.843 143.5,243.5C 143.335,240.482 143.502,237.482 144,234.5C 145.085,233.707 146.252,233.04 147.5,232.5C 170.481,233.803 193.481,233.803 216.5,232.5 Z M 127.5,238.5 C 129.549,239.641 131.549,239.641 133.5,238.5C 133.5,239.167 133.5,239.833 133.5,240.5C 132.833,240.5 132.5,240.833 132.5,241.5C 130.784,241.629 129.117,241.962 127.5,242.5C 126.167,241.167 126.167,239.833 127.5,238.5 Z M 237.5,238.5 C 236.595,239.964 236.595,241.298 237.5,242.5C 234.712,242.923 232.712,241.923 231.5,239.5C 233.396,238.534 235.396,238.201 237.5,238.5 Z"/></g>
<g><path style="opacity:0.31" fill="#4d5d61" d="M 92.5,224.5 C 92.7709,226.38 92.1042,227.713 90.5,228.5C 90.6596,226.847 91.3263,225.514 92.5,224.5 Z"/></g>
<g><path style="opacity:0.38" fill="#606467" d="M 233.5,225.5 C 234.404,226.209 234.737,227.209 234.5,228.5C 236.415,228.216 238.081,228.549 239.5,229.5C 237.5,229.5 235.5,229.5 233.5,229.5C 233.5,228.167 233.5,226.833 233.5,225.5 Z"/></g>
<g><path style="opacity:0.902" fill="#8c9496" d="M 130.5,228.5 C 128.095,229.768 125.428,230.435 122.5,230.5C 124.78,228.777 127.447,228.111 130.5,228.5 Z"/></g>
<g><path style="opacity:0.325" fill="#767e84" d="M 273.5,227.5 C 279.034,229.72 284.701,230.054 290.5,228.5C 288.429,229.809 285.929,230.475 283,230.5C 280.5,230.333 278,230.167 275.5,230C 274.244,229.583 273.577,228.75 273.5,227.5 Z"/></g>
<g><path style="opacity:0.204" fill="#585e61" d="M 101.5,228.5 C 101.771,230.38 101.104,231.713 99.5,232.5C 99.6596,230.847 100.326,229.514 101.5,228.5 Z"/></g>
<g><path style="opacity:0.455" fill="#62696e" d="M 221.5,232.5 C 219.833,232.5 218.167,232.5 216.5,232.5C 193.481,233.803 170.481,233.803 147.5,232.5C 146.252,233.04 145.085,233.707 144,234.5C 143.502,237.482 143.335,240.482 143.5,243.5C 142.517,239.702 142.183,235.702 142.5,231.5C 169.005,231.169 195.339,231.502 221.5,232.5 Z"/></g>
<g><path style="opacity:0.494" fill="#6d7275" d="M 122.5,230.5 C 121.833,231.833 120.833,232.833 119.5,233.5C 119.5,231.5 120.5,230.5 122.5,230.5 Z"/></g>
<g><path style="opacity:0.486" fill="#5e6768" d="M 265.5,233.5 C 267.027,233.427 268.027,234.094 268.5,235.5C 266.973,235.573 265.973,234.906 265.5,233.5 Z"/></g>
<g><path style="opacity:0.031" fill="#3e3d53" d="M 65.5,233.5 C 67.1667,234.5 68.5,235.833 69.5,237.5C 67.1667,237.167 65.8333,235.833 65.5,233.5 Z"/></g>
<g><path style="opacity:0.024" fill="#474a4c" d="M 99.5,232.5 C 99.5,234.5 98.5,235.5 96.5,235.5C 97.1667,234.167 98.1667,233.167 99.5,232.5 Z"/></g>
<g><path style="opacity:0.067" fill="#333d40" d="M 216.5,232.5 C 218.167,232.5 219.833,232.5 221.5,232.5C 221.818,237.032 221.485,241.366 220.5,245.5C 220.5,241.5 220.5,237.5 220.5,233.5C 218.901,233.768 217.568,233.434 216.5,232.5 Z"/></g>
<g><path style="opacity:0.376" fill="#63636b" d="M 127.5,238.5 C 129.5,237.167 131.5,237.167 133.5,238.5C 131.549,239.641 129.549,239.641 127.5,238.5 Z"/></g>
<g><path style="opacity:0.66" fill="#8c9295" d="M 69.5,237.5 C 76.7985,238.35 84.1319,238.683 91.5,238.5C 85.013,239.654 78.3464,239.821 71.5,239C 70.5842,238.722 69.9175,238.222 69.5,237.5 Z"/></g>
<g><path style="opacity:0.634" fill="#8a9295" d="M 268.5,235.5 C 277.201,238.708 286.201,239.374 295.5,237.5C 295.082,238.222 294.416,238.722 293.5,239C 286.833,239.667 280.167,239.667 273.5,239C 271.119,238.777 269.453,237.61 268.5,235.5 Z"/></g>
<g><path style="opacity:0.455" fill="#667173" d="M 118.5,234.5 C 117.676,237.764 117.342,241.098 117.5,244.5C 116.362,241.696 116.195,238.696 117,235.5C 117.383,234.944 117.883,234.611 118.5,234.5 Z"/></g>
<g><path style="opacity:0.098" fill="#30353d" d="M 237.5,238.5 C 238.833,239.833 238.833,241.167 237.5,242.5C 236.595,241.298 236.595,239.964 237.5,238.5 Z"/></g>
<g><path style="opacity:0.184" fill="#494d50" d="M 133.5,240.5 C 134.404,241.209 134.737,242.209 134.5,243.5C 131.941,243.802 129.607,243.468 127.5,242.5C 129.117,241.962 130.784,241.629 132.5,241.5C 132.5,240.833 132.833,240.5 133.5,240.5 Z"/></g>
<g><path style="opacity:0.247" fill="#5f6568" d="M 237.5,238.5 C 235.396,238.201 233.396,238.534 231.5,239.5C 232.712,241.923 234.712,242.923 237.5,242.5C 235.393,243.468 233.059,243.802 230.5,243.5C 230.5,241.5 230.5,239.5 230.5,237.5C 233.059,237.198 235.393,237.532 237.5,238.5 Z"/></g>
<g><path style="opacity:0.976" fill="#909b9d" d="M 143.5,243.5 C 144.344,245.843 145.344,248.176 146.5,250.5C 143.908,248.964 142.908,246.631 143.5,243.5 Z"/></g>
<g><path style="opacity:0.997" fill="#e6e9e9" d="M 206.5,248.5 C 206.608,250.514 205.942,252.18 204.5,253.5C 204.167,253.5 203.833,253.5 203.5,253.5C 189.5,253.5 175.5,253.5 161.5,253.5C 161.167,253.5 160.833,253.5 160.5,253.5C 158.469,251.751 158.135,249.751 159.5,247.5C 174.661,246.339 189.994,246.172 205.5,247C 206.056,247.383 206.389,247.883 206.5,248.5 Z"/></g>
<g><path style="opacity:0.29" fill="#3e4c4f" d="M 206.5,248.5 C 207.598,249.601 207.765,250.934 207,252.5C 206.329,253.252 205.496,253.586 204.5,253.5C 205.942,252.18 206.608,250.514 206.5,248.5 Z"/></g>
<g><path style="opacity:0.514" fill="#7e868e" d="M 159.5,247.5 C 158.135,249.751 158.469,251.751 160.5,253.5C 158.278,253.441 157.278,252.275 157.5,250C 157.684,248.624 158.351,247.791 159.5,247.5 Z"/></g>
<g><path style="opacity:0.529" fill="#5f676a" d="M 124.5,251.5 C 128.971,250.911 132.971,251.577 136.5,253.5C 133.079,253.026 129.745,253.026 126.5,253.5C 125.478,253.145 124.811,252.478 124.5,251.5 Z"/></g>
<g><path style="opacity:0.227" fill="#343a3f" d="M 161.5,253.5 C 175.5,253.5 189.5,253.5 203.5,253.5C 203.389,254.117 203.056,254.617 202.5,255C 198.167,255.167 193.833,255.333 189.5,255.5C 180.468,254.651 171.635,254.651 163,255.5C 162.283,254.956 161.783,254.289 161.5,253.5 Z"/></g>
<g><path style="opacity:0.016" fill="#525c5e" d="M 240.5,251.5 C 236.787,253.027 232.787,254.027 228.5,254.5C 227.812,255.855 226.812,256.855 225.5,257.5C 226.242,255.574 227.242,253.741 228.5,252C 232.486,251.501 236.486,251.334 240.5,251.5 Z"/></g>
<g><path style="opacity:0.027" fill="#343442" d="M 225.5,257.5 C 225.5,258.833 225.5,260.167 225.5,261.5C 222.833,260.167 222.833,258.833 225.5,257.5 Z"/></g>
<g><path style="opacity:0.227" fill="#4d565a" d="M 140.5,258.5 C 141.645,259.793 141.311,260.959 139.5,262C 115.836,262.5 92.169,262.667 68.5,262.5C 91.6631,261.668 114.996,261.168 138.5,261C 139.381,260.292 140.047,259.458 140.5,258.5 Z"/></g>
<g><path style="opacity:0.379" fill="#747c81" d="M 156.5,259.5 C 158.482,259.995 160.482,260.495 162.5,261C 177.597,262.042 192.597,261.542 207.5,259.5C 206.319,261.067 204.653,261.901 202.5,262C 195.667,262.167 188.833,262.333 182,262.5C 173.877,262.104 165.877,262.104 158,262.5C 157.487,261.473 156.987,260.473 156.5,259.5 Z"/></g>
<g><path style="opacity:0.177" fill="#43494e" d="M 66.5,264.5 C 66.178,266.722 66.8446,268.556 68.5,270C 144.499,270.5 220.499,270.667 296.5,270.5C 246.806,271.173 196.973,271.84 147,272.5C 120.53,271.68 94.03,271.18 67.5,271C 65.3918,268.984 65.0584,266.817 66.5,264.5 Z"/></g>
<g><path style="opacity:1" fill="#fdfefe" d="M 251.5,282.5 C 252.369,284.717 252.702,287.05 252.5,289.5C 252.167,289.5 251.833,289.5 251.5,289.5C 190.166,289.667 128.832,289.5 67.5,289C 66.4238,287.274 66.2571,285.441 67,283.5C 68.073,284.28 69.2396,284.113 70.5,283C 130.832,282.5 191.166,282.333 251.5,282.5 Z"/></g>
<g><path style="opacity:1" fill="#d5d9da" d="M 268.5,280.5 C 272.516,279.9 276.016,280.9 279,283.5C 279.896,286.025 279.396,288.192 277.5,290C 273.833,290.667 270.167,290.667 266.5,290C 263.743,286.107 264.409,282.94 268.5,280.5 Z"/></g>
<g><path style="opacity:0.835" fill="#808c8e" d="M 251.5,281.5 C 255.07,283.776 255.403,286.442 252.5,289.5C 252.702,287.05 252.369,284.717 251.5,282.5C 251.5,282.167 251.5,281.833 251.5,281.5 Z"/></g>
<g><path style="opacity:0.992" fill="#b6bec1" d="M 291.5,282.5 C 293.669,279.932 296.002,279.932 298.5,282.5C 300.495,289.171 298.162,291.505 291.5,289.5C 288.932,287.002 288.932,284.669 291.5,282.5 Z"/></g>
<g><path style="opacity:0.998" fill="#fafdfd" d="M 291.5,282.5 C 293.924,283.03 296.257,283.864 298.5,285C 297.663,286.011 297.33,287.178 297.5,288.5C 295.801,288.66 294.134,288.494 292.5,288C 292.435,286.171 292.102,284.338 291.5,282.5 Z"/></g>
<g><path style="opacity:0.821" fill="#90979b" d="M 251.5,281.5 C 251.5,281.833 251.5,282.167 251.5,282.5C 191.166,282.333 130.832,282.5 70.5,283C 69.2396,284.113 68.073,284.28 67,283.5C 66.2571,285.441 66.4238,287.274 67.5,289C 128.832,289.5 190.166,289.667 251.5,289.5C 250.737,290.268 249.737,290.768 248.5,291C 188.5,291.667 128.5,291.667 68.5,291C 63.1667,287.667 63.1667,284.333 68.5,281C 129.57,280.171 190.57,280.338 251.5,281.5 Z"/></g>
</svg>
