<?xml version="1.0" encoding="UTF-8"?>
<!DOCTYPE svg PUBLIC "-//W3C//DTD SVG 1.1//EN" "http://www.w3.org/Graphics/SVG/1.1/DTD/svg11.dtd">
<svg xmlns="http://www.w3.org/2000/svg" version="1.1" width="374px" height="261px" style="shape-rendering:geometricPrecision; text-rendering:geometricPrecision; image-rendering:optimizeQuality; fill-rule:evenodd; clip-rule:evenodd" xmlns:xlink="http://www.w3.org/1999/xlink">
<g><path style="opacity:0.714" fill="#5a6061" d="M 181.5,28.5 C 179.167,28.8333 177.833,30.1667 177.5,32.5C 176.082,30.0124 176.916,28.3458 180,27.5C 180.765,27.5699 181.265,27.9033 181.5,28.5 Z"/></g>
<g><path style="opacity:0.996" fill="#c9cfd1" d="M 181.5,28.5 C 182.649,28.7911 183.316,29.6244 183.5,31C 183.667,33.5 182.5,34.6667 180,34.5C 178.624,34.3158 177.791,33.6491 177.5,32.5C 177.833,30.1667 179.167,28.8333 181.5,28.5 Z"/></g>
<g><path style="opacity:0.004" fill="#000000" d="M 174.5,31.5 C 175.833,32.1667 175.833,32.1667 174.5,31.5 Z"/></g>
<g><path style="opacity:0.998" fill="#a5abad" d="M 133.5,31.5 C 139.555,30.9421 140.888,33.1088 137.5,38C 132.795,38.1057 131.462,35.939 133.5,31.5 Z"/></g>
<g><path style="opacity:1" fill="#cad0d0" d="M 227.5,36.5 C 225.833,36.5 224.167,36.5 222.5,36.5C 222.5,35.1667 222.5,33.8333 222.5,32.5C 226.588,30.9256 228.255,32.2589 227.5,36.5 Z"/></g>
<g><path style="opacity:0.824" fill="#83888b" d="M 222.5,32.5 C 222.5,33.8333 222.5,35.1667 222.5,36.5C 224.167,36.5 225.833,36.5 227.5,36.5C 224.74,39.1585 222.406,38.6585 220.5,35C 221.066,34.0053 221.733,33.172 222.5,32.5 Z"/></g>
<g><path style="opacity:1" fill="#dfe1e2" d="M 194.5,56.5 C 197.589,57.7846 200.922,58.4512 204.5,58.5C 217.097,61.2973 228.097,66.9639 237.5,75.5C 237.833,76.5 238.5,77.1667 239.5,77.5C 242.823,79.8242 245.823,82.4908 248.5,85.5C 248.427,87.0269 249.094,88.0269 250.5,88.5C 251.5,88.8333 252.167,89.5 252.5,90.5C 252.427,92.0269 253.094,93.0269 254.5,93.5C 270.038,113.477 276.038,136.143 272.5,161.5C 271.313,164.946 270.646,168.613 270.5,172.5C 270.233,174.965 269.566,177.299 268.5,179.5C 267.069,180.78 266.402,182.447 266.5,184.5C 258.37,203.788 245.37,218.788 227.5,229.5C 225.973,229.427 224.973,230.094 224.5,231.5C 205.623,241.625 185.623,244.958 164.5,241.5C 162.095,240.232 159.428,239.565 156.5,239.5C 155.167,239.167 153.833,238.833 152.5,238.5C 150.824,236.166 148.491,235.166 145.5,235.5C 119.977,224.828 102.311,206.495 92.5,180.5C 92.7406,178.102 92.0739,176.102 90.5,174.5C 89.6993,172.958 89.366,171.292 89.5,169.5C 89.3755,164.951 88.7089,160.618 87.5,156.5C 87.5,151.167 87.5,145.833 87.5,140.5C 88.4614,138.735 88.7947,136.735 88.5,134.5C 88.5465,131.031 89.2132,127.698 90.5,124.5C 92.0739,122.898 92.7406,120.898 92.5,118.5C 93.743,113.75 95.743,109.416 98.5,105.5C 102.05,102.763 104.383,99.0962 105.5,94.5C 105.738,92.5956 106.738,91.2623 108.5,90.5C 110.587,89.4154 111.92,87.7488 112.5,85.5C 118.158,78.5058 124.825,72.6725 132.5,68C 138.801,64.2892 145.467,61.4558 152.5,59.5C 158.371,58.5289 164.037,57.1956 169.5,55.5C 177.93,54.0791 186.263,54.4125 194.5,56.5 Z M 186.5,62.5 C 191.167,63.1667 195.833,63.8333 200.5,64.5C 202.515,65.9238 204.848,66.5905 207.5,66.5C 213.666,69.1145 219.666,72.1145 225.5,75.5C 225.973,76.9063 226.973,77.573 228.5,77.5C 229.262,79.2624 230.596,80.2624 232.5,80.5C 233.585,82.5869 235.251,83.9202 237.5,84.5C 238.484,86.4799 239.817,88.1466 241.5,89.5C 241.973,90.9063 242.973,91.573 244.5,91.5C 249.655,98.4666 254.322,105.8 258.5,113.5C 258.402,115.553 259.069,117.22 260.5,118.5C 272.129,154.982 264.462,186.649 237.5,213.5C 235.251,214.08 233.585,215.413 232.5,217.5C 223.997,222.973 214.997,227.64 205.5,231.5C 203.214,231.595 201.214,232.262 199.5,233.5C 195.167,234.167 190.833,234.833 186.5,235.5C 185.2,233.777 184.533,231.61 184.5,229C 185.03,222.581 185.03,216.081 184.5,209.5C 199.653,209.727 212.486,204.394 223,193.5C 225.503,190.498 227.503,187.165 229,183.5C 230.612,165.553 230.946,147.553 230,129.5C 228.117,122.784 223.95,118.117 217.5,115.5C 213.11,113.627 208.444,113.127 203.5,114C 202.244,114.417 201.577,115.25 201.5,116.5C 201.5,117.5 201.5,118.5 201.5,119.5C 201.611,120.117 201.944,120.617 202.5,121C 206.152,121.499 209.818,121.665 213.5,121.5C 218.131,123.135 221.465,126.135 223.5,130.5C 223.791,136.923 223.458,143.256 222.5,149.5C 222.167,149.5 221.833,149.5 221.5,149.5C 219.033,149.755 217.033,150.755 215.5,152.5C 208.208,155.456 203.874,160.79 202.5,168.5C 201.833,178.674 201.167,189.008 200.5,199.5C 197.984,200.33 195.65,201.33 193.5,202.5C 181.621,203.264 169.954,202.264 158.5,199.5C 158.811,188.086 158.477,176.752 157.5,165.5C 157.573,163.973 156.906,162.973 155.5,162.5C 153.402,158.566 150.402,155.4 146.5,153C 147.34,151.334 146.84,151.167 145,152.5C 142.874,150.623 140.374,149.623 137.5,149.5C 137.334,142.825 137.5,136.158 138,129.5C 139.332,127.34 140.832,125.34 142.5,123.5C 144.153,123.34 145.486,122.674 146.5,121.5C 150.182,121.665 153.848,121.499 157.5,121C 159.553,119.322 159.887,117.489 158.5,115.5C 158.389,114.883 158.056,114.383 157.5,114C 152.428,113.249 147.428,113.582 142.5,115C 141.944,115.383 141.611,115.883 141.5,116.5C 137.254,117.745 134.254,120.412 132.5,124.5C 130.926,126.102 130.259,128.102 130.5,130.5C 129.742,141.215 129.409,151.881 129.5,162.5C 130.296,169.117 130.796,175.783 131,182.5C 131.847,184.193 132.68,185.86 133.5,187.5C 133.427,189.027 134.094,190.027 135.5,190.5C 136.167,191.5 136.833,192.5 137.5,193.5C 137.973,194.906 138.973,195.573 140.5,195.5C 141.911,197.914 143.911,199.581 146.5,200.5C 146.973,201.906 147.973,202.573 149.5,202.5C 157.548,208.096 166.548,210.43 176.5,209.5C 176.5,218.167 176.5,226.833 176.5,235.5C 174.833,235.5 173.167,235.5 171.5,235.5C 167.888,234.578 164.221,233.911 160.5,233.5C 158.786,232.262 156.786,231.595 154.5,231.5C 148.621,229.485 142.954,226.985 137.5,224C 132.602,220.255 127.602,216.755 122.5,213.5C 122.5,211.5 121.5,210.5 119.5,210.5C 119.5,209.833 119.167,209.5 118.5,209.5C 118.573,207.973 117.906,206.973 116.5,206.5C 114.5,204.167 112.5,201.833 110.5,199.5C 110.573,197.973 109.906,196.973 108.5,196.5C 108.573,194.973 107.906,193.973 106.5,193.5C 105.008,189.182 103.008,185.182 100.5,181.5C 100.598,179.447 99.9313,177.78 98.5,176.5C 98.0372,173.67 97.3705,171.003 96.5,168.5C 96.1916,164.64 95.5249,160.974 94.5,157.5C 93.8489,113.763 113.516,83.4294 153.5,66.5C 155.786,66.405 157.786,65.7384 159.5,64.5C 161.216,64.3713 162.883,64.038 164.5,63.5C 171.804,62.6979 179.138,62.3646 186.5,62.5 Z M 183.5,101.5 C 184.795,102.488 186.128,103.488 187.5,104.5C 188.929,107.308 189.595,110.308 189.5,113.5C 189.5,113.833 189.5,114.167 189.5,114.5C 188.263,115.965 187.263,117.632 186.5,119.5C 183.028,122.669 179.362,123.002 175.5,120.5C 173.926,119.016 172.593,117.349 171.5,115.5C 171.342,112.098 171.676,108.764 172.5,105.5C 173.167,104.167 174.167,103.167 175.5,102.5C 178.054,101.612 180.721,101.279 183.5,101.5 Z M 170.5,147.5 C 168.871,149.196 169.204,150.196 171.5,150.5C 171.557,151.609 171.89,152.609 172.5,153.5C 172.166,156.491 173.166,158.824 175.5,160.5C 175.5,161.167 175.5,161.833 175.5,162.5C 174.5,161.833 173.5,161.167 172.5,160.5C 172.262,158.596 171.262,157.262 169.5,156.5C 169.167,156.5 168.833,156.5 168.5,156.5C 167.183,154.518 167.183,152.518 168.5,150.5C 168.547,148.962 167.88,147.962 166.5,147.5C 166.167,147.5 165.833,147.5 165.5,147.5C 164.174,146.021 162.841,145.355 161.5,145.5C 163.319,143.912 165.153,142.246 167,140.5C 168.276,142.858 169.442,145.192 170.5,147.5 Z M 194.5,140.5 C 195.5,142.167 196.833,143.5 198.5,144.5C 196.651,145.593 194.984,146.926 193.5,148.5C 192.193,150.223 192.193,152.057 193.5,154C 190.964,156.705 188.297,159.205 185.5,161.5C 186.192,158.064 187.192,154.73 188.5,151.5C 190.074,149.898 190.741,147.898 190.5,145.5C 191.6,144.395 192.267,143.062 192.5,141.5C 193.167,141.167 193.833,140.833 194.5,140.5 Z M 183.5,144.5 C 182.89,145.391 182.557,146.391 182.5,147.5C 180.787,148.635 180.12,150.302 180.5,152.5C 179.833,152.5 179.5,152.167 179.5,151.5C 179.293,148.759 178.293,146.426 176.5,144.5C 176.5,144.167 176.5,143.833 176.5,143.5C 176.611,142.883 176.944,142.383 177.5,142C 179.473,141.505 181.473,141.338 183.5,141.5C 183.5,142.5 183.5,143.5 183.5,144.5 Z M 138.5,157.5 C 139.93,158.537 141.597,159.204 143.5,159.5C 144.833,161.5 146.5,163.167 148.5,164.5C 149.263,166.368 150.263,168.035 151.5,169.5C 151.801,177.586 151.467,185.586 150.5,193.5C 149.833,193.5 149.167,193.5 148.5,193.5C 146.167,190.5 143.5,187.833 140.5,185.5C 139.5,182.833 138.5,180.167 137.5,177.5C 137.176,170.646 137.509,163.979 138.5,157.5 Z M 220.5,157.5 C 221.609,157.557 222.609,157.89 223.5,158.5C 223.5,164.5 223.5,170.5 223.5,176.5C 221.175,184.669 216.342,191.003 209,195.5C 208.323,186.622 208.49,177.622 209.5,168.5C 210.737,167.035 211.737,165.368 212.5,163.5C 214.908,161.084 217.574,159.084 220.5,157.5 Z"/></g>
<g><path style="opacity:0.212" fill="#525a5e" d="M 194.5,56.5 C 198.122,56.322 201.456,56.9886 204.5,58.5C 200.922,58.4512 197.589,57.7846 194.5,56.5 Z"/></g>
<g><path style="opacity:0.627" fill="#82888a" d="M 169.5,55.5 C 164.037,57.1956 158.371,58.5289 152.5,59.5C 157.788,57.0675 163.455,55.7341 169.5,55.5 Z"/></g>
<g><path style="opacity:0.322" fill="#5a5f60" d="M 186.5,62.5 C 179.138,62.3646 171.804,62.6979 164.5,63.5C 168.56,61.983 172.893,61.3164 177.5,61.5C 180.686,61.502 183.686,61.8353 186.5,62.5 Z"/></g>
<g><path style="opacity:0.678" fill="#757a7c" d="M 200.5,64.5 C 203.152,64.4095 205.485,65.0762 207.5,66.5C 204.848,66.5905 202.515,65.9238 200.5,64.5 Z"/></g>
<g><path style="opacity:0.999" fill="#bcc2c3" d="M 86.5,64.5 C 89.8332,63.8333 91.8332,65.1667 92.5,68.5C 90.7642,72.6369 88.2642,73.3036 85,70.5C 84.2516,68.1599 84.7516,66.1599 86.5,64.5 Z"/></g>
<g><path style="opacity:0.137" fill="#3e4044" d="M 159.5,64.5 C 157.786,65.7384 155.786,66.405 153.5,66.5C 155.102,64.9261 157.102,64.2594 159.5,64.5 Z"/></g>
<g><path style="opacity:0.996" fill="#c2cacc" d="M 270.5,64.5 C 276.016,64.4734 277.349,66.64 274.5,71C 268.681,71.5262 267.348,69.3595 270.5,64.5 Z"/></g>
<g><path style="opacity:0.004" fill="#323536" d="M 237.5,75.5 C 238.833,75.5 239.5,76.1667 239.5,77.5C 238.5,77.1667 237.833,76.5 237.5,75.5 Z"/></g>
<g><path style="opacity:0.322" fill="#4f5456" d="M 225.5,75.5 C 227.027,75.427 228.027,76.0937 228.5,77.5C 226.973,77.573 225.973,76.9063 225.5,75.5 Z"/></g>
<g><path style="opacity:1" fill="#dbddde" d="M 214.5,85.5 C 214.973,86.9063 215.973,87.573 217.5,87.5C 218.167,87.8333 218.833,88.1667 219.5,88.5C 219.973,89.9063 220.973,90.573 222.5,90.5C 234.431,98.0976 243.098,108.431 248.5,121.5C 248.69,124.855 249.69,127.855 251.5,130.5C 251.41,133.152 252.076,135.485 253.5,137.5C 257.385,158.632 253.051,177.965 240.5,195.5C 239.094,195.973 238.427,196.973 238.5,198.5C 230.268,209.61 219.602,217.277 206.5,221.5C 204.447,221.402 202.78,222.069 201.5,223.5C 197.815,225.292 194.148,225.625 190.5,224.5C 189.699,222.958 189.366,221.292 189.5,219.5C 194.704,217.838 200.038,216.171 205.5,214.5C 208.899,214.391 211.566,213.058 213.5,210.5C 214.899,209.11 216.566,208.11 218.5,207.5C 220.749,206.92 222.415,205.587 223.5,203.5C 223.833,202.5 224.5,201.833 225.5,201.5C 227.833,201.167 229.167,199.833 229.5,197.5C 229.833,196.5 230.5,195.833 231.5,195.5C 233.587,194.415 234.92,192.749 235.5,190.5C 239.677,183.152 243.01,175.485 245.5,167.5C 246.222,167.082 246.722,166.416 247,165.5C 247.498,162.518 247.665,159.518 247.5,156.5C 247.554,149.424 246.887,142.424 245.5,135.5C 245.975,132.918 245.308,130.918 243.5,129.5C 243.5,129.167 243.5,128.833 243.5,128.5C 243.598,126.447 242.931,124.78 241.5,123.5C 237.26,116.044 232.26,109.044 226.5,102.5C 225.738,100.738 224.404,99.7376 222.5,99.5C 219.953,98.0664 217.619,96.3998 215.5,94.5C 215.027,93.0937 214.027,92.427 212.5,92.5C 208.937,91.7176 205.603,90.3843 202.5,88.5C 200.898,86.9261 198.898,86.2594 196.5,86.5C 182.193,83.2538 168.193,84.2538 154.5,89.5C 152.62,89.2291 151.287,89.8958 150.5,91.5C 130.999,101.537 118.999,117.204 114.5,138.5C 112.983,142.56 112.316,146.893 112.5,151.5C 112.278,155.797 112.945,159.797 114.5,163.5C 116.576,173.982 120.576,183.649 126.5,192.5C 127.757,195.427 129.757,197.761 132.5,199.5C 141.456,207.813 151.789,213.813 163.5,217.5C 165.562,218.776 167.896,219.61 170.5,220C 171.337,221.011 171.67,222.178 171.5,223.5C 171.389,224.117 171.056,224.617 170.5,225C 152.258,223.879 137.258,216.379 125.5,202.5C 125.573,200.973 124.906,199.973 123.5,199.5C 119.363,196.017 116.363,191.684 114.5,186.5C 114.771,184.62 114.104,183.287 112.5,182.5C 111.559,180.95 110.893,179.284 110.5,177.5C 110.59,174.848 109.924,172.515 108.5,170.5C 104.584,157.536 104.584,144.536 108.5,131.5C 110.074,129.898 110.741,127.898 110.5,125.5C 110.893,123.716 111.559,122.05 112.5,120.5C 113.906,120.027 114.573,119.027 114.5,117.5C 120.392,104.941 129.392,95.2743 141.5,88.5C 144.582,87.9831 147.582,87.1498 150.5,86C 150.167,85.6667 149.833,85.3333 149.5,85C 152.872,83.9811 155.872,82.4811 158.5,80.5C 158.833,80.5 159.167,80.5 159.5,80.5C 162.428,80.4349 165.095,79.7682 167.5,78.5C 183.967,75.5225 199.634,77.8558 214.5,85.5 Z M 183.5,101.5 C 184.795,102.488 186.128,103.488 187.5,104.5C 188.929,107.308 189.595,110.308 189.5,113.5C 189.5,113.833 189.5,114.167 189.5,114.5C 188.263,115.965 187.263,117.632 186.5,119.5C 183.028,122.669 179.362,123.002 175.5,120.5C 173.926,119.016 172.593,117.349 171.5,115.5C 171.342,112.098 171.676,108.764 172.5,105.5C 173.167,104.167 174.167,103.167 175.5,102.5C 178.054,101.612 180.721,101.279 183.5,101.5 Z M 170.5,147.5 C 168.871,149.196 169.204,150.196 171.5,150.5C 171.557,151.609 171.89,152.609 172.5,153.5C 172.166,156.491 173.166,158.824 175.5,160.5C 175.5,161.167 175.5,161.833 175.5,162.5C 174.5,161.833 173.5,161.167 172.5,160.5C 172.262,158.596 171.262,157.262 169.5,156.5C 169.167,156.5 168.833,156.5 168.5,156.5C 167.183,154.518 167.183,152.518 168.5,150.5C 168.547,148.962 167.88,147.962 166.5,147.5C 166.167,147.5 165.833,147.5 165.5,147.5C 164.174,146.021 162.841,145.355 161.5,145.5C 163.319,143.912 165.153,142.246 167,140.5C 168.276,142.858 169.442,145.192 170.5,147.5 Z M 194.5,140.5 C 195.5,142.167 196.833,143.5 198.5,144.5C 196.651,145.593 194.984,146.926 193.5,148.5C 192.193,150.223 192.193,152.057 193.5,154C 190.964,156.705 188.297,159.205 185.5,161.5C 186.192,158.064 187.192,154.73 188.5,151.5C 190.074,149.898 190.741,147.898 190.5,145.5C 191.6,144.395 192.267,143.062 192.5,141.5C 193.167,141.167 193.833,140.833 194.5,140.5 Z M 183.5,144.5 C 182.89,145.391 182.557,146.391 182.5,147.5C 180.787,148.635 180.12,150.302 180.5,152.5C 179.833,152.5 179.5,152.167 179.5,151.5C 179.293,148.759 178.293,146.426 176.5,144.5C 176.5,144.167 176.5,143.833 176.5,143.5C 176.611,142.883 176.944,142.383 177.5,142C 179.473,141.505 181.473,141.338 183.5,141.5C 183.5,142.5 183.5,143.5 183.5,144.5 Z M 138.5,157.5 C 139.93,158.537 141.597,159.204 143.5,159.5C 144.833,161.5 146.5,163.167 148.5,164.5C 149.263,166.368 150.263,168.035 151.5,169.5C 151.801,177.586 151.467,185.586 150.5,193.5C 149.833,193.5 149.167,193.5 148.5,193.5C 146.167,190.5 143.5,187.833 140.5,185.5C 139.5,182.833 138.5,180.167 137.5,177.5C 137.176,170.646 137.509,163.979 138.5,157.5 Z M 220.5,157.5 C 221.609,157.557 222.609,157.89 223.5,158.5C 223.5,164.5 223.5,170.5 223.5,176.5C 221.175,184.669 216.342,191.003 209,195.5C 208.323,186.622 208.49,177.622 209.5,168.5C 210.737,167.035 211.737,165.368 212.5,163.5C 214.908,161.084 217.574,159.084 220.5,157.5 Z"/></g>
<g><path style="opacity:0.506" fill="#5d6062" d="M 228.5,77.5 C 230.404,77.7376 231.738,78.7376 232.5,80.5C 230.596,80.2624 229.262,79.2624 228.5,77.5 Z"/></g>
<g><path style="opacity:0.714" fill="#707677" d="M 167.5,78.5 C 165.095,79.7682 162.428,80.4349 159.5,80.5C 161.838,78.9605 164.505,78.2938 167.5,78.5 Z"/></g>
<g><path style="opacity:0.82" fill="#666a6a" d="M 232.5,80.5 C 234.749,81.0798 236.415,82.4131 237.5,84.5C 235.251,83.9202 233.585,82.5869 232.5,80.5 Z"/></g>
<g><path style="opacity:0.993" fill="#aab0b2" d="M 158.5,80.5 C 155.872,82.4811 152.872,83.9811 149.5,85C 149.833,85.3333 150.167,85.6667 150.5,86C 147.582,87.1498 144.582,87.9831 141.5,88.5C 146.472,84.5155 152.139,81.8488 158.5,80.5 Z"/></g>
<g><path style="opacity:0.631" fill="#555b5c" d="M 196.5,86.5 C 198.898,86.2594 200.898,86.9261 202.5,88.5C 200.214,88.405 198.214,87.7384 196.5,86.5 Z"/></g>
<g><path style="opacity:0.18" fill="#3f4647" d="M 214.5,85.5 C 216.027,85.427 217.027,86.0937 217.5,87.5C 215.973,87.573 214.973,86.9063 214.5,85.5 Z"/></g>
<g><path style="opacity:0.478" fill="#424545" d="M 248.5,85.5 C 249.906,85.9731 250.573,86.9731 250.5,88.5C 249.094,88.0269 248.427,87.0269 248.5,85.5 Z"/></g>
<g><path style="opacity:0.576" fill="#64686f" d="M 112.5,85.5 C 111.92,87.7488 110.587,89.4154 108.5,90.5C 109.08,88.2512 110.413,86.5846 112.5,85.5 Z"/></g>
<g><path style="opacity:0.122" fill="#373d3d" d="M 219.5,88.5 C 221.027,88.427 222.027,89.0937 222.5,90.5C 220.973,90.573 219.973,89.9063 219.5,88.5 Z"/></g>
<g><path style="opacity:0.518" fill="#556060" d="M 241.5,89.5 C 243.027,89.427 244.027,90.0937 244.5,91.5C 242.973,91.573 241.973,90.9063 241.5,89.5 Z"/></g>
<g><path style="opacity:0.075" fill="#3f4849" d="M 154.5,89.5 C 153.486,90.6737 152.153,91.3404 150.5,91.5C 151.287,89.8958 152.62,89.2291 154.5,89.5 Z"/></g>
<g><path style="opacity:0.388" fill="#575a5c" d="M 252.5,90.5 C 253.906,90.9731 254.573,91.9731 254.5,93.5C 253.094,93.0269 252.427,92.0269 252.5,90.5 Z"/></g>
<g><path style="opacity:0.345" fill="#5e5e63" d="M 212.5,92.5 C 214.027,92.427 215.027,93.0937 215.5,94.5C 213.973,94.573 212.973,93.9063 212.5,92.5 Z"/></g>
<g><path style="opacity:1" fill="#e2e4e5" d="M 195.5,104.5 C 195.5,109.167 195.5,113.833 195.5,118.5C 194.557,121.4 192.89,123.733 190.5,125.5C 189.29,125.932 188.29,126.599 187.5,127.5C 187.158,128.338 186.492,128.672 185.5,128.5C 181.833,128.5 178.167,128.5 174.5,128.5C 173.833,128.167 173.167,127.833 172.5,127.5C 172.027,126.094 171.027,125.427 169.5,125.5C 161.203,115.515 161.537,105.848 170.5,96.5C 181.645,90.9244 189.978,93.591 195.5,104.5 Z M 183.5,101.5 C 184.795,102.488 186.128,103.488 187.5,104.5C 188.929,107.308 189.595,110.308 189.5,113.5C 189.5,113.833 189.5,114.167 189.5,114.5C 188.263,115.965 187.263,117.632 186.5,119.5C 183.028,122.669 179.362,123.002 175.5,120.5C 173.926,119.016 172.593,117.349 171.5,115.5C 171.342,112.098 171.676,108.764 172.5,105.5C 173.167,104.167 174.167,103.167 175.5,102.5C 178.054,101.612 180.721,101.279 183.5,101.5 Z"/></g>
<g><path style="opacity:0.979" fill="#9da5a6" d="M 105.5,94.5 C 104.383,99.0962 102.05,102.763 98.5,105.5C 100.087,101.317 102.421,97.6505 105.5,94.5 Z"/></g>
<g><path style="opacity:0.62" fill="#525455" d="M 222.5,99.5 C 224.404,99.7376 225.738,100.738 226.5,102.5C 224.596,102.262 223.262,101.262 222.5,99.5 Z"/></g>
<g><path style="opacity:0.122" fill="#42464a" d="M 183.5,101.5 C 180.721,101.279 178.054,101.612 175.5,102.5C 176.334,101.252 177.667,100.585 179.5,100.5C 181.045,100.511 182.378,100.844 183.5,101.5 Z"/></g>
<g><path style="opacity:1" fill="#8e9393" d="M 187.5,104.5 C 189.511,105.417 190.511,107.083 190.5,109.5C 190.489,111.045 190.156,112.378 189.5,113.5C 189.595,110.308 188.929,107.308 187.5,104.5 Z"/></g>
<g><path style="opacity:0.145" fill="#44494b" d="M 172.5,105.5 C 171.676,108.764 171.342,112.098 171.5,115.5C 170.362,112.696 170.195,109.696 171,106.5C 171.383,105.944 171.883,105.611 172.5,105.5 Z"/></g>
<g><path style="opacity:0.753" fill="#6f7577" d="M 195.5,104.5 C 198.039,109.182 198.039,113.849 195.5,118.5C 195.5,113.833 195.5,109.167 195.5,104.5 Z"/></g>
<g><path style="opacity:0.737" fill="#73797c" d="M 158.5,115.5 C 152.773,115.26 147.106,115.593 141.5,116.5C 141.611,115.883 141.944,115.383 142.5,115C 147.428,113.582 152.428,113.249 157.5,114C 158.056,114.383 158.389,114.883 158.5,115.5 Z"/></g>
<g><path style="opacity:0.741" fill="#717779" d="M 217.5,115.5 C 212.073,115.218 206.74,115.551 201.5,116.5C 201.577,115.25 202.244,114.417 203.5,114C 208.444,113.127 213.11,113.627 217.5,115.5 Z"/></g>
<g><path style="opacity:0.263" fill="#45474b" d="M 258.5,113.5 C 259.931,114.78 260.598,116.447 260.5,118.5C 259.069,117.22 258.402,115.553 258.5,113.5 Z"/></g>
<g><path style="opacity:0.839" fill="#888c93" d="M 189.5,114.5 C 190.084,117.285 189.084,118.952 186.5,119.5C 187.263,117.632 188.263,115.965 189.5,114.5 Z"/></g>
<g><path style="opacity:0.212" fill="#505558" d="M 114.5,117.5 C 114.573,119.027 113.906,120.027 112.5,120.5C 112.427,118.973 113.094,117.973 114.5,117.5 Z"/></g>
<g><path style="opacity:0.49" fill="#7f8284" d="M 201.5,119.5 C 205.642,120.04 209.642,120.706 213.5,121.5C 209.818,121.665 206.152,121.499 202.5,121C 201.944,120.617 201.611,120.117 201.5,119.5 Z"/></g>
<g><path style="opacity:0.686" fill="#596063" d="M 92.5,118.5 C 92.7406,120.898 92.0739,122.898 90.5,124.5C 90.595,122.214 91.2616,120.214 92.5,118.5 Z"/></g>
<g><path style="opacity:0.008" fill="#323537" d="M 146.5,121.5 C 145.486,122.674 144.153,123.34 142.5,123.5C 143.287,121.896 144.62,121.229 146.5,121.5 Z"/></g>
<g><path style="opacity:0.667" fill="#94999b" d="M 186.5,119.5 C 186.586,120.496 186.252,121.329 185.5,122C 182.538,123.564 179.538,123.731 176.5,122.5C 175.702,122.043 175.369,121.376 175.5,120.5C 179.362,123.002 183.028,122.669 186.5,119.5 Z"/></g>
<g><path style="opacity:0.161" fill="#2d3030" d="M 169.5,125.5 C 171.027,125.427 172.027,126.094 172.5,127.5C 170.973,127.573 169.973,126.906 169.5,125.5 Z"/></g>
<g><path style="opacity:0.008" fill="#1f1f21" d="M 190.5,125.5 C 190.179,127.048 189.179,127.715 187.5,127.5C 188.29,126.599 189.29,125.932 190.5,125.5 Z"/></g>
<g><path style="opacity:0.322" fill="#4b5558" d="M 241.5,123.5 C 242.931,124.78 243.598,126.447 243.5,128.5C 242.069,127.22 241.402,125.553 241.5,123.5 Z"/></g>
<g><path style="opacity:0.643" fill="#707575" d="M 248.5,121.5 C 250.472,124.084 251.472,127.084 251.5,130.5C 249.69,127.855 248.69,124.855 248.5,121.5 Z"/></g>
<g><path style="opacity:0.592" fill="#4b4f52" d="M 110.5,125.5 C 110.741,127.898 110.074,129.898 108.5,131.5C 108.595,129.214 109.262,127.214 110.5,125.5 Z"/></g>
<g><path style="opacity:0.682" fill="#6f777a" d="M 174.5,128.5 C 178.167,128.5 181.833,128.5 185.5,128.5C 181.833,131.167 178.167,131.167 174.5,128.5 Z"/></g>
<g><path style="opacity:0.011" fill="#151617" d="M 193.5,130.5 C 192.833,130.833 192.167,131.167 191.5,131.5C 190.438,130.425 190.438,129.425 191.5,128.5C 192.522,128.855 193.189,129.522 193.5,130.5 Z"/></g>
<g><path style="opacity:0.506" fill="#707678" d="M 132.5,124.5 C 132.741,126.898 132.074,128.898 130.5,130.5C 130.259,128.102 130.926,126.102 132.5,124.5 Z"/></g>
<g><path style="opacity:0.961" fill="#7b7f83" d="M 243.5,129.5 C 245.308,130.918 245.975,132.918 245.5,135.5C 244.715,133.626 244.048,131.626 243.5,129.5 Z"/></g>
<g><path style="opacity:0.999" fill="#e3e5e6" d="M 171.5,132.5 C 172.99,134.28 174.99,134.946 177.5,134.5C 179.5,134.5 181.5,134.5 183.5,134.5C 186.577,134.821 188.91,133.821 190.5,131.5C 190.833,131.5 191.167,131.5 191.5,131.5C 192.167,131.167 192.833,130.833 193.5,130.5C 199.778,135.44 205.778,140.773 211.5,146.5C 212.941,148.833 212.275,150.166 209.5,150.5C 206.933,150.721 204.599,151.388 202.5,152.5C 201.398,155.807 199.565,158.807 197,161.5C 191.914,166.586 186.748,171.752 181.5,177C 180.5,177.667 179.5,177.667 178.5,177C 175.129,173.717 172.129,170.217 169.5,166.5C 169.027,165.094 168.027,164.427 166.5,164.5C 162.632,160.991 159.632,156.991 157.5,152.5C 155.485,151.076 153.152,150.41 150.5,150.5C 150.167,150.5 149.833,150.5 149.5,150.5C 148.89,149.609 148.557,148.609 148.5,147.5C 154.771,141.73 160.938,135.73 167,129.5C 168.409,130.781 169.909,131.781 171.5,132.5 Z M 170.5,147.5 C 168.871,149.196 169.204,150.196 171.5,150.5C 171.557,151.609 171.89,152.609 172.5,153.5C 172.166,156.491 173.166,158.824 175.5,160.5C 175.5,161.167 175.5,161.833 175.5,162.5C 174.5,161.833 173.5,161.167 172.5,160.5C 172.262,158.596 171.262,157.262 169.5,156.5C 169.167,156.5 168.833,156.5 168.5,156.5C 167.183,154.518 167.183,152.518 168.5,150.5C 168.547,148.962 167.88,147.962 166.5,147.5C 166.167,147.5 165.833,147.5 165.5,147.5C 164.174,146.021 162.841,145.355 161.5,145.5C 163.319,143.912 165.153,142.246 167,140.5C 168.276,142.858 169.442,145.192 170.5,147.5 Z M 194.5,140.5 C 195.5,142.167 196.833,143.5 198.5,144.5C 196.651,145.593 194.984,146.926 193.5,148.5C 192.193,150.223 192.193,152.057 193.5,154C 190.964,156.705 188.297,159.205 185.5,161.5C 186.192,158.064 187.192,154.73 188.5,151.5C 190.074,149.898 190.741,147.898 190.5,145.5C 191.6,144.395 192.267,143.062 192.5,141.5C 193.167,141.167 193.833,140.833 194.5,140.5 Z M 183.5,144.5 C 182.89,145.391 182.557,146.391 182.5,147.5C 180.787,148.635 180.12,150.302 180.5,152.5C 179.833,152.5 179.5,152.167 179.5,151.5C 179.293,148.759 178.293,146.426 176.5,144.5C 176.5,144.167 176.5,143.833 176.5,143.5C 176.611,142.883 176.944,142.383 177.5,142C 179.473,141.505 181.473,141.338 183.5,141.5C 183.5,142.5 183.5,143.5 183.5,144.5 Z"/></g>
<g><path style="opacity:0.737" fill="#838688" d="M 171.5,132.5 C 173.698,132.875 175.698,133.542 177.5,134.5C 174.99,134.946 172.99,134.28 171.5,132.5 Z"/></g>
<g><path style="opacity:0.82" fill="#85898c" d="M 190.5,131.5 C 188.91,133.821 186.577,134.821 183.5,134.5C 185.649,133.264 187.982,132.264 190.5,131.5 Z"/></g>
<g><path style="opacity:0.471" fill="#6a6f72" d="M 251.5,130.5 C 252.924,132.515 253.59,134.848 253.5,137.5C 252.076,135.485 251.41,133.152 251.5,130.5 Z"/></g>
<g><path style="opacity:0.184" fill="#2a2e32" d="M 88.5,134.5 C 88.7947,136.735 88.4614,138.735 87.5,140.5C 87.0618,140.565 86.7284,140.399 86.5,140C 87.1094,138.052 87.776,136.218 88.5,134.5 Z"/></g>
<g><path style="opacity:0.012" fill="#222226" d="M 194.5,140.5 C 193.833,140.833 193.167,141.167 192.5,141.5C 192.711,139.576 193.377,139.243 194.5,140.5 Z"/></g>
<g><path style="opacity:0.538" fill="#898b8c" d="M 223.5,130.5 C 224.165,133.482 224.498,136.648 224.5,140C 224.485,143.576 223.818,146.742 222.5,149.5C 223.458,143.256 223.791,136.923 223.5,130.5 Z"/></g>
<g><path style="opacity:0.114" fill="#383a3d" d="M 183.5,144.5 C 183.5,143.5 183.5,142.5 183.5,141.5C 181.473,141.338 179.473,141.505 177.5,142C 176.944,142.383 176.611,142.883 176.5,143.5C 175.596,142.791 175.263,141.791 175.5,140.5C 178.898,140.18 182.232,140.513 185.5,141.5C 185.058,142.739 184.391,143.739 183.5,144.5 Z"/></g>
<g><path style="opacity:0.529" fill="#6a6c6e" d="M 161.5,145.5 C 162.841,145.355 164.174,146.021 165.5,147.5C 163.712,147.785 162.045,147.452 160.5,146.5C 160.624,145.893 160.957,145.56 161.5,145.5 Z"/></g>
<g><path style="opacity:0.604" fill="#6f7274" d="M 198.5,144.5 C 199.478,144.811 200.145,145.478 200.5,146.5C 198.223,147.421 195.89,148.087 193.5,148.5C 194.984,146.926 196.651,145.593 198.5,144.5 Z"/></g>
<g><path style="opacity:0.925" fill="#84898b" d="M 176.5,144.5 C 178.293,146.426 179.293,148.759 179.5,151.5C 177.166,149.824 176.166,147.491 176.5,144.5 Z"/></g>
<g><path style="opacity:0.267" fill="#3e4244" d="M 170.5,147.5 C 171.404,148.209 171.737,149.209 171.5,150.5C 169.204,150.196 168.871,149.196 170.5,147.5 Z"/></g>
<g><path style="opacity:0.341" fill="#383e3f" d="M 182.5,147.5 C 182.204,149.403 181.537,151.07 180.5,152.5C 180.12,150.302 180.787,148.635 182.5,147.5 Z"/></g>
<g><path style="opacity:0.008" fill="#303339" d="M 190.5,145.5 C 190.741,147.898 190.074,149.898 188.5,151.5C 188.595,149.214 189.262,147.214 190.5,145.5 Z"/></g>
<g><path style="opacity:1" fill="#8c9193" d="M 300.5,152.5 C 300.539,151.244 300.039,150.244 299,149.5C 298.333,150.833 297.667,150.833 297,149.5C 295.961,150.244 295.461,151.244 295.5,152.5C 294.082,150.012 294.916,148.346 298,147.5C 301.084,148.346 301.918,150.012 300.5,152.5 Z"/></g>
<g><path style="opacity:0.997" fill="#d2d8da" d="M 64.5,148.5 C 65.6129,149.946 65.7796,151.613 65,153.5C 63.3845,154.801 61.8845,154.801 60.5,153.5C 60.1826,150.454 61.5159,148.787 64.5,148.5 Z"/></g>
<g><path style="opacity:0.014" fill="#080c13" d="M 148.5,147.5 C 148.557,148.609 148.89,149.609 149.5,150.5C 145.999,150.649 145.666,149.649 148.5,147.5 Z"/></g>
<g><path style="opacity:0.999" fill="#d3d6d9" d="M 300.5,152.5 C 298.704,155.048 297.038,155.048 295.5,152.5C 295.461,151.244 295.961,150.244 297,149.5C 297.667,150.833 298.333,150.833 299,149.5C 300.039,150.244 300.539,151.244 300.5,152.5 Z"/></g>
<g><path style="opacity:0.569" fill="#7a8082" d="M 114.5,138.5 C 113.222,146.836 113.222,155.17 114.5,163.5C 112.945,159.797 112.278,155.797 112.5,151.5C 112.316,146.893 112.983,142.56 114.5,138.5 Z"/></g>
<g><path style="opacity:0.765" fill="#6c7072" d="M 150.5,150.5 C 153.152,150.41 155.485,151.076 157.5,152.5C 154.772,152.829 152.438,152.163 150.5,150.5 Z"/></g>
<g><path style="opacity:0.675" fill="#616365" d="M 166.5,147.5 C 167.88,147.962 168.547,148.962 168.5,150.5C 167.183,152.518 167.183,154.518 168.5,156.5C 167.883,156.389 167.383,156.056 167,155.5C 166.503,152.854 166.336,150.187 166.5,147.5 Z"/></g>
<g><path style="opacity:0.4" fill="#686d70" d="M 64.5,148.5 C 61.5159,148.787 60.1826,150.454 60.5,153.5C 59.2121,151.965 59.2121,150.299 60.5,148.5C 61.9948,147.295 63.3281,147.295 64.5,148.5 Z"/></g>
<g><path style="opacity:0.078" fill="#3f4344" d="M 209.5,150.5 C 207.562,152.163 205.228,152.829 202.5,152.5C 204.599,151.388 206.933,150.721 209.5,150.5 Z"/></g>
<g><path style="opacity:0.733" fill="#828789" d="M 221.5,149.5 C 219.967,151.245 217.967,152.245 215.5,152.5C 217.033,150.755 219.033,149.755 221.5,149.5 Z"/></g>
<g><path style="opacity:0.016" fill="#2a2c2d" d="M 172.5,153.5 C 174.065,155.509 175.065,157.843 175.5,160.5C 173.166,158.824 172.166,156.491 172.5,153.5 Z"/></g>
<g><path style="opacity:0.012" fill="#121919" d="M 220.5,157.5 C 220.842,156.662 221.508,156.328 222.5,156.5C 223.338,156.842 223.672,157.508 223.5,158.5C 222.609,157.89 221.609,157.557 220.5,157.5 Z"/></g>
<g><path style="opacity:0.537" fill="#516058" d="M 169.5,156.5 C 171.262,157.262 172.262,158.596 172.5,160.5C 170.738,159.738 169.738,158.404 169.5,156.5 Z"/></g>
<g><path style="opacity:0.551" fill="#8e9394" d="M 222.5,156.5 C 222.56,155.957 222.893,155.624 223.5,155.5C 224.819,162.656 224.819,169.656 223.5,176.5C 223.5,170.5 223.5,164.5 223.5,158.5C 223.672,157.508 223.338,156.842 222.5,156.5 Z"/></g>
<g><path style="opacity:0.122" fill="#242b2c" d="M 138.5,157.5 C 137.509,163.979 137.176,170.646 137.5,177.5C 136.181,170.656 136.181,163.656 137.5,156.5C 138.107,156.624 138.44,156.957 138.5,157.5 Z"/></g>
<g><path style="opacity:0.882" fill="#6e7173" d="M 143.5,159.5 C 146.167,160.167 147.833,161.833 148.5,164.5C 146.5,163.167 144.833,161.5 143.5,159.5 Z"/></g>
<g><path style="opacity:0.224" fill="#4b4f54" d="M 87.5,156.5 C 88.7089,160.618 89.3755,164.951 89.5,169.5C 87.9462,165.433 87.2796,161.1 87.5,156.5 Z"/></g>
<g><path style="opacity:0.824" fill="#7e8183" d="M 94.5,157.5 C 95.5249,160.974 96.1916,164.64 96.5,168.5C 94.783,165.155 94.1164,161.489 94.5,157.5 Z"/></g>
<g><path style="opacity:0.224" fill="#414547" d="M 155.5,162.5 C 156.906,162.973 157.573,163.973 157.5,165.5C 156.094,165.027 155.427,164.027 155.5,162.5 Z"/></g>
<g><path style="opacity:0.486" fill="#4b5051" d="M 166.5,164.5 C 168.027,164.427 169.027,165.094 169.5,166.5C 167.973,166.573 166.973,165.906 166.5,164.5 Z"/></g>
<g><path style="opacity:0.929" fill="#7e8384" d="M 212.5,163.5 C 211.737,165.368 210.737,167.035 209.5,168.5C 209.5,166.833 209.5,165.167 209.5,163.5C 210.5,163.5 211.5,163.5 212.5,163.5 Z"/></g>
<g><path style="opacity:0.886" fill="#909596" d="M 247.5,156.5 C 247.665,159.518 247.498,162.518 247,165.5C 246.722,166.416 246.222,167.082 245.5,167.5C 245.808,163.64 246.475,159.974 247.5,156.5 Z"/></g>
<g><path style="opacity:0.224" fill="#495254" d="M 272.5,161.5 C 272.749,165.458 272.082,169.124 270.5,172.5C 270.646,168.613 271.313,164.946 272.5,161.5 Z"/></g>
<g><path style="opacity:0.047" fill="#3a3f42" d="M 108.5,170.5 C 109.924,172.515 110.59,174.848 110.5,177.5C 109.076,175.485 108.41,173.152 108.5,170.5 Z"/></g>
<g><path style="opacity:0.435" fill="#50555d" d="M 90.5,174.5 C 92.0739,176.102 92.7406,178.102 92.5,180.5C 91.2616,178.786 90.595,176.786 90.5,174.5 Z"/></g>
<g><path style="opacity:0.343" fill="#5c6264" d="M 202.5,168.5 C 202.832,179.187 202.499,189.854 201.5,200.5C 198.979,201.785 196.313,202.452 193.5,202.5C 195.65,201.33 197.984,200.33 200.5,199.5C 201.167,189.008 201.833,178.674 202.5,168.5 Z"/></g>
<g><path style="opacity:0.875" fill="#84888a" d="M 98.5,176.5 C 99.9313,177.78 100.598,179.447 100.5,181.5C 98.7868,180.365 98.1201,178.698 98.5,176.5 Z"/></g>
<g><path style="opacity:0.337" fill="#4b5051" d="M 268.5,179.5 C 268.598,181.553 267.931,183.22 266.5,184.5C 266.402,182.447 267.069,180.78 268.5,179.5 Z"/></g>
<g><path style="opacity:0.205" fill="#3a3e40" d="M 151.5,169.5 C 152.657,178.324 152.824,187.324 152,196.5C 151.768,195.263 151.268,194.263 150.5,193.5C 151.467,185.586 151.801,177.586 151.5,169.5 Z"/></g>
<g><path style="opacity:0.416" fill="#565c5e" d="M 112.5,182.5 C 114.104,183.287 114.771,184.62 114.5,186.5C 113.326,185.486 112.66,184.153 112.5,182.5 Z"/></g>
<g><path style="opacity:0.843" fill="#5f6364" d="M 140.5,185.5 C 143.5,187.833 146.167,190.5 148.5,193.5C 144.833,191.833 142.167,189.167 140.5,185.5 Z"/></g>
<g><path style="opacity:0.118" fill="#303537" d="M 133.5,187.5 C 134.906,187.973 135.573,188.973 135.5,190.5C 134.094,190.027 133.427,189.027 133.5,187.5 Z"/></g>
<g><path style="opacity:0.878" fill="#6e7172" d="M 126.5,192.5 C 129.243,194.239 131.243,196.573 132.5,199.5C 129.757,197.761 127.757,195.427 126.5,192.5 Z"/></g>
<g><path style="opacity:0.494" fill="#4d4f5b" d="M 137.5,193.5 C 139.027,193.427 140.027,194.094 140.5,195.5C 138.973,195.573 137.973,194.906 137.5,193.5 Z"/></g>
<g><path style="opacity:0.02" fill="#333435" d="M 148.5,193.5 C 149.167,193.5 149.833,193.5 150.5,193.5C 150.5,194.167 150.5,194.833 150.5,195.5C 149.5,195.167 148.833,194.5 148.5,193.5 Z"/></g>
<g><path style="opacity:0.541" fill="#646868" d="M 235.5,190.5 C 234.92,192.749 233.587,194.415 231.5,195.5C 232.08,193.251 233.413,191.585 235.5,190.5 Z"/></g>
<g><path style="opacity:0.314" fill="#4e5052" d="M 106.5,193.5 C 107.906,193.973 108.573,194.973 108.5,196.5C 107.094,196.027 106.427,195.027 106.5,193.5 Z"/></g>
<g><path style="opacity:0.02" fill="#263838" d="M 240.5,195.5 C 240.573,197.027 239.906,198.027 238.5,198.5C 238.427,196.973 239.094,195.973 240.5,195.5 Z"/></g>
<g><path style="opacity:0.435" fill="#606263" d="M 108.5,196.5 C 109.906,196.973 110.573,197.973 110.5,199.5C 109.094,199.027 108.427,198.027 108.5,196.5 Z"/></g>
<g><path style="opacity:0.027" fill="#3e4040" d="M 123.5,199.5 C 124.906,199.973 125.573,200.973 125.5,202.5C 124.094,202.027 123.427,201.027 123.5,199.5 Z"/></g>
<g><path style="opacity:0.729" fill="#7e8181" d="M 229.5,197.5 C 229.167,199.833 227.833,201.167 225.5,201.5C 226.5,199.833 227.833,198.5 229.5,197.5 Z"/></g>
<g><path style="opacity:0.345" fill="#5b5f61" d="M 146.5,200.5 C 148.027,200.427 149.027,201.094 149.5,202.5C 147.973,202.573 146.973,201.906 146.5,200.5 Z"/></g>
<g><path style="opacity:0.769" fill="#707578" d="M 223.5,203.5 C 222.415,205.587 220.749,206.92 218.5,207.5C 219.585,205.413 221.251,204.08 223.5,203.5 Z"/></g>
<g><path style="opacity:0.553" fill="#5c5e60" d="M 116.5,206.5 C 117.906,206.973 118.573,207.973 118.5,209.5C 117.094,209.027 116.427,208.027 116.5,206.5 Z"/></g>
<g><path style="opacity:0.02" fill="#535556" d="M 119.5,210.5 C 121.5,210.5 122.5,211.5 122.5,213.5C 121.167,212.833 120.167,211.833 119.5,210.5 Z"/></g>
<g><path style="opacity:0.659" fill="#7c8081" d="M 213.5,210.5 C 211.566,213.058 208.899,214.391 205.5,214.5C 207.897,212.805 210.563,211.472 213.5,210.5 Z"/></g>
<g><path style="opacity:0.902" fill="#82868b" d="M 237.5,213.5 C 236.415,215.587 234.749,216.92 232.5,217.5C 233.585,215.413 235.251,214.08 237.5,213.5 Z"/></g>
<g><path style="opacity:0.792" fill="#75797e" d="M 163.5,217.5 C 166.32,217.248 168.986,217.748 171.5,219C 172.801,220.616 172.801,222.116 171.5,223.5C 171.67,222.178 171.337,221.011 170.5,220C 167.896,219.61 165.562,218.776 163.5,217.5 Z"/></g>
<g><path style="opacity:0.012" fill="#181919" d="M 189.5,219.5 C 189.366,221.292 189.699,222.958 190.5,224.5C 188.616,224.288 187.283,223.288 186.5,221.5C 187.005,220.081 188.005,219.415 189.5,219.5 Z"/></g>
<g><path style="opacity:0.224" fill="#55595c" d="M 206.5,221.5 C 205.22,222.931 203.553,223.598 201.5,223.5C 202.78,222.069 204.447,221.402 206.5,221.5 Z"/></g>
<g><path style="opacity:0.158" fill="#363b3e" d="M 176.5,209.5 C 177.493,218.318 177.827,227.318 177.5,236.5C 175.265,236.795 173.265,236.461 171.5,235.5C 173.167,235.5 174.833,235.5 176.5,235.5C 176.5,226.833 176.5,218.167 176.5,209.5 Z"/></g>
<g><path style="opacity:0.208" fill="#393d41" d="M 184.5,209.5 C 185.03,216.081 185.03,222.581 184.5,229C 184.533,231.61 185.2,233.777 186.5,235.5C 185.791,236.404 184.791,236.737 183.5,236.5C 183.173,227.318 183.507,218.318 184.5,209.5 Z"/></g>
<g><path style="opacity:0.008" fill="#1c2024" d="M 227.5,229.5 C 227.027,230.906 226.027,231.573 224.5,231.5C 224.973,230.094 225.973,229.427 227.5,229.5 Z"/></g>
<g><path style="opacity:0.478" fill="#5c6162" d="M 154.5,231.5 C 156.786,231.595 158.786,232.262 160.5,233.5C 158.102,233.741 156.102,233.074 154.5,231.5 Z"/></g>
<g><path style="opacity:0.643" fill="#63686b" d="M 205.5,231.5 C 203.898,233.074 201.898,233.741 199.5,233.5C 201.214,232.262 203.214,231.595 205.5,231.5 Z"/></g>
<g><path style="opacity:0.933" fill="#84888a" d="M 145.5,235.5 C 148.491,235.166 150.824,236.166 152.5,238.5C 149.843,238.065 147.509,237.065 145.5,235.5 Z"/></g>
<g><path style="opacity:0.275" fill="#494f51" d="M 156.5,239.5 C 159.428,239.565 162.095,240.232 164.5,241.5C 161.505,241.706 158.838,241.04 156.5,239.5 Z"/></g>
</svg>
