<?xml version="1.0" encoding="UTF-8"?>
<!DOCTYPE svg PUBLIC "-//W3C//DTD SVG 1.1//EN" "http://www.w3.org/Graphics/SVG/1.1/DTD/svg11.dtd">
<svg xmlns="http://www.w3.org/2000/svg" version="1.1" width="556px" height="449px" style="shape-rendering:geometricPrecision; text-rendering:geometricPrecision; image-rendering:optimizeQuality; fill-rule:evenodd; clip-rule:evenodd" xmlns:xlink="http://www.w3.org/1999/xlink">
<g><path style="opacity:0.427" fill="#90999d" d="M 133.5,25.5 C 225.332,24.3342 317.332,24.1676 409.5,25C 412.742,25.4061 415.742,26.2395 418.5,27.5C 414.491,27.1417 410.491,26.6417 406.5,26C 315.501,25.5 224.501,25.3333 133.5,25.5 Z"/></g>
<g><path style="opacity:0.882" fill="#7a8385" d="M 132.5,25.5 C 130.162,27.0395 127.495,27.7062 124.5,27.5C 126.905,26.2318 129.572,25.5651 132.5,25.5 Z"/></g>
<g><path style="opacity:1" fill="#14222d" d="M 132.5,25.5 C 132.833,25.5 133.167,25.5 133.5,25.5C 224.501,25.3333 315.501,25.5 406.5,26C 410.491,26.6417 414.491,27.1417 418.5,27.5C 420.403,27.7959 422.07,28.4625 423.5,29.5C 424.287,31.1042 425.62,31.7709 427.5,31.5C 429.853,32.3403 431.853,33.6736 433.5,35.5C 433.973,36.9063 434.973,37.573 436.5,37.5C 437.833,38.5 439.167,39.5 440.5,40.5C 440.738,42.4044 441.738,43.7377 443.5,44.5C 445.587,45.5846 446.92,47.2512 447.5,49.5C 447.427,51.0269 448.094,52.0269 449.5,52.5C 449.427,54.0269 450.094,55.0269 451.5,55.5C 451.166,58.491 452.166,60.8243 454.5,62.5C 454.719,66.8002 455.719,70.8002 457.5,74.5C 457.5,75.1667 457.5,75.8333 457.5,76.5C 457.5,169.167 457.5,261.833 457.5,354.5C 456.368,358.019 455.368,361.686 454.5,365.5C 453.751,364.469 453.085,363.302 452.5,362C 454.244,359.322 455.244,356.322 455.5,353C 454.868,342.142 454.201,331.309 453.5,320.5C 452.369,319.396 451.535,319.729 451,321.5C 450.232,339.317 448.732,339.651 446.5,322.5C 444.866,322.968 443.7,323.968 443,325.5C 442.5,334.16 442.334,342.827 442.5,351.5C 437.456,351.173 432.456,351.506 427.5,352.5C 425.74,355.212 425.073,358.212 425.5,361.5C 422.833,361.5 420.167,361.5 417.5,361.5C 416.846,327.039 416.18,292.706 415.5,258.5C 415.027,257.094 414.027,256.427 412.5,256.5C 410.167,254.833 408.167,252.833 406.5,250.5C 405.962,248.883 405.629,247.216 405.5,245.5C 403.897,245.688 402.563,245.188 401.5,244C 402.956,243.577 403.456,242.744 403,241.5C 401.989,242.337 400.822,242.67 399.5,242.5C 399.5,241.5 399.5,240.5 399.5,239.5C 397.315,239.296 395.315,238.63 393.5,237.5C 380.407,222.997 370.074,206.664 362.5,188.5C 362.598,186.447 361.931,184.78 360.5,183.5C 358.206,180.63 356.872,177.297 356.5,173.5C 355.739,169.216 354.405,165.216 352.5,161.5C 352.5,161.167 352.5,160.833 352.5,160.5C 352.405,158.214 351.738,156.214 350.5,154.5C 349.947,149.194 348.614,144.194 346.5,139.5C 345.659,137.621 345.325,135.621 345.5,133.5C 344.809,125.269 343.476,117.269 341.5,109.5C 340.514,105.03 340.181,100.363 340.5,95.5C 340.667,84.495 340.5,73.495 340,62.5C 339.583,61.244 338.75,60.5774 337.5,60.5C 293.165,60.3333 248.832,60.5 204.5,61C 203.956,61.7172 203.289,62.2172 202.5,62.5C 201.207,79.3296 200.207,96.3296 199.5,113.5C 199.322,120.093 198.322,126.426 196.5,132.5C 194.565,138.252 193.231,144.252 192.5,150.5C 192.279,153.067 191.612,155.401 190.5,157.5C 188.723,160.505 187.723,163.838 187.5,167.5C 186.935,171.537 185.601,175.203 183.5,178.5C 181.415,180.684 180.415,183.351 180.5,186.5C 178.341,192.151 175.674,197.484 172.5,202.5C 168.008,203.217 166.342,205.884 167.5,210.5C 165.913,214.683 163.579,218.35 160.5,221.5C 159.094,221.973 158.427,222.973 158.5,224.5C 157.504,224.586 156.671,224.252 156,223.5C 155.355,224.646 154.522,225.646 153.5,226.5C 154.127,227.417 154.461,228.417 154.5,229.5C 153.094,229.973 152.427,230.973 152.5,232.5C 151.833,233.833 150.833,234.833 149.5,235.5C 147.738,236.262 146.738,237.596 146.5,239.5C 143.833,242.833 140.833,245.833 137.5,248.5C 137.167,248.5 136.833,248.5 136.5,248.5C 136.721,247.265 137.388,246.265 138.5,245.5C 136.5,244.167 134.5,242.833 132.5,241.5C 129.31,244.488 127.31,243.821 126.5,239.5C 126.833,238.833 127.167,238.167 127.5,237.5C 128.5,235.833 129.833,234.5 131.5,233.5C 134.243,231.761 136.243,229.427 137.5,226.5C 139.587,225.415 140.92,223.749 141.5,221.5C 143.587,220.415 144.92,218.749 145.5,216.5C 146.906,216.027 147.573,215.027 147.5,213.5C 148.906,213.027 149.573,212.027 149.5,210.5C 151.262,209.738 152.262,208.404 152.5,206.5C 152.328,205.508 152.662,204.842 153.5,204.5C 154.906,204.027 155.573,203.027 155.5,201.5C 157.27,200.144 158.603,198.311 159.5,196C 160.766,195.691 161.933,195.191 163,194.5C 163.18,192.512 163.014,190.512 162.5,188.5C 162.328,187.508 162.662,186.842 163.5,186.5C 165.268,184.078 166.768,181.412 168,178.5C 168.333,179.167 168.667,179.833 169,180.5C 169.972,178.695 171.139,177.028 172.5,175.5C 171.726,174.289 170.893,174.289 170,175.5C 169.517,174.552 169.351,173.552 169.5,172.5C 170.265,169.33 171.265,166.33 172.5,163.5C 174.074,161.898 174.741,159.898 174.5,157.5C 176.68,154.619 177.68,151.286 177.5,147.5C 177.5,147.167 177.5,146.833 177.5,146.5C 179.163,144.562 179.829,142.228 179.5,139.5C 181.739,134.518 182.739,129.184 182.5,123.5C 182.74,119.394 183.407,115.394 184.5,111.5C 187.408,95.2439 188.075,78.9106 186.5,62.5C 183.823,60.568 180.823,60.068 177.5,61C 176.299,61.9025 175.465,63.0692 175,64.5C 174.811,75.576 174.311,86.576 173.5,97.5C 171.347,107.961 169.68,118.628 168.5,129.5C 168.324,132.727 167.657,135.727 166.5,138.5C 164.517,141.799 163.517,145.466 163.5,149.5C 163.279,152.067 162.612,154.401 161.5,156.5C 160.599,158.757 158.932,160.257 156.5,161C 157.554,162.388 157.72,163.888 157,165.5C 155.633,164.476 154.8,164.976 154.5,167C 155.233,168.766 155.567,170.599 155.5,172.5C 155.204,174.403 154.537,176.07 153.5,177.5C 151.896,178.287 151.229,179.62 151.5,181.5C 151.34,183.153 150.674,184.486 149.5,185.5C 148.326,186.514 147.66,187.847 147.5,189.5C 146.674,192.485 145.341,195.151 143.5,197.5C 142.094,197.973 141.427,198.973 141.5,200.5C 140.89,202.434 139.89,204.101 138.5,205.5C 137.094,205.973 136.427,206.973 136.5,208.5C 135.567,211.37 133.9,213.704 131.5,215.5C 130.094,215.973 129.427,216.973 129.5,218.5C 129.167,219.5 128.5,220.167 127.5,220.5C 127.535,215.601 128.869,211.101 131.5,207C 130.024,203.602 129.524,200.102 130,196.5C 131.011,195.663 132.178,195.33 133.5,195.5C 134.02,190.97 135.186,190.637 137,194.5C 137.308,193.692 137.808,193.025 138.5,192.5C 139.451,193.326 140.451,193.492 141.5,193C 140.664,191.757 140.997,190.59 142.5,189.5C 143.493,184.88 143.827,180.214 143.5,175.5C 144.833,175.5 146.167,175.5 147.5,175.5C 147.248,172.756 147.915,170.256 149.5,168C 149.265,167.127 148.931,166.293 148.5,165.5C 149.262,165.089 150.262,164.923 151.5,165C 151.589,163.284 151.256,161.451 150.5,159.5C 151.189,157.556 151.689,155.556 152,153.5C 153.399,152.773 154.899,152.273 156.5,152C 155.718,149.26 155.218,146.426 155,143.5C 154.365,142.034 153.531,140.7 152.5,139.5C 152.846,138.304 153.346,138.304 154,139.5C 154.333,138.167 154.667,136.833 155,135.5C 155.667,136.833 156.333,136.833 157,135.5C 157.492,134.451 157.326,133.451 156.5,132.5C 157.025,131.808 157.692,131.308 158.5,131C 157.639,125.542 157.639,120.208 158.5,115C 158.759,113.739 159.426,112.739 160.5,112C 159.675,109.222 159.008,106.389 158.5,103.5C 160.24,90.0417 160.573,76.7084 159.5,63.5C 156.49,60.322 152.823,59.6554 148.5,61.5C 147.883,61.6107 147.383,61.944 147,62.5C 146.5,68.8246 146.334,75.1579 146.5,81.5C 146.5,83.1667 146.5,84.8333 146.5,86.5C 144.853,95.6227 143.853,104.956 143.5,114.5C 142.388,116.599 141.721,118.933 141.5,121.5C 140.698,120.048 140.198,118.382 140,116.5C 139.784,118.384 139.117,120.051 138,121.5C 137.257,123.441 137.424,125.274 138.5,127C 137.026,129.744 136.193,132.577 136,135.5C 133.109,132.777 132.776,129.777 135,126.5C 135.667,121.833 135.667,117.167 135,112.5C 133.581,111.54 132.081,110.707 130.5,110C 131.554,108.612 131.72,107.112 131,105.5C 130.841,107.343 130.341,108.009 129.5,107.5C 130.292,101.87 130.625,96.2031 130.5,90.5C 130.5,88.5 130.5,86.5 130.5,84.5C 131.655,77.6791 131.821,70.6791 131,63.5C 130.005,64.0659 129.172,64.7326 128.5,65.5C 128.672,66.4916 128.338,67.1583 127.5,67.5C 126.778,67.9175 126.278,68.5842 126,69.5C 125.5,86.4967 125.333,103.497 125.5,120.5C 124.66,104.908 124.16,88.5746 124,71.5C 122.829,85.1348 122.162,98.8015 122,112.5C 121.667,112.167 121.333,111.833 121,111.5C 120.311,112.357 119.478,113.023 118.5,113.5C 117.501,102.186 117.168,90.8529 117.5,79.5C 116.167,79.5 114.833,79.5 113.5,79.5C 113.832,89.8548 113.499,100.188 112.5,110.5C 111.668,99.8489 111.168,89.1822 111,78.5C 109.274,76.4088 108.107,74.0755 107.5,71.5C 104.833,71.5 102.167,71.5 99.5,71.5C 98.8456,67.414 100.012,64.0807 103,61.5C 103.288,58.4698 103.455,55.6365 103.5,53C 102.654,50.8204 101.154,49.3204 99,48.5C 97.3468,48.8198 96.3468,49.8198 96,51.5C 95.6174,50.944 95.1174,50.6107 94.5,50.5C 94.5,50.1667 94.5,49.8333 94.5,49.5C 96.2624,48.7377 97.2624,47.4044 97.5,45.5C 97.8333,44.5 98.5,43.8333 99.5,43.5C 100.833,42.8333 101.833,41.8333 102.5,40.5C 104.749,39.9202 106.415,38.5869 107.5,36.5C 110.366,36.3671 112.366,35.0338 113.5,32.5C 115.288,32.7852 116.955,32.4519 118.5,31.5C 120.901,30.6424 122.901,29.309 124.5,27.5C 127.495,27.7062 130.162,27.0395 132.5,25.5 Z M 360.5,59.5 C 362.167,60.1667 363.833,60.8333 365.5,61.5C 366.105,69.2978 366.771,76.9644 367.5,84.5C 367.5,85.8333 367.5,87.1667 367.5,88.5C 367.302,93.7498 367.969,98.7498 369.5,103.5C 369.19,106.713 369.523,109.713 370.5,112.5C 370.754,118.75 371.754,124.75 373.5,130.5C 373.5,130.833 373.5,131.167 373.5,131.5C 373.721,134.067 374.388,136.401 375.5,138.5C 375.5,138.833 375.5,139.167 375.5,139.5C 376.08,144.177 377.413,148.51 379.5,152.5C 379.394,155.079 380.061,157.412 381.5,159.5C 381.595,161.786 382.262,163.786 383.5,165.5C 383.796,167.403 384.463,169.07 385.5,170.5C 385.66,172.153 386.326,173.486 387.5,174.5C 387.402,176.553 388.069,178.22 389.5,179.5C 389.328,180.492 389.662,181.158 390.5,181.5C 391.326,184.485 392.659,187.151 394.5,189.5C 395.304,192.442 396.638,195.109 398.5,197.5C 401.422,203.686 405.089,209.352 409.5,214.5C 409.427,216.027 410.094,217.027 411.5,217.5C 411.5,218.167 411.833,218.5 412.5,218.5C 412.427,220.027 413.094,221.027 414.5,221.5C 415.802,226.933 415.802,232.266 414.5,237.5C 414.167,236.5 413.5,235.833 412.5,235.5C 410.906,232.236 408.573,229.569 405.5,227.5C 405.167,226.5 404.5,225.833 403.5,225.5C 402.92,223.251 401.587,221.585 399.5,220.5C 399.262,218.596 398.262,217.262 396.5,216.5C 396.262,214.596 395.262,213.262 393.5,212.5C 393.573,210.973 392.906,209.973 391.5,209.5C 391.573,207.973 390.906,206.973 389.5,206.5C 388.083,203.331 386.417,200.331 384.5,197.5C 384.573,195.973 383.906,194.973 382.5,194.5C 380.771,190.042 378.771,185.709 376.5,181.5C 374.403,175.651 372.069,169.985 369.5,164.5C 369.768,162.901 369.434,161.568 368.5,160.5C 367.946,157.254 366.946,154.254 365.5,151.5C 365.435,148.572 364.768,145.905 363.5,143.5C 363.245,139.2 362.245,135.2 360.5,131.5C 360.295,126.728 359.628,122.062 358.5,117.5C 358.187,112.647 357.521,107.98 356.5,103.5C 355.688,89.8495 355.355,76.1829 355.5,62.5C 356.167,62.5 356.5,62.1667 356.5,61.5C 357.995,61.0113 359.329,60.3446 360.5,59.5 Z M 392.5,60.5 C 392.783,61.2891 393.283,61.9558 394,62.5C 394.041,79.1152 395.541,95.4486 398.5,111.5C 399.033,122.144 400.7,132.477 403.5,142.5C 403.366,144.292 403.699,145.958 404.5,147.5C 404.322,151.122 404.989,154.456 406.5,157.5C 406.216,159.415 406.549,161.081 407.5,162.5C 407.294,165.495 407.96,168.162 409.5,170.5C 409.216,172.415 409.549,174.081 410.5,175.5C 411.007,179.86 411.673,184.193 412.5,188.5C 412.167,188.5 411.833,188.5 411.5,188.5C 410.341,184.849 408.674,181.515 406.5,178.5C 406.573,176.973 405.906,175.973 404.5,175.5C 403.266,170.117 401.266,165.117 398.5,160.5C 398.204,158.597 397.537,156.93 396.5,155.5C 395.34,151.353 394.007,147.353 392.5,143.5C 392.258,139.521 391.258,135.854 389.5,132.5C 388.989,126.951 387.989,121.617 386.5,116.5C 386.461,112.267 385.795,108.267 384.5,104.5C 382.54,90.1753 382.207,75.842 383.5,61.5C 386.43,60.701 389.43,60.3677 392.5,60.5 Z M 411.5,64.5 C 412.512,65.8717 413.512,67.205 414.5,68.5C 415.455,84.4649 415.788,100.465 415.5,116.5C 414.408,112.184 413.408,107.851 412.5,103.5C 412.46,98.8075 412.127,94.1408 411.5,89.5C 411.102,80.9824 411.102,72.6491 411.5,64.5 Z M 128.5,65.5 C 130.456,71.412 131.123,77.7453 130.5,84.5C 130.5,86.5 130.5,88.5 130.5,90.5C 129.565,95.9944 128.898,101.661 128.5,107.5C 127.539,109.265 127.205,111.265 127.5,113.5C 126.207,98.3068 126.207,82.9734 127.5,67.5C 128.338,67.1583 128.672,66.4916 128.5,65.5 Z"/></g>
<g><path style="opacity:0.369" fill="#b3b9b9" d="M 423.5,29.5 C 425.153,29.6596 426.486,30.3263 427.5,31.5C 425.62,31.7709 424.287,31.1042 423.5,29.5 Z"/></g>
<g><path style="opacity:0.998" fill="#505b62" d="M 124.5,27.5 C 122.901,29.309 120.901,30.6424 118.5,31.5C 116.955,32.4519 115.288,32.7852 113.5,32.5C 116.74,30.049 120.407,28.3824 124.5,27.5 Z"/></g>
<g><path style="opacity:1" fill="#646d73" d="M 113.5,32.5 C 112.366,35.0338 110.366,36.3671 107.5,36.5C 108.802,34.1782 110.802,32.8449 113.5,32.5 Z"/></g>
<g><path style="opacity:0.106" fill="#c4cad0" d="M 433.5,35.5 C 435.027,35.427 436.027,36.0937 436.5,37.5C 434.973,37.573 433.973,36.9063 433.5,35.5 Z"/></g>
<g><path style="opacity:0.925" fill="#636b70" d="M 107.5,36.5 C 106.415,38.5869 104.749,39.9202 102.5,40.5C 103.585,38.4131 105.251,37.0798 107.5,36.5 Z"/></g>
<g><path style="opacity:0.404" fill="#b5bbbd" d="M 102.5,40.5 C 101.833,41.8333 100.833,42.8333 99.5,43.5C 99.5,41.5 100.5,40.5 102.5,40.5 Z"/></g>
<g><path style="opacity:0.502" fill="#b1b8c0" d="M 440.5,40.5 C 442.262,41.2623 443.262,42.5956 443.5,44.5C 441.738,43.7377 440.738,42.4044 440.5,40.5 Z"/></g>
<g><path style="opacity:0.549" fill="#9aa0a6" d="M 97.5,45.5 C 97.2624,47.4044 96.2624,48.7377 94.5,49.5C 94.7376,47.5956 95.7376,46.2623 97.5,45.5 Z"/></g>
<g><path style="opacity:0.388" fill="#a3a8b0" d="M 94.5,49.5 C 94.5,49.8333 94.5,50.1667 94.5,50.5C 94.1667,51.5 93.5,52.1667 92.5,52.5C 92.427,50.9731 93.0937,49.9731 94.5,49.5 Z"/></g>
<g><path style="opacity:0.522" fill="#899395" d="M 447.5,49.5 C 448.906,49.9731 449.573,50.9731 449.5,52.5C 448.094,52.0269 447.427,51.0269 447.5,49.5 Z"/></g>
<g><path style="opacity:0.227" fill="#bec5c9" d="M 92.5,52.5 C 92.573,54.0269 91.9063,55.0269 90.5,55.5C 90.427,53.9731 91.0937,52.9731 92.5,52.5 Z"/></g>
<g><path style="opacity:0.278" fill="#aeb5c0" d="M 449.5,52.5 C 450.906,52.9731 451.573,53.9731 451.5,55.5C 450.094,55.0269 449.427,54.0269 449.5,52.5 Z"/></g>
<g><path style="opacity:0.192" fill="#bec3c6" d="M 90.5,56.5 C 90.573,58.0269 89.9063,59.0269 88.5,59.5C 88.427,57.9731 89.0937,56.9731 90.5,56.5 Z"/></g>
<g><path style="opacity:0.929" fill="#7c8488" d="M 451.5,55.5 C 453.065,57.5093 454.065,59.8427 454.5,62.5C 452.166,60.8243 451.166,58.491 451.5,55.5 Z"/></g>
<g><path style="opacity:0.012" fill="#d8dee3" d="M 360.5,59.5 C 359.329,60.3446 357.995,61.0113 356.5,61.5C 357.183,59.8235 358.517,59.1568 360.5,59.5 Z"/></g>
<g><path style="opacity:0.004" fill="#d2d7d9" d="M 392.5,60.5 C 389.43,60.3677 386.43,60.701 383.5,61.5C 383.611,60.8826 383.944,60.3826 384.5,60C 387.367,59.1993 390.034,59.3659 392.5,60.5 Z"/></g>
<g><path style="opacity:0.016" fill="#dbe2e7" d="M 130.5,84.5 C 131.123,77.7453 130.456,71.412 128.5,65.5C 129.172,64.7326 130.005,64.0659 131,63.5C 131.821,70.6791 131.655,77.6791 130.5,84.5 Z"/></g>
<g><path style="opacity:0.58" fill="#8f949a" d="M 337.5,60.5 C 338.75,60.5774 339.583,61.244 340,62.5C 340.5,73.495 340.667,84.495 340.5,95.5C 339.67,85.0079 339.17,74.3412 339,63.5C 338.487,62.4734 337.987,61.4734 337.5,60.5 Z"/></g>
<g><path style="opacity:0.769" fill="#83888c" d="M 88.5,60.5 C 88.33,61.8221 88.6634,62.9887 89.5,64C 87.503,66.2025 86.1697,68.7025 85.5,71.5C 85.5165,67.4661 86.5165,63.7994 88.5,60.5 Z"/></g>
<g><path style="opacity:0.69" fill="#8b9298" d="M 454.5,62.5 C 456.416,66.1629 457.416,70.1629 457.5,74.5C 455.719,70.8002 454.719,66.8002 454.5,62.5 Z"/></g>
<g><path style="opacity:0.576" fill="#a4abb2" d="M 411.5,64.5 C 411.102,72.6491 411.102,80.9824 411.5,89.5C 410.596,82.8418 409.929,76.0085 409.5,69C 409.833,67.1667 410.167,65.3333 410.5,63.5C 411.107,63.6236 411.44,63.9569 411.5,64.5 Z"/></g>
<g><path style="opacity:0.008" fill="#fefffe" d="M 458.5,73.5 C 459.833,74.1667 459.833,74.1667 458.5,73.5 Z"/></g>
<g><path style="opacity:0.286" fill="#abb5b9" d="M 148.5,61.5 C 147.906,68.2991 147.239,74.9657 146.5,81.5C 146.334,75.1579 146.5,68.8246 147,62.5C 147.383,61.944 147.883,61.6107 148.5,61.5 Z"/></g>
<g><path style="opacity:0.054" fill="#d2d4d7" d="M 365.5,61.5 C 366.117,61.6107 366.617,61.944 367,62.5C 367.5,69.8258 367.666,77.1591 367.5,84.5C 366.771,76.9644 366.105,69.2978 365.5,61.5 Z"/></g>
<g><path style="opacity:0.718" fill="#798288" d="M 159.5,63.5 C 160.573,76.7084 160.24,90.0417 158.5,103.5C 158.167,103.5 157.833,103.5 157.5,103.5C 158.626,90.1916 159.293,76.8583 159.5,63.5 Z"/></g>
<g><path style="opacity:0.255" fill="#b4b9be" d="M 186.5,62.5 C 188.075,78.9106 187.408,95.2439 184.5,111.5C 185.955,95.203 186.622,78.8697 186.5,62.5 Z"/></g>
<g><path style="opacity:1" fill="#12202b" d="M 125.5,120.5 C 127.163,118.562 127.829,116.228 127.5,113.5C 127.205,111.265 127.539,109.265 128.5,107.5C 128.833,107.5 129.167,107.5 129.5,107.5C 130.341,108.009 130.841,107.343 131,105.5C 131.72,107.112 131.554,108.612 130.5,110C 132.081,110.707 133.581,111.54 135,112.5C 135.667,117.167 135.667,121.833 135,126.5C 132.776,129.777 133.109,132.777 136,135.5C 136.193,132.577 137.026,129.744 138.5,127C 137.424,125.274 137.257,123.441 138,121.5C 139.117,120.051 139.784,118.384 140,116.5C 140.198,118.382 140.698,120.048 141.5,121.5C 141.5,123.167 141.5,124.833 141.5,126.5C 141.5,127.167 141.5,127.833 141.5,128.5C 139.882,131.171 139.215,134.171 139.5,137.5C 139.5,137.833 139.5,138.167 139.5,138.5C 137.406,144.56 136.072,150.893 135.5,157.5C 135.212,160.939 134.546,164.272 133.5,167.5C 131.502,171.126 130.502,175.126 130.5,179.5C 128.96,181.838 128.294,184.505 128.5,187.5C 128.5,187.833 128.5,188.167 128.5,188.5C 127.662,188.842 127.328,189.508 127.5,190.5C 127.5,190.833 127.5,191.167 127.5,191.5C 126.427,192.251 126.26,193.251 127,194.5C 128.039,193.756 128.539,192.756 128.5,191.5C 129.338,191.158 129.672,190.492 129.5,189.5C 129.5,188.833 129.5,188.167 129.5,187.5C 133.085,181.998 136.419,176.331 139.5,170.5C 140.79,169.942 141.623,168.942 142,167.5C 142.419,168.672 143.085,169.672 144,170.5C 144.624,168.536 144.124,166.869 142.5,165.5C 143.946,163.382 144.613,161.049 144.5,158.5C 146.554,155.992 147.554,152.992 147.5,149.5C 149.074,147.898 149.741,145.898 149.5,143.5C 149.366,141.708 149.699,140.042 150.5,138.5C 152.074,136.898 152.741,134.898 152.5,132.5C 152.5,132.167 152.5,131.833 152.5,131.5C 153.768,129.095 154.435,126.428 154.5,123.5C 154.508,120.455 154.841,117.455 155.5,114.5C 157.217,111.155 157.884,107.489 157.5,103.5C 157.833,103.5 158.167,103.5 158.5,103.5C 159.008,106.389 159.675,109.222 160.5,112C 159.426,112.739 158.759,113.739 158.5,115C 157.639,120.208 157.639,125.542 158.5,131C 157.692,131.308 157.025,131.808 156.5,132.5C 157.326,133.451 157.492,134.451 157,135.5C 156.333,136.833 155.667,136.833 155,135.5C 154.667,136.833 154.333,138.167 154,139.5C 153.346,138.304 152.846,138.304 152.5,139.5C 153.531,140.7 154.365,142.034 155,143.5C 155.218,146.426 155.718,149.26 156.5,152C 154.899,152.273 153.399,152.773 152,153.5C 151.689,155.556 151.189,157.556 150.5,159.5C 151.256,161.451 151.589,163.284 151.5,165C 150.262,164.923 149.262,165.089 148.5,165.5C 148.931,166.293 149.265,167.127 149.5,168C 147.915,170.256 147.248,172.756 147.5,175.5C 146.167,175.5 144.833,175.5 143.5,175.5C 143.827,180.214 143.493,184.88 142.5,189.5C 140.997,190.59 140.664,191.757 141.5,193C 140.451,193.492 139.451,193.326 138.5,192.5C 137.808,193.025 137.308,193.692 137,194.5C 135.186,190.637 134.02,190.97 133.5,195.5C 132.178,195.33 131.011,195.663 130,196.5C 129.524,200.102 130.024,203.602 131.5,207C 128.869,211.101 127.535,215.601 127.5,220.5C 127.672,221.492 127.338,222.158 126.5,222.5C 125.167,228.167 125.167,233.833 126.5,239.5C 127.31,243.821 129.31,244.488 132.5,241.5C 134.5,242.833 136.5,244.167 138.5,245.5C 137.388,246.265 136.721,247.265 136.5,248.5C 136.167,249.167 135.833,249.833 135.5,250.5C 132.14,249.79 130.307,251.124 130,254.5C 129.586,254.043 129.086,253.709 128.5,253.5C 127.194,254.912 126.36,256.579 126,258.5C 125.333,292.167 125.333,325.833 126,359.5C 126.21,361.058 126.71,362.391 127.5,363.5C 127.5,363.833 127.5,364.167 127.5,364.5C 127.427,366.027 128.094,367.027 129.5,367.5C 130.492,367.328 131.158,367.662 131.5,368.5C 131.611,369.117 131.944,369.617 132.5,370C 134.473,370.495 136.473,370.662 138.5,370.5C 139.494,360.681 139.827,350.681 139.5,340.5C 140.242,338.02 141.242,335.687 142.5,333.5C 144.404,333.262 145.738,332.262 146.5,330.5C 149.167,330.167 151.833,329.833 154.5,329.5C 156.403,329.796 158.07,330.463 159.5,331.5C 160.221,335.369 160.221,339.035 159.5,342.5C 160.674,343.514 161.34,344.847 161.5,346.5C 161.128,349.022 161.961,351.022 164,352.5C 164.464,351.906 164.631,351.239 164.5,350.5C 166.834,348.824 167.834,346.491 167.5,343.5C 166.302,339.512 166.302,335.512 167.5,331.5C 169.075,330.544 170.742,329.877 172.5,329.5C 175.206,329.575 177.873,329.908 180.5,330.5C 185.751,332.758 188.751,336.758 189.5,342.5C 189.5,351.833 189.5,361.167 189.5,370.5C 193.167,371.833 196.833,371.833 200.5,370.5C 201.271,360.984 201.938,351.318 202.5,341.5C 204.5,340.167 206.167,338.5 207.5,336.5C 207.842,335.662 208.508,335.328 209.5,335.5C 212.734,335.763 214.068,334.263 213.5,331C 213.392,329.319 212.725,328.152 211.5,327.5C 210.5,327.167 209.833,326.5 209.5,325.5C 209.573,323.973 208.906,322.973 207.5,322.5C 206.167,318.5 206.167,314.5 207.5,310.5C 209.833,308.833 211.833,306.833 213.5,304.5C 213.842,303.662 214.508,303.328 215.5,303.5C 219.167,303.5 222.833,303.5 226.5,303.5C 227.492,303.328 228.158,303.662 228.5,304.5C 229.5,306.833 231.167,308.5 233.5,309.5C 234.69,314.477 234.69,319.477 233.5,324.5C 229.846,327.141 228.512,330.808 229.5,335.5C 230.5,335.5 231.5,335.5 232.5,335.5C 234.404,335.738 235.738,336.738 236.5,338.5C 236.703,340.044 237.37,341.378 238.5,342.5C 237.121,343.863 237.287,344.863 239,345.5C 239.772,345.355 240.439,345.022 241,344.5C 241.494,342.866 241.66,341.199 241.5,339.5C 242.906,339.027 243.573,338.027 243.5,336.5C 245.167,335.5 246.5,334.167 247.5,332.5C 249.579,330.127 252.246,328.794 255.5,328.5C 258.574,328.873 261.574,329.539 264.5,330.5C 266.567,330.532 267.9,331.532 268.5,333.5C 267.769,336.653 267.103,339.819 266.5,343C 267.633,347.753 269.3,351.587 271.5,354.5C 273.213,353.365 273.88,351.698 273.5,349.5C 274.167,346.833 274.833,344.167 275.5,341.5C 275.5,338.167 275.5,334.833 275.5,331.5C 278.346,331.448 280.68,330.448 282.5,328.5C 282.735,327.903 283.235,327.57 284,327.5C 286.03,327.954 287.863,328.62 289.5,329.5C 290.287,331.104 291.62,331.771 293.5,331.5C 294.5,331.833 295.167,332.5 295.5,333.5C 296.167,334.833 297.167,335.833 298.5,336.5C 298.427,338.027 299.094,339.027 300.5,339.5C 301.268,340.263 301.768,341.263 302,342.5C 302.278,341.584 302.778,340.918 303.5,340.5C 305.264,339.674 306.598,338.341 307.5,336.5C 307.842,335.662 308.508,335.328 309.5,335.5C 310.822,335.67 311.989,335.337 313,334.5C 313.789,332.288 313.622,330.288 312.5,328.5C 311.5,326.833 310.167,325.5 308.5,324.5C 308.058,322.028 307.725,319.528 307.5,317C 309.257,314.825 310.257,311.325 310.5,306.5C 312.404,306.262 313.738,305.262 314.5,303.5C 314.833,303.5 315.167,303.5 315.5,303.5C 319.167,303.5 322.833,303.5 326.5,303.5C 327.492,303.328 328.158,303.662 328.5,304.5C 328.973,305.906 329.973,306.573 331.5,306.5C 332.338,306.842 332.672,307.508 332.5,308.5C 332.427,310.027 333.094,311.027 334.5,311.5C 335.16,312.964 335.493,314.631 335.5,316.5C 335.684,319.205 335.017,321.538 333.5,323.5C 332.094,323.973 331.427,324.973 331.5,326.5C 331.5,327.167 331.167,327.5 330.5,327.5C 329.275,328.152 328.608,329.319 328.5,331C 327.932,334.263 329.266,335.763 332.5,335.5C 334.153,335.66 335.486,336.326 336.5,337.5C 336.738,339.404 337.738,340.738 339.5,341.5C 339.259,343.898 339.926,345.898 341.5,347.5C 341.5,355.167 341.5,362.833 341.5,370.5C 345.298,371.483 349.298,371.817 353.5,371.5C 353.21,360.116 353.543,348.783 354.5,337.5C 355.833,334.167 358.167,331.833 361.5,330.5C 363.401,330.567 365.234,330.233 367,329.5C 369.047,330.609 371.213,331.276 373.5,331.5C 374.492,331.328 375.158,331.662 375.5,332.5C 375.5,334.167 375.5,335.833 375.5,337.5C 375.5,337.833 375.5,338.167 375.5,338.5C 373.862,339.705 373.529,341.038 374.5,342.5C 375.674,343.514 376.34,344.847 376.5,346.5C 376.116,348.665 376.783,350.332 378.5,351.5C 380.217,350.332 380.884,348.665 380.5,346.5C 380.66,344.847 381.326,343.514 382.5,342.5C 383.715,341.221 383.382,340.221 381.5,339.5C 381.5,338.5 381.5,337.5 381.5,336.5C 381.366,334.708 381.699,333.042 382.5,331.5C 383.514,330.326 384.847,329.66 386.5,329.5C 389.237,329.401 391.904,329.735 394.5,330.5C 396.153,330.66 397.486,331.326 398.5,332.5C 398.738,334.404 399.738,335.738 401.5,336.5C 402.338,336.842 402.672,337.508 402.5,338.5C 402.5,339.833 402.5,341.167 402.5,342.5C 402.5,351.833 402.5,361.167 402.5,370.5C 404.857,370.663 407.19,370.497 409.5,370C 410.056,369.617 410.389,369.117 410.5,368.5C 412.5,368.5 413.5,367.5 413.5,365.5C 414.825,364.047 415.658,364.381 416,366.5C 416.352,364.753 416.852,363.086 417.5,361.5C 420.167,361.5 422.833,361.5 425.5,361.5C 425.073,358.212 425.74,355.212 427.5,352.5C 432.456,351.506 437.456,351.173 442.5,351.5C 442.334,342.827 442.5,334.16 443,325.5C 443.7,323.968 444.866,322.968 446.5,322.5C 448.732,339.651 450.232,339.317 451,321.5C 451.535,319.729 452.369,319.396 453.5,320.5C 454.201,331.309 454.868,342.142 455.5,353C 455.244,356.322 454.244,359.322 452.5,362C 453.085,363.302 453.751,364.469 454.5,365.5C 453.699,367.042 453.366,368.708 453.5,370.5C 452.326,371.514 451.66,372.847 451.5,374.5C 451.672,375.492 451.338,376.158 450.5,376.5C 446.562,377.077 445.229,379.077 446.5,382.5C 445.833,382.833 445.167,383.167 444.5,383.5C 442.704,382.234 442.37,382.568 443.5,384.5C 442.726,385.711 441.893,385.711 441,384.5C 440.395,386.481 439.395,386.815 438,385.5C 435.391,387.108 434.058,389.441 434,392.5C 433.667,391.833 433.333,391.167 433,390.5C 432.616,392.197 432.782,393.863 433.5,395.5C 432.29,395.932 431.29,396.599 430.5,397.5C 429.508,397.328 428.842,397.662 428.5,398.5C 423.71,400.763 418.71,402.43 413.5,403.5C 319.522,404.49 225.522,404.824 131.5,404.5C 130.5,404.5 129.5,404.5 128.5,404.5C 128.167,404.5 127.833,404.5 127.5,404.5C 124.203,402.399 120.537,401.065 116.5,400.5C 116.027,399.094 115.027,398.427 113.5,398.5C 112.075,400.031 111.409,399.698 111.5,397.5C 110.71,396.599 109.71,395.932 108.5,395.5C 107.833,395.5 107.5,395.167 107.5,394.5C 106.415,392.413 104.749,391.08 102.5,390.5C 98.1014,386.432 94.4347,381.765 91.5,376.5C 91.6716,375.508 91.3382,374.842 90.5,374.5C 90.5,373.833 90.1667,373.5 89.5,373.5C 89.5,373.167 89.5,372.833 89.5,372.5C 88.5368,367.951 87.2035,363.617 85.5,359.5C 85.5,358.833 85.5,358.167 85.5,357.5C 85.5,262.5 85.5,167.5 85.5,72.5C 85.5,72.1667 85.5,71.8333 85.5,71.5C 86.1697,68.7025 87.503,66.2025 89.5,64C 88.6634,62.9887 88.33,61.8221 88.5,60.5C 88.5,60.1667 88.5,59.8333 88.5,59.5C 89.9063,59.0269 90.573,58.0269 90.5,56.5C 90.5,56.1667 90.5,55.8333 90.5,55.5C 91.9063,55.0269 92.573,54.0269 92.5,52.5C 93.5,52.1667 94.1667,51.5 94.5,50.5C 95.1174,50.6107 95.6174,50.944 96,51.5C 96.3468,49.8198 97.3468,48.8198 99,48.5C 101.154,49.3204 102.654,50.8204 103.5,53C 103.455,55.6365 103.288,58.4698 103,61.5C 100.012,64.0807 98.8456,67.414 99.5,71.5C 102.167,71.5 104.833,71.5 107.5,71.5C 108.107,74.0755 109.274,76.4088 111,78.5C 111.168,89.1822 111.668,99.8489 112.5,110.5C 113.499,100.188 113.832,89.8548 113.5,79.5C 114.833,79.5 116.167,79.5 117.5,79.5C 117.168,90.8529 117.501,102.186 118.5,113.5C 119.478,113.023 120.311,112.357 121,111.5C 121.333,111.833 121.667,112.167 122,112.5C 122.162,98.8015 122.829,85.1348 124,71.5C 124.16,88.5746 124.66,104.908 125.5,120.5 Z"/></g>
<g><path style="opacity:0.435" fill="#969ea5" d="M 127.5,67.5 C 126.207,82.9734 126.207,98.3068 127.5,113.5C 127.829,116.228 127.163,118.562 125.5,120.5C 125.333,103.497 125.5,86.4967 126,69.5C 126.278,68.5842 126.778,67.9175 127.5,67.5 Z"/></g>
<g><path style="opacity:0.801" fill="#464f55" d="M 414.5,68.5 C 415.117,68.6107 415.617,68.944 416,69.5C 416.833,86.8429 416.666,104.176 415.5,121.5C 414.893,121.376 414.56,121.043 414.5,120.5C 415.434,119.432 415.768,118.099 415.5,116.5C 415.788,100.465 415.455,84.4649 414.5,68.5 Z"/></g>
<g><path style="opacity:0.871" fill="#7a8086" d="M 258.5,91.5 C 256.162,93.0395 253.495,93.7062 250.5,93.5C 252.838,91.9605 255.505,91.2938 258.5,91.5 Z"/></g>
<g><path style="opacity:0.255" fill="#bfc7cd" d="M 202.5,62.5 C 202.71,79.7251 201.71,96.7251 199.5,113.5C 200.207,96.3296 201.207,79.3296 202.5,62.5 Z"/></g>
<g><path style="opacity:0.024" fill="#c7cbd1" d="M 146.5,86.5 C 146.279,96.0576 145.279,105.391 143.5,114.5C 143.853,104.956 144.853,95.6227 146.5,86.5 Z"/></g>
<g><path style="opacity:0.624" fill="#8c9297" d="M 290.5,93.5 C 292.553,93.4021 294.22,94.0687 295.5,95.5C 293.447,95.5979 291.78,94.9313 290.5,93.5 Z"/></g>
<g><path style="opacity:0.9" fill="#81898f" d="M 367.5,88.5 C 369.145,93.2336 369.811,98.2336 369.5,103.5C 367.969,98.7498 367.302,93.7498 367.5,88.5 Z"/></g>
<g><path style="opacity:0.929" fill="#5d6569" d="M 250.5,93.5 C 247.691,95.8966 244.358,97.2299 240.5,97.5C 243.53,95.5968 246.863,94.2635 250.5,93.5 Z"/></g>
<g><path style="opacity:0.71" fill="#899096" d="M 240.5,97.5 C 240.027,98.9063 239.027,99.573 237.5,99.5C 237.973,98.0937 238.973,97.427 240.5,97.5 Z"/></g>
<g><path style="opacity:0.984" fill="#626a72" d="M 298.5,96.5 C 301.317,97.0951 303.65,98.4284 305.5,100.5C 304.504,100.414 303.671,100.748 303,101.5C 300.94,100.239 299.44,98.5721 298.5,96.5 Z"/></g>
<g><path style="opacity:1" fill="#5b656b" d="M 237.5,99.5 C 237.013,100.473 236.513,101.473 236,102.5C 235.014,101.829 233.847,101.829 232.5,102.5C 233.659,100.75 235.326,99.7497 237.5,99.5 Z"/></g>
<g><path style="opacity:0.525" fill="#adb6b9" d="M 355.5,62.5 C 355.355,76.1829 355.688,89.8495 356.5,103.5C 355.698,102.048 355.198,100.382 355,98.5C 354.174,86.3262 354.34,74.3262 355.5,62.5 Z"/></g>
<g><path style="opacity:0.353" fill="#a2a8ad" d="M 130.5,90.5 C 130.625,96.2031 130.292,101.87 129.5,107.5C 129.167,107.5 128.833,107.5 128.5,107.5C 128.898,101.661 129.565,95.9944 130.5,90.5 Z"/></g>
<g><path style="opacity:0.867" fill="#71787e" d="M 232.5,102.5 C 231.089,104.914 229.089,106.581 226.5,107.5C 227.911,105.086 229.911,103.419 232.5,102.5 Z"/></g>
<g><path style="opacity:0.192" fill="#c6cdd0" d="M 157.5,103.5 C 157.884,107.489 157.217,111.155 155.5,114.5C 155.808,110.64 156.475,106.974 157.5,103.5 Z"/></g>
<g><path style="opacity:0.176" fill="#afb5bb" d="M 173.5,97.5 C 173.111,108.495 171.444,119.162 168.5,129.5C 169.68,118.628 171.347,107.961 173.5,97.5 Z"/></g>
<g><path style="opacity:0.553" fill="#a7acb3" d="M 226.5,107.5 C 224.5,110.167 222.167,112.5 219.5,114.5C 220.833,111.167 223.167,108.833 226.5,107.5 Z"/></g>
<g><path style="opacity:0.671" fill="#a5acaf" d="M 356.5,103.5 C 357.521,107.98 358.187,112.647 358.5,117.5C 356.789,113.119 356.123,108.453 356.5,103.5 Z"/></g>
<g><path style="opacity:0.906" fill="#7f888c" d="M 384.5,104.5 C 385.795,108.267 386.461,112.267 386.5,116.5C 384.75,112.817 384.083,108.817 384.5,104.5 Z"/></g>
<g><path style="opacity:0.369" fill="#a7aeb3" d="M 412.5,103.5 C 413.408,107.851 414.408,112.184 415.5,116.5C 415.768,118.099 415.434,119.432 414.5,120.5C 413.29,114.904 412.623,109.238 412.5,103.5 Z"/></g>
<g><path style="opacity:0.871" fill="#868c93" d="M 321.5,113.5 C 323.587,114.585 324.92,116.251 325.5,118.5C 323.413,117.415 322.08,115.749 321.5,113.5 Z"/></g>
<g><path style="opacity:0.62" fill="#9ca3aa" d="M 217.5,116.5 C 217.573,118.027 216.906,119.027 215.5,119.5C 215.427,117.973 216.094,116.973 217.5,116.5 Z"/></g>
<g><path style="opacity:0.62" fill="#7e898e" d="M 325.5,118.5 C 327.262,119.262 328.262,120.596 328.5,122.5C 326.738,121.738 325.738,120.404 325.5,118.5 Z"/></g>
<g><path style="opacity:0.439" fill="#a0a9ad" d="M 370.5,112.5 C 372.415,118.217 373.415,124.217 373.5,130.5C 371.754,124.75 370.754,118.75 370.5,112.5 Z"/></g>
<g><path style="opacity:0.439" fill="#a2aab1" d="M 143.5,114.5 C 143.461,118.733 142.795,122.733 141.5,126.5C 141.5,124.833 141.5,123.167 141.5,121.5C 141.721,118.933 142.388,116.599 143.5,114.5 Z"/></g>
<g><path style="opacity:0.506" fill="#939b9c" d="M 215.5,119.5 C 215.573,121.027 214.906,122.027 213.5,122.5C 213.427,120.973 214.094,119.973 215.5,119.5 Z"/></g>
<g><path style="opacity:0.431" fill="#969ca0" d="M 213.5,122.5 C 213.573,124.027 212.906,125.027 211.5,125.5C 211.427,123.973 212.094,122.973 213.5,122.5 Z"/></g>
<g><path style="opacity:0.408" fill="#9ba3ab" d="M 328.5,122.5 C 329.906,122.973 330.573,123.973 330.5,125.5C 329.094,125.027 328.427,124.027 328.5,122.5 Z"/></g>
<g><path style="opacity:0.357" fill="#a3aaac" d="M 341.5,109.5 C 343.476,117.269 344.809,125.269 345.5,133.5C 343.344,125.765 342.011,117.765 341.5,109.5 Z"/></g>
<g><path style="opacity:0.31" fill="#a5acb0" d="M 398.5,111.5 C 400.783,121.605 402.449,131.938 403.5,142.5C 400.7,132.477 399.033,122.144 398.5,111.5 Z"/></g>
<g><path style="opacity:0.545" fill="#9ba3a9" d="M 182.5,123.5 C 182.739,129.184 181.739,134.518 179.5,139.5C 180.218,133.989 181.218,128.656 182.5,123.5 Z"/></g>
<g><path style="opacity:0.208" fill="#c5cbca" d="M 210.5,127.5 C 210.573,129.027 209.906,130.027 208.5,130.5C 208.427,128.973 209.094,127.973 210.5,127.5 Z"/></g>
<g><path style="opacity:0.459" fill="#a7adb1" d="M 154.5,123.5 C 154.435,126.428 153.768,129.095 152.5,131.5C 152.294,128.505 152.96,125.838 154.5,123.5 Z"/></g>
<g><path style="opacity:0.455" fill="#a8aeb1" d="M 141.5,128.5 C 141.324,131.727 140.657,134.727 139.5,137.5C 139.215,134.171 139.882,131.171 141.5,128.5 Z"/></g>
<g><path style="opacity:1" fill="#182631" d="M 290.5,93.5 C 291.78,94.9313 293.447,95.5979 295.5,95.5C 296.791,95.2627 297.791,95.596 298.5,96.5C 299.44,98.5721 300.94,100.239 303,101.5C 303.671,100.748 304.504,100.414 305.5,100.5C 311.998,103.325 317.331,107.658 321.5,113.5C 322.08,115.749 323.413,117.415 325.5,118.5C 325.738,120.404 326.738,121.738 328.5,122.5C 328.427,124.027 329.094,125.027 330.5,125.5C 332.957,128.751 334.624,132.418 335.5,136.5C 336.464,141.706 337.797,146.706 339.5,151.5C 340.651,156.65 340.817,161.984 340,167.5C 339.623,168.942 338.79,169.942 337.5,170.5C 334.57,171.299 331.57,171.632 328.5,171.5C 327.496,170.317 326.662,168.984 326,167.5C 325.981,160.907 325.148,154.573 323.5,148.5C 322.265,145.67 321.265,142.67 320.5,139.5C 320.771,137.62 320.104,136.287 318.5,135.5C 317.662,135.158 317.328,134.492 317.5,133.5C 315.935,130.467 315.102,127.467 315,124.5C 313.989,125.337 312.822,125.67 311.5,125.5C 309.5,121.5 306.5,118.5 302.5,116.5C 302.027,115.094 301.027,114.427 299.5,114.5C 298.508,114.672 297.842,114.338 297.5,113.5C 297.027,112.094 296.027,111.427 294.5,111.5C 292.716,111.107 291.05,110.441 289.5,109.5C 288.365,107.787 286.698,107.12 284.5,107.5C 282.901,107.768 281.568,107.434 280.5,106.5C 277.474,104.981 274.141,104.315 270.5,104.5C 267.975,104.503 265.641,104.837 263.5,105.5C 259.714,105.32 256.381,106.32 253.5,108.5C 253.158,109.338 252.492,109.672 251.5,109.5C 249.863,108.782 248.197,108.616 246.5,109C 244.911,110.745 242.911,111.912 240.5,112.5C 238.703,113.695 237.703,115.362 237.5,117.5C 234.031,116.887 232.031,118.221 231.5,121.5C 229.61,121.297 228.11,121.963 227,123.5C 226.503,125.81 226.337,128.143 226.5,130.5C 225.094,130.973 224.427,131.973 224.5,133.5C 222.461,138.235 220.461,142.901 218.5,147.5C 217.732,148.263 217.232,149.263 217,150.5C 216.707,156.867 216.207,163.2 215.5,169.5C 214.308,171.922 212.308,172.922 209.5,172.5C 206.692,172.922 204.692,171.922 203.5,169.5C 202.582,163.225 202.249,156.892 202.5,150.5C 202.216,148.585 202.549,146.919 203.5,145.5C 204.924,143.485 205.59,141.152 205.5,138.5C 206.108,135.673 207.108,133.007 208.5,130.5C 209.906,130.027 210.573,129.027 210.5,127.5C 210.328,126.508 210.662,125.842 211.5,125.5C 212.906,125.027 213.573,124.027 213.5,122.5C 214.906,122.027 215.573,121.027 215.5,119.5C 216.906,119.027 217.573,118.027 217.5,116.5C 217.833,115.5 218.5,114.833 219.5,114.5C 222.167,112.5 224.5,110.167 226.5,107.5C 229.089,106.581 231.089,104.914 232.5,102.5C 233.847,101.829 235.014,101.829 236,102.5C 236.513,101.473 237.013,100.473 237.5,99.5C 239.027,99.573 240.027,98.9063 240.5,97.5C 244.358,97.2299 247.691,95.8966 250.5,93.5C 253.495,93.7062 256.162,93.0395 258.5,91.5C 269.362,88.608 280.029,89.2746 290.5,93.5 Z"/></g>
<g><path style="opacity:0.067" fill="#cccfd8" d="M 226.5,130.5 C 226.573,132.027 225.906,133.027 224.5,133.5C 224.427,131.973 225.094,130.973 226.5,130.5 Z"/></g>
<g><path style="opacity:1" fill="#505962" d="M 317.5,133.5 C 315.147,131.14 313.147,128.473 311.5,125.5C 312.822,125.67 313.989,125.337 315,124.5C 315.102,127.467 315.935,130.467 317.5,133.5 Z"/></g>
<g><path style="opacity:0.004" fill="#cad5d5" d="M 231.5,123.5 C 231.573,125.027 230.906,126.027 229.5,126.5C 229.427,124.973 230.094,123.973 231.5,123.5 Z"/></g>
<g><path style="opacity:1" fill="#1a2731" d="M 286.5,119.5 C 290.714,123.878 290.381,128.045 285.5,132C 283.19,132.497 280.857,132.663 278.5,132.5C 278.666,142.506 278.5,152.506 278,162.5C 274.538,166.716 270.705,167.383 266.5,164.5C 265.031,153.783 264.031,142.783 263.5,131.5C 261.167,131.5 258.833,131.5 256.5,131.5C 251.688,127.802 251.355,123.802 255.5,119.5C 265.833,118.167 276.167,118.167 286.5,119.5 Z"/></g>
<g><path style="opacity:0.529" fill="#898e92" d="M 286.5,119.5 C 276.167,118.167 265.833,118.167 255.5,119.5C 255.611,118.883 255.944,118.383 256.5,118C 266.167,117.333 275.833,117.333 285.5,118C 286.056,118.383 286.389,118.883 286.5,119.5 Z"/></g>
<g><path style="opacity:0.878" fill="#91999e" d="M 302.5,116.5 C 306.5,118.5 309.5,121.5 311.5,125.5C 308.167,122.833 305.167,119.833 302.5,116.5 Z"/></g>
<g><path style="opacity:0.729" fill="#859298" d="M 299.5,114.5 C 301.027,114.427 302.027,115.094 302.5,116.5C 300.973,116.573 299.973,115.906 299.5,114.5 Z"/></g>
<g><path style="opacity:0.984" fill="#464f57" d="M 251.5,109.5 C 244.205,113.158 237.539,117.824 231.5,123.5C 230.094,123.973 229.427,124.973 229.5,126.5C 228.488,127.872 227.488,129.205 226.5,130.5C 226.337,128.143 226.503,125.81 227,123.5C 228.11,121.963 229.61,121.297 231.5,121.5C 232.031,118.221 234.031,116.887 237.5,117.5C 237.703,115.362 238.703,113.695 240.5,112.5C 242.911,111.912 244.911,110.745 246.5,109C 248.197,108.616 249.863,108.782 251.5,109.5 Z"/></g>
<g><path style="opacity:0.302" fill="#b7bdc0" d="M 294.5,111.5 C 296.027,111.427 297.027,112.094 297.5,113.5C 295.973,113.573 294.973,112.906 294.5,111.5 Z"/></g>
<g><path style="opacity:0.749" fill="#989ea5" d="M 284.5,107.5 C 286.698,107.12 288.365,107.787 289.5,109.5C 287.597,109.204 285.93,108.537 284.5,107.5 Z"/></g>
<g><path style="opacity:0.192" fill="#b5bec2" d="M 263.5,105.5 C 264.5,105.5 265.5,105.5 266.5,105.5C 262.317,106.627 257.983,107.627 253.5,108.5C 256.381,106.32 259.714,105.32 263.5,105.5 Z"/></g>
<g><path style="opacity:0.599" fill="#717a81" d="M 263.5,105.5 C 265.641,104.837 267.975,104.503 270.5,104.5C 274.141,104.315 277.474,104.981 280.5,106.5C 275.859,105.873 271.193,105.54 266.5,105.5C 265.5,105.5 264.5,105.5 263.5,105.5 Z"/></g>
<g><path style="opacity:0.024" fill="#e6ecee" d="M 256.5,131.5 C 258.833,131.5 261.167,131.5 263.5,131.5C 263.5,140.833 263.5,150.167 263.5,159.5C 262.507,150.682 262.173,141.682 262.5,132.5C 260.265,132.795 258.265,132.461 256.5,131.5 Z"/></g>
<g><path style="opacity:0.612" fill="#989ea2" d="M 373.5,131.5 C 375.163,133.438 375.829,135.772 375.5,138.5C 374.388,136.401 373.721,134.067 373.5,131.5 Z"/></g>
<g><path style="opacity:0.616" fill="#a7afb2" d="M 152.5,132.5 C 152.741,134.898 152.074,136.898 150.5,138.5C 150.595,136.214 151.262,134.214 152.5,132.5 Z"/></g>
<g><path style="opacity:0.184" fill="#abb3bb" d="M 196.5,132.5 C 196.086,138.813 194.752,144.813 192.5,150.5C 193.231,144.252 194.565,138.252 196.5,132.5 Z"/></g>
<g><path style="opacity:0.463" fill="#9da3a5" d="M 318.5,135.5 C 320.104,136.287 320.771,137.62 320.5,139.5C 319.326,138.486 318.66,137.153 318.5,135.5 Z"/></g>
<g><path style="opacity:0.333" fill="#abb2b7" d="M 360.5,131.5 C 362.245,135.2 363.245,139.2 363.5,143.5C 361.755,139.8 360.755,135.8 360.5,131.5 Z"/></g>
<g><path style="opacity:0.408" fill="#a2aab0" d="M 389.5,132.5 C 391.258,135.854 392.258,139.521 392.5,143.5C 390.517,140.201 389.517,136.534 389.5,132.5 Z"/></g>
<g><path style="opacity:0.871" fill="#94999f" d="M 335.5,136.5 C 338.024,141.089 339.358,146.089 339.5,151.5C 337.797,146.706 336.464,141.706 335.5,136.5 Z"/></g>
<g><path style="opacity:0.549" fill="#9ca4a9" d="M 166.5,138.5 C 166.074,142.427 165.074,146.093 163.5,149.5C 163.517,145.466 164.517,141.799 166.5,138.5 Z"/></g>
<g><path style="opacity:0.576" fill="#a0a6aa" d="M 375.5,139.5 C 377.587,143.49 378.92,147.823 379.5,152.5C 377.413,148.51 376.08,144.177 375.5,139.5 Z"/></g>
<g><path style="opacity:0.808" fill="#969c9f" d="M 179.5,139.5 C 179.829,142.228 179.163,144.562 177.5,146.5C 177.721,143.933 178.388,141.599 179.5,139.5 Z"/></g>
<g><path style="opacity:0.781" fill="#4b545a" d="M 263.5,131.5 C 264.031,142.783 265.031,153.783 266.5,164.5C 264.259,163.7 263.259,162.034 263.5,159.5C 263.5,150.167 263.5,140.833 263.5,131.5 Z"/></g>
<g><path style="opacity:0.49" fill="#9ea4a9" d="M 205.5,138.5 C 205.59,141.152 204.924,143.485 203.5,145.5C 203.41,142.848 204.076,140.515 205.5,138.5 Z"/></g>
<g><path style="opacity:0.137" fill="#b6bfc4" d="M 346.5,139.5 C 348.614,144.194 349.947,149.194 350.5,154.5C 348.409,149.809 347.076,144.809 346.5,139.5 Z"/></g>
<g><path style="opacity:0.824" fill="#8f959e" d="M 149.5,143.5 C 149.741,145.898 149.074,147.898 147.5,149.5C 147.595,147.214 148.262,145.214 149.5,143.5 Z"/></g>
<g><path style="opacity:0.659" fill="#8e959a" d="M 177.5,147.5 C 177.68,151.286 176.68,154.619 174.5,157.5C 175.13,153.952 176.13,150.619 177.5,147.5 Z"/></g>
<g><path style="opacity:0.176" fill="#bac1c5" d="M 404.5,147.5 C 405.785,150.589 406.451,153.922 406.5,157.5C 404.989,154.456 404.322,151.122 404.5,147.5 Z"/></g>
<g><path style="opacity:0.278" fill="#b4bbc0" d="M 139.5,138.5 C 138.928,145.107 137.594,151.44 135.5,157.5C 136.072,150.893 137.406,144.56 139.5,138.5 Z"/></g>
<g><path style="opacity:0.482" fill="#9ca4aa" d="M 323.5,148.5 C 325.148,154.573 325.981,160.907 326,167.5C 326.662,168.984 327.496,170.317 328.5,171.5C 326.589,171.426 325.422,170.426 325,168.5C 324.61,161.816 324.11,155.15 323.5,148.5 Z"/></g>
<g><path style="opacity:0.757" fill="#97a0a5" d="M 365.5,151.5 C 366.946,154.254 367.946,157.254 368.5,160.5C 366.446,157.992 365.446,154.992 365.5,151.5 Z"/></g>
<g><path style="opacity:0.976" fill="#787f83" d="M 147.5,149.5 C 147.554,152.992 146.554,155.992 144.5,158.5C 144.928,155.215 145.928,152.215 147.5,149.5 Z"/></g>
<g><path style="opacity:0.359" fill="#a1a9ae" d="M 218.5,147.5 C 217.89,154.15 217.39,160.816 217,167.5C 216.722,168.416 216.222,169.082 215.5,169.5C 216.207,163.2 216.707,156.867 217,150.5C 217.232,149.263 217.732,148.263 218.5,147.5 Z"/></g>
<g><path style="opacity:0.318" fill="#b8bec1" d="M 202.5,150.5 C 202.249,156.892 202.582,163.225 203.5,169.5C 202.883,169.389 202.383,169.056 202,168.5C 201.181,162.319 201.347,156.319 202.5,150.5 Z"/></g>
<g><path style="opacity:0.031" fill="#a7b8bc" d="M 350.5,154.5 C 351.738,156.214 352.405,158.214 352.5,160.5C 350.926,158.898 350.259,156.898 350.5,154.5 Z"/></g>
<g><path style="opacity:0.784" fill="#8d959b" d="M 396.5,155.5 C 397.537,156.93 398.204,158.597 398.5,160.5C 396.787,159.365 396.12,157.698 396.5,155.5 Z"/></g>
<g><path style="opacity:0.702" fill="#a3abae" d="M 174.5,157.5 C 174.741,159.898 174.074,161.898 172.5,163.5C 172.595,161.214 173.262,159.214 174.5,157.5 Z"/></g>
<g><path style="opacity:0.192" fill="#c9cad0" d="M 381.5,159.5 C 383.074,161.102 383.741,163.102 383.5,165.5C 382.262,163.786 381.595,161.786 381.5,159.5 Z"/></g>
<g><path style="opacity:0.09" fill="#bcc3c9" d="M 190.5,157.5 C 190.277,161.162 189.277,164.495 187.5,167.5C 187.723,163.838 188.723,160.505 190.5,157.5 Z"/></g>
<g><path style="opacity:0.008" fill="#c1c6c9" d="M 352.5,161.5 C 354.405,165.216 355.739,169.216 356.5,173.5C 354.194,169.915 352.861,165.915 352.5,161.5 Z"/></g>
<g><path style="opacity:0.804" fill="#858b92" d="M 407.5,162.5 C 409.223,164.78 409.889,167.447 409.5,170.5C 407.96,168.162 407.294,165.495 407.5,162.5 Z"/></g>
<g><path style="opacity:1" fill="#505b63" d="M 161.5,156.5 C 160.02,162.109 158.02,167.443 155.5,172.5C 155.567,170.599 155.233,168.766 154.5,167C 154.8,164.976 155.633,164.476 157,165.5C 157.72,163.888 157.554,162.388 156.5,161C 158.932,160.257 160.599,158.757 161.5,156.5 Z"/></g>
<g><path style="opacity:1" fill="#444e55" d="M 144.5,158.5 C 144.613,161.049 143.946,163.382 142.5,165.5C 144.124,166.869 144.624,168.536 144,170.5C 143.085,169.672 142.419,168.672 142,167.5C 141.623,168.942 140.79,169.942 139.5,170.5C 140.648,166.213 142.315,162.213 144.5,158.5 Z"/></g>
<g><path style="opacity:0.447" fill="#abb6b9" d="M 383.5,165.5 C 385.213,166.635 385.88,168.302 385.5,170.5C 384.463,169.07 383.796,167.403 383.5,165.5 Z"/></g>
<g><path style="opacity:0.486" fill="#b5bac1" d="M 133.5,167.5 C 132.992,171.736 131.992,175.736 130.5,179.5C 130.502,175.126 131.502,171.126 133.5,167.5 Z"/></g>
<g><path style="opacity:0.012" fill="#babec3" d="M 337.5,170.5 C 337.389,171.117 337.056,171.617 336.5,172C 333.633,172.801 330.966,172.634 328.5,171.5C 331.57,171.632 334.57,171.299 337.5,170.5 Z"/></g>
<g><path style="opacity:1" fill="#3b454d" d="M 169.5,172.5 C 169.351,173.552 169.517,174.552 170,175.5C 170.893,174.289 171.726,174.289 172.5,175.5C 171.139,177.028 169.972,178.695 169,180.5C 168.667,179.833 168.333,179.167 168,178.5C 166.768,181.412 165.268,184.078 163.5,186.5C 165.316,181.709 167.316,177.042 169.5,172.5 Z"/></g>
<g><path style="opacity:0.298" fill="#b3babc" d="M 387.5,174.5 C 388.931,175.78 389.598,177.447 389.5,179.5C 388.069,178.22 387.402,176.553 387.5,174.5 Z"/></g>
<g><path style="opacity:0.231" fill="#b5b9c0" d="M 404.5,175.5 C 405.906,175.973 406.573,176.973 406.5,178.5C 405.094,178.027 404.427,177.027 404.5,175.5 Z"/></g>
<g><path style="opacity:0.451" fill="#a3afb3" d="M 153.5,177.5 C 153.34,179.153 152.674,180.486 151.5,181.5C 151.229,179.62 151.896,178.287 153.5,177.5 Z"/></g>
<g><path style="opacity:0.396" fill="#adb4b9" d="M 130.5,179.5 C 130.167,182.167 129.833,184.833 129.5,187.5C 129.167,187.5 128.833,187.5 128.5,187.5C 128.294,184.505 128.96,181.838 130.5,179.5 Z"/></g>
<g><path style="opacity:1" fill="#424b52" d="M 369.5,164.5 C 372.069,169.985 374.403,175.651 376.5,181.5C 371.742,183.04 370.409,181.374 372.5,176.5C 370.737,172.681 369.737,168.681 369.5,164.5 Z"/></g>
<g><path style="opacity:0.376" fill="#b3b8c0" d="M 183.5,178.5 C 183.02,181.443 182.02,184.11 180.5,186.5C 180.415,183.351 181.415,180.684 183.5,178.5 Z"/></g>
<g><path style="opacity:0.259" fill="#b6bdc0" d="M 410.5,175.5 C 412.118,178.888 413.118,182.554 413.5,186.5C 413.5,187.167 413.5,187.833 413.5,188.5C 413.167,188.5 412.833,188.5 412.5,188.5C 411.673,184.193 411.007,179.86 410.5,175.5 Z"/></g>
<g><path style="opacity:1" fill="#474f56" d="M 390.5,181.5 C 392.485,181.859 393.151,182.692 392.5,184C 396.852,184.419 397.185,185.086 393.5,186C 394.337,187.011 394.67,188.178 394.5,189.5C 392.659,187.151 391.326,184.485 390.5,181.5 Z"/></g>
<g><path style="opacity:0.329" fill="#b3b9bc" d="M 360.5,183.5 C 361.931,184.78 362.598,186.447 362.5,188.5C 361.069,187.22 360.402,185.553 360.5,183.5 Z"/></g>
<g><path style="opacity:0.192" fill="#b6bfc4" d="M 149.5,185.5 C 149.771,187.38 149.104,188.713 147.5,189.5C 147.66,187.847 148.326,186.514 149.5,185.5 Z"/></g>
<g><path style="opacity:1" fill="#56616c" d="M 413.5,186.5 C 415.502,188.526 415.836,190.859 414.5,193.5C 413.048,192.06 412.048,190.394 411.5,188.5C 411.833,188.5 412.167,188.5 412.5,188.5C 412.833,189.833 413.167,189.833 413.5,188.5C 413.5,187.833 413.5,187.167 413.5,186.5 Z"/></g>
<g><path style="opacity:0.051" fill="#c3c5d3" d="M 128.5,188.5 C 128.5,189.167 128.833,189.5 129.5,189.5C 129.672,190.492 129.338,191.158 128.5,191.5C 128.5,190.833 128.167,190.5 127.5,190.5C 127.328,189.508 127.662,188.842 128.5,188.5 Z"/></g>
<g><path style="opacity:0.373" fill="#87959f" d="M 127.5,191.5 C 127.833,191.5 128.167,191.5 128.5,191.5C 128.539,192.756 128.039,193.756 127,194.5C 126.26,193.251 126.427,192.251 127.5,191.5 Z"/></g>
<g><path style="opacity:0.766" fill="#4a5359" d="M 275.5,177.5 C 276.458,177.953 277.292,178.619 278,179.5C 277.842,201.19 278.675,222.524 280.5,243.5C 281.167,243.5 281.833,243.5 282.5,243.5C 281.081,244.451 279.415,244.784 277.5,244.5C 277.667,223.164 277.5,201.831 277,180.5C 274.842,179.95 274.342,178.95 275.5,177.5 Z"/></g>
<g><path style="opacity:1" fill="#576168" d="M 394.5,189.5 C 395.315,190.429 396.148,191.429 397,192.5C 398,192.5 399,192.5 400,192.5C 399.513,194.044 399.013,195.71 398.5,197.5C 396.638,195.109 395.304,192.442 394.5,189.5 Z"/></g>
<g><path style="opacity:1" fill="#404851" d="M 162.5,188.5 C 163.014,190.512 163.18,192.512 163,194.5C 161.933,195.191 160.766,195.691 159.5,196C 158.603,198.311 157.27,200.144 155.5,201.5C 157.439,196.91 159.773,192.577 162.5,188.5 Z"/></g>
<g><path style="opacity:0.29" fill="#b1b9bb" d="M 382.5,194.5 C 383.906,194.973 384.573,195.973 384.5,197.5C 383.094,197.027 382.427,196.027 382.5,194.5 Z"/></g>
<g><path style="opacity:0.204" fill="#c0c7cd" d="M 143.5,197.5 C 143.573,199.027 142.906,200.027 141.5,200.5C 141.427,198.973 142.094,197.973 143.5,197.5 Z"/></g>
<g><path style="opacity:0.38" fill="#adb4b9" d="M 155.5,201.5 C 155.573,203.027 154.906,204.027 153.5,204.5C 153.427,202.973 154.094,201.973 155.5,201.5 Z"/></g>
<g><path style="opacity:1" fill="#505a63" d="M 172.5,202.5 C 171.617,205.704 169.95,208.371 167.5,210.5C 166.342,205.884 168.008,203.217 172.5,202.5 Z"/></g>
<g><path style="opacity:0.173" fill="#c1c7cc" d="M 138.5,205.5 C 138.573,207.027 137.906,208.027 136.5,208.5C 136.427,206.973 137.094,205.973 138.5,205.5 Z"/></g>
<g><path style="opacity:0.627" fill="#899199" d="M 152.5,206.5 C 152.262,208.404 151.262,209.738 149.5,210.5C 149.738,208.596 150.738,207.262 152.5,206.5 Z"/></g>
<g><path style="opacity:0.408" fill="#99a3a7" d="M 389.5,206.5 C 390.906,206.973 391.573,207.973 391.5,209.5C 390.094,209.027 389.427,208.027 389.5,206.5 Z"/></g>
<g><path style="opacity:0.51" fill="#949ba4" d="M 391.5,209.5 C 392.906,209.973 393.573,210.973 393.5,212.5C 392.094,212.027 391.427,211.027 391.5,209.5 Z"/></g>
<g><path style="opacity:0.384" fill="#a5acb1" d="M 149.5,210.5 C 149.573,212.027 148.906,213.027 147.5,213.5C 147.427,211.973 148.094,210.973 149.5,210.5 Z"/></g>
<g><path style="opacity:0.812" fill="#838d92" d="M 393.5,212.5 C 395.262,213.262 396.262,214.596 396.5,216.5C 394.738,215.738 393.738,214.404 393.5,212.5 Z"/></g>
<g><path style="opacity:0.471" fill="#99a1a4" d="M 147.5,213.5 C 147.573,215.027 146.906,216.027 145.5,216.5C 145.427,214.973 146.094,213.973 147.5,213.5 Z"/></g>
<g><path style="opacity:0.008" fill="#c6cccf" d="M 409.5,214.5 C 410.906,214.973 411.573,215.973 411.5,217.5C 410.094,217.027 409.427,216.027 409.5,214.5 Z"/></g>
<g><path style="opacity:0.012" fill="#cacfd1" d="M 131.5,215.5 C 131.573,217.027 130.906,218.027 129.5,218.5C 129.427,216.973 130.094,215.973 131.5,215.5 Z"/></g>
<g><path style="opacity:0.62" fill="#919da2" d="M 396.5,216.5 C 398.262,217.262 399.262,218.596 399.5,220.5C 397.738,219.738 396.738,218.404 396.5,216.5 Z"/></g>
<g><path style="opacity:0.451" fill="#9ea7ac" d="M 145.5,216.5 C 144.92,218.749 143.587,220.415 141.5,221.5C 142.08,219.251 143.413,217.585 145.5,216.5 Z"/></g>
<g><path style="opacity:0.008" fill="#caccce" d="M 412.5,218.5 C 413.906,218.973 414.573,219.973 414.5,221.5C 413.094,221.027 412.427,220.027 412.5,218.5 Z"/></g>
<g><path style="opacity:0.49" fill="#a2a8aa" d="M 318.5,222.5 C 319.449,221.848 320.615,221.514 322,221.5C 324.008,221.307 325.508,221.974 326.5,223.5C 323.904,222.735 321.237,222.401 318.5,222.5 Z"/></g>
<g><path style="opacity:0.008" fill="#cbd1d4" d="M 160.5,221.5 C 160.573,223.027 159.906,224.027 158.5,224.5C 158.427,222.973 159.094,221.973 160.5,221.5 Z"/></g>
<g><path style="opacity:1" fill="#4b545d" d="M 216.5,222.5 C 219.944,220.91 222.944,221.576 225.5,224.5C 222.368,225.135 219.368,224.469 216.5,222.5 Z"/></g>
<g><path style="opacity:0.533" fill="#99a0a7" d="M 399.5,220.5 C 401.587,221.585 402.92,223.251 403.5,225.5C 401.413,224.415 400.08,222.749 399.5,220.5 Z"/></g>
<g><path style="opacity:0.004" fill="#fefffe" d="M 459.5,223.5 C 460.833,224.167 460.833,224.167 459.5,223.5 Z"/></g>
<g><path style="opacity:0.156" fill="#cdd5db" d="M 126.5,222.5 C 126.179,227.695 126.513,232.695 127.5,237.5C 127.167,238.167 126.833,238.833 126.5,239.5C 125.167,233.833 125.167,228.167 126.5,222.5 Z"/></g>
<g><path style="opacity:0.455" fill="#a7afb3" d="M 141.5,221.5 C 140.92,223.749 139.587,225.415 137.5,226.5C 138.08,224.251 139.413,222.585 141.5,221.5 Z"/></g>
<g><path style="opacity:0.329" fill="#b3b8bd" d="M 216.5,222.5 C 215.833,223.833 214.833,224.833 213.5,225.5C 213.5,223.5 214.5,222.5 216.5,222.5 Z"/></g>
<g><path style="opacity:1" fill="#535e65" d="M 158.5,224.5 C 157.876,226.754 156.543,228.421 154.5,229.5C 154.461,228.417 154.127,227.417 153.5,226.5C 154.522,225.646 155.355,224.646 156,223.5C 156.671,224.252 157.504,224.586 158.5,224.5 Z"/></g>
<g><path style="opacity:0.34" fill="#9eaab2" d="M 414.5,221.5 C 415.816,224.087 416.483,227.087 416.5,230.5C 416.333,233.5 416.167,236.5 416,239.5C 415.283,238.956 414.783,238.289 414.5,237.5C 415.802,232.266 415.802,226.933 414.5,221.5 Z"/></g>
<g><path style="opacity:0.788" fill="#99a1a4" d="M 405.5,227.5 C 408.573,229.569 410.906,232.236 412.5,235.5C 409.427,233.431 407.094,230.764 405.5,227.5 Z"/></g>
<g><path style="opacity:0.686" fill="#8c9296" d="M 137.5,226.5 C 136.243,229.427 134.243,231.761 131.5,233.5C 132.757,230.573 134.757,228.239 137.5,226.5 Z"/></g>
<g><path style="opacity:0.012" fill="#ced1d4" d="M 154.5,229.5 C 154.573,231.027 153.906,232.027 152.5,232.5C 152.427,230.973 153.094,229.973 154.5,229.5 Z"/></g>
<g><path style="opacity:0.035" fill="#bccbd0" d="M 213.5,232.5 C 214.906,232.973 215.573,233.973 215.5,235.5C 214.094,235.027 213.427,234.027 213.5,232.5 Z"/></g>
<g><path style="opacity:0.773" fill="#7b8389" d="M 264.5,179.5 C 264.667,201.503 264.5,223.503 264,245.5C 262.698,244.915 261.531,244.249 260.5,243.5C 261.791,243.737 262.791,243.404 263.5,242.5C 262.346,222.573 262.18,202.573 263,182.5C 263.232,181.263 263.732,180.263 264.5,179.5 Z"/></g>
<g><path style="opacity:0.761" fill="#939a9f" d="M 215.5,235.5 C 218.427,236.757 220.761,238.757 222.5,241.5C 219.573,240.243 217.239,238.243 215.5,235.5 Z"/></g>
<g><path style="opacity:1" fill="#333e46" d="M 328.5,232.5 C 325.521,237.479 321.521,241.479 316.5,244.5C 316.279,243.265 315.612,242.265 314.5,241.5C 315,240.5 315.5,239.5 316,238.5C 318.707,237.563 321.207,236.23 323.5,234.5C 324.086,234.709 324.586,235.043 325,235.5C 324.954,233.687 325.12,232.021 325.5,230.5C 326.518,231.193 327.518,231.859 328.5,232.5 Z"/></g>
<g><path style="opacity:0.098" fill="#bcc3c9" d="M 149.5,235.5 C 149.262,237.404 148.262,238.738 146.5,239.5C 146.738,237.596 147.738,236.262 149.5,235.5 Z"/></g>
<g><path style="opacity:1" fill="#16232d" d="M 275.5,177.5 C 274.342,178.95 274.842,179.95 277,180.5C 277.5,201.831 277.667,223.164 277.5,244.5C 279.415,244.784 281.081,244.451 282.5,243.5C 284.786,243.405 286.786,242.738 288.5,241.5C 289.391,240.89 290.391,240.557 291.5,240.5C 294.577,240.821 296.91,239.821 298.5,237.5C 300.663,235.917 302.996,234.584 305.5,233.5C 307.404,233.262 308.738,232.262 309.5,230.5C 312.427,229.243 314.761,227.243 316.5,224.5C 316.833,223.5 317.5,222.833 318.5,222.5C 321.237,222.401 323.904,222.735 326.5,223.5C 329.424,226.056 330.09,229.056 328.5,232.5C 327.518,231.859 326.518,231.193 325.5,230.5C 325.12,232.021 324.954,233.687 325,235.5C 324.586,235.043 324.086,234.709 323.5,234.5C 321.207,236.23 318.707,237.563 316,238.5C 315.5,239.5 315,240.5 314.5,241.5C 315.612,242.265 316.279,243.265 316.5,244.5C 314.973,244.427 313.973,245.094 313.5,246.5C 311.795,248.192 309.795,249.525 307.5,250.5C 305.62,250.229 304.287,250.896 303.5,252.5C 299.767,254.411 295.767,255.744 291.5,256.5C 288.273,256.676 285.273,257.343 282.5,258.5C 278.681,259.166 274.681,259.499 270.5,259.5C 264.583,259.695 258.916,259.029 253.5,257.5C 251.562,255.837 249.228,255.171 246.5,255.5C 243.603,254.871 240.936,253.871 238.5,252.5C 237.341,250.75 235.674,249.75 233.5,249.5C 233.027,248.094 232.027,247.427 230.5,247.5C 230.027,246.094 229.027,245.427 227.5,245.5C 227.027,244.094 226.027,243.427 224.5,243.5C 223.5,243.167 222.833,242.5 222.5,241.5C 220.761,238.757 218.427,236.757 215.5,235.5C 215.573,233.973 214.906,232.973 213.5,232.5C 212.167,230.167 212.167,227.833 213.5,225.5C 214.833,224.833 215.833,223.833 216.5,222.5C 219.368,224.469 222.368,225.135 225.5,224.5C 226.865,226.86 228.865,228.527 231.5,229.5C 232.872,230.512 234.205,231.512 235.5,232.5C 236.035,234.446 237.368,235.446 239.5,235.5C 243.354,236.93 247.021,238.597 250.5,240.5C 253.452,242.41 256.786,243.41 260.5,243.5C 261.531,244.249 262.698,244.915 264,245.5C 264.5,223.503 264.667,201.503 264.5,179.5C 267.595,175.213 271.261,174.546 275.5,177.5 Z"/></g>
<g><path style="opacity:0.553" fill="#b0b8bb" d="M 288.5,241.5 C 286.786,242.738 284.786,243.405 282.5,243.5C 281.833,243.5 281.167,243.5 280.5,243.5C 282.905,242.232 285.572,241.565 288.5,241.5 Z"/></g>
<g><path style="opacity:0.38" fill="#b6bbbf" d="M 250.5,240.5 C 254.754,241.646 259.087,242.313 263.5,242.5C 262.791,243.404 261.791,243.737 260.5,243.5C 256.786,243.41 253.452,242.41 250.5,240.5 Z"/></g>
<g><path style="opacity:0.867" fill="#6f787c" d="M 298.5,237.5 C 296.91,239.821 294.577,240.821 291.5,240.5C 293.649,239.264 295.982,238.264 298.5,237.5 Z"/></g>
<g><path style="opacity:0.863" fill="#868e91" d="M 235.5,232.5 C 237.23,233.026 238.564,234.026 239.5,235.5C 237.368,235.446 236.035,234.446 235.5,232.5 Z"/></g>
<g><path style="opacity:0.608" fill="#838a90" d="M 309.5,230.5 C 308.738,232.262 307.404,233.262 305.5,233.5C 306.262,231.738 307.596,230.738 309.5,230.5 Z"/></g>
<g><path style="opacity:0.808" fill="#767f83" d="M 316.5,224.5 C 314.761,227.243 312.427,229.243 309.5,230.5C 311.239,227.757 313.573,225.757 316.5,224.5 Z"/></g>
<g><path style="opacity:0.51" fill="#9aa0a6" d="M 225.5,224.5 C 228.109,225.443 230.109,227.11 231.5,229.5C 228.865,228.527 226.865,226.86 225.5,224.5 Z"/></g>
<g><path style="opacity:0.447" fill="#9a9fa5" d="M 224.5,243.5 C 226.027,243.427 227.027,244.094 227.5,245.5C 225.973,245.573 224.973,244.906 224.5,243.5 Z"/></g>
<g><path style="opacity:0.004" fill="#d8dee0" d="M 316.5,244.5 C 316.027,245.906 315.027,246.573 313.5,246.5C 313.973,245.094 314.973,244.427 316.5,244.5 Z"/></g>
<g><path style="opacity:1" fill="#3e464f" d="M 393.5,237.5 C 395.315,238.63 397.315,239.296 399.5,239.5C 399.5,240.5 399.5,241.5 399.5,242.5C 400.822,242.67 401.989,242.337 403,241.5C 403.456,242.744 402.956,243.577 401.5,244C 402.563,245.188 403.897,245.688 405.5,245.5C 405.629,247.216 405.962,248.883 406.5,250.5C 401.833,246.5 397.5,242.167 393.5,237.5 Z"/></g>
<g><path style="opacity:0.549" fill="#8d9198" d="M 227.5,245.5 C 229.027,245.427 230.027,246.094 230.5,247.5C 228.973,247.573 227.973,246.906 227.5,245.5 Z"/></g>
<g><path style="opacity:0.443" fill="#94a0a4" d="M 230.5,247.5 C 232.027,247.427 233.027,248.094 233.5,249.5C 231.973,249.573 230.973,248.906 230.5,247.5 Z"/></g>
<g><path style="opacity:0.004" fill="#ccd1d5" d="M 136.5,248.5 C 136.833,248.5 137.167,248.5 137.5,248.5C 137.5,249.833 136.833,250.5 135.5,250.5C 135.833,249.833 136.167,249.167 136.5,248.5 Z"/></g>
<g><path style="opacity:0.224" fill="#bdc2c6" d="M 233.5,249.5 C 235.674,249.75 237.341,250.75 238.5,252.5C 236.326,252.25 234.659,251.25 233.5,249.5 Z"/></g>
<g><path style="opacity:0.051" fill="#c2c6d3" d="M 307.5,250.5 C 306.486,251.674 305.153,252.34 303.5,252.5C 304.287,250.896 305.62,250.229 307.5,250.5 Z"/></g>
<g><path style="opacity:0.545" fill="#90959b" d="M 246.5,255.5 C 249.228,255.171 251.562,255.837 253.5,257.5C 250.848,257.59 248.515,256.924 246.5,255.5 Z"/></g>
<g><path style="opacity:0.153" fill="#c2c6cd" d="M 291.5,256.5 C 288.829,258.118 285.829,258.785 282.5,258.5C 285.273,257.343 288.273,256.676 291.5,256.5 Z"/></g>
<g><path style="opacity:0.583" fill="#7b8389" d="M 135.5,250.5 C 132.871,253.631 130.038,256.631 127,259.5C 126.64,294.071 126.807,328.738 127.5,363.5C 126.71,362.391 126.21,361.058 126,359.5C 125.333,325.833 125.333,292.167 126,258.5C 126.36,256.579 127.194,254.912 128.5,253.5C 129.086,253.709 129.586,254.043 130,254.5C 130.307,251.124 132.14,249.79 135.5,250.5 Z"/></g>
<g><path style="opacity:0.066" fill="#e9eef1" d="M 412.5,256.5 C 414.027,256.427 415.027,257.094 415.5,258.5C 415.832,293.004 415.498,327.337 414.5,361.5C 414.667,327.165 414.5,292.832 414,258.5C 413.283,257.956 412.783,257.289 412.5,256.5 Z"/></g>
<g><path style="opacity:0.698" fill="#8b9197" d="M 263.5,287.5 C 263.027,288.906 262.027,289.573 260.5,289.5C 260.973,288.094 261.973,287.427 263.5,287.5 Z"/></g>
<g><path style="opacity:0.008" fill="#fefffe" d="M 459.5,288.5 C 460.833,289.167 460.833,289.167 459.5,288.5 Z"/></g>
<g><path style="opacity:0.655" fill="#9ba3a5" d="M 282.5,289.5 C 284.262,290.262 285.262,291.596 285.5,293.5C 283.738,292.738 282.738,291.404 282.5,289.5 Z"/></g>
<g><path style="opacity:0.561" fill="#a2a6aa" d="M 260.5,289.5 C 259.5,291.167 258.167,292.5 256.5,293.5C 256.833,291.167 258.167,289.833 260.5,289.5 Z"/></g>
<g><path style="opacity:0.208" fill="#bbc0c4" d="M 256.5,293.5 C 256.573,295.027 255.906,296.027 254.5,296.5C 254.427,294.973 255.094,293.973 256.5,293.5 Z"/></g>
<g><path style="opacity:0.365" fill="#9ca4ab" d="M 285.5,293.5 C 286.906,293.973 287.573,294.973 287.5,296.5C 286.094,296.027 285.427,295.027 285.5,293.5 Z"/></g>
<g><path style="opacity:0.07" fill="#e7f0f3" d="M 457.5,76.5 C 458.68,145.951 459.18,215.285 459,284.5C 459.374,285.416 459.874,286.25 460.5,287C 459.484,287.519 458.818,288.353 458.5,289.5C 459.207,294.07 459.207,298.403 458.5,302.5C 458.649,304.32 459.316,305.82 460.5,307C 457.833,308 457.833,309 460.5,310C 457.833,311.333 457.833,312.667 460.5,314C 459.833,315.667 459.167,317.333 458.5,319C 458.768,324.405 458.768,329.572 458.5,334.5C 459.167,335.5 459.833,336.5 460.5,337.5C 459.689,338.216 459.022,339.05 458.5,340C 458.769,345.328 458.769,350.494 458.5,355.5C 458.5,354.833 458.167,354.5 457.5,354.5C 457.5,261.833 457.5,169.167 457.5,76.5 Z"/></g>
<g><path style="opacity:0.235" fill="#c5cbcf" d="M 374.5,297.5 C 375.622,296.844 376.955,296.511 378.5,296.5C 380.883,296.361 382.883,297.028 384.5,298.5C 381.214,297.793 377.881,297.46 374.5,297.5 Z"/></g>
<g><path style="opacity:1" fill="#1e2c36" d="M 173.5,301.5 C 175.879,305.45 176.879,309.784 176.5,314.5C 175.99,317.674 174.323,320.008 171.5,321.5C 170.508,321.328 169.842,321.662 169.5,322.5C 169.5,322.833 169.5,323.167 169.5,323.5C 167.304,323.59 165.137,323.923 163,324.5C 160.889,324.299 159.055,323.633 157.5,322.5C 156.73,320.065 155.063,318.731 152.5,318.5C 152.34,316.847 151.674,315.514 150.5,314.5C 149.844,313.378 149.511,312.045 149.5,310.5C 149.361,308.117 150.028,306.117 151.5,304.5C 152.906,304.027 153.573,303.027 153.5,301.5C 157.084,296.953 161.75,295.453 167.5,297C 170.106,297.792 172.106,299.292 173.5,301.5 Z"/></g>
<g><path style="opacity:0.722" fill="#84878e" d="M 226.5,303.5 C 222.833,303.5 219.167,303.5 215.5,303.5C 219.167,300.833 222.833,300.833 226.5,303.5 Z"/></g>
<g><path style="opacity:0.204" fill="#bec4c9" d="M 287.5,296.5 C 290.167,301.167 290.167,305.833 287.5,310.5C 288.833,305.833 288.833,301.167 287.5,296.5 Z"/></g>
<g><path style="opacity:0.82" fill="#85888b" d="M 326.5,303.5 C 322.833,303.5 319.167,303.5 315.5,303.5C 319.167,300.833 322.833,300.833 326.5,303.5 Z"/></g>
<g><path style="opacity:0.757" fill="#889195" d="M 388.5,301.5 C 389.906,301.973 390.573,302.973 390.5,304.5C 389.094,304.027 388.427,303.027 388.5,301.5 Z"/></g>
<g><path style="opacity:0.427" fill="#959ba1" d="M 153.5,301.5 C 153.573,303.027 152.906,304.027 151.5,304.5C 151.427,302.973 152.094,301.973 153.5,301.5 Z"/></g>
<g><path style="opacity:0.557" fill="#9ba0a5" d="M 368.5,301.5 C 367.89,303.434 366.89,305.101 365.5,306.5C 365.273,304.067 366.273,302.401 368.5,301.5 Z"/></g>
<g><path style="opacity:1" fill="#1c2831" d="M 374.5,297.5 C 377.881,297.46 381.214,297.793 384.5,298.5C 386.404,298.738 387.738,299.738 388.5,301.5C 388.427,303.027 389.094,304.027 390.5,304.5C 391.705,308.513 391.705,312.513 390.5,316.5C 389.883,316.389 389.383,316.056 389,315.5C 388.021,317.32 386.521,318.487 384.5,319C 385.252,319.671 385.586,320.504 385.5,321.5C 381.444,325.109 377.11,325.442 372.5,322.5C 372.027,321.094 371.027,320.427 369.5,320.5C 364.787,316.72 363.453,312.054 365.5,306.5C 366.89,305.101 367.89,303.434 368.5,301.5C 369.802,299.178 371.802,297.845 374.5,297.5 Z"/></g>
<g><path style="opacity:0.643" fill="#8e969a" d="M 314.5,303.5 C 313.738,305.262 312.404,306.262 310.5,306.5C 311.262,304.738 312.596,303.738 314.5,303.5 Z"/></g>
<g><path style="opacity:0.008" fill="#caced0" d="M 328.5,304.5 C 330.027,304.427 331.027,305.094 331.5,306.5C 329.973,306.573 328.973,305.906 328.5,304.5 Z"/></g>
<g><path style="opacity:0.651" fill="#9da3a5" d="M 213.5,304.5 C 211.833,306.833 209.833,308.833 207.5,310.5C 208.5,307.5 210.5,305.5 213.5,304.5 Z"/></g>
<g><path style="opacity:0.788" fill="#797f86" d="M 228.5,304.5 C 231.167,305.167 232.833,306.833 233.5,309.5C 231.167,308.5 229.5,306.833 228.5,304.5 Z"/></g>
<g><path style="opacity:0.427" fill="#a2acaf" d="M 173.5,301.5 C 175.61,302.453 176.777,304.119 177,306.5C 177.801,309.367 177.634,312.034 176.5,314.5C 176.879,309.784 175.879,305.45 173.5,301.5 Z"/></g>
<g><path style="opacity:1" fill="#1b2730" d="M 282.5,289.5 C 282.738,291.404 283.738,292.738 285.5,293.5C 285.427,295.027 286.094,296.027 287.5,296.5C 288.833,301.167 288.833,305.833 287.5,310.5C 286.833,311.167 286.167,311.833 285.5,312.5C 281.146,312.845 278.479,315.512 277.5,320.5C 272.354,323.147 267.354,322.813 262.5,319.5C 261.738,317.738 260.404,316.738 258.5,316.5C 254.796,313.256 252.796,309.09 252.5,304C 253.016,301.331 253.683,298.831 254.5,296.5C 255.906,296.027 256.573,295.027 256.5,293.5C 258.167,292.5 259.5,291.167 260.5,289.5C 262.027,289.573 263.027,288.906 263.5,287.5C 270.16,284.593 276.494,285.259 282.5,289.5 Z"/></g>
<g><path style="opacity:0.286" fill="#aeb4b7" d="M 390.5,304.5 C 391.972,306.117 392.639,308.117 392.5,310.5C 392.639,312.883 391.972,314.883 390.5,316.5C 391.705,312.513 391.705,308.513 390.5,304.5 Z"/></g>
<g><path style="opacity:0.22" fill="#adb9bf" d="M 332.5,308.5 C 333.906,308.973 334.573,309.973 334.5,311.5C 333.094,311.027 332.427,310.027 332.5,308.5 Z"/></g>
<g><path style="opacity:1" fill="#6a7276" d="M 310.5,306.5 C 310.257,311.325 309.257,314.825 307.5,317C 307.725,319.528 308.058,322.028 308.5,324.5C 304.145,317.96 304.811,311.96 310.5,306.5 Z"/></g>
<g><path style="opacity:1" fill="#3e474f" d="M 285.5,312.5 C 285.5,313.167 285.5,313.833 285.5,314.5C 283.656,317.687 280.989,319.687 277.5,320.5C 278.479,315.512 281.146,312.845 285.5,312.5 Z"/></g>
<g><path style="opacity:0.078" fill="#c8d1d5" d="M 287.5,310.5 C 287.771,312.38 287.104,313.713 285.5,314.5C 285.5,313.833 285.5,313.167 285.5,312.5C 286.167,311.833 286.833,311.167 287.5,310.5 Z"/></g>
<g><path style="opacity:0.994" fill="#4e5960" d="M 390.5,316.5 C 389.833,319.167 388.167,320.833 385.5,321.5C 385.586,320.504 385.252,319.671 384.5,319C 386.521,318.487 388.021,317.32 389,315.5C 389.383,316.056 389.883,316.389 390.5,316.5 Z"/></g>
<g><path style="opacity:0.149" fill="#cbccd6" d="M 150.5,314.5 C 151.674,315.514 152.34,316.847 152.5,318.5C 150.896,317.713 150.229,316.38 150.5,314.5 Z"/></g>
<g><path style="opacity:0.647" fill="#9da2a8" d="M 233.5,309.5 C 237.482,314.448 237.482,319.448 233.5,324.5C 234.69,319.477 234.69,314.477 233.5,309.5 Z"/></g>
<g><path style="opacity:0.62" fill="#8b9296" d="M 258.5,316.5 C 260.404,316.738 261.738,317.738 262.5,319.5C 260.596,319.262 259.262,318.262 258.5,316.5 Z"/></g>
<g><path style="opacity:1" fill="#616971" d="M 152.5,318.5 C 155.063,318.731 156.73,320.065 157.5,322.5C 156.883,322.611 156.383,322.944 156,323.5C 155.003,321.677 153.836,320.01 152.5,318.5 Z"/></g>
<g><path style="opacity:0.014" fill="#f0f2f3" d="M 169.5,322.5 C 169.842,321.662 170.508,321.328 171.5,321.5C 172.853,322.867 172.519,323.867 170.5,324.5C 169.893,324.376 169.56,324.043 169.5,323.5C 170.833,323.167 170.833,322.833 169.5,322.5 Z"/></g>
<g><path style="opacity:0.42" fill="#9fabae" d="M 369.5,320.5 C 371.027,320.427 372.027,321.094 372.5,322.5C 370.973,322.573 369.973,321.906 369.5,320.5 Z"/></g>
<g><path style="opacity:0.114" fill="#c9d1d6" d="M 207.5,322.5 C 208.906,322.973 209.573,323.973 209.5,325.5C 208.094,325.027 207.427,324.027 207.5,322.5 Z"/></g>
<g><path style="opacity:0.043" fill="#c0c3c5" d="M 333.5,323.5 C 333.573,325.027 332.906,326.027 331.5,326.5C 331.427,324.973 332.094,323.973 333.5,323.5 Z"/></g>
<g><path style="opacity:0.024" fill="#bac5c8" d="M 308.5,324.5 C 310.167,325.5 311.5,326.833 312.5,328.5C 310.167,328.167 308.833,326.833 308.5,324.5 Z"/></g>
<g><path style="opacity:0.161" fill="#c0c8cb" d="M 255.5,328.5 C 258.845,327.104 261.845,327.77 264.5,330.5C 261.574,329.539 258.574,328.873 255.5,328.5 Z"/></g>
<g><path style="opacity:0.22" fill="#c2c8ce" d="M 172.5,329.5 C 175.34,328.083 178.007,328.416 180.5,330.5C 177.873,329.908 175.206,329.575 172.5,329.5 Z"/></g>
<g><path style="opacity:0.318" fill="#bdc2c6" d="M 386.5,329.5 C 387.449,328.848 388.615,328.514 390,328.5C 392.008,328.307 393.508,328.974 394.5,330.5C 391.904,329.735 389.237,329.401 386.5,329.5 Z"/></g>
<g><path style="opacity:0.855" fill="#8b9297" d="M 154.5,329.5 C 151.833,329.833 149.167,330.167 146.5,330.5C 148.993,328.416 151.66,328.083 154.5,329.5 Z"/></g>
<g><path style="opacity:0.784" fill="#81888e" d="M 282.5,328.5 C 280.68,330.448 278.346,331.448 275.5,331.5C 275.5,334.833 275.5,338.167 275.5,341.5C 271.002,333.496 273.335,329.163 282.5,328.5 Z"/></g>
<g><path style="opacity:0.373" fill="#abb1b4" d="M 289.5,329.5 C 291.153,329.66 292.486,330.326 293.5,331.5C 291.62,331.771 290.287,331.104 289.5,329.5 Z"/></g>
<g><path style="opacity:0.502" fill="#8f989c" d="M 373.5,331.5 C 371.213,331.276 369.047,330.609 367,329.5C 365.234,330.233 363.401,330.567 361.5,330.5C 365.689,327.749 369.689,328.083 373.5,331.5 Z"/></g>
<g><path style="opacity:0.671" fill="#90949d" d="M 146.5,330.5 C 145.738,332.262 144.404,333.262 142.5,333.5C 143.262,331.738 144.596,330.738 146.5,330.5 Z"/></g>
<g><path style="opacity:0.02" fill="#d9dfe1" d="M 233.5,324.5 C 232.057,326.621 231.057,328.954 230.5,331.5C 230.803,333.114 231.47,334.448 232.5,335.5C 231.5,335.5 230.5,335.5 229.5,335.5C 228.512,330.808 229.846,327.141 233.5,324.5 Z"/></g>
<g><path style="opacity:0.133" fill="#c4d0d5" d="M 330.5,327.5 C 328.772,330.883 329.439,333.55 332.5,335.5C 329.266,335.763 327.932,334.263 328.5,331C 328.608,329.319 329.275,328.152 330.5,327.5 Z"/></g>
<g><path style="opacity:0.007" fill="#fefffe" d="M 162.5,332.5 C 164.085,333.002 164.585,334.002 164,335.5C 162.961,334.756 162.461,333.756 162.5,332.5 Z"/></g>
<g><path style="opacity:0.49" fill="#b6babc" d="M 382.5,331.5 C 381.699,333.042 381.366,334.708 381.5,336.5C 380.861,335.903 380.528,335.07 380.5,334C 380.684,332.624 381.351,331.791 382.5,331.5 Z"/></g>
<g><path style="opacity:0.788" fill="#788389" d="M 85.5,72.5 C 85.5,167.5 85.5,262.5 85.5,357.5C 85.1667,357.5 84.8333,357.5 84.5,357.5C 84.8016,354.941 84.4682,352.607 83.5,350.5C 83.3333,259.499 83.5,168.499 84,77.5C 84.1981,75.6183 84.6981,73.9516 85.5,72.5 Z"/></g>
<g><path style="opacity:0.235" fill="#c0c5ca" d="M 159.5,331.5 C 160.725,332.152 161.392,333.319 161.5,335C 161.332,337.665 160.665,340.165 159.5,342.5C 160.221,339.035 160.221,335.369 159.5,331.5 Z"/></g>
<g><path style="opacity:0.451" fill="#98a2a5" d="M 211.5,327.5 C 212.725,328.152 213.392,329.319 213.5,331C 214.068,334.263 212.734,335.763 209.5,335.5C 212.561,333.55 213.228,330.883 211.5,327.5 Z"/></g>
<g><path style="opacity:0.565" fill="#a0a6aa" d="M 247.5,332.5 C 246.5,334.167 245.167,335.5 243.5,336.5C 243.833,334.167 245.167,332.833 247.5,332.5 Z"/></g>
<g><path style="opacity:0.008" fill="#d0d4d5" d="M 295.5,333.5 C 297.5,333.5 298.5,334.5 298.5,336.5C 297.167,335.833 296.167,334.833 295.5,333.5 Z"/></g>
<g><path style="opacity:0.008" fill="#fefffe" d="M 378.5,336.5 C 377.438,335.425 377.438,334.425 378.5,333.5C 379.776,334.614 379.776,335.614 378.5,336.5 Z"/></g>
<g><path style="opacity:0.631" fill="#9fa7ab" d="M 398.5,332.5 C 400.262,333.262 401.262,334.596 401.5,336.5C 399.738,335.738 398.738,334.404 398.5,332.5 Z"/></g>
<g><path style="opacity:0.588" fill="#899099" d="M 312.5,328.5 C 313.622,330.288 313.789,332.288 313,334.5C 311.989,335.337 310.822,335.67 309.5,335.5C 310.172,334.733 311.005,334.066 312,333.5C 311.932,331.658 312.099,329.991 312.5,328.5 Z"/></g>
<g><path style="opacity:0.016" fill="#f9f9ff" d="M 375.5,332.5 C 376.022,334.219 377.022,335.552 378.5,336.5C 377.791,337.404 376.791,337.737 375.5,337.5C 375.5,335.833 375.5,334.167 375.5,332.5 Z"/></g>
<g><path style="opacity:0.624" fill="#969ca1" d="M 207.5,336.5 C 206.167,338.5 204.5,340.167 202.5,341.5C 203.167,338.833 204.833,337.167 207.5,336.5 Z"/></g>
<g><path style="opacity:0.094" fill="#bac3c6" d="M 142.5,333.5 C 141.242,335.687 140.242,338.02 139.5,340.5C 139.167,340.5 138.833,340.5 138.5,340.5C 138.555,337.386 139.888,335.052 142.5,333.5 Z"/></g>
<g><path style="opacity:0.459" fill="#91999a" d="M 243.5,336.5 C 243.573,338.027 242.906,339.027 241.5,339.5C 241.427,337.973 242.094,336.973 243.5,336.5 Z"/></g>
<g><path style="opacity:0.255" fill="#b5bcbf" d="M 298.5,336.5 C 299.906,336.973 300.573,337.973 300.5,339.5C 299.094,339.027 298.427,338.027 298.5,336.5 Z"/></g>
<g><path style="opacity:0.651" fill="#aaadb3" d="M 336.5,337.5 C 338.262,338.262 339.262,339.596 339.5,341.5C 337.738,340.738 336.738,339.404 336.5,337.5 Z"/></g>
<g><path style="opacity:0.988" fill="#70797e" d="M 307.5,336.5 C 306.598,338.341 305.264,339.674 303.5,340.5C 303.833,338.167 305.167,336.833 307.5,336.5 Z"/></g>
<g><path style="opacity:0.416" fill="#aab2b8" d="M 375.5,338.5 C 375.567,339.959 375.234,341.292 374.5,342.5C 373.529,341.038 373.862,339.705 375.5,338.5 Z"/></g>
<g><path style="opacity:0.357" fill="#abb0b8" d="M 381.5,339.5 C 383.382,340.221 383.715,341.221 382.5,342.5C 381.89,341.609 381.557,340.609 381.5,339.5 Z"/></g>
<g><path style="opacity:0.865" fill="#2e3840" d="M 415.5,258.5 C 416.18,292.706 416.846,327.039 417.5,361.5C 416.852,363.086 416.352,364.753 416,366.5C 415.658,364.381 414.825,364.047 413.5,365.5C 413.833,364.167 414.167,362.833 414.5,361.5C 415.498,327.337 415.832,293.004 415.5,258.5 Z"/></g>
<g><path style="opacity:1" fill="#46525c" d="M 236.5,338.5 C 238.173,339.343 239.34,340.676 240,342.5C 240.232,341.263 240.732,340.263 241.5,339.5C 241.66,341.199 241.494,342.866 241,344.5C 240.439,345.022 239.772,345.355 239,345.5C 237.287,344.863 237.121,343.863 238.5,342.5C 237.37,341.378 236.703,340.044 236.5,338.5 Z"/></g>
<g><path style="opacity:0.702" fill="#7b848a" d="M 339.5,341.5 C 341.074,343.102 341.741,345.102 341.5,347.5C 339.926,345.898 339.259,343.898 339.5,341.5 Z"/></g>
<g><path style="opacity:0.01" fill="#fefffe" d="M 138.5,347.5 C 138.5,349.167 138.5,350.833 138.5,352.5C 137.733,351.828 137.066,350.995 136.5,350C 137.833,349.333 137.833,348.667 136.5,348C 137.094,347.536 137.761,347.369 138.5,347.5 Z"/></g>
<g><path style="opacity:0.925" fill="#636b71" d="M 167.5,343.5 C 167.834,346.491 166.834,348.824 164.5,350.5C 164.707,347.759 165.707,345.426 167.5,343.5 Z"/></g>
<g><path style="opacity:0.006" fill="#fefffe" d="M 83.5,350.5 C 83.631,351.239 83.4643,351.906 83,352.5C 82.3083,351.563 82.475,350.897 83.5,350.5 Z"/></g>
<g><path style="opacity:0.561" fill="#86949a" d="M 161.5,346.5 C 162.143,348.076 163.143,349.41 164.5,350.5C 164.631,351.239 164.464,351.906 164,352.5C 161.961,351.022 161.128,349.022 161.5,346.5 Z"/></g>
<g><path style="opacity:0.018" fill="#fbfffe" d="M 189.5,342.5 C 190.997,351.784 191.33,361.117 190.5,370.5C 190.167,370.5 189.833,370.5 189.5,370.5C 189.5,361.167 189.5,351.833 189.5,342.5 Z"/></g>
<g><path style="opacity:0.408" fill="#95a0a4" d="M 376.5,346.5 C 377.158,347.398 377.824,348.398 378.5,349.5C 379.176,348.398 379.842,347.398 380.5,346.5C 380.884,348.665 380.217,350.332 378.5,351.5C 376.783,350.332 376.116,348.665 376.5,346.5 Z"/></g>
<g><path style="opacity:0.767" fill="#4b555b" d="M 202.5,341.5 C 201.938,351.318 201.271,360.984 200.5,370.5C 200.5,363.5 200.5,356.5 200.5,349.5C 200.294,346.505 200.96,343.838 202.5,341.5 Z"/></g>
<g><path style="opacity:0.776" fill="#535c62" d="M 402.5,342.5 C 403.167,351.5 403.833,360.5 404.5,369.5C 406.5,369.167 408.5,368.833 410.5,368.5C 410.389,369.117 410.056,369.617 409.5,370C 407.19,370.497 404.857,370.663 402.5,370.5C 402.5,361.167 402.5,351.833 402.5,342.5 Z"/></g>
<g><path style="opacity:0.093" fill="#dfe5e6" d="M 402.5,338.5 C 403.268,339.263 403.768,340.263 404,341.5C 405.008,350.905 405.175,360.238 404.5,369.5C 403.833,360.5 403.167,351.5 402.5,342.5C 402.5,341.167 402.5,339.833 402.5,338.5 Z"/></g>
<g><path style="opacity:0.816" fill="#949ea5" d="M 273.5,349.5 C 273.88,351.698 273.213,353.365 271.5,354.5C 271.402,352.447 272.069,350.78 273.5,349.5 Z"/></g>
<g><path style="opacity:0.337" fill="#9ea6ab" d="M 354.5,337.5 C 353.543,348.783 353.21,360.116 353.5,371.5C 349.298,371.817 345.298,371.483 341.5,370.5C 341.833,370.5 342.167,370.5 342.5,370.5C 345.833,370.5 349.167,370.5 352.5,370.5C 352.333,359.828 352.5,349.161 353,338.5C 353.383,337.944 353.883,337.611 354.5,337.5 Z"/></g>
<g><path style="opacity:0.008" fill="#fefffe" d="M 84.5,357.5 C 83.8333,358.167 83.8333,358.167 84.5,357.5 Z"/></g>
<g><path style="opacity:0.775" fill="#5f676d" d="M 138.5,340.5 C 138.833,340.5 139.167,340.5 139.5,340.5C 139.827,350.681 139.494,360.681 138.5,370.5C 138.5,370.167 138.5,369.833 138.5,369.5C 138.5,369.167 138.5,368.833 138.5,368.5C 138.5,367.833 138.5,367.167 138.5,366.5C 138.5,365.833 138.5,365.167 138.5,364.5C 138.5,364.167 138.5,363.833 138.5,363.5C 138.5,359.833 138.5,356.167 138.5,352.5C 138.5,350.833 138.5,349.167 138.5,347.5C 137.167,345.167 137.167,342.833 138.5,340.5 Z"/></g>
<g><path style="opacity:0.004" fill="#c7ced2" d="M 457.5,354.5 C 458.167,354.5 458.5,354.833 458.5,355.5C 457.272,357.01 457.272,358.51 458.5,360C 456.411,362.281 455.745,364.781 456.5,367.5C 456.154,368.696 455.654,368.696 455,367.5C 454.768,368.737 454.268,369.737 453.5,370.5C 453.366,368.708 453.699,367.042 454.5,365.5C 455.368,361.686 456.368,358.019 457.5,354.5 Z"/></g>
<g><path style="opacity:0.055" fill="#cacdd1" d="M 85.5,359.5 C 87.2035,363.617 88.5368,367.951 89.5,372.5C 86.9871,368.622 85.6538,364.289 85.5,359.5 Z"/></g>
<g><path style="opacity:0.007" fill="#fefffe" d="M 138.5,363.5 C 138.5,363.833 138.5,364.167 138.5,364.5C 137.624,364.631 136.957,364.298 136.5,363.5C 136.97,362.537 137.637,362.537 138.5,363.5 Z"/></g>
<g><path style="opacity:0.051" fill="#eff0f1" d="M 341.5,347.5 C 342.455,349.283 343.122,351.283 343.5,353.5C 343.092,357.344 342.758,361.177 342.5,365C 342.755,366.326 343.422,367.326 344.5,368C 343.619,368.708 342.953,369.542 342.5,370.5C 342.167,370.5 341.833,370.5 341.5,370.5C 341.5,362.833 341.5,355.167 341.5,347.5 Z"/></g>
<g><path style="opacity:0.573" fill="#868c8f" d="M 127.5,364.5 C 128.906,364.973 129.573,365.973 129.5,367.5C 128.094,367.027 127.427,366.027 127.5,364.5 Z"/></g>
<g><path style="opacity:0.01" fill="#fefffe" d="M 138.5,366.5 C 138.5,367.167 138.5,367.833 138.5,368.5C 137.167,368.5 135.833,368.5 134.5,368.5C 135.287,366.896 136.62,366.229 138.5,366.5 Z"/></g>
<g><path style="opacity:0.725" fill="#7a8589" d="M 413.5,365.5 C 413.5,367.5 412.5,368.5 410.5,368.5C 411.167,367.167 412.167,366.167 413.5,365.5 Z"/></g>
<g><path style="opacity:0.337" fill="#a7afb5" d="M 131.5,368.5 C 132.5,368.5 133.5,368.5 134.5,368.5C 135.568,369.434 136.901,369.768 138.5,369.5C 138.5,369.833 138.5,370.167 138.5,370.5C 136.473,370.662 134.473,370.495 132.5,370C 131.944,369.617 131.611,369.117 131.5,368.5 Z"/></g>
<g><path style="opacity:0.608" fill="#9ba8ad" d="M 200.5,349.5 C 200.5,356.5 200.5,363.5 200.5,370.5C 196.833,371.833 193.167,371.833 189.5,370.5C 189.833,370.5 190.167,370.5 190.5,370.5C 193.5,370.5 196.5,370.5 199.5,370.5C 199.175,363.313 199.509,356.313 200.5,349.5 Z"/></g>
<g><path style="opacity:0.012" fill="#e2e4e7" d="M 453.5,370.5 C 454.517,372.472 453.85,373.805 451.5,374.5C 451.66,372.847 452.326,371.514 453.5,370.5 Z"/></g>
<g><path style="opacity:0.012" fill="#fefffe" d="M 89.5,373.5 C 88.8333,374.167 88.8333,374.167 89.5,373.5 Z"/></g>
<g><path style="opacity:0.006" fill="#eff1f3" d="M 90.5,374.5 C 91.3382,374.842 91.6716,375.508 91.5,376.5C 89.3023,376.591 88.9689,375.925 90.5,374.5 Z"/></g>
<g><path style="opacity:1" fill="#5d6a72" d="M 450.5,376.5 C 449.66,378.853 448.326,380.853 446.5,382.5C 445.229,379.077 446.562,377.077 450.5,376.5 Z"/></g>
<g><path style="opacity:0.024" fill="#d7dce1" d="M 446.5,382.5 C 447.491,384.123 446.824,385.123 444.5,385.5C 444.5,384.833 444.5,384.167 444.5,383.5C 445.167,383.167 445.833,382.833 446.5,382.5 Z"/></g>
<g><path style="opacity:1" fill="#2b3841" d="M 444.5,383.5 C 444.5,384.167 444.5,384.833 444.5,385.5C 443.833,386.5 443.167,387.5 442.5,388.5C 441.167,389.833 439.833,391.167 438.5,392.5C 436.999,393.752 435.332,394.752 433.5,395.5C 432.782,393.863 432.616,392.197 433,390.5C 433.333,391.167 433.667,391.833 434,392.5C 434.058,389.441 435.391,387.108 438,385.5C 439.395,386.815 440.395,386.481 441,384.5C 441.893,385.711 442.726,385.711 443.5,384.5C 442.37,382.568 442.704,382.234 444.5,383.5 Z"/></g>
<g><path style="opacity:0.004" fill="#fefffe" d="M 442.5,388.5 C 443.833,389.167 443.833,389.167 442.5,388.5 Z"/></g>
<g><path style="opacity:0.769" fill="#969ea3" d="M 102.5,390.5 C 104.749,391.08 106.415,392.413 107.5,394.5C 105.251,393.92 103.585,392.587 102.5,390.5 Z"/></g>
<g><path style="opacity:0.004" fill="#fefffe" d="M 438.5,392.5 C 439.833,393.167 439.833,393.167 438.5,392.5 Z"/></g>
<g><path style="opacity:0.01" fill="#eeeff0" d="M 108.5,395.5 C 109.71,395.932 110.71,396.599 111.5,397.5C 109.821,397.715 108.821,397.048 108.5,395.5 Z"/></g>
<g><path style="opacity:0.035" fill="#dce0f7" d="M 433.5,395.5 C 433.368,398.007 432.368,398.674 430.5,397.5C 431.29,396.599 432.29,395.932 433.5,395.5 Z"/></g>
<g><path style="opacity:0.039" fill="#d4d6e6" d="M 428.5,398.5 C 428.842,397.662 429.508,397.328 430.5,397.5C 430.672,398.492 430.338,399.158 429.5,399.5C 429.5,398.833 429.167,398.5 428.5,398.5 Z"/></g>
<g><path style="opacity:0.227" fill="#c2c8ce" d="M 113.5,398.5 C 115.027,398.427 116.027,399.094 116.5,400.5C 114.973,400.573 113.973,399.906 113.5,398.5 Z"/></g>
<g><path style="opacity:0.012" fill="#e0e4ee" d="M 116.5,400.5 C 120.537,401.065 124.203,402.399 127.5,404.5C 127.5,404.833 127.5,405.167 127.5,405.5C 123.132,405.164 119.465,403.498 116.5,400.5 Z"/></g>
<g><path style="opacity:0.047" fill="#d6e0e5" d="M 428.5,398.5 C 429.167,398.5 429.5,398.833 429.5,399.5C 423.702,403.545 417.369,405.545 410.5,405.5C 411.5,404.833 412.5,404.167 413.5,403.5C 418.71,402.43 423.71,400.763 428.5,398.5 Z"/></g>
<g><path style="opacity:0.931" fill="#2b363f" d="M 413.5,403.5 C 412.5,404.167 411.5,404.833 410.5,405.5C 410.167,405.5 409.833,405.5 409.5,405.5C 408.167,405.5 406.833,405.5 405.5,405.5C 314.5,405.5 223.5,405.5 132.5,405.5C 132.167,405.5 131.833,405.5 131.5,405.5C 131.5,405.167 131.5,404.833 131.5,404.5C 225.522,404.824 319.522,404.49 413.5,403.5 Z"/></g>
<g><path style="opacity:0.045" fill="#e4e7e7" d="M 128.5,404.5 C 129.5,404.5 130.5,404.5 131.5,404.5C 131.5,404.833 131.5,405.167 131.5,405.5C 130.167,406.833 128.833,406.833 127.5,405.5C 128.167,405.5 128.5,405.167 128.5,404.5 Z"/></g>
<g><path style="opacity:0.292" fill="#b0b9c1" d="M 132.5,405.5 C 223.5,405.5 314.5,405.5 405.5,405.5C 379.317,405.836 353.317,406.836 327.5,408.5C 327.167,408.5 326.833,408.5 326.5,408.5C 308.864,406.513 290.864,405.847 272.5,406.5C 272.167,406.5 271.833,406.5 271.5,406.5C 250.14,405.845 229.14,406.511 208.5,408.5C 208.167,408.5 207.833,408.5 207.5,408.5C 196.687,407.168 185.521,406.501 174,406.5C 162.426,406.51 150.926,406.843 139.5,407.5C 138.235,406.774 136.735,406.774 135,407.5C 133.624,407.316 132.791,406.649 132.5,405.5 Z"/></g>
<g><path style="opacity:0.055" fill="#dde5ea" d="M 207.5,408.5 C 185.165,408.568 162.499,408.235 139.5,407.5C 150.926,406.843 162.426,406.51 174,406.5C 185.521,406.501 196.687,407.168 207.5,408.5 Z"/></g>
<g><path style="opacity:0.027" fill="#dde3e8" d="M 271.5,406.5 C 271.5,407.167 271.833,407.5 272.5,407.5C 251.477,408.214 230.144,408.548 208.5,408.5C 229.14,406.511 250.14,405.845 271.5,406.5 Z"/></g>
<g><path style="opacity:0.027" fill="#dae4e8" d="M 272.5,407.5 C 272.5,407.167 272.5,406.833 272.5,406.5C 290.864,405.847 308.864,406.513 326.5,408.5C 308.816,408.492 290.816,408.159 272.5,407.5 Z"/></g>
<g><path style="opacity:0.029" fill="#dee5eb" d="M 405.5,405.5 C 406.833,405.5 408.167,405.5 409.5,405.5C 409.611,406.117 409.944,406.617 410.5,407C 406.627,407.27 402.794,407.77 399,408.5C 375.356,408.313 351.523,408.313 327.5,408.5C 353.317,406.836 379.317,405.836 405.5,405.5 Z"/></g>
</svg>
