<?xml version="1.0" encoding="UTF-8"?>
<!DOCTYPE svg PUBLIC "-//W3C//DTD SVG 1.1//EN" "http://www.w3.org/Graphics/SVG/1.1/DTD/svg11.dtd">
<svg xmlns="http://www.w3.org/2000/svg" version="1.1" width="300px" height="289px" style="shape-rendering:geometricPrecision; text-rendering:geometricPrecision; image-rendering:optimizeQuality; fill-rule:evenodd; clip-rule:evenodd" xmlns:xlink="http://www.w3.org/1999/xlink">
<g><path style="opacity:1" fill="#f6f6f5" d="M 87.5,57.5 C 88.8333,57.5 90.1667,57.5 91.5,57.5C 91.2865,59.1439 91.6198,60.6439 92.5,62C 130.832,62.5 169.165,62.6667 207.5,62.5C 204.344,63.0418 201.511,64.3751 199,66.5C 198.667,65.8333 198.333,65.1667 198,64.5C 197.015,65.8141 195.848,66.8141 194.5,67.5C 192.824,66.8166 192.157,65.4832 192.5,63.5C 191.5,63.5 190.5,63.5 189.5,63.5C 188.127,63.3433 186.793,63.51 185.5,64C 186.816,65.9776 186.316,67.4776 184,68.5C 183.517,67.552 183.351,66.552 183.5,65.5C 180.833,65.8333 178.167,66.1667 175.5,66.5C 175.587,69.5983 175.087,69.9316 174,67.5C 173.535,68.9308 172.701,70.0975 171.5,71C 172.91,71.3678 173.91,72.2011 174.5,73.5C 173.828,75.5295 173.162,77.5295 172.5,79.5C 170.416,76.1987 169.082,72.532 168.5,68.5C 159.325,67.8334 149.991,67.1667 140.5,66.5C 140.833,65.8333 141.167,65.1667 141.5,64.5C 137.833,64.1667 134.167,63.8333 130.5,63.5C 125.716,63.9349 121.05,63.9349 116.5,63.5C 115.571,64.6888 115.238,66.0222 115.5,67.5C 113.585,67.2155 111.919,67.5489 110.5,68.5C 109.833,68.5 109.5,68.8333 109.5,69.5C 108.804,73.2315 108.138,77.0648 107.5,81C 111.498,81.4929 112.332,83.3262 110,86.5C 109.333,83.8333 108.667,83.8333 108,86.5C 107.275,84.842 106.108,84.342 104.5,85C 106.991,85.6259 106.991,86.4593 104.5,87.5C 105.274,88.7112 106.107,88.7112 107,87.5C 107.717,88.0442 108.217,88.7109 108.5,89.5C 108.167,90.8333 107.833,92.1667 107.5,93.5C 105.395,96.4083 104.395,99.7417 104.5,103.5C 104.5,104.167 104.5,104.833 104.5,105.5C 102.887,105.944 101.72,106.944 101,108.5C 99.456,105.736 98.2893,105.903 97.5,109C 99.0897,112.231 98.4231,114.897 95.5,117C 96.3802,118.356 96.7135,119.856 96.5,121.5C 94.9261,123.102 94.2594,125.102 94.5,127.5C 95.8333,127.5 97.1667,127.5 98.5,127.5C 99.2389,127.369 99.9056,127.536 100.5,128C 99.6198,129.356 99.2865,130.856 99.5,132.5C 98.5,132.5 97.5,132.5 96.5,132.5C 96.5,133.5 96.5,134.5 96.5,135.5C 96.1667,135.5 95.8333,135.5 95.5,135.5C 93.1138,136.298 90.7805,137.298 88.5,138.5C 87.1575,137.098 86.3242,137.431 86,139.5C 85.7266,137.899 85.2266,136.399 84.5,135C 85.4158,134.722 86.0825,134.222 86.5,133.5C 86.5,111.833 86.5,90.1667 86.5,68.5C 85.0484,67.6981 83.3817,67.1981 81.5,67C 82.7111,65.8869 82.7111,64.7202 81.5,63.5C 83.0453,62.5481 84.712,62.2148 86.5,62.5C 86.5,61.5 86.5,60.5 86.5,59.5C 86.3284,58.5084 86.6618,57.8417 87.5,57.5 Z"/></g>
<g><path style="opacity:0.671" fill="#9ca1a2" d="M 213.5,57.5 C 213.5,59.1667 213.5,60.8333 213.5,62.5C 211.5,62.5 209.5,62.5 207.5,62.5C 169.165,62.6667 130.832,62.5 92.5,62C 91.6198,60.6439 91.2865,59.1439 91.5,57.5C 90.1667,57.5 88.8333,57.5 87.5,57.5C 88.3697,55.4012 89.703,55.0679 91.5,56.5C 92.9501,57.8498 93.6168,59.5165 93.5,61.5C 133.167,61.5 172.833,61.5 212.5,61.5C 212.232,59.901 212.566,58.5676 213.5,57.5 Z"/></g>
<g><path style="opacity:0.769" fill="#898f8e" d="M 219.5,57.5 C 220.434,58.5676 220.768,59.901 220.5,61.5C 223.881,60.8877 226.214,62.0544 227.5,65C 227.361,66.301 226.695,67.1344 225.5,67.5C 225.5,65.8333 225.5,64.1667 225.5,62.5C 223.5,62.5 221.5,62.5 219.5,62.5C 219.5,60.8333 219.5,59.1667 219.5,57.5 Z"/></g>
<g><path style="opacity:0.945" fill="#b2b8b6" d="M 86.5,59.5 C 86.5,60.5 86.5,61.5 86.5,62.5C 84.712,62.2148 83.0453,62.5481 81.5,63.5C 82.7111,64.7202 82.7111,65.8869 81.5,67C 83.3817,67.1981 85.0484,67.6981 86.5,68.5C 86.1667,68.5 85.8333,68.5 85.5,68.5C 80.0463,69.4928 78.0463,67.4928 79.5,62.5C 82.099,61.8647 84.4324,60.8647 86.5,59.5 Z"/></g>
<g><path style="opacity:1" fill="#f1f0ef" d="M 168.5,68.5 C 158.161,68.3335 147.828,68.5002 137.5,69C 136.748,69.6708 136.414,70.5041 136.5,71.5C 135.069,72.7804 134.402,74.4471 134.5,76.5C 134.672,77.4916 134.338,78.1583 133.5,78.5C 132.055,80.7007 130.388,82.8673 128.5,85C 128.957,85.414 129.291,85.914 129.5,86.5C 127.764,89.2343 126.764,92.2343 126.5,95.5C 126.443,96.609 126.11,97.609 125.5,98.5C 122.951,98.4411 120.951,99.4411 119.5,101.5C 118.376,99.6314 117.543,97.6314 117,95.5C 116,96.8333 115,98.1667 114,99.5C 113.823,95.6437 113.323,91.977 112.5,88.5C 111.041,88.4326 109.708,88.7659 108.5,89.5C 108.217,88.7109 107.717,88.0442 107,87.5C 106.107,88.7112 105.274,88.7112 104.5,87.5C 106.991,86.4593 106.991,85.6259 104.5,85C 106.108,84.342 107.275,84.842 108,86.5C 108.667,83.8333 109.333,83.8333 110,86.5C 112.332,83.3262 111.498,81.4929 107.5,81C 108.138,77.0648 108.804,73.2315 109.5,69.5C 109.185,73.3714 109.518,77.0381 110.5,80.5C 110.833,80.5 111.167,80.5 111.5,80.5C 111.833,81.8333 112.167,81.8333 112.5,80.5C 113.167,80.5 113.833,80.5 114.5,80.5C 115.485,76.3656 115.818,72.0323 115.5,67.5C 115.238,66.0222 115.571,64.6888 116.5,63.5C 121.05,63.9349 125.716,63.9349 130.5,63.5C 134.167,63.8333 137.833,64.1667 141.5,64.5C 141.167,65.1667 140.833,65.8333 140.5,66.5C 149.991,67.1667 159.325,67.8334 168.5,68.5 Z"/></g>
<g><path style="opacity:1" fill="#f6f5f5" d="M 189.5,63.5 C 190.08,69.3011 190.747,74.9678 191.5,80.5C 193.635,82.369 196.302,83.0356 199.5,82.5C 199.923,84.7812 199.256,86.4479 197.5,87.5C 196.328,86.2947 194.995,86.2947 193.5,87.5C 191.578,86.289 189.745,84.9557 188,83.5C 187.667,84.5 187.333,85.5 187,86.5C 185.719,86.3808 184.552,86.8808 183.5,88C 186.455,91.2803 186.121,94.1136 182.5,96.5C 181.692,96.1924 181.025,95.6924 180.5,95C 181.376,93.414 182.376,91.914 183.5,90.5C 181.833,89.1667 180.167,87.8333 178.5,86.5C 176.877,87.4908 175.877,86.8241 175.5,84.5C 176.609,82.7859 175.942,82.1192 173.5,82.5C 172.596,81.791 172.263,80.791 172.5,79.5C 173.162,77.5295 173.828,75.5295 174.5,73.5C 173.91,72.2011 172.91,71.3678 171.5,71C 172.701,70.0975 173.535,68.9308 174,67.5C 175.087,69.9316 175.587,69.5983 175.5,66.5C 178.167,66.1667 180.833,65.8333 183.5,65.5C 183.351,66.552 183.517,67.552 184,68.5C 186.316,67.4776 186.816,65.9776 185.5,64C 186.793,63.51 188.127,63.3433 189.5,63.5 Z"/></g>
<g><path style="opacity:1" fill="#b4b8b6" d="M 189.5,63.5 C 190.5,63.5 191.5,63.5 192.5,63.5C 192.157,65.4832 192.824,66.8166 194.5,67.5C 195.167,67.5 195.5,67.8333 195.5,68.5C 194.178,68.33 193.011,68.6634 192,69.5C 191.502,72.4816 191.335,75.4816 191.5,78.5C 191.5,78.8333 191.5,79.1667 191.5,79.5C 191.5,79.8333 191.5,80.1667 191.5,80.5C 190.747,74.9678 190.08,69.3011 189.5,63.5 Z"/></g>
<g><path style="opacity:1" fill="#ebebea" d="M 219.5,57.5 C 219.5,59.1667 219.5,60.8333 219.5,62.5C 221.5,62.5 223.5,62.5 225.5,62.5C 225.5,64.1667 225.5,65.8333 225.5,67.5C 223.735,68.4614 221.735,68.7947 219.5,68.5C 220.419,90.0351 220.419,111.368 219.5,132.5C 223.845,134.047 224.512,136.547 221.5,140C 216.5,142.167 211.5,144.333 206.5,146.5C 201.323,143.894 201.323,141.561 206.5,139.5C 208.312,139.229 209.978,138.562 211.5,137.5C 211.145,136.478 210.478,135.811 209.5,135.5C 204.619,133.291 200.619,129.957 197.5,125.5C 196.652,123.688 196.652,122.188 197.5,121C 199.488,120.82 201.488,120.986 203.5,121.5C 204.488,122.795 205.488,124.128 206.5,125.5C 207.568,126.434 208.901,126.768 210.5,126.5C 211.071,122.513 209.738,119.513 206.5,117.5C 202.806,111.758 200.473,105.425 199.5,98.5C 199.435,95.5718 198.768,92.9052 197.5,90.5C 197.5,90.1667 197.5,89.8333 197.5,89.5C 197.5,88.8333 197.5,88.1667 197.5,87.5C 199.256,86.4479 199.923,84.7812 199.5,82.5C 196.302,83.0356 193.635,82.369 191.5,80.5C 192.391,81.1098 193.391,81.4431 194.5,81.5C 195.117,81.3893 195.617,81.056 196,80.5C 196.812,76.3112 196.645,72.3112 195.5,68.5C 195.5,67.8333 195.167,67.5 194.5,67.5C 195.848,66.8141 197.015,65.8141 198,64.5C 198.333,65.1667 198.667,65.8333 199,66.5C 201.511,64.3751 204.344,63.0418 207.5,62.5C 209.5,62.5 211.5,62.5 213.5,62.5C 213.5,60.8333 213.5,59.1667 213.5,57.5C 215.5,54.8333 217.5,54.8333 219.5,57.5 Z"/></g>
<g><path style="opacity:0.42" fill="#535e5b" d="M 136.5,71.5 C 136.598,73.5529 135.931,75.2196 134.5,76.5C 134.402,74.4471 135.069,72.7804 136.5,71.5 Z"/></g>
<g><path style="opacity:0.638" fill="#a4a7a7" d="M 110.5,68.5 C 111.919,67.5489 113.585,67.2155 115.5,67.5C 115.818,72.0323 115.485,76.3656 114.5,80.5C 114.665,76.8183 114.499,73.1516 114,69.5C 112.989,68.6634 111.822,68.33 110.5,68.5 Z"/></g>
<g><path style="opacity:0.102" fill="#1a1e1e" d="M 110.5,68.5 C 110.335,71.8499 110.502,75.1832 111,78.5C 111.743,76.3553 112.576,76.1886 113.5,78C 113.257,78.9021 112.923,79.7354 112.5,80.5C 112.167,80.5 111.833,80.5 111.5,80.5C 111.167,79.1667 110.833,79.1667 110.5,80.5C 109.518,77.0381 109.185,73.3714 109.5,69.5C 109.5,68.8333 109.833,68.5 110.5,68.5 Z"/></g>
<g><path style="opacity:0.014" fill="#161a1a" d="M 195.5,68.5 C 196.645,72.3112 196.812,76.3112 196,80.5C 195.617,81.056 195.117,81.3893 194.5,81.5C 194.027,80.0937 193.027,79.427 191.5,79.5C 191.5,79.1667 191.5,78.8333 191.5,78.5C 192.583,78.4606 193.583,78.1272 194.5,77.5C 195.484,74.5719 195.817,71.5719 195.5,68.5 Z"/></g>
<g><path style="opacity:0.11" fill="#252c2b" d="M 85.5,68.5 C 85.8333,68.5 86.1667,68.5 86.5,68.5C 86.5,90.1667 86.5,111.833 86.5,133.5C 86.1667,133.5 85.8333,133.5 85.5,133.5C 85.3235,112.089 85.3235,90.4226 85.5,68.5 Z"/></g>
<g><path style="opacity:0.996" fill="#b1b3b3" d="M 133.5,78.5 C 131.967,83.9076 130.134,89.2409 128,94.5C 127.617,95.056 127.117,95.3893 126.5,95.5C 126.764,92.2343 127.764,89.2343 129.5,86.5C 129.291,85.914 128.957,85.414 128.5,85C 130.388,82.8673 132.055,80.7007 133.5,78.5 Z"/></g>
<g><path style="opacity:1" fill="#e4e5e5" d="M 173.5,82.5 C 175.942,82.1192 176.609,82.7859 175.5,84.5C 175.877,86.8241 176.877,87.4908 178.5,86.5C 180.167,87.8333 181.833,89.1667 183.5,90.5C 182.376,91.914 181.376,93.414 180.5,95C 181.025,95.6924 181.692,96.1924 182.5,96.5C 186.121,94.1136 186.455,91.2803 183.5,88C 184.552,86.8808 185.719,86.3808 187,86.5C 187.333,85.5 187.667,84.5 188,83.5C 189.745,84.9557 191.578,86.289 193.5,87.5C 194.995,86.2947 196.328,86.2947 197.5,87.5C 197.5,88.1667 197.5,88.8333 197.5,89.5C 196.292,88.7659 194.959,88.4326 193.5,88.5C 193.505,92.5341 193.838,96.5341 194.5,100.5C 195.213,103.237 195.213,105.904 194.5,108.5C 196.015,110.547 196.849,112.881 197,115.5C 200.41,116.874 200.243,117.541 196.5,117.5C 196.843,119.483 196.176,120.817 194.5,121.5C 185.453,109.738 178.453,96.738 173.5,82.5 Z"/></g>
<g><path style="opacity:1" fill="#a7afb0" d="M 143.5,86.5 C 142.535,89.7728 140.535,92.1062 137.5,93.5C 138.412,91.4048 139.579,89.4048 141,87.5C 141.671,86.7476 142.504,86.4142 143.5,86.5 Z"/></g>
<g><path style="opacity:1" fill="#d9dada" d="M 136.5,106.5 C 136.467,102.131 136.8,97.7978 137.5,93.5C 140.535,92.1062 142.535,89.7728 143.5,86.5C 156.278,80.4848 165.112,84.1515 170,97.5C 169.691,116.421 160.525,122.588 142.5,116C 139.02,113.703 137.02,110.536 136.5,106.5 Z M 152.5,90.5 C 162.19,92.5448 165.023,98.2114 161,107.5C 151.743,114.292 145.576,112.125 142.5,101C 143.332,95.003 146.666,91.503 152.5,90.5 Z"/></g>
<g><path style="opacity:0.157" fill="#3e4646" d="M 197.5,90.5 C 198.768,92.9052 199.435,95.5718 199.5,98.5C 197.96,96.1617 197.294,93.4951 197.5,90.5 Z"/></g>
<g><path style="opacity:0.902" fill="#808986" d="M 107.5,93.5 C 107.68,97.2856 106.68,100.619 104.5,103.5C 104.395,99.7417 105.395,96.4083 107.5,93.5 Z"/></g>
<g><path style="opacity:0.784" fill="#949a9a" d="M 137.5,93.5 C 136.8,97.7978 136.467,102.131 136.5,106.5C 135.84,105.036 135.507,103.369 135.5,101.5C 135.382,98.5143 136.048,95.8476 137.5,93.5 Z"/></g>
<g><path style="opacity:0.812" fill="#636b6d" d="M 111.5,99.5 C 111.5,100.167 111.5,100.833 111.5,101.5C 111.065,104.157 110.065,106.491 108.5,108.5C 108.928,105.215 109.928,102.215 111.5,99.5 Z"/></g>
<g><path style="opacity:1" fill="#c3c6c6" d="M 104.5,105.5 C 102.394,111.175 99.7275,116.509 96.5,121.5C 96.7135,119.856 96.3802,118.356 95.5,117C 98.4231,114.897 99.0897,112.231 97.5,109C 98.2893,105.903 99.456,105.736 101,108.5C 101.72,106.944 102.887,105.944 104.5,105.5 Z"/></g>
<g><path style="opacity:1" fill="#f4f6f7" d="M 107.5,111.5 C 107.557,110.391 107.89,109.391 108.5,108.5C 110.065,106.491 111.065,104.157 111.5,101.5C 112.688,100.316 113.855,100.316 115,101.5C 115.333,100.833 115.667,100.167 116,99.5C 116.3,102.572 117.466,105.239 119.5,107.5C 118.04,109.422 116.373,110.089 114.5,109.5C 114.709,110.086 115.043,110.586 115.5,111C 114.167,112 112.833,113 111.5,114C 114.167,114.667 114.167,115.333 111.5,116C 111.957,116.414 112.291,116.914 112.5,117.5C 110.593,118.37 108.76,119.37 107,120.5C 106.5,120.167 106,119.833 105.5,119.5C 106.785,116.979 107.452,114.313 107.5,111.5 Z"/></g>
<g><path style="opacity:1" fill="#acb2b2" d="M 133.5,117.5 C 132.198,116.193 130.865,116.193 129.5,117.5C 128.915,120.109 128.915,122.443 129.5,124.5C 126.695,121.686 126.028,118.353 127.5,114.5C 130.816,112.829 132.816,113.829 133.5,117.5 Z"/></g>
<g><path style="opacity:1" fill="#bfc2c3" d="M 194.5,100.5 C 196.664,107.831 199.664,114.831 203.5,121.5C 201.488,120.986 199.488,120.82 197.5,121C 196.652,122.188 196.652,123.688 197.5,125.5C 195.738,124.738 194.738,123.404 194.5,121.5C 196.176,120.817 196.843,119.483 196.5,117.5C 200.243,117.541 200.41,116.874 197,115.5C 196.849,112.881 196.015,110.547 194.5,108.5C 195.213,105.904 195.213,103.237 194.5,100.5 Z"/></g>
<g><path style="opacity:1" fill="#d0d3d3" d="M 112.5,88.5 C 113.323,91.977 113.823,95.6437 114,99.5C 115,98.1667 116,96.8333 117,95.5C 117.543,97.6314 118.376,99.6314 119.5,101.5C 120.951,99.4411 122.951,98.4411 125.5,98.5C 119.168,113.493 109.501,125.826 96.5,135.5C 96.5,134.5 96.5,133.5 96.5,132.5C 97.5,132.5 98.5,132.5 99.5,132.5C 99.2865,130.856 99.6198,129.356 100.5,128C 99.9056,127.536 99.2389,127.369 98.5,127.5C 99.925,126.078 100.925,124.411 101.5,122.5C 102.906,122.027 103.573,121.027 103.5,119.5C 104.323,116.52 105.657,113.853 107.5,111.5C 107.452,114.313 106.785,116.979 105.5,119.5C 106,119.833 106.5,120.167 107,120.5C 108.76,119.37 110.593,118.37 112.5,117.5C 112.291,116.914 111.957,116.414 111.5,116C 114.167,115.333 114.167,114.667 111.5,114C 112.833,113 114.167,112 115.5,111C 115.043,110.586 114.709,110.086 114.5,109.5C 116.373,110.089 118.04,109.422 119.5,107.5C 117.466,105.239 116.3,102.572 116,99.5C 115.667,100.167 115.333,100.833 115,101.5C 113.855,100.316 112.688,100.316 111.5,101.5C 111.5,100.833 111.5,100.167 111.5,99.5C 111.942,95.8455 112.276,92.1788 112.5,88.5 Z"/></g>
<g><path style="opacity:0.933" fill="#6f7575" d="M 206.5,117.5 C 209.738,119.513 211.071,122.513 210.5,126.5C 208.901,126.768 207.568,126.434 206.5,125.5C 207.5,125.5 208.5,125.5 209.5,125.5C 209.737,124.209 209.404,123.209 208.5,122.5C 207.833,120.833 207.167,119.167 206.5,117.5 Z"/></g>
<g><path style="opacity:0.365" fill="#535658" d="M 103.5,119.5 C 103.573,121.027 102.906,122.027 101.5,122.5C 101.427,120.973 102.094,119.973 103.5,119.5 Z"/></g>
<g><path style="opacity:0.007" fill="#000000" d="M 208.5,122.5 C 208.253,124.975 207.587,124.975 206.5,122.5C 206.97,121.537 207.637,121.537 208.5,122.5 Z"/></g>
<g><path style="opacity:0.973" fill="#9da1a0" d="M 96.5,121.5 C 96.67,122.822 96.3366,123.989 95.5,125C 96,125.167 96.5,125.333 97,125.5C 98.6434,124.685 100.143,123.685 101.5,122.5C 100.925,124.411 99.925,126.078 98.5,127.5C 97.1667,127.5 95.8333,127.5 94.5,127.5C 94.2594,125.102 94.9261,123.102 96.5,121.5 Z"/></g>
<g><path style="opacity:1" fill="#cfd1d1" d="M 85.5,133.5 C 85.8333,133.5 86.1667,133.5 86.5,133.5C 86.0825,134.222 85.4158,134.722 84.5,135C 85.2266,136.399 85.7266,137.899 86,139.5C 86.3242,137.431 87.1575,137.098 88.5,138.5C 90.7805,137.298 93.1138,136.298 95.5,135.5C 98.2926,137.754 100.959,140.254 103.5,143C 102.586,144.914 101.086,146.081 99,146.5C 94.03,143.952 88.8633,141.785 83.5,140C 81.062,137.017 81.7287,134.85 85.5,133.5 Z"/></g>
<g><path style="opacity:0.914" fill="#7e807f" d="M 209.5,135.5 C 210.478,135.811 211.145,136.478 211.5,137.5C 209.978,138.562 208.312,139.229 206.5,139.5C 207.789,138.363 208.789,137.03 209.5,135.5 Z"/></g>
<g><path style="opacity:1" fill="#edeeee" d="M 106.5,174.5 C 106.771,172.62 106.104,171.287 104.5,170.5C 103.471,168.483 102.471,166.483 101.5,164.5C 100.528,163.249 99.8614,163.582 99.5,165.5C 99.5427,166.416 99.8761,167.083 100.5,167.5C 101.11,168.391 101.443,169.391 101.5,170.5C 101.423,174.215 101.756,177.881 102.5,181.5C 101.903,182.139 101.07,182.472 100,182.5C 98.3009,182.613 97.1342,181.947 96.5,180.5C 96.8893,177.447 96.2227,174.78 94.5,172.5C 94.5,172.167 94.5,171.833 94.5,171.5C 94.44,170.957 94.1067,170.624 93.5,170.5C 92.5108,174.107 92.1774,177.774 92.5,181.5C 91.9032,182.139 91.0698,182.472 90,182.5C 88.3009,182.613 87.1342,181.947 86.5,180.5C 86.5,169.833 86.5,159.167 86.5,148.5C 86.811,147.522 87.4777,146.855 88.5,146.5C 104.547,153.208 113.214,165.208 114.5,182.5C 108.761,183.07 106.094,180.404 106.5,174.5 Z"/></g>
<g><path style="opacity:1" fill="#e1e3e5" d="M 213.5,181.5 C 213.823,177.774 213.489,174.107 212.5,170.5C 211.893,170.624 211.56,170.957 211.5,171.5C 211.737,172.791 211.404,173.791 210.5,174.5C 209.076,176.515 208.41,178.848 208.5,181.5C 206.833,182.833 205.167,182.833 203.5,181.5C 203.5,178.5 203.5,175.5 203.5,172.5C 205.262,165.972 204.428,165.305 201,170.5C 199.731,174.141 198.564,177.808 197.5,181.5C 195.5,182.833 193.5,182.833 191.5,181.5C 192.414,166.367 199.747,155.2 213.5,148C 215.165,147.212 216.831,146.878 218.5,147C 219.752,156.789 220.419,166.456 220.5,176C 219.833,178 219.167,180 218.5,182C 216.607,183.932 214.94,183.765 213.5,181.5 Z"/></g>
<g><path style="opacity:0.1" fill="#1d2122" d="M 86.5,148.5 C 86.5,159.167 86.5,169.833 86.5,180.5C 84.1153,169.847 84.1153,159.18 86.5,148.5 Z"/></g>
<g><path style="opacity:1" fill="#dedede" d="M 129.5,124.5 C 128.915,122.443 128.915,120.109 129.5,117.5C 130.865,116.193 132.198,116.193 133.5,117.5C 133.5,117.833 133.5,118.167 133.5,118.5C 133.187,121.247 133.52,123.914 134.5,126.5C 135.086,126.291 135.586,125.957 136,125.5C 137.57,127.651 139.07,129.818 140.5,132C 139.437,133.188 138.103,133.688 136.5,133.5C 136.5,137.167 136.5,140.833 136.5,144.5C 137.493,149.98 137.493,155.647 136.5,161.5C 147.5,162.833 158.5,162.833 169.5,161.5C 170.822,152.325 170.822,142.992 169.5,133.5C 167.954,132.788 166.954,131.622 166.5,130C 167.414,128.594 168.08,127.094 168.5,125.5C 169.895,121.71 171.562,118.043 173.5,114.5C 176.792,112.823 178.792,113.823 179.5,117.5C 178.964,119.942 178.131,122.275 177,124.5C 176.967,138.927 176.3,153.26 175,167.5C 160.575,168.656 146.075,168.823 131.5,168C 131,167.5 130.5,167 130,166.5C 129.5,152.504 129.333,138.504 129.5,124.5 Z M 167.5,135.5 C 168.167,137.833 168.833,140.167 169.5,142.5C 169.5,147.833 169.5,153.167 169.5,158.5C 168.596,159.209 168.263,160.209 168.5,161.5C 157.833,161.5 147.167,161.5 136.5,161.5C 137.493,155.647 137.493,149.98 136.5,144.5C 137.319,141.695 137.819,138.695 138,135.5C 145.525,140.612 153.691,141.779 162.5,139C 164.584,138.303 166.251,137.136 167.5,135.5 Z"/></g>
<g><path style="opacity:0.616" fill="#949997" d="M 169.5,158.5 C 169.5,159.5 169.5,160.5 169.5,161.5C 158.5,162.833 147.5,162.833 136.5,161.5C 147.167,161.5 157.833,161.5 168.5,161.5C 168.263,160.209 168.596,159.209 169.5,158.5 Z"/></g>
<g><path style="opacity:0.306" fill="#525554" d="M 158.5,151.5 C 156.833,152.5 155.5,153.833 154.5,155.5C 154.167,152.5 155.5,151.167 158.5,151.5 Z"/></g>
<g><path style="opacity:0.447" fill="#4f5554" d="M 148.5,152.5 C 149.5,152.5 150.5,152.5 151.5,152.5C 151.5,153.5 151.5,154.5 151.5,155.5C 150.5,154.5 149.5,153.5 148.5,152.5 Z"/></g>
<g><path style="opacity:0.714" fill="#656f6d" d="M 150.5,147.5 C 149.833,148.167 149.167,148.833 148.5,149.5C 147.375,150.348 147.375,151.348 148.5,152.5C 146.656,151.796 146.156,150.463 147,148.5C 148.011,147.663 149.178,147.33 150.5,147.5 Z"/></g>
<g><path style="opacity:1" fill="#edf1f0" d="M 158.5,151.5 C 155.5,151.167 154.167,152.5 154.5,155.5C 153.5,156.833 152.5,156.833 151.5,155.5C 151.5,154.5 151.5,153.5 151.5,152.5C 150.5,152.5 149.5,152.5 148.5,152.5C 147.375,151.348 147.375,150.348 148.5,149.5C 150.592,149.439 152.092,148.439 153,146.5C 154.844,148.308 156.677,149.974 158.5,151.5 Z"/></g>
<g><path style="opacity:1" fill="#b7bbbc" d="M 158.5,151.5 C 156.677,149.974 154.844,148.308 153,146.5C 152.092,148.439 150.592,149.439 148.5,149.5C 149.167,148.833 149.833,148.167 150.5,147.5C 150.572,145.689 151.405,144.356 153,143.5C 154.381,145.868 156.381,147.535 159,148.5C 159.74,149.749 159.573,150.749 158.5,151.5 Z"/></g>
<g><path style="opacity:1" fill="#d0d2d2" d="M 133.5,118.5 C 139.16,131.167 148.493,135.334 161.5,131C 163.996,129.334 166.329,127.5 168.5,125.5C 168.08,127.094 167.414,128.594 166.5,130C 166.954,131.622 167.954,132.788 169.5,133.5C 170.822,142.992 170.822,152.325 169.5,161.5C 169.5,160.5 169.5,159.5 169.5,158.5C 169.5,153.167 169.5,147.833 169.5,142.5C 169.813,139.753 169.48,137.086 168.5,134.5C 167.893,134.624 167.56,134.957 167.5,135.5C 166.251,137.136 164.584,138.303 162.5,139C 153.691,141.779 145.525,140.612 138,135.5C 137.819,138.695 137.319,141.695 136.5,144.5C 136.5,140.833 136.5,137.167 136.5,133.5C 138.103,133.688 139.437,133.188 140.5,132C 139.07,129.818 137.57,127.651 136,125.5C 135.586,125.957 135.086,126.291 134.5,126.5C 133.52,123.914 133.187,121.247 133.5,118.5 Z"/></g>
<g><path style="opacity:0.016" fill="#0e0e0e" d="M 167.5,135.5 C 167.56,134.957 167.893,134.624 168.5,134.5C 169.48,137.086 169.813,139.753 169.5,142.5C 168.833,140.167 168.167,137.833 167.5,135.5 Z"/></g>
<g><path style="opacity:0.247" fill="#646966" d="M 101.5,164.5 C 100.596,165.209 100.263,166.209 100.5,167.5C 99.8761,167.083 99.5427,166.416 99.5,165.5C 99.8614,163.582 100.528,163.249 101.5,164.5 Z"/></g>
<g><path style="opacity:0.52" fill="#707375" d="M 211.5,171.5 C 211.56,170.957 211.893,170.624 212.5,170.5C 213.489,174.107 213.823,177.774 213.5,181.5C 212.609,180.739 211.942,179.739 211.5,178.5C 212.766,176.028 212.766,173.694 211.5,171.5 Z"/></g>
<g><path style="opacity:0.302" fill="#404142" d="M 104.5,170.5 C 106.104,171.287 106.771,172.62 106.5,174.5C 105.326,173.486 104.66,172.153 104.5,170.5 Z"/></g>
<g><path style="opacity:0.635" fill="#636666" d="M 94.5,172.5 C 96.2227,174.78 96.8893,177.447 96.5,180.5C 95.469,178.039 94.8023,175.373 94.5,172.5 Z"/></g>
<g><path style="opacity:0.86" fill="#c2c5c5" d="M 120.5,176.5 C 142.004,175.172 163.67,175.172 185.5,176.5C 186.684,178.467 186.351,180.134 184.5,181.5C 184.5,179.833 184.5,178.167 184.5,176.5C 163.167,176.5 141.833,176.5 120.5,176.5 Z"/></g>
<g><path style="opacity:0.998" fill="#dcdddc" d="M 120.5,176.5 C 141.833,176.5 163.167,176.5 184.5,176.5C 184.5,178.167 184.5,179.833 184.5,181.5C 163.671,182.663 142.671,182.829 121.5,182C 119.447,180.322 119.113,178.489 120.5,176.5 Z"/></g>
<g><path style="opacity:0.231" fill="#3d4343" d="M 94.5,171.5 C 93.8333,174.833 93.1667,178.167 92.5,181.5C 92.1774,177.774 92.5108,174.107 93.5,170.5C 94.1067,170.624 94.44,170.957 94.5,171.5 Z"/></g>
<g><path style="opacity:1" fill="#949898" d="M 101.5,170.5 C 103.441,174.069 103.774,177.735 102.5,181.5C 101.756,177.881 101.423,174.215 101.5,170.5 Z"/></g>
<g><path style="opacity:0.651" fill="#6e7373" d="M 203.5,172.5 C 203.5,175.5 203.5,178.5 203.5,181.5C 202.609,180.739 201.942,179.739 201.5,178.5C 202.05,176.343 202.717,174.343 203.5,172.5 Z"/></g>
<g><path style="opacity:0.784" fill="#6f7877" d="M 210.5,174.5 C 210.829,177.228 210.163,179.562 208.5,181.5C 208.41,178.848 209.076,176.515 210.5,174.5 Z"/></g>
<g><path style="opacity:1" fill="#e0e2e2" d="M 109.5,190.5 C 109.001,193.264 107.335,194.931 104.5,195.5C 101.813,195.336 99.146,195.503 96.5,196C 94.6498,196.69 93.3164,197.856 92.5,199.5C 91.8614,200.097 91.528,200.93 91.5,202C 91.6842,203.376 92.3509,204.209 93.5,204.5C 96.6433,204.969 98.9767,206.636 100.5,209.5C 100.735,210.097 101.235,210.43 102,210.5C 104.547,207.959 106.714,208.293 108.5,211.5C 105.324,215.199 103.824,219.532 104,224.5C 101.733,225.935 99.7328,225.602 98,223.5C 98.2052,214.204 93.7052,209.871 84.5,210.5C 83.1667,210.5 81.8333,210.5 80.5,210.5C 78.9383,214.652 78.2716,218.985 78.5,223.5C 77.1214,225.597 75.4547,225.93 73.5,224.5C 73.1826,221.428 73.5159,218.428 74.5,215.5C 75.5,215 76.5,214.5 77.5,214C 76.3947,211.88 76.3947,209.713 77.5,207.5C 78.6594,205.75 80.326,204.75 82.5,204.5C 83.4959,204.414 84.3292,204.748 85,205.5C 85.4955,203.527 85.6621,201.527 85.5,199.5C 90.133,187.517 98.133,184.517 109.5,190.5 Z"/></g>
<g><path style="opacity:1" fill="#dddedf" d="M 192.5,194.5 C 192.053,197.524 191.22,197.857 190,195.5C 188.817,196.731 187.651,196.731 186.5,195.5C 187.915,192.788 187.581,192.288 185.5,194C 182.167,194.333 178.833,194.667 175.5,195C 172.064,195.227 171.064,196.727 172.5,199.5C 172.461,200.583 172.127,201.583 171.5,202.5C 175.082,204.12 178.082,206.453 180.5,209.5C 181.917,207.739 183.583,206.406 185.5,205.5C 188.659,205.519 191.326,204.352 193.5,202C 193.167,201.667 192.833,201.333 192.5,201C 193.333,200.833 194.167,200.667 195,200.5C 196.376,200.684 197.209,201.351 197.5,202.5C 197.5,202.833 197.5,203.167 197.5,203.5C 197.351,204.552 197.517,205.552 198,206.5C 199.06,206.746 200.227,206.746 201.5,206.5C 204.215,208.551 204.048,210.217 201,211.5C 200.329,210.748 199.496,210.414 198.5,210.5C 195.5,210.5 192.5,210.5 189.5,210.5C 188.504,210.586 187.671,210.252 187,209.5C 185.175,211.48 184.341,213.813 184.5,216.5C 184.98,219.685 184.314,222.519 182.5,225C 180.299,225.825 178.466,225.325 177,223.5C 177.902,217.546 175.735,213.213 170.5,210.5C 169.036,209.84 167.369,209.507 165.5,209.5C 158.96,212.961 157.294,211.294 160.5,204.5C 161.478,204.189 162.145,203.522 162.5,202.5C 160.279,196.113 155.946,193.947 149.5,196C 147.251,197.352 145.584,199.185 144.5,201.5C 143.55,198.885 141.883,196.885 139.5,195.5C 141.5,195.5 142.5,194.5 142.5,192.5C 151.564,185.153 159.73,186.153 167,195.5C 173.305,186.681 181.139,185.181 190.5,191C 191.823,191.816 192.489,192.983 192.5,194.5 Z"/></g>
<g><path style="opacity:0.404" fill="#515358" d="M 142.5,192.5 C 142.5,194.5 141.5,195.5 139.5,195.5C 139.5,195.167 139.5,194.833 139.5,194.5C 140.5,193.833 141.5,193.167 142.5,192.5 Z"/></g>
<g><path style="opacity:1" fill="#d9dbdc" d="M 139.5,194.5 C 139.5,194.833 139.5,195.167 139.5,195.5C 141.883,196.885 143.55,198.885 144.5,201.5C 147.584,203.907 150.584,206.574 153.5,209.5C 155.592,207.395 157.925,205.728 160.5,204.5C 157.294,211.294 158.96,212.961 165.5,209.5C 167.369,209.507 169.036,209.84 170.5,210.5C 161.343,209.821 156.843,214.154 157,223.5C 155.267,225.602 153.267,225.935 151,224.5C 150.902,218.882 148.735,214.382 144.5,211C 140.467,209.96 136.801,210.626 133.5,213C 131.642,216.59 130.476,220.424 130,224.5C 127.733,225.935 125.733,225.602 124,223.5C 123.822,212.806 118.655,208.806 108.5,211.5C 106.714,208.293 104.547,207.959 102,210.5C 101.235,210.43 100.735,210.097 100.5,209.5C 103.084,206.748 106.084,204.581 109.5,203C 108.676,199.827 107.009,197.327 104.5,195.5C 107.335,194.931 109.001,193.264 109.5,190.5C 110.728,191.306 111.728,192.306 112.5,193.5C 113.987,197.141 115.321,196.808 116.5,192.5C 119.105,189.116 122.605,187.449 127,187.5C 132.517,187.669 136.683,190.002 139.5,194.5 Z M 123.5,195.5 C 129.963,194.396 134.297,196.896 136.5,203C 132.726,204.302 129.559,206.469 127,209.5C 124.685,206.424 121.851,203.924 118.5,202C 119.588,199.291 121.255,197.125 123.5,195.5 Z"/></g>
<g><path style="opacity:0.475" fill="#626667" d="M 116.5,192.5 C 115.321,196.808 113.987,197.141 112.5,193.5C 113.962,194.471 115.295,194.138 116.5,192.5 Z"/></g>
<g><path style="opacity:0.137" fill="#4e5350" d="M 92.5,199.5 C 92.366,201.292 92.6993,202.958 93.5,204.5C 92.3509,204.209 91.6842,203.376 91.5,202C 91.528,200.93 91.8614,200.097 92.5,199.5 Z"/></g>
<g><path style="opacity:1" fill="#7e8382" d="M 85.5,199.5 C 85.6621,201.527 85.4955,203.527 85,205.5C 84.3292,204.748 83.4959,204.414 82.5,204.5C 83.7671,202.961 84.7671,201.294 85.5,199.5 Z"/></g>
<g><path style="opacity:1" fill="#d9dadb" d="M 211.5,215.5 C 209.735,218.123 209.068,221.123 209.5,224.5C 207.511,225.887 205.678,225.553 204,223.5C 203.794,218.427 201.961,214.094 198.5,210.5C 199.496,210.414 200.329,210.748 201,211.5C 204.048,210.217 204.215,208.551 201.5,206.5C 200.227,206.746 199.06,206.746 198,206.5C 197.517,205.552 197.351,204.552 197.5,203.5C 201.544,204.031 204.71,206.031 207,209.5C 209.123,206.701 211.79,204.701 215,203.5C 215.007,200.958 214.174,198.624 212.5,196.5C 212.389,195.883 212.056,195.383 211.5,195C 208.304,194.195 205.304,194.362 202.5,195.5C 200.588,197.657 198.921,199.991 197.5,202.5C 197.209,201.351 196.376,200.684 195,200.5C 194.167,200.667 193.333,200.833 192.5,201C 192.833,201.333 193.167,201.667 193.5,202C 191.326,204.352 188.659,205.519 185.5,205.5C 186.6,204.442 187.934,203.608 189.5,203C 187.487,196.314 183.153,193.981 176.5,196C 174.65,196.69 173.316,197.856 172.5,199.5C 171.064,196.727 172.064,195.227 175.5,195C 178.833,194.667 182.167,194.333 185.5,194C 187.581,192.288 187.915,192.788 186.5,195.5C 187.651,196.731 188.817,196.731 190,195.5C 191.22,197.857 192.053,197.524 192.5,194.5C 195.19,191.635 198.523,189.469 202.5,188C 214.254,186.586 220.921,191.753 222.5,203.5C 233.678,206.18 238.012,213.18 235.5,224.5C 233.629,225.767 231.796,225.767 230,224.5C 230.5,213.993 225.666,209.493 215.5,211C 213.959,212.371 212.625,213.871 211.5,215.5 Z M 202.5,195.5 C 205.902,195.342 209.236,195.676 212.5,196.5C 214.174,198.624 215.007,200.958 215,203.5C 211.79,204.701 209.123,206.701 207,209.5C 204.71,206.031 201.544,204.031 197.5,203.5C 197.5,203.167 197.5,202.833 197.5,202.5C 198.921,199.991 200.588,197.657 202.5,195.5 Z"/></g>
<g><path style="opacity:0.478" fill="#5a5e5e" d="M 202.5,195.5 C 205.304,194.362 208.304,194.195 211.5,195C 212.056,195.383 212.389,195.883 212.5,196.5C 209.236,195.676 205.902,195.342 202.5,195.5 Z"/></g>
<g><path style="opacity:0.973" fill="#868988" d="M 84.5,210.5 C 80.3697,213.824 78.3697,218.157 78.5,223.5C 78.2716,218.985 78.9383,214.652 80.5,210.5C 81.8333,210.5 83.1667,210.5 84.5,210.5 Z"/></g>
<g><path style="opacity:1" fill="#b3baba" d="M 77.5,207.5 C 76.3947,209.713 76.3947,211.88 77.5,214C 76.5,214.5 75.5,215 74.5,215.5C 73.5159,218.428 73.1826,221.428 73.5,224.5C 72.3567,221.024 72.1901,217.358 73,213.5C 73.7918,210.894 75.2918,208.894 77.5,207.5 Z"/></g>
<g><path style="opacity:1" fill="#a9adae" d="M 189.5,210.5 C 187.804,212.525 186.137,214.525 184.5,216.5C 184.341,213.813 185.175,211.48 187,209.5C 187.671,210.252 188.504,210.586 189.5,210.5 Z"/></g>
<g><path style="opacity:0.561" fill="#787d7e" d="M 211.5,215.5 C 211.142,218.689 210.475,221.689 209.5,224.5C 209.068,221.123 209.735,218.123 211.5,215.5 Z"/></g>
</svg>
