<?xml version="1.0" encoding="UTF-8"?>
<!DOCTYPE svg PUBLIC "-//W3C//DTD SVG 1.1//EN" "http://www.w3.org/Graphics/SVG/1.1/DTD/svg11.dtd">
<svg xmlns="http://www.w3.org/2000/svg" version="1.1" width="262px" height="275px" style="shape-rendering:geometricPrecision; text-rendering:geometricPrecision; image-rendering:optimizeQuality; fill-rule:evenodd; clip-rule:evenodd" xmlns:xlink="http://www.w3.org/1999/xlink">
<g><path style="opacity:1" fill="#e5e5e4" d="M 125.5,22.5 C 125.281,23.675 125.614,24.675 126.5,25.5C 127.107,25.3764 127.44,25.0431 127.5,24.5C 131.446,23.4928 134.112,25.1595 135.5,29.5C 134.627,31.4134 133.627,33.2467 132.5,35C 136.317,38.1877 136.317,41.3544 132.5,44.5C 129.833,44.5 127.167,44.5 124.5,44.5C 124.5,45.8333 124.5,47.1667 124.5,48.5C 119.802,51.6554 116.468,50.4888 114.5,45C 114.639,43.699 115.305,42.8656 116.5,42.5C 117.167,41.5 117.833,40.5 118.5,39.5C 123.547,39.6244 125.38,37.2911 124,32.5C 121.597,30.1116 119.097,30.1116 116.5,32.5C 114.2,34.2018 111.533,34.8685 108.5,34.5C 108.167,33.8333 107.833,33.1667 107.5,32.5C 107.448,30.0971 107.781,27.7638 108.5,25.5C 110.169,24.1103 111.836,23.7769 113.5,24.5C 113.56,25.0431 113.893,25.3764 114.5,25.5C 115.386,24.675 115.719,23.675 115.5,22.5C 118.976,17.2177 122.309,17.2177 125.5,22.5 Z"/></g>
<g><path style="opacity:0.322" fill="#454545" d="M 115.5,22.5 C 115.719,23.675 115.386,24.675 114.5,25.5C 113.893,25.3764 113.56,25.0431 113.5,24.5C 114.167,23.8333 114.833,23.1667 115.5,22.5 Z"/></g>
<g><path style="opacity:0.396" fill="#555555" d="M 125.5,22.5 C 126.167,23.1667 126.833,23.8333 127.5,24.5C 127.44,25.0431 127.107,25.3764 126.5,25.5C 125.614,24.675 125.281,23.675 125.5,22.5 Z"/></g>
<g><path style="opacity:0.573" fill="#696768" d="M 192.5,27.5 C 188.833,27.5 185.167,27.5 181.5,27.5C 183.218,26.776 185.052,26.1094 187,25.5C 188.948,26.1094 190.782,26.776 192.5,27.5 Z"/></g>
<g><path style="opacity:1" fill="#f3f3f3" d="M 181.5,27.5 C 185.167,27.5 188.833,27.5 192.5,27.5C 197.084,29.0823 200.417,32.0823 202.5,36.5C 203.162,40.4659 203.495,44.4659 203.5,48.5C 198.792,60.4261 190.458,64.0928 178.5,59.5C 178.027,58.0937 177.027,57.427 175.5,57.5C 166.194,48.4526 166.194,39.2859 175.5,30C 177.407,28.878 179.407,28.0447 181.5,27.5 Z"/></g>
<g><path style="opacity:0.502" fill="#70706d" d="M 108.5,25.5 C 107.781,27.7638 107.448,30.0971 107.5,32.5C 106.853,31.7261 106.52,30.7261 106.5,29.5C 106.34,27.6455 107.007,26.3121 108.5,25.5 Z"/></g>
<g><path style="opacity:0.335" fill="#6b6967" d="M 116.5,32.5 C 116.5,33.5 116.5,34.5 116.5,35.5C 113.615,35.8064 110.948,35.4731 108.5,34.5C 111.533,34.8685 114.2,34.2018 116.5,32.5 Z"/></g>
<g><path style="opacity:1" fill="#e1e0e0" d="M 108.5,50.5 C 107.5,50.8333 106.833,51.5 106.5,52.5C 110.352,55.9705 110.352,59.3039 106.5,62.5C 104.167,62.5 101.833,62.5 99.5,62.5C 99.5,63.8333 99.5,65.1667 99.5,66.5C 97.1505,68.6314 94.4838,68.9647 91.5,67.5C 90.7025,67.0431 90.3691,66.3764 90.5,65.5C 90.5,64.5 90.5,63.5 90.5,62.5C 87.4299,62.6323 84.4299,62.299 81.5,61.5C 79.8151,58.0876 80.4818,55.2543 83.5,53C 79.3375,49.1708 79.6708,45.8375 84.5,43C 86.1124,42.2797 87.6124,42.4464 89,43.5C 90.2105,38.2897 93.3772,36.4563 98.5,38C 100.004,39.4907 100.837,41.324 101,43.5C 107.207,41.8741 109.707,44.2075 108.5,50.5 Z M 92.5,49.5 C 96.145,48.6797 98.4783,50.013 99.5,53.5C 97.7051,57.6068 95.2051,58.2734 92,55.5C 91.3224,53.4024 91.4891,51.4024 92.5,49.5 Z"/></g>
<g><path style="opacity:0.09" fill="#2c2828" d="M 118.5,39.5 C 117.833,40.5 117.167,41.5 116.5,42.5C 116.238,41.0222 116.571,39.6888 117.5,38.5C 118.107,38.6236 118.44,38.9569 118.5,39.5 Z"/></g>
<g><path style="opacity:0.388" fill="#60605d" d="M 202.5,36.5 C 203.926,38.6789 204.592,41.1789 204.5,44C 204.492,45.7067 204.158,47.2067 203.5,48.5C 203.495,44.4659 203.162,40.4659 202.5,36.5 Z"/></g>
<g><path style="opacity:0.612" fill="#797878" d="M 132.5,44.5 C 130.708,45.3091 128.708,45.8091 126.5,46C 125.934,46.9947 125.267,47.828 124.5,48.5C 124.5,47.1667 124.5,45.8333 124.5,44.5C 127.167,44.5 129.833,44.5 132.5,44.5 Z"/></g>
<g><path style="opacity:1" fill="#e5e4e4" d="M 55.5,49.5 C 58.0444,49.1043 60.2111,49.771 62,51.5C 62.6667,79.5 62.6667,107.5 62,135.5C 58.7065,138.311 55.7065,137.978 53,134.5C 52.3333,107.5 52.3333,80.5 53,53.5C 53.6622,52.0161 54.4955,50.6828 55.5,49.5 Z"/></g>
<g><path style="opacity:0.004" fill="#353534" d="M 108.5,50.5 C 108.5,51.8333 107.833,52.5 106.5,52.5C 106.833,51.5 107.5,50.8333 108.5,50.5 Z"/></g>
<g><path style="opacity:1" fill="#f3f3f3" d="M 166.5,73.5 C 168.882,71.9539 171.549,71.2872 174.5,71.5C 175.219,73.7638 175.552,76.0971 175.5,78.5C 173.5,80.1667 171.5,81.8333 169.5,83.5C 167.167,83.5 164.833,83.5 162.5,83.5C 161.833,83.5 161.5,83.1667 161.5,82.5C 161.027,81.0937 160.027,80.427 158.5,80.5C 156.093,79.2055 153.926,77.5389 152,75.5C 151.517,76.448 151.351,77.448 151.5,78.5C 151.5,94.5 151.5,110.5 151.5,126.5C 168.833,126.5 186.167,126.5 203.5,126.5C 205.074,126.937 206.241,127.937 207,129.5C 207.667,160.167 207.667,190.833 207,221.5C 205.092,225.391 202.259,226.391 198.5,224.5C 197.841,194.736 197.174,165.069 196.5,135.5C 181.5,135.5 166.5,135.5 151.5,135.5C 140.5,135.5 129.5,135.5 118.5,135.5C 118.202,121.784 118.535,108.118 119.5,94.5C 120.812,91.3392 123.145,89.3392 126.5,88.5C 129.482,88.0371 132.482,87.7038 135.5,87.5C 135.5,100.5 135.5,113.5 135.5,126.5C 137.833,126.5 140.167,126.5 142.5,126.5C 143.185,101.294 143.851,75.961 144.5,50.5C 146.468,49.181 148.468,49.181 150.5,50.5C 152.118,54.6343 152.951,58.9676 153,63.5C 157.114,67.4609 161.614,70.7942 166.5,73.5 Z"/></g>
<g><path style="opacity:1" fill="#dbdbd9" d="M 127.5,57.5 C 130.448,57.2229 133.281,57.5562 136,58.5C 133.917,69.0775 127.417,75.0775 116.5,76.5C 117.247,68.432 120.914,62.0986 127.5,57.5 Z"/></g>
<g><path style="opacity:0.443" fill="#636363" d="M 175.5,57.5 C 177.027,57.427 178.027,58.0937 178.5,59.5C 176.973,59.573 175.973,58.9063 175.5,57.5 Z"/></g>
<g><path style="opacity:0.761" fill="#717171" d="M 81.5,61.5 C 84.4299,62.299 87.4299,62.6323 90.5,62.5C 90.5,63.5 90.5,64.5 90.5,65.5C 89.5526,63.5446 88.2193,63.2113 86.5,64.5C 84.4024,64.0428 82.7358,63.0428 81.5,61.5 Z"/></g>
<g><path style="opacity:0.616" fill="#70706f" d="M 106.5,62.5 C 104.735,63.4614 102.735,63.7947 100.5,63.5C 100.737,64.791 100.404,65.791 99.5,66.5C 99.5,65.1667 99.5,63.8333 99.5,62.5C 101.833,62.5 104.167,62.5 106.5,62.5 Z"/></g>
<g><path style="opacity:1" fill="#e3e3e3" d="M 213.5,68.5 C 214.939,70.588 215.606,72.9214 215.5,75.5C 202.673,89.1607 189.339,102.327 175.5,115C 172.904,115.458 170.737,114.625 169,112.5C 165.157,106.805 161.323,101.138 157.5,95.5C 157.448,93.0971 157.781,90.7638 158.5,88.5C 159.946,87.3871 161.613,87.2204 163.5,88C 167.454,92.7423 171.287,97.5756 175,102.5C 186.167,91.3333 197.333,80.1667 208.5,69C 210.134,68.5065 211.801,68.3398 213.5,68.5 Z"/></g>
<g><path style="opacity:0.827" fill="#868485" d="M 174.5,71.5 C 171.549,71.2872 168.882,71.9539 166.5,73.5C 168.659,69.7126 171.325,69.0459 174.5,71.5 Z"/></g>
<g><path style="opacity:0.569" fill="#71706e" d="M 213.5,68.5 C 214.75,68.5774 215.583,69.244 216,70.5C 216.78,72.3869 216.613,74.0536 215.5,75.5C 215.606,72.9214 214.939,70.588 213.5,68.5 Z"/></g>
<g><path style="opacity:0.999" fill="#e6e5e3" d="M 109.5,85.5 C 109.5,87.1667 109.5,88.8333 109.5,90.5C 107.833,90.5 106.167,90.5 104.5,90.5C 98.9226,89.2199 95.2559,85.8865 93.5,80.5C 93.5,78.5 93.5,76.5 93.5,74.5C 101.952,73.2435 107.285,76.9102 109.5,85.5 Z"/></g>
<g><path style="opacity:0.749" fill="#999191" d="M 174.5,71.5 C 175.993,72.3121 176.66,73.6455 176.5,75.5C 176.48,76.7261 176.147,77.7261 175.5,78.5C 175.552,76.0971 175.219,73.7638 174.5,71.5 Z"/></g>
<g><path style="opacity:0.741" fill="#817e7d" d="M 93.5,74.5 C 93.5,76.5 93.5,78.5 93.5,80.5C 91.0062,78.406 91.0062,76.406 93.5,74.5 Z"/></g>
<g><path style="opacity:0.71" fill="#6f6f6e" d="M 158.5,80.5 C 160.027,80.427 161.027,81.0937 161.5,82.5C 159.973,82.573 158.973,81.9063 158.5,80.5 Z"/></g>
<g><path style="opacity:0.843" fill="#797372" d="M 162.5,83.5 C 164.833,83.5 167.167,83.5 169.5,83.5C 167.167,86.1667 164.833,86.1667 162.5,83.5 Z"/></g>
<g><path style="opacity:0.029" fill="#373433" d="M 142.5,53.5 C 142.5,77.8333 142.5,102.167 142.5,126.5C 140.167,126.5 137.833,126.5 135.5,126.5C 135.5,113.5 135.5,100.5 135.5,87.5C 136.495,99.989 136.829,112.656 136.5,125.5C 138.167,125.5 139.833,125.5 141.5,125.5C 141.169,101.328 141.502,77.3275 142.5,53.5 Z"/></g>
<g><path style="opacity:0.369" fill="#5c5956" d="M 69.5,87.5 C 73.6463,86.353 77.9796,86.1864 82.5,87C 83.4158,87.2784 84.0825,87.7784 84.5,88.5C 79.547,87.6708 74.547,87.3375 69.5,87.5 Z"/></g>
<g><path style="opacity:0.922" fill="#969493" d="M 135.5,87.5 C 132.482,87.7038 129.482,88.0371 126.5,88.5C 127.946,87.0598 129.779,86.3932 132,86.5C 133.385,86.5143 134.551,86.8476 135.5,87.5 Z"/></g>
<g><path style="opacity:1" fill="#f6f5f5" d="M 69.5,87.5 C 74.547,87.3375 79.547,87.6708 84.5,88.5C 90.8333,93.8333 97.1667,99.1667 103.5,104.5C 103.821,106.048 104.821,106.715 106.5,106.5C 107.5,107.167 108.5,107.833 109.5,108.5C 109.5,117.5 109.5,126.5 109.5,135.5C 99.8276,135.334 90.1609,135.5 80.5,136C 79.944,136.383 79.6107,136.883 79.5,137.5C 78.0319,139.611 78.3652,141.444 80.5,143C 104.164,143.5 127.831,143.667 151.5,143.5C 151.215,148.897 151.549,154.23 152.5,159.5C 156.322,160.662 160.155,161.662 164,162.5C 164.499,167.823 164.666,173.156 164.5,178.5C 153.162,178.333 141.828,178.5 130.5,179C 127.527,180.224 126.86,182.224 128.5,185C 139.833,185.333 151.167,185.667 162.5,186C 163.056,186.383 163.389,186.883 163.5,187.5C 163.5,196.5 163.5,205.5 163.5,214.5C 132.167,214.5 100.833,214.5 69.5,214.5C 69.5,205.167 69.5,195.833 69.5,186.5C 79.4234,185.691 89.4234,185.191 99.5,185C 102.326,182.478 101.993,180.478 98.5,179C 89.1726,178.5 79.8393,178.334 70.5,178.5C 69.5082,148.24 69.1749,117.907 69.5,87.5 Z M 132.5,160.5 C 127.489,160.334 122.489,160.501 117.5,161C 117.043,161.414 116.709,161.914 116.5,162.5C 117.492,177.101 117.492,191.767 116.5,206.5C 114.914,207.413 113.414,207.413 112,206.5C 111.667,191.5 111.333,176.5 111,161.5C 105.583,160.691 100.083,160.191 94.5,160C 92.771,158.211 92.1043,156.044 92.5,153.5C 106.5,153.5 120.5,153.5 134.5,153.5C 134.662,155.527 134.495,157.527 134,159.5C 133.617,160.056 133.117,160.389 132.5,160.5 Z"/></g>
<g><path style="opacity:0.827" fill="#868684" d="M 109.5,85.5 C 110.306,86.9972 110.972,88.6639 111.5,90.5C 109.027,91.7969 106.693,91.7969 104.5,90.5C 106.167,90.5 107.833,90.5 109.5,90.5C 109.5,88.8333 109.5,87.1667 109.5,85.5 Z"/></g>
<g><path style="opacity:0.714" fill="#c2bfbd" d="M 144.5,50.5 C 143.851,75.961 143.185,101.294 142.5,126.5C 142.5,102.167 142.5,77.8333 142.5,53.5C 142.427,51.9731 143.094,50.9731 144.5,50.5 Z"/></g>
<g><path style="opacity:0.333" fill="#5e5d5c" d="M 158.5,88.5 C 157.781,90.7638 157.448,93.0971 157.5,95.5C 156.853,94.7261 156.52,93.7261 156.5,92.5C 156.34,90.6455 157.007,89.3121 158.5,88.5 Z"/></g>
<g><path style="opacity:0.831" fill="#7a7777" d="M 103.5,104.5 C 104.71,104.932 105.71,105.599 106.5,106.5C 104.821,106.715 103.821,106.048 103.5,104.5 Z"/></g>
<g><path style="opacity:0.216" fill="#393837" d="M 151.5,78.5 C 152.496,93.9911 152.83,109.658 152.5,125.5C 169.675,125.17 186.675,125.503 203.5,126.5C 186.167,126.5 168.833,126.5 151.5,126.5C 151.5,110.5 151.5,94.5 151.5,78.5 Z"/></g>
<g><path style="opacity:0.912" fill="#abaaaa" d="M 109.5,108.5 C 110.222,108.918 110.722,109.584 111,110.5C 111.5,119.16 111.666,127.827 111.5,136.5C 100.782,136.213 90.1152,136.546 79.5,137.5C 79.6107,136.883 79.944,136.383 80.5,136C 90.1609,135.5 99.8276,135.334 109.5,135.5C 109.5,126.5 109.5,117.5 109.5,108.5 Z"/></g>
<g><path style="opacity:0.886" fill="#a6a5a4" d="M 119.5,94.5 C 118.535,108.118 118.202,121.784 118.5,135.5C 129.5,135.5 140.5,135.5 151.5,135.5C 140.012,136.495 128.345,136.828 116.5,136.5C 116.277,122.806 116.777,109.139 118,95.5C 118.383,94.944 118.883,94.6107 119.5,94.5 Z"/></g>
<g><path style="opacity:0.999" fill="#f5f5f4" d="M 62.5,239.5 C 98.3295,240.498 134.329,240.832 170.5,240.5C 170.5,211.5 170.5,182.5 170.5,153.5C 170.414,152.504 170.748,151.671 171.5,151C 173.712,150.211 175.712,150.378 177.5,151.5C 178.151,181.294 178.818,210.961 179.5,240.5C 181.5,240.5 183.5,240.5 185.5,240.5C 185.5,215.5 185.5,190.5 185.5,165.5C 185.328,164.508 185.662,163.842 186.5,163.5C 188.95,163.298 191.283,163.631 193.5,164.5C 194.498,189.328 194.831,214.328 194.5,239.5C 198.24,239.241 201.906,239.574 205.5,240.5C 207.615,242.615 207.949,244.949 206.5,247.5C 205.504,247.586 204.671,247.252 204,246.5C 154.05,248.493 103.884,249.159 53.5,248.5C 52.1673,216.53 52.1673,184.53 53.5,152.5C 56.3714,149.887 59.2047,149.887 62,152.5C 62.5,181.498 62.6666,210.498 62.5,239.5 Z M 132.5,160.5 C 127.489,160.334 122.489,160.501 117.5,161C 117.043,161.414 116.709,161.914 116.5,162.5C 117.492,177.101 117.492,191.767 116.5,206.5C 114.914,207.413 113.414,207.413 112,206.5C 111.667,191.5 111.333,176.5 111,161.5C 105.583,160.691 100.083,160.191 94.5,160C 92.771,158.211 92.1043,156.044 92.5,153.5C 106.5,153.5 120.5,153.5 134.5,153.5C 134.662,155.527 134.495,157.527 134,159.5C 133.617,160.056 133.117,160.389 132.5,160.5 Z M 127.5,224.5 C 131.016,226.118 131.183,227.785 128,229.5C 124.927,228.252 124.76,226.585 127.5,224.5 Z M 92.5,225.5 C 93.6857,226.961 93.6857,228.295 92.5,229.5C 91.4138,229.38 90.7472,228.713 90.5,227.5C 90.7472,226.287 91.4138,225.62 92.5,225.5 Z"/></g>
<g><path style="opacity:0.609" fill="#959391" d="M 69.5,87.5 C 69.1749,117.907 69.5082,148.24 70.5,178.5C 69.1673,163.682 68.5006,148.515 68.5,133C 68.5001,117.663 68.8334,102.496 69.5,87.5 Z"/></g>
<g><path style="opacity:0.835" fill="#837b7c" d="M 193.5,164.5 C 191.283,163.631 188.95,163.298 186.5,163.5C 189.32,160.665 191.653,160.999 193.5,164.5 Z"/></g>
<g><path style="opacity:0.705" fill="#767575" d="M 177.5,151.5 C 179.067,152.681 179.901,154.347 180,156.5C 180.816,184.209 180.649,211.876 179.5,239.5C 179.5,239.833 179.5,240.167 179.5,240.5C 178.818,210.961 178.151,181.294 177.5,151.5 Z"/></g>
<g><path style="opacity:0.253" fill="#3c3a39" d="M 196.5,135.5 C 197.174,165.069 197.841,194.736 198.5,224.5C 196.508,195.185 195.841,165.519 196.5,135.5 Z"/></g>
<g><path style="opacity:0.253" fill="#4f4b49" d="M 185.5,165.5 C 185.5,190.5 185.5,215.5 185.5,240.5C 183.5,240.5 181.5,240.5 179.5,240.5C 179.5,240.167 179.5,239.833 179.5,239.5C 181.167,239.5 182.833,239.5 184.5,239.5C 184.169,214.661 184.502,189.994 185.5,165.5 Z"/></g>
<g><path style="opacity:0.756" fill="#807d7c" d="M 132.5,160.5 C 128.03,161.486 123.363,161.819 118.5,161.5C 119.15,176.871 118.484,191.871 116.5,206.5C 117.492,191.767 117.492,177.101 116.5,162.5C 116.709,161.914 117.043,161.414 117.5,161C 122.489,160.501 127.489,160.334 132.5,160.5 Z"/></g>
<g><path style="opacity:0.825" fill="#a5a3a2" d="M 69.5,186.5 C 69.5,195.833 69.5,205.167 69.5,214.5C 100.833,214.5 132.167,214.5 163.5,214.5C 163.5,205.5 163.5,196.5 163.5,187.5C 164.494,196.652 164.827,205.985 164.5,215.5C 132.433,215.642 100.433,215.642 68.5,215.5C 68.1729,205.652 68.5062,195.986 69.5,186.5 Z"/></g>
<g><path style="opacity:0.976" fill="#a9a8a6" d="M 126.5,221.5 C 132.082,221.988 134.248,224.988 133,230.5C 127.865,234.842 124.365,233.842 122.5,227.5C 122.67,224.674 124.003,222.674 126.5,221.5 Z M 127.5,224.5 C 124.76,226.585 124.927,228.252 128,229.5C 131.183,227.785 131.016,226.118 127.5,224.5 Z"/></g>
<g><path style="opacity:0.169" fill="#3d3a38" d="M 107.5,224.5 C 107.167,225.167 106.833,225.833 106.5,226.5C 105.833,226.5 105.167,226.5 104.5,226.5C 104.167,225.167 103.833,225.167 103.5,226.5C 102.957,226.44 102.624,226.107 102.5,225.5C 104.045,224.548 105.712,224.215 107.5,224.5 Z"/></g>
<g><path style="opacity:0.991" fill="#e9e7e6" d="M 100.5,222.5 C 103.388,221.99 105.721,222.656 107.5,224.5C 105.712,224.215 104.045,224.548 102.5,225.5C 102.624,226.107 102.957,226.44 103.5,226.5C 103.833,226.5 104.167,226.5 104.5,226.5C 105.167,226.5 105.833,226.5 106.5,226.5C 106.5,227.167 106.5,227.833 106.5,228.5C 101.306,228.942 101.306,229.942 106.5,231.5C 104.604,232.466 102.604,232.799 100.5,232.5C 100.5,229.167 100.5,225.833 100.5,222.5 Z"/></g>
<g><path style="opacity:0.984" fill="#c3c2c0" d="M 144.5,231.5 C 143.652,232.625 142.652,232.625 141.5,231.5C 141.5,231.167 141.5,230.833 141.5,230.5C 140.791,229.596 139.791,229.263 138.5,229.5C 138.715,231.179 138.048,232.179 136.5,232.5C 135.957,232.44 135.624,232.107 135.5,231.5C 136.244,228.557 136.744,225.557 137,222.5C 144.287,221.295 146.787,224.295 144.5,231.5 Z"/></g>
<g><path style="opacity:0.965" fill="#c2c1bf" d="M 87.5,222.5 C 95.9932,221.471 98.3266,224.637 94.5,232C 91.7614,233.893 89.0947,233.893 86.5,232C 87.4505,228.943 87.7839,225.777 87.5,222.5 Z M 92.5,225.5 C 93.6857,226.961 93.6857,228.295 92.5,229.5C 91.4138,229.38 90.7472,228.713 90.5,227.5C 90.7472,226.287 91.4138,225.62 92.5,225.5 Z"/></g>
<g><path style="opacity:0.247" fill="#535350" d="M 92.5,225.5 C 91.4138,225.62 90.7472,226.287 90.5,227.5C 90.7472,228.713 91.4138,229.38 92.5,229.5C 91.791,230.404 90.791,230.737 89.5,230.5C 89.5,228.5 89.5,226.5 89.5,224.5C 90.791,224.263 91.791,224.596 92.5,225.5 Z"/></g>
<g><path style="opacity:0.945" fill="#aaa8a7" d="M 114.5,221.5 C 116.842,221.504 118.842,222.337 120.5,224C 119.62,226.568 118.12,227.068 116,225.5C 114.72,225.613 113.887,226.28 113.5,227.5C 115.483,229.024 117.816,230.024 120.5,230.5C 117.427,234.438 114.26,234.438 111,230.5C 109.665,226.392 110.832,223.392 114.5,221.5 Z"/></g>
<g><path style="opacity:0.506" fill="#6d6c6a" d="M 141.5,230.5 C 139.952,230.821 139.285,231.821 139.5,233.5C 138.209,233.737 137.209,233.404 136.5,232.5C 138.048,232.179 138.715,231.179 138.5,229.5C 139.791,229.263 140.791,229.596 141.5,230.5 Z"/></g>
<g><path style="opacity:0.118" fill="#413d3c" d="M 100.5,222.5 C 100.5,225.833 100.5,229.167 100.5,232.5C 102.604,232.799 104.604,232.466 106.5,231.5C 101.306,229.942 101.306,228.942 106.5,228.5C 107.301,230.042 107.634,231.708 107.5,233.5C 104.833,233.5 102.167,233.5 99.5,233.5C 99.185,229.629 99.5184,225.962 100.5,222.5 Z"/></g>
<g><path style="opacity:0.157" fill="#333330" d="M 141.5,231.5 C 142.652,232.625 143.652,232.625 144.5,231.5C 145.751,232.472 145.418,233.139 143.5,233.5C 142.287,233.253 141.62,232.586 141.5,231.5 Z"/></g>
<g><path style="opacity:0.36" fill="#676565" d="M 170.5,153.5 C 170.5,182.5 170.5,211.5 170.5,240.5C 134.329,240.832 98.3295,240.498 62.5,239.5C 98.1667,239.5 133.833,239.5 169.5,239.5C 169.169,210.662 169.502,181.995 170.5,153.5 Z"/></g>
<g><path style="opacity:0.583" fill="#999797" d="M 206.5,247.5 C 206.389,248.117 206.056,248.617 205.5,249C 154.665,249.832 103.998,249.665 53.5,248.5C 103.884,249.159 154.05,248.493 204,246.5C 204.671,247.252 205.504,247.586 206.5,247.5 Z"/></g>
</svg>
