<?xml version="1.0" encoding="UTF-8"?>
<!DOCTYPE svg PUBLIC "-//W3C//DTD SVG 1.1//EN" "http://www.w3.org/Graphics/SVG/1.1/DTD/svg11.dtd">
<svg xmlns="http://www.w3.org/2000/svg" version="1.1" width="543px" height="460px" style="shape-rendering:geometricPrecision; text-rendering:geometricPrecision; image-rendering:optimizeQuality; fill-rule:evenodd; clip-rule:evenodd" xmlns:xlink="http://www.w3.org/1999/xlink">
<g><path style="opacity:0.725" fill="#959595" d="M 255.5,77.5 C 253.898,79.0739 251.898,79.7406 249.5,79.5C 251.102,77.9261 253.102,77.2594 255.5,77.5 Z"/></g>
<g><path style="opacity:0.325" fill="#b1b1b1" d="M 279.5,78.5 C 281.153,78.6596 282.486,79.3263 283.5,80.5C 281.62,80.7709 280.287,80.1042 279.5,78.5 Z"/></g>
<g><path style="opacity:0.792" fill="#8d8d8d" d="M 287.5,82.5 C 289.23,83.0256 290.564,84.0256 291.5,85.5C 289.368,85.4456 288.035,84.4456 287.5,82.5 Z"/></g>
<g><path style="opacity:0.851" fill="#777777" d="M 243.5,82.5 C 242.415,84.5869 240.749,85.9202 238.5,86.5C 239.585,84.4131 241.251,83.0798 243.5,82.5 Z"/></g>
<g><path style="opacity:0.451" fill="#b1b1b1" d="M 293.5,86.5 C 296.243,88.2393 298.243,90.5726 299.5,93.5C 296.757,91.7607 294.757,89.4274 293.5,86.5 Z"/></g>
<g><path style="opacity:0.667" fill="#a4a4a4" d="M 355.5,87.5 C 352.319,87.8884 349.652,89.2218 347.5,91.5C 348.385,88.3419 350.552,86.6752 354,86.5C 354.765,86.5699 355.265,86.9033 355.5,87.5 Z"/></g>
<g><path style="opacity:0.192" fill="#bebebe" d="M 355.5,87.5 C 357.38,87.2291 358.713,87.8958 359.5,89.5C 359.167,89.5 358.833,89.5 358.5,89.5C 357.29,89.0679 356.29,88.4013 355.5,87.5 Z"/></g>
<g><path style="opacity:0.561" fill="#9f9f9f" d="M 181.5,88.5 C 177.116,87.5755 173.782,88.9088 171.5,92.5C 171.167,92.5 170.833,92.5 170.5,92.5C 170.859,90.629 171.859,89.129 173.5,88C 176.367,87.1993 179.034,87.3659 181.5,88.5 Z"/></g>
<g><path style="opacity:0.557" fill="#9b9b9b" d="M 238.5,86.5 C 236.833,88.8333 234.833,90.8333 232.5,92.5C 233.5,89.5 235.5,87.5 238.5,86.5 Z"/></g>
<g><path style="opacity:0.998" fill="#252525" d="M 271.5,91.5 C 270.167,93.5 270.167,95.5 271.5,97.5C 272.441,99.0495 273.107,100.716 273.5,102.5C 273.427,104.027 274.094,105.027 275.5,105.5C 276.167,108.167 277.833,109.833 280.5,110.5C 284.155,112.829 288.155,114.163 292.5,114.5C 292.5,113.5 292.5,112.5 292.5,111.5C 293.643,111.908 294.643,112.575 295.5,113.5C 294.233,115.371 294.233,117.204 295.5,119C 298.426,119.218 301.26,119.718 304,120.5C 304.333,119.167 304.667,117.833 305,116.5C 305.988,119.424 306.654,122.424 307,125.5C 307.499,120.845 307.666,116.179 307.5,111.5C 308.833,116.833 308.833,122.167 307.5,127.5C 306.13,130.619 305.13,133.952 304.5,137.5C 304.672,138.492 304.338,139.158 303.5,139.5C 303.167,139.5 302.833,139.5 302.5,139.5C 301.475,133.45 301.475,127.45 302.5,121.5C 299.289,121.012 296.456,121.679 294,123.5C 292.415,122.624 291.415,121.291 291,119.5C 290.707,122.899 288.873,124.899 285.5,125.5C 285.624,126.107 285.957,126.44 286.5,126.5C 286.5,126.833 286.5,127.167 286.5,127.5C 282.905,129.102 279.571,131.102 276.5,133.5C 275.094,133.973 274.427,134.973 274.5,136.5C 274.5,137.167 274.167,137.5 273.5,137.5C 270.271,140.79 269.938,144.123 272.5,147.5C 271.791,148.404 270.791,148.737 269.5,148.5C 268.639,144.07 266.972,140.07 264.5,136.5C 265.833,136.5 266.5,135.833 266.5,134.5C 266.5,134.167 266.5,133.833 266.5,133.5C 267.906,133.027 268.573,132.027 268.5,130.5C 269.906,130.027 270.573,129.027 270.5,127.5C 272.443,124.529 275.109,122.529 278.5,121.5C 282.289,121.263 282.289,120.596 278.5,119.5C 277.508,119.672 276.842,119.338 276.5,118.5C 275.415,116.413 273.749,115.08 271.5,114.5C 269.05,112.371 267.383,109.704 266.5,106.5C 266.719,105.325 266.386,104.325 265.5,103.5C 264.571,104.689 264.238,106.022 264.5,107.5C 263.094,107.973 262.427,108.973 262.5,110.5C 260.541,114.126 257.874,117.126 254.5,119.5C 253.5,119.5 252.5,119.5 251.5,119.5C 250.167,119.5 249.5,120.167 249.5,121.5C 249.217,122.289 248.717,122.956 248,123.5C 245.852,122.195 244.352,120.362 243.5,118C 242.551,117.383 241.718,117.549 241,118.5C 240.544,117.256 241.044,116.423 242.5,116C 242.272,115.601 241.938,115.435 241.5,115.5C 241.5,115.167 241.5,114.833 241.5,114.5C 244.162,113.501 246.828,112.501 249.5,111.5C 252.833,110.167 255.167,107.833 256.5,104.5C 256.328,103.508 256.662,102.842 257.5,102.5C 259.28,101.01 259.946,99.0101 259.5,96.5C 259.5,95.8333 259.5,95.1667 259.5,94.5C 260.833,93.5 260.833,92.5 259.5,91.5C 261.06,89.2298 263.06,88.5632 265.5,89.5C 266.748,88.9598 267.915,88.2931 269,87.5C 269.662,88.9839 270.496,90.3172 271.5,91.5 Z M 251.5,119.5 C 252.5,119.5 253.5,119.5 254.5,119.5C 254.5,120.167 254.5,120.833 254.5,121.5C 253.833,121.5 253.167,121.5 252.5,121.5C 252.167,120.833 251.833,120.167 251.5,119.5 Z"/></g>
<g><path style="opacity:1" fill="#222222" d="M 181.5,88.5 C 183.173,89.343 184.34,90.6763 185,92.5C 185.226,100.88 185.726,109.214 186.5,117.5C 186.833,119.833 188.167,121.167 190.5,121.5C 190.611,122.117 190.944,122.617 191.5,123C 197.491,123.499 203.491,123.666 209.5,123.5C 210.492,123.328 211.158,123.662 211.5,124.5C 211.427,126.027 212.094,127.027 213.5,127.5C 215.054,130.985 214.387,134.152 211.5,137C 203.098,139.036 194.765,138.87 186.5,136.5C 186.027,135.094 185.027,134.427 183.5,134.5C 182.508,134.672 181.842,134.338 181.5,133.5C 179.73,131.887 178.564,129.887 178,127.5C 176.989,126.663 175.822,126.33 174.5,126.5C 174.445,124.459 174.445,122.292 174.5,120C 173.552,119.517 172.552,119.351 171.5,119.5C 171.5,110.5 171.5,101.5 171.5,92.5C 173.782,88.9088 177.116,87.5755 181.5,88.5 Z"/></g>
<g><path style="opacity:0.469" fill="#8f8f8f" d="M 347.5,91.5 C 347.666,99.1739 347.5,106.841 347,114.5C 346.722,115.416 346.222,116.082 345.5,116.5C 346.078,108.022 346.744,99.6888 347.5,91.5 Z"/></g>
<g><path style="opacity:0.467" fill="#949494" d="M 299.5,93.5 C 300.906,93.9731 301.573,94.9731 301.5,96.5C 300.094,96.0269 299.427,95.0269 299.5,93.5 Z"/></g>
<g><path style="opacity:0.843" fill="#747474" d="M 335.5,96.5 C 329.441,96.2539 323.441,96.5872 317.5,97.5C 318.058,96.2101 319.058,95.3768 320.5,95C 322.5,94.8333 324.5,94.6667 326.5,94.5C 329.814,94.3425 332.814,95.0092 335.5,96.5 Z"/></g>
<g><path style="opacity:0.704" fill="#7a7a7a" d="M 358.5,89.5 C 358.833,89.5 359.167,89.5 359.5,89.5C 360.558,90.6002 361.392,91.9336 362,93.5C 362.667,101.167 362.667,108.833 362,116.5C 361.76,118.852 360.927,120.852 359.5,122.5C 361.157,111.402 360.824,100.402 358.5,89.5 Z"/></g>
<g><path style="opacity:0.894" fill="#868686" d="M 381.5,95.5 C 378.303,95.4054 375.303,96.0721 372.5,97.5C 372.881,96.0689 373.881,95.2355 375.5,95C 377.712,94.2109 379.712,94.3775 381.5,95.5 Z"/></g>
<g><path style="opacity:1" fill="#252525" d="M 335.5,96.5 C 336.167,96.8333 336.833,97.1667 337.5,97.5C 339.321,101.466 338.654,104.799 335.5,107.5C 329.441,107.746 323.441,107.413 317.5,106.5C 314.848,103.456 314.848,100.456 317.5,97.5C 323.441,96.5872 329.441,96.2539 335.5,96.5 Z"/></g>
<g><path style="opacity:0.004" fill="#fefffe" d="M 337.5,96.5 C 338.833,97.1667 338.833,97.1667 337.5,96.5 Z"/></g>
<g><path style="opacity:0.373" fill="#b9b9b9" d="M 197.5,95.5 C 196.833,96.8333 195.833,97.8333 194.5,98.5C 194.5,96.5 195.5,95.5 197.5,95.5 Z"/></g>
<g><path style="opacity:0.995" fill="#535353" d="M 158.5,96.5 C 154.743,96.0708 151.243,96.7375 148,98.5C 147.586,98.0426 147.086,97.7093 146.5,97.5C 146.795,98.8255 146.295,100.159 145,101.5C 143.512,99.1695 141.679,98.8362 139.5,100.5C 144.25,96.058 149.917,94.2247 156.5,95C 157.416,95.2784 158.082,95.7784 158.5,96.5 Z"/></g>
<g><path style="opacity:0.143" fill="#c6c6c6" d="M 212.5,96.5 C 214.876,97.512 215.876,99.3454 215.5,102C 215.693,104.008 215.026,105.508 213.5,106.5C 214.985,102.944 214.652,99.6107 212.5,96.5 Z"/></g>
<g><path style="opacity:0.925" fill="#6f6f6f" d="M 229.5,96.5 C 229.408,98.8477 228.408,100.514 226.5,101.5C 226.75,99.326 227.75,97.6594 229.5,96.5 Z"/></g>
<g><path style="opacity:0.435" fill="#adadad" d="M 194.5,98.5 C 194.401,101.237 194.735,103.904 195.5,106.5C 193.974,105.508 193.307,104.008 193.5,102C 193.514,100.615 193.848,99.4486 194.5,98.5 Z"/></g>
<g><path style="opacity:1" fill="#252525" d="M 212.5,96.5 C 214.652,99.6107 214.985,102.944 213.5,106.5C 213.5,107.167 213.167,107.5 212.5,107.5C 206.773,107.74 201.106,107.407 195.5,106.5C 194.735,103.904 194.401,101.237 194.5,98.5C 195.833,97.8333 196.833,96.8333 197.5,95.5C 202.713,93.9758 207.713,94.3092 212.5,96.5 Z"/></g>
<g><path style="opacity:0.533" fill="#9e9e9e" d="M 138.5,101.5 C 136.833,103.833 134.833,105.833 132.5,107.5C 133.5,104.5 135.5,102.5 138.5,101.5 Z"/></g>
<g><path style="opacity:0.816" fill="#8c8c8c" d="M 226.5,101.5 C 226.88,103.698 226.213,105.365 224.5,106.5C 224.402,104.447 225.069,102.78 226.5,101.5 Z"/></g>
<g><path style="opacity:0.71" fill="#818181" d="M 301.5,96.5 C 305.049,100.801 307.049,105.801 307.5,111.5C 306.233,109.22 305.233,106.72 304.5,104C 303.728,102.779 302.728,101.779 301.5,101C 302.413,99.5861 302.413,98.0861 301.5,96.5 Z"/></g>
<g><path style="opacity:0.434" fill="#949494" d="M 195.5,106.5 C 201.106,107.407 206.773,107.74 212.5,107.5C 207.35,108.651 202.016,108.817 196.5,108C 195.944,107.617 195.611,107.117 195.5,106.5 Z"/></g>
<g><path style="opacity:0.414" fill="#9e9e9e" d="M 317.5,106.5 C 323.441,107.413 329.441,107.746 335.5,107.5C 330.015,108.652 324.349,108.818 318.5,108C 317.944,107.617 317.611,107.117 317.5,106.5 Z"/></g>
<g><path style="opacity:0.008" fill="#bfbfbf" d="M 158.5,96.5 C 159.117,96.6107 159.617,96.944 160,97.5C 160.667,100.833 160.667,104.167 160,107.5C 158.556,109.155 156.722,109.822 154.5,109.5C 156.091,108.781 157.591,107.781 159,106.5C 159.659,103.112 159.492,99.7786 158.5,96.5 Z"/></g>
<g><path style="opacity:0.263" fill="#bdbdbd" d="M 372.5,107.5 C 374.027,107.427 375.027,108.094 375.5,109.5C 373.973,109.573 372.973,108.906 372.5,107.5 Z"/></g>
<g><path style="opacity:0.855" fill="#838383" d="M 376.5,109.5 C 379.01,109.054 381.01,109.72 382.5,111.5C 380.302,111.125 378.302,110.458 376.5,109.5 Z"/></g>
<g><path style="opacity:0.998" fill="#222222" d="M 381.5,95.5 C 390.092,97.0912 396.426,101.758 400.5,109.5C 400.427,111.027 401.094,112.027 402.5,112.5C 402.12,114.698 402.787,116.365 404.5,117.5C 405.451,118.919 405.784,120.585 405.5,122.5C 405.5,195.167 405.5,267.833 405.5,340.5C 405.5,340.833 405.5,341.167 405.5,341.5C 403.792,344.95 402.459,348.617 401.5,352.5C 400.974,354.23 399.974,355.564 398.5,356.5C 397.094,356.973 396.427,357.973 396.5,359.5C 394.596,359.738 393.262,360.738 392.5,362.5C 392.027,363.906 391.027,364.573 389.5,364.5C 387.847,364.66 386.514,365.326 385.5,366.5C 384.791,367.404 383.791,367.737 382.5,367.5C 382.414,366.504 382.748,365.671 383.5,365C 379.5,364.333 379.5,363.667 383.5,363C 380.833,362.333 380.833,361.667 383.5,361C 381.134,358.826 378.801,356.66 376.5,354.5C 378.153,354.34 379.486,353.674 380.5,352.5C 380.842,351.662 381.508,351.328 382.5,351.5C 385.5,350.5 387.5,348.5 388.5,345.5C 390.213,344.365 390.88,342.698 390.5,340.5C 390.667,267.833 390.5,195.166 390,122.5C 389.392,120.846 388.892,119.179 388.5,117.5C 387.5,114.5 385.5,112.5 382.5,111.5C 381.01,109.72 379.01,109.054 376.5,109.5C 376.167,109.5 375.833,109.5 375.5,109.5C 375.027,108.094 374.027,107.427 372.5,107.5C 370.036,104.134 370.036,100.8 372.5,97.5C 375.303,96.0721 378.303,95.4054 381.5,95.5 Z"/></g>
<g><path style="opacity:0.725" fill="#959595" d="M 382.5,111.5 C 385.5,112.5 387.5,114.5 388.5,117.5C 386.167,115.833 384.167,113.833 382.5,111.5 Z"/></g>
<g><path style="opacity:0.345" fill="#a3a3a3" d="M 400.5,109.5 C 401.906,109.973 402.573,110.973 402.5,112.5C 401.094,112.027 400.427,111.027 400.5,109.5 Z"/></g>
<g><path style="opacity:0.278" fill="#ababab" d="M 132.5,107.5 C 131.66,109.853 130.326,111.853 128.5,113.5C 128.845,110.802 130.178,108.802 132.5,107.5 Z"/></g>
<g><path style="opacity:0.031" fill="#d2d2d2" d="M 149.5,111.5 C 149.027,112.906 148.027,113.573 146.5,113.5C 146.973,112.094 147.973,111.427 149.5,111.5 Z"/></g>
<g><path style="opacity:0.012" fill="#d3d4d3" d="M 145.5,114.5 C 145.262,116.404 144.262,117.738 142.5,118.5C 142.738,116.596 143.738,115.262 145.5,114.5 Z"/></g>
<g><path style="opacity:0.89" fill="#797979" d="M 402.5,112.5 C 403.931,113.78 404.598,115.447 404.5,117.5C 402.787,116.365 402.12,114.698 402.5,112.5 Z"/></g>
<g><path style="opacity:0.792" fill="#898989" d="M 128.5,113.5 C 128.59,116.152 127.924,118.485 126.5,120.5C 126.41,117.848 127.076,115.515 128.5,113.5 Z"/></g>
<g><path style="opacity:0.999" fill="#202020" d="M 158.5,96.5 C 159.492,99.7786 159.659,103.112 159,106.5C 157.591,107.781 156.091,108.781 154.5,109.5C 153.07,110.537 151.403,111.204 149.5,111.5C 147.973,111.427 146.973,112.094 146.5,113.5C 146.5,114.167 146.167,114.5 145.5,114.5C 143.738,115.262 142.738,116.596 142.5,118.5C 141.778,118.918 141.278,119.584 141,120.5C 140.333,194.167 140.333,267.833 141,341.5C 141.278,342.416 141.778,343.082 142.5,343.5C 143.338,343.842 143.672,344.508 143.5,345.5C 143.427,347.027 144.094,348.027 145.5,348.5C 146.872,349.512 148.205,350.512 149.5,351.5C 147.516,351.383 145.85,352.05 144.5,353.5C 145.145,354.732 145.311,356.065 145,357.5C 146.049,356.483 147.216,356.316 148.5,357C 146.716,359.396 145.049,361.896 143.5,364.5C 142.609,363.89 141.609,363.557 140.5,363.5C 139.089,361.086 137.089,359.419 134.5,358.5C 133.864,356.205 132.531,354.539 130.5,353.5C 129.326,352.486 128.66,351.153 128.5,349.5C 129.962,346.358 129.295,344.358 126.5,343.5C 125.169,269.069 125.169,194.736 126.5,120.5C 127.924,118.485 128.59,116.152 128.5,113.5C 130.326,111.853 131.66,109.853 132.5,107.5C 134.833,105.833 136.833,103.833 138.5,101.5C 138.5,100.833 138.833,100.5 139.5,100.5C 141.679,98.8362 143.512,99.1695 145,101.5C 146.295,100.159 146.795,98.8255 146.5,97.5C 147.086,97.7093 147.586,98.0426 148,98.5C 151.243,96.7375 154.743,96.0708 158.5,96.5 Z"/></g>
<g><path style="opacity:0.596" fill="#9f9f9f" d="M 186.5,117.5 C 188.167,118.5 189.5,119.833 190.5,121.5C 188.167,121.167 186.833,119.833 186.5,117.5 Z"/></g>
<g><path style="opacity:0.98" fill="#747474" d="M 170.5,92.5 C 170.833,92.5 171.167,92.5 171.5,92.5C 171.5,101.5 171.5,110.5 171.5,119.5C 172.552,119.351 173.552,119.517 174.5,120C 174.445,122.292 174.445,124.459 174.5,126.5C 172.163,124.035 170.663,121.035 170,117.5C 169.199,109.088 169.366,100.755 170.5,92.5 Z"/></g>
<g><path style="opacity:0.004" fill="#fefffe" d="M 406.5,122.5 C 406.369,121.761 406.536,121.094 407,120.5C 407.692,121.437 407.525,122.103 406.5,122.5 Z"/></g>
<g><path style="opacity:0.373" fill="#9c9c9c" d="M 190.5,121.5 C 196.982,122.045 203.315,122.712 209.5,123.5C 203.491,123.666 197.491,123.499 191.5,123C 190.944,122.617 190.611,122.117 190.5,121.5 Z"/></g>
<g><path style="opacity:0.999" fill="#212121" d="M 355.5,87.5 C 356.29,88.4013 357.29,89.0679 358.5,89.5C 360.824,100.402 361.157,111.402 359.5,122.5C 359.34,124.153 358.674,125.486 357.5,126.5C 355.738,127.262 354.738,128.596 354.5,130.5C 353.738,132.262 352.404,133.262 350.5,133.5C 348.181,133.992 346.181,134.992 344.5,136.5C 340.272,138.025 335.772,138.692 331,138.5C 327.833,138.333 324.667,138.167 321.5,138C 320.584,137.722 319.918,137.222 319.5,136.5C 318.071,133.692 317.405,130.692 317.5,127.5C 317.916,125.248 319.249,123.748 321.5,123C 327.167,122.667 332.833,122.333 338.5,122C 341.621,121.033 343.954,119.2 345.5,116.5C 346.222,116.082 346.722,115.416 347,114.5C 347.5,106.841 347.666,99.1739 347.5,91.5C 349.652,89.2218 352.319,87.8884 355.5,87.5 Z"/></g>
<g><path style="opacity:0.408" fill="#9b9b9b" d="M 211.5,124.5 C 212.906,124.973 213.573,125.973 213.5,127.5C 212.094,127.027 211.427,126.027 211.5,124.5 Z"/></g>
<g><path style="opacity:0.979" fill="#606060" d="M 174.5,126.5 C 175.822,126.33 176.989,126.663 178,127.5C 178.564,129.887 179.73,131.887 181.5,133.5C 178.167,132.167 175.833,129.833 174.5,126.5 Z"/></g>
<g><path style="opacity:0.004" fill="#cdcdcd" d="M 357.5,126.5 C 357.262,128.404 356.262,129.738 354.5,130.5C 354.738,128.596 355.738,127.262 357.5,126.5 Z"/></g>
<g><path style="opacity:0.129" fill="#b8b9ba" d="M 307.5,127.5 C 307.68,131.286 306.68,134.619 304.5,137.5C 305.13,133.952 306.13,130.619 307.5,127.5 Z"/></g>
<g><path style="opacity:0.388" fill="#aeafae" d="M 317.5,127.5 C 317.405,130.692 318.071,133.692 319.5,136.5C 316.576,133.944 315.91,130.944 317.5,127.5 Z"/></g>
<g><path style="opacity:0.29" fill="#acacac" d="M 350.5,133.5 C 349.089,135.539 347.089,136.539 344.5,136.5C 346.181,134.992 348.181,133.992 350.5,133.5 Z"/></g>
<g><path style="opacity:0.176" fill="#b9b9b9" d="M 183.5,134.5 C 185.027,134.427 186.027,135.094 186.5,136.5C 184.973,136.573 183.973,135.906 183.5,134.5 Z"/></g>
<g><path style="opacity:0.22" fill="#b3bcb9" d="M 302.5,139.5 C 302.833,139.5 303.167,139.5 303.5,139.5C 303.25,141.674 302.25,143.341 300.5,144.5C 300.893,142.716 301.559,141.05 302.5,139.5 Z"/></g>
<g><path style="opacity:1" fill="#1c1c1c" d="M 279.5,78.5 C 280.287,80.1042 281.62,80.7709 283.5,80.5C 285.153,80.6596 286.486,81.3263 287.5,82.5C 288.035,84.4456 289.368,85.4456 291.5,85.5C 292.167,85.8333 292.833,86.1667 293.5,86.5C 294.757,89.4274 296.757,91.7607 299.5,93.5C 299.427,95.0269 300.094,96.0269 301.5,96.5C 302.413,98.0861 302.413,99.5861 301.5,101C 302.728,101.779 303.728,102.779 304.5,104C 305.233,106.72 306.233,109.22 307.5,111.5C 307.666,116.179 307.499,120.845 307,125.5C 306.654,122.424 305.988,119.424 305,116.5C 304.667,117.833 304.333,119.167 304,120.5C 301.26,119.718 298.426,119.218 295.5,119C 294.233,117.204 294.233,115.371 295.5,113.5C 294.643,112.575 293.643,111.908 292.5,111.5C 292.88,109.302 292.213,107.635 290.5,106.5C 288.42,103.358 286.086,100.358 283.5,97.5C 283.027,96.0937 282.027,95.427 280.5,95.5C 277.833,94.5 275.167,93.5 272.5,92.5C 272.5,91.8333 272.167,91.5 271.5,91.5C 270.496,90.3172 269.662,88.9839 269,87.5C 267.915,88.2931 266.748,88.9598 265.5,89.5C 263.06,88.5632 261.06,89.2298 259.5,91.5C 257.447,91.4021 255.78,92.0687 254.5,93.5C 252.833,93.5 251.167,93.5 249.5,93.5C 249.5,94.5 249.5,95.5 249.5,96.5C 247.858,97.803 246.191,99.1363 244.5,100.5C 242.738,101.262 241.738,102.596 241.5,104.5C 241.34,106.153 240.674,107.486 239.5,108.5C 238.076,110.515 237.41,112.848 237.5,115.5C 238.833,115.5 240.167,115.5 241.5,115.5C 241.938,115.435 242.272,115.601 242.5,116C 241.044,116.423 240.544,117.256 241,118.5C 241.718,117.549 242.551,117.383 243.5,118C 244.352,120.362 245.852,122.195 248,123.5C 248.717,122.956 249.217,122.289 249.5,121.5C 250.5,121.5 251.5,121.5 252.5,121.5C 253.167,121.5 253.833,121.5 254.5,121.5C 255.694,122.272 256.694,123.272 257.5,124.5C 258.167,125.833 259.167,126.833 260.5,127.5C 260.738,129.404 261.738,130.738 263.5,131.5C 264.338,131.842 264.672,132.508 264.5,133.5C 264.5,134.5 264.5,135.5 264.5,136.5C 266.972,140.07 268.639,144.07 269.5,148.5C 270.791,148.737 271.791,148.404 272.5,147.5C 274.553,147.598 276.22,146.931 277.5,145.5C 279.989,145.759 281.656,144.759 282.5,142.5C 285.5,141.5 287.5,139.5 288.5,136.5C 289.906,136.027 290.573,135.027 290.5,133.5C 291.038,131.883 291.371,130.216 291.5,128.5C 291.833,128.5 292.167,128.5 292.5,128.5C 293.404,127.791 293.737,126.791 293.5,125.5C 291.05,125.298 288.717,125.631 286.5,126.5C 285.957,126.44 285.624,126.107 285.5,125.5C 288.873,124.899 290.707,122.899 291,119.5C 291.415,121.291 292.415,122.624 294,123.5C 296.456,121.679 299.289,121.012 302.5,121.5C 301.475,127.45 301.475,133.45 302.5,139.5C 301.559,141.05 300.893,142.716 300.5,144.5C 300.5,145.167 300.167,145.5 299.5,145.5C 298.292,146.234 296.959,146.567 295.5,146.5C 295.634,148.292 295.301,149.958 294.5,151.5C 293.5,151.833 292.833,152.5 292.5,153.5C 291.421,155.543 289.754,156.876 287.5,157.5C 284.177,158.492 280.844,159.492 277.5,160.5C 269.868,161.358 262.201,161.691 254.5,161.5C 252.618,160.763 251.952,159.596 252.5,158C 250.512,157.82 248.512,157.986 246.5,158.5C 244.847,158.34 243.514,157.674 242.5,156.5C 241.415,154.413 239.749,153.08 237.5,152.5C 236.5,150.833 235.167,149.5 233.5,148.5C 232.5,148.167 231.833,147.5 231.5,146.5C 231.573,144.973 230.906,143.973 229.5,143.5C 223.201,133.844 221.035,123.177 223,111.5C 223.352,109.753 223.852,108.086 224.5,106.5C 226.213,105.365 226.88,103.698 226.5,101.5C 228.408,100.514 229.408,98.8477 229.5,96.5C 229.738,94.5956 230.738,93.2623 232.5,92.5C 234.833,90.8333 236.833,88.8333 238.5,86.5C 240.749,85.9202 242.415,84.5869 243.5,82.5C 245.181,80.9925 247.181,79.9925 249.5,79.5C 251.898,79.7406 253.898,79.0739 255.5,77.5C 263.668,75.992 271.668,76.3253 279.5,78.5 Z M 292.5,128.5 C 292.167,128.5 291.833,128.5 291.5,128.5C 291.371,130.216 291.038,131.883 290.5,133.5C 289.094,133.973 288.427,134.973 288.5,136.5C 286.167,138.167 284.167,140.167 282.5,142.5C 280.566,143.11 278.899,144.11 277.5,145.5C 275.5,145.833 273.5,146.167 271.5,146.5C 271.873,143.426 272.539,140.426 273.5,137.5C 274.167,137.5 274.5,137.167 274.5,136.5C 275.906,136.027 276.573,135.027 276.5,133.5C 279.571,131.102 282.905,129.102 286.5,127.5C 287.817,127.179 289.151,126.846 290.5,126.5C 291.713,126.747 292.38,127.414 292.5,128.5 Z M 242.5,126.5 C 243.93,127.537 245.597,128.204 247.5,128.5C 247.833,128.5 248.167,128.5 248.5,128.5C 249.262,130.262 250.596,131.262 252.5,131.5C 254.177,133.54 255.844,135.54 257.5,137.5C 258.199,140.573 259.199,143.573 260.5,146.5C 260.376,147.107 260.043,147.44 259.5,147.5C 257.786,146.262 255.786,145.595 253.5,145.5C 252.035,144.263 250.368,143.263 248.5,142.5C 246.833,140.167 244.833,138.167 242.5,136.5C 242.672,135.508 242.338,134.842 241.5,134.5C 241.573,132.973 240.906,131.973 239.5,131.5C 239.5,131.167 239.5,130.833 239.5,130.5C 239.67,129.178 239.337,128.011 238.5,127C 239.793,126.51 241.127,126.343 242.5,126.5 Z M 251.5,119.5 C 252.5,119.5 253.5,119.5 254.5,119.5C 254.5,120.167 254.5,120.833 254.5,121.5C 253.833,121.5 253.167,121.5 252.5,121.5C 252.167,120.833 251.833,120.167 251.5,119.5 Z M 266.5,106.5 C 267.383,109.704 269.05,112.371 271.5,114.5C 272.585,116.587 274.251,117.92 276.5,118.5C 276.842,119.338 277.508,119.672 278.5,119.5C 278.5,120.167 278.5,120.833 278.5,121.5C 275.109,122.529 272.443,124.529 270.5,127.5C 269.094,127.973 268.427,128.973 268.5,130.5C 267.094,130.973 266.427,131.973 266.5,133.5C 266.5,133.833 266.5,134.167 266.5,134.5C 265.833,134.167 265.167,133.833 264.5,133.5C 264.672,132.508 264.338,131.842 263.5,131.5C 263.262,129.596 262.262,128.262 260.5,127.5C 260.5,125.5 259.5,124.5 257.5,124.5C 256.694,123.272 255.694,122.272 254.5,121.5C 255.833,120.833 255.833,120.167 254.5,119.5C 257.874,117.126 260.541,114.126 262.5,110.5C 263.397,109.402 264.23,109.402 265,110.5C 265.47,109.423 265.303,108.423 264.5,107.5C 265.167,107.167 265.833,106.833 266.5,106.5 Z M 272.5,92.5 C 275.167,93.5 277.833,94.5 280.5,95.5C 280.973,96.9063 281.973,97.573 283.5,97.5C 286.086,100.358 288.42,103.358 290.5,106.5C 290.796,108.403 291.463,110.07 292.5,111.5C 292.5,112.5 292.5,113.5 292.5,114.5C 288.155,114.163 284.155,112.829 280.5,110.5C 279.167,108.5 277.5,106.833 275.5,105.5C 275.573,103.973 274.906,102.973 273.5,102.5C 273.107,100.716 272.441,99.0495 271.5,97.5C 271.216,95.5853 271.549,93.9187 272.5,92.5 Z M 259.5,94.5 C 259.5,95.1667 259.5,95.8333 259.5,96.5C 258.542,98.3024 257.875,100.302 257.5,102.5C 256.662,102.842 256.328,103.508 256.5,104.5C 253.833,106.5 251.5,108.833 249.5,111.5C 246.828,112.501 244.162,113.501 241.5,114.5C 240.325,114.719 239.325,114.386 238.5,113.5C 239.309,111.929 239.643,110.262 239.5,108.5C 240.674,107.486 241.34,106.153 241.5,104.5C 243.262,103.738 244.262,102.404 244.5,100.5C 246.191,99.1363 247.858,97.803 249.5,96.5C 251.368,95.7368 253.035,94.7368 254.5,93.5C 255.93,93.5792 257.264,93.2458 258.5,92.5C 259.298,92.9569 259.631,93.6236 259.5,94.5 Z"/></g>
<g><path style="opacity:0.831" fill="#888888" d="M 248.5,142.5 C 250.368,143.263 252.035,144.263 253.5,145.5C 250.966,145.741 249.3,144.741 248.5,142.5 Z"/></g>
<g><path style="opacity:0.173" fill="#b5b5b5" d="M 273.5,137.5 C 272.539,140.426 271.873,143.426 271.5,146.5C 273.5,146.167 275.5,145.833 277.5,145.5C 276.22,146.931 274.553,147.598 272.5,147.5C 269.938,144.123 270.271,140.79 273.5,137.5 Z"/></g>
<g><path style="opacity:0.251" fill="#989898" d="M 257.5,137.5 C 260.348,140.705 261.348,144.372 260.5,148.5C 259.893,148.376 259.56,148.043 259.5,147.5C 260.043,147.44 260.376,147.107 260.5,146.5C 259.199,143.573 258.199,140.573 257.5,137.5 Z"/></g>
<g><path style="opacity:0.557" fill="#8d8d8d" d="M 288.5,136.5 C 287.5,139.5 285.5,141.5 282.5,142.5C 284.167,140.167 286.167,138.167 288.5,136.5 Z"/></g>
<g><path style="opacity:0.722" fill="#a2a2a2" d="M 242.5,136.5 C 244.833,138.167 246.833,140.167 248.5,142.5C 245.5,141.5 243.5,139.5 242.5,136.5 Z"/></g>
<g><path style="opacity:0.396" fill="#a6a8a7" d="M 290.5,133.5 C 290.573,135.027 289.906,136.027 288.5,136.5C 288.427,134.973 289.094,133.973 290.5,133.5 Z"/></g>
<g><path style="opacity:0.38" fill="#afafaf" d="M 264.5,133.5 C 265.167,133.833 265.833,134.167 266.5,134.5C 266.5,135.833 265.833,136.5 264.5,136.5C 264.5,135.5 264.5,134.5 264.5,133.5 Z"/></g>
<g><path style="opacity:0.008" fill="#d4d4d4" d="M 276.5,133.5 C 276.573,135.027 275.906,136.027 274.5,136.5C 274.427,134.973 275.094,133.973 276.5,133.5 Z"/></g>
<g><path style="opacity:0.184" fill="#bfbfbf" d="M 239.5,131.5 C 240.906,131.973 241.573,132.973 241.5,134.5C 240.094,134.027 239.427,133.027 239.5,131.5 Z"/></g>
<g><path style="opacity:0.161" fill="#b4b4b4" d="M 268.5,130.5 C 268.573,132.027 267.906,133.027 266.5,133.5C 266.427,131.973 267.094,130.973 268.5,130.5 Z"/></g>
<g><path style="opacity:0.471" fill="#919191" d="M 270.5,127.5 C 270.573,129.027 269.906,130.027 268.5,130.5C 268.427,128.973 269.094,127.973 270.5,127.5 Z"/></g>
<g><path style="opacity:0.573" fill="#919191" d="M 260.5,127.5 C 262.262,128.262 263.262,129.596 263.5,131.5C 261.738,130.738 260.738,129.404 260.5,127.5 Z"/></g>
<g><path style="opacity:0.475" fill="#a3a3a3" d="M 248.5,128.5 C 250.404,128.738 251.738,129.738 252.5,131.5C 250.596,131.262 249.262,130.262 248.5,128.5 Z"/></g>
<g><path style="opacity:0.663" fill="#999999" d="M 242.5,126.5 C 244.698,126.12 246.365,126.787 247.5,128.5C 245.597,128.204 243.93,127.537 242.5,126.5 Z"/></g>
<g><path style="opacity:0.212" fill="#c4c4c4" d="M 242.5,126.5 C 241.127,126.343 239.793,126.51 238.5,127C 239.337,128.011 239.67,129.178 239.5,130.5C 238.069,129.22 237.402,127.553 237.5,125.5C 239.415,125.216 241.081,125.549 242.5,126.5 Z"/></g>
<g><path style="opacity:0.075" fill="#c1c0c1" d="M 292.5,128.5 C 292.38,127.414 291.713,126.747 290.5,126.5C 289.151,126.846 287.817,127.179 286.5,127.5C 286.5,127.167 286.5,126.833 286.5,126.5C 288.717,125.631 291.05,125.298 293.5,125.5C 293.737,126.791 293.404,127.791 292.5,128.5 Z"/></g>
<g><path style="opacity:0.004" fill="#cecece" d="M 257.5,124.5 C 259.5,124.5 260.5,125.5 260.5,127.5C 259.167,126.833 258.167,125.833 257.5,124.5 Z"/></g>
<g><path style="opacity:0.306" fill="#a6a6a6" d="M 278.5,119.5 C 282.289,120.596 282.289,121.263 278.5,121.5C 278.5,120.833 278.5,120.167 278.5,119.5 Z"/></g>
<g><path style="opacity:0.365" fill="#a8a8a8" d="M 251.5,119.5 C 251.833,120.167 252.167,120.833 252.5,121.5C 251.5,121.5 250.5,121.5 249.5,121.5C 249.5,120.167 250.167,119.5 251.5,119.5 Z"/></g>
<g><path style="opacity:0.675" fill="#9e9e9e" d="M 271.5,114.5 C 273.749,115.08 275.415,116.413 276.5,118.5C 274.251,117.92 272.585,116.587 271.5,114.5 Z"/></g>
<g><path style="opacity:0.11" fill="#cfcfcf" d="M 239.5,108.5 C 239.643,110.262 239.309,111.929 238.5,113.5C 239.325,114.386 240.325,114.719 241.5,114.5C 241.5,114.833 241.5,115.167 241.5,115.5C 240.167,115.5 238.833,115.5 237.5,115.5C 237.41,112.848 238.076,110.515 239.5,108.5 Z"/></g>
<g><path style="opacity:0.525" fill="#979797" d="M 290.5,106.5 C 292.213,107.635 292.88,109.302 292.5,111.5C 291.463,110.07 290.796,108.403 290.5,106.5 Z"/></g>
<g><path style="opacity:0.009" fill="#dcdcdc" d="M 264.5,107.5 C 265.303,108.423 265.47,109.423 265,110.5C 264.23,109.402 263.397,109.402 262.5,110.5C 262.427,108.973 263.094,107.973 264.5,107.5 Z"/></g>
<g><path style="opacity:0.498" fill="#959595" d="M 256.5,104.5 C 255.167,107.833 252.833,110.167 249.5,111.5C 251.5,108.833 253.833,106.5 256.5,104.5 Z"/></g>
<g><path style="opacity:0.647" fill="#9f9f9f" d="M 275.5,105.5 C 277.5,106.833 279.167,108.5 280.5,110.5C 277.833,109.833 276.167,108.167 275.5,105.5 Z"/></g>
<g><path style="opacity:0.227" fill="#c0c0c0" d="M 273.5,102.5 C 274.906,102.973 275.573,103.973 275.5,105.5C 274.094,105.027 273.427,104.027 273.5,102.5 Z"/></g>
<g><path style="opacity:0.282" fill="#b0b0b0" d="M 266.5,106.5 C 265.833,106.833 265.167,107.167 264.5,107.5C 264.238,106.022 264.571,104.689 265.5,103.5C 266.386,104.325 266.719,105.325 266.5,106.5 Z"/></g>
<g><path style="opacity:0.004" fill="#c8c8c8" d="M 244.5,100.5 C 244.262,102.404 243.262,103.738 241.5,104.5C 241.738,102.596 242.738,101.262 244.5,100.5 Z"/></g>
<g><path style="opacity:0.831" fill="#7f7f7f" d="M 259.5,96.5 C 259.946,99.0101 259.28,101.01 257.5,102.5C 257.875,100.302 258.542,98.3024 259.5,96.5 Z"/></g>
<g><path style="opacity:0.427" fill="#9b9b9b" d="M 280.5,95.5 C 282.027,95.427 283.027,96.0937 283.5,97.5C 281.973,97.573 280.973,96.9063 280.5,95.5 Z"/></g>
<g><path style="opacity:0.978" fill="#6a6a6a" d="M 254.5,93.5 C 253.035,94.7368 251.368,95.7368 249.5,96.5C 249.5,95.5 249.5,94.5 249.5,93.5C 251.167,93.5 252.833,93.5 254.5,93.5 Z"/></g>
<g><path style="opacity:0.059" fill="#cacaca" d="M 271.5,91.5 C 272.167,91.5 272.5,91.8333 272.5,92.5C 271.549,93.9187 271.216,95.5853 271.5,97.5C 270.167,95.5 270.167,93.5 271.5,91.5 Z"/></g>
<g><path style="opacity:0.224" fill="#b3b3b3" d="M 259.5,91.5 C 260.833,92.5 260.833,93.5 259.5,94.5C 259.631,93.6236 259.298,92.9569 258.5,92.5C 257.264,93.2458 255.93,93.5792 254.5,93.5C 255.78,92.0687 257.447,91.4021 259.5,91.5 Z"/></g>
<g><path style="opacity:0.024" fill="#b6b6b6" d="M 229.5,143.5 C 230.906,143.973 231.573,144.973 231.5,146.5C 230.094,146.027 229.427,145.027 229.5,143.5 Z"/></g>
<g><path style="opacity:0.996" fill="#646464" d="M 282.5,142.5 C 281.656,144.759 279.989,145.759 277.5,145.5C 278.899,144.11 280.566,143.11 282.5,142.5 Z"/></g>
<g><path style="opacity:0.986" fill="#6b6e6f" d="M 299.5,145.5 C 298.527,148.135 296.86,150.135 294.5,151.5C 295.301,149.958 295.634,148.292 295.5,146.5C 296.959,146.567 298.292,146.234 299.5,145.5 Z"/></g>
<g><path style="opacity:0.991" fill="#252525" d="M 197.5,158.5 C 183.118,158.8 168.785,158.466 154.5,157.5C 154.107,154.487 154.774,151.82 156.5,149.5C 169.327,148.34 182.327,148.173 195.5,149C 199.213,150.691 200.379,153.525 199,157.5C 198.617,158.056 198.117,158.389 197.5,158.5 Z"/></g>
<g><path style="opacity:0.012" fill="#c4c4c4" d="M 233.5,148.5 C 235.167,149.5 236.5,150.833 237.5,152.5C 235.167,152.167 233.833,150.833 233.5,148.5 Z"/></g>
<g><path style="opacity:0.996" fill="#212121" d="M 369.5,149.5 C 370.5,150.5 371.5,151.5 372.5,152.5C 372.5,153.833 372.5,155.167 372.5,156.5C 371.5,156.833 370.833,157.5 370.5,158.5C 358.829,158.667 347.162,158.5 335.5,158C 332.899,155.17 332.899,152.337 335.5,149.5C 346.833,148.167 358.167,148.167 369.5,149.5 Z"/></g>
<g><path style="opacity:0.055" fill="#cfcfcf" d="M 369.5,149.5 C 370.5,149.5 371.5,149.5 372.5,149.5C 372.5,150.5 372.5,151.5 372.5,152.5C 371.5,151.5 370.5,150.5 369.5,149.5 Z"/></g>
<g><path style="opacity:0.816" fill="#828282" d="M 237.5,152.5 C 239.749,153.08 241.415,154.413 242.5,156.5C 240.251,155.92 238.585,154.587 237.5,152.5 Z"/></g>
<g><path style="opacity:0.012" fill="#cfcfce" d="M 294.5,151.5 C 294.5,152.833 293.833,153.5 292.5,153.5C 292.833,152.5 293.5,151.833 294.5,151.5 Z"/></g>
<g><path style="opacity:0.682" fill="#9a9a9a" d="M 156.5,149.5 C 154.774,151.82 154.107,154.487 154.5,157.5C 152.119,155.476 151.952,153.143 154,150.5C 154.671,149.748 155.504,149.414 156.5,149.5 Z"/></g>
<g><path style="opacity:0.094" fill="#eeeeee" d="M 372.5,152.5 C 374.781,153.634 374.781,154.968 372.5,156.5C 372.5,155.167 372.5,153.833 372.5,152.5 Z"/></g>
<g><path style="opacity:0.984" fill="#4b4b4b" d="M 254.5,161.5 C 251.351,161.585 248.684,160.585 246.5,158.5C 248.512,157.986 250.512,157.82 252.5,158C 251.952,159.596 252.618,160.763 254.5,161.5 Z"/></g>
<g><path style="opacity:0.251" fill="#c5c5c5" d="M 287.5,157.5 C 284.63,159.794 281.297,161.128 277.5,161.5C 277.5,161.167 277.5,160.833 277.5,160.5C 280.844,159.492 284.177,158.492 287.5,157.5 Z"/></g>
<g><path style="opacity:0.012" fill="#e2e2e2" d="M 372.5,156.5 C 372.5,157.833 371.833,158.5 370.5,158.5C 370.833,157.5 371.5,156.833 372.5,156.5 Z"/></g>
<g><path style="opacity:0.591" fill="#939393" d="M 154.5,157.5 C 168.785,158.466 183.118,158.8 197.5,158.5C 196.737,159.268 195.737,159.768 194.5,160C 182.167,160.667 169.833,160.667 157.5,160C 156.058,159.623 155.058,158.79 154.5,157.5 Z"/></g>
<g><path style="opacity:0.561" fill="#959595" d="M 335.5,149.5 C 332.899,152.337 332.899,155.17 335.5,158C 347.162,158.5 358.829,158.667 370.5,158.5C 370.082,159.222 369.416,159.722 368.5,160C 357.833,160.667 347.167,160.667 336.5,160C 330.292,156.753 329.958,153.253 335.5,149.5 Z"/></g>
<g><path style="opacity:0.004" fill="#fefffe" d="M 337.5,162.5 C 338.251,161.427 339.251,161.26 340.5,162C 339.552,162.483 338.552,162.649 337.5,162.5 Z"/></g>
<g><path style="opacity:0.004" fill="#fefffe" d="M 362.5,162.5 C 364.035,161.212 365.701,161.212 367.5,162.5C 365.833,163.666 364.166,163.666 362.5,162.5 Z"/></g>
<g><path style="opacity:0.549" fill="#8d8d8b" d="M 223.5,160.5 C 222.833,161.833 221.833,162.833 220.5,163.5C 220.5,161.5 221.5,160.5 223.5,160.5 Z"/></g>
<g><path style="opacity:0.507" fill="#979796" d="M 183.5,167.5 C 174.553,166.556 165.553,166.222 156.5,166.5C 157.172,165.733 158.005,165.066 159,164.5C 159.971,165.198 161.137,165.198 162.5,164.5C 169.138,165.258 175.804,165.758 182.5,166C 183.056,166.383 183.389,166.883 183.5,167.5 Z"/></g>
<g><path style="opacity:0.999" fill="#1a1a1a" d="M 230.5,160.5 C 231.122,161.627 231.955,162.627 233,163.5C 233.499,167.152 233.665,170.818 233.5,174.5C 254.833,174.5 276.167,174.5 297.5,174.5C 297.5,170.833 297.5,167.167 297.5,163.5C 298.833,162.833 299.833,161.833 300.5,160.5C 301.449,159.848 302.615,159.514 304,159.5C 306.221,159.393 308.054,160.06 309.5,161.5C 310.791,168.154 310.791,174.82 309.5,181.5C 307.5,182.833 305.833,184.5 304.5,186.5C 302.214,186.595 300.214,187.262 298.5,188.5C 295.167,188.5 291.833,188.5 288.5,188.5C 287.095,199.784 286.429,211.117 286.5,222.5C 286.769,226.931 286.436,231.265 285.5,235.5C 283.468,247.937 282.468,260.603 282.5,273.5C 282.5,274.5 282.5,275.5 282.5,276.5C 280.783,279.845 280.116,283.511 280.5,287.5C 280.5,290.5 280.5,293.5 280.5,296.5C 280.5,296.833 280.5,297.167 280.5,297.5C 279.544,303.816 278.211,310.149 276.5,316.5C 276.5,316.833 276.5,317.167 276.5,317.5C 275.29,317.932 274.29,318.599 273.5,319.5C 271.85,325.938 270.85,332.605 270.5,339.5C 269.5,339.833 268.833,340.5 268.5,341.5C 266.097,341.552 263.764,341.219 261.5,340.5C 261.414,339.504 261.748,338.671 262.5,338C 260.882,331.935 259.882,325.769 259.5,319.5C 257.847,319.34 256.514,318.674 255.5,317.5C 254.89,315.566 253.89,313.899 252.5,312.5C 251.566,311.432 251.232,310.099 251.5,308.5C 251.279,291.264 249.946,274.264 247.5,257.5C 246.586,254.272 246.253,250.939 246.5,247.5C 246.664,240.798 246.331,234.131 245.5,227.5C 245.556,222.269 244.889,217.269 243.5,212.5C 242.608,207.562 242.274,202.562 242.5,197.5C 242.5,194.5 242.5,191.5 242.5,188.5C 239.167,188.5 235.833,188.5 232.5,188.5C 230.901,188.768 229.568,188.434 228.5,187.5C 228.027,186.094 227.027,185.427 225.5,185.5C 224.598,183.659 223.264,182.326 221.5,181.5C 219.97,178.305 219.304,174.805 219.5,171C 219.503,168.31 219.836,165.81 220.5,163.5C 221.833,162.833 222.833,161.833 223.5,160.5C 225.833,159.167 228.167,159.167 230.5,160.5 Z M 274.5,196.5 C 268.833,196.5 263.167,196.5 257.5,196.5C 257.5,194.833 257.5,193.167 257.5,191.5C 262.87,189.621 268.537,188.955 274.5,189.5C 274.5,191.833 274.5,194.167 274.5,196.5 Z M 272.5,211.5 C 273.119,214.977 273.119,218.644 272.5,222.5C 267.833,222.5 263.167,222.5 258.5,222.5C 258.632,219.43 258.299,216.43 257.5,213.5C 257.435,213.062 257.601,212.728 258,212.5C 258.333,213.167 258.667,213.833 259,214.5C 260.822,212.955 262.989,212.288 265.5,212.5C 268.011,212.288 270.178,212.955 272,214.5C 272.483,213.552 272.649,212.552 272.5,211.5 Z"/></g>
<g><path style="opacity:0.4" fill="#a6a6a6" d="M 300.5,160.5 C 299.833,161.833 298.833,162.833 297.5,163.5C 297.5,161.5 298.5,160.5 300.5,160.5 Z"/></g>
<g><path style="opacity:0.878" fill="#646464" d="M 277.5,160.5 C 277.5,160.833 277.5,161.167 277.5,161.5C 269.732,164.133 262.066,164.133 254.5,161.5C 262.201,161.691 269.868,161.358 277.5,160.5 Z"/></g>
<g><path style="opacity:0.514" fill="#a0a09f" d="M 376.5,167.5 C 364.546,166.374 352.546,166.208 340.5,167C 339.627,168.045 338.627,168.878 337.5,169.5C 337.511,167.983 338.177,166.816 339.5,166C 342.167,165.667 344.833,165.333 347.5,165C 355.87,164.566 364.037,164.399 372,164.5C 373.878,165.053 375.378,166.053 376.5,167.5 Z"/></g>
<g><path style="opacity:0.388" fill="#afafaf" d="M 156.5,166.5 C 156.167,167.5 155.5,168.167 154.5,168.5C 154.5,167.167 155.167,166.5 156.5,166.5 Z"/></g>
<g><path style="opacity:0.988" fill="#1d1d1c" d="M 156.5,166.5 C 165.553,166.222 174.553,166.556 183.5,167.5C 184.152,168.449 184.486,169.615 184.5,171C 184.693,173.008 184.026,174.508 182.5,175.5C 173.114,175.78 163.78,175.447 154.5,174.5C 153.167,172.5 153.167,170.5 154.5,168.5C 155.5,168.167 156.167,167.5 156.5,166.5 Z"/></g>
<g><path style="opacity:0.004" fill="#fefffe" d="M 217.5,167.5 C 218.833,168.167 218.833,168.167 217.5,167.5 Z"/></g>
<g><path style="opacity:0.597" fill="#979797" d="M 309.5,161.5 C 310.966,162.347 311.8,163.68 312,165.5C 312.667,169.167 312.667,172.833 312,176.5C 311.626,178.491 310.793,180.158 309.5,181.5C 310.791,174.82 310.791,168.154 309.5,161.5 Z"/></g>
<g><path style="opacity:1" fill="#232322" d="M 376.5,167.5 C 377.15,169.435 377.483,171.435 377.5,173.5C 377.047,174.458 376.381,175.292 375.5,176C 363.5,176.667 351.5,176.667 339.5,176C 336.698,174.269 336.031,172.102 337.5,169.5C 338.627,168.878 339.627,168.045 340.5,167C 352.546,166.208 364.546,166.374 376.5,167.5 Z"/></g>
<g><path style="opacity:0.086" fill="#d4d4d4" d="M 376.5,167.5 C 377.947,168.134 378.613,169.301 378.5,171C 378.472,172.07 378.139,172.903 377.5,173.5C 377.483,171.435 377.15,169.435 376.5,167.5 Z"/></g>
<g><path style="opacity:0.307" fill="#a7a7a7" d="M 230.5,160.5 C 232.017,160.511 233.184,161.177 234,162.5C 234.499,166.152 234.665,169.818 234.5,173.5C 255.167,173.5 275.833,173.5 296.5,173.5C 296.187,169.958 296.521,166.625 297.5,163.5C 297.5,167.167 297.5,170.833 297.5,174.5C 276.167,174.5 254.833,174.5 233.5,174.5C 233.665,170.818 233.499,167.152 233,163.5C 231.955,162.627 231.122,161.627 230.5,160.5 Z"/></g>
<g><path style="opacity:0.004" fill="#fefffe" d="M 294.5,171.5 C 295.833,172.167 295.833,172.167 294.5,171.5 Z"/></g>
<g><path style="opacity:0.476" fill="#919191" d="M 154.5,174.5 C 163.78,175.447 173.114,175.78 182.5,175.5C 173.676,176.657 164.676,176.824 155.5,176C 154.944,175.617 154.611,175.117 154.5,174.5 Z"/></g>
<g><path style="opacity:0.004" fill="#fefffe" d="M 372.5,177.5 C 373.833,178.167 373.833,178.167 372.5,177.5 Z"/></g>
<g><path style="opacity:0.005" fill="#fefffe" d="M 356.5,181.5 C 359.304,180.362 362.304,180.195 365.5,181C 362.518,181.498 359.518,181.665 356.5,181.5 Z"/></g>
<g><path style="opacity:0.454" fill="#929292" d="M 370.5,183.5 C 358.117,183.206 345.783,183.54 333.5,184.5C 333.611,183.883 333.944,183.383 334.5,183C 346.674,182.174 358.674,182.34 370.5,183.5 Z"/></g>
<g><path style="opacity:0.997" fill="#212121" d="M 197.5,183.5 C 199.226,185.82 199.893,188.487 199.5,191.5C 199.5,192.167 199.167,192.5 198.5,192.5C 183.785,192.8 169.118,192.467 154.5,191.5C 153.378,189.712 153.211,187.712 154,185.5C 154.5,184.333 155.333,183.5 156.5,183C 170.34,182.173 184.006,182.339 197.5,183.5 Z"/></g>
<g><path style="opacity:0.482" fill="#959595" d="M 221.5,181.5 C 223.264,182.326 224.598,183.659 225.5,185.5C 223.29,185.106 221.957,183.773 221.5,181.5 Z"/></g>
<g><path style="opacity:0.047" fill="#c9c9c9" d="M 309.5,181.5 C 308.833,184.167 307.167,185.833 304.5,186.5C 305.833,184.5 307.5,182.833 309.5,181.5 Z"/></g>
<g><path style="opacity:0.997" fill="#2b2b2b" d="M 370.5,183.5 C 371.933,185.558 372.6,187.892 372.5,190.5C 371.5,190.833 370.833,191.5 370.5,192.5C 370.082,193.222 369.416,193.722 368.5,194C 357.424,194.809 346.424,194.642 335.5,193.5C 334.833,192.167 333.833,191.167 332.5,190.5C 332.517,188.435 332.85,186.435 333.5,184.5C 345.783,183.54 358.117,183.206 370.5,183.5 Z"/></g>
<g><path style="opacity:0.4" fill="#939393" d="M 225.5,185.5 C 227.027,185.427 228.027,186.094 228.5,187.5C 226.973,187.573 225.973,186.906 225.5,185.5 Z"/></g>
<g><path style="opacity:0.188" fill="#bdbdbd" d="M 333.5,184.5 C 332.85,186.435 332.517,188.435 332.5,190.5C 331.861,189.903 331.528,189.07 331.5,188C 331.387,186.301 332.053,185.134 333.5,184.5 Z"/></g>
<g><path style="opacity:0.435" fill="#bbbbbb" d="M 197.5,183.5 C 198.496,183.414 199.329,183.748 200,184.5C 201.535,187.269 201.368,189.602 199.5,191.5C 199.893,188.487 199.226,185.82 197.5,183.5 Z"/></g>
<g><path style="opacity:0.008" fill="#cacaca" d="M 304.5,186.5 C 302.898,188.074 300.898,188.741 298.5,188.5C 300.214,187.262 302.214,186.595 304.5,186.5 Z"/></g>
<g><path style="opacity:0.171" fill="#c1c1c1" d="M 370.5,183.5 C 373.449,185.265 374.115,187.598 372.5,190.5C 372.6,187.892 371.933,185.558 370.5,183.5 Z"/></g>
<g><path style="opacity:0.013" fill="#ebebeb" d="M 274.5,196.5 C 274.5,194.167 274.5,191.833 274.5,189.5C 268.537,188.955 262.87,189.621 257.5,191.5C 257.5,193.167 257.5,194.833 257.5,196.5C 255.96,194.162 255.294,191.495 255.5,188.5C 262.167,188.5 268.833,188.5 275.5,188.5C 275.806,191.385 275.473,194.052 274.5,196.5 Z M 274.5,196.5 C 268.833,196.5 263.167,196.5 257.5,196.5C 257.5,194.833 257.5,193.167 257.5,191.5C 262.87,189.621 268.537,188.955 274.5,189.5C 274.5,191.833 274.5,194.167 274.5,196.5 Z"/></g>
<g><path style="opacity:0.004" fill="#d0d0d0" d="M 372.5,190.5 C 372.5,191.833 371.833,192.5 370.5,192.5C 370.833,191.5 371.5,190.833 372.5,190.5 Z"/></g>
<g><path style="opacity:0.746" fill="#878787" d="M 154.5,191.5 C 169.118,192.467 183.785,192.8 198.5,192.5C 198.082,193.222 197.416,193.722 196.5,194C 184.799,194.23 173.132,194.397 161.5,194.5C 158.64,194.445 156.307,193.445 154.5,191.5 Z"/></g>
<g><path style="opacity:0.247" fill="#c9c9c9" d="M 332.5,190.5 C 333.833,191.167 334.833,192.167 335.5,193.5C 333.5,193.5 332.5,192.5 332.5,190.5 Z"/></g>
<g><path style="opacity:0.149" fill="#d1d1d1" d="M 232.5,188.5 C 235.833,188.5 239.167,188.5 242.5,188.5C 242.5,191.5 242.5,194.5 242.5,197.5C 241.527,195.052 241.194,192.385 241.5,189.5C 238.287,189.81 235.287,189.477 232.5,188.5 Z"/></g>
<g><path style="opacity:0.047" fill="#bebebe" d="M 298.5,188.5 C 296.107,189.21 293.607,189.877 291,190.5C 290.667,190.167 290.333,189.833 290,189.5C 289.1,200.678 287.933,211.678 286.5,222.5C 286.429,211.117 287.095,199.784 288.5,188.5C 291.833,188.5 295.167,188.5 298.5,188.5 Z"/></g>
<g><path style="opacity:0.737" fill="#5c5c5c" d="M 256.5,211.5 C 262.31,210.51 268.31,210.177 274.5,210.5C 274.628,214.881 274.295,219.215 273.5,223.5C 268.305,223.821 263.305,223.487 258.5,222.5C 263.167,222.5 267.833,222.5 272.5,222.5C 273.119,218.644 273.119,214.977 272.5,211.5C 267.167,211.5 261.833,211.5 256.5,211.5 Z"/></g>
<g><path style="opacity:0.237" fill="#bfbfbf" d="M 321.5,211.5 C 338.995,210.338 356.662,210.171 374.5,211C 375.056,211.383 375.389,211.883 375.5,212.5C 357.547,211.527 339.547,211.193 321.5,211.5 Z"/></g>
<g><path style="opacity:0.011" fill="#f8f8f8" d="M 256.5,211.5 C 261.833,211.5 267.167,211.5 272.5,211.5C 272.649,212.552 272.483,213.552 272,214.5C 270.178,212.955 268.011,212.288 265.5,212.5C 262.989,212.288 260.822,212.955 259,214.5C 258.667,213.833 258.333,213.167 258,212.5C 257.601,212.728 257.435,213.062 257.5,213.5C 256.662,213.158 256.328,212.492 256.5,211.5 Z"/></g>
<g><path style="opacity:0.052" fill="#ebebeb" d="M 142.5,118.5 C 141.167,193.5 141.167,268.5 142.5,343.5C 141.778,343.082 141.278,342.416 141,341.5C 140.333,267.833 140.333,194.167 141,120.5C 141.278,119.584 141.778,118.918 142.5,118.5 Z"/></g>
<g><path style="opacity:0.573" fill="#a2a2a2" d="M 321.5,211.5 C 320.5,212.833 319.5,214.167 318.5,215.5C 318.167,215.5 317.833,215.5 317.5,215.5C 317.833,213.167 319.167,211.833 321.5,211.5 Z"/></g>
<g><path style="opacity:0.997" fill="#1c1c1c" d="M 321.5,211.5 C 339.547,211.193 357.547,211.527 375.5,212.5C 376.5,212.833 377.167,213.5 377.5,214.5C 377.5,217.167 377.5,219.833 377.5,222.5C 377.167,223.5 376.5,224.167 375.5,224.5C 360.5,224.5 345.5,224.5 330.5,224.5C 330.5,229.5 330.5,234.5 330.5,239.5C 344.837,239.333 359.171,239.5 373.5,240C 374.984,240.662 376.317,241.496 377.5,242.5C 378.426,246.93 377.093,250.263 373.5,252.5C 356.167,253.833 338.833,253.833 321.5,252.5C 321.027,251.094 320.027,250.427 318.5,250.5C 318.5,238.833 318.5,227.167 318.5,215.5C 319.5,214.167 320.5,212.833 321.5,211.5 Z"/></g>
<g><path style="opacity:0.004" fill="#fefffe" d="M 378.5,213.5 C 379.833,214.167 379.833,214.167 378.5,213.5 Z"/></g>
<g><path style="opacity:0.365" fill="#a4a4a4" d="M 211.5,212.5 C 212.906,212.973 213.573,213.973 213.5,215.5C 212.094,215.027 211.427,214.027 211.5,212.5 Z"/></g>
<g><path style="opacity:0.682" fill="#959595" d="M 377.5,214.5 C 377.833,214.5 378.167,214.5 378.5,214.5C 380,217.461 379.667,220.128 377.5,222.5C 377.5,219.833 377.5,217.167 377.5,214.5 Z"/></g>
<g><path style="opacity:0.995" fill="#232323" d="M 211.5,212.5 C 211.427,214.027 212.094,215.027 213.5,215.5C 214.819,226.598 214.819,237.598 213.5,248.5C 212.292,249.234 210.959,249.567 209.5,249.5C 209.5,250.5 209.5,251.5 209.5,252.5C 192.338,253.662 175.005,253.829 157.5,253C 156.058,252.623 155.058,251.79 154.5,250.5C 153.781,248.236 153.448,245.903 153.5,243.5C 153.833,241.167 155.167,239.833 157.5,239.5C 171.833,239.5 186.167,239.5 200.5,239.5C 200.5,234.5 200.5,229.5 200.5,224.5C 185.119,224.802 169.785,224.469 154.5,223.5C 151.269,218.407 152.269,214.241 157.5,211C 174.833,210.333 192.167,210.333 209.5,211C 210.416,211.278 211.082,211.778 211.5,212.5 Z"/></g>
<g><path style="opacity:0.795" fill="#767676" d="M 317.5,215.5 C 317.833,215.5 318.167,215.5 318.5,215.5C 318.5,227.167 318.5,238.833 318.5,250.5C 317.732,249.737 317.232,248.737 317,247.5C 316.192,236.757 316.358,226.09 317.5,215.5 Z"/></g>
<g><path style="opacity:0.004" fill="#fefffe" d="M 197.5,226.5 C 198.833,227.167 198.833,227.167 197.5,226.5 Z"/></g>
<g><path style="opacity:0.392" fill="#979797" d="M 243.5,212.5 C 244.889,217.269 245.556,222.269 245.5,227.5C 245.167,227.5 244.833,227.5 244.5,227.5C 243.671,222.547 243.337,217.547 243.5,212.5 Z"/></g>
<g><path style="opacity:0.008" fill="#fefffe" d="M 332.5,226.5 C 333.833,227.167 333.833,227.167 332.5,226.5 Z"/></g>
<g><path style="opacity:0.369" fill="#ababab" d="M 375.5,224.5 C 361.01,225.496 346.343,225.829 331.5,225.5C 331.5,229.833 331.5,234.167 331.5,238.5C 345.837,238.333 360.171,238.5 374.5,239C 376.426,239.422 377.426,240.589 377.5,242.5C 376.317,241.496 374.984,240.662 373.5,240C 359.171,239.5 344.837,239.333 330.5,239.5C 330.5,234.5 330.5,229.5 330.5,224.5C 345.5,224.5 360.5,224.5 375.5,224.5 Z"/></g>
<g><path style="opacity:0.004" fill="#fefffe" d="M 332.5,236.5 C 333.833,237.167 333.833,237.167 332.5,236.5 Z"/></g>
<g><path style="opacity:0.285" fill="#a6a6a6" d="M 154.5,223.5 C 169.785,224.469 185.119,224.802 200.5,224.5C 200.5,229.5 200.5,234.5 200.5,239.5C 186.167,239.5 171.833,239.5 157.5,239.5C 171.323,238.504 185.323,238.171 199.5,238.5C 199.5,234.167 199.5,229.833 199.5,225.5C 184.83,225.667 170.163,225.5 155.5,225C 154.944,224.617 154.611,224.117 154.5,223.5 Z"/></g>
<g><path style="opacity:0.384" fill="#a6a6a6" d="M 244.5,227.5 C 244.833,227.5 245.167,227.5 245.5,227.5C 246.331,234.131 246.664,240.798 246.5,247.5C 245.485,241.013 244.818,234.346 244.5,227.5 Z"/></g>
<g><path style="opacity:0.714" fill="#8b8b8b" d="M 234.5,242.5 C 231.833,242.5 229.167,242.5 226.5,242.5C 229.119,240.028 231.786,240.028 234.5,242.5 Z"/></g>
<g><path style="opacity:0.686" fill="#8b8b8b" d="M 305.5,243.5 C 301.303,241.698 297.636,242.365 294.5,245.5C 295.385,242.342 297.552,240.675 301,240.5C 302.981,240.899 304.481,241.899 305.5,243.5 Z"/></g>
<g><path style="opacity:0.999" fill="#242424" d="M 305.5,243.5 C 306.167,243.5 306.5,243.833 306.5,244.5C 306.5,275.833 306.5,307.167 306.5,338.5C 306.5,339.167 306.167,339.5 305.5,339.5C 304.5,339.833 303.833,340.5 303.5,341.5C 301.5,342.833 299.5,342.833 297.5,341.5C 297.027,340.094 296.027,339.427 294.5,339.5C 293.732,338.737 293.232,337.737 293,336.5C 292.253,305.987 292.753,275.653 294.5,245.5C 297.636,242.365 301.303,241.698 305.5,243.5 Z"/></g>
<g><path style="opacity:0.305" fill="#b9b9b9" d="M 153.5,243.5 C 153.448,245.903 153.781,248.236 154.5,250.5C 153.007,249.688 152.34,248.355 152.5,246.5C 152.52,245.274 152.853,244.274 153.5,243.5 Z"/></g>
<g><path style="opacity:0.506" fill="#8a8a8a" d="M 234.5,242.5 C 235.906,242.973 236.573,243.973 236.5,245.5C 235.094,245.027 234.427,244.027 234.5,242.5 Z"/></g>
<g><path style="opacity:0.967" fill="#6e6e6e" d="M 213.5,248.5 C 213.167,250.833 211.833,252.167 209.5,252.5C 209.5,251.5 209.5,250.5 209.5,249.5C 210.959,249.567 212.292,249.234 213.5,248.5 Z"/></g>
<g><path style="opacity:0.302" fill="#b6b6b5" d="M 285.5,235.5 C 285.039,248.357 284.039,261.024 282.5,273.5C 282.468,260.603 283.468,247.937 285.5,235.5 Z"/></g>
<g><path style="opacity:0.016" fill="#bcbcbc" d="M 377.5,242.5 C 378.634,244.966 378.801,247.633 378,250.5C 376.89,252.037 375.39,252.703 373.5,252.5C 377.093,250.263 378.426,246.93 377.5,242.5 Z"/></g>
<g><path style="opacity:0.435" fill="#949494" d="M 318.5,250.5 C 320.027,250.427 321.027,251.094 321.5,252.5C 319.973,252.573 318.973,251.906 318.5,250.5 Z"/></g>
<g><path style="opacity:0.214" fill="#c5c5c5" d="M 306.5,244.5 C 307.17,273.569 307.837,302.736 308.5,332C 307.883,334.277 307.216,336.444 306.5,338.5C 306.5,307.167 306.5,275.833 306.5,244.5 Z"/></g>
<g><path style="opacity:0.048" fill="#e8e8e8" d="M 405.5,122.5 C 405.833,122.5 406.167,122.5 406.5,122.5C 407.375,137.279 407.708,151.779 407.5,166C 406.843,224.317 406.176,282.484 405.5,340.5C 405.5,267.833 405.5,195.167 405.5,122.5 Z"/></g>
<g><path style="opacity:0.998" fill="#1f1f1f" d="M 226.5,242.5 C 229.167,242.5 231.833,242.5 234.5,242.5C 234.427,244.027 235.094,245.027 236.5,245.5C 236.819,277.21 236.485,308.877 235.5,340.5C 235.158,341.338 234.492,341.672 233.5,341.5C 230.833,341.167 228.167,340.833 225.5,340.5C 225.217,339.711 224.717,339.044 224,338.5C 223.333,307.167 223.333,275.833 224,244.5C 224.708,243.619 225.542,242.953 226.5,242.5 Z"/></g>
<g><path style="opacity:0.2" fill="#b0b0b0" d="M 247.5,257.5 C 249.946,274.264 251.279,291.264 251.5,308.5C 249.572,291.693 248.239,274.693 247.5,257.5 Z"/></g>
<g><path style="opacity:0.385" fill="#a0a0a0" d="M 156.5,271.5 C 174.329,270.338 192.329,270.171 210.5,271C 211.056,271.383 211.389,271.883 211.5,272.5C 193.213,271.526 174.88,271.193 156.5,271.5 Z"/></g>
<g><path style="opacity:0.414" fill="#989898" d="M 374.5,271.5 C 356.12,271.193 337.787,271.526 319.5,272.5C 319.611,271.883 319.944,271.383 320.5,271C 338.671,270.171 356.671,270.338 374.5,271.5 Z"/></g>
<g><path style="opacity:0.247" fill="#c4c4c4" d="M 156.5,271.5 C 155.833,272.833 154.833,273.833 153.5,274.5C 153.5,272.5 154.5,271.5 156.5,271.5 Z"/></g>
<g><path style="opacity:0.998" fill="#1a1a1a" d="M 156.5,271.5 C 174.88,271.193 193.213,271.526 211.5,272.5C 212.906,272.973 213.573,273.973 213.5,275.5C 213.76,285.872 213.427,296.206 212.5,306.5C 211.391,306.557 210.391,306.89 209.5,307.5C 191.12,307.807 172.787,307.474 154.5,306.5C 153.662,306.158 153.328,305.492 153.5,304.5C 153.401,301.763 153.735,299.096 154.5,296.5C 169.785,295.531 185.119,295.198 200.5,295.5C 200.813,291.958 200.479,288.625 199.5,285.5C 185.163,285.667 170.829,285.5 156.5,285C 154.667,284.5 153.5,283.333 153,281.5C 152.204,278.961 152.371,276.628 153.5,274.5C 154.833,273.833 155.833,272.833 156.5,271.5 Z"/></g>
<g><path style="opacity:0.999" fill="#202020" d="M 374.5,271.5 C 375.492,271.328 376.158,271.662 376.5,272.5C 377.324,275.764 377.658,279.098 377.5,282.5C 376.044,284.836 373.878,286.169 371,286.5C 357.871,285.527 344.704,285.194 331.5,285.5C 330.521,288.625 330.187,291.958 330.5,295.5C 345.5,295.5 360.5,295.5 375.5,295.5C 375.833,296.5 376.5,297.167 377.5,297.5C 377.5,300.167 377.5,302.833 377.5,305.5C 376.5,305.833 375.833,306.5 375.5,307.5C 375.082,308.222 374.416,308.722 373.5,309C 355.995,309.829 338.662,309.662 321.5,308.5C 320.5,307.167 319.5,305.833 318.5,304.5C 318.5,294.167 318.5,283.833 318.5,273.5C 318.5,272.833 318.833,272.5 319.5,272.5C 337.787,271.526 356.12,271.193 374.5,271.5 Z"/></g>
<g><path style="opacity:0.729" fill="#919191" d="M 376.5,272.5 C 379.784,275.605 380.117,278.939 377.5,282.5C 377.658,279.098 377.324,275.764 376.5,272.5 Z"/></g>
<g><path style="opacity:0.797" fill="#757575" d="M 318.5,273.5 C 318.5,283.833 318.5,294.167 318.5,304.5C 318.167,304.5 317.833,304.5 317.5,304.5C 316.36,294.577 316.193,284.577 317,274.5C 317.383,273.944 317.883,273.611 318.5,273.5 Z"/></g>
<g><path style="opacity:0.004" fill="#fefffe" d="M 282.5,283.5 C 283.833,284.167 283.833,284.167 282.5,283.5 Z"/></g>
<g><path style="opacity:0.005" fill="#fefffe" d="M 159.5,287.5 C 160.251,286.427 161.251,286.26 162.5,287C 161.552,287.483 160.552,287.649 159.5,287.5 Z"/></g>
<g><path style="opacity:0.006" fill="#fefffe" d="M 179.5,287.5 C 185.645,286.51 191.978,286.177 198.5,286.5C 198.662,288.527 198.495,290.527 198,292.5C 197.506,290.866 197.34,289.199 197.5,287.5C 191.5,287.5 185.5,287.5 179.5,287.5 Z"/></g>
<g><path style="opacity:0.349" fill="#959595" d="M 282.5,276.5 C 282.058,280.154 281.724,283.821 281.5,287.5C 281.167,287.5 280.833,287.5 280.5,287.5C 280.116,283.511 280.783,279.845 282.5,276.5 Z"/></g>
<g><path style="opacity:0.01" fill="#fefffe" d="M 332.5,286.5 C 334.199,286.34 335.866,286.506 337.5,287C 335.152,287.11 333.652,288.277 333,290.5C 332.51,289.207 332.343,287.873 332.5,286.5 Z"/></g>
<g><path style="opacity:0.276" fill="#bababa" d="M 213.5,275.5 C 214.658,284.991 214.825,294.658 214,304.5C 213.722,305.416 213.222,306.082 212.5,306.5C 213.427,296.206 213.76,285.872 213.5,275.5 Z"/></g>
<g><path style="opacity:0.088" fill="#e4e4e4" d="M 280.5,287.5 C 280.833,287.5 281.167,287.5 281.5,287.5C 281.286,289.144 281.62,290.644 282.5,292C 281.901,293.622 281.234,295.122 280.5,296.5C 280.5,293.5 280.5,290.5 280.5,287.5 Z"/></g>
<g><path style="opacity:0.004" fill="#fefffe" d="M 332.5,291.5 C 333.833,292.167 333.833,292.167 332.5,291.5 Z"/></g>
<g><path style="opacity:0.712" fill="#838383" d="M 199.5,285.5 C 200.479,288.625 200.813,291.958 200.5,295.5C 185.119,295.198 169.785,295.531 154.5,296.5C 155.347,295.034 156.68,294.2 158.5,294C 172.163,293.5 185.829,293.333 199.5,293.5C 199.5,290.833 199.5,288.167 199.5,285.5 Z"/></g>
<g><path style="opacity:0.596" fill="#989898" d="M 331.5,285.5 C 331.5,288.167 331.5,290.833 331.5,293.5C 345.171,293.333 358.837,293.5 372.5,294C 373.737,294.232 374.737,294.732 375.5,295.5C 360.5,295.5 345.5,295.5 330.5,295.5C 330.187,291.958 330.521,288.625 331.5,285.5 Z"/></g>
<g><path style="opacity:0.004" fill="#c7c7c7" d="M 375.5,295.5 C 376.833,295.5 377.5,296.167 377.5,297.5C 376.5,297.167 375.833,296.5 375.5,295.5 Z"/></g>
<g><path style="opacity:0.332" fill="#afafaf" d="M 154.5,296.5 C 153.735,299.096 153.401,301.763 153.5,304.5C 152.848,303.551 152.514,302.385 152.5,301C 152.307,298.992 152.974,297.492 154.5,296.5 Z"/></g>
<g><path style="opacity:0.649" fill="#919191" d="M 377.5,297.5 C 380.167,300.167 380.167,302.833 377.5,305.5C 377.5,302.833 377.5,300.167 377.5,297.5 Z"/></g>
<g><path style="opacity:0.553" fill="#9c9c9c" d="M 236.5,245.5 C 238.425,275.649 238.925,305.982 238,336.5C 237.8,338.32 236.966,339.653 235.5,340.5C 236.485,308.877 236.819,277.21 236.5,245.5 Z"/></g>
<g><path style="opacity:0.008" fill="#cbcbcb" d="M 317.5,304.5 C 317.833,304.5 318.167,304.5 318.5,304.5C 319.5,305.833 320.5,307.167 321.5,308.5C 319.167,308.167 317.833,306.833 317.5,304.5 Z"/></g>
<g><path style="opacity:0.004" fill="#cdcdcd" d="M 377.5,305.5 C 377.5,306.833 376.833,307.5 375.5,307.5C 375.833,306.5 376.5,305.833 377.5,305.5 Z"/></g>
<g><path style="opacity:0.751" fill="#787878" d="M 154.5,306.5 C 172.787,307.474 191.12,307.807 209.5,307.5C 209.5,307.833 209.5,308.167 209.5,308.5C 208.833,308.5 208.5,308.833 208.5,309.5C 191.497,309.667 174.497,309.5 157.5,309C 156.058,308.623 155.058,307.79 154.5,306.5 Z"/></g>
<g><path style="opacity:0.012" fill="#e2e2e2" d="M 212.5,306.5 C 212.027,307.906 211.027,308.573 209.5,308.5C 209.5,308.167 209.5,307.833 209.5,307.5C 210.391,306.89 211.391,306.557 212.5,306.5 Z"/></g>
<g><path style="opacity:0.004" fill="#fefffe" d="M 208.5,309.5 C 209.833,310.167 209.833,310.167 208.5,309.5 Z"/></g>
<g><path style="opacity:0.243" fill="#acacac" d="M 252.5,312.5 C 253.89,313.899 254.89,315.566 255.5,317.5C 253.273,316.599 252.273,314.933 252.5,312.5 Z"/></g>
<g><path style="opacity:0.22" fill="#b9b9b9" d="M 280.5,297.5 C 280.666,301.514 280.499,305.514 280,309.5C 279.861,312.445 278.694,314.779 276.5,316.5C 278.211,310.149 279.544,303.816 280.5,297.5 Z"/></g>
<g><path style="opacity:0.008" fill="#fefffe" d="M 276.5,317.5 C 277.833,318.167 277.833,318.167 276.5,317.5 Z"/></g>
<g><path style="opacity:0.644" fill="#8b8b8b" d="M 259.5,319.5 C 259.882,325.769 260.882,331.935 262.5,338C 261.748,338.671 261.414,339.504 261.5,340.5C 260.833,340.167 260.167,339.833 259.5,339.5C 258.167,332.833 258.167,326.167 259.5,319.5 Z"/></g>
<g><path style="opacity:0.012" fill="#fefffe" d="M 273.5,319.5 C 274.833,320.167 274.833,320.167 273.5,319.5 Z"/></g>
<g><path style="opacity:0.008" fill="#fefffe" d="M 273.5,320.5 C 272.833,321.167 272.833,321.167 273.5,320.5 Z"/></g>
<g><path style="opacity:0.667" fill="#919191" d="M 157.5,325.5 C 156.5,327.167 155.167,328.5 153.5,329.5C 153.833,327.167 155.167,325.833 157.5,325.5 Z"/></g>
<g><path style="opacity:1" fill="#242424" d="M 211.5,326.5 C 211.427,328.027 212.094,329.027 213.5,329.5C 213.793,332.754 213.126,335.754 211.5,338.5C 192.454,338.808 173.454,338.475 154.5,337.5C 152.416,335.007 152.083,332.34 153.5,329.5C 155.167,328.5 156.5,327.167 157.5,325.5C 174.426,324.349 191.426,324.182 208.5,325C 209.737,325.232 210.737,325.732 211.5,326.5 Z"/></g>
<g><path style="opacity:1" fill="#212121" d="M 375.5,326.5 C 377.178,329.552 377.845,332.885 377.5,336.5C 376.5,336.833 375.833,337.5 375.5,338.5C 356.454,338.808 337.454,338.475 318.5,337.5C 317.735,334.904 317.401,332.237 317.5,329.5C 318.024,326.812 319.691,325.312 322.5,325C 339.167,324.333 355.833,324.333 372.5,325C 373.737,325.232 374.737,325.732 375.5,326.5 Z"/></g>
<g><path style="opacity:0.482" fill="#8f8f8f" d="M 211.5,326.5 C 212.906,326.973 213.573,327.973 213.5,329.5C 212.094,329.027 211.427,328.027 211.5,326.5 Z"/></g>
<g><path style="opacity:0.175" fill="#d8d8d8" d="M 317.5,329.5 C 317.401,332.237 317.735,334.904 318.5,337.5C 316.974,336.508 316.307,335.008 316.5,333C 316.514,331.615 316.848,330.449 317.5,329.5 Z"/></g>
<g><path style="opacity:0.373" fill="#bdbdbd" d="M 213.5,329.5 C 214.629,331.628 214.796,333.961 214,336.5C 213.583,337.756 212.75,338.423 211.5,338.5C 213.126,335.754 213.793,332.754 213.5,329.5 Z"/></g>
<g><path style="opacity:0.576" fill="#8f8f8f" d="M 375.5,326.5 C 378.921,329.098 379.921,332.431 378.5,336.5C 378.167,336.5 377.833,336.5 377.5,336.5C 377.845,332.885 377.178,329.552 375.5,326.5 Z"/></g>
<g><path style="opacity:0.004" fill="#fefffe" d="M 378.5,336.5 C 379.833,337.167 379.833,337.167 378.5,336.5 Z"/></g>
<g><path style="opacity:0.012" fill="#c9c9c9" d="M 377.5,336.5 C 377.5,337.833 376.833,338.5 375.5,338.5C 375.833,337.5 376.5,336.833 377.5,336.5 Z"/></g>
<g><path style="opacity:0.612" fill="#8a8a8a" d="M 154.5,337.5 C 173.454,338.475 192.454,338.808 211.5,338.5C 210.469,339.249 209.302,339.915 208,340.5C 193.128,339.713 177.961,339.713 162.5,340.5C 159.174,340.927 156.508,339.927 154.5,337.5 Z"/></g>
<g><path style="opacity:0.58" fill="#959595" d="M 318.5,337.5 C 337.454,338.475 356.454,338.808 375.5,338.5C 374.088,339.533 372.422,340.199 370.5,340.5C 357.295,339.72 343.628,339.72 329.5,340.5C 326.833,340.333 324.167,340.167 321.5,340C 320.058,339.623 319.058,338.79 318.5,337.5 Z"/></g>
<g><path style="opacity:0.004" fill="#fefffe" d="M 259.5,339.5 C 258.833,340.167 258.833,340.167 259.5,339.5 Z"/></g>
<g><path style="opacity:0.004" fill="#e0e0e0" d="M 270.5,339.5 C 270.869,341.993 270.203,342.66 268.5,341.5C 268.833,340.5 269.5,339.833 270.5,339.5 Z"/></g>
<g><path style="opacity:0.522" fill="#8b8b8b" d="M 294.5,339.5 C 296.027,339.427 297.027,340.094 297.5,341.5C 295.973,341.573 294.973,340.906 294.5,339.5 Z"/></g>
<g><path style="opacity:0.016" fill="#d1d1d1" d="M 305.5,339.5 C 305.5,340.833 304.833,341.5 303.5,341.5C 303.833,340.5 304.5,339.833 305.5,339.5 Z"/></g>
<g><path style="opacity:0.459" fill="#949494" d="M 225.5,340.5 C 228.167,340.833 230.833,341.167 233.5,341.5C 230.66,342.917 227.993,342.584 225.5,340.5 Z"/></g>
<g><path style="opacity:0.004" fill="#fefffe" d="M 261.5,341.5 C 260.833,342.167 260.833,342.167 261.5,341.5 Z"/></g>
<g><path style="opacity:0.404" fill="#b1b1b1" d="M 261.5,341.5 C 261.5,341.167 261.5,340.833 261.5,340.5C 263.764,341.219 266.097,341.552 268.5,341.5C 266.274,342.756 263.941,342.756 261.5,341.5 Z"/></g>
<g><path style="opacity:0.82" fill="#828282" d="M 390.5,340.5 C 390.88,342.698 390.213,344.365 388.5,345.5C 388.796,343.597 389.463,341.93 390.5,340.5 Z"/></g>
<g><path style="opacity:0.965" fill="#686868" d="M 126.5,343.5 C 129.295,344.358 129.962,346.358 128.5,349.5C 127.262,347.786 126.595,345.786 126.5,343.5 Z"/></g>
<g><path style="opacity:0.004" fill="#c3c5c3" d="M 405.5,341.5 C 405.5,342.833 405.5,344.167 405.5,345.5C 404.433,347.964 403.1,350.297 401.5,352.5C 402.459,348.617 403.792,344.95 405.5,341.5 Z"/></g>
<g><path style="opacity:0.004" fill="#fefffe" d="M 405.5,345.5 C 406.833,346.167 406.833,346.167 405.5,345.5 Z"/></g>
<g><path style="opacity:0.506" fill="#b1b1b1" d="M 143.5,345.5 C 144.906,345.973 145.573,346.973 145.5,348.5C 144.094,348.027 143.427,347.027 143.5,345.5 Z"/></g>
<g><path style="opacity:0.502" fill="#999999" d="M 388.5,345.5 C 387.5,348.5 385.5,350.5 382.5,351.5C 384.167,349.167 386.167,347.167 388.5,345.5 Z"/></g>
<g><path style="opacity:1" fill="#181818" d="M 149.5,351.5 C 150.995,351.989 152.329,352.655 153.5,353.5C 227.665,354.499 301.998,354.833 376.5,354.5C 378.801,356.66 381.134,358.826 383.5,361C 380.833,361.667 380.833,362.333 383.5,363C 379.5,363.667 379.5,364.333 383.5,365C 382.748,365.671 382.414,366.504 382.5,367.5C 305.499,367.667 228.499,367.5 151.5,367C 150.975,366.308 150.308,365.808 149.5,365.5C 147.674,365.92 145.674,365.92 143.5,365.5C 143.5,365.167 143.5,364.833 143.5,364.5C 145.049,361.896 146.716,359.396 148.5,357C 147.216,356.316 146.049,356.483 145,357.5C 145.311,356.065 145.145,354.732 144.5,353.5C 145.85,352.05 147.516,351.383 149.5,351.5 Z"/></g>
<g><path style="opacity:0.796" fill="#929292" d="M 130.5,353.5 C 132.531,354.539 133.864,356.205 134.5,358.5C 132.457,357.421 131.124,355.754 130.5,353.5 Z"/></g>
<g><path style="opacity:0.07" fill="#e2e2e2" d="M 380.5,352.5 C 379.486,353.674 378.153,354.34 376.5,354.5C 301.998,354.833 227.665,354.499 153.5,353.5C 229.196,353.824 304.862,353.491 380.5,352.5 Z"/></g>
<g><path style="opacity:0.016" fill="#cbcbcb" d="M 398.5,356.5 C 398.573,358.027 397.906,359.027 396.5,359.5C 396.427,357.973 397.094,356.973 398.5,356.5 Z"/></g>
<g><path style="opacity:0.753" fill="#8c8c8c" d="M 134.5,358.5 C 137.089,359.419 139.089,361.086 140.5,363.5C 137.911,362.581 135.911,360.914 134.5,358.5 Z"/></g>
<g><path style="opacity:0.031" fill="#c2c3c2" d="M 396.5,359.5 C 395.738,361.262 394.404,362.262 392.5,362.5C 393.262,360.738 394.596,359.738 396.5,359.5 Z"/></g>
<g><path style="opacity:0.314" fill="#afafaf" d="M 140.5,363.5 C 141.609,363.557 142.609,363.89 143.5,364.5C 143.5,364.833 143.5,365.167 143.5,365.5C 141.973,365.573 140.973,364.906 140.5,363.5 Z"/></g>
<g><path style="opacity:0.169" fill="#bfbfbf" d="M 389.5,364.5 C 388.713,366.104 387.38,366.771 385.5,366.5C 386.514,365.326 387.847,364.66 389.5,364.5 Z"/></g>
<g><path style="opacity:0.873" fill="#616161" d="M 143.5,365.5 C 145.674,365.92 147.674,365.92 149.5,365.5C 150.308,365.808 150.975,366.308 151.5,367C 228.499,367.5 305.499,367.667 382.5,367.5C 381.391,368.29 380.058,368.79 378.5,369C 302.833,369.667 227.167,369.667 151.5,369C 148.524,368.295 145.858,367.129 143.5,365.5 Z"/></g>
</svg>
