<?xml version="1.0" encoding="UTF-8"?>
<!DOCTYPE svg PUBLIC "-//W3C//DTD SVG 1.1//EN" "http://www.w3.org/Graphics/SVG/1.1/DTD/svg11.dtd">
<svg xmlns="http://www.w3.org/2000/svg" version="1.1" width="368px" height="335px" style="shape-rendering:geometricPrecision; text-rendering:geometricPrecision; image-rendering:optimizeQuality; fill-rule:evenodd; clip-rule:evenodd" xmlns:xlink="http://www.w3.org/1999/xlink">
<g><path style="opacity:0.998" fill="#d5d5d6" d="M 110.5,61.5 C 112.39,61.2965 113.89,61.9632 115,63.5C 115.667,76.1667 115.667,88.8333 115,101.5C 112.237,104.288 109.903,103.955 108,100.5C 107.333,88.5 107.333,76.5 108,64.5C 108.698,63.3094 109.531,62.3094 110.5,61.5 Z"/></g>
<g><path style="opacity:1" fill="#e8e9e9" d="M 140.5,62.5 C 141.117,62.6107 141.617,62.944 142,63.5C 142.667,76.1667 142.667,88.8333 142,101.5C 139.701,104.106 137.534,104.106 135.5,101.5C 135.333,89.1622 135.5,76.8288 136,64.5C 137.33,63.4178 138.83,62.7512 140.5,62.5 Z"/></g>
<g><path style="opacity:1" fill="#dadbdb" d="M 220.5,61.5 C 222.17,61.7512 223.67,62.4178 225,63.5C 225.667,76.1667 225.667,88.8333 225,101.5C 222.53,103.731 220.197,103.731 218,101.5C 217.333,88.8333 217.333,76.1667 218,63.5C 218.995,62.9341 219.828,62.2674 220.5,61.5 Z"/></g>
<g><path style="opacity:0.998" fill="#e3e3e3" d="M 244.5,63.5 C 246.467,63.2606 248.301,63.5939 250,64.5C 250.5,76.8288 250.667,89.1622 250.5,101.5C 248.258,103.735 246.091,103.402 244,100.5C 243.188,88.0911 243.355,75.7577 244.5,63.5 Z"/></g>
<g><path style="opacity:0.867" fill="#a2a3a3" d="M 210.5,75.5 C 209.637,74.0597 209.637,72.7264 210.5,71.5C 189.844,70.5003 169.177,70.167 148.5,70.5C 148.918,69.7784 149.584,69.2784 150.5,69C 170.167,68.3333 189.833,68.3333 209.5,69C 212.784,70.948 213.118,73.1147 210.5,75.5 Z"/></g>
<g><path style="opacity:0.834" fill="#a7a9aa" d="M 267.5,70.5 C 264.5,70.5 261.5,70.5 258.5,70.5C 258.5,72.1667 258.5,73.8333 258.5,75.5C 262.22,75.5642 265.886,76.0642 269.5,77C 270.598,77.7697 270.598,78.603 269.5,79.5C 265.727,77.5757 261.727,76.2424 257.5,75.5C 256.233,73.6293 256.233,71.7959 257.5,70C 261.027,69.1925 264.36,69.3592 267.5,70.5 Z"/></g>
<g><path style="opacity:1" fill="#e8e8e9" d="M 148.5,70.5 C 169.177,70.167 189.844,70.5003 210.5,71.5C 209.637,72.7264 209.637,74.0597 210.5,75.5C 189.996,76.8281 169.329,76.8281 148.5,75.5C 147.265,73.6837 147.265,72.017 148.5,70.5 Z"/></g>
<g><path style="opacity:1" fill="#e9eaec" d="M 237.5,70.5 C 237.5,71.8333 237.5,73.1667 237.5,74.5C 235.5,74.5 233.5,74.5 231.5,74.5C 231.5,73.1667 231.5,71.8333 231.5,70.5C 233.5,67.8333 235.5,67.8333 237.5,70.5 Z"/></g>
<g><path style="opacity:0.448" fill="#909092" d="M 250.5,101.5 C 250.667,89.1622 250.5,76.8288 250,64.5C 248.301,63.5939 246.467,63.2606 244.5,63.5C 246.632,60.9629 248.799,60.9629 251,63.5C 251.827,76.3401 251.66,89.0067 250.5,101.5 Z"/></g>
<g><path style="opacity:1" fill="#d1d3d5" d="M 124.5,68.5 C 129.266,69.158 130.6,71.658 128.5,76C 122.906,77.9132 120.739,76.0798 122,70.5C 122.995,69.9341 123.828,69.2674 124.5,68.5 Z"/></g>
<g><path style="opacity:1" fill="#dddfe0" d="M 101.5,75.5 C 98.9899,75.0535 96.9899,75.7202 95.5,77.5C 93.6053,78.973 91.9387,80.6397 90.5,82.5C 90.853,80.3652 90.0197,79.0319 88,78.5C 86.0382,79.7615 84.5382,81.4281 83.5,83.5C 85.1733,73.151 91.1733,68.4844 101.5,69.5C 102.793,71.6365 102.793,73.6365 101.5,75.5 Z"/></g>
<g><path style="opacity:1" fill="#9fa0a2" d="M 231.5,70.5 C 231.5,71.8333 231.5,73.1667 231.5,74.5C 233.5,74.5 235.5,74.5 237.5,74.5C 237.5,73.1667 237.5,71.8333 237.5,70.5C 239.217,76.3281 237.05,77.9948 231,75.5C 230.22,73.6131 230.387,71.9464 231.5,70.5 Z"/></g>
<g><path style="opacity:0.416" fill="#747779" d="M 101.5,75.5 C 99.7857,76.7384 97.7857,77.405 95.5,77.5C 96.9899,75.7202 98.9899,75.0535 101.5,75.5 Z"/></g>
<g><path style="opacity:0.999" fill="#e2e3e3" d="M 267.5,70.5 C 268.93,70.4208 270.264,70.7542 271.5,71.5C 274.695,73.6965 276.695,76.6965 277.5,80.5C 277.667,134.168 277.5,187.834 277,241.5C 276.308,242.025 275.808,242.692 275.5,243.5C 276.309,245.071 276.643,246.738 276.5,248.5C 274.473,253.35 270.806,256.184 265.5,257C 209.167,257.667 152.833,257.667 96.5,257C 95.0993,256.59 93.766,256.09 92.5,255.5C 92.0269,254.094 91.0269,253.427 89.5,253.5C 85.9769,251.127 83.9769,247.793 83.5,243.5C 84.6779,244.662 85.8446,245.662 87,246.5C 88.683,245.113 89.8496,243.447 90.5,241.5C 91.4323,244.87 93.4323,247.37 96.5,249C 153.167,249.667 209.833,249.667 266.5,249C 267.373,247.955 268.373,247.122 269.5,246.5C 270.931,246.119 271.764,245.119 272,243.5C 272.667,189.833 272.667,136.167 272,82.5C 271.617,81.944 271.117,81.6107 270.5,81.5C 269.662,81.1583 269.328,80.4916 269.5,79.5C 270.598,78.603 270.598,77.7697 269.5,77C 265.886,76.0642 262.22,75.5642 258.5,75.5C 258.5,73.8333 258.5,72.1667 258.5,70.5C 261.5,70.5 264.5,70.5 267.5,70.5 Z"/></g>
<g><path style="opacity:0.995" fill="#d5d6d6" d="M 90.5,82.5 C 90.5,135.5 90.5,188.5 90.5,241.5C 89.8496,243.447 88.683,245.113 87,246.5C 85.8446,245.662 84.6779,244.662 83.5,243.5C 82.1705,190.137 82.1705,136.804 83.5,83.5C 84.5382,81.4281 86.0382,79.7615 88,78.5C 90.0197,79.0319 90.853,80.3652 90.5,82.5 Z"/></g>
<g><path style="opacity:0.313" fill="#6b6d6d" d="M 140.5,62.5 C 138.83,62.7512 137.33,63.4178 136,64.5C 135.5,76.8288 135.333,89.1622 135.5,101.5C 134.34,89.0067 134.173,76.3401 135,63.5C 136.79,61.7088 138.623,61.3754 140.5,62.5 Z"/></g>
<g><path style="opacity:1" fill="#dfe0e1" d="M 191.5,112.5 C 188.814,111.009 185.814,110.343 182.5,110.5C 179.473,110.287 176.807,110.953 174.5,112.5C 173.07,113.537 171.403,114.204 169.5,114.5C 167.973,114.427 166.973,115.094 166.5,116.5C 159.217,122.054 154.717,129.388 153,138.5C 151,141.167 149,141.167 147,138.5C 146.88,125.599 152.38,115.765 163.5,109C 182.051,100.064 198.218,103.23 212,118.5C 217.052,124.654 219.052,131.654 218,139.5C 215.733,140.935 213.733,140.602 212,138.5C 209.78,126.121 202.946,117.455 191.5,112.5 Z M 181.5,123.5 C 188.667,124.836 190.834,128.836 188,135.5C 184.656,139.091 181.156,139.258 177.5,136C 174.531,130.407 175.865,126.24 181.5,123.5 Z"/></g>
<g><path style="opacity:0.569" fill="#9a9b9e" d="M 191.5,112.5 C 185.833,111.167 180.167,111.167 174.5,112.5C 176.807,110.953 179.473,110.287 182.5,110.5C 185.814,110.343 188.814,111.009 191.5,112.5 Z"/></g>
<g><path style="opacity:0.004" fill="#3b3b3b" d="M 169.5,114.5 C 169.027,115.906 168.027,116.573 166.5,116.5C 166.973,115.094 167.973,114.427 169.5,114.5 Z"/></g>
<g><path style="opacity:0.999" fill="#e0e0e1" d="M 196.5,127.5 C 196.384,130.86 196.051,134.193 195.5,137.5C 191.663,144.734 185.663,147.234 177.5,145C 167.611,139.331 165.445,131.498 171,121.5C 177.204,115.954 184.038,115.12 191.5,119C 194.091,121.357 195.758,124.191 196.5,127.5 Z M 181.5,123.5 C 175.865,126.24 174.531,130.407 177.5,136C 181.156,139.258 184.656,139.091 188,135.5C 190.834,128.836 188.667,124.836 181.5,123.5 Z"/></g>
<g><path style="opacity:0.82" fill="#7b7b7e" d="M 127.5,127.5 C 126.5,127.5 125.5,127.5 124.5,127.5C 124.737,128.791 124.404,129.791 123.5,130.5C 123.275,128.284 124.108,126.617 126,125.5C 126.717,126.044 127.217,126.711 127.5,127.5 Z"/></g>
<g><path style="opacity:0.996" fill="#d9dadc" d="M 127.5,127.5 C 128.249,128.531 128.915,129.698 129.5,131C 134.796,132.438 134.796,133.605 129.5,134.5C 127.824,135.183 127.157,136.517 127.5,138.5C 126.432,139.434 125.099,139.768 123.5,139.5C 124.167,135.5 122.5,133.833 118.5,134.5C 118.746,131.53 120.412,130.197 123.5,130.5C 124.404,129.791 124.737,128.791 124.5,127.5C 125.5,127.5 126.5,127.5 127.5,127.5 Z"/></g>
<g><path style="opacity:0.989" fill="#cfd0d2" d="M 239.5,125.5 C 241.046,127.897 243.046,129.897 245.5,131.5C 246.386,132.325 246.719,133.325 246.5,134.5C 245.167,134.5 243.833,134.5 242.5,134.5C 241.062,140.968 239.062,141.134 236.5,135C 235.207,134.51 233.873,134.343 232.5,134.5C 232.5,133.5 232.5,132.5 232.5,131.5C 233.93,131.579 235.264,131.246 236.5,130.5C 237.32,128.681 238.32,127.014 239.5,125.5 Z"/></g>
<g><path style="opacity:0.6" fill="#78797b" d="M 196.5,127.5 C 197.865,130.959 197.531,134.292 195.5,137.5C 196.051,134.193 196.384,130.86 196.5,127.5 Z"/></g>
<g><path style="opacity:0.047" fill="#575759" d="M 129.5,134.5 C 129.011,135.995 128.345,137.329 127.5,138.5C 127.157,136.517 127.824,135.183 129.5,134.5 Z"/></g>
<g><path style="opacity:0.999" fill="#e4e5e5" d="M 164.5,144.5 C 165.833,144.5 167.167,144.5 168.5,144.5C 168.5,145.833 168.5,147.167 168.5,148.5C 168.334,155.175 168.5,161.842 169,168.5C 169.798,172.927 171.298,177.094 173.5,181C 179.5,181.667 185.5,181.667 191.5,181C 194.263,176.545 195.93,171.711 196.5,166.5C 197.776,159.982 197.776,153.315 196.5,146.5C 196.833,145.833 197.167,145.167 197.5,144.5C 199.071,145.309 200.738,145.643 202.5,145.5C 209.878,149.049 215.044,154.715 218,162.5C 219.724,171.014 219.891,179.514 218.5,188C 194.833,188.667 171.167,188.667 147.5,188C 142.814,173.839 145.48,161.172 155.5,150C 158.139,147.517 161.139,145.684 164.5,144.5 Z M 160.5,156.5 C 160.449,164.536 161.783,172.202 164.5,179.5C 163.5,180.167 162.5,180.833 161.5,181.5C 158.653,181.218 155.987,181.218 153.5,181.5C 152.52,178.914 152.187,176.247 152.5,173.5C 153.531,171.039 154.198,168.373 154.5,165.5C 156.265,162.291 158.265,159.291 160.5,156.5 Z M 205.5,156.5 C 205.427,158.027 206.094,159.027 207.5,159.5C 211.895,166.167 213.562,173.501 212.5,181.5C 208.445,181.824 204.445,181.491 200.5,180.5C 202.117,176.986 203.117,173.319 203.5,169.5C 204.167,165.167 204.833,160.833 205.5,156.5 Z"/></g>
<g><path style="opacity:0.357" fill="#606163" d="M 168.5,148.5 C 168.5,147.167 168.5,145.833 168.5,144.5C 167.167,144.5 165.833,144.5 164.5,144.5C 165.527,143.152 166.86,142.652 168.5,143C 169.807,144.943 169.807,146.777 168.5,148.5 Z"/></g>
<g><path style="opacity:0.998" fill="#d7d8d8" d="M 186.5,152.5 C 188.315,151.37 190.315,150.704 192.5,150.5C 193.822,154.566 193.822,158.733 192.5,163C 189.118,162.471 185.785,161.638 182.5,160.5C 179.476,160.518 176.81,161.518 174.5,163.5C 173.833,163.167 173.167,162.833 172.5,162.5C 171.202,158.285 171.202,154.118 172.5,150C 176.75,151.959 181.417,152.793 186.5,152.5 Z"/></g>
<g><path style="opacity:0.835" fill="#8d8e92" d="M 192.5,150.5 C 190.315,150.704 188.315,151.37 186.5,152.5C 187.92,149.651 189.92,148.984 192.5,150.5 Z"/></g>
<g><path style="opacity:0.561" fill="#959796" d="M 202.5,145.5 C 200.738,145.643 199.071,145.309 197.5,144.5C 197.167,145.167 196.833,145.833 196.5,146.5C 197.776,153.315 197.776,159.982 196.5,166.5C 196.372,158.809 196.206,151.142 196,143.5C 198.675,142.312 200.841,142.979 202.5,145.5 Z"/></g>
<g><path style="opacity:0.016" fill="#4e4e4e" d="M 205.5,156.5 C 206.906,156.973 207.573,157.973 207.5,159.5C 206.094,159.027 205.427,158.027 205.5,156.5 Z"/></g>
<g><path style="opacity:0.252" fill="#535456" d="M 205.5,156.5 C 204.833,160.833 204.167,165.167 203.5,169.5C 203.334,164.489 203.501,159.489 204,154.5C 204.717,155.044 205.217,155.711 205.5,156.5 Z"/></g>
<g><path style="opacity:0.99" fill="#c8c9cc" d="M 180.5,165.5 C 184.676,164.831 186.009,166.331 184.5,170C 183.207,170.49 181.873,170.657 180.5,170.5C 180.5,168.833 180.5,167.167 180.5,165.5 Z"/></g>
<g><path style="opacity:0.663" fill="#abacac" d="M 270.5,81.5 C 271.117,81.6107 271.617,81.944 272,82.5C 272.667,136.167 272.667,189.833 272,243.5C 271.764,245.119 270.931,246.119 269.5,246.5C 270.09,245.234 270.59,243.901 271,242.5C 271.82,188.805 271.654,135.138 270.5,81.5 Z"/></g>
<g><path style="opacity:0.541" fill="#6d7071" d="M 154.5,165.5 C 154.198,168.373 153.531,171.039 152.5,173.5C 152.111,170.447 152.777,167.78 154.5,165.5 Z"/></g>
<g><path style="opacity:1" fill="#c2c3c7" d="M 181.5,172.5 C 186.197,173.874 186.531,175.874 182.5,178.5C 180.261,176.867 179.928,174.867 181.5,172.5 Z"/></g>
<g><path style="opacity:0.09" fill="#3a3a3c" d="M 164.5,179.5 C 165.043,179.56 165.376,179.893 165.5,180.5C 164.311,181.429 162.978,181.762 161.5,181.5C 162.5,180.833 163.5,180.167 164.5,179.5 Z"/></g>
<g><path style="opacity:0.795" fill="#aeafb1" d="M 136.5,204.5 C 136.918,203.778 137.584,203.278 138.5,203C 136.167,202.333 133.833,202.333 131.5,203C 132.737,203.232 133.737,203.732 134.5,204.5C 133.167,204.5 131.833,204.5 130.5,204.5C 130.5,203.5 130.5,202.5 130.5,201.5C 133.833,201.5 137.167,201.5 140.5,201.5C 140.5,202.5 140.5,203.5 140.5,204.5C 139.167,204.5 137.833,204.5 136.5,204.5 Z"/></g>
<g><path style="opacity:0.812" fill="#a2a3a6" d="M 165.5,204.5 C 164.5,204.5 163.5,204.5 162.5,204.5C 162.5,203.5 162.5,202.5 162.5,201.5C 164.92,201.708 167.253,201.374 169.5,200.5C 171.111,201.32 171.778,202.654 171.5,204.5C 170.5,204.5 169.5,204.5 168.5,204.5C 168.5,207.5 168.5,210.5 168.5,213.5C 167.5,213.5 166.5,213.5 165.5,213.5C 165.5,210.5 165.5,207.5 165.5,204.5 Z"/></g>
<g><path style="opacity:0.765" fill="#9b9ca0" d="M 254.5,204.5 C 254.918,203.778 255.584,203.278 256.5,203C 251.627,202.249 250.294,202.416 252.5,203.5C 251.945,207.012 252.612,210.012 254.5,212.5C 253.791,213.404 252.791,213.737 251.5,213.5C 251.5,210.5 251.5,207.5 251.5,204.5C 250.5,204.5 249.5,204.5 248.5,204.5C 248.5,203.5 248.5,202.5 248.5,201.5C 251.898,201.18 255.232,201.513 258.5,202.5C 257.68,204.111 256.346,204.778 254.5,204.5 Z"/></g>
<g><path style="opacity:0.991" fill="#b2b4b5" d="M 136.5,204.5 C 137.555,207.073 137.722,209.739 137,212.5C 135.989,213.337 134.822,213.67 133.5,213.5C 133.368,210.43 133.701,207.43 134.5,204.5C 133.737,203.732 132.737,203.232 131.5,203C 133.833,202.333 136.167,202.333 138.5,203C 137.584,203.278 136.918,203.778 136.5,204.5 Z"/></g>
<g><path style="opacity:0.991" fill="#f9fafc" d="M 144.5,204.5 C 144.821,206.048 145.821,206.715 147.5,206.5C 146.9,207.9 145.9,208.9 144.5,209.5C 144.5,209.833 144.5,210.167 144.5,210.5C 145.609,211.29 146.942,211.79 148.5,212C 146.527,212.495 144.527,212.662 142.5,212.5C 142.5,209.167 142.5,205.833 142.5,202.5C 144.527,202.338 146.527,202.505 148.5,203C 146.942,203.21 145.609,203.71 144.5,204.5 Z"/></g>
<g><path style="opacity:0.992" fill="#cbcccf" d="M 152.5,201.5 C 156.013,200.876 158.847,201.876 161,204.5C 161.624,206.464 161.124,208.131 159.5,209.5C 162.798,213.002 162.131,214.169 157.5,213C 156.934,212.005 156.267,211.172 155.5,210.5C 154.849,211.091 154.182,211.757 153.5,212.5C 152.511,208.893 152.177,205.226 152.5,201.5 Z M 154.5,204.5 C 155.5,204.5 156.5,204.5 157.5,204.5C 156.754,208.31 155.754,208.31 154.5,204.5 Z"/></g>
<g><path style="opacity:0.987" fill="#fafbfc" d="M 165.5,204.5 C 165.082,203.778 164.416,203.278 163.5,203C 168.373,202.249 169.706,202.416 167.5,203.5C 167.665,206.518 167.498,209.518 167,212.5C 166.817,209.635 166.317,206.969 165.5,204.5 Z"/></g>
<g><path style="opacity:0.698" fill="#7d7e7f" d="M 220.5,203.5 C 220.44,202.957 220.107,202.624 219.5,202.5C 218.482,203.193 217.482,203.859 216.5,204.5C 217.163,201.577 218.83,200.91 221.5,202.5C 221.376,203.107 221.043,203.44 220.5,203.5 Z"/></g>
<g><path style="opacity:0.992" fill="#eff0f1" d="M 254.5,204.5 C 254.5,207.167 254.5,209.833 254.5,212.5C 252.612,210.012 251.945,207.012 252.5,203.5C 250.294,202.416 251.627,202.249 256.5,203C 255.584,203.278 254.918,203.778 254.5,204.5 Z"/></g>
<g><path style="opacity:0.996" fill="#e0e1e3" d="M 119.5,201.5 C 122.069,202.396 124.069,204.062 125.5,206.5C 126.001,204.345 127.001,202.678 128.5,201.5C 128.665,205.182 128.499,208.848 128,212.5C 127.329,211.748 126.496,211.414 125.5,211.5C 124.5,211.167 123.833,210.5 123.5,209.5C 123.217,208.711 122.717,208.044 122,207.5C 121.798,209.256 121.298,210.922 120.5,212.5C 119.511,208.893 119.177,205.226 119.5,201.5 Z"/></g>
<g><path style="opacity:0.965" fill="#f0f1f3" d="M 188.5,201.5 C 188.823,205.226 188.489,208.893 187.5,212.5C 186.548,210.955 186.215,209.288 186.5,207.5C 186.025,204.918 186.692,202.918 188.5,201.5 Z"/></g>
<g><path style="opacity:0.9" fill="#ecedef" d="M 225.5,201.5 C 226.833,201.5 228.167,201.5 229.5,201.5C 229.918,202.222 230.584,202.722 231.5,203C 230.207,203.49 228.873,203.657 227.5,203.5C 226.167,206.167 226.167,208.833 227.5,211.5C 229.167,211.5 230.833,211.5 232.5,211.5C 230.393,212.468 228.059,212.802 225.5,212.5C 225.5,208.833 225.5,205.167 225.5,201.5 Z"/></g>
<g><path style="opacity:0.967" fill="#ecedef" d="M 114.5,206.5 C 114.5,207.167 114.5,207.833 114.5,208.5C 113.167,208.5 111.833,208.5 110.5,208.5C 110.5,209.5 110.5,210.5 110.5,211.5C 111.873,211.343 113.207,211.51 114.5,212C 112.527,212.495 110.527,212.662 108.5,212.5C 108.5,209.167 108.5,205.833 108.5,202.5C 110.527,202.338 112.527,202.505 114.5,203C 113.207,203.49 111.873,203.657 110.5,203.5C 110.5,204.5 110.5,205.5 110.5,206.5C 111.833,206.5 113.167,206.5 114.5,206.5 Z"/></g>
<g><path style="opacity:0.388" fill="#6f7173" d="M 119.5,201.5 C 119.177,205.226 119.511,208.893 120.5,212.5C 121.298,210.922 121.798,209.256 122,207.5C 122.717,208.044 123.217,208.711 123.5,209.5C 122.566,210.568 122.232,211.901 122.5,213.5C 121.167,213.5 119.833,213.5 118.5,213.5C 118.183,209.298 118.517,205.298 119.5,201.5 Z"/></g>
<g><path style="opacity:0.988" fill="#b8b9bc" d="M 229.5,201.5 C 230.978,201.238 232.311,201.571 233.5,202.5C 232.176,203.935 230.51,204.935 228.5,205.5C 233.68,206.977 233.68,208.477 228.5,210C 230.058,210.21 231.391,210.71 232.5,211.5C 230.833,211.5 229.167,211.5 227.5,211.5C 226.167,208.833 226.167,206.167 227.5,203.5C 228.873,203.657 230.207,203.49 231.5,203C 230.584,202.722 229.918,202.222 229.5,201.5 Z"/></g>
<g><path style="opacity:0.974" fill="#b2b3b5" d="M 235.5,201.5 C 236.978,201.238 238.311,201.571 239.5,202.5C 242.656,208.028 243.99,207.695 243.5,201.5C 244.833,201.5 246.167,201.5 247.5,201.5C 247.5,205.5 247.5,209.5 247.5,213.5C 244.386,212.909 241.886,211.242 240,208.5C 239.506,210.134 239.34,211.801 239.5,213.5C 238.167,213.5 236.833,213.5 235.5,213.5C 235.5,209.5 235.5,205.5 235.5,201.5 Z"/></g>
<g><path style="opacity:0.986" fill="#cdced0" d="M 199.5,206.5 C 199.783,207.289 200.283,207.956 201,208.5C 201.497,206.19 201.663,203.857 201.5,201.5C 202.5,201.5 203.5,201.5 204.5,201.5C 204.5,205.5 204.5,209.5 204.5,213.5C 201.386,212.909 198.886,211.242 197,208.5C 196.506,210.134 196.34,211.801 196.5,213.5C 195.5,213.5 194.5,213.5 193.5,213.5C 193.5,209.5 193.5,205.5 193.5,201.5C 196.526,201.837 198.526,203.504 199.5,206.5 Z"/></g>
<g><path style="opacity:0.314" fill="#6b6c6e" d="M 201.5,201.5 C 201.663,203.857 201.497,206.19 201,208.5C 200.283,207.956 199.783,207.289 199.5,206.5C 200.167,204.833 200.833,203.167 201.5,201.5 Z"/></g>
<g><path style="opacity:0.955" fill="#d2d3d5" d="M 216.5,204.5 C 217.482,203.859 218.482,203.193 219.5,202.5C 220.107,202.624 220.44,202.957 220.5,203.5C 220.344,206.066 220.678,208.566 221.5,211C 220.968,213.02 219.635,213.853 217.5,213.5C 217.649,212.448 217.483,211.448 217,210.5C 215.311,213.133 213.811,213.133 212.5,210.5C 212.013,209.527 211.513,208.527 211,207.5C 209.577,213.903 208.743,213.569 208.5,206.5C 208.67,205.178 208.337,204.011 207.5,203C 208.108,202.13 208.941,201.63 210,201.5C 211.658,203.468 213.325,205.468 215,207.5C 215.513,206.473 216.013,205.473 216.5,204.5 Z"/></g>
<g><path style="opacity:0.73" fill="#919294" d="M 277.5,80.5 C 278.268,81.2625 278.768,82.2625 279,83.5C 279.667,136.833 279.667,190.167 279,243.5C 278.626,245.491 277.793,247.158 276.5,248.5C 276.643,246.738 276.309,245.071 275.5,243.5C 275.808,242.692 276.308,242.025 277,241.5C 277.5,187.834 277.667,134.168 277.5,80.5 Z"/></g>
<g><path style="opacity:0.304" fill="#76797b" d="M 128.5,201.5 C 129.483,205.298 129.817,209.298 129.5,213.5C 127.62,213.771 126.287,213.104 125.5,211.5C 126.496,211.414 127.329,211.748 128,212.5C 128.499,208.848 128.665,205.182 128.5,201.5 Z"/></g>
<g><path style="opacity:0.133" fill="#525257" d="M 147.5,206.5 C 148.404,207.209 148.737,208.209 148.5,209.5C 147.167,209.5 145.833,209.5 144.5,209.5C 145.9,208.9 146.9,207.9 147.5,206.5 Z"/></g>
<g><path style="opacity:0.086" fill="#444549" d="M 152.5,201.5 C 152.177,205.226 152.511,208.893 153.5,212.5C 154.182,211.757 154.849,211.091 155.5,210.5C 155.5,211.5 155.5,212.5 155.5,213.5C 154.167,213.5 152.833,213.5 151.5,213.5C 151.183,209.298 151.517,205.298 152.5,201.5 Z"/></g>
<g><path style="opacity:0.494" fill="#8a8b8e" d="M 114.5,206.5 C 113.167,206.5 111.833,206.5 110.5,206.5C 110.5,205.5 110.5,204.5 110.5,203.5C 111.873,203.657 113.207,203.49 114.5,203C 112.527,202.505 110.527,202.338 108.5,202.5C 108.5,205.833 108.5,209.167 108.5,212.5C 110.527,212.662 112.527,212.495 114.5,212C 113.207,211.51 111.873,211.343 110.5,211.5C 110.5,210.5 110.5,209.5 110.5,208.5C 111.833,208.5 113.167,208.5 114.5,208.5C 113.737,209.268 112.737,209.768 111.5,210C 112.793,210.49 114.127,210.657 115.5,210.5C 115.5,211.5 115.5,212.5 115.5,213.5C 112.833,213.5 110.167,213.5 107.5,213.5C 107.5,209.5 107.5,205.5 107.5,201.5C 110.167,201.5 112.833,201.5 115.5,201.5C 115.5,202.5 115.5,203.5 115.5,204.5C 114.127,204.343 112.793,204.51 111.5,205C 112.737,205.232 113.737,205.732 114.5,206.5 Z"/></g>
<g><path style="opacity:0.988" fill="#cbccce" d="M 176.5,201.5 C 177.5,201.5 178.5,201.5 179.5,201.5C 180.045,205.471 181.379,209.138 183.5,212.5C 182.833,212.833 182.167,213.167 181.5,213.5C 178.64,210.928 175.807,210.928 173,213.5C 172.5,213.167 172,212.833 171.5,212.5C 172.979,208.72 174.646,205.053 176.5,201.5 Z"/></g>
<g><path style="opacity:0.422" fill="#6b6c6e" d="M 188.5,201.5 C 189.483,205.298 189.817,209.298 189.5,213.5C 188.167,213.5 186.833,213.5 185.5,213.5C 185.205,211.265 185.539,209.265 186.5,207.5C 186.215,209.288 186.548,210.955 187.5,212.5C 188.489,208.893 188.823,205.226 188.5,201.5 Z"/></g>
<g><path style="opacity:0.322" fill="#5d6061" d="M 208.5,206.5 C 208.743,213.569 209.577,213.903 211,207.5C 211.513,208.527 212.013,209.527 212.5,210.5C 211.596,211.209 211.263,212.209 211.5,213.5C 210.167,213.5 208.833,213.5 207.5,213.5C 207.198,210.941 207.532,208.607 208.5,206.5 Z"/></g>
<g><path style="opacity:0.641" fill="#9fa0a4" d="M 144.5,204.5 C 145.609,203.71 146.942,203.21 148.5,203C 146.527,202.505 144.527,202.338 142.5,202.5C 142.5,205.833 142.5,209.167 142.5,212.5C 144.527,212.662 146.527,212.495 148.5,212C 146.942,211.79 145.609,211.29 144.5,210.5C 146.167,210.5 147.833,210.5 149.5,210.5C 149.5,211.5 149.5,212.5 149.5,213.5C 146.833,213.5 144.167,213.5 141.5,213.5C 141.5,209.5 141.5,205.5 141.5,201.5C 144.167,201.5 146.833,201.5 149.5,201.5C 149.5,202.5 149.5,203.5 149.5,204.5C 147.833,204.5 146.167,204.5 144.5,204.5 Z"/></g>
<g><path style="opacity:0.563" fill="#73747a" d="M 225.5,201.5 C 225.5,205.167 225.5,208.833 225.5,212.5C 228.059,212.802 230.393,212.468 232.5,211.5C 233.043,211.56 233.376,211.893 233.5,212.5C 230.572,213.484 227.572,213.817 224.5,213.5C 224.183,209.298 224.517,205.298 225.5,201.5 Z"/></g>
<g><path style="opacity:0.463" fill="#7d7d81" d="M 229.5,225.5 C 230.376,225.631 231.043,225.298 231.5,224.5C 228.914,223.52 226.247,223.187 223.5,223.5C 227.08,220.678 230.413,221.011 233.5,224.5C 232.426,226.534 231.093,226.867 229.5,225.5 Z"/></g>
<g><path style="opacity:0.502" fill="#77797b" d="M 139.5,222.5 C 137.167,222.5 134.833,222.5 132.5,222.5C 132.5,226.833 132.5,231.167 132.5,235.5C 134.167,235.5 135.833,235.5 137.5,235.5C 138.5,235.5 139.5,235.5 140.5,235.5C 137.713,236.477 134.713,236.81 131.5,236.5C 131.5,231.5 131.5,226.5 131.5,221.5C 134.385,221.194 137.052,221.527 139.5,222.5 Z"/></g>
<g><path style="opacity:0.991" fill="#c7c8ca" d="M 149.5,221.5 C 156.657,221.155 159.824,224.488 159,231.5C 155.171,237.703 150.838,238.036 146,232.5C 144.662,227.96 145.829,224.293 149.5,221.5 Z M 151.5,225.5 C 154.697,226.112 156.031,228.112 155.5,231.5C 149.747,232.677 148.414,230.677 151.5,225.5 Z"/></g>
<g><path style="opacity:0.918" fill="#babbbc" d="M 182.5,222.5 C 183.542,221.209 184.708,221.209 186,222.5C 185.637,227.397 186.804,227.23 189.5,222C 190.793,221.51 192.127,221.343 193.5,221.5C 192.618,224.385 191.284,227.052 189.5,229.5C 187.958,228.699 186.292,228.366 184.5,228.5C 184.975,225.918 184.308,223.918 182.5,222.5 Z"/></g>
<g><path style="opacity:0.247" fill="#5b5d5f" d="M 216.5,222.5 C 217.486,226.97 217.819,231.637 217.5,236.5C 216.209,236.737 215.209,236.404 214.5,235.5C 216.43,231.627 217.097,227.294 216.5,222.5 Z"/></g>
<g><path style="opacity:0.8" fill="#87888a" d="M 222.5,224.5 C 221.807,228.753 222.807,232.419 225.5,235.5C 220.288,232.985 219.288,229.318 222.5,224.5 Z"/></g>
<g><path style="opacity:0.987" fill="#bfc0c4" d="M 245.5,226.5 C 248.261,225.915 249.927,226.915 250.5,229.5C 248.253,234.722 245.92,234.722 243.5,229.5C 244.193,228.482 244.859,227.482 245.5,226.5 Z"/></g>
<g><path style="opacity:0.99" fill="#c4c4c8" d="M 115.5,226.5 C 121.016,226.473 122.349,228.64 119.5,233C 114.795,233.106 113.462,230.939 115.5,226.5 Z"/></g>
<g><path style="opacity:0.976" fill="#eef0f0" d="M 139.5,222.5 C 140.947,223.134 141.613,224.301 141.5,226C 141.472,227.07 141.139,227.903 140.5,228.5C 139.778,228.918 139.278,229.584 139,230.5C 138.802,228.618 138.302,226.952 137.5,225.5C 136.791,224.596 135.791,224.263 134.5,224.5C 134.5,225.833 134.5,227.167 134.5,228.5C 136.179,228.285 137.179,228.952 137.5,230.5C 136.833,230.5 136.167,230.5 135.5,230.5C 134.596,231.209 134.263,232.209 134.5,233.5C 136.527,233.338 138.527,233.505 140.5,234C 139.263,234.232 138.263,234.732 137.5,235.5C 135.833,235.5 134.167,235.5 132.5,235.5C 132.5,231.167 132.5,226.833 132.5,222.5C 134.833,222.5 137.167,222.5 139.5,222.5 Z M 137.5,225.5 C 137.361,227.337 136.694,227.67 135.5,226.5C 135.957,225.702 136.624,225.369 137.5,225.5 Z"/></g>
<g><path style="opacity:0.976" fill="#bdbec0" d="M 167.5,221.5 C 176.005,221.534 178.838,225.534 176,233.5C 170.879,237.875 166.545,237.209 163,231.5C 162.077,227.017 163.577,223.683 167.5,221.5 Z M 172.5,231.5 C 171.732,230.737 171.232,229.737 171,228.5C 169.383,229.539 168.217,230.539 167.5,231.5C 165.875,228.551 166.708,226.551 170,225.5C 173.292,226.551 174.125,228.551 172.5,231.5 Z"/></g>
<g><path style="opacity:0.212" fill="#4f4f51" d="M 182.5,222.5 C 182.5,226.833 182.5,231.167 182.5,235.5C 183.5,235.5 184.5,235.5 185.5,235.5C 184.432,236.434 183.099,236.768 181.5,236.5C 181.181,231.637 181.514,226.97 182.5,222.5 Z"/></g>
<g><path style="opacity:0.988" fill="#dfe1e2" d="M 182.5,222.5 C 184.308,223.918 184.975,225.918 184.5,228.5C 186.292,228.366 187.958,228.699 189.5,229.5C 190.401,230.29 191.068,231.29 191.5,232.5C 191.631,233.376 191.298,234.043 190.5,234.5C 189.735,233.388 188.735,232.721 187.5,232.5C 186.668,232.754 186.001,233.754 185.5,235.5C 184.5,235.5 183.5,235.5 182.5,235.5C 182.5,231.167 182.5,226.833 182.5,222.5 Z"/></g>
<g><path style="opacity:0.584" fill="#59595b" d="M 233.5,228.5 C 231.712,228.215 230.045,228.548 228.5,229.5C 230.977,230.88 230.977,231.88 228.5,232.5C 226.752,231.211 226.419,229.711 227.5,228C 229.712,227.211 231.712,227.378 233.5,228.5 Z"/></g>
<g><path style="opacity:0.992" fill="#bebfc0" d="M 137.5,225.5 C 138.302,226.952 138.802,228.618 139,230.5C 139.278,229.584 139.778,228.918 140.5,228.5C 143.053,230.962 143.053,233.295 140.5,235.5C 139.5,235.5 138.5,235.5 137.5,235.5C 138.263,234.732 139.263,234.232 140.5,234C 138.527,233.505 136.527,233.338 134.5,233.5C 134.263,232.209 134.596,231.209 135.5,230.5C 135.843,232.225 136.843,232.725 138.5,232C 137.944,231.617 137.611,231.117 137.5,230.5C 137.179,228.952 136.179,228.285 134.5,228.5C 134.5,227.167 134.5,225.833 134.5,224.5C 135.791,224.263 136.791,224.596 137.5,225.5 Z M 135.5,230.5 C 136.167,230.5 136.833,230.5 137.5,230.5C 137.611,231.117 137.944,231.617 138.5,232C 136.843,232.725 135.843,232.225 135.5,230.5 Z M 137.5,225.5 C 136.624,225.369 135.957,225.702 135.5,226.5C 136.694,227.67 137.361,227.337 137.5,225.5 Z"/></g>
<g><path style="opacity:0.838" fill="#d5d6d8" d="M 216.5,222.5 C 217.097,227.294 216.43,231.627 214.5,235.5C 213.5,234.833 212.5,234.167 211.5,233.5C 210.928,232.027 210.095,230.693 209,229.5C 208.503,231.81 208.337,234.143 208.5,236.5C 207.5,236.5 206.5,236.5 205.5,236.5C 205.173,231.456 205.506,226.456 206.5,221.5C 209.19,223.356 211.356,225.689 213,228.5C 213.497,226.19 213.663,223.857 213.5,221.5C 214.791,221.263 215.791,221.596 216.5,222.5 Z"/></g>
<g><path style="opacity:0.98" fill="#d6d7d9" d="M 223.5,223.5 C 226.247,223.187 228.914,223.52 231.5,224.5C 231.043,225.298 230.376,225.631 229.5,225.5C 225.775,225.78 224.608,227.78 226,231.5C 226.671,232.252 227.504,232.586 228.5,232.5C 230.977,231.88 230.977,230.88 228.5,229.5C 230.045,228.548 231.712,228.215 233.5,228.5C 234.263,235.091 231.596,237.424 225.5,235.5C 222.807,232.419 221.807,228.753 222.5,224.5C 222.5,223.833 222.833,223.5 223.5,223.5 Z"/></g>
<g><path style="opacity:0.09" fill="#2c2f2f" d="M 172.5,231.5 C 170.833,232.833 169.167,232.833 167.5,231.5C 168.217,230.539 169.383,229.539 171,228.5C 171.232,229.737 171.732,230.737 172.5,231.5 Z"/></g>
<g><path style="opacity:0.316" fill="#6e7073" d="M 196.5,221.5 C 197.833,221.5 199.167,221.5 200.5,221.5C 200.5,226.5 200.5,231.5 200.5,236.5C 199.167,236.5 197.833,236.5 196.5,236.5C 196.5,231.5 196.5,226.5 196.5,221.5 Z"/></g>
<g><path style="opacity:0.986" fill="#f9fafc" d="M 197.5,222.5 C 198.8,224.223 199.467,226.39 199.5,229C 199.167,231.167 198.833,233.333 198.5,235.5C 197.508,231.217 197.174,226.884 197.5,222.5 Z"/></g>
<g><path style="opacity:0.004" fill="#000000" d="M 211.5,233.5 C 210.833,234.167 210.833,234.167 211.5,233.5 Z"/></g>
<g><path style="opacity:0.961" fill="#a1a2a4" d="M 187.5,232.5 C 188.735,232.721 189.735,233.388 190.5,234.5C 191.298,234.043 191.631,233.376 191.5,232.5C 193.104,233.287 193.771,234.62 193.5,236.5C 190.144,237.138 188.144,235.804 187.5,232.5 Z"/></g>
<g><path style="opacity:0.275" fill="#5f6061" d="M 89.5,253.5 C 91.0269,253.427 92.0269,254.094 92.5,255.5C 90.9731,255.573 89.9731,254.906 89.5,253.5 Z"/></g>
</svg>
