<?xml version="1.0" encoding="UTF-8"?>
<!DOCTYPE svg PUBLIC "-//W3C//DTD SVG 1.1//EN" "http://www.w3.org/Graphics/SVG/1.1/DTD/svg11.dtd">
<svg xmlns="http://www.w3.org/2000/svg" version="1.1" width="483px" height="424px" style="shape-rendering:geometricPrecision; text-rendering:geometricPrecision; image-rendering:optimizeQuality; fill-rule:evenodd; clip-rule:evenodd" xmlns:xlink="http://www.w3.org/1999/xlink">
<g><path style="opacity:0.948" fill="#666666" d="M 391.5,42.5 C 382.8,42.2895 374.133,42.6228 365.5,43.5C 369.939,41.1865 374.773,40.1865 380,40.5C 384.112,40.3489 387.946,41.0156 391.5,42.5 Z"/></g>
<g><path style="opacity:0.573" fill="#a8a9a8" d="M 362.5,44.5 C 361.486,45.6737 360.153,46.3404 358.5,46.5C 359.287,44.8958 360.62,44.2291 362.5,44.5 Z"/></g>
<g><path style="opacity:0.882" fill="#727271" d="M 109.5,48.5 C 101.138,48.3348 92.8048,48.6682 84.5,49.5C 92.7372,46.0832 101.07,45.7499 109.5,48.5 Z"/></g>
<g><path style="opacity:1" fill="#191717" d="M 109.5,48.5 C 111.099,48.2322 112.432,48.5655 113.5,49.5C 114.469,50.3094 115.302,51.3094 116,52.5C 117.011,51.6634 118.178,51.33 119.5,51.5C 121.784,51.9752 123.784,52.9752 125.5,54.5C 125.5,54.8333 125.5,55.1667 125.5,55.5C 123.013,56.7899 123.347,57.7899 126.5,58.5C 124.741,59.754 123.241,59.4206 122,57.5C 120.568,60.0023 120.402,62.5023 121.5,65C 123.367,65.7112 124.867,65.2112 126,63.5C 127.5,64.6667 129,65.8333 130.5,67C 129.556,69.7191 129.223,72.5525 129.5,75.5C 129.167,75.5 128.833,75.5 128.5,75.5C 126.683,72.4254 124.016,71.2587 120.5,72C 111.986,80.6811 103.319,89.1811 94.5,97.5C 91.4552,94.4534 88.1219,91.7867 84.5,89.5C 83.4822,90.1925 82.4822,90.8592 81.5,91.5C 80.9208,94.9895 82.5875,97.3228 86.5,98.5C 88.8333,100.167 90.8333,102.167 92.5,104.5C 93.2739,105.147 94.2739,105.48 95.5,105.5C 97.3545,105.66 98.6879,104.993 99.5,103.5C 99.5,102.167 100.167,101.5 101.5,101.5C 105.898,98.1053 109.564,94.1053 112.5,89.5C 114.5,86.8333 116.833,84.5 119.5,82.5C 120.5,81.1667 121.5,81.1667 122.5,82.5C 123.166,86.3188 123.499,90.3188 123.5,94.5C 123.609,99.2778 123.109,103.944 122,108.5C 121.25,109.126 120.416,109.626 119.5,110C 105.833,110.667 92.1667,110.667 78.5,110C 77.5838,109.626 76.7504,109.126 76,108.5C 75.1768,99.9896 75.3434,91.6563 76.5,83.5C 86.5578,84.14 96.2245,83.4733 105.5,81.5C 106.785,80.2147 108.119,78.8814 109.5,77.5C 109.291,76.914 108.957,76.414 108.5,76C 97.0692,75.0448 85.7358,75.3781 74.5,77C 73,78.5 71.5,80 70,81.5C 69.5002,90.8274 69.3335,100.161 69.5,109.5C 68.7784,109.082 68.2784,108.416 68,107.5C 67.5003,99.5069 67.3336,91.5069 67.5,83.5C 66.5,83.5 65.5,83.5 64.5,83.5C 64.4411,79.9541 63.6077,76.6208 62,73.5C 61.6411,76.5443 60.9745,76.8776 60,74.5C 59.6827,76.3008 59.016,76.6341 58,75.5C 57.328,78.1777 56.1613,80.511 54.5,82.5C 55.9244,75.6511 58.9244,69.6511 63.5,64.5C 66.5,62.1667 69.1667,59.5 71.5,56.5C 75.0592,52.8846 79.3926,50.5512 84.5,49.5C 92.8048,48.6682 101.138,48.3348 109.5,48.5 Z"/></g>
<g><path style="opacity:0.549" fill="#949393" d="M 405.5,48.5 C 407.23,49.0256 408.564,50.0256 409.5,51.5C 407.368,51.4456 406.035,50.4456 405.5,48.5 Z"/></g>
<g><path style="opacity:1" fill="#5c5b5c" d="M 113.5,49.5 C 115.786,49.595 117.786,50.2616 119.5,51.5C 118.178,51.33 117.011,51.6634 116,52.5C 115.302,51.3094 114.469,50.3094 113.5,49.5 Z"/></g>
<g><path style="opacity:0.91" fill="#414040" d="M 335.5,55.5 C 334.094,55.9731 333.427,56.9731 333.5,58.5C 333.167,59.5 332.5,60.1667 331.5,60.5C 330.905,57.8875 330.071,57.8875 329,60.5C 328.55,57.9362 329.716,56.4362 332.5,56C 331.5,55 330.5,54 329.5,53C 269.164,52.1667 208.831,52.3334 148.5,53.5C 152.478,54.3114 152.145,55.8114 147.5,58C 149.125,58.8525 149.458,59.8525 148.5,61C 149.328,61.9147 150.328,62.5814 151.5,63C 150.378,64.6134 150.878,65.7801 153,66.5C 152.923,65.2624 153.089,64.2624 153.5,63.5C 155.326,63.9202 157.326,63.9202 159.5,63.5C 158.864,66.1062 158.864,68.6062 159.5,71C 158.809,72.0674 158.309,73.2341 158,74.5C 157.676,72.4311 156.842,72.0977 155.5,73.5C 154.795,71.3279 153.795,69.3279 152.5,67.5C 152.701,69.5505 152.701,71.5505 152.5,73.5C 150.08,67.0695 146.413,61.4028 141.5,56.5C 141.366,54.7085 141.699,53.0418 142.5,51.5C 206.332,50.3346 270.332,50.168 334.5,51C 336.466,52.3466 336.799,53.8466 335.5,55.5 Z"/></g>
<g><path style="opacity:1" fill="#0d0909" d="M 331.5,60.5 C 324.288,76.2063 323.621,92.2063 329.5,108.5C 329.427,110.027 330.094,111.027 331.5,111.5C 332.338,111.842 332.672,112.508 332.5,113.5C 332.685,115.196 333.519,116.529 335,117.5C 335.499,123.157 335.666,128.824 335.5,134.5C 272.335,135.665 209.001,135.832 145.5,135C 144.833,134 144.167,133 143.5,132C 144.293,128.589 144.793,125.089 145,121.5C 145.708,120.619 146.542,119.953 147.5,119.5C 148.906,119.027 149.573,118.027 149.5,116.5C 149.328,115.508 149.662,114.842 150.5,114.5C 152.213,113.365 152.88,111.698 152.5,109.5C 154.074,107.898 154.741,105.898 154.5,103.5C 154.5,95.8333 154.5,88.1667 154.5,80.5C 154.405,78.2143 153.738,76.2143 152.5,74.5C 152.5,74.1667 152.5,73.8333 152.5,73.5C 152.701,71.5505 152.701,69.5505 152.5,67.5C 153.795,69.3279 154.795,71.3279 155.5,73.5C 156.842,72.0977 157.676,72.4311 158,74.5C 158.309,73.2341 158.809,72.0674 159.5,71C 158.864,68.6062 158.864,66.1062 159.5,63.5C 157.326,63.9202 155.326,63.9202 153.5,63.5C 153.089,64.2624 152.923,65.2624 153,66.5C 150.878,65.7801 150.378,64.6134 151.5,63C 150.328,62.5814 149.328,61.9147 148.5,61C 149.458,59.8525 149.125,58.8525 147.5,58C 152.145,55.8114 152.478,54.3114 148.5,53.5C 208.831,52.3334 269.164,52.1667 329.5,53C 330.5,54 331.5,55 332.5,56C 329.716,56.4362 328.55,57.9362 329,60.5C 330.071,57.8875 330.905,57.8875 331.5,60.5 Z M 174.5,83.5 C 176.512,85.5671 176.846,87.9004 175.5,90.5C 173.343,91.0505 171.343,91.7171 169.5,92.5C 168.71,93.6085 168.21,94.9419 168,96.5C 167.667,96.1667 167.333,95.8333 167,95.5C 166.501,91.5138 166.334,87.5138 166.5,83.5C 169.167,83.5 171.833,83.5 174.5,83.5 Z M 191.5,92.5 C 189.066,95.5656 186.066,96.5656 182.5,95.5C 178.858,92.1287 178.525,88.2953 181.5,84C 188.674,82.3419 192.008,85.1753 191.5,92.5 Z M 196.5,83.5 C 199.167,83.5 201.833,83.5 204.5,83.5C 204.167,84.5 203.5,85.1667 202.5,85.5C 200.58,84.0595 198.913,84.3929 197.5,86.5C 198.939,88.5531 200.939,89.5531 203.5,89.5C 204.301,91.0418 204.634,92.7085 204.5,94.5C 202.703,95.7298 200.703,96.3964 198.5,96.5C 198.158,95.6618 197.492,95.3284 196.5,95.5C 196.369,94.6236 196.702,93.9569 197.5,93.5C 199.667,94.9542 201.667,94.7875 203.5,93C 200.751,91.2555 198.084,89.4221 195.5,87.5C 195.833,86.1667 196.167,84.8333 196.5,83.5 Z M 207.5,84.5 C 211.5,83.1667 215.5,83.1667 219.5,84.5C 217.833,84.5 216.167,84.5 214.5,84.5C 214.823,88.226 214.489,91.8927 213.5,95.5C 213.354,92.8013 213.354,89.968 213.5,87C 212.045,84.9838 210.045,84.1505 207.5,84.5 Z M 241.5,85.5 C 241.5,86.8333 241.5,88.1667 241.5,89.5C 248.167,90.1667 248.167,90.8333 241.5,91.5C 241.5,92.5 241.5,93.5 241.5,94.5C 243.833,95.1667 246.167,95.8333 248.5,96.5C 245.5,96.5 242.5,96.5 239.5,96.5C 239.5,92.1667 239.5,87.8333 239.5,83.5C 242.518,83.3354 245.518,83.502 248.5,84C 245.964,84.1862 243.631,84.6862 241.5,85.5 Z M 252.5,84.5 C 252.842,83.6618 253.508,83.3284 254.5,83.5C 254.893,85.2838 255.559,86.9505 256.5,88.5C 258.374,93.6968 259.708,93.3635 260.5,87.5C 261.674,86.4863 262.34,85.153 262.5,83.5C 263.492,83.3284 264.158,83.6618 264.5,84.5C 262.972,87.7487 261.639,91.082 260.5,94.5C 259.609,95.1098 258.609,95.4431 257.5,95.5C 256.07,91.6456 254.403,87.9789 252.5,84.5 Z M 268.5,83.5 C 271.85,83.335 275.183,83.5017 278.5,84C 275.854,84.4974 273.187,84.6641 270.5,84.5C 270.232,86.099 270.566,87.4324 271.5,88.5C 272.952,89.3019 274.618,89.8019 276.5,90C 274.527,90.4955 272.527,90.6621 270.5,90.5C 270.232,92.099 270.566,93.4324 271.5,94.5C 273.924,94.1924 276.257,94.5258 278.5,95.5C 275.232,96.487 271.898,96.8204 268.5,96.5C 268.5,92.1667 268.5,87.8333 268.5,83.5 Z M 285.5,83.5 C 287.177,85.5398 288.844,87.5398 290.5,89.5C 290.369,90.3764 290.702,91.0431 291.5,91.5C 292.167,88.8333 292.833,86.1667 293.5,83.5C 294.492,87.7828 294.826,92.1161 294.5,96.5C 291.806,94.4728 289.473,92.1395 287.5,89.5C 286.534,86.8753 285.534,86.8753 284.5,89.5C 284.624,90.1067 284.957,90.44 285.5,90.5C 285.125,92.6976 284.458,94.6976 283.5,96.5C 282.903,91.706 283.57,87.3727 285.5,83.5 Z M 298.5,84.5 C 298.5,84.1667 298.5,83.8333 298.5,83.5C 302.182,83.3347 305.848,83.5014 309.5,84C 307.866,84.4935 306.199,84.6602 304.5,84.5C 304.5,88.5 304.5,92.5 304.5,96.5C 304.167,96.5 303.833,96.5 303.5,96.5C 303.5,92.5 303.5,88.5 303.5,84.5C 301.833,84.5 300.167,84.5 298.5,84.5 Z M 232.5,89.5 C 232.672,90.4916 232.338,91.1583 231.5,91.5C 229.369,90.6862 227.036,90.1862 224.5,90C 227.146,89.5026 229.813,89.3359 232.5,89.5 Z"/></g>
<g><path style="opacity:0.349" fill="#b1b2b3" d="M 142.5,51.5 C 141.699,53.0418 141.366,54.7085 141.5,56.5C 140.861,55.9032 140.528,55.0698 140.5,54C 140.684,52.6244 141.351,51.7911 142.5,51.5 Z"/></g>
<g><path style="opacity:0.671" fill="#8f8f8f" d="M 348.5,53.5 C 348.262,55.4044 347.262,56.7377 345.5,57.5C 345.738,55.5956 346.738,54.2623 348.5,53.5 Z"/></g>
<g><path style="opacity:0.592" fill="#979596" d="M 125.5,54.5 C 127.23,55.0256 128.564,56.0256 129.5,57.5C 127.847,57.3404 126.514,56.6737 125.5,55.5C 125.5,55.1667 125.5,54.8333 125.5,54.5 Z"/></g>
<g><path style="opacity:0.035" fill="#cbcbcb" d="M 335.5,55.5 C 335.573,57.0269 334.906,58.0269 333.5,58.5C 333.427,56.9731 334.094,55.9731 335.5,55.5 Z"/></g>
<g><path style="opacity:0.584" fill="#aba9a9" d="M 413.5,55.5 C 414.906,55.9731 415.573,56.9731 415.5,58.5C 414.094,58.0269 413.427,57.0269 413.5,55.5 Z"/></g>
<g><path style="opacity:0.761" fill="#8b8a8b" d="M 71.5,56.5 C 69.1667,59.5 66.5,62.1667 63.5,64.5C 65.1667,60.8333 67.8333,58.1667 71.5,56.5 Z"/></g>
<g><path style="opacity:0.541" fill="#7e8283" d="M 415.5,58.5 C 416.906,58.9731 417.573,59.9731 417.5,61.5C 416.094,61.0269 415.427,60.0269 415.5,58.5 Z"/></g>
<g><path style="opacity:0.31" fill="#b5b7b7" d="M 343.5,59.5 C 343.573,61.0269 342.906,62.0269 341.5,62.5C 341.427,60.9731 342.094,59.9731 343.5,59.5 Z"/></g>
<g><path style="opacity:0.463" fill="#8d8d8e" d="M 417.5,61.5 C 418.906,61.9731 419.573,62.9731 419.5,64.5C 418.094,64.0269 417.427,63.0269 417.5,61.5 Z"/></g>
<g><path style="opacity:0.176" fill="#adadae" d="M 339.5,66.5 C 339.34,68.153 338.674,69.4863 337.5,70.5C 337.229,68.6203 337.896,67.287 339.5,66.5 Z"/></g>
<g><path style="opacity:0.149" fill="#bab9b9" d="M 140.5,71.5 C 142.104,72.287 142.771,73.6203 142.5,75.5C 141.326,74.4863 140.66,73.153 140.5,71.5 Z"/></g>
<g><path style="opacity:1" fill="#151212" d="M 391.5,42.5 C 396.824,43.1571 401.49,45.1571 405.5,48.5C 406.035,50.4456 407.368,51.4456 409.5,51.5C 411.167,52.5 412.5,53.8333 413.5,55.5C 413.427,57.0269 414.094,58.0269 415.5,58.5C 415.427,60.0269 416.094,61.0269 417.5,61.5C 417.427,63.0269 418.094,64.0269 419.5,64.5C 427.757,79.3483 427.424,94.0149 418.5,108.5C 416.241,109.344 415.241,111.011 415.5,113.5C 413.833,115.833 411.833,117.833 409.5,119.5C 407.973,119.427 406.973,120.094 406.5,121.5C 398.603,127.401 389.603,130.401 379.5,130.5C 375.976,130.099 372.642,129.433 369.5,128.5C 366.855,126.69 363.855,125.69 360.5,125.5C 358.847,125.34 357.514,124.674 356.5,123.5C 356.027,122.094 355.027,121.427 353.5,121.5C 338.342,110.716 332.342,96.0491 335.5,77.5C 336.924,75.4855 337.59,73.1522 337.5,70.5C 338.674,69.4863 339.34,68.153 339.5,66.5C 339.66,64.847 340.326,63.5137 341.5,62.5C 342.906,62.0269 343.573,61.0269 343.5,59.5C 343.833,58.5 344.5,57.8333 345.5,57.5C 347.262,56.7377 348.262,55.4044 348.5,53.5C 351.275,50.3954 354.608,48.0621 358.5,46.5C 360.153,46.3404 361.486,45.6737 362.5,44.5C 363.391,43.8902 364.391,43.5569 365.5,43.5C 374.133,42.6228 382.8,42.2895 391.5,42.5 Z M 401.5,68.5 C 400.197,70.1423 398.864,71.8089 397.5,73.5C 394.678,75.6418 393.012,78.4751 392.5,82C 393.653,90.5523 394.986,99.0523 396.5,107.5C 396.702,109.95 396.369,112.283 395.5,114.5C 394.167,114.5 392.833,114.5 391.5,114.5C 391.737,113.209 391.404,112.209 390.5,111.5C 390.829,108.772 390.163,106.438 388.5,104.5C 388.5,104.167 388.5,103.833 388.5,103.5C 388.88,101.302 388.213,99.6354 386.5,98.5C 386.02,95.5568 385.02,92.8902 383.5,90.5C 382.74,88.0155 381.74,88.0155 380.5,90.5C 378.086,91.9108 376.419,93.9108 375.5,96.5C 373.5,96.5 372.5,97.5 372.5,99.5C 371.305,99.8656 370.639,100.699 370.5,102C 371.131,105.85 371.798,109.683 372.5,113.5C 371.409,114.888 370.076,115.388 368.5,115C 367.391,113.124 366.391,111.291 365.5,109.5C 365.204,107.597 364.537,105.93 363.5,104.5C 362.089,102.461 360.089,101.461 357.5,101.5C 355.981,100.59 354.315,99.7568 352.5,99C 353.252,98.3292 353.586,97.4959 353.5,96.5C 354.167,96.5 354.5,96.1667 354.5,95.5C 358.707,95.8851 362.707,95.8851 366.5,95.5C 367.833,94.8333 368.833,93.8333 369.5,92.5C 370.906,92.0269 371.573,91.0269 371.5,89.5C 374.84,87.7382 376.507,85.2382 376.5,82C 368.84,80.5965 361.173,79.4298 353.5,78.5C 352.71,77.5987 351.71,76.9321 350.5,76.5C 350.33,75.1779 350.663,74.0113 351.5,73C 362.948,71.4034 374.115,71.2367 385,72.5C 389.121,69.3818 392.954,65.8818 396.5,62C 398.473,61.5045 400.473,61.3379 402.5,61.5C 402.552,63.9029 402.219,66.2362 401.5,68.5 Z M 378.5,67.5 C 377.833,66.8333 377.167,66.1667 376.5,65.5C 377.764,63.7299 379.264,62.0632 381,60.5C 384.179,63.9101 383.345,66.2434 378.5,67.5 Z M 400.5,82.5 C 401.391,83.1098 402.391,83.4431 403.5,83.5C 403.5,84.5 403.5,85.5 403.5,86.5C 402.167,87.1667 401.167,88.1667 400.5,89.5C 399.833,89.5 399.167,89.5 398.5,89.5C 398.443,88.391 398.11,87.391 397.5,86.5C 398.488,85.205 399.488,83.8717 400.5,82.5 Z"/></g>
<g><path style="opacity:0.816" fill="#545453" d="M 401.5,68.5 C 401.817,71.5465 400.484,73.2132 397.5,73.5C 398.864,71.8089 400.197,70.1423 401.5,68.5 Z"/></g>
<g><path style="opacity:0.02" fill="#f5f4f4" d="M 376.5,65.5 C 377.167,66.1667 377.833,66.8333 378.5,67.5C 377.325,67.719 376.325,67.3857 375.5,66.5C 375.624,65.8933 375.957,65.56 376.5,65.5 Z"/></g>
<g><path style="opacity:0.478" fill="#9c9c9c" d="M 337.5,70.5 C 337.59,73.1522 336.924,75.4855 335.5,77.5C 335.41,74.8478 336.076,72.5145 337.5,70.5 Z"/></g>
<g><path style="opacity:0.012" fill="#cacaca" d="M 152.5,74.5 C 153.738,76.2143 154.405,78.2143 154.5,80.5C 152.926,78.8984 152.259,76.8984 152.5,74.5 Z"/></g>
<g><path style="opacity:0.071" fill="#b4b3b3" d="M 350.5,76.5 C 351.71,76.9321 352.71,77.5987 353.5,78.5C 351.821,78.7148 350.821,78.0481 350.5,76.5 Z"/></g>
<g><path style="opacity:0.875" fill="#747373" d="M 142.5,75.5 C 143.924,77.5145 144.59,79.8478 144.5,82.5C 143.076,80.4855 142.41,78.1522 142.5,75.5 Z"/></g>
<g><path style="opacity:0.502" fill="#959090" d="M 400.5,82.5 C 401.779,81.2848 402.779,81.6182 403.5,83.5C 402.391,83.4431 401.391,83.1098 400.5,82.5 Z"/></g>
<g><path style="opacity:0.525" fill="#9e9b9c" d="M 254.5,83.5 C 253.508,83.3284 252.842,83.6618 252.5,84.5C 251.115,83.6977 251.282,83.0311 253,82.5C 253.765,82.5699 254.265,82.9033 254.5,83.5 Z"/></g>
<g><path style="opacity:0.341" fill="#bebebe" d="M 262.5,83.5 C 263.386,82.2241 264.386,82.2241 265.5,83.5C 265.376,84.1067 265.043,84.44 264.5,84.5C 264.158,83.6618 263.492,83.3284 262.5,83.5 Z"/></g>
<g><path style="opacity:0.331" fill="#aba9a8" d="M 268.5,83.5 C 271.962,82.5184 275.629,82.185 279.5,82.5C 279.5,83.5 279.5,84.5 279.5,85.5C 276.833,85.5 274.167,85.5 271.5,85.5C 271.5,86.5 271.5,87.5 271.5,88.5C 270.566,87.4324 270.232,86.099 270.5,84.5C 273.187,84.6641 275.854,84.4974 278.5,84C 275.183,83.5017 271.85,83.335 268.5,83.5 Z"/></g>
<g><path style="opacity:1" fill="#2d2d2c" d="M 187.5,85.5 C 188.219,87.7638 188.552,90.0971 188.5,92.5C 184.702,95.5342 182.035,94.5342 180.5,89.5C 181.591,85.3297 183.924,83.9963 187.5,85.5 Z"/></g>
<g><path style="opacity:0.58" fill="#7b7a78" d="M 196.5,83.5 C 196.167,84.8333 195.833,86.1667 195.5,87.5C 194.147,85.8716 194.481,84.5383 196.5,83.5 Z"/></g>
<g><path style="opacity:0.42" fill="#978f91" d="M 204.5,83.5 C 205.525,83.8966 205.692,84.5632 205,85.5C 204.023,86.7736 203.189,86.7736 202.5,85.5C 203.5,85.1667 204.167,84.5 204.5,83.5 Z"/></g>
<g><path style="opacity:0.11" fill="#cfcdcc" d="M 298.5,83.5 C 302.298,82.5166 306.298,82.1832 310.5,82.5C 310.5,83.5 310.5,84.5 310.5,85.5C 308.833,85.5 307.167,85.5 305.5,85.5C 305.815,89.3714 305.482,93.0381 304.5,96.5C 304.5,92.5 304.5,88.5 304.5,84.5C 306.199,84.6602 307.866,84.4935 309.5,84C 305.848,83.5014 302.182,83.3347 298.5,83.5 Z"/></g>
<g><path style="opacity:0.259" fill="#b3b3b3" d="M 187.5,85.5 C 188.993,86.3121 189.66,87.6455 189.5,89.5C 189.48,90.7261 189.147,91.7261 188.5,92.5C 188.552,90.0971 188.219,87.7638 187.5,85.5 Z"/></g>
<g><path style="opacity:0.114" fill="#d4d2d3" d="M 285.5,83.5 C 283.57,87.3727 282.903,91.706 283.5,96.5C 283.167,96.5 282.833,96.5 282.5,96.5C 282.5,91.8333 282.5,87.1667 282.5,82.5C 283.791,82.2627 284.791,82.596 285.5,83.5 Z"/></g>
<g><path style="opacity:0.141" fill="#c9c9c7" d="M 298.5,84.5 C 300.167,84.5 301.833,84.5 303.5,84.5C 303.5,88.5 303.5,92.5 303.5,96.5C 302.518,93.0381 302.185,89.3714 302.5,85.5C 300.901,85.7678 299.568,85.4345 298.5,84.5 Z"/></g>
<g><path style="opacity:0.894" fill="#433f3e" d="M 173.5,89.5 C 172.167,89.5 170.833,89.5 169.5,89.5C 169.5,88.1667 169.5,86.8333 169.5,85.5C 170.672,84.2947 172.005,84.2947 173.5,85.5C 174.782,86.9584 174.782,88.2918 173.5,89.5 Z"/></g>
<g><path style="opacity:0.784" fill="#a0a0a0" d="M 287.5,89.5 C 286.508,89.3284 285.842,89.6618 285.5,90.5C 284.957,90.44 284.624,90.1067 284.5,89.5C 285.534,86.8753 286.534,86.8753 287.5,89.5 Z"/></g>
<g><path style="opacity:0.325" fill="#b9b6b7" d="M 397.5,86.5 C 398.11,87.391 398.443,88.391 398.5,89.5C 396.618,88.779 396.285,87.779 397.5,86.5 Z"/></g>
<g><path style="opacity:0.706" fill="#858584" d="M 403.5,86.5 C 403.5,88.5 402.5,89.5 400.5,89.5C 401.167,88.1667 402.167,87.1667 403.5,86.5 Z"/></g>
<g><path style="opacity:0.322" fill="#aaa8a6" d="M 169.5,85.5 C 169.5,86.8333 169.5,88.1667 169.5,89.5C 170.833,89.5 172.167,89.5 173.5,89.5C 172.081,90.4511 170.415,90.7845 168.5,90.5C 168.216,88.5853 168.549,86.9187 169.5,85.5 Z"/></g>
<g><path style="opacity:0.867" fill="#737273" d="M 260.5,87.5 C 259.708,93.3635 258.374,93.6968 256.5,88.5C 258.195,89.8264 259.528,89.4931 260.5,87.5 Z"/></g>
<g><path style="opacity:0.373" fill="#8f8d8c" d="M 294.5,96.5 C 294.826,92.1161 294.492,87.7828 293.5,83.5C 292.833,86.1667 292.167,88.8333 291.5,91.5C 290.702,91.0431 290.369,90.3764 290.5,89.5C 291.468,87.3926 291.802,85.0593 291.5,82.5C 292.833,82.5 294.167,82.5 295.5,82.5C 295.819,87.3633 295.486,92.03 294.5,96.5 Z"/></g>
<g><path style="opacity:0.812" fill="#8a898a" d="M 383.5,90.5 C 382.5,90.5 381.5,90.5 380.5,90.5C 381.74,88.0155 382.74,88.0155 383.5,90.5 Z"/></g>
<g><path style="opacity:0.522" fill="#858281" d="M 174.5,83.5 C 171.833,83.5 169.167,83.5 166.5,83.5C 166.334,87.5138 166.501,91.5138 167,95.5C 167.333,95.8333 167.667,96.1667 168,96.5C 168.21,94.9419 168.71,93.6085 169.5,92.5C 169.5,94.1667 169.5,95.8333 169.5,97.5C 168.167,97.5 166.833,97.5 165.5,97.5C 165.5,92.5 165.5,87.5 165.5,82.5C 168.713,82.19 171.713,82.5233 174.5,83.5 Z"/></g>
<g><path style="opacity:0.595" fill="#8b8988" d="M 207.5,84.5 C 210.045,84.1505 212.045,84.9838 213.5,87C 213.354,89.968 213.354,92.8013 213.5,95.5C 214.489,91.8927 214.823,88.226 214.5,84.5C 216.167,84.5 217.833,84.5 219.5,84.5C 218.432,85.4345 217.099,85.7678 215.5,85.5C 215.5,89.1667 215.5,92.8333 215.5,96.5C 214.167,96.5 212.833,96.5 211.5,96.5C 211.5,92.8333 211.5,89.1667 211.5,85.5C 209.901,85.7678 208.568,85.4345 207.5,84.5 Z"/></g>
<g><path style="opacity:0.015" fill="#e2e0e0" d="M 232.5,89.5 C 229.813,89.3359 227.146,89.5026 224.5,90C 227.036,90.1862 229.369,90.6862 231.5,91.5C 228.833,91.5 226.167,91.5 223.5,91.5C 223.5,90.5 223.5,89.5 223.5,88.5C 226.713,88.19 229.713,88.5233 232.5,89.5 Z"/></g>
<g><path style="opacity:0.172" fill="#c1c1c1" d="M 271.5,88.5 C 273.5,88.5 275.5,88.5 277.5,88.5C 277.5,89.5 277.5,90.5 277.5,91.5C 274.918,91.0254 272.918,91.6921 271.5,93.5C 271.5,93.8333 271.5,94.1667 271.5,94.5C 270.566,93.4324 270.232,92.099 270.5,90.5C 272.527,90.6621 274.527,90.4955 276.5,90C 274.618,89.8019 272.952,89.3019 271.5,88.5 Z"/></g>
<g><path style="opacity:0.004" fill="#cac9ca" d="M 371.5,89.5 C 371.573,91.0269 370.906,92.0269 369.5,92.5C 369.427,90.9731 370.094,89.9731 371.5,89.5 Z"/></g>
<g><path style="opacity:0.992" fill="#6c6968" d="M 195.5,87.5 C 198.084,89.4221 200.751,91.2555 203.5,93C 201.667,94.7875 199.667,94.9542 197.5,93.5C 196.702,93.9569 196.369,94.6236 196.5,95.5C 195.287,94.0476 195.62,92.7143 197.5,91.5C 196.37,90.3777 195.703,89.0443 195.5,87.5 Z"/></g>
<g><path style="opacity:0.012" fill="#c6c0bf" d="M 203.5,89.5 C 204.649,89.7911 205.316,90.6244 205.5,92C 205.472,93.0698 205.139,93.9032 204.5,94.5C 204.634,92.7085 204.301,91.0418 203.5,89.5 Z"/></g>
<g><path style="opacity:0.133" fill="#c1bebd" d="M 241.5,85.5 C 243.631,84.6862 245.964,84.1862 248.5,84C 245.518,83.502 242.518,83.3354 239.5,83.5C 239.5,87.8333 239.5,92.1667 239.5,96.5C 242.5,96.5 245.5,96.5 248.5,96.5C 248.833,96.5 249.167,96.5 249.5,96.5C 246.038,97.4816 242.371,97.815 238.5,97.5C 238.5,92.5 238.5,87.5 238.5,82.5C 242.167,82.5 245.833,82.5 249.5,82.5C 249.5,83.5 249.5,84.5 249.5,85.5C 246.833,85.5 244.167,85.5 241.5,85.5 Z"/></g>
<g><path style="opacity:1" fill="#3c3a3a" d="M 287.5,89.5 C 289.473,92.1395 291.806,94.4728 294.5,96.5C 294.44,97.0431 294.107,97.3764 293.5,97.5C 291.51,96.1268 289.343,95.1268 287,94.5C 287.489,99.8798 285.989,100.547 282.5,96.5C 282.833,96.5 283.167,96.5 283.5,96.5C 284.458,94.6976 285.125,92.6976 285.5,90.5C 285.842,89.6618 286.508,89.3284 287.5,89.5 Z"/></g>
<g><path style="opacity:0.514" fill="#938f8e" d="M 191.5,92.5 C 190.201,96.3184 187.534,97.8184 183.5,97C 182.944,96.6174 182.611,96.1174 182.5,95.5C 186.066,96.5656 189.066,95.5656 191.5,92.5 Z"/></g>
<g><path style="opacity:0.014" fill="#f8f8f8" d="M 241.5,94.5 C 244.698,93.9644 247.365,94.631 249.5,96.5C 249.167,96.5 248.833,96.5 248.5,96.5C 246.167,95.8333 243.833,95.1667 241.5,94.5 Z"/></g>
<g><path style="opacity:0.859" fill="#767575" d="M 354.5,95.5 C 358.352,94.3563 362.352,94.3563 366.5,95.5C 362.707,95.8851 358.707,95.8851 354.5,95.5 Z"/></g>
<g><path style="opacity:0.651" fill="#a49e9f" d="M 260.5,94.5 C 259.947,96.5518 258.947,96.8852 257.5,95.5C 258.609,95.4431 259.609,95.1098 260.5,94.5 Z"/></g>
<g><path style="opacity:0.451" fill="#a4a3a3" d="M 380.5,90.5 C 379.581,93.0892 377.914,95.0892 375.5,96.5C 376.419,93.9108 378.086,91.9108 380.5,90.5 Z"/></g>
<g><path style="opacity:0.937" fill="#585252" d="M 204.5,94.5 C 204.586,95.4959 204.252,96.3292 203.5,97C 201.613,97.7796 199.946,97.6129 198.5,96.5C 200.703,96.3964 202.703,95.7298 204.5,94.5 Z"/></g>
<g><path style="opacity:0.525" fill="#7a7876" d="M 271.5,94.5 C 271.5,94.1667 271.5,93.8333 271.5,93.5C 274.167,93.5 276.833,93.5 279.5,93.5C 279.5,94.8333 279.5,96.1667 279.5,97.5C 275.629,97.815 271.962,97.4816 268.5,96.5C 271.898,96.8204 275.232,96.487 278.5,95.5C 276.257,94.5258 273.924,94.1924 271.5,94.5 Z"/></g>
<g><path style="opacity:0.008" fill="#b8b7b7" d="M 353.5,96.5 C 353.586,97.4959 353.252,98.3292 352.5,99C 354.315,99.7568 355.981,100.59 357.5,101.5C 354.944,101.868 352.944,101.034 351.5,99C 351.639,97.699 352.305,96.8656 353.5,96.5 Z"/></g>
<g><path style="opacity:0.443" fill="#a8a5a5" d="M 375.5,96.5 C 374.833,97.8333 373.833,98.8333 372.5,99.5C 372.5,97.5 373.5,96.5 375.5,96.5 Z"/></g>
<g><path style="opacity:0.016" fill="#dededd" d="M 386.5,98.5 C 388.213,99.6354 388.88,101.302 388.5,103.5C 387.463,102.07 386.796,100.403 386.5,98.5 Z"/></g>
<g><path style="opacity:0.812" fill="#7f7d7e" d="M 154.5,103.5 C 154.741,105.898 154.074,107.898 152.5,109.5C 152.595,107.214 153.262,105.214 154.5,103.5 Z"/></g>
<g><path style="opacity:0.855" fill="#7a7778" d="M 363.5,104.5 C 364.537,105.93 365.204,107.597 365.5,109.5C 363.787,108.365 363.12,106.698 363.5,104.5 Z"/></g>
<g><path style="opacity:0.824" fill="#898889" d="M 388.5,104.5 C 390.163,106.438 390.829,108.772 390.5,111.5C 389.076,109.485 388.41,107.152 388.5,104.5 Z"/></g>
<g><path style="opacity:0.169" fill="#c5c5c5" d="M 56.5,109.5 C 57.3382,109.842 57.6716,110.508 57.5,111.5C 55.3023,111.591 54.9689,110.925 56.5,109.5 Z"/></g>
<g><path style="opacity:0.212" fill="#b9b9b9" d="M 329.5,108.5 C 330.906,108.973 331.573,109.973 331.5,111.5C 330.094,111.027 329.427,110.027 329.5,108.5 Z"/></g>
<g><path style="opacity:0.092" fill="#b5b3b3" d="M 396.5,107.5 C 397.152,108.449 397.486,109.615 397.5,111C 397.392,112.681 396.725,113.848 395.5,114.5C 396.369,112.283 396.702,109.95 396.5,107.5 Z"/></g>
<g><path style="opacity:0.953" fill="#717172" d="M 418.5,108.5 C 417.89,110.434 416.89,112.101 415.5,113.5C 415.241,111.011 416.241,109.344 418.5,108.5 Z"/></g>
<g><path style="opacity:0.863" fill="#797979" d="M 152.5,109.5 C 152.88,111.698 152.213,113.365 150.5,114.5C 150.796,112.597 151.463,110.93 152.5,109.5 Z"/></g>
<g><path style="opacity:1" fill="#100d0d" d="M 125.5,55.5 C 126.514,56.6737 127.847,57.3404 129.5,57.5C 134.612,61.0693 138.278,65.736 140.5,71.5C 140.66,73.153 141.326,74.4863 142.5,75.5C 142.41,78.1522 143.076,80.4855 144.5,82.5C 147.788,95.028 145.788,106.695 138.5,117.5C 137.5,117.833 136.833,118.5 136.5,119.5C 129.93,130.294 120.264,136.294 107.5,137.5C 100.465,137.674 93.4648,137.341 86.5,136.5C 83.3511,136.585 80.6845,135.585 78.5,133.5C 77.6799,131.86 76.8466,130.193 76,128.5C 75.6667,128.833 75.3333,129.167 75,129.5C 71.8114,126.712 69.4781,124.046 68,121.5C 67.7104,119.956 67.0437,118.623 66,117.5C 64.4361,117.912 62.9361,118.245 61.5,118.5C 59.412,116.664 58.0787,114.331 57.5,111.5C 57.6716,110.508 57.3382,109.842 56.5,109.5C 54.9867,107.484 54.1534,105.151 54,102.5C 53.2443,95.7834 53.411,89.1167 54.5,82.5C 56.1613,80.511 57.328,78.1777 58,75.5C 59.016,76.6341 59.6827,76.3008 60,74.5C 60.9745,76.8776 61.6411,76.5443 62,73.5C 63.6077,76.6208 64.4411,79.9541 64.5,83.5C 65.5,83.5 66.5,83.5 67.5,83.5C 67.3336,91.5069 67.5003,99.5069 68,107.5C 68.2784,108.416 68.7784,109.082 69.5,109.5C 69.5,109.833 69.5,110.167 69.5,110.5C 69.427,112.027 70.0937,113.027 71.5,113.5C 72.7095,113.932 73.7095,114.599 74.5,115.5C 74.6107,116.117 74.944,116.617 75.5,117C 91.5,117.667 107.5,117.667 123.5,117C 124.056,116.617 124.389,116.117 124.5,115.5C 126.833,115.167 128.167,113.833 128.5,111.5C 128.5,111.167 128.5,110.833 128.5,110.5C 129.222,110.082 129.722,109.416 130,108.5C 130.809,97.4236 130.642,86.4236 129.5,75.5C 129.223,72.5525 129.556,69.7191 130.5,67C 129,65.8333 127.5,64.6667 126,63.5C 124.867,65.2112 123.367,65.7112 121.5,65C 120.402,62.5023 120.568,60.0023 122,57.5C 123.241,59.4206 124.741,59.754 126.5,58.5C 123.347,57.7899 123.013,56.7899 125.5,55.5 Z"/></g>
<g><path style="opacity:0.553" fill="#939393" d="M 128.5,111.5 C 128.167,113.833 126.833,115.167 124.5,115.5C 125.5,113.833 126.833,112.5 128.5,111.5 Z"/></g>
<g><path style="opacity:0.318" fill="#afafad" d="M 69.5,110.5 C 70.9063,110.973 71.573,111.973 71.5,113.5C 70.0937,113.027 69.427,112.027 69.5,110.5 Z"/></g>
<g><path style="opacity:0.502" fill="#767473" d="M 99.5,103.5 C 98.6879,104.993 97.3545,105.66 95.5,105.5C 94.2739,105.48 93.2739,105.147 92.5,104.5C 94.9029,104.552 97.2362,104.219 99.5,103.5 Z"/></g>
<g><path style="opacity:0.659" fill="#8d8b8a" d="M 112.5,89.5 C 109.564,94.1053 105.898,98.1053 101.5,101.5C 104.436,96.8947 108.102,92.8947 112.5,89.5 Z"/></g>
<g><path style="opacity:0.263" fill="#afafaf" d="M 81.5,91.5 C 82.7536,94.0934 84.4202,96.4268 86.5,98.5C 82.5875,97.3228 80.9208,94.9895 81.5,91.5 Z"/></g>
<g><path style="opacity:0.747" fill="#7d7c7a" d="M 128.5,75.5 C 128.833,75.5 129.167,75.5 129.5,75.5C 130.642,86.4236 130.809,97.4236 130,108.5C 129.722,109.416 129.222,110.082 128.5,110.5C 128.5,98.8333 128.5,87.1667 128.5,75.5 Z"/></g>
<g><path style="opacity:0.827" fill="#6f6e6e" d="M 105.5,81.5 C 96.2245,83.4733 86.5578,84.14 76.5,83.5C 77.6085,82.71 78.9419,82.21 80.5,82C 88.8267,81.5003 97.16,81.3336 105.5,81.5 Z"/></g>
<g><path style="opacity:0.376" fill="#a9a9a7" d="M 122.5,82.5 C 121.5,81.1667 120.5,81.1667 119.5,82.5C 120.5,79.8333 121.5,79.8333 122.5,82.5 Z"/></g>
<g><path style="opacity:0.655" fill="#5d5c5b" d="M 74.5,115.5 C 91.1543,116.819 107.821,116.819 124.5,115.5C 124.389,116.117 124.056,116.617 123.5,117C 107.5,117.667 91.5,117.667 75.5,117C 74.944,116.617 74.6107,116.117 74.5,115.5 Z"/></g>
<g><path style="opacity:0.999" fill="#2a2828" d="M 78.5,133.5 C 71.2466,130.244 65.58,125.244 61.5,118.5C 62.9361,118.245 64.4361,117.912 66,117.5C 67.0437,118.623 67.7104,119.956 68,121.5C 69.4781,124.046 71.8114,126.712 75,129.5C 75.3333,129.167 75.6667,128.833 76,128.5C 76.8466,130.193 77.6799,131.86 78.5,133.5 Z"/></g>
<g><path style="opacity:0.004" fill="#d1d1d1" d="M 138.5,117.5 C 138.5,118.833 137.833,119.5 136.5,119.5C 136.833,118.5 137.5,117.833 138.5,117.5 Z"/></g>
<g><path style="opacity:0.431" fill="#a4a4a4" d="M 149.5,116.5 C 149.573,118.027 148.906,119.027 147.5,119.5C 147.427,117.973 148.094,116.973 149.5,116.5 Z"/></g>
<g><path style="opacity:0.725" fill="#818081" d="M 332.5,113.5 C 334.504,114.673 336.004,116.34 337,118.5C 337.667,123.5 337.667,128.5 337,133.5C 336.617,134.056 336.117,134.389 335.5,134.5C 335.666,128.824 335.499,123.157 335,117.5C 333.519,116.529 332.685,115.196 332.5,113.5 Z"/></g>
<g><path style="opacity:0.008" fill="#d1d1d1" d="M 409.5,119.5 C 409.027,120.906 408.027,121.573 406.5,121.5C 406.973,120.094 407.973,119.427 409.5,119.5 Z"/></g>
<g><path style="opacity:0.369" fill="#9d9ca5" d="M 353.5,121.5 C 355.027,121.427 356.027,122.094 356.5,123.5C 354.973,123.573 353.973,122.906 353.5,121.5 Z"/></g>
<g><path style="opacity:0.949" fill="#666667" d="M 360.5,125.5 C 363.855,125.69 366.855,126.69 369.5,128.5C 366.084,128.472 363.084,127.472 360.5,125.5 Z"/></g>
<g><path style="opacity:0.596" fill="#8b8c8c" d="M 86.5,136.5 C 93.4648,137.341 100.465,137.674 107.5,137.5C 102.433,138.188 97.2666,138.855 92,139.5C 90.1239,138.391 88.2905,137.391 86.5,136.5 Z"/></g>
<g><path style="opacity:0.874" fill="#5f5c5d" d="M 335.5,151.5 C 272.167,151.5 208.833,151.5 145.5,151.5C 145.611,150.883 145.944,150.383 146.5,150C 209.167,149.333 271.833,149.333 334.5,150C 335.056,150.383 335.389,150.883 335.5,151.5 Z"/></g>
<g><path style="opacity:1" fill="#0b0606" d="M 145.5,151.5 C 208.833,151.5 272.167,151.5 335.5,151.5C 335.333,169.836 335.5,188.17 336,206.5C 336.278,207.416 336.778,208.082 337.5,208.5C 337.5,210.5 338.5,211.5 340.5,211.5C 341.995,211.989 343.329,212.655 344.5,213.5C 353.036,214.221 361.703,214.888 370.5,215.5C 371.5,215.833 372.167,216.5 372.5,217.5C 372.833,218.5 373.5,219.167 374.5,219.5C 374.833,220.5 375.5,221.167 376.5,221.5C 378.044,221.703 379.378,222.37 380.5,223.5C 384.745,221.582 388.412,218.915 391.5,215.5C 400.113,214.558 408.779,214.225 417.5,214.5C 418.492,214.328 419.158,214.662 419.5,215.5C 419.738,217.404 420.738,218.738 422.5,219.5C 422.5,268.5 422.5,317.5 422.5,366.5C 421.695,371.45 419.362,375.45 415.5,378.5C 413.973,378.427 412.973,379.094 412.5,380.5C 410.142,382.129 407.476,383.295 404.5,384C 385.5,384.667 366.5,384.667 347.5,384C 347,383.5 346.5,383 346,382.5C 345.667,375.167 345.333,367.833 345,360.5C 343.925,357.106 342.758,353.772 341.5,350.5C 341.446,348.368 340.446,347.035 338.5,346.5C 336.5,342.5 333.5,339.5 329.5,337.5C 329.027,336.094 328.027,335.427 326.5,335.5C 326.027,334.094 325.027,333.427 323.5,333.5C 321.847,333.34 320.514,332.674 319.5,331.5C 319.027,330.094 318.027,329.427 316.5,329.5C 315.766,328.292 315.433,326.959 315.5,325.5C 313.5,325.5 311.5,325.5 309.5,325.5C 307.883,324.962 306.216,324.629 304.5,324.5C 304.5,325.833 304.5,327.167 304.5,328.5C 304.12,330.698 304.787,332.365 306.5,333.5C 306.5,333.833 306.5,334.167 306.5,334.5C 306.336,337.187 306.503,339.854 307,342.5C 307.333,342.167 307.667,341.833 308,341.5C 308.2,343.32 309.034,344.653 310.5,345.5C 310.054,348.01 310.72,350.01 312.5,351.5C 315.038,355.4 315.872,359.734 315,364.5C 311.882,371.239 308.382,377.739 304.5,384C 295.324,384.824 286.324,384.657 277.5,383.5C 277.833,380.833 278.167,378.167 278.5,375.5C 280.074,373.898 280.741,371.898 280.5,369.5C 280.5,369.167 280.5,368.833 280.5,368.5C 282.213,367.365 282.88,365.698 282.5,363.5C 283.924,361.485 284.59,359.152 284.5,356.5C 284.5,356.167 284.5,355.833 284.5,355.5C 286.074,353.898 286.741,351.898 286.5,349.5C 288.61,345.498 289.943,341.165 290.5,336.5C 290.5,336.167 290.5,335.833 290.5,335.5C 292.443,331.434 293.943,327.101 295,322.5C 295.78,320.613 295.613,318.946 294.5,317.5C 294.027,316.094 293.027,315.427 291.5,315.5C 290.29,315.068 289.29,314.401 288.5,313.5C 288.027,312.094 287.027,311.427 285.5,311.5C 271.34,320.78 257.173,320.78 243,311.5C 239.89,313.636 236.723,315.636 233.5,317.5C 232.355,319.953 232.688,322.287 234.5,324.5C 235.924,326.515 236.59,328.848 236.5,331.5C 237.357,334.549 237.357,337.549 236.5,340.5C 236.846,341.696 237.346,341.696 238,340.5C 238.374,342.491 239.207,344.158 240.5,345.5C 240.5,345.833 240.5,346.167 240.5,346.5C 240.41,349.152 241.076,351.485 242.5,353.5C 242.41,356.152 243.076,358.485 244.5,360.5C 246.326,364.584 247.66,368.917 248.5,373.5C 248.756,376.598 249.422,379.598 250.5,382.5C 241.918,383.47 233.251,383.803 224.5,383.5C 221.161,380.165 218.828,376.165 217.5,371.5C 217.34,369.847 216.674,368.514 215.5,367.5C 215.068,366.29 214.401,365.29 213.5,364.5C 212.314,362.208 212.314,359.874 213.5,357.5C 214.537,356.07 215.204,354.403 215.5,352.5C 215.5,352.167 215.5,351.833 215.5,351.5C 216.966,350.653 217.8,349.32 218,347.5C 219.131,348.604 219.965,348.271 220.5,346.5C 219.652,344.591 219.318,342.591 219.5,340.5C 220.633,336.433 221.967,332.433 223.5,328.5C 224.451,327.081 224.784,325.415 224.5,323.5C 222.302,323.12 220.635,323.787 219.5,325.5C 217.711,326.877 215.711,327.877 213.5,328.5C 212.209,328.263 211.209,328.596 210.5,329.5C 188.652,340.245 178.819,357.912 181,382.5C 180.5,383 180,383.5 179.5,384C 144.167,384.667 108.833,384.667 73.5,384C 72.255,383.209 70.9217,382.709 69.5,382.5C 69.0269,381.094 68.0269,380.427 66.5,380.5C 66.0269,379.094 65.0269,378.427 63.5,378.5C 60.027,376.363 57.6936,373.363 56.5,369.5C 56.6716,368.508 56.3382,367.842 55.5,367.5C 54.1699,318.069 54.1699,268.736 55.5,219.5C 56.9063,219.027 57.573,218.027 57.5,216.5C 57.9731,215.094 58.9731,214.427 60.5,214.5C 67.1667,214.5 73.8333,214.5 80.5,214.5C 80.3118,216.103 80.8118,217.437 82,218.5C 82.3333,218.167 82.6667,217.833 83,217.5C 84.3455,219.342 86.1789,220.342 88.5,220.5C 89.5,220.833 90.1667,221.5 90.5,222.5C 90.5106,224.017 91.1772,225.184 92.5,226C 89.972,227.316 89.972,228.483 92.5,229.5C 93.7362,228.754 95.0695,228.421 96.5,228.5C 98.1417,230.081 100.142,230.747 102.5,230.5C 106.833,228.167 110.167,224.833 112.5,220.5C 114.239,217.757 116.573,215.757 119.5,214.5C 125.176,214.666 130.843,214.499 136.5,214C 137.416,213.722 138.082,213.222 138.5,212.5C 138.842,211.662 139.508,211.328 140.5,211.5C 142.5,211.5 143.5,210.5 143.5,208.5C 143.5,208.167 143.5,207.833 143.5,207.5C 144.222,207.082 144.722,206.416 145,205.5C 145.5,187.503 145.667,169.503 145.5,151.5 Z M 279.5,163.5 C 280.686,165.792 280.686,168.126 279.5,170.5C 278.833,170.5 278.5,170.833 278.5,171.5C 277.957,171.56 277.624,171.893 277.5,172.5C 280.645,173.803 283.645,173.803 286.5,172.5C 291.82,173.26 297.153,173.927 302.5,174.5C 305.341,175.669 308.341,176.669 311.5,177.5C 312.833,179.5 312.833,181.5 311.5,183.5C 306.922,182.085 302.255,181.085 297.5,180.5C 291.743,178.687 285.743,178.187 279.5,179C 278.084,180.915 278.418,182.415 280.5,183.5C 280.884,185.665 280.217,187.332 278.5,188.5C 275.375,185.877 272.375,183.044 269.5,180C 267.414,179.685 265.414,179.185 263.5,178.5C 263.833,177.167 264.167,175.833 264.5,174.5C 266.308,174.509 267.975,174.009 269.5,173C 271.833,170 274.167,167 276.5,164C 277.448,163.517 278.448,163.351 279.5,163.5 Z M 242.5,172.5 C 243.103,174.679 243.77,176.846 244.5,179C 246.866,179.44 249.199,179.94 251.5,180.5C 251.5,181.833 251.5,183.167 251.5,184.5C 249.236,185.219 246.903,185.552 244.5,185.5C 244.483,187.565 244.15,189.565 243.5,191.5C 243.5,192.167 243.167,192.5 242.5,192.5C 241.041,192.567 239.708,192.234 238.5,191.5C 238.5,189.5 238.5,187.5 238.5,185.5C 236.05,185.702 233.717,185.369 231.5,184.5C 231.366,182.708 231.699,181.042 232.5,179.5C 234.5,179.5 236.5,179.5 238.5,179.5C 238.5,177.833 238.5,176.167 238.5,174.5C 239.605,173.4 240.938,172.733 242.5,172.5 Z M 218.5,187.5 C 220.514,187.392 222.18,188.058 223.5,189.5C 222.516,191.48 221.183,193.147 219.5,194.5C 217.596,194.738 216.262,195.738 215.5,197.5C 213.413,198.585 212.08,200.251 211.5,202.5C 209.413,203.585 208.08,205.251 207.5,207.5C 202.706,211.689 200.706,210.689 201.5,204.5C 203.156,202.54 204.823,200.54 206.5,198.5C 207.5,198.167 208.167,197.5 208.5,196.5C 210.833,194.833 212.833,192.833 214.5,190.5C 215.872,189.488 217.205,188.488 218.5,187.5 Z M 273.5,215.5 C 276.006,216.75 278.673,217.416 281.5,217.5C 282.287,219.104 283.62,219.771 285.5,219.5C 285.973,220.906 286.973,221.573 288.5,221.5C 290.223,223.218 292.223,224.551 294.5,225.5C 294.5,226.833 295.167,227.5 296.5,227.5C 296.5,228.833 297.167,229.5 298.5,229.5C 302.009,234.514 305.009,239.848 307.5,245.5C 307.721,248.067 308.388,250.401 309.5,252.5C 309.645,261.203 309.145,269.87 308,278.5C 306.89,280.037 305.39,280.703 303.5,280.5C 301.852,278.544 301.185,276.211 301.5,273.5C 302.498,266.862 302.665,260.195 302,253.5C 301.293,249.106 299.793,245.106 297.5,241.5C 297.262,239.596 296.262,238.262 294.5,237.5C 294.573,235.973 293.906,234.973 292.5,234.5C 291.833,233.167 290.833,232.167 289.5,231.5C 288.564,230.026 287.23,229.026 285.5,228.5C 283.819,226.992 281.819,225.992 279.5,225.5C 277.786,224.262 275.786,223.595 273.5,223.5C 273.167,223.5 272.833,223.5 272.5,223.5C 267.167,220.833 261.833,220.833 256.5,223.5C 253.772,223.171 251.438,223.837 249.5,225.5C 244.287,227.27 239.953,230.27 236.5,234.5C 234.738,235.262 233.738,236.596 233.5,238.5C 231.75,239.659 230.75,241.326 230.5,243.5C 229.662,243.842 229.328,244.508 229.5,245.5C 227.926,247.102 227.259,249.102 227.5,251.5C 225.981,254.526 225.315,257.859 225.5,261.5C 225.551,264.253 225.884,266.92 226.5,269.5C 226.982,272.946 226.982,276.279 226.5,279.5C 224.321,281.164 222.488,280.83 221,278.5C 219.647,269.225 219.147,259.891 219.5,250.5C 220.738,248.786 221.405,246.786 221.5,244.5C 222.931,243.22 223.598,241.553 223.5,239.5C 225.316,237.882 226.649,235.882 227.5,233.5C 228.167,233.5 228.5,233.167 228.5,232.5C 229.906,232.027 230.573,231.027 230.5,229.5C 231.5,229.167 232.167,228.5 232.5,227.5C 233.833,227.5 234.5,226.833 234.5,225.5C 236.404,225.262 237.738,224.262 238.5,222.5C 240.027,222.573 241.027,221.906 241.5,220.5C 242.492,220.672 243.158,220.338 243.5,219.5C 246.21,218.494 248.876,217.494 251.5,216.5C 252.833,216.167 254.167,215.833 255.5,215.5C 261.506,214.26 267.506,214.26 273.5,215.5 Z M 196.5,215.5 C 197.458,215.953 198.292,216.619 199,217.5C 200.165,224.472 200.498,231.472 200,238.5C 198.989,239.337 197.822,239.67 196.5,239.5C 196.078,236.012 195.245,232.679 194,229.5C 193.283,230.044 192.783,230.711 192.5,231.5C 189.503,236.159 186.503,240.825 183.5,245.5C 180.8,247.865 178.467,250.532 176.5,253.5C 173.833,254.833 171.833,256.833 170.5,259.5C 168.566,260.11 166.899,261.11 165.5,262.5C 164.041,262.567 162.708,262.234 161.5,261.5C 161.893,259.716 162.559,258.05 163.5,256.5C 167.833,252.833 171.833,248.833 175.5,244.5C 176.906,244.027 177.573,243.027 177.5,241.5C 182.071,237.369 185.404,232.369 187.5,226.5C 188.885,225.698 188.718,225.031 187,224.5C 186.235,224.57 185.735,224.903 185.5,225.5C 182.002,226.045 179.002,225.212 176.5,223C 177.167,221.667 178.167,220.667 179.5,220C 182.797,219.796 185.797,218.963 188.5,217.5C 191.495,217.706 194.162,217.04 196.5,215.5 Z M 379.5,233.5 C 381.415,233.216 383.081,233.549 384.5,234.5C 384.932,235.71 385.599,236.71 386.5,237.5C 386.5,238.167 386.5,238.833 386.5,239.5C 385.167,240.167 384.167,241.167 383.5,242.5C 382.167,242.5 380.833,242.5 379.5,242.5C 378.833,241.167 377.833,240.167 376.5,239.5C 376.833,238.167 377.167,236.833 377.5,235.5C 378.5,235.167 379.167,234.5 379.5,233.5 Z M 98.5,241.5 C 101.089,241.461 103.089,242.461 104.5,244.5C 104.483,246.565 104.15,248.565 103.5,250.5C 101.565,251.15 99.5648,251.483 97.5,251.5C 97.573,249.973 96.9063,248.973 95.5,248.5C 95.5,247.167 95.5,245.833 95.5,244.5C 96.8333,243.833 97.8333,242.833 98.5,241.5 Z M 278.5,243.5 C 278.973,244.906 279.973,245.573 281.5,245.5C 282.833,247.5 284.5,249.167 286.5,250.5C 286.5,251.833 287.167,252.5 288.5,252.5C 289.031,254.544 290.198,256.211 292,257.5C 292.594,263.856 292.427,270.189 291.5,276.5C 289.722,281.825 287.722,287.158 285.5,292.5C 284.662,292.842 284.328,293.508 284.5,294.5C 282.167,296.167 280.167,298.167 278.5,300.5C 277.167,300.5 276.5,301.167 276.5,302.5C 276.167,302.5 275.833,302.5 275.5,302.5C 273.973,302.427 272.973,303.094 272.5,304.5C 270.379,304.325 268.379,304.659 266.5,305.5C 263.167,305.167 259.833,304.833 256.5,304.5C 249.138,300.803 243.805,295.136 240.5,287.5C 240.573,285.973 239.906,284.973 238.5,284.5C 238.309,280.738 237.642,277.071 236.5,273.5C 237.537,268.537 237.537,263.537 236.5,258.5C 238.833,256.833 240.833,254.833 242.5,252.5C 243.906,252.027 244.573,251.027 244.5,249.5C 248.775,246.42 253.442,243.92 258.5,242C 265.311,241.065 271.977,241.565 278.5,243.5 Z M 384.5,253.5 C 385.028,254.721 385.695,255.887 386.5,257C 385.663,258.011 385.33,259.178 385.5,260.5C 384.005,260.989 382.671,261.655 381.5,262.5C 376.709,260.612 375.709,257.612 378.5,253.5C 380.5,252.167 382.5,252.167 384.5,253.5 Z M 145.5,263.5 C 144.262,263.81 144.262,264.31 145.5,265C 147.473,265.495 149.473,265.662 151.5,265.5C 152.301,267.042 152.634,268.708 152.5,270.5C 151.508,270.328 150.842,270.662 150.5,271.5C 148.25,271.181 146.25,271.681 144.5,273C 145.138,274.707 145.138,276.54 144.5,278.5C 142.708,278.634 141.042,278.301 139.5,277.5C 139.5,275.5 139.5,273.5 139.5,271.5C 136.487,271.893 133.82,271.226 131.5,269.5C 131.733,267.938 132.4,266.605 133.5,265.5C 135.5,265.5 137.5,265.5 139.5,265.5C 139.5,263.5 139.5,261.5 139.5,259.5C 141.042,258.699 142.708,258.366 144.5,258.5C 144.366,260.292 144.699,261.958 145.5,263.5 Z M 104.5,264.5 C 104.371,266.216 104.038,267.883 103.5,269.5C 102.508,269.328 101.842,269.662 101.5,270.5C 99.1417,270.747 97.1417,270.081 95.5,268.5C 96.1796,261.321 99.1796,259.988 104.5,264.5 Z M 115.5,286.5 C 114.094,286.973 113.427,287.973 113.5,289.5C 112.094,289.973 111.427,290.973 111.5,292.5C 108.895,296.05 107.061,300.05 106,304.5C 104.707,310.617 103.54,316.617 102.5,322.5C 101.041,322.567 99.7079,322.234 98.5,321.5C 98.5925,315.484 98.9258,309.484 99.5,303.5C 101.94,297.287 104.94,291.287 108.5,285.5C 109.906,285.027 110.573,284.027 110.5,282.5C 112.963,280.539 115.297,278.372 117.5,276C 121.532,273.692 123.032,274.858 122,279.5C 119.288,281.377 117.122,283.71 115.5,286.5 Z M 387.5,283.5 C 388.6,291.118 388.767,298.785 388,306.5C 387.283,307.044 386.783,307.711 386.5,308.5C 384.77,307.974 383.436,306.974 382.5,305.5C 383.244,295.651 381.244,295.318 376.5,304.5C 375.5,304.833 374.833,305.5 374.5,306.5C 372.359,308.122 370.692,310.122 369.5,312.5C 362.984,317.261 355.984,321.261 348.5,324.5C 345.512,325.161 342.512,325.828 339.5,326.5C 338.075,326.377 336.742,326.043 335.5,325.5C 335.238,324.022 335.571,322.689 336.5,321.5C 342.278,320.4 347.612,318.4 352.5,315.5C 354.434,314.89 356.101,313.89 357.5,312.5C 359.027,312.573 360.027,311.906 360.5,310.5C 362.027,310.573 363.027,309.906 363.5,308.5C 368.208,304.793 372.208,300.46 375.5,295.5C 377.3,294.105 377.634,292.439 376.5,290.5C 372.803,291.827 369.136,291.827 365.5,290.5C 365.5,289.5 365.5,288.5 365.5,287.5C 366.995,287.011 368.329,286.345 369.5,285.5C 375.489,284.74 381.489,284.073 387.5,283.5 Z M 113.5,339.5 C 113.714,341.144 113.38,342.644 112.5,344C 110.292,344.191 108.292,344.691 106.5,345.5C 105.745,348.053 105.078,350.72 104.5,353.5C 103.041,353.567 101.708,353.234 100.5,352.5C 100.802,349.941 100.468,347.607 99.5,345.5C 97.369,344.686 95.0356,344.186 92.5,344C 91.6634,342.989 91.33,341.822 91.5,340.5C 94.0545,339.612 96.7212,339.279 99.5,339.5C 98.1804,334.093 100.18,331.426 105.5,331.5C 103.833,338.5 106.5,341.167 113.5,339.5 Z M 162.5,359.5 C 163.234,360.708 163.567,362.041 163.5,363.5C 161.18,365.226 158.513,365.893 155.5,365.5C 155.5,367.5 155.5,369.5 155.5,371.5C 154.542,371.953 153.708,372.619 153,373.5C 152.292,372.619 151.458,371.953 150.5,371.5C 150.5,369.5 150.5,367.5 150.5,365.5C 147.721,365.721 145.054,365.388 142.5,364.5C 142.343,363.127 142.51,361.793 143,360.5C 145.069,359.736 147.236,359.236 149.5,359C 150.264,356.931 150.764,354.764 151,352.5C 152.333,351.167 153.667,351.167 155,352.5C 154.138,358.472 156.638,360.805 162.5,359.5 Z"/></g>
<g><path style="opacity:0.039" fill="#bfbebd" d="M 279.5,163.5 C 280.693,163.97 281.36,164.97 281.5,166.5C 281.66,168.355 280.993,169.688 279.5,170.5C 280.686,168.126 280.686,165.792 279.5,163.5 Z"/></g>
<g><path style="opacity:0.122" fill="#d8d9d8" d="M 278.5,171.5 C 280.948,172.473 283.615,172.806 286.5,172.5C 283.645,173.803 280.645,173.803 277.5,172.5C 277.624,171.893 277.957,171.56 278.5,171.5 Z"/></g>
<g><path style="opacity:0.808" fill="#838383" d="M 302.5,174.5 C 306.081,174.138 309.081,175.138 311.5,177.5C 308.341,176.669 305.341,175.669 302.5,174.5 Z"/></g>
<g><path style="opacity:0.837" fill="#646363" d="M 145.5,151.5 C 145.667,169.503 145.5,187.503 145,205.5C 144.722,206.416 144.222,207.082 143.5,207.5C 143.333,189.164 143.5,170.83 144,152.5C 144.383,151.944 144.883,151.611 145.5,151.5 Z"/></g>
<g><path style="opacity:0.541" fill="#837f7f" d="M 264.5,174.5 C 264.167,175.833 263.833,177.167 263.5,178.5C 262.147,176.872 262.481,175.538 264.5,174.5 Z"/></g>
<g><path style="opacity:0.759" fill="#706f70" d="M 335.5,151.5 C 336.117,151.611 336.617,151.944 337,152.5C 337.5,171.164 337.667,189.83 337.5,208.5C 336.778,208.082 336.278,207.416 336,206.5C 335.5,188.17 335.333,169.836 335.5,151.5 Z"/></g>
<g><path style="opacity:0.459" fill="#888888" d="M 238.5,174.5 C 238.5,176.167 238.5,177.833 238.5,179.5C 236.5,179.5 234.5,179.5 232.5,179.5C 233.919,178.549 235.585,178.216 237.5,178.5C 237.232,176.901 237.566,175.568 238.5,174.5 Z"/></g>
<g><path style="opacity:0.573" fill="#888786" d="M 242.5,172.5 C 244.614,173.784 245.614,175.784 245.5,178.5C 248.01,178.054 250.01,178.72 251.5,180.5C 249.199,179.94 246.866,179.44 244.5,179C 243.77,176.846 243.103,174.679 242.5,172.5 Z"/></g>
<g><path style="opacity:0.816" fill="#6d6e6e" d="M 408.5,183.5 C 408.47,178.549 406.137,177.216 401.5,179.5C 401.611,178.883 401.944,178.383 402.5,178C 408.494,176.164 410.494,177.997 408.5,183.5 Z"/></g>
<g><path style="opacity:0.853" fill="#777676" d="M 297.5,180.5 C 291.491,180.334 285.491,180.501 279.5,181C 280.252,181.671 280.586,182.504 280.5,183.5C 278.418,182.415 278.084,180.915 279.5,179C 285.743,178.187 291.743,178.687 297.5,180.5 Z"/></g>
<g><path style="opacity:0.184" fill="#a4a4a3" d="M 311.5,177.5 C 312.693,177.97 313.36,178.97 313.5,180.5C 313.36,182.03 312.693,183.03 311.5,183.5C 312.833,181.5 312.833,179.5 311.5,177.5 Z"/></g>
<g><path style="opacity:1" fill="#525051" d="M 83.5,188.5 C 81.6366,186.295 79.3033,184.961 76.5,184.5C 76.5,183.5 76.5,182.5 76.5,181.5C 74.7085,181.366 73.0418,181.699 71.5,182.5C 71.9704,181.307 72.9704,180.64 74.5,180.5C 78.7432,181.742 81.7432,184.409 83.5,188.5 Z"/></g>
<g><path style="opacity:0.999" fill="#262525" d="M 124.5,192.5 C 122.596,192.738 121.262,193.738 120.5,195.5C 120.5,196.833 119.833,197.5 118.5,197.5C 117.094,197.973 116.427,198.973 116.5,200.5C 114.454,203.706 111.621,206.039 108,207.5C 103.088,205.813 102.255,202.813 105.5,198.5C 111.652,192.848 117.652,187.015 123.5,181C 126.994,180.139 129.327,181.472 130.5,185C 129.321,188.209 127.321,190.709 124.5,192.5 Z"/></g>
<g><path style="opacity:0.999" fill="#212020" d="M 367.5,197.5 C 367.167,196.5 366.5,195.833 365.5,195.5C 365.167,194.5 364.5,193.833 363.5,193.5C 363.167,192.5 362.5,191.833 361.5,191.5C 360.167,191.5 359.5,190.833 359.5,189.5C 358.73,187.065 357.063,185.731 354.5,185.5C 352.041,182.826 352.374,180.326 355.5,178C 356.833,177.333 358.167,177.333 359.5,178C 365.667,184.167 371.833,190.333 378,196.5C 379.418,200.442 378.084,202.775 374,203.5C 371,202.331 368.834,200.331 367.5,197.5 Z"/></g>
<g><path style="opacity:0.604" fill="#6d6b6b" d="M 251.5,184.5 C 250.01,186.28 248.01,186.946 245.5,186.5C 245.88,188.698 245.213,190.365 243.5,191.5C 244.15,189.565 244.483,187.565 244.5,185.5C 246.903,185.552 249.236,185.219 251.5,184.5 Z"/></g>
<g><path style="opacity:0.082" fill="#bbbbbb" d="M 218.5,187.5 C 219.601,186.402 220.934,186.235 222.5,187C 223.252,187.671 223.586,188.504 223.5,189.5C 222.18,188.058 220.514,187.392 218.5,187.5 Z"/></g>
<g><path style="opacity:0.341" fill="#a39fa1" d="M 231.5,184.5 C 233.717,185.369 236.05,185.702 238.5,185.5C 238.5,187.5 238.5,189.5 238.5,191.5C 237.549,190.081 237.216,188.415 237.5,186.5C 234.918,186.975 232.918,186.308 231.5,184.5 Z"/></g>
<g><path style="opacity:0.635" fill="#7b7979" d="M 354.5,185.5 C 357.063,185.731 358.73,187.065 359.5,189.5C 357.251,188.92 355.585,187.587 354.5,185.5 Z"/></g>
<g><path style="opacity:0.998" fill="#222121" d="M 408.5,183.5 C 407.581,186.089 405.914,188.089 403.5,189.5C 402.167,189.5 401.5,190.167 401.5,191.5C 399.5,191.5 398.5,192.5 398.5,194.5C 396.079,198.249 392.745,200.916 388.5,202.5C 384.851,201.461 383.684,199.128 385,195.5C 390.369,189.964 395.869,184.63 401.5,179.5C 406.137,177.216 408.47,178.549 408.5,183.5 Z"/></g>
<g><path style="opacity:0.678" fill="#9f9d9e" d="M 84.5,188.5 C 86.1667,189.5 87.5,190.833 88.5,192.5C 86.1667,192.167 84.8333,190.833 84.5,188.5 Z"/></g>
<g><path style="opacity:0.02" fill="#d6ddd5" d="M 403.5,189.5 C 403.167,190.5 402.5,191.167 401.5,191.5C 401.5,190.167 402.167,189.5 403.5,189.5 Z"/></g>
<g><path style="opacity:0.999" fill="#161313" d="M 83.5,188.5 C 83.8333,188.5 84.1667,188.5 84.5,188.5C 84.8333,190.833 86.1667,192.167 88.5,192.5C 89.4349,195.113 89.6015,197.779 89,200.5C 88.2917,201.381 87.4584,202.047 86.5,202.5C 84.8333,201.5 83.5,200.167 82.5,198.5C 81.8333,195.833 80.1667,194.167 77.5,193.5C 75.2034,191.706 73.0367,189.706 71,187.5C 70.2204,185.613 70.3871,183.946 71.5,182.5C 73.0418,181.699 74.7085,181.366 76.5,181.5C 76.5,182.5 76.5,183.5 76.5,184.5C 79.3033,184.961 81.6366,186.295 83.5,188.5 Z"/></g>
<g><path style="opacity:0.376" fill="#8d8988" d="M 238.5,191.5 C 239.708,192.234 241.041,192.567 242.5,192.5C 242.083,193.124 241.416,193.457 240.5,193.5C 239.287,193.253 238.62,192.586 238.5,191.5 Z"/></g>
<g><path style="opacity:0.027" fill="#bcbcbc" d="M 361.5,191.5 C 362.5,191.833 363.167,192.5 363.5,193.5C 362.167,193.5 361.5,192.833 361.5,191.5 Z"/></g>
<g><path style="opacity:0.035" fill="#c1c2c2" d="M 401.5,191.5 C 400.833,192.833 399.833,193.833 398.5,194.5C 398.5,192.5 399.5,191.5 401.5,191.5 Z"/></g>
<g><path style="opacity:0.722" fill="#939192" d="M 77.5,193.5 C 80.1667,194.167 81.8333,195.833 82.5,198.5C 80.5,197.167 78.8333,195.5 77.5,193.5 Z"/></g>
<g><path style="opacity:0.008" fill="#dcdcdb" d="M 214.5,190.5 C 212.833,192.833 210.833,194.833 208.5,196.5C 209.5,193.5 211.5,191.5 214.5,190.5 Z"/></g>
<g><path style="opacity:0.043" fill="#bebebe" d="M 124.5,192.5 C 123.738,194.262 122.404,195.262 120.5,195.5C 121.262,193.738 122.596,192.738 124.5,192.5 Z"/></g>
<g><path style="opacity:0.024" fill="#c0bfc0" d="M 363.5,193.5 C 364.5,193.833 365.167,194.5 365.5,195.5C 364.167,195.5 363.5,194.833 363.5,193.5 Z"/></g>
<g><path style="opacity:1" fill="#454142" d="M 88.5,192.5 C 91.1667,194.5 93.5,196.833 95.5,199.5C 95.5,200.167 95.5,200.833 95.5,201.5C 94.6219,199.127 92.9552,198.294 90.5,199C 89.8336,201.329 89.8336,203.829 90.5,206.5C 88.8333,205.5 87.5,204.167 86.5,202.5C 87.4584,202.047 88.2917,201.381 89,200.5C 89.6015,197.779 89.4349,195.113 88.5,192.5 Z"/></g>
<g><path style="opacity:0.584" fill="#9c9b9c" d="M 219.5,194.5 C 218.738,196.262 217.404,197.262 215.5,197.5C 216.262,195.738 217.596,194.738 219.5,194.5 Z"/></g>
<g><path style="opacity:0.024" fill="#c2acc1" d="M 365.5,195.5 C 366.5,195.833 367.167,196.5 367.5,197.5C 366.167,197.5 365.5,196.833 365.5,195.5 Z"/></g>
<g><path style="opacity:0.059" fill="#d1d1d0" d="M 208.5,196.5 C 208.167,197.5 207.5,198.167 206.5,198.5C 206.5,197.167 207.167,196.5 208.5,196.5 Z"/></g>
<g><path style="opacity:0.039" fill="#c1bfc0" d="M 118.5,197.5 C 118.573,199.027 117.906,200.027 116.5,200.5C 116.427,198.973 117.094,197.973 118.5,197.5 Z"/></g>
<g><path style="opacity:0.647" fill="#919091" d="M 215.5,197.5 C 214.92,199.749 213.587,201.415 211.5,202.5C 212.08,200.251 213.413,198.585 215.5,197.5 Z"/></g>
<g><path style="opacity:0.998" fill="#1c191a" d="M 95.5,201.5 C 96.4511,202.919 96.7845,204.585 96.5,206.5C 94.5,207.833 92.5,207.833 90.5,206.5C 89.8336,203.829 89.8336,201.329 90.5,199C 92.9552,198.294 94.6219,199.127 95.5,201.5 Z"/></g>
<g><path style="opacity:0.322" fill="#aeadaf" d="M 95.5,199.5 C 96.9931,200.312 97.6598,201.645 97.5,203.5C 97.4805,204.726 97.1471,205.726 96.5,206.5C 96.7845,204.585 96.4511,202.919 95.5,201.5C 95.5,200.833 95.5,200.167 95.5,199.5 Z"/></g>
<g><path style="opacity:0.937" fill="#696768" d="M 211.5,202.5 C 210.92,204.749 209.587,206.415 207.5,207.5C 208.08,205.251 209.413,203.585 211.5,202.5 Z"/></g>
<g><path style="opacity:0.678" fill="#7a7776" d="M 201.5,204.5 C 200.706,210.689 202.706,211.689 207.5,207.5C 206.601,210.452 204.601,211.619 201.5,211C 198.963,208.799 198.963,206.632 201.5,204.5 Z"/></g>
<g><path style="opacity:0.588" fill="#ababab" d="M 337.5,208.5 C 338.833,209.167 339.833,210.167 340.5,211.5C 338.5,211.5 337.5,210.5 337.5,208.5 Z"/></g>
<g><path style="opacity:0.624" fill="#919092" d="M 143.5,208.5 C 143.5,210.5 142.5,211.5 140.5,211.5C 141.167,210.167 142.167,209.167 143.5,208.5 Z"/></g>
<g><path style="opacity:0.761" fill="#474646" d="M 138.5,212.5 C 138.082,213.222 137.416,213.722 136.5,214C 130.843,214.499 125.176,214.666 119.5,214.5C 125.685,213.712 132.018,213.045 138.5,212.5 Z"/></g>
<g><path style="opacity:0.569" fill="#8b8b8d" d="M 273.5,215.5 C 267.506,214.26 261.506,214.26 255.5,215.5C 261.51,212.905 267.51,212.905 273.5,215.5 Z"/></g>
<g><path style="opacity:0.733" fill="#4b4948" d="M 344.5,213.5 C 352.84,213.334 361.173,213.5 369.5,214C 370.056,214.383 370.389,214.883 370.5,215.5C 361.703,214.888 353.036,214.221 344.5,213.5 Z"/></g>
<g><path style="opacity:0.673" fill="#636261" d="M 417.5,214.5 C 408.779,214.225 400.113,214.558 391.5,215.5C 392.622,214.053 394.122,213.053 396,212.5C 403.266,213.151 410.432,213.818 417.5,214.5 Z"/></g>
<g><path style="opacity:1" fill="#454343" d="M 60.5,214.5 C 67.6549,213.345 74.9882,213.178 82.5,214C 84.7059,216.037 86.7059,218.203 88.5,220.5C 86.1789,220.342 84.3455,219.342 83,217.5C 82.6667,217.833 82.3333,218.167 82,218.5C 80.8118,217.437 80.3118,216.103 80.5,214.5C 73.8333,214.5 67.1667,214.5 60.5,214.5 Z"/></g>
<g><path style="opacity:0.11" fill="#bab9b8" d="M 196.5,215.5 C 194.162,217.04 191.495,217.706 188.5,217.5C 190.905,216.232 193.572,215.565 196.5,215.5 Z"/></g>
<g><path style="opacity:0.969" fill="#7e7d7d" d="M 251.5,216.5 C 248.876,217.494 246.21,218.494 243.5,219.5C 245.557,217.144 248.224,216.144 251.5,216.5 Z"/></g>
<g><path style="opacity:0.843" fill="#7f7e7e" d="M 419.5,215.5 C 421.262,216.262 422.262,217.596 422.5,219.5C 420.738,218.738 419.738,217.404 419.5,215.5 Z"/></g>
<g><path style="opacity:0.008" fill="#d1d0d1" d="M 372.5,217.5 C 373.833,217.5 374.5,218.167 374.5,219.5C 373.5,219.167 372.833,218.5 372.5,217.5 Z"/></g>
<g><path style="opacity:0.624" fill="#807e7f" d="M 57.5,216.5 C 57.573,218.027 56.9063,219.027 55.5,219.5C 55.427,217.973 56.0937,216.973 57.5,216.5 Z"/></g>
<g><path style="opacity:0.149" fill="#b2afaf" d="M 281.5,217.5 C 283.153,217.66 284.486,218.326 285.5,219.5C 283.62,219.771 282.287,219.104 281.5,217.5 Z"/></g>
<g><path style="opacity:0.031" fill="#bcbcbc" d="M 374.5,219.5 C 375.833,219.5 376.5,220.167 376.5,221.5C 375.5,221.167 374.833,220.5 374.5,219.5 Z"/></g>
<g><path style="opacity:0.271" fill="#b0b0ae" d="M 285.5,219.5 C 287.027,219.427 288.027,220.094 288.5,221.5C 286.973,221.573 285.973,220.906 285.5,219.5 Z"/></g>
<g><path style="opacity:0.004" fill="#d4d4d4" d="M 241.5,220.5 C 241.027,221.906 240.027,222.573 238.5,222.5C 238.973,221.094 239.973,220.427 241.5,220.5 Z"/></g>
<g><path style="opacity:0.761" fill="#848283" d="M 272.5,223.5 C 267.167,223.5 261.833,223.5 256.5,223.5C 261.833,220.833 267.167,220.833 272.5,223.5 Z"/></g>
<g><path style="opacity:0.878" fill="#61605e" d="M 256.5,223.5 C 254.485,224.924 252.152,225.59 249.5,225.5C 251.438,223.837 253.772,223.171 256.5,223.5 Z"/></g>
<g><path style="opacity:0.608" fill="#918f8f" d="M 273.5,223.5 C 275.786,223.595 277.786,224.262 279.5,225.5C 277.102,225.741 275.102,225.074 273.5,223.5 Z"/></g>
<g><path style="opacity:0.039" fill="#c6c6c6" d="M 185.5,225.5 C 185.735,224.903 186.235,224.57 187,224.5C 188.718,225.031 188.885,225.698 187.5,226.5C 187.158,225.662 186.492,225.328 185.5,225.5 Z"/></g>
<g><path style="opacity:0.004" fill="#d3d3d3" d="M 234.5,225.5 C 234.5,226.833 233.833,227.5 232.5,227.5C 232.833,226.5 233.5,225.833 234.5,225.5 Z"/></g>
<g><path style="opacity:0.016" fill="#c5c5c5" d="M 294.5,225.5 C 295.5,225.833 296.167,226.5 296.5,227.5C 295.167,227.5 294.5,226.833 294.5,225.5 Z"/></g>
<g><path style="opacity:1" fill="#3f3f3e" d="M 90.5,222.5 C 92.8333,224.167 94.8333,226.167 96.5,228.5C 95.0695,228.421 93.7362,228.754 92.5,229.5C 89.972,228.483 89.972,227.316 92.5,226C 91.1772,225.184 90.5106,224.017 90.5,222.5 Z"/></g>
<g><path style="opacity:0.016" fill="#c0bfc0" d="M 296.5,227.5 C 297.5,227.833 298.167,228.5 298.5,229.5C 297.167,229.5 296.5,228.833 296.5,227.5 Z"/></g>
<g><path style="opacity:0.545" fill="#9a999a" d="M 112.5,220.5 C 110.167,224.833 106.833,228.167 102.5,230.5C 105.5,226.833 108.833,223.5 112.5,220.5 Z"/></g>
<g><path style="opacity:0.024" fill="#cecece" d="M 230.5,229.5 C 230.573,231.027 229.906,232.027 228.5,232.5C 228.427,230.973 229.094,229.973 230.5,229.5 Z"/></g>
<g><path style="opacity:0.561" fill="#9b9899" d="M 285.5,228.5 C 287.23,229.026 288.564,230.026 289.5,231.5C 287.368,231.446 286.035,230.446 285.5,228.5 Z"/></g>
<g><path style="opacity:0.075" fill="#bababa" d="M 196.5,239.5 C 195.262,236.739 193.928,234.072 192.5,231.5C 192.783,230.711 193.283,230.044 194,229.5C 195.245,232.679 196.078,236.012 196.5,239.5 Z"/></g>
<g><path style="opacity:0.706" fill="#989194" d="M 289.5,231.5 C 290.833,232.167 291.833,233.167 292.5,234.5C 290.5,234.5 289.5,233.5 289.5,231.5 Z"/></g>
<g><path style="opacity:1" fill="#484647" d="M 227.5,233.5 C 226.649,235.882 225.316,237.882 223.5,239.5C 223.5,237.5 223.5,235.5 223.5,233.5C 224.833,233.5 226.167,233.5 227.5,233.5 Z"/></g>
<g><path style="opacity:0.039" fill="#ddd0cf" d="M 379.5,233.5 C 379.167,234.5 378.5,235.167 377.5,235.5C 377.5,234.167 378.167,233.5 379.5,233.5 Z"/></g>
<g><path style="opacity:0.635" fill="#afaead" d="M 384.5,234.5 C 386.048,234.821 386.715,235.821 386.5,237.5C 385.599,236.71 384.932,235.71 384.5,234.5 Z"/></g>
<g><path style="opacity:0.678" fill="#969596" d="M 236.5,234.5 C 236.262,236.404 235.262,237.738 233.5,238.5C 233.738,236.596 234.738,235.262 236.5,234.5 Z"/></g>
<g><path style="opacity:0.573" fill="#abaaab" d="M 292.5,234.5 C 293.906,234.973 294.573,235.973 294.5,237.5C 293.094,237.027 292.427,236.027 292.5,234.5 Z"/></g>
<g><path style="opacity:0.635" fill="#787774" d="M 377.5,235.5 C 377.167,236.833 376.833,238.167 376.5,239.5C 375.147,237.872 375.481,236.538 377.5,235.5 Z"/></g>
<g><path style="opacity:0.8" fill="#868485" d="M 294.5,237.5 C 296.262,238.262 297.262,239.596 297.5,241.5C 295.738,240.738 294.738,239.404 294.5,237.5 Z"/></g>
<g><path style="opacity:1" fill="#585757" d="M 98.5,241.5 C 97.8333,242.833 96.8333,243.833 95.5,244.5C 93.6963,240.548 94.6963,239.548 98.5,241.5 Z"/></g>
<g><path style="opacity:0.612" fill="#908f89" d="M 376.5,239.5 C 377.833,240.167 378.833,241.167 379.5,242.5C 377.5,242.5 376.5,241.5 376.5,239.5 Z"/></g>
<g><path style="opacity:0.545" fill="#989594" d="M 386.5,239.5 C 386.5,241.5 385.5,242.5 383.5,242.5C 384.167,241.167 385.167,240.167 386.5,239.5 Z"/></g>
<g><path style="opacity:0.02" fill="#cecdcd" d="M 177.5,241.5 C 177.573,243.027 176.906,244.027 175.5,244.5C 175.427,242.973 176.094,241.973 177.5,241.5 Z"/></g>
<g><path style="opacity:1" fill="#595859" d="M 233.5,238.5 C 233.408,240.848 232.408,242.514 230.5,243.5C 230.75,241.326 231.75,239.659 233.5,238.5 Z"/></g>
<g><path style="opacity:0.004" fill="#fefffe" d="M 424.5,242.5 C 425.598,243.601 425.765,244.934 425,246.5C 424.51,245.207 424.343,243.873 424.5,242.5 Z"/></g>
<g><path style="opacity:0.341" fill="#aaa8ab" d="M 278.5,243.5 C 280.027,243.427 281.027,244.094 281.5,245.5C 279.973,245.573 278.973,244.906 278.5,243.5 Z"/></g>
<g><path style="opacity:0.569" fill="#959495" d="M 221.5,244.5 C 221.405,246.786 220.738,248.786 219.5,250.5C 219.259,248.102 219.926,246.102 221.5,244.5 Z"/></g>
<g><path style="opacity:0.616" fill="#908e8f" d="M 307.5,245.5 C 309.163,247.438 309.829,249.772 309.5,252.5C 308.388,250.401 307.721,248.067 307.5,245.5 Z"/></g>
<g><path style="opacity:0.4" fill="#bdbdbd" d="M 95.5,248.5 C 96.9063,248.973 97.573,249.973 97.5,251.5C 96.0937,251.027 95.427,250.027 95.5,248.5 Z"/></g>
<g><path style="opacity:0.973" fill="#626261" d="M 104.5,244.5 C 105.147,245.274 105.48,246.274 105.5,247.5C 105.36,249.03 104.693,250.03 103.5,250.5C 104.15,248.565 104.483,246.565 104.5,244.5 Z"/></g>
<g><path style="opacity:0.998" fill="#2c2b2a" d="M 183.5,245.5 C 182.834,248.171 182.834,250.671 183.5,253C 181.291,254.691 179.458,254.524 178,252.5C 177.617,253.056 177.117,253.389 176.5,253.5C 178.467,250.532 180.8,247.865 183.5,245.5 Z"/></g>
<g><path style="opacity:0.753" fill="#676566" d="M 229.5,245.5 C 229.741,247.898 229.074,249.898 227.5,251.5C 227.259,249.102 227.926,247.102 229.5,245.5 Z"/></g>
<g><path style="opacity:0.016" fill="#c3c2c3" d="M 244.5,249.5 C 244.573,251.027 243.906,252.027 242.5,252.5C 242.427,250.973 243.094,249.973 244.5,249.5 Z"/></g>
<g><path style="opacity:0.004" fill="#fefffe" d="M 424.5,250.5 C 425.525,250.897 425.692,251.563 425,252.5C 424.536,251.906 424.369,251.239 424.5,250.5 Z"/></g>
<g><path style="opacity:0.004" fill="#ccccce" d="M 286.5,250.5 C 287.5,250.833 288.167,251.5 288.5,252.5C 287.167,252.5 286.5,251.833 286.5,250.5 Z"/></g>
<g><path style="opacity:0.59" fill="#888885" d="M 384.5,253.5 C 382.5,252.167 380.5,252.167 378.5,253.5C 380.5,250.833 382.5,250.833 384.5,253.5 Z"/></g>
<g><path style="opacity:0.004" fill="#fefffe" d="M 424.5,253.5 C 425.833,254.167 425.833,254.167 424.5,253.5 Z"/></g>
<g><path style="opacity:0.999" fill="#3f3e3d" d="M 176.5,253.5 C 176.632,257.763 174.632,259.763 170.5,259.5C 171.833,256.833 173.833,254.833 176.5,253.5 Z"/></g>
<g><path style="opacity:0.29" fill="#b6b6b6" d="M 163.5,256.5 C 162.559,258.05 161.893,259.716 161.5,261.5C 160.402,260.399 160.235,259.066 161,257.5C 161.671,256.748 162.504,256.414 163.5,256.5 Z"/></g>
<g><path style="opacity:0.875" fill="#83807f" d="M 385.5,260.5 C 384.817,262.176 383.483,262.843 381.5,262.5C 382.671,261.655 384.005,260.989 385.5,260.5 Z"/></g>
<g><path style="opacity:0.451" fill="#7a7877" d="M 161.5,261.5 C 162.708,262.234 164.041,262.567 165.5,262.5C 165.083,263.124 164.416,263.457 163.5,263.5C 162.287,263.253 161.62,262.586 161.5,261.5 Z"/></g>
<g><path style="opacity:0.345" fill="#aba8a8" d="M 139.5,259.5 C 139.5,261.5 139.5,263.5 139.5,265.5C 137.5,265.5 135.5,265.5 133.5,265.5C 134.919,264.549 136.585,264.216 138.5,264.5C 138.216,262.585 138.549,260.919 139.5,259.5 Z"/></g>
<g><path style="opacity:0.145" fill="#b5b4b4" d="M 145.5,263.5 C 147.626,264.048 149.626,264.715 151.5,265.5C 149.473,265.662 147.473,265.495 145.5,265C 144.262,264.31 144.262,263.81 145.5,263.5 Z"/></g>
<g><path style="opacity:0.51" fill="#797876" d="M 104.5,264.5 C 105.93,266.455 105.597,268.121 103.5,269.5C 104.038,267.883 104.371,266.216 104.5,264.5 Z"/></g>
<g><path style="opacity:0.275" fill="#b8b6b6" d="M 236.5,258.5 C 237.537,263.537 237.537,268.537 236.5,273.5C 235.167,268.5 235.167,263.5 236.5,258.5 Z"/></g>
<g><path style="opacity:0.173" fill="#999796" d="M 151.5,265.5 C 152.649,265.791 153.316,266.624 153.5,268C 153.472,269.07 153.139,269.903 152.5,270.5C 152.634,268.708 152.301,267.042 151.5,265.5 Z"/></g>
<g><path style="opacity:0.035" fill="#c6c6c5" d="M 95.5,268.5 C 97.1417,270.081 99.1417,270.747 101.5,270.5C 100.054,271.613 98.3869,271.78 96.5,271C 95.7476,270.329 95.4142,269.496 95.5,268.5 Z"/></g>
<g><path style="opacity:0.522" fill="#878684" d="M 131.5,269.5 C 133.82,271.226 136.487,271.893 139.5,271.5C 139.5,273.5 139.5,275.5 139.5,277.5C 138.549,276.081 138.216,274.415 138.5,272.5C 136.473,272.662 134.473,272.495 132.5,272C 131.748,271.329 131.414,270.496 131.5,269.5 Z"/></g>
<g><path style="opacity:0.702" fill="#71706f" d="M 150.5,271.5 C 149.432,272.434 148.099,272.768 146.5,272.5C 146.946,275.01 146.28,277.01 144.5,278.5C 145.138,276.54 145.138,274.707 144.5,273C 146.25,271.681 148.25,271.181 150.5,271.5 Z"/></g>
<g><path style="opacity:0.776" fill="#717070" d="M 226.5,269.5 C 227.404,271.638 228.071,273.971 228.5,276.5C 228.547,278.038 227.88,279.038 226.5,279.5C 226.982,276.279 226.982,272.946 226.5,269.5 Z"/></g>
<g><path style="opacity:0.014" fill="#dfdede" d="M 139.5,277.5 C 141.042,278.301 142.708,278.634 144.5,278.5C 143.903,279.139 143.07,279.472 142,279.5C 140.624,279.316 139.791,278.649 139.5,277.5 Z"/></g>
<g><path style="opacity:0.961" fill="#7a7877" d="M 301.5,273.5 C 301.185,276.211 301.852,278.544 303.5,280.5C 302.5,280.5 301.5,280.5 300.5,280.5C 300.198,277.941 300.532,275.607 301.5,273.5 Z"/></g>
<g><path style="opacity:0.012" fill="#d0d0cf" d="M 110.5,282.5 C 110.573,284.027 109.906,285.027 108.5,285.5C 108.427,283.973 109.094,282.973 110.5,282.5 Z"/></g>
<g><path style="opacity:1" fill="#534f4f" d="M 369.5,285.5 C 368.329,286.345 366.995,287.011 365.5,287.5C 365.238,286.022 365.571,284.689 366.5,283.5C 367.696,283.846 367.696,284.346 366.5,285C 367.448,285.483 368.448,285.649 369.5,285.5 Z"/></g>
<g><path style="opacity:0.161" fill="#bcbfbf" d="M 238.5,284.5 C 239.906,284.973 240.573,285.973 240.5,287.5C 239.094,287.027 238.427,286.027 238.5,284.5 Z"/></g>
<g><path style="opacity:1" fill="#333132" d="M 291.5,276.5 C 291.213,281.099 290.379,285.432 289,289.5C 291.687,286.695 292.687,287.029 292,290.5C 291.667,290.167 291.333,289.833 291,289.5C 289.134,290.527 287.3,291.527 285.5,292.5C 287.722,287.158 289.722,281.825 291.5,276.5 Z"/></g>
<g><path style="opacity:0.467" fill="#969695" d="M 115.5,286.5 C 115.573,288.027 114.906,289.027 113.5,289.5C 113.427,287.973 114.094,286.973 115.5,286.5 Z"/></g>
<g><path style="opacity:0.536" fill="#868484" d="M 387.5,283.5 C 388.117,283.611 388.617,283.944 389,284.5C 389.667,292.167 389.667,299.833 389,307.5C 388.329,308.252 387.496,308.586 386.5,308.5C 386.783,307.711 387.283,307.044 388,306.5C 388.767,298.785 388.6,291.118 387.5,283.5 Z"/></g>
<g><path style="opacity:0.004" fill="#fefffe" d="M 424.5,294.5 C 424.34,292.801 424.506,291.134 425,289.5C 425.78,291.387 425.613,293.054 424.5,294.5 Z"/></g>
<g><path style="opacity:0.439" fill="#919390" d="M 113.5,289.5 C 113.573,291.027 112.906,292.027 111.5,292.5C 111.427,290.973 112.094,289.973 113.5,289.5 Z"/></g>
<g><path style="opacity:0.773" fill="#908f8f" d="M 365.5,290.5 C 369.136,291.827 372.803,291.827 376.5,290.5C 377.634,292.439 377.3,294.105 375.5,295.5C 375.5,294.5 375.5,293.5 375.5,292.5C 371.671,293.069 368.337,292.402 365.5,290.5 Z"/></g>
<g><path style="opacity:0.004" fill="#fefffe" d="M 424.5,297.5 C 425.525,297.897 425.692,298.563 425,299.5C 424.536,298.906 424.369,298.239 424.5,297.5 Z"/></g>
<g><path style="opacity:0.725" fill="#6c6b6b" d="M 284.5,294.5 C 283.5,297.5 281.5,299.5 278.5,300.5C 280.167,298.167 282.167,296.167 284.5,294.5 Z"/></g>
<g><path style="opacity:0.29" fill="#b0b0b0" d="M 278.5,300.5 C 278.167,301.5 277.5,302.167 276.5,302.5C 276.5,301.167 277.167,300.5 278.5,300.5 Z"/></g>
<g><path style="opacity:0.995" fill="#3d3d3d" d="M 382.5,305.5 C 381.206,304.71 380.039,303.71 379,302.5C 378.583,303.756 377.75,304.423 376.5,304.5C 381.244,295.318 383.244,295.651 382.5,305.5 Z"/></g>
<g><path style="opacity:0.007" fill="#fefffe" d="M 423.5,302.5 C 424.266,304.684 424.933,307.018 425.5,309.5C 425.125,319.264 424.959,329.264 425,339.5C 424.823,335.644 424.323,331.977 423.5,328.5C 423.5,325.833 423.5,323.167 423.5,320.5C 424.833,319.167 424.833,317.833 423.5,316.5C 423.5,311.833 423.5,307.167 423.5,302.5 Z"/></g>
<g><path style="opacity:0.718" fill="#8e8c8c" d="M 275.5,302.5 C 275.027,303.906 274.027,304.573 272.5,304.5C 272.973,303.094 273.973,302.427 275.5,302.5 Z"/></g>
<g><path style="opacity:0.598" fill="#7a7a7a" d="M 256.5,304.5 C 259.833,304.833 263.167,305.167 266.5,305.5C 263.07,306.71 259.737,306.376 256.5,304.5 Z"/></g>
<g><path style="opacity:0.008" fill="#d7d7d6" d="M 363.5,308.5 C 363.027,309.906 362.027,310.573 360.5,310.5C 360.973,309.094 361.973,308.427 363.5,308.5 Z"/></g>
<g><path style="opacity:1" fill="#545253" d="M 374.5,306.5 C 373.834,310.041 372.168,312.041 369.5,312.5C 370.692,310.122 372.359,308.122 374.5,306.5 Z"/></g>
<g><path style="opacity:0.392" fill="#a4a2a2" d="M 285.5,311.5 C 287.027,311.427 288.027,312.094 288.5,313.5C 286.973,313.573 285.973,312.906 285.5,311.5 Z"/></g>
<g><path style="opacity:1" fill="#5c5c5b" d="M 357.5,312.5 C 356.101,313.89 354.434,314.89 352.5,315.5C 352.579,314.042 353.079,312.708 354,311.5C 355.011,312.337 356.178,312.67 357.5,312.5 Z"/></g>
<g><path style="opacity:0.192" fill="#b5b4b7" d="M 99.5,303.5 C 98.9258,309.484 98.5925,315.484 98.5,321.5C 97.1715,315.434 97.5048,309.434 99.5,303.5 Z"/></g>
<g><path style="opacity:0.38" fill="#b0afae" d="M 291.5,315.5 C 293.027,315.427 294.027,316.094 294.5,317.5C 292.973,317.573 291.973,316.906 291.5,315.5 Z"/></g>
<g><path style="opacity:0.933" fill="#706e6e" d="M 294.5,317.5 C 295.613,318.946 295.78,320.613 295,322.5C 293.943,327.101 292.443,331.434 290.5,335.5C 291.833,329.5 293.167,323.5 294.5,317.5 Z"/></g>
<g><path style="opacity:0.286" fill="#929290" d="M 98.5,321.5 C 99.7079,322.234 101.041,322.567 102.5,322.5C 102.083,323.124 101.416,323.457 100.5,323.5C 99.2867,323.253 98.62,322.586 98.5,321.5 Z"/></g>
<g><path style="opacity:0.725" fill="#717071" d="M 233.5,317.5 C 233.993,319.806 234.326,322.139 234.5,324.5C 232.688,322.287 232.355,319.953 233.5,317.5 Z"/></g>
<g><path style="opacity:0.063" fill="#c4c4c1" d="M 223.5,328.5 C 223.87,324.814 222.537,323.814 219.5,325.5C 220.635,323.787 222.302,323.12 224.5,323.5C 224.784,325.415 224.451,327.081 223.5,328.5 Z"/></g>
<g><path style="opacity:1" fill="#413f3f" d="M 309.5,325.5 C 311.5,325.5 313.5,325.5 315.5,325.5C 315.433,326.959 315.766,328.292 316.5,329.5C 313.669,328.921 311.336,327.588 309.5,325.5 Z"/></g>
<g><path style="opacity:0.996" fill="#51504e" d="M 348.5,324.5 C 346.191,326.727 343.358,327.727 340,327.5C 338.014,327.431 336.514,326.765 335.5,325.5C 336.742,326.043 338.075,326.377 339.5,326.5C 342.512,325.828 345.512,325.161 348.5,324.5 Z"/></g>
<g><path style="opacity:0.831" fill="#838685" d="M 255.5,328.5 C 253.5,328.5 251.5,328.5 249.5,328.5C 251.358,326.269 253.358,326.269 255.5,328.5 Z"/></g>
<g><path style="opacity:0.012" fill="#c5c6c6" d="M 277.5,327.5 C 278.833,327.5 279.5,328.167 279.5,329.5C 278.5,329.167 277.833,328.5 277.5,327.5 Z"/></g>
<g><path style="opacity:0.235" fill="#c3c4c4" d="M 210.5,329.5 C 211.209,328.596 212.209,328.263 213.5,328.5C 212.895,330.481 211.895,330.815 210.5,329.5 Z"/></g>
<g><path style="opacity:0.714" fill="#7f7f7f" d="M 274.5,327.5 C 274.027,328.906 273.027,329.573 271.5,329.5C 271.973,328.094 272.973,327.427 274.5,327.5 Z"/></g>
<g><path style="opacity:0.31" fill="#a5a3a5" d="M 316.5,329.5 C 318.027,329.427 319.027,330.094 319.5,331.5C 317.973,331.573 316.973,330.906 316.5,329.5 Z"/></g>
<g><path style="opacity:1" fill="#1e1c1c" d="M 277.5,327.5 C 277.833,328.5 278.5,329.167 279.5,329.5C 280.651,334.65 280.817,339.984 280,345.5C 279.617,346.056 279.117,346.389 278.5,346.5C 276.435,346.483 274.435,346.15 272.5,345.5C 272.027,344.094 271.027,343.427 269.5,343.5C 263.602,341.323 258.602,342.49 254.5,347C 252.299,347.825 250.466,347.325 249,345.5C 248.182,339.651 248.348,333.985 249.5,328.5C 251.5,328.5 253.5,328.5 255.5,328.5C 256.035,330.446 257.368,331.446 259.5,331.5C 262.609,331.264 265.609,331.597 268.5,332.5C 269.833,331.833 270.833,330.833 271.5,329.5C 273.027,329.573 274.027,328.906 274.5,327.5C 275.5,326.167 276.5,326.167 277.5,327.5 Z"/></g>
<g><path style="opacity:0.537" fill="#9e9b9c" d="M 271.5,329.5 C 270.833,330.833 269.833,331.833 268.5,332.5C 268.5,330.5 269.5,329.5 271.5,329.5 Z"/></g>
<g><path style="opacity:0.616" fill="#8d8c8e" d="M 255.5,328.5 C 257.23,329.026 258.564,330.026 259.5,331.5C 257.368,331.446 256.035,330.446 255.5,328.5 Z"/></g>
<g><path style="opacity:0.855" fill="#7f7c7d" d="M 304.5,328.5 C 305.537,329.93 306.204,331.597 306.5,333.5C 304.787,332.365 304.12,330.698 304.5,328.5 Z"/></g>
<g><path style="opacity:0.353" fill="#9f9e9e" d="M 323.5,333.5 C 325.027,333.427 326.027,334.094 326.5,335.5C 324.973,335.573 323.973,334.906 323.5,333.5 Z"/></g>
<g><path style="opacity:0.384" fill="#a8a8a8" d="M 326.5,335.5 C 328.027,335.427 329.027,336.094 329.5,337.5C 327.973,337.573 326.973,336.906 326.5,335.5 Z"/></g>
<g><path style="opacity:0.82" fill="#aaa6a8" d="M 329.5,337.5 C 333.5,339.5 336.5,342.5 338.5,346.5C 335.167,343.833 332.167,340.833 329.5,337.5 Z"/></g>
<g><path style="opacity:1" fill="#50504f" d="M 236.5,331.5 C 238.201,335.972 239.535,340.639 240.5,345.5C 239.207,344.158 238.374,342.491 238,340.5C 237.346,341.696 236.846,341.696 236.5,340.5C 237.357,337.549 237.357,334.549 236.5,331.5 Z"/></g>
<g><path style="opacity:0.941" fill="#6e6c6f" d="M 290.5,336.5 C 289.943,341.165 288.61,345.498 286.5,349.5C 287.061,344.824 288.394,340.491 290.5,336.5 Z"/></g>
<g><path style="opacity:1" fill="#403e3e" d="M 306.5,334.5 C 308.204,337.939 309.538,341.605 310.5,345.5C 309.034,344.653 308.2,343.32 308,341.5C 307.667,341.833 307.333,342.167 307,342.5C 306.503,339.854 306.336,337.187 306.5,334.5 Z"/></g>
<g><path style="opacity:0.004" fill="#fefffe" d="M 424.5,341.5 C 425.573,342.251 425.74,343.251 425,344.5C 424.517,343.552 424.351,342.552 424.5,341.5 Z"/></g>
<g><path style="opacity:0.719" fill="#605d5a" d="M 422.5,219.5 C 423.377,244.538 424.044,269.538 424.5,294.5C 424.5,295.5 424.5,296.5 424.5,297.5C 423.549,298.919 423.216,300.585 423.5,302.5C 423.5,307.167 423.5,311.833 423.5,316.5C 423.5,317.833 423.5,319.167 423.5,320.5C 423.5,323.167 423.5,325.833 423.5,328.5C 423.829,341.344 423.495,354.011 422.5,366.5C 422.5,317.5 422.5,268.5 422.5,219.5 Z"/></g>
<g><path style="opacity:0.098" fill="#d0cfce" d="M 91.5,340.5 C 91.33,341.822 91.6634,342.989 92.5,344C 95.0356,344.186 97.369,344.686 99.5,345.5C 96.8127,345.664 94.146,345.497 91.5,345C 90.1991,343.384 90.1991,341.884 91.5,340.5 Z"/></g>
<g><path style="opacity:0.075" fill="#d6d0d1" d="M 113.5,339.5 C 114.807,341.223 114.807,343.057 113.5,345C 111.19,345.497 108.857,345.663 106.5,345.5C 108.292,344.691 110.292,344.191 112.5,344C 113.38,342.644 113.714,341.144 113.5,339.5 Z"/></g>
<g><path style="opacity:0.337" fill="#a6a6a6" d="M 269.5,343.5 C 271.027,343.427 272.027,344.094 272.5,345.5C 270.973,345.573 269.973,344.906 269.5,343.5 Z"/></g>
<g><path style="opacity:1" fill="#403f3f" d="M 219.5,340.5 C 219.318,342.591 219.652,344.591 220.5,346.5C 219.965,348.271 219.131,348.604 218,347.5C 217.8,349.32 216.966,350.653 215.5,351.5C 216.459,347.617 217.792,343.95 219.5,340.5 Z"/></g>
<g><path style="opacity:0.125" fill="#cbc9cc" d="M 272.5,345.5 C 274.435,346.15 276.435,346.483 278.5,346.5C 277.903,347.139 277.07,347.472 276,347.5C 274.301,347.613 273.134,346.947 272.5,345.5 Z"/></g>
<g><path style="opacity:0.871" fill="#888288" d="M 338.5,346.5 C 340.446,347.035 341.446,348.368 341.5,350.5C 340.026,349.564 339.026,348.23 338.5,346.5 Z"/></g>
<g><path style="opacity:0.918" fill="#747372" d="M 310.5,345.5 C 311.458,347.302 312.125,349.302 312.5,351.5C 310.72,350.01 310.054,348.01 310.5,345.5 Z"/></g>
<g><path style="opacity:0.788" fill="#6b6b6b" d="M 240.5,346.5 C 242.163,348.438 242.829,350.772 242.5,353.5C 241.076,351.485 240.41,349.152 240.5,346.5 Z"/></g>
<g><path style="opacity:0.843" fill="#89898a" d="M 286.5,349.5 C 286.741,351.898 286.074,353.898 284.5,355.5C 284.595,353.214 285.262,351.214 286.5,349.5 Z"/></g>
<g><path style="opacity:0.145" fill="#b3afb0" d="M 100.5,352.5 C 101.708,353.234 103.041,353.567 104.5,353.5C 104.083,354.124 103.416,354.457 102.5,354.5C 101.287,354.253 100.62,353.586 100.5,352.5 Z"/></g>
<g><path style="opacity:0.012" fill="#dadadb" d="M 215.5,352.5 C 215.204,354.403 214.537,356.07 213.5,357.5C 213.12,355.302 213.787,353.635 215.5,352.5 Z"/></g>
<g><path style="opacity:0.027" fill="#bdbdbf" d="M 265.5,357.5 C 266.833,357.5 267.5,358.167 267.5,359.5C 266.5,359.167 265.833,358.5 265.5,357.5 Z"/></g>
<g><path style="opacity:0.999" fill="#323233" d="M 265.5,357.5 C 265.833,358.5 266.5,359.167 267.5,359.5C 269.436,363.208 268.27,365.541 264,366.5C 263.235,366.43 262.735,366.097 262.5,365.5C 260.832,363.521 260.166,361.188 260.5,358.5C 261.995,356.655 263.662,356.322 265.5,357.5 Z"/></g>
<g><path style="opacity:0.769" fill="#6f6f6e" d="M 242.5,353.5 C 244.163,355.438 244.829,357.772 244.5,360.5C 243.076,358.485 242.41,356.152 242.5,353.5 Z"/></g>
<g><path style="opacity:0.886" fill="#7c7a7b" d="M 284.5,356.5 C 284.59,359.152 283.924,361.485 282.5,363.5C 282.171,360.772 282.837,358.438 284.5,356.5 Z"/></g>
<g><path style="opacity:0.486" fill="#aaabac" d="M 260.5,358.5 C 260.166,361.188 260.832,363.521 262.5,365.5C 261.504,365.586 260.671,365.252 260,364.5C 259.211,362.288 259.378,360.288 260.5,358.5 Z"/></g>
<g><path style="opacity:0.361" fill="#81817f" d="M 162.5,359.5 C 163.586,359.62 164.253,360.287 164.5,361.5C 164.457,362.416 164.124,363.083 163.5,363.5C 163.567,362.041 163.234,360.708 162.5,359.5 Z"/></g>
<g><path style="opacity:0.531" fill="#8f8f8e" d="M 142.5,364.5 C 145.054,365.388 147.721,365.721 150.5,365.5C 150.5,367.5 150.5,369.5 150.5,371.5C 149.549,370.081 149.216,368.415 149.5,366.5C 146.612,367.01 144.279,366.344 142.5,364.5 Z"/></g>
<g><path style="opacity:0.569" fill="#8f8d8d" d="M 163.5,363.5 C 163.586,364.496 163.252,365.329 162.5,366C 160.527,366.495 158.527,366.662 156.5,366.5C 156.784,368.415 156.451,370.081 155.5,371.5C 155.5,369.5 155.5,367.5 155.5,365.5C 158.513,365.893 161.18,365.226 163.5,363.5 Z"/></g>
<g><path style="opacity:0.008" fill="#e9e9e9" d="M 213.5,364.5 C 214.401,365.29 215.068,366.29 215.5,367.5C 213.952,367.179 213.285,366.179 213.5,364.5 Z"/></g>
<g><path style="opacity:0.906" fill="#747273" d="M 282.5,363.5 C 282.88,365.698 282.213,367.365 280.5,368.5C 280.402,366.447 281.069,364.78 282.5,363.5 Z"/></g>
<g><path style="opacity:0.008" fill="#eaeaea" d="M 55.5,367.5 C 56.3382,367.842 56.6716,368.508 56.5,369.5C 54.3023,369.591 53.9689,368.925 55.5,367.5 Z"/></g>
<g><path style="opacity:0.161" fill="#b8b8b6" d="M 215.5,367.5 C 216.674,368.514 217.34,369.847 217.5,371.5C 215.896,370.713 215.229,369.38 215.5,367.5 Z"/></g>
<g><path style="opacity:0.867" fill="#797878" d="M 280.5,369.5 C 280.741,371.898 280.074,373.898 278.5,375.5C 278.595,373.214 279.262,371.214 280.5,369.5 Z"/></g>
<g><path style="opacity:0.941" fill="#7d7e7d" d="M 248.5,373.5 C 250.018,375.681 251.018,378.181 251.5,381C 251.43,381.765 251.097,382.265 250.5,382.5C 249.422,379.598 248.756,376.598 248.5,373.5 Z"/></g>
<g><path style="opacity:0.549" fill="#807f80" d="M 63.5,378.5 C 65.0269,378.427 66.0269,379.094 66.5,380.5C 64.9731,380.573 63.9731,379.906 63.5,378.5 Z"/></g>
<g><path style="opacity:0.004" fill="#e2e2e2" d="M 415.5,378.5 C 415.027,379.906 414.027,380.573 412.5,380.5C 412.973,379.094 413.973,378.427 415.5,378.5 Z"/></g>
<g><path style="opacity:0.235" fill="#b4b3b3" d="M 66.5,380.5 C 68.0269,380.427 69.0269,381.094 69.5,382.5C 67.9731,382.573 66.9731,381.906 66.5,380.5 Z"/></g>
<g><path style="opacity:0.271" fill="#afafaf" d="M 278.5,375.5 C 278.167,378.167 277.833,380.833 277.5,383.5C 276.254,380.707 276.587,378.04 278.5,375.5 Z"/></g>
<g><path style="opacity:0.376" fill="#9fa1a0" d="M 250.5,382.5 C 246.555,383.825 242.222,384.492 237.5,384.5C 232.987,384.499 228.653,384.166 224.5,383.5C 233.251,383.803 241.918,383.47 250.5,382.5 Z"/></g>
</svg>
