<?xml version="1.0" encoding="UTF-8"?>
<!DOCTYPE svg PUBLIC "-//W3C//DTD SVG 1.1//EN" "http://www.w3.org/Graphics/SVG/1.1/DTD/svg11.dtd">
<svg xmlns="http://www.w3.org/2000/svg" version="1.1" width="535px" height="466px" style="shape-rendering:geometricPrecision; text-rendering:geometricPrecision; image-rendering:optimizeQuality; fill-rule:evenodd; clip-rule:evenodd" xmlns:xlink="http://www.w3.org/1999/xlink">
<g><path style="opacity:0.4" fill="#959a9a" d="M 393.5,102.5 C 391.436,102.313 389.436,101.813 387.5,101C 361.5,100.333 335.5,100.333 309.5,101C 307.655,102.128 305.655,102.628 303.5,102.5C 304.842,101.207 306.509,100.374 308.5,100C 335.167,99.3333 361.833,99.3333 388.5,100C 390.491,100.374 392.158,101.207 393.5,102.5 Z"/></g>
<g><path style="opacity:1" fill="#10171c" d="M 393.5,102.5 C 395.404,102.738 396.738,103.738 397.5,105.5C 398.08,107.749 399.413,109.415 401.5,110.5C 402.383,119.467 402.716,128.467 402.5,137.5C 402.5,138.167 402.5,138.833 402.5,139.5C 401.833,140.167 401.167,140.833 400.5,141.5C 397.833,143.5 395.5,145.833 393.5,148.5C 391.692,148.491 390.025,148.991 388.5,150C 361.833,150.667 335.167,150.667 308.5,150C 306.655,148.872 304.655,148.372 302.5,148.5C 301.415,146.413 299.749,145.08 297.5,144.5C 297.573,142.973 296.906,141.973 295.5,141.5C 292.958,133.403 291.958,125.07 292.5,116.5C 294.373,112.609 296.707,108.942 299.5,105.5C 301.404,105.262 302.738,104.262 303.5,102.5C 305.655,102.628 307.655,102.128 309.5,101C 335.5,100.333 361.5,100.333 387.5,101C 389.436,101.813 391.436,102.313 393.5,102.5 Z M 382.5,120.5 C 383.939,122.588 384.606,124.921 384.5,127.5C 383.512,128.795 382.512,130.128 381.5,131.5C 359.16,132.822 336.827,132.822 314.5,131.5C 314.167,130.5 313.5,129.833 312.5,129.5C 311.167,126.833 311.167,124.167 312.5,121.5C 313.473,121.013 314.473,120.513 315.5,120C 337.876,119.188 360.21,119.355 382.5,120.5 Z"/></g>
<g><path style="opacity:0.698" fill="#7a7f7f" d="M 303.5,102.5 C 302.738,104.262 301.404,105.262 299.5,105.5C 300.262,103.738 301.596,102.738 303.5,102.5 Z"/></g>
<g><path style="opacity:0.396" fill="#c0c3c3" d="M 299.5,105.5 C 296.707,108.942 294.373,112.609 292.5,116.5C 292.372,114.345 292.872,112.345 294,110.5C 295.076,107.921 296.909,106.254 299.5,105.5 Z"/></g>
<g><path style="opacity:0.784" fill="#999c9d" d="M 397.5,105.5 C 399.587,106.585 400.92,108.251 401.5,110.5C 399.413,109.415 398.08,107.749 397.5,105.5 Z"/></g>
<g><path style="opacity:0.247" fill="#cbcccb" d="M 144.5,110.5 C 150.653,109.347 156.986,109.18 163.5,110C 165.723,110.566 167.723,111.4 169.5,112.5C 162.245,111.062 154.912,110.395 147.5,110.5C 146.5,110.5 145.5,110.5 144.5,110.5 Z"/></g>
<g><path style="opacity:0.357" fill="#a4a6a7" d="M 169.5,112.5 C 172.241,112.707 174.574,113.707 176.5,115.5C 173.759,115.293 171.426,114.293 169.5,112.5 Z"/></g>
<g><path style="opacity:0.71" fill="#7e8384" d="M 144.5,110.5 C 145.5,110.5 146.5,110.5 147.5,110.5C 142.267,112.131 136.934,113.798 131.5,115.5C 135.2,112.494 139.533,110.828 144.5,110.5 Z"/></g>
<g><path style="opacity:1" fill="#0f161c" d="M 147.5,110.5 C 154.912,110.395 162.245,111.062 169.5,112.5C 171.426,114.293 173.759,115.293 176.5,115.5C 178.434,116.11 180.101,117.11 181.5,118.5C 182.539,120.531 184.205,121.864 186.5,122.5C 186.5,124.5 187.5,125.5 189.5,125.5C 190.08,127.749 191.413,129.415 193.5,130.5C 193.427,132.027 194.094,133.027 195.5,133.5C 195.427,135.027 196.094,136.027 197.5,136.5C 199.075,138.547 200.075,140.881 200.5,143.5C 201.848,148.893 202.515,154.393 202.5,160C 202.515,165.607 201.848,171.107 200.5,176.5C 198.896,177.287 198.229,178.62 198.5,180.5C 197.617,183.704 195.95,186.371 193.5,188.5C 192.094,188.973 191.427,189.973 191.5,191.5C 189.833,193.833 187.833,195.833 185.5,197.5C 183.973,197.427 182.973,198.094 182.5,199.5C 180.973,199.427 179.973,200.094 179.5,201.5C 176.069,204.317 172.069,205.983 167.5,206.5C 158.159,207.76 148.826,207.76 139.5,206.5C 135.163,205.611 131.163,203.944 127.5,201.5C 127.027,200.094 126.027,199.427 124.5,199.5C 122.431,196.427 119.764,194.094 116.5,192.5C 116.262,190.596 115.262,189.262 113.5,188.5C 111.417,184 109.084,179.666 106.5,175.5C 105.596,174.791 105.263,173.791 105.5,172.5C 104.835,165.52 104.502,158.52 104.5,151.5C 104.5,151.167 104.5,150.833 104.5,150.5C 105.924,148.485 106.59,146.152 106.5,143.5C 106.586,142.504 106.252,141.671 105.5,141C 107.539,139.074 109.206,136.907 110.5,134.5C 112.262,133.738 113.262,132.404 113.5,130.5C 116.573,128.431 118.906,125.764 120.5,122.5C 122.404,122.262 123.738,121.262 124.5,119.5C 126.027,119.573 127.027,118.906 127.5,117.5C 129.027,117.573 130.027,116.906 130.5,115.5C 130.833,115.5 131.167,115.5 131.5,115.5C 136.934,113.798 142.267,112.131 147.5,110.5 Z M 147.5,130.5 C 151.477,130.629 155.143,130.629 158.5,130.5C 160.833,131.167 163.167,131.833 165.5,132.5C 169.745,135.4 173.745,138.733 177.5,142.5C 178.695,144.751 179.695,147.085 180.5,149.5C 180.833,149.5 181.167,149.5 181.5,149.5C 181.205,151.735 181.539,153.735 182.5,155.5C 181.708,159.916 181.375,164.249 181.5,168.5C 180.227,170.713 179.227,173.046 178.5,175.5C 176.413,176.585 175.08,178.251 174.5,180.5C 172.251,181.08 170.585,182.413 169.5,184.5C 167.181,184.992 165.181,185.992 163.5,187.5C 162.167,187.833 160.833,188.167 159.5,188.5C 154.438,188.726 149.438,188.392 144.5,187.5C 144.167,187.5 143.833,187.5 143.5,187.5C 143.5,187.167 143.5,186.833 143.5,186.5C 142.167,186.167 140.833,185.833 139.5,185.5C 139.158,184.662 138.492,184.328 137.5,184.5C 134.833,181.167 131.833,178.167 128.5,175.5C 128.34,173.847 127.674,172.514 126.5,171.5C 125.031,166.28 124.364,160.946 124.5,155.5C 124.5,155.167 124.5,154.833 124.5,154.5C 125.612,152.401 126.279,150.067 126.5,147.5C 127.338,147.158 127.672,146.492 127.5,145.5C 128.906,145.027 129.573,144.027 129.5,142.5C 131.587,141.415 132.92,139.749 133.5,137.5C 135.777,136.551 137.777,135.218 139.5,133.5C 142.257,132.488 144.924,131.488 147.5,130.5 Z"/></g>
<g><path style="opacity:0.69" fill="#93989a" d="M 130.5,115.5 C 130.027,116.906 129.027,117.573 127.5,117.5C 127.973,116.094 128.973,115.427 130.5,115.5 Z"/></g>
<g><path style="opacity:0.647" fill="#979c9c" d="M 127.5,117.5 C 127.027,118.906 126.027,119.573 124.5,119.5C 124.973,118.094 125.973,117.427 127.5,117.5 Z"/></g>
<g><path style="opacity:0.392" fill="#adb1b1" d="M 124.5,119.5 C 123.738,121.262 122.404,122.262 120.5,122.5C 121.262,120.738 122.596,119.738 124.5,119.5 Z"/></g>
<g><path style="opacity:0.596" fill="#8f9394" d="M 181.5,118.5 C 183.754,119.124 185.421,120.457 186.5,122.5C 184.205,121.864 182.539,120.531 181.5,118.5 Z"/></g>
<g><path style="opacity:0.067" fill="#dee1e0" d="M 292.5,116.5 C 291.958,125.07 292.958,133.403 295.5,141.5C 293.306,139.779 292.139,137.445 292,134.5C 291.181,128.319 291.347,122.319 292.5,116.5 Z"/></g>
<g><path style="opacity:0.263" fill="#b7bcbd" d="M 280.5,123.5 C 280.5,123.833 280.5,124.167 280.5,124.5C 274.842,123.232 269.175,123.232 263.5,124.5C 268.959,122.287 274.626,121.953 280.5,123.5 Z"/></g>
<g><path style="opacity:0.004" fill="#fefffe" d="M 280.5,122.5 C 281.833,123.167 281.833,123.167 280.5,122.5 Z"/></g>
<g><path style="opacity:0.227" fill="#b8bdbd" d="M 430.5,124.5 C 424.944,122.866 419.61,123.2 414.5,125.5C 414.953,124.542 415.619,123.708 416.5,123C 418.5,122.833 420.5,122.667 422.5,122.5C 425.527,122.287 428.193,122.953 430.5,124.5 Z"/></g>
<g><path style="opacity:0.776" fill="#848989" d="M 186.5,122.5 C 187.833,123.167 188.833,124.167 189.5,125.5C 187.5,125.5 186.5,124.5 186.5,122.5 Z"/></g>
<g><path style="opacity:0.902" fill="#606869" d="M 401.5,110.5 C 402.222,110.918 402.722,111.584 403,112.5C 405.147,121.026 404.981,129.359 402.5,137.5C 402.716,128.467 402.383,119.467 401.5,110.5 Z"/></g>
<g><path style="opacity:0.769" fill="#787d7e" d="M 120.5,122.5 C 118.906,125.764 116.573,128.431 113.5,130.5C 115.094,127.236 117.427,124.569 120.5,122.5 Z"/></g>
<g><path style="opacity:0.322" fill="#a6aaac" d="M 312.5,121.5 C 311.167,124.167 311.167,126.833 312.5,129.5C 311.007,128.688 310.34,127.355 310.5,125.5C 310.34,123.645 311.007,122.312 312.5,121.5 Z"/></g>
<g><path style="opacity:0.247" fill="#acb0af" d="M 382.5,120.5 C 383.75,120.577 384.583,121.244 385,122.5C 385.78,124.387 385.613,126.054 384.5,127.5C 384.606,124.921 383.939,122.588 382.5,120.5 Z"/></g>
<g><path style="opacity:1" fill="#0d151b" d="M 430.5,124.5 C 432.921,124.878 435.254,125.545 437.5,126.5C 439.142,127.803 440.809,129.136 442.5,130.5C 443.08,132.749 444.413,134.415 446.5,135.5C 446.427,137.027 447.094,138.027 448.5,138.5C 450.065,140.509 451.065,142.843 451.5,145.5C 451.5,187.167 451.5,228.833 451.5,270.5C 451.5,271.167 451.167,271.5 450.5,271.5C 449.5,271.833 448.833,272.5 448.5,273.5C 445.272,274.414 441.939,274.747 438.5,274.5C 437.5,272.833 436.167,271.5 434.5,270.5C 433.596,269.791 433.263,268.791 433.5,267.5C 433.667,228.165 433.5,188.832 433,149.5C 431.924,146.921 430.091,145.254 427.5,144.5C 426.508,144.672 425.842,144.338 425.5,143.5C 422.877,141.735 419.877,141.068 416.5,141.5C 415.833,140.167 414.833,139.167 413.5,138.5C 413.294,134.102 413.627,129.768 414.5,125.5C 419.61,123.2 424.944,122.866 430.5,124.5 Z"/></g>
<g><path style="opacity:0.016" fill="#fefffe" d="M 437.5,125.5 C 438.833,126.167 438.833,126.167 437.5,125.5 Z"/></g>
<g><path style="opacity:0.678" fill="#9da2a1" d="M 189.5,125.5 C 191.587,126.585 192.92,128.251 193.5,130.5C 191.413,129.415 190.08,127.749 189.5,125.5 Z"/></g>
<g><path style="opacity:0.11" fill="#dddfe5" d="M 147.5,130.5 C 151.167,129.167 154.833,129.167 158.5,130.5C 155.143,130.629 151.477,130.629 147.5,130.5 Z"/></g>
<g><path style="opacity:0.737" fill="#8f9294" d="M 384.5,127.5 C 384.912,129.973 383.912,131.306 381.5,131.5C 382.512,130.128 383.512,128.795 384.5,127.5 Z"/></g>
<g><path style="opacity:0.005" fill="#fefffe" d="M 284.5,131.5 C 285.573,132.251 285.74,133.251 285,134.5C 284.517,133.552 284.351,132.552 284.5,131.5 Z"/></g>
<g><path style="opacity:0.271" fill="#bfc1c2" d="M 414.5,125.5 C 413.627,129.768 413.294,134.102 413.5,138.5C 412.355,134.689 412.188,130.689 413,126.5C 413.383,125.944 413.883,125.611 414.5,125.5 Z"/></g>
<g><path style="opacity:0.392" fill="#ced0d1" d="M 442.5,130.5 C 444.587,131.585 445.92,133.251 446.5,135.5C 444.413,134.415 443.08,132.749 442.5,130.5 Z"/></g>
<g><path style="opacity:0.514" fill="#9fa3a1" d="M 113.5,130.5 C 113.262,132.404 112.262,133.738 110.5,134.5C 110.738,132.596 111.738,131.262 113.5,130.5 Z"/></g>
<g><path style="opacity:0.455" fill="#a0a3a3" d="M 193.5,130.5 C 194.906,130.973 195.573,131.973 195.5,133.5C 194.094,133.027 193.427,132.027 193.5,130.5 Z"/></g>
<g><path style="opacity:0.353" fill="#a3a7a9" d="M 314.5,131.5 C 336.827,132.822 359.16,132.822 381.5,131.5C 381.082,132.222 380.416,132.722 379.5,133C 358.167,133.667 336.833,133.667 315.5,133C 314.944,132.617 314.611,132.117 314.5,131.5 Z"/></g>
<g><path style="opacity:0.993" fill="#5c6466" d="M 139.5,133.5 C 137.777,135.218 135.777,136.551 133.5,137.5C 134.953,136.175 134.619,135.342 132.5,135C 134.677,133.798 137.011,133.298 139.5,133.5 Z"/></g>
<g><path style="opacity:0.553" fill="#aeb1b2" d="M 249.5,133.5 C 248.66,135.853 247.326,137.853 245.5,139.5C 245.845,136.802 247.178,134.802 249.5,133.5 Z"/></g>
<g><path style="opacity:0.31" fill="#b2b6b7" d="M 195.5,133.5 C 196.906,133.973 197.573,134.973 197.5,136.5C 196.094,136.027 195.427,135.027 195.5,133.5 Z"/></g>
<g><path style="opacity:0.439" fill="#acafb0" d="M 165.5,132.5 C 170.968,133.959 174.968,137.292 177.5,142.5C 173.745,138.733 169.745,135.4 165.5,132.5 Z"/></g>
<g><path style="opacity:0.188" fill="#c4cacd" d="M 446.5,135.5 C 447.906,135.973 448.573,136.973 448.5,138.5C 447.094,138.027 446.427,137.027 446.5,135.5 Z"/></g>
<g><path style="opacity:0.016" fill="#d6d7d8" d="M 133.5,137.5 C 132.92,139.749 131.587,141.415 129.5,142.5C 130.08,140.251 131.413,138.585 133.5,137.5 Z"/></g>
<g><path style="opacity:0.004" fill="#fefffe" d="M 402.5,139.5 C 403.833,140.167 403.833,140.167 402.5,139.5 Z"/></g>
<g><path style="opacity:0.031" fill="#cacdcd" d="M 413.5,138.5 C 414.833,139.167 415.833,140.167 416.5,141.5C 414.5,141.5 413.5,140.5 413.5,138.5 Z"/></g>
<g><path style="opacity:0.039" fill="#d2ded3" d="M 282.5,139.5 C 282.027,140.906 281.027,141.573 279.5,141.5C 279.973,140.094 280.973,139.427 282.5,139.5 Z"/></g>
<g><path style="opacity:0.2" fill="#c1c7c9" d="M 279.5,141.5 C 275.979,142.307 272.312,142.974 268.5,143.5C 268.611,142.883 268.944,142.383 269.5,142C 272.817,141.502 276.15,141.335 279.5,141.5 Z"/></g>
<g><path style="opacity:0.314" fill="#bfc3c5" d="M 416.5,141.5 C 419.877,141.068 422.877,141.735 425.5,143.5C 422.311,143.142 419.311,142.475 416.5,141.5 Z"/></g>
<g><path style="opacity:1" fill="#12181d" d="M 280.5,124.5 C 281.75,124.577 282.583,125.244 283,126.5C 283.768,130.92 283.602,135.253 282.5,139.5C 280.973,139.427 279.973,140.094 279.5,141.5C 276.15,141.335 272.817,141.502 269.5,142C 268.944,142.383 268.611,142.883 268.5,143.5C 267.205,144.488 265.872,145.488 264.5,146.5C 262.864,147.749 261.697,149.416 261,151.5C 260.168,220.335 260.335,289.001 261.5,357.5C 261.337,359.857 261.503,362.19 262,364.5C 262.671,363.748 263.504,363.414 264.5,363.5C 265.5,363.833 266.167,364.5 266.5,365.5C 266.973,366.906 267.973,367.573 269.5,367.5C 269.842,368.338 270.508,368.672 271.5,368.5C 272.791,368.263 273.791,368.596 274.5,369.5C 300.997,370.332 327.664,370.832 354.5,371C 356.037,372.707 357.704,374.207 359.5,375.5C 360.757,378.427 362.757,380.761 365.5,382.5C 366.93,384.455 366.597,386.121 364.5,387.5C 332.498,387.667 300.498,387.5 268.5,387C 266.26,386.023 263.927,385.523 261.5,385.5C 261.027,384.094 260.027,383.427 258.5,383.5C 257.508,383.672 256.842,383.338 256.5,382.5C 253.452,378.785 250.119,375.452 246.5,372.5C 245.662,372.158 245.328,371.492 245.5,370.5C 245.065,367.843 244.065,365.509 242.5,363.5C 241.167,291.167 241.167,218.833 242.5,146.5C 244.213,145.365 244.88,143.698 244.5,141.5C 244.328,140.508 244.662,139.842 245.5,139.5C 247.326,137.853 248.66,135.853 249.5,133.5C 253.115,128.889 257.782,125.889 263.5,124.5C 269.175,123.232 274.842,123.232 280.5,124.5 Z"/></g>
<g><path style="opacity:0.035" fill="#c3d0d0" d="M 295.5,141.5 C 296.906,141.973 297.573,142.973 297.5,144.5C 296.094,144.027 295.427,143.027 295.5,141.5 Z"/></g>
<g><path style="opacity:0.165" fill="#c6c8c7" d="M 129.5,142.5 C 129.573,144.027 128.906,145.027 127.5,145.5C 127.427,143.973 128.094,142.973 129.5,142.5 Z"/></g>
<g><path style="opacity:1" fill="#64696c" d="M 177.5,142.5 C 180.543,143.744 181.876,146.077 181.5,149.5C 181.167,149.5 180.833,149.5 180.5,149.5C 179.695,147.085 178.695,144.751 177.5,142.5 Z"/></g>
<g><path style="opacity:0.949" fill="#7d8183" d="M 244.5,141.5 C 244.88,143.698 244.213,145.365 242.5,146.5C 242.402,144.447 243.069,142.78 244.5,141.5 Z"/></g>
<g><path style="opacity:0.655" fill="#a3a8a6" d="M 297.5,144.5 C 299.749,145.08 301.415,146.413 302.5,148.5C 300.251,147.92 298.585,146.587 297.5,144.5 Z"/></g>
<g><path style="opacity:0.11" fill="#c2c7c6" d="M 400.5,141.5 C 399.167,144.833 396.833,147.167 393.5,148.5C 395.5,145.833 397.833,143.5 400.5,141.5 Z"/></g>
<g><path style="opacity:0.525" fill="#989b9b" d="M 106.5,143.5 C 106.59,146.152 105.924,148.485 104.5,150.5C 104.41,147.848 105.076,145.515 106.5,143.5 Z"/></g>
<g><path style="opacity:0.51" fill="#9da2a2" d="M 126.5,147.5 C 126.279,150.067 125.612,152.401 124.5,154.5C 124.171,151.772 124.837,149.438 126.5,147.5 Z"/></g>
<g><path style="opacity:0.461" fill="#adb0b1" d="M 302.5,148.5 C 304.655,148.372 306.655,148.872 308.5,150C 335.167,150.667 361.833,150.667 388.5,150C 390.025,148.991 391.692,148.491 393.5,148.5C 391.507,150.163 389.174,151.33 386.5,152C 360.833,152.667 335.167,152.667 309.5,152C 306.826,151.33 304.493,150.163 302.5,148.5 Z"/></g>
<g><path style="opacity:0.202" fill="#c2c6c8" d="M 200.5,143.5 C 202.917,148.609 203.917,154.109 203.5,160C 203.917,165.891 202.917,171.391 200.5,176.5C 201.848,171.107 202.515,165.607 202.5,160C 202.515,154.393 201.848,148.893 200.5,143.5 Z"/></g>
<g><path style="opacity:0.388" fill="#9fa2a3" d="M 124.5,155.5 C 124.364,160.946 125.031,166.28 126.5,171.5C 125.073,169.852 124.24,167.852 124,165.5C 123.192,161.973 123.359,158.64 124.5,155.5 Z"/></g>
<g><path style="opacity:0.404" fill="#a6aaab" d="M 104.5,151.5 C 104.502,158.52 104.835,165.52 105.5,172.5C 104.046,168.426 103.379,164.093 103.5,159.5C 103.503,156.645 103.836,153.978 104.5,151.5 Z"/></g>
<g><path style="opacity:0.212" fill="#ced1d0" d="M 182.5,155.5 C 183.861,159.93 183.527,164.263 181.5,168.5C 181.375,164.249 181.708,159.916 182.5,155.5 Z"/></g>
<g><path style="opacity:0.774" fill="#5b5f62" d="M 451.5,145.5 C 452.205,148.228 452.872,151.061 453.5,154C 453.164,192.697 452.497,231.53 451.5,270.5C 451.5,228.833 451.5,187.167 451.5,145.5 Z"/></g>
<g><path style="opacity:0.44" fill="#94989b" d="M 383.5,174.5 C 360.857,173.376 338.191,173.209 315.5,174C 313.846,174.608 312.179,175.108 310.5,175.5C 311.347,174.034 312.68,173.2 314.5,173C 336.5,172.333 358.5,172.333 380.5,173C 381.737,173.232 382.737,173.732 383.5,174.5 Z"/></g>
<g><path style="opacity:1" fill="#0d151b" d="M 383.5,174.5 C 385.118,176.785 387.118,178.785 389.5,180.5C 389.926,184.427 390.926,188.093 392.5,191.5C 392.565,194.428 393.232,197.095 394.5,199.5C 395.053,204.806 396.386,209.806 398.5,214.5C 398.999,217.264 400.665,218.931 403.5,219.5C 404.511,221.372 405.345,223.372 406,225.5C 406.74,233.868 406.574,242.202 405.5,250.5C 402.186,254.484 397.853,256.318 392.5,256C 393.7,259.131 393.7,262.298 392.5,265.5C 391.167,266.167 390.167,267.167 389.5,268.5C 384.821,268.666 380.155,268.499 375.5,268C 374.271,263.66 372.938,259.493 371.5,255.5C 363.695,254.169 355.528,253.502 347,253.5C 338.833,253.667 330.667,253.833 322.5,254C 321.54,257.73 321.207,261.563 321.5,265.5C 321.672,266.492 321.338,267.158 320.5,267.5C 314.833,268.833 309.167,268.833 303.5,267.5C 303.5,267.167 303.5,266.833 303.5,266.5C 302.57,262.6 302.237,258.6 302.5,254.5C 300.167,254.5 297.833,254.5 295.5,254.5C 292.357,254.031 290.023,252.364 288.5,249.5C 288.5,240.833 288.5,232.167 288.5,223.5C 291.169,221.001 294.002,218.668 297,216.5C 297.49,215.207 297.657,213.873 297.5,212.5C 297.5,212.167 297.5,211.833 297.5,211.5C 299.163,209.562 299.829,207.228 299.5,204.5C 300.924,202.485 301.59,200.152 301.5,197.5C 301.549,193.922 302.215,190.589 303.5,187.5C 304.612,185.401 305.279,183.067 305.5,180.5C 307.5,179.167 309.167,177.5 310.5,175.5C 312.179,175.108 313.846,174.608 315.5,174C 338.191,173.209 360.857,173.376 383.5,174.5 Z M 324.5,192.5 C 340.17,192.333 355.837,192.5 371.5,193C 372.085,194.302 372.751,195.469 373.5,196.5C 373.963,199.33 374.629,201.997 375.5,204.5C 375.67,205.822 375.337,206.989 374.5,208C 376.045,209.688 377.045,211.688 377.5,214C 376.167,214.333 374.833,214.667 373.5,215C 354.716,215.666 336.05,215.5 317.5,214.5C 318.234,213.292 318.567,211.959 318.5,210.5C 318.833,210.5 319.167,210.5 319.5,210.5C 319.401,207.763 319.735,205.096 320.5,202.5C 320.5,202.167 320.5,201.833 320.5,201.5C 321.098,198.253 322.432,195.253 324.5,192.5 Z"/></g>
<g><path style="opacity:0.918" fill="#888d8e" d="M 383.5,174.5 C 386.522,175.522 388.522,177.522 389.5,180.5C 387.118,178.785 385.118,176.785 383.5,174.5 Z"/></g>
<g><path style="opacity:0.443" fill="#bdbfc1" d="M 128.5,175.5 C 131.833,178.167 134.833,181.167 137.5,184.5C 133.5,182.5 130.5,179.5 128.5,175.5 Z"/></g>
<g><path style="opacity:0.337" fill="#b9bfbf" d="M 178.5,175.5 C 177.92,177.749 176.587,179.415 174.5,180.5C 175.08,178.251 176.413,176.585 178.5,175.5 Z"/></g>
<g><path style="opacity:0.412" fill="#a5aaaa" d="M 200.5,176.5 C 200.34,178.153 199.674,179.486 198.5,180.5C 198.229,178.62 198.896,177.287 200.5,176.5 Z"/></g>
<g><path style="opacity:0.235" fill="#b1b4b3" d="M 310.5,175.5 C 309.167,177.5 307.5,179.167 305.5,180.5C 306.167,177.833 307.833,176.167 310.5,175.5 Z"/></g>
<g><path style="opacity:0.361" fill="#b2b6b7" d="M 174.5,180.5 C 173.415,182.587 171.749,183.92 169.5,184.5C 170.585,182.413 172.251,181.08 174.5,180.5 Z"/></g>
<g><path style="opacity:0.145" fill="#c2c4c7" d="M 106.5,175.5 C 109.084,179.666 111.417,184 113.5,188.5C 109.029,184.953 106.695,180.62 106.5,175.5 Z"/></g>
<g><path style="opacity:0.024" fill="#dbddde" d="M 305.5,180.5 C 305.279,183.067 304.612,185.401 303.5,187.5C 303.171,184.772 303.837,182.438 305.5,180.5 Z"/></g>
<g><path style="opacity:0.851" fill="#838688" d="M 389.5,180.5 C 391.483,183.799 392.483,187.466 392.5,191.5C 390.926,188.093 389.926,184.427 389.5,180.5 Z"/></g>
<g><path style="opacity:0.451" fill="#9d9fa0" d="M 139.5,185.5 C 140.833,185.833 142.167,186.167 143.5,186.5C 143.5,186.833 143.5,187.167 143.5,187.5C 141.62,187.771 140.287,187.104 139.5,185.5 Z"/></g>
<g><path style="opacity:0.929" fill="#5c6262" d="M 169.5,184.5 C 168.393,186.969 166.393,187.969 163.5,187.5C 165.181,185.992 167.181,184.992 169.5,184.5 Z"/></g>
<g><path style="opacity:0.176" fill="#a0a4a7" d="M 144.5,187.5 C 149.438,188.392 154.438,188.726 159.5,188.5C 155.019,189.648 150.352,189.815 145.5,189C 144.944,188.617 144.611,188.117 144.5,187.5 Z"/></g>
<g><path style="opacity:0.004" fill="#cdcfd0" d="M 113.5,188.5 C 115.262,189.262 116.262,190.596 116.5,192.5C 114.738,191.738 113.738,190.404 113.5,188.5 Z"/></g>
<g><path style="opacity:0.047" fill="#bbc7c0" d="M 193.5,188.5 C 193.573,190.027 192.906,191.027 191.5,191.5C 191.427,189.973 192.094,188.973 193.5,188.5 Z"/></g>
<g><path style="opacity:0.714" fill="#9fa2a2" d="M 116.5,192.5 C 119.764,194.094 122.431,196.427 124.5,199.5C 121.907,198.246 119.573,196.58 117.5,194.5C 117.167,193.833 116.833,193.167 116.5,192.5 Z"/></g>
<g><path style="opacity:0.008" fill="#fefffe" d="M 117.5,194.5 C 116.833,195.167 116.833,195.167 117.5,194.5 Z"/></g>
<g><path style="opacity:0.325" fill="#b6bab8" d="M 324.5,192.5 C 322.432,195.253 321.098,198.253 320.5,201.5C 320.338,199.473 320.505,197.473 321,195.5C 321.422,193.574 322.589,192.574 324.5,192.5 Z"/></g>
<g><path style="opacity:0.62" fill="#a5a8a8" d="M 392.5,191.5 C 394.04,193.838 394.706,196.505 394.5,199.5C 393.232,197.095 392.565,194.428 392.5,191.5 Z"/></g>
<g><path style="opacity:0.039" fill="#c8d7d7" d="M 185.5,197.5 C 185.027,198.906 184.027,199.573 182.5,199.5C 182.973,198.094 183.973,197.427 185.5,197.5 Z"/></g>
<g><path style="opacity:0.78" fill="#868a8a" d="M 373.5,196.5 C 374.117,196.611 374.617,196.944 375,197.5C 375.497,199.81 375.663,202.143 375.5,204.5C 374.629,201.997 373.963,199.33 373.5,196.5 Z"/></g>
<g><path style="opacity:0.165" fill="#cfd3d2" d="M 264.5,146.5 C 263.955,148.593 263.122,150.593 262,152.5C 261.5,220.833 261.333,289.166 261.5,357.5C 260.335,289.001 260.168,220.335 261,151.5C 261.697,149.416 262.864,147.749 264.5,146.5 Z"/></g>
<g><path style="opacity:0.212" fill="#c6c9c9" d="M 124.5,199.5 C 126.027,199.427 127.027,200.094 127.5,201.5C 125.973,201.573 124.973,200.906 124.5,199.5 Z"/></g>
<g><path style="opacity:0.071" fill="#c0c2c3" d="M 182.5,199.5 C 182.027,200.906 181.027,201.573 179.5,201.5C 179.973,200.094 180.973,199.427 182.5,199.5 Z"/></g>
<g><path style="opacity:0.522" fill="#b4b7b9" d="M 394.5,199.5 C 396.591,204.191 397.924,209.191 398.5,214.5C 396.386,209.806 395.053,204.806 394.5,199.5 Z"/></g>
<g><path style="opacity:0.569" fill="#888f8f" d="M 301.5,197.5 C 301.59,200.152 300.924,202.485 299.5,204.5C 299.41,201.848 300.076,199.515 301.5,197.5 Z"/></g>
<g><path style="opacity:0.71" fill="#8e9395" d="M 320.5,202.5 C 319.735,205.096 319.401,207.763 319.5,210.5C 319.167,210.5 318.833,210.5 318.5,210.5C 318.337,208.143 318.503,205.81 319,203.5C 319.383,202.944 319.883,202.611 320.5,202.5 Z"/></g>
<g><path style="opacity:0.541" fill="#9ea2a3" d="M 139.5,206.5 C 148.826,207.76 158.159,207.76 167.5,206.5C 166.737,207.268 165.737,207.768 164.5,208C 157.167,208.667 149.833,208.667 142.5,208C 141.263,207.768 140.263,207.268 139.5,206.5 Z"/></g>
<g><path style="opacity:0.004" fill="#fefffe" d="M 120.5,209.5 C 119.833,208.167 119.833,208.167 120.5,209.5 Z"/></g>
<g><path style="opacity:0.004" fill="#fefffe" d="M 117.5,210.5 C 116.833,209.167 116.833,209.167 117.5,210.5 Z"/></g>
<g><path style="opacity:0.004" fill="#fefffe" d="M 123.5,209.5 C 124.833,210.167 124.833,210.167 123.5,209.5 Z"/></g>
<g><path style="opacity:0.004" fill="#fefffe" d="M 189.5,209.5 C 190.833,210.167 190.833,210.167 189.5,209.5 Z"/></g>
<g><path style="opacity:0.631" fill="#969a99" d="M 120.5,209.5 C 121.609,209.557 122.609,209.89 123.5,210.5C 123.5,211.167 123.5,211.833 123.5,212.5C 120.579,211.628 117.579,211.628 114.5,212.5C 115.5,211.833 116.5,211.167 117.5,210.5C 118.791,210.737 119.791,210.404 120.5,209.5 Z"/></g>
<g><path style="opacity:0.502" fill="#b6bab7" d="M 189.5,210.5 C 189.5,210.833 189.5,211.167 189.5,211.5C 188.127,211.343 186.793,211.51 185.5,212C 183.996,214.514 182.662,217.014 181.5,219.5C 181.24,213.598 183.907,210.598 189.5,210.5 Z"/></g>
<g><path style="opacity:0.408" fill="#a7aaa9" d="M 299.5,204.5 C 299.829,207.228 299.163,209.562 297.5,211.5C 297.41,208.848 298.076,206.515 299.5,204.5 Z"/></g>
<g><path style="opacity:0.855" fill="#7e8585" d="M 114.5,212.5 C 111.665,214.785 108.332,216.118 104.5,216.5C 107.39,214.267 110.723,212.934 114.5,212.5 Z"/></g>
<g><path style="opacity:1" fill="#0b131a" d="M 123.5,212.5 C 123.12,214.698 123.787,216.365 125.5,217.5C 126.434,218.568 126.768,219.901 126.5,221.5C 126.415,224.649 127.415,227.316 129.5,229.5C 129.259,231.898 129.926,233.898 131.5,235.5C 132.434,236.568 132.768,237.901 132.5,239.5C 132.259,241.898 132.926,243.898 134.5,245.5C 135.434,246.568 135.768,247.901 135.5,249.5C 135.259,251.898 135.926,253.898 137.5,255.5C 137.345,258.716 138.345,261.383 140.5,263.5C 140.229,265.38 140.896,266.713 142.5,267.5C 143.338,267.842 143.672,268.508 143.5,269.5C 143.738,271.404 144.738,272.738 146.5,273.5C 146.833,274.5 147.5,275.167 148.5,275.5C 148.833,276.5 149.5,277.167 150.5,277.5C 151.482,278.141 152.482,278.807 153.5,279.5C 154.852,278.476 156.185,277.476 157.5,276.5C 159.833,276.167 161.167,274.833 161.5,272.5C 163.262,271.738 164.262,270.404 164.5,268.5C 166.387,264.158 168.054,259.825 169.5,255.5C 171.28,254.01 171.946,252.01 171.5,249.5C 173.074,247.898 173.741,245.898 173.5,243.5C 176.668,238.333 178.668,232.666 179.5,226.5C 179.767,224.035 180.434,221.701 181.5,219.5C 182.662,217.014 183.996,214.514 185.5,212C 186.793,211.51 188.127,211.343 189.5,211.5C 195.36,212.766 200.693,215.1 205.5,218.5C 205.973,219.906 206.973,220.573 208.5,220.5C 209.492,220.328 210.158,220.662 210.5,221.5C 211.502,223.011 212.169,224.678 212.5,226.5C 213.833,226.5 215.167,226.5 216.5,226.5C 217.911,228.914 219.911,230.581 222.5,231.5C 223.419,234.089 225.086,236.089 227.5,237.5C 227.738,239.404 228.738,240.738 230.5,241.5C 230.5,289.167 230.5,336.833 230.5,384.5C 230.167,385.5 229.5,386.167 228.5,386.5C 227.5,386.5 226.5,386.5 225.5,386.5C 176.829,386.833 128.162,386.5 79.5,385.5C 81.306,382.39 83.1393,382.057 85,384.5C 86.1769,382.824 87.6769,381.491 89.5,380.5C 85.6879,378.991 82.0212,377.991 78.5,377.5C 77.1537,379.013 75.6537,380.347 74,381.5C 72.1703,379.466 70.337,377.299 68.5,375C 68.8683,367.326 69.3683,359.492 70,351.5C 70.9234,352.759 71.7568,354.092 72.5,355.5C 73.3283,360.132 73.8283,364.798 74,369.5C 76.3237,370.807 77.657,372.807 78,375.5C 78.3333,375.167 78.6667,374.833 79,374.5C 79.5199,369.82 79.0199,365.32 77.5,361C 77.7634,358.379 78.43,355.879 79.5,353.5C 74.9825,343.661 74.3158,334.328 77.5,325.5C 77.4407,323.109 77.1074,320.775 76.5,318.5C 77.325,317.614 78.325,317.281 79.5,317.5C 79.6657,313.154 79.499,308.821 79,304.5C 77.9887,303.663 76.8221,303.33 75.5,303.5C 75.8282,308.875 75.4948,314.208 74.5,319.5C 73.2679,318.855 71.9346,318.689 70.5,319C 69.9415,318.275 69.6082,317.442 69.5,316.5C 72.275,301.562 71.9417,286.728 68.5,272C 70.8007,269.997 70.8007,268.163 68.5,266.5C 69.6862,262.401 70.0196,258.401 69.5,254.5C 70.9331,252.442 71.5997,250.108 71.5,247.5C 71.8333,246.833 72.1667,246.167 72.5,245.5C 74.3264,243.853 75.6597,241.853 76.5,239.5C 78.914,238.089 80.5806,236.089 81.5,233.5C 82.5,233.167 83.1667,232.5 83.5,231.5C 84.5,231.167 85.1667,230.5 85.5,229.5C 88.0892,228.581 90.0892,226.914 91.5,224.5C 93.0269,224.573 94.0269,223.906 94.5,222.5C 96.0269,222.573 97.0269,221.906 97.5,220.5C 99.7638,219.781 102.097,219.448 104.5,219.5C 104.5,218.5 104.5,217.5 104.5,216.5C 108.332,216.118 111.665,214.785 114.5,212.5C 117.579,211.628 120.579,211.628 123.5,212.5 Z M 103.5,302.5 C 103.667,324.169 103.5,345.836 103,367.5C 102.283,368.044 101.783,368.711 101.5,369.5C 99.4352,369.483 97.4352,369.15 95.5,368.5C 94.5328,346.866 94.1995,325.2 94.5,303.5C 97.031,299.933 100.031,299.599 103.5,302.5 Z M 210.5,300.5 C 211.504,301.683 212.338,303.016 213,304.5C 213.667,324.833 213.667,345.167 213,365.5C 212.338,366.984 211.504,368.317 210.5,369.5C 208.142,369.747 206.142,369.081 204.5,367.5C 204.33,344.911 204.33,322.911 204.5,301.5C 206.379,300.659 208.379,300.325 210.5,300.5 Z"/></g>
<g><path style="opacity:0.741" fill="#939696" d="M 123.5,212.5 C 124.537,213.93 125.204,215.597 125.5,217.5C 123.787,216.365 123.12,214.698 123.5,212.5 Z"/></g>
<g><path style="opacity:0.325" fill="#b3b7b6" d="M 375.5,204.5 C 377.408,208.203 378.241,212.203 378,216.5C 358.622,216.619 339.122,216.452 319.5,216C 318.584,215.722 317.918,215.222 317.5,214.5C 336.05,215.5 354.716,215.666 373.5,215C 374.833,214.667 376.167,214.333 377.5,214C 377.045,211.688 376.045,209.688 374.5,208C 375.337,206.989 375.67,205.822 375.5,204.5 Z"/></g>
<g><path style="opacity:0.129" fill="#c5c9c9" d="M 398.5,214.5 C 400.36,215.939 402.027,217.605 403.5,219.5C 400.665,218.931 398.999,217.264 398.5,214.5 Z"/></g>
<g><path style="opacity:0.314" fill="#c9cccc" d="M 170.5,219.5 C 170.631,218.624 170.298,217.957 169.5,217.5C 167.591,218.348 165.591,218.682 163.5,218.5C 165.905,217.232 168.572,216.565 171.5,216.5C 171.737,217.791 171.404,218.791 170.5,219.5 Z"/></g>
<g><path style="opacity:1" fill="#4b5153" d="M 104.5,216.5 C 104.5,217.5 104.5,218.5 104.5,219.5C 102.097,219.448 99.7638,219.781 97.5,220.5C 99.3356,218.412 101.669,217.079 104.5,216.5 Z"/></g>
<g><path style="opacity:0.439" fill="#bec2c0" d="M 163.5,218.5 C 154.913,219.387 146.246,219.721 137.5,219.5C 139.391,222.942 140.391,226.609 140.5,230.5C 138.892,226.599 137.225,222.599 135.5,218.5C 135.709,217.914 136.043,217.414 136.5,217C 145.366,218.26 154.366,218.76 163.5,218.5 Z"/></g>
<g><path style="opacity:0.2" fill="#c0c4c5" d="M 205.5,218.5 C 207.027,218.427 208.027,219.094 208.5,220.5C 206.973,220.573 205.973,219.906 205.5,218.5 Z"/></g>
<g><path style="opacity:0.725" fill="#959b9b" d="M 297.5,212.5 C 297.657,213.873 297.49,215.207 297,216.5C 294.002,218.668 291.169,221.001 288.5,223.5C 291.216,219.465 294.216,215.799 297.5,212.5 Z"/></g>
<g><path style="opacity:0.718" fill="#818584" d="M 97.5,220.5 C 97.0269,221.906 96.0269,222.573 94.5,222.5C 94.9731,221.094 95.9731,220.427 97.5,220.5 Z"/></g>
<g><path style="opacity:1" fill="#10171c" d="M 170.5,219.5 C 170.5,219.833 170.5,220.167 170.5,220.5C 169.262,222.214 168.595,224.214 168.5,226.5C 166.065,230.799 164.398,235.466 163.5,240.5C 163.768,242.099 163.434,243.432 162.5,244.5C 160.166,246.176 159.166,248.509 159.5,251.5C 159.5,251.833 159.5,252.167 159.5,252.5C 157.787,253.635 157.12,255.302 157.5,257.5C 157.737,258.791 157.404,259.791 156.5,260.5C 155.21,261.058 154.377,262.058 154,263.5C 153.292,262.619 152.458,261.953 151.5,261.5C 151.397,258.364 150.397,255.698 148.5,253.5C 148.741,251.102 148.074,249.102 146.5,247.5C 145.566,246.432 145.232,245.099 145.5,243.5C 147.007,240.28 146.007,237.947 142.5,236.5C 142.5,236.167 142.5,235.833 142.5,235.5C 142.88,233.302 142.213,231.635 140.5,230.5C 140.391,226.609 139.391,222.942 137.5,219.5C 146.246,219.721 154.913,219.387 163.5,218.5C 165.591,218.682 167.591,218.348 169.5,217.5C 170.298,217.957 170.631,218.624 170.5,219.5 Z"/></g>
<g><path style="opacity:0.004" fill="#e3e6e6" d="M 170.5,220.5 C 171.472,222.92 170.805,224.92 168.5,226.5C 168.595,224.214 169.262,222.214 170.5,220.5 Z"/></g>
<g><path style="opacity:0.757" fill="#797b7b" d="M 94.5,222.5 C 94.0269,223.906 93.0269,224.573 91.5,224.5C 91.9731,223.094 92.9731,222.427 94.5,222.5 Z"/></g>
<g><path style="opacity:0.996" fill="#555b5d" d="M 210.5,221.5 C 213.109,222.443 215.109,224.11 216.5,226.5C 215.167,226.5 213.833,226.5 212.5,226.5C 212.169,224.678 211.502,223.011 210.5,221.5 Z"/></g>
<g><path style="opacity:0.463" fill="#a7aaac" d="M 126.5,221.5 C 128.267,223.792 129.267,226.458 129.5,229.5C 127.415,227.316 126.415,224.649 126.5,221.5 Z"/></g>
<g><path style="opacity:0.004" fill="#c3c5c8" d="M 216.5,226.5 C 219.089,227.419 221.089,229.086 222.5,231.5C 219.911,230.581 217.911,228.914 216.5,226.5 Z"/></g>
<g><path style="opacity:0.761" fill="#808686" d="M 91.5,224.5 C 90.0892,226.914 88.0892,228.581 85.5,229.5C 86.9108,227.086 88.9108,225.419 91.5,224.5 Z"/></g>
<g><path style="opacity:0.255" fill="#c4c8c7" d="M 85.5,229.5 C 85.1667,230.5 84.5,231.167 83.5,231.5C 83.5,230.167 84.1667,229.5 85.5,229.5 Z"/></g>
<g><path style="opacity:0.345" fill="#acb2b2" d="M 168.5,226.5 C 167.602,231.534 165.935,236.201 163.5,240.5C 164.398,235.466 166.065,230.799 168.5,226.5 Z"/></g>
<g><path style="opacity:0.816" fill="#85898a" d="M 179.5,226.5 C 178.668,232.666 176.668,238.333 173.5,243.5C 174.735,237.457 176.735,231.79 179.5,226.5 Z"/></g>
<g><path style="opacity:0.122" fill="#d6dbdb" d="M 129.5,229.5 C 130.738,231.214 131.405,233.214 131.5,235.5C 129.926,233.898 129.259,231.898 129.5,229.5 Z"/></g>
<g><path style="opacity:0.67" fill="#919597" d="M 403.5,219.5 C 406.27,221.366 407.77,224.032 408,227.5C 408.667,233.5 408.667,239.5 408,245.5C 407.626,247.491 406.793,249.158 405.5,250.5C 406.574,242.202 406.74,233.868 406,225.5C 405.345,223.372 404.511,221.372 403.5,219.5 Z"/></g>
<g><path style="opacity:0.337" fill="#bfc3c3" d="M 83.5,231.5 C 83.1667,232.5 82.5,233.167 81.5,233.5C 81.5,232.167 82.1667,231.5 83.5,231.5 Z"/></g>
<g><path style="opacity:0.553" fill="#979a9a" d="M 140.5,230.5 C 142.213,231.635 142.88,233.302 142.5,235.5C 141.463,234.07 140.796,232.403 140.5,230.5 Z"/></g>
<g><path style="opacity:0.612" fill="#b0b2b3" d="M 222.5,231.5 C 224.914,232.911 226.581,234.911 227.5,237.5C 225.086,236.089 223.419,234.089 222.5,231.5 Z"/></g>
<g><path style="opacity:0.182" fill="#cbcfd0" d="M 427.5,144.5 C 430.091,145.254 431.924,146.921 433,149.5C 433.5,188.832 433.667,228.165 433.5,267.5C 432.667,228.669 432.167,189.669 432,150.5C 430.668,148.34 429.168,146.34 427.5,144.5 Z"/></g>
<g><path style="opacity:0.797" fill="#787c7e" d="M 288.5,223.5 C 288.5,232.167 288.5,240.833 288.5,249.5C 287.732,248.737 287.232,247.737 287,246.5C 286.333,239.833 286.333,233.167 287,226.5C 287.232,225.263 287.732,224.263 288.5,223.5 Z"/></g>
<g><path style="opacity:0.651" fill="#96999b" d="M 81.5,233.5 C 80.5806,236.089 78.914,238.089 76.5,239.5C 77.4194,236.911 79.086,234.911 81.5,233.5 Z"/></g>
<g><path style="opacity:0.984" fill="#575e60" d="M 142.5,236.5 C 146.007,237.947 147.007,240.28 145.5,243.5C 144.691,242.531 143.691,241.698 142.5,241C 143.413,239.586 143.413,238.086 142.5,236.5 Z"/></g>
<g><path style="opacity:0.667" fill="#888c8d" d="M 227.5,237.5 C 229.262,238.262 230.262,239.596 230.5,241.5C 228.738,240.738 227.738,239.404 227.5,237.5 Z"/></g>
<g><path style="opacity:0.761" fill="#9b9fa1" d="M 132.5,239.5 C 133.289,239.783 133.956,240.283 134.5,241C 134.034,242.299 134.034,243.799 134.5,245.5C 132.926,243.898 132.259,241.898 132.5,239.5 Z"/></g>
<g><path style="opacity:0.255" fill="#b7baba" d="M 76.5,239.5 C 75.6597,241.853 74.3264,243.853 72.5,245.5C 72.8449,242.802 74.1782,240.802 76.5,239.5 Z"/></g>
<g><path style="opacity:0.584" fill="#a9b0ad" d="M 173.5,243.5 C 173.741,245.898 173.074,247.898 171.5,249.5C 171.595,247.214 172.262,245.214 173.5,243.5 Z"/></g>
<g><path style="opacity:0.796" fill="#727676" d="M 162.5,244.5 C 162.065,247.157 161.065,249.491 159.5,251.5C 159.166,248.509 160.166,246.176 162.5,244.5 Z"/></g>
<g><path style="opacity:0.922" fill="#7e8383" d="M 71.5,247.5 C 71.5997,250.108 70.9331,252.442 69.5,254.5C 69.1667,254.5 68.8333,254.5 68.5,254.5C 69.0883,251.937 70.0883,249.604 71.5,247.5 Z"/></g>
<g><path style="opacity:0.082" fill="#c4c6c6" d="M 146.5,247.5 C 148.074,249.102 148.741,251.102 148.5,253.5C 146.926,251.898 146.259,249.898 146.5,247.5 Z"/></g>
<g><path style="opacity:0.902" fill="#898d8f" d="M 171.5,249.5 C 171.946,252.01 171.28,254.01 169.5,255.5C 169.595,253.214 170.262,251.214 171.5,249.5 Z"/></g>
<g><path style="opacity:0.61" fill="#727679" d="M 371.5,255.5 C 355.544,254.364 339.544,254.197 323.5,255C 322.865,258.603 322.198,262.103 321.5,265.5C 321.207,261.563 321.54,257.73 322.5,254C 330.667,253.833 338.833,253.667 347,253.5C 355.528,253.502 363.695,254.169 371.5,255.5 Z"/></g>
<g><path style="opacity:0.624" fill="#7f8287" d="M 135.5,249.5 C 137.074,251.102 137.741,253.102 137.5,255.5C 135.926,253.898 135.259,251.898 135.5,249.5 Z"/></g>
<g><path style="opacity:0.745" fill="#838689" d="M 159.5,252.5 C 159.598,254.553 158.931,256.22 157.5,257.5C 157.12,255.302 157.787,253.635 159.5,252.5 Z"/></g>
<g><path style="opacity:0.006" fill="#fefffe" d="M 324.5,255.5 C 325.713,256.497 325.546,257.497 324,258.5C 323.53,257.423 323.697,256.423 324.5,255.5 Z"/></g>
<g><path style="opacity:0.006" fill="#fefffe" d="M 298.5,257.5 C 298.897,256.475 299.563,256.308 300.5,257C 299.906,257.464 299.239,257.631 298.5,257.5 Z"/></g>
<g><path style="opacity:0.222" fill="#d1d3d3" d="M 295.5,254.5 C 297.833,254.5 300.167,254.5 302.5,254.5C 302.237,258.6 302.57,262.6 303.5,266.5C 302.883,266.611 302.383,266.944 302,267.5C 301.691,266.234 301.191,265.067 300.5,264C 301.444,261.281 301.777,258.448 301.5,255.5C 299.265,255.795 297.265,255.461 295.5,254.5 Z"/></g>
<g><path style="opacity:0.004" fill="#fefffe" d="M 394.5,256.5 C 395.833,257.167 395.833,257.167 394.5,256.5 Z"/></g>
<g><path style="opacity:0.275" fill="#a7afb0" d="M 148.5,253.5 C 150.397,255.698 151.397,258.364 151.5,261.5C 149.733,259.208 148.733,256.542 148.5,253.5 Z"/></g>
<g><path style="opacity:0.439" fill="#acadae" d="M 68.5,254.5 C 68.5905,257.152 67.9238,259.485 66.5,261.5C 66.4095,258.848 67.0762,256.515 68.5,254.5 Z"/></g>
<g><path style="opacity:0.51" fill="#898c8e" d="M 137.5,255.5 C 139.097,257.848 140.097,260.514 140.5,263.5C 138.345,261.383 137.345,258.716 137.5,255.5 Z"/></g>
<g><path style="opacity:0.435" fill="#a9abaa" d="M 156.5,260.5 C 156.325,262.844 155.158,264.511 153,265.5C 152.209,264.255 151.709,262.922 151.5,261.5C 152.458,261.953 153.292,262.619 154,263.5C 154.377,262.058 155.21,261.058 156.5,260.5 Z"/></g>
<g><path style="opacity:0.188" fill="#d0d4d5" d="M 140.5,263.5 C 141.674,264.514 142.34,265.847 142.5,267.5C 140.896,266.713 140.229,265.38 140.5,263.5 Z"/></g>
<g><path style="opacity:0.271" fill="#a2a8a6" d="M 371.5,255.5 C 372.938,259.493 374.271,263.66 375.5,268C 380.155,268.499 384.821,268.666 389.5,268.5C 387.366,270.033 384.866,270.7 382,270.5C 378.479,270.917 375.479,269.917 373,267.5C 372.319,263.267 371.819,259.267 371.5,255.5 Z"/></g>
<g><path style="opacity:0.027" fill="#d9dbdb" d="M 392.5,265.5 C 392.5,267.5 391.5,268.5 389.5,268.5C 390.167,267.167 391.167,266.167 392.5,265.5 Z"/></g>
<g><path style="opacity:0.573" fill="#a4a5a5" d="M 303.5,267.5 C 309.167,268.833 314.833,268.833 320.5,267.5C 319.942,268.79 318.942,269.623 317.5,270C 313.833,270.667 310.167,270.667 306.5,270C 305.058,269.623 304.058,268.79 303.5,267.5 Z"/></g>
<g><path style="opacity:0.612" fill="#a7abb1" d="M 164.5,268.5 C 164.262,270.404 163.262,271.738 161.5,272.5C 161.738,270.596 162.738,269.262 164.5,268.5 Z"/></g>
<g><path style="opacity:0.773" fill="#8d8f90" d="M 143.5,269.5 C 145.262,270.262 146.262,271.596 146.5,273.5C 144.738,272.738 143.738,271.404 143.5,269.5 Z"/></g>
<g><path style="opacity:0.012" fill="#d4d6d8" d="M 434.5,270.5 C 436.167,271.5 437.5,272.833 438.5,274.5C 436.167,274.167 434.833,272.833 434.5,270.5 Z"/></g>
<g><path style="opacity:0.02" fill="#d4d4d3" d="M 450.5,271.5 C 450.5,272.833 449.833,273.5 448.5,273.5C 448.833,272.5 449.5,271.833 450.5,271.5 Z"/></g>
<g><path style="opacity:0.016" fill="#cacdcc" d="M 146.5,273.5 C 147.833,273.5 148.5,274.167 148.5,275.5C 147.5,275.167 146.833,274.5 146.5,273.5 Z"/></g>
<g><path style="opacity:0.014" fill="#c1c4c4" d="M 448.5,273.5 C 447.306,274.777 445.64,275.444 443.5,275.5C 441.631,275.493 439.964,275.16 438.5,274.5C 441.939,274.747 445.272,274.414 448.5,273.5 Z"/></g>
<g><path style="opacity:0.004" fill="#dadddc" d="M 148.5,275.5 C 149.833,275.5 150.5,276.167 150.5,277.5C 149.5,277.167 148.833,276.5 148.5,275.5 Z"/></g>
<g><path style="opacity:0.741" fill="#7e8483" d="M 161.5,272.5 C 161.167,274.833 159.833,276.167 157.5,276.5C 158.5,274.833 159.833,273.5 161.5,272.5 Z"/></g>
<g><path style="opacity:0.361" fill="#c4c6c6" d="M 408.5,277.5 C 410.455,276.07 412.121,276.403 413.5,278.5C 411.883,277.962 410.216,277.629 408.5,277.5 Z"/></g>
<g><path style="opacity:0.004" fill="#fefffe" d="M 443.5,276.5 C 444.833,277.167 444.833,277.167 443.5,276.5 Z"/></g>
<g><path style="opacity:0.004" fill="#fefffe" d="M 407.5,280.5 C 406.833,281.167 406.833,281.167 407.5,280.5 Z"/></g>
<g><path style="opacity:1" fill="#4b4f51" d="M 413.5,278.5 C 416.563,280.025 419.23,282.025 421.5,284.5C 419.322,283.796 417.322,283.463 415.5,283.5C 415.935,281.597 415.268,279.931 413.5,278.5 Z"/></g>
<g><path style="opacity:0.082" fill="#d1d2d3" d="M 423.5,285.5 C 422.508,285.672 421.842,285.338 421.5,284.5C 422.925,282.969 423.591,283.302 423.5,285.5 Z"/></g>
<g><path style="opacity:0.004" fill="#daddda" d="M 423.5,285.5 C 425.027,285.427 426.027,286.094 426.5,287.5C 424.973,287.573 423.973,286.906 423.5,285.5 Z"/></g>
<g><path style="opacity:0.294" fill="#a2a5a5" d="M 369.5,286.5 C 340.165,286.333 310.831,286.5 281.5,287C 280.295,288.376 278.962,289.542 277.5,290.5C 277.859,288.629 278.859,287.129 280.5,286C 310.336,285.169 340.003,285.336 369.5,286.5 Z"/></g>
<g><path style="opacity:1" fill="#11181d" d="M 369.5,286.5 C 370.492,286.328 371.158,286.662 371.5,287.5C 372.833,290.833 372.833,294.167 371.5,297.5C 371.082,298.222 370.416,298.722 369.5,299C 340.167,299.667 310.833,299.667 281.5,299C 280.058,298.623 279.058,297.79 278.5,296.5C 278.672,295.508 278.338,294.842 277.5,294.5C 277.5,293.167 277.5,291.833 277.5,290.5C 278.962,289.542 280.295,288.376 281.5,287C 310.831,286.5 340.165,286.333 369.5,286.5 Z"/></g>
<g><path style="opacity:0.604" fill="#939896" d="M 408.5,277.5 C 409.822,283.101 410.822,288.767 411.5,294.5C 411.167,294.5 410.833,294.5 410.5,294.5C 410.737,293.209 410.404,292.209 409.5,291.5C 409.192,287.64 408.525,283.974 407.5,280.5C 407.263,279.209 407.596,278.209 408.5,277.5 Z"/></g>
<g><path style="opacity:0.082" fill="#d8dada" d="M 426.5,287.5 C 428.027,287.427 429.027,288.094 429.5,289.5C 427.973,289.573 426.973,288.906 426.5,287.5 Z"/></g>
<g><path style="opacity:0.008" fill="#dae0e2" d="M 429.5,289.5 C 431.027,289.427 432.027,290.094 432.5,291.5C 430.973,291.573 429.973,290.906 429.5,289.5 Z"/></g>
<g><path style="opacity:0.533" fill="#b3b6b7" d="M 371.5,287.5 C 375.305,290.884 375.305,294.217 371.5,297.5C 372.833,294.167 372.833,290.833 371.5,287.5 Z"/></g>
<g><path style="opacity:0.006" fill="#e8ebeb" d="M 409.5,291.5 C 409.16,293.548 409.493,294.548 410.5,294.5C 410.833,294.5 411.167,294.5 411.5,294.5C 411.5,295.833 411.5,297.167 411.5,298.5C 409.5,298.5 407.5,298.5 405.5,298.5C 406.952,297.698 408.618,297.198 410.5,297C 408.368,295.38 408.035,293.546 409.5,291.5 Z"/></g>
<g><path style="opacity:0.012" fill="#f4f5f5" d="M 277.5,294.5 C 278.338,294.842 278.672,295.508 278.5,296.5C 276.576,296.289 276.243,295.623 277.5,294.5 Z"/></g>
<g><path style="opacity:0.322" fill="#aaadaf" d="M 436.5,295.5 C 437.906,295.973 438.573,296.973 438.5,298.5C 437.094,298.027 436.427,297.027 436.5,295.5 Z"/></g>
<g><path style="opacity:0.82" fill="#8d9192" d="M 405.5,298.5 C 404.365,300.213 402.698,300.88 400.5,300.5C 401.78,299.069 403.447,298.402 405.5,298.5 Z"/></g>
<g><path style="opacity:0.2" fill="#a4a8a9" d="M 400.5,300.5 C 396.54,302.816 392.54,305.15 388.5,307.5C 391.55,303.638 395.55,301.305 400.5,300.5 Z"/></g>
<g><path style="opacity:0.06" fill="#ebebeb" d="M 65.5,268.5 C 65.3333,303.168 65.5,337.835 66,372.5C 66.9406,375.154 67.7739,377.821 68.5,380.5C 67.1429,379.41 66.1429,378.076 65.5,376.5C 64.183,340.36 64.183,304.36 65.5,268.5 Z"/></g>
<g><path style="opacity:0.004" fill="#fefffe" d="M 440.5,304.5 C 441.525,304.897 441.692,305.563 441,306.5C 440.536,305.906 440.369,305.239 440.5,304.5 Z"/></g>
<g><path style="opacity:0.643" fill="#868a8b" d="M 388.5,307.5 C 387.738,309.262 386.404,310.262 384.5,310.5C 385.262,308.738 386.596,307.738 388.5,307.5 Z"/></g>
<g><path style="opacity:0.203" fill="#c8cccc" d="M 94.5,303.5 C 94.1995,325.2 94.5328,346.866 95.5,368.5C 94.7784,368.082 94.2784,367.416 94,366.5C 93.1707,345.329 93.3373,324.329 94.5,303.5 Z"/></g>
<g><path style="opacity:0.171" fill="#cfd2d2" d="M 283.5,314.5 C 296.994,313.339 310.66,313.173 324.5,314C 325.942,314.377 326.942,315.21 327.5,316.5C 326.078,316.291 324.745,315.791 323.5,315C 310.171,314.5 296.837,314.333 283.5,314.5 Z"/></g>
<g><path style="opacity:0.388" fill="#c0c3c3" d="M 384.5,310.5 C 382.833,312.833 380.833,314.833 378.5,316.5C 379.5,313.5 381.5,311.5 384.5,310.5 Z"/></g>
<g><path style="opacity:0.094" fill="#bdc3c3" d="M 437.5,312.5 C 436.92,314.749 435.587,316.415 433.5,317.5C 434.08,315.251 435.413,313.585 437.5,312.5 Z"/></g>
<g><path style="opacity:1" fill="#0e151a" d="M 283.5,314.5 C 296.837,314.333 310.171,314.5 323.5,315C 324.745,315.791 326.078,316.291 327.5,316.5C 328.265,319.096 328.599,321.763 328.5,324.5C 327.317,325.504 325.984,326.338 324.5,327C 310.5,327.667 296.5,327.667 282.5,327C 281.756,325.961 280.756,325.461 279.5,325.5C 278.631,323.283 278.298,320.95 278.5,318.5C 279.833,317.833 280.833,316.833 281.5,315.5C 281.842,314.662 282.508,314.328 283.5,314.5 Z"/></g>
<g><path style="opacity:0.341" fill="#b5b8ba" d="M 281.5,315.5 C 280.833,316.833 279.833,317.833 278.5,318.5C 278.5,316.5 279.5,315.5 281.5,315.5 Z"/></g>
<g><path style="opacity:1" fill="#13191c" d="M 68.5,254.5 C 68.8333,254.5 69.1667,254.5 69.5,254.5C 70.0196,258.401 69.6862,262.401 68.5,266.5C 70.8007,268.163 70.8007,269.997 68.5,272C 71.9417,286.728 72.275,301.562 69.5,316.5C 69.6082,317.442 69.9415,318.275 70.5,319C 71.9346,318.689 73.2679,318.855 74.5,319.5C 75.4948,314.208 75.8282,308.875 75.5,303.5C 76.8221,303.33 77.9887,303.663 79,304.5C 79.499,308.821 79.6657,313.154 79.5,317.5C 78.325,317.281 77.325,317.614 76.5,318.5C 77.1074,320.775 77.4407,323.109 77.5,325.5C 74.3158,334.328 74.9825,343.661 79.5,353.5C 78.43,355.879 77.7634,358.379 77.5,361C 79.0199,365.32 79.5199,369.82 79,374.5C 78.6667,374.833 78.3333,375.167 78,375.5C 77.657,372.807 76.3237,370.807 74,369.5C 73.8283,364.798 73.3283,360.132 72.5,355.5C 71.7568,354.092 70.9234,352.759 70,351.5C 69.3683,359.492 68.8683,367.326 68.5,375C 70.337,377.299 72.1703,379.466 74,381.5C 75.6537,380.347 77.1537,379.013 78.5,377.5C 82.0212,377.991 85.6879,378.991 89.5,380.5C 87.6769,381.491 86.1769,382.824 85,384.5C 83.1393,382.057 81.306,382.39 79.5,385.5C 128.162,386.5 176.829,386.833 225.5,386.5C 175.313,387.817 124.98,387.817 74.5,386.5C 74.1583,385.662 73.4916,385.328 72.5,385.5C 72.1667,384.167 71.8333,384.167 71.5,385.5C 70.6618,385.158 70.3284,384.492 70.5,383.5C 70.573,381.973 69.9063,380.973 68.5,380.5C 67.7739,377.821 66.9406,375.154 66,372.5C 65.5,337.835 65.3333,303.168 65.5,268.5C 65.298,266.05 65.6314,263.717 66.5,261.5C 67.9238,259.485 68.5905,257.152 68.5,254.5 Z"/></g>
<g><path style="opacity:0.804" fill="#85888b" d="M 327.5,316.5 C 330.466,318.996 330.799,321.662 328.5,324.5C 328.599,321.763 328.265,319.096 327.5,316.5 Z"/></g>
<g><path style="opacity:0.009" fill="#e7eaea" d="M 278.5,318.5 C 278.298,320.95 278.631,323.283 279.5,325.5C 278.883,325.611 278.383,325.944 278,326.5C 276.51,323.77 276.676,321.103 278.5,318.5 Z"/></g>
<g><path style="opacity:0.004" fill="#fefffe" d="M 427.5,323.5 C 428.833,324.167 428.833,324.167 427.5,323.5 Z"/></g>
<g><path style="opacity:0.286" fill="#cacecf" d="M 374.5,320.5 C 372.833,322.5 371.167,324.5 369.5,326.5C 369.167,326.5 368.833,326.5 368.5,326.5C 369.5,323.5 371.5,321.5 374.5,320.5 Z"/></g>
<g><path style="opacity:0.008" fill="#fefffe" d="M 426.5,324.5 C 426.833,324.5 427.167,324.5 427.5,324.5C 427.315,325.17 426.981,325.17 426.5,324.5 Z"/></g>
<g><path style="opacity:1" fill="#3b4244" d="M 426.5,323.5 C 426.5,323.833 426.5,324.167 426.5,324.5C 424.5,326.167 422.5,327.833 420.5,329.5C 420.167,329.5 419.833,329.5 419.5,329.5C 418.398,327.908 419.065,327.075 421.5,327C 421.034,325.701 421.034,324.201 421.5,322.5C 423.216,322.629 424.883,322.962 426.5,323.5 Z"/></g>
<g><path style="opacity:0.634" fill="#64696a" d="M 210.5,300.5 C 212.017,300.511 213.184,301.177 214,302.5C 214.667,323.833 214.667,345.167 214,366.5C 213.578,368.426 212.411,369.426 210.5,369.5C 211.504,368.317 212.338,366.984 213,365.5C 213.667,345.167 213.667,324.833 213,304.5C 212.338,303.016 211.504,301.683 210.5,300.5 Z"/></g>
<g><path style="opacity:0.506" fill="#83878a" d="M 328.5,324.5 C 328.426,326.411 327.426,327.578 325.5,328C 310.833,328.667 296.167,328.667 281.5,328C 280.619,327.292 279.953,326.458 279.5,325.5C 280.756,325.461 281.756,325.961 282.5,327C 296.5,327.667 310.5,327.667 324.5,327C 325.984,326.338 327.317,325.504 328.5,324.5 Z"/></g>
<g><path style="opacity:0.998" fill="#333739" d="M 368.5,326.5 C 368.833,326.5 369.167,326.5 369.5,326.5C 368.527,328.447 367.527,330.447 366.5,332.5C 364.026,333.32 361.693,334.32 359.5,335.5C 362.167,332.167 365.167,329.167 368.5,326.5 Z"/></g>
<g><path style="opacity:0.031" fill="#c9cbcb" d="M 419.5,329.5 C 419.833,329.5 420.167,329.5 420.5,329.5C 419.415,331.587 417.749,332.92 415.5,333.5C 416.5,331.833 417.833,330.5 419.5,329.5 Z"/></g>
<g><path style="opacity:0.01" fill="#e5e6e5" d="M 449.5,333.5 C 448.508,333.672 447.842,333.338 447.5,332.5C 448.925,330.969 449.591,331.302 449.5,333.5 Z"/></g>
<g><path style="opacity:0.541" fill="#96999d" d="M 447.5,332.5 C 443.556,332.113 439.889,332.78 436.5,334.5C 436.953,333.542 437.619,332.708 438.5,332C 441.696,331.195 444.696,331.362 447.5,332.5 Z"/></g>
<g><path style="opacity:0.446" fill="#afb2b4" d="M 204.5,301.5 C 204.33,322.911 204.33,344.911 204.5,367.5C 203.883,367.389 203.383,367.056 203,366.5C 202.333,345.5 202.333,324.5 203,303.5C 203.278,302.584 203.778,301.918 204.5,301.5 Z"/></g>
<g><path style="opacity:1" fill="#0f171c" d="M 408.5,277.5 C 410.216,277.629 411.883,277.962 413.5,278.5C 415.268,279.931 415.935,281.597 415.5,283.5C 417.322,283.463 419.322,283.796 421.5,284.5C 421.842,285.338 422.508,285.672 423.5,285.5C 423.973,286.906 424.973,287.573 426.5,287.5C 426.973,288.906 427.973,289.573 429.5,289.5C 429.973,290.906 430.973,291.573 432.5,291.5C 434.167,292.5 435.5,293.833 436.5,295.5C 436.427,297.027 437.094,298.027 438.5,298.5C 440.047,303.271 439.714,307.937 437.5,312.5C 435.413,313.585 434.08,315.251 433.5,317.5C 431.806,319.861 429.806,321.861 427.5,323.5C 427.167,323.5 426.833,323.5 426.5,323.5C 424.883,322.962 423.216,322.629 421.5,322.5C 421.034,324.201 421.034,325.701 421.5,327C 419.065,327.075 418.398,327.908 419.5,329.5C 417.833,330.5 416.5,331.833 415.5,333.5C 415.5,334.167 415.167,334.5 414.5,334.5C 412.586,331.316 411.92,327.649 412.5,323.5C 412.5,321.5 412.5,319.5 412.5,317.5C 409.759,317.707 407.426,318.707 405.5,320.5C 403.973,320.427 402.973,321.094 402.5,322.5C 401.29,322.932 400.29,323.599 399.5,324.5C 399.167,325.167 398.833,325.833 398.5,326.5C 397.5,327.167 396.5,327.833 395.5,328.5C 394.85,328.196 394.183,327.863 393.5,327.5C 391.807,330.012 389.474,331.512 386.5,332C 386.146,333.626 386.146,335.459 386.5,337.5C 385.833,338.833 384.833,339.833 383.5,340.5C 380.103,339.888 378.436,341.554 378.5,345.5C 378.5,345.833 378.5,346.167 378.5,346.5C 378.167,346.5 377.833,346.5 377.5,346.5C 376.527,348.292 377.194,349.625 379.5,350.5C 381.833,354.833 385.167,358.167 389.5,360.5C 391.5,361.833 393.5,363.167 395.5,364.5C 395.973,365.906 396.973,366.573 398.5,366.5C 405.167,367.833 411.833,367.833 418.5,366.5C 420.674,366.25 422.341,365.25 423.5,363.5C 426.5,362.5 428.5,360.5 429.5,357.5C 431.975,356.313 432.975,354.313 432.5,351.5C 433.222,351.082 433.722,350.416 434,349.5C 434.499,345.514 434.666,341.514 434.5,337.5C 435.906,337.027 436.573,336.027 436.5,334.5C 439.889,332.78 443.556,332.113 447.5,332.5C 447.842,333.338 448.508,333.672 449.5,333.5C 449.738,335.404 450.738,336.738 452.5,337.5C 453.738,343.122 453.738,348.789 452.5,354.5C 450.72,355.99 450.054,357.99 450.5,360.5C 448.659,362.849 447.326,365.515 446.5,368.5C 445.094,368.973 444.427,369.973 444.5,371.5C 444.5,371.833 444.5,372.167 444.5,372.5C 443.5,372.833 442.833,373.5 442.5,374.5C 440.833,375.833 439.167,377.167 437.5,378.5C 435.973,378.427 434.973,379.094 434.5,380.5C 432.973,380.427 431.973,381.094 431.5,382.5C 430.508,382.328 429.842,382.662 429.5,383.5C 427.316,385.585 424.649,386.585 421.5,386.5C 412.825,387.751 404.159,387.751 395.5,386.5C 393.898,384.926 391.898,384.259 389.5,384.5C 388.833,384.5 388.167,384.5 387.5,384.5C 386.833,383.833 386.167,383.167 385.5,382.5C 385.158,381.662 384.492,381.328 383.5,381.5C 382.738,379.738 381.404,378.738 379.5,378.5C 377.431,375.427 374.764,373.094 371.5,371.5C 370.243,368.573 368.243,366.239 365.5,364.5C 364.5,363.833 363.5,363.167 362.5,362.5C 361.833,361.5 361.167,360.5 360.5,359.5C 359.92,357.251 358.587,355.585 356.5,354.5C 355.5,354.167 354.833,353.5 354.5,352.5C 353.071,349.692 352.405,346.692 352.5,343.5C 355.573,341.431 357.906,338.764 359.5,335.5C 361.693,334.32 364.026,333.32 366.5,332.5C 367.527,330.447 368.527,328.447 369.5,326.5C 371.167,324.5 372.833,322.5 374.5,320.5C 375.402,318.659 376.736,317.326 378.5,316.5C 380.833,314.833 382.833,312.833 384.5,310.5C 386.404,310.262 387.738,309.262 388.5,307.5C 392.54,305.15 396.54,302.816 400.5,300.5C 402.698,300.88 404.365,300.213 405.5,298.5C 407.5,298.5 409.5,298.5 411.5,298.5C 411.5,297.167 411.5,295.833 411.5,294.5C 410.822,288.767 409.822,283.101 408.5,277.5 Z"/></g>
<g><path style="opacity:1" fill="#444a4e" d="M 395.5,328.5 C 392.833,331.833 389.833,334.833 386.5,337.5C 386.146,335.459 386.146,333.626 386.5,332C 389.474,331.512 391.807,330.012 393.5,327.5C 394.183,327.863 394.85,328.196 395.5,328.5 Z"/></g>
<g><path style="opacity:0.788" fill="#7c8081" d="M 411.5,323.5 C 411.833,323.5 412.167,323.5 412.5,323.5C 411.92,327.649 412.586,331.316 414.5,334.5C 413.458,335.791 412.292,335.791 411,334.5C 410.938,330.852 411.105,327.185 411.5,323.5 Z"/></g>
<g><path style="opacity:0.004" fill="#fefffe" d="M 398.5,326.5 C 399.833,327.167 399.833,327.167 398.5,326.5 Z"/></g>
<g><path style="opacity:0.012" fill="#eef0f0" d="M 402.5,322.5 C 402.179,324.048 401.179,324.715 399.5,324.5C 400.29,323.599 401.29,322.932 402.5,322.5 Z"/></g>
<g><path style="opacity:0.01" fill="#e8e9e9" d="M 405.5,320.5 C 405.123,322.824 404.123,323.491 402.5,322.5C 402.973,321.094 403.973,320.427 405.5,320.5 Z"/></g>
<g><path style="opacity:0.243" fill="#bdc2c4" d="M 412.5,323.5 C 412.167,323.5 411.833,323.5 411.5,323.5C 411.5,322.167 411.5,320.833 411.5,319.5C 408.402,319.413 408.068,319.913 410.5,321C 409.584,321.374 408.75,321.874 408,322.5C 407.583,321.244 406.75,320.577 405.5,320.5C 407.426,318.707 409.759,317.707 412.5,317.5C 412.5,319.5 412.5,321.5 412.5,323.5 Z"/></g>
<g><path style="opacity:0.686" fill="#aaadab" d="M 449.5,333.5 C 451.262,334.262 452.262,335.596 452.5,337.5C 450.738,336.738 449.738,335.404 449.5,333.5 Z"/></g>
<g><path style="opacity:0.447" fill="#9b9f9e" d="M 436.5,334.5 C 436.573,336.027 435.906,337.027 434.5,337.5C 434.427,335.973 435.094,334.973 436.5,334.5 Z"/></g>
<g><path style="opacity:0.757" fill="#7c8080" d="M 359.5,335.5 C 357.906,338.764 355.573,341.431 352.5,343.5C 354.094,340.236 356.427,337.569 359.5,335.5 Z"/></g>
<g><path style="opacity:0.997" fill="#53575b" d="M 383.5,340.5 C 382.167,342.5 380.5,344.167 378.5,345.5C 378.436,341.554 380.103,339.888 383.5,340.5 Z"/></g>
<g><path style="opacity:0.012" fill="#fefffe" d="M 317.5,342.5 C 318.833,343.167 318.833,343.167 317.5,342.5 Z"/></g>
<g><path style="opacity:0.898" fill="#4f5659" d="M 103.5,302.5 C 104.117,302.611 104.617,302.944 105,303.5C 105.333,323.833 105.667,344.167 106,364.5C 106.654,363.304 107.154,363.304 107.5,364.5C 106.665,367.582 104.665,369.248 101.5,369.5C 101.783,368.711 102.283,368.044 103,367.5C 103.5,345.836 103.667,324.169 103.5,302.5 Z"/></g>
<g><path style="opacity:0.792" fill="#696c6d" d="M 434.5,337.5 C 434.666,341.514 434.499,345.514 434,349.5C 433.722,350.416 433.222,351.082 432.5,351.5C 432.532,346.609 433.199,341.943 434.5,337.5 Z"/></g>
<g><path style="opacity:0.467" fill="#a0a3a3" d="M 281.5,343.5 C 280.833,344.833 279.833,345.833 278.5,346.5C 278.5,344.5 279.5,343.5 281.5,343.5 Z"/></g>
<g><path style="opacity:0.007" fill="#fefffe" d="M 351.5,345.5 C 351.5,346.5 351.5,347.5 351.5,348.5C 349.443,348.043 349.443,347.043 351.5,345.5 Z"/></g>
<g><path style="opacity:0.004" fill="#fefffe" d="M 378.5,346.5 C 379.833,347.167 379.833,347.167 378.5,346.5 Z"/></g>
<g><path style="opacity:0.482" fill="#a4adae" d="M 377.5,346.5 C 377.5,347.167 377.833,347.5 378.5,347.5C 379.11,348.391 379.443,349.391 379.5,350.5C 377.194,349.625 376.527,348.292 377.5,346.5 Z"/></g>
<g><path style="opacity:1" fill="#171c22" d="M 317.5,343.5 C 320.761,346.32 321.261,349.654 319,353.5C 318.184,354.823 317.017,355.489 315.5,355.5C 304.495,355.667 293.495,355.5 282.5,355C 281.016,354.338 279.683,353.504 278.5,352.5C 278.5,350.5 278.5,348.5 278.5,346.5C 279.833,345.833 280.833,344.833 281.5,343.5C 293.402,342.18 305.402,342.18 317.5,343.5 Z"/></g>
<g><path style="opacity:0.004" fill="#fefffe" d="M 380.5,349.5 C 381.833,350.167 381.833,350.167 380.5,349.5 Z"/></g>
<g><path style="opacity:0.039" fill="#b0b2b4" d="M 352.5,343.5 C 352.405,346.692 353.071,349.692 354.5,352.5C 353.026,351.564 352.026,350.23 351.5,348.5C 351.5,347.5 351.5,346.5 351.5,345.5C 351.328,344.508 351.662,343.842 352.5,343.5 Z"/></g>
<g><path style="opacity:0.047" fill="#d4d5d6" d="M 278.5,346.5 C 278.5,348.5 278.5,350.5 278.5,352.5C 277.637,353.463 276.97,353.463 276.5,352.5C 277.767,350.629 277.767,348.796 276.5,347C 277.094,346.536 277.761,346.369 278.5,346.5 Z"/></g>
<g><path style="opacity:0.82" fill="#9ca0a1" d="M 379.5,350.5 C 379.833,350.5 380.167,350.5 380.5,350.5C 383.5,353.833 386.5,357.167 389.5,360.5C 385.167,358.167 381.833,354.833 379.5,350.5 Z"/></g>
<g><path style="opacity:0.114" fill="#dde3e4" d="M 278.5,352.5 C 279.683,353.504 281.016,354.338 282.5,355C 293.495,355.5 304.495,355.667 315.5,355.5C 304.341,356.659 293.008,356.826 281.5,356C 279.574,355.578 278.574,354.411 278.5,352.5 Z"/></g>
<g><path style="opacity:0.008" fill="#d0d3d2" d="M 356.5,354.5 C 358.587,355.585 359.92,357.251 360.5,359.5C 358.413,358.415 357.08,356.749 356.5,354.5 Z"/></g>
<g><path style="opacity:0.424" fill="#939595" d="M 432.5,351.5 C 432.975,354.313 431.975,356.313 429.5,357.5C 429.992,355.181 430.992,353.181 432.5,351.5 Z"/></g>
<g><path style="opacity:0.792" fill="#888c8d" d="M 452.5,354.5 C 451.904,356.398 451.904,358.065 452.5,359.5C 452.158,360.338 451.492,360.672 450.5,360.5C 450.054,357.99 450.72,355.99 452.5,354.5 Z"/></g>
<g><path style="opacity:0.004" fill="#fefffe" d="M 452.5,358.5 C 453.833,359.167 453.833,359.167 452.5,358.5 Z"/></g>
<g><path style="opacity:0.992" fill="#515557" d="M 261.5,357.5 C 263.008,359.181 264.008,361.181 264.5,363.5C 263.504,363.414 262.671,363.748 262,364.5C 261.503,362.19 261.337,359.857 261.5,357.5 Z"/></g>
<g><path style="opacity:0.004" fill="#fefffe" d="M 362.5,362.5 C 361.833,363.167 361.833,363.167 362.5,362.5 Z"/></g>
<g><path style="opacity:0.553" fill="#9fa5a4" d="M 429.5,357.5 C 428.5,360.5 426.5,362.5 423.5,363.5C 425.167,361.167 427.167,359.167 429.5,357.5 Z"/></g>
<g><path style="opacity:0.153" fill="#c3caca" d="M 450.5,360.5 C 450.206,363.754 448.873,366.421 446.5,368.5C 447.326,365.515 448.659,362.849 450.5,360.5 Z"/></g>
<g><path style="opacity:0.259" fill="#b2b4b3" d="M 423.5,363.5 C 422.341,365.25 420.674,366.25 418.5,366.5C 419.659,364.75 421.326,363.75 423.5,363.5 Z"/></g>
<g><path style="opacity:0.009" fill="#dcddde" d="M 242.5,363.5 C 244.065,365.509 245.065,367.843 245.5,370.5C 242.29,368.853 241.29,366.52 242.5,363.5 Z"/></g>
<g><path style="opacity:0.004" fill="#d0d2d2" d="M 365.5,364.5 C 368.243,366.239 370.243,368.573 371.5,371.5C 368.757,369.761 366.757,367.427 365.5,364.5 Z"/></g>
<g><path style="opacity:0.247" fill="#b4baba" d="M 395.5,364.5 C 397.027,364.427 398.027,365.094 398.5,366.5C 396.973,366.573 395.973,365.906 395.5,364.5 Z"/></g>
<g><path style="opacity:0.169" fill="#b8bcbd" d="M 266.5,365.5 C 268.027,365.427 269.027,366.094 269.5,367.5C 267.973,367.573 266.973,366.906 266.5,365.5 Z"/></g>
<g><path style="opacity:0.016" fill="#e0e2e2" d="M 271.5,368.5 C 270.508,368.672 269.842,368.338 269.5,367.5C 270.925,365.969 271.591,366.302 271.5,368.5 Z"/></g>
<g><path style="opacity:0.731" fill="#858a89" d="M 230.5,241.5 C 231.222,241.918 231.722,242.584 232,243.5C 232.667,289.5 232.667,335.5 232,381.5C 231.768,382.737 231.268,383.737 230.5,384.5C 230.5,336.833 230.5,289.167 230.5,241.5 Z"/></g>
<g><path style="opacity:0.052" fill="#e7e8e8" d="M 274.5,369.5 C 301.502,369.333 328.502,369.5 355.5,370C 357.464,371.451 358.797,373.284 359.5,375.5C 357.704,374.207 356.037,372.707 354.5,371C 327.664,370.832 300.997,370.332 274.5,369.5 Z"/></g>
<g><path style="opacity:0.02" fill="#d2d5d5" d="M 446.5,368.5 C 446.573,370.027 445.906,371.027 444.5,371.5C 444.427,369.973 445.094,368.973 446.5,368.5 Z"/></g>
<g><path style="opacity:1" fill="#73797c" d="M 204.5,367.5 C 206.142,369.081 208.142,369.747 210.5,369.5C 207.048,372.404 205.048,371.738 204.5,367.5 Z"/></g>
<g><path style="opacity:0.584" fill="#aeb1b1" d="M 371.5,371.5 C 374.764,373.094 377.431,375.427 379.5,378.5C 376.236,376.906 373.569,374.573 371.5,371.5 Z"/></g>
<g><path style="opacity:0.004" fill="#fefffe" d="M 444.5,372.5 C 445.833,373.167 445.833,373.167 444.5,372.5 Z"/></g>
<g><path style="opacity:0.451" fill="#b1b3b4" d="M 246.5,372.5 C 250.119,375.452 253.452,378.785 256.5,382.5C 255.883,382.611 255.383,382.944 255,383.5C 251.951,379.957 249.118,376.291 246.5,372.5 Z"/></g>
<g><path style="opacity:0.004" fill="#fefffe" d="M 442.5,374.5 C 443.833,375.167 443.833,375.167 442.5,374.5 Z"/></g>
<g><path style="opacity:0.004" fill="#fefffe" d="M 65.5,376.5 C 64.8333,377.167 64.8333,377.167 65.5,376.5 Z"/></g>
<g><path style="opacity:0.765" fill="#989d9d" d="M 359.5,375.5 C 362.243,377.239 364.243,379.573 365.5,382.5C 362.757,380.761 360.757,378.427 359.5,375.5 Z"/></g>
<g><path style="opacity:0.455" fill="#a9acac" d="M 379.5,378.5 C 381.404,378.738 382.738,379.738 383.5,381.5C 381.596,381.262 380.262,380.262 379.5,378.5 Z"/></g>
<g><path style="opacity:0.035" fill="#dbdfdf" d="M 437.5,378.5 C 437.027,379.906 436.027,380.573 434.5,380.5C 434.973,379.094 435.973,378.427 437.5,378.5 Z"/></g>
<g><path style="opacity:0.007" fill="#dadcdc" d="M 68.5,380.5 C 69.9063,380.973 70.573,381.973 70.5,383.5C 68.9519,383.179 68.2852,382.179 68.5,380.5 Z"/></g>
<g><path style="opacity:0.014" fill="#e2e3e4" d="M 434.5,380.5 C 434.123,382.824 433.123,383.491 431.5,382.5C 431.973,381.094 432.973,380.427 434.5,380.5 Z"/></g>
<g><path style="opacity:0.004" fill="#e5e6e8" d="M 383.5,381.5 C 384.492,381.328 385.158,381.662 385.5,382.5C 384.075,384.031 383.409,383.698 383.5,381.5 Z"/></g>
<g><path style="opacity:0.018" fill="#e3e4e5" d="M 429.5,383.5 C 429.842,382.662 430.508,382.328 431.5,382.5C 431.591,384.698 430.925,385.031 429.5,383.5 Z"/></g>
<g><path style="opacity:0.365" fill="#adaeb0" d="M 258.5,383.5 C 260.027,383.427 261.027,384.094 261.5,385.5C 259.973,385.573 258.973,384.906 258.5,383.5 Z"/></g>
<g><path style="opacity:0.016" fill="#fefffe" d="M 387.5,384.5 C 386.833,385.167 386.833,385.167 387.5,384.5 Z"/></g>
<g><path style="opacity:0.004" fill="#f1f2f2" d="M 71.5,385.5 C 71.8333,385.5 72.1667,385.5 72.5,385.5C 73.4916,385.328 74.1583,385.662 74.5,386.5C 73.1054,387.815 72.1054,387.481 71.5,385.5 Z"/></g>
<g><path style="opacity:0.659" fill="#898d8e" d="M 389.5,384.5 C 391.898,384.259 393.898,384.926 395.5,386.5C 393.102,386.741 391.102,386.074 389.5,384.5 Z"/></g>
<g><path style="opacity:0.494" fill="#84888b" d="M 74.5,386.5 C 124.98,387.817 175.313,387.817 225.5,386.5C 226.5,386.5 227.5,386.5 228.5,386.5C 228.389,387.117 228.056,387.617 227.5,388C 177.167,388.667 126.833,388.667 76.5,388C 75.5842,387.722 74.9175,387.222 74.5,386.5 Z"/></g>
<g><path style="opacity:0.576" fill="#929697" d="M 261.5,385.5 C 263.927,385.523 266.26,386.023 268.5,387C 300.498,387.5 332.498,387.667 364.5,387.5C 364.082,388.222 363.416,388.722 362.5,389C 332.833,389.667 303.167,389.667 273.5,389C 269.047,388.975 265.047,387.808 261.5,385.5 Z"/></g>
<g><path style="opacity:0.557" fill="#9a9f9e" d="M 395.5,386.5 C 404.159,387.751 412.825,387.751 421.5,386.5C 412.833,390.5 404.167,390.5 395.5,386.5 Z"/></g>
</svg>
