<?xml version="1.0" encoding="UTF-8"?>
<!DOCTYPE svg PUBLIC "-//W3C//DTD SVG 1.1//EN" "http://www.w3.org/Graphics/SVG/1.1/DTD/svg11.dtd">
<svg xmlns="http://www.w3.org/2000/svg" version="1.1" width="323px" height="296px" style="shape-rendering:geometricPrecision; text-rendering:geometricPrecision; image-rendering:optimizeQuality; fill-rule:evenodd; clip-rule:evenodd" xmlns:xlink="http://www.w3.org/1999/xlink">
<g><path style="opacity:0.494" fill="#7d7e7e" d="M 168.5,51.5 C 140.173,50.175 111.84,50.175 83.5,51.5C 83.9175,50.7784 84.5842,50.2784 85.5,50C 112.5,49.3333 139.5,49.3333 166.5,50C 167.416,50.2784 168.082,50.7784 168.5,51.5 Z"/></g>
<g><path style="opacity:0.999" fill="#e6e6e6" d="M 168.5,51.5 C 175.116,53.6979 178.616,58.3646 179,65.5C 179.979,99.8938 179.646,134.227 178,168.5C 175.034,171.265 172.367,170.932 170,167.5C 169.667,132.833 169.333,98.1667 169,63.5C 168.31,61.6498 167.144,60.3164 165.5,59.5C 165.082,58.7784 164.416,58.2784 163.5,58C 138.5,57.3333 113.5,57.3333 88.5,58C 87.5842,58.2784 86.9175,58.7784 86.5,59.5C 84.7775,61.2528 83.2775,63.2528 82,65.5C 81.6667,99.8333 81.3333,134.167 81,168.5C 77.9039,171.353 75.2373,171.02 73,167.5C 72.3333,132.833 72.3333,98.1667 73,63.5C 74.2448,57.4277 77.7448,53.4277 83.5,51.5C 111.84,50.175 140.173,50.175 168.5,51.5 Z"/></g>
<g><path style="opacity:0.999" fill="#e6e7e6" d="M 259.5,108.5 C 257.896,109.287 257.229,110.62 257.5,112.5C 255.197,117.77 252.364,122.77 249,127.5C 238.906,138.927 228.24,149.594 217,159.5C 215.358,159.022 214.191,158.022 213.5,156.5C 213.5,143.833 213.5,131.167 213.5,118.5C 212.5,118.5 211.5,118.5 210.5,118.5C 198.887,115.16 192.887,107.326 192.5,95C 192.506,92.9674 192.839,91.134 193.5,89.5C 195.074,87.8984 195.741,85.8984 195.5,83.5C 197.992,77.6761 202.325,74.0094 208.5,72.5C 210.861,72.3259 213.194,71.9926 215.5,71.5C 218.139,72.7058 218.972,74.7058 218,77.5C 214.138,79.5495 210.305,81.7162 206.5,84C 201.347,91.0108 201.18,98.1775 206,105.5C 213.932,111.082 221.599,110.748 229,104.5C 230.881,101.576 232.048,98.4094 232.5,95C 231.38,90.4322 229.714,86.0988 227.5,82C 227.667,79.1667 229.167,77.6667 232,77.5C 236.684,79.1895 239.684,82.5228 241,87.5C 242.569,91.1476 242.736,94.8143 241.5,98.5C 240.262,100.214 239.595,102.214 239.5,104.5C 237.5,111.167 233.167,115.5 226.5,117.5C 224.856,117.286 223.356,117.62 222,118.5C 221.169,126.188 221.335,133.855 222.5,141.5C 223.107,141.376 223.44,141.043 223.5,140.5C 230.459,132.371 237.626,124.371 245,116.5C 249.98,108.585 252.48,99.9183 252.5,90.5C 252.889,87.4467 252.223,84.78 250.5,82.5C 242.297,64.2314 228.297,56.7314 208.5,60C 202.259,61.4523 196.925,64.4523 192.5,69C 186.137,70.1266 184.137,67.6266 186.5,61.5C 188.992,58.6634 191.992,56.6634 195.5,55.5C 197.967,55.2451 199.967,54.2451 201.5,52.5C 227.65,44.8263 246.817,53.1596 259,77.5C 262.124,87.8007 262.29,98.1341 259.5,108.5 Z"/></g>
<g><path style="opacity:0.741" fill="#888988" d="M 201.5,52.5 C 199.967,54.2451 197.967,55.2451 195.5,55.5C 197.033,53.7549 199.033,52.7549 201.5,52.5 Z"/></g>
<g><path style="opacity:0.759" fill="#bbbcbb" d="M 165.5,59.5 C 139.167,58.1667 112.833,58.1667 86.5,59.5C 86.9175,58.7784 87.5842,58.2784 88.5,58C 113.5,57.3333 138.5,57.3333 163.5,58C 164.416,58.2784 165.082,58.7784 165.5,59.5 Z"/></g>
<g><path style="opacity:0.988" fill="#b7b8b8" d="M 118.5,67.5 C 120.173,68.343 121.34,69.6763 122,71.5C 122.367,67.7188 123.7,67.0522 126,69.5C 126.667,71.8333 126.667,74.1667 126,76.5C 124.087,78.9556 122.421,78.6222 121,75.5C 120.424,78.1242 119.09,78.7908 117,77.5C 116.037,73.8513 116.537,70.518 118.5,67.5 Z"/></g>
<g><path style="opacity:0.998" fill="#a7a8a7" d="M 133.5,77.5 C 133.5,74.8333 133.5,72.1667 133.5,69.5C 132.127,69.3433 130.793,69.51 129.5,70C 130.756,70.4169 131.423,71.2502 131.5,72.5C 129.468,71.9522 128.468,70.6188 128.5,68.5C 131.722,68.1081 134.722,68.6081 137.5,70C 135.309,72.0976 133.976,74.5976 133.5,77.5 Z"/></g>
<g><path style="opacity:0.985" fill="#c4c6c5" d="M 139.5,68.5 C 140.978,68.238 142.311,68.5713 143.5,69.5C 145.375,72.2398 146.042,75.0732 145.5,78C 144.223,78.1274 143.057,77.6274 142,76.5C 140.715,76.9504 139.548,77.6171 138.5,78.5C 137.914,78.2907 137.414,77.9574 137,77.5C 137.776,74.5767 138.609,71.5767 139.5,68.5 Z"/></g>
<g><path style="opacity:0.8" fill="#767977" d="M 215.5,71.5 C 213.194,71.9926 210.861,72.3259 208.5,72.5C 210.713,70.6883 213.047,70.3549 215.5,71.5 Z"/></g>
<g><path style="opacity:0.988" fill="#c6c8c7" d="M 95.5,68.5 C 97.924,68.1924 100.257,68.5258 102.5,69.5C 103.311,72.5519 103.311,75.3852 102.5,78C 101.004,78.5074 99.8373,78.0074 99,76.5C 97.9207,78.3937 96.5874,78.727 95,77.5C 94.2642,74.408 94.4309,71.408 95.5,68.5 Z"/></g>
<g><path style="opacity:0.49" fill="#686868" d="M 97.5,71.5 C 98.675,71.281 99.675,71.6143 100.5,72.5C 98.9483,73.7979 97.9483,73.4646 97.5,71.5 Z"/></g>
<g><path style="opacity:0.055" fill="#373939" d="M 151.5,69.5 C 152.158,71.6391 153.158,73.6391 154.5,75.5C 153.5,75.5 152.5,75.5 151.5,75.5C 151.5,73.5 151.5,71.5 151.5,69.5 Z"/></g>
<g><path style="opacity:0.987" fill="#d6d7d7" d="M 133.5,77.5 C 132.434,78.6921 131.601,78.3588 131,76.5C 130.421,75.0715 130.588,73.7382 131.5,72.5C 131.423,71.2502 130.756,70.4169 129.5,70C 130.793,69.51 132.127,69.3433 133.5,69.5C 133.5,72.1667 133.5,74.8333 133.5,77.5 Z"/></g>
<g><path style="opacity:0.987" fill="#cdcfce" d="M 151.5,69.5 C 151.5,71.5 151.5,73.5 151.5,75.5C 152.5,75.5 153.5,75.5 154.5,75.5C 156.549,75.7058 156.883,76.5391 155.5,78C 153.231,78.7581 151.064,78.5914 149,77.5C 148.502,74.5184 148.335,71.5184 148.5,68.5C 149.791,68.2627 150.791,68.596 151.5,69.5 Z"/></g>
<g><path style="opacity:0.988" fill="#c6c7c6" d="M 106.5,68.5 C 109.397,68.1253 112.063,68.6253 114.5,70C 113.643,70.6891 112.977,71.5224 112.5,72.5C 112.463,74.3222 112.796,76.3222 113.5,78.5C 111.208,78.7564 109.041,78.4231 107,77.5C 106.502,74.5184 106.335,71.5184 106.5,68.5 Z"/></g>
<g><path style="opacity:0.796" fill="#878a89" d="M 64.5,87.5 C 62.5,87.5 60.5,87.5 58.5,87.5C 60.5,84.8333 62.5,84.8333 64.5,87.5 Z"/></g>
<g><path style="opacity:1" fill="#eeeeee" d="M 58.5,87.5 C 60.5,87.5 62.5,87.5 64.5,87.5C 65.1174,87.6107 65.6174,87.944 66,88.5C 66.6667,124.5 66.6667,160.5 66,196.5C 65.6174,197.056 65.1174,197.389 64.5,197.5C 62.5328,197.739 60.6995,197.406 59,196.5C 58.5,160.168 58.3333,123.835 58.5,87.5 Z"/></g>
<g><path style="opacity:0.271" fill="#616262" d="M 250.5,82.5 C 252.223,84.78 252.889,87.4467 252.5,90.5C 251.469,88.0392 250.802,85.3725 250.5,82.5 Z"/></g>
<g><path style="opacity:0.999" fill="#d9dada" d="M 96.5,87.5 C 100.182,87.3347 103.848,87.5014 107.5,88C 108.416,88.3742 109.25,88.8742 110,89.5C 110.667,93.8333 110.667,98.1667 110,102.5C 109.626,103.416 109.126,104.25 108.5,105C 104.167,105.667 99.8333,105.667 95.5,105C 95,104.5 94.5,104 94,103.5C 93.3333,98.8333 93.3333,94.1667 94,89.5C 94.9947,88.9341 95.828,88.2674 96.5,87.5 Z"/></g>
<g><path style="opacity:0.998" fill="#dddddd" d="M 119.5,87.5 C 123.514,87.3345 127.514,87.5012 131.5,88C 132.308,88.3076 132.975,88.8076 133.5,89.5C 138.387,103.443 133.721,108.61 119.5,105C 119,104.5 118.5,104 118,103.5C 116.946,97.8855 117.446,92.5522 119.5,87.5 Z"/></g>
<g><path style="opacity:0.999" fill="#e8e9e8" d="M 143.5,87.5 C 147.902,87.2281 152.235,87.5614 156.5,88.5C 157.806,94.0538 157.806,99.5538 156.5,105C 152.167,105.667 147.833,105.667 143.5,105C 143,104.5 142.5,104 142,103.5C 140.946,97.8855 141.446,92.5522 143.5,87.5 Z"/></g>
<g><path style="opacity:0.671" fill="#8d8e8e" d="M 195.5,83.5 C 195.741,85.8984 195.074,87.8984 193.5,89.5C 193.259,87.1016 193.926,85.1016 195.5,83.5 Z"/></g>
<g><path style="opacity:0.904" fill="#e2e3e2" d="M 58.5,87.5 C 58.3333,123.835 58.5,160.168 59,196.5C 60.6995,197.406 62.5328,197.739 64.5,197.5C 62.4402,198.811 60.2735,198.811 58,197.5C 57.1689,160.664 57.3356,123.998 58.5,87.5 Z"/></g>
<g><path style="opacity:0.388" fill="#707171" d="M 241.5,98.5 C 241.741,100.898 241.074,102.898 239.5,104.5C 239.595,102.214 240.262,100.214 241.5,98.5 Z"/></g>
<g><path style="opacity:0.514" fill="#6b6b6b" d="M 259.5,108.5 C 259.34,110.153 258.674,111.486 257.5,112.5C 257.229,110.62 257.896,109.287 259.5,108.5 Z"/></g>
<g><path style="opacity:0.999" fill="#dedfde" d="M 94.5,113.5 C 99.544,113.173 104.544,113.506 109.5,114.5C 111.068,119.836 110.735,125.003 108.5,130C 104.167,130.667 99.8333,130.667 95.5,130C 95,129.5 94.5,129 94,128.5C 93.2742,123.448 93.4409,118.448 94.5,113.5 Z"/></g>
<g><path style="opacity:0.999" fill="#e1e2e1" d="M 118.5,113.5 C 123.762,113.195 128.928,113.529 134,114.5C 134.667,119.167 134.667,123.833 134,128.5C 133.5,129 133,129.5 132.5,130C 117.769,133.374 113.102,127.874 118.5,113.5 Z"/></g>
<g><path style="opacity:0.999" fill="#eeefee" d="M 142.5,113.5 C 147.43,113.197 152.263,113.531 157,114.5C 157.804,119.751 157.637,124.918 156.5,130C 141.769,133.374 137.102,127.874 142.5,113.5 Z"/></g>
<g><path style="opacity:0.63" fill="#939493" d="M 226.5,117.5 C 225.739,118.391 224.739,119.058 223.5,119.5C 222.181,126.656 222.181,133.656 223.5,140.5C 223.44,141.043 223.107,141.376 222.5,141.5C 221.335,133.855 221.169,126.188 222,118.5C 223.356,117.62 224.856,117.286 226.5,117.5 Z"/></g>
<g><path style="opacity:1" fill="#e9e9e9" d="M 186.5,168.5 C 186.196,152.119 186.529,135.786 187.5,119.5C 189.719,118.12 191.719,118.454 193.5,120.5C 195.335,136.502 195.502,152.502 194,168.5C 191.377,171.124 188.877,171.124 186.5,168.5 Z"/></g>
<g><path style="opacity:0.999" fill="#dfdfdf" d="M 240.5,234.5 C 222.928,236.38 205.261,237.047 187.5,236.5C 184.027,234.437 183.694,231.937 186.5,229C 202.49,228.104 218.49,227.437 234.5,227C 242.192,223.977 247.025,218.477 249,210.5C 249.333,186.833 249.667,163.167 250,139.5C 252.791,134.291 255.791,134.291 259,139.5C 259.667,163.167 259.667,186.833 259,210.5C 256.897,221.738 250.73,229.738 240.5,234.5 Z"/></g>
<g><path style="opacity:0.999" fill="#d3d4d4" d="M 97.5,137.5 C 100.85,137.335 104.183,137.502 107.5,138C 108.308,138.308 108.975,138.808 109.5,139.5C 113.564,154.607 108.397,159.273 94,153.5C 93.3333,149.167 93.3333,144.833 94,140.5C 94.985,139.186 96.1516,138.186 97.5,137.5 Z"/></g>
<g><path style="opacity:0.999" fill="#d7d8d8" d="M 120.5,137.5 C 125.051,137.053 129.384,137.719 133.5,139.5C 135.068,144.836 134.735,150.003 132.5,155C 128.167,155.667 123.833,155.667 119.5,155C 119,154.5 118.5,154 118,153.5C 117.333,148.833 117.333,144.167 118,139.5C 118.995,138.934 119.828,138.267 120.5,137.5 Z"/></g>
<g><path style="opacity:0.998" fill="#e9e9e9" d="M 142.5,153.5 C 142.274,148.438 142.608,143.438 143.5,138.5C 157.019,134.861 161.519,139.861 157,153.5C 156.5,154 156,154.5 155.5,155C 151.5,155.667 147.5,155.667 143.5,155C 142.944,154.617 142.611,154.117 142.5,153.5 Z"/></g>
<g><path style="opacity:0.157" fill="#424443" d="M 210.5,118.5 C 211.5,118.5 212.5,118.5 213.5,118.5C 213.5,131.167 213.5,143.833 213.5,156.5C 213.127,143.763 212.127,131.096 210.5,118.5 Z"/></g>
<g><path style="opacity:0.396" fill="#707372" d="M 143.5,138.5 C 142.608,143.438 142.274,148.438 142.5,153.5C 141.352,149.019 141.185,144.352 142,139.5C 142.383,138.944 142.883,138.611 143.5,138.5 Z"/></g>
<g><path style="opacity:0.842" fill="#c6c6c7" d="M 187.5,119.5 C 186.529,135.786 186.196,152.119 186.5,168.5C 185.339,152.672 185.172,136.672 186,120.5C 186.383,119.944 186.883,119.611 187.5,119.5 Z"/></g>
<g><path style="opacity:0.816" fill="#9c9e9d" d="M 159.5,162.5 C 139.489,162.167 119.489,162.5 99.5,163.5C 99.4647,165.443 99.7981,167.443 100.5,169.5C 98.1104,169.315 97.1104,167.982 97.5,165.5C 97.2315,162.601 98.5648,161.101 101.5,161C 120.167,160.333 138.833,160.333 157.5,161C 158.416,161.278 159.082,161.778 159.5,162.5 Z"/></g>
<g><path style="opacity:0.998" fill="#e9e9e9" d="M 159.5,162.5 C 160.622,164.288 160.789,166.288 160,168.5C 159.25,169.126 158.416,169.626 157.5,170C 138.329,170.829 119.329,170.662 100.5,169.5C 99.7981,167.443 99.4647,165.443 99.5,163.5C 119.489,162.5 139.489,162.167 159.5,162.5 Z"/></g>
<g><path style="opacity:0.784" fill="#8c8d8d" d="M 112.5,176.5 C 103.114,176.22 93.7803,176.553 84.5,177.5C 85.347,176.034 86.6803,175.2 88.5,175C 95.5,174.333 102.5,174.333 109.5,175C 110.737,175.232 111.737,175.732 112.5,176.5 Z"/></g>
<g><path style="opacity:0.777" fill="#8b8c8b" d="M 169.5,176.5 C 160.5,176.5 151.5,176.5 142.5,176.5C 142.918,175.778 143.584,175.278 144.5,175C 151.833,174.333 159.167,174.333 166.5,175C 167.737,175.232 168.737,175.732 169.5,176.5 Z"/></g>
<g><path style="opacity:0.797" fill="#8c8d8d" d="M 228.5,176.5 C 219.167,176.5 209.833,176.5 200.5,176.5C 201.263,175.732 202.263,175.232 203.5,175C 212.069,174.055 220.403,174.555 228.5,176.5 Z"/></g>
<g><path style="opacity:1" fill="#efefef" d="M 112.5,176.5 C 114.074,176.937 115.241,177.937 116,179.5C 117.15,182.768 117.984,186.101 118.5,189.5C 118.259,191.898 118.926,193.898 120.5,195.5C 121.79,196.058 122.623,197.058 123,198.5C 123.564,201.155 124.064,203.821 124.5,206.5C 122.44,211.531 120.44,216.531 118.5,221.5C 116.167,221.5 113.833,221.5 111.5,221.5C 110.566,220.432 110.232,219.099 110.5,217.5C 103.018,216.508 95.3516,216.175 87.5,216.5C 87.5,217.833 87.5,219.167 87.5,220.5C 87.5,221.167 87.1667,221.5 86.5,221.5C 84.5,221.5 82.5,221.5 80.5,221.5C 79.8826,221.389 79.3826,221.056 79,220.5C 79.2205,216.752 77.8871,213.752 75,211.5C 73.4867,205.13 74.6534,199.464 78.5,194.5C 80.4725,191.916 81.4725,188.916 81.5,185.5C 81.4326,184.041 81.7659,182.708 82.5,181.5C 83.6737,180.486 84.3404,179.153 84.5,177.5C 93.7803,176.553 103.114,176.22 112.5,176.5 Z M 90.5,184.5 C 96.2055,184.171 101.872,184.505 107.5,185.5C 107.942,186.739 108.609,187.739 109.5,188.5C 109.557,189.609 109.89,190.609 110.5,191.5C 107.016,192.165 103.349,192.499 99.5,192.5C 95.4348,192.489 91.7681,191.822 88.5,190.5C 89.3627,188.579 90.0293,186.579 90.5,184.5 Z M 86.5,202.5 C 95.5839,202.196 104.584,202.529 113.5,203.5C 113.5,203.833 113.5,204.167 113.5,204.5C 112.167,205.167 112.167,205.833 113.5,206.5C 113.389,207.117 113.056,207.617 112.5,208C 103.5,208.667 94.5,208.667 85.5,208C 84.0198,205.765 84.3531,203.932 86.5,202.5 Z"/></g>
<g><path style="opacity:1" fill="#ebeceb" d="M 142.5,176.5 C 151.5,176.5 160.5,176.5 169.5,176.5C 170.458,176.953 171.292,177.619 172,178.5C 174.181,186.522 177.181,194.188 181,201.5C 182.26,206.184 181.26,210.184 178,213.5C 177.721,216.457 176.887,219.123 175.5,221.5C 173.167,221.5 170.833,221.5 168.5,221.5C 168.167,220.833 167.833,220.167 167.5,219.5C 167.5,218.5 167.5,217.5 167.5,216.5C 159.833,216.5 152.167,216.5 144.5,216.5C 144.5,217.5 144.5,218.5 144.5,219.5C 144.5,220.833 143.833,221.5 142.5,221.5C 140.097,221.552 137.764,221.219 135.5,220.5C 135.799,218.396 135.466,216.396 134.5,214.5C 133.201,213.91 132.368,212.91 132,211.5C 131.333,207.167 131.333,202.833 132,198.5C 134.242,196.13 135.742,193.464 136.5,190.5C 137.924,188.485 138.59,186.152 138.5,183.5C 138.736,180.379 140.069,178.046 142.5,176.5 Z M 164.5,184.5 C 164.402,186.553 165.069,188.22 166.5,189.5C 166.5,189.833 166.5,190.167 166.5,190.5C 163.742,191.818 160.576,192.485 157,192.5C 152.99,192.078 149.157,192.078 145.5,192.5C 145.094,191.443 145.094,190.109 145.5,188.5C 146.182,185.325 148.182,183.825 151.5,184C 155.819,183.924 160.152,184.091 164.5,184.5 Z M 142.5,202.5 C 151.506,202.334 160.506,202.5 169.5,203C 170.833,204.667 170.833,206.333 169.5,208C 160.5,208.667 151.5,208.667 142.5,208C 141.248,206.172 141.248,204.339 142.5,202.5 Z"/></g>
<g><path style="opacity:0.999" fill="#eff0ef" d="M 200.5,176.5 C 209.833,176.5 219.167,176.5 228.5,176.5C 231.012,178.465 232.345,181.132 232.5,184.5C 232.528,187.916 233.528,190.916 235.5,193.5C 239.647,199.304 240.48,205.637 238,212.5C 236.199,215.4 234.699,218.4 233.5,221.5C 230.579,221.717 227.913,221.051 225.5,219.5C 225.5,218.833 225.5,218.167 225.5,217.5C 218.018,216.508 210.352,216.175 202.5,216.5C 202.5,217.833 202.5,219.167 202.5,220.5C 200.201,222.769 197.534,223.102 194.5,221.5C 195.036,218.302 194.369,215.635 192.5,213.5C 191.504,213.586 190.671,213.252 190,212.5C 187.288,204.997 188.455,198.33 193.5,192.5C 194.924,190.485 195.59,188.152 195.5,185.5C 196.022,182.747 196.856,180.08 198,177.5C 198.671,176.748 199.504,176.414 200.5,176.5 Z M 223.5,184.5 C 223.595,186.786 224.262,188.786 225.5,190.5C 222.402,191.821 218.902,192.488 215,192.5C 210.784,192.435 206.617,192.102 202.5,191.5C 203.363,189.579 204.029,187.579 204.5,185.5C 210.744,184.542 217.077,184.209 223.5,184.5 Z M 228.5,203.5 C 228.634,205.292 228.301,206.958 227.5,208.5C 218.083,208.805 208.75,208.472 199.5,207.5C 199.286,205.856 199.62,204.356 200.5,203C 210.009,202.176 219.343,202.342 228.5,203.5 Z"/></g>
<g><path style="opacity:0.235" fill="#656767" d="M 84.5,177.5 C 84.3404,179.153 83.6737,180.486 82.5,181.5C 82.2291,179.62 82.8958,178.287 84.5,177.5 Z"/></g>
<g><path style="opacity:0.048" fill="#2d2d2e" d="M 90.5,184.5 C 96.3456,183.183 102.346,183.183 108.5,184.5C 109.246,185.736 109.579,187.07 109.5,188.5C 108.609,187.739 107.942,186.739 107.5,185.5C 101.872,184.505 96.2055,184.171 90.5,184.5 Z"/></g>
<g><path style="opacity:0.065" fill="#2e2f2e" d="M 223.5,184.5 C 217.077,184.209 210.744,184.542 204.5,185.5C 207.258,184.182 210.424,183.515 214,183.5C 217.352,183.502 220.518,183.835 223.5,184.5 Z"/></g>
<g><path style="opacity:0.8" fill="#8f9190" d="M 138.5,183.5 C 138.59,186.152 137.924,188.485 136.5,190.5C 136.41,187.848 137.076,185.515 138.5,183.5 Z"/></g>
<g><path style="opacity:0.459" fill="#707272" d="M 164.5,184.5 C 165.931,185.78 166.598,187.447 166.5,189.5C 165.069,188.22 164.402,186.553 164.5,184.5 Z"/></g>
<g><path style="opacity:0.784" fill="#7e807f" d="M 232.5,184.5 C 234.072,187.215 235.072,190.215 235.5,193.5C 233.528,190.916 232.528,187.916 232.5,184.5 Z"/></g>
<g><path style="opacity:0.886" fill="#919291" d="M 81.5,185.5 C 81.4725,188.916 80.4725,191.916 78.5,194.5C 78.9281,191.215 79.9281,188.215 81.5,185.5 Z"/></g>
<g><path style="opacity:0.812" fill="#909391" d="M 195.5,185.5 C 195.59,188.152 194.924,190.485 193.5,192.5C 193.41,189.848 194.076,187.515 195.5,185.5 Z"/></g>
<g><path style="opacity:0.551" fill="#8f9191" d="M 88.5,190.5 C 91.7681,191.822 95.4348,192.489 99.5,192.5C 103.349,192.499 107.016,192.165 110.5,191.5C 111.043,191.56 111.376,191.893 111.5,192.5C 103.528,193.498 95.5277,193.831 87.5,193.5C 87.2627,192.209 87.596,191.209 88.5,190.5 Z"/></g>
<g><path style="opacity:0.812" fill="#8a8c8b" d="M 118.5,189.5 C 119.738,191.214 120.405,193.214 120.5,195.5C 118.926,193.898 118.259,191.898 118.5,189.5 Z"/></g>
<g><path style="opacity:0.545" fill="#8b8d8d" d="M 145.5,188.5 C 145.094,190.109 145.094,191.443 145.5,192.5C 149.157,192.078 152.99,192.078 157,192.5C 160.576,192.485 163.742,191.818 166.5,190.5C 167.404,191.209 167.737,192.209 167.5,193.5C 159.5,193.5 151.5,193.5 143.5,193.5C 143.402,191.447 144.069,189.78 145.5,188.5 Z"/></g>
<g><path style="opacity:0.544" fill="#8c8e8d" d="M 225.5,190.5 C 226.404,191.209 226.737,192.209 226.5,193.5C 218.14,193.831 209.807,193.498 201.5,192.5C 201.624,191.893 201.957,191.56 202.5,191.5C 206.617,192.102 210.784,192.435 215,192.5C 218.902,192.488 222.402,191.821 225.5,190.5 Z"/></g>
<g><path style="opacity:0.436" fill="#7f7f7f" d="M 86.5,202.5 C 90.8205,201.834 95.3205,201.501 100,201.5C 104.886,201.507 109.386,202.174 113.5,203.5C 104.584,202.529 95.5839,202.196 86.5,202.5 Z"/></g>
<g><path style="opacity:0.027" fill="#373737" d="M 228.5,203.5 C 229.139,204.097 229.472,204.93 229.5,206C 229.316,207.376 228.649,208.209 227.5,208.5C 228.649,208.209 229.316,207.376 229.5,206C 229.472,204.93 229.139,204.097 228.5,203.5 Z"/></g>
<g><path style="opacity:0.374" fill="#737574" d="M 199.5,207.5 C 208.75,208.472 218.083,208.805 227.5,208.5C 223.012,209.166 218.346,209.499 213.5,209.5C 208.449,209.493 203.783,208.827 199.5,207.5 Z"/></g>
<g><path style="opacity:1" fill="#f6f7f6" d="M 80.5,227.5 C 81.2625,228.268 82.2625,228.768 83.5,229C 112.833,229.333 142.167,229.667 171.5,230C 172.406,231.699 172.739,233.533 172.5,235.5C 172.158,236.338 171.492,236.672 170.5,236.5C 139.475,236.803 108.475,236.47 77.5,235.5C 76.391,235.443 75.391,235.11 74.5,234.5C 74.0269,233.094 73.0269,232.427 71.5,232.5C 65.4333,229.093 61.1,224.093 58.5,217.5C 59.9032,213.746 62.5698,212.579 66.5,214C 69.715,220.049 74.3817,224.549 80.5,227.5 Z"/></g>
<g><path style="opacity:0.537" fill="#959695" d="M 192.5,213.5 C 194.369,215.635 195.036,218.302 194.5,221.5C 193.745,218.947 193.078,216.28 192.5,213.5 Z"/></g>
<g><path style="opacity:0.142" fill="#424342" d="M 110.5,217.5 C 103.167,217.5 95.8333,217.5 88.5,217.5C 88.7373,218.791 88.404,219.791 87.5,220.5C 87.5,219.167 87.5,217.833 87.5,216.5C 95.3516,216.175 103.018,216.508 110.5,217.5 Z"/></g>
<g><path style="opacity:0.09" fill="#353736" d="M 167.5,219.5 C 163.925,218.243 160.092,217.576 156,217.5C 151.908,217.576 148.075,218.243 144.5,219.5C 144.5,218.5 144.5,217.5 144.5,216.5C 152.167,216.5 159.833,216.5 167.5,216.5C 167.5,217.5 167.5,218.5 167.5,219.5 Z"/></g>
<g><path style="opacity:0.125" fill="#404140" d="M 225.5,217.5 C 218.167,217.5 210.833,217.5 203.5,217.5C 203.737,218.791 203.404,219.791 202.5,220.5C 202.5,219.167 202.5,217.833 202.5,216.5C 210.352,216.175 218.018,216.508 225.5,217.5 Z"/></g>
<g><path style="opacity:0.635" fill="#737676" d="M 80.5,221.5 C 82.5,221.5 84.5,221.5 86.5,221.5C 84.5,224.167 82.5,224.167 80.5,221.5 Z"/></g>
<g><path style="opacity:0.671" fill="#717471" d="M 111.5,221.5 C 113.833,221.5 116.167,221.5 118.5,221.5C 117.469,222.249 116.302,222.915 115,223.5C 113.698,222.915 112.531,222.249 111.5,221.5 Z"/></g>
<g><path style="opacity:0.651" fill="#7d7f7e" d="M 135.5,220.5 C 137.764,221.219 140.097,221.552 142.5,221.5C 140.08,223.617 137.746,223.284 135.5,220.5 Z"/></g>
<g><path style="opacity:0.78" fill="#757776" d="M 168.5,221.5 C 170.833,221.5 173.167,221.5 175.5,221.5C 173.236,223.891 170.902,223.891 168.5,221.5 Z"/></g>
<g><path style="opacity:0.671" fill="#8f9290" d="M 225.5,219.5 C 227.913,221.051 230.579,221.717 233.5,221.5C 231.372,222.629 229.039,222.796 226.5,222C 225.748,221.329 225.414,220.496 225.5,219.5 Z"/></g>
<g><path style="opacity:0.913" fill="#a0a1a0" d="M 80.5,227.5 C 109.901,227.559 139.234,227.559 168.5,227.5C 171.683,227.777 173.683,229.444 174.5,232.5C 174.058,233.739 173.391,234.739 172.5,235.5C 172.739,233.533 172.406,231.699 171.5,230C 142.167,229.667 112.833,229.333 83.5,229C 82.2625,228.768 81.2625,228.268 80.5,227.5 Z"/></g>
<g><path style="opacity:0.31" fill="#5c5e5c" d="M 71.5,232.5 C 73.0269,232.427 74.0269,233.094 74.5,234.5C 72.9731,234.573 71.9731,233.906 71.5,232.5 Z"/></g>
<g><path style="opacity:0.276" fill="#565656" d="M 77.5,235.5 C 108.475,236.47 139.475,236.803 170.5,236.5C 140.669,237.664 110.669,237.831 80.5,237C 79.2625,236.768 78.2625,236.268 77.5,235.5 Z"/></g>
<g><path style="opacity:0.256" fill="#5f5f5f" d="M 240.5,234.5 C 238.723,235.6 236.723,236.434 234.5,237C 218.661,237.828 202.995,237.661 187.5,236.5C 205.261,237.047 222.928,236.38 240.5,234.5 Z"/></g>
</svg>
