<?xml version="1.0" encoding="UTF-8"?>
<!DOCTYPE svg PUBLIC "-//W3C//DTD SVG 1.1//EN" "http://www.w3.org/Graphics/SVG/1.1/DTD/svg11.dtd">
<svg xmlns="http://www.w3.org/2000/svg" version="1.1" width="323px" height="315px" style="shape-rendering:geometricPrecision; text-rendering:geometricPrecision; image-rendering:optimizeQuality; fill-rule:evenodd; clip-rule:evenodd" xmlns:xlink="http://www.w3.org/1999/xlink">
<g><path style="opacity:0.651" fill="#909498" d="M 118.5,43.5 C 116.097,43.448 113.764,43.7814 111.5,44.5C 112.312,43.0069 113.645,42.3402 115.5,42.5C 116.726,42.5195 117.726,42.8529 118.5,43.5 Z"/></g>
<g><path style="opacity:0.999" fill="#f2f3f4" d="M 118.5,43.5 C 119.167,43.8333 119.833,44.1667 120.5,44.5C 120.5,46.8333 120.5,49.1667 120.5,51.5C 120.167,52.5 119.5,53.1667 118.5,53.5C 115.549,53.7128 112.882,53.0461 110.5,51.5C 110.5,49.5 110.5,47.5 110.5,45.5C 110.5,44.8333 110.833,44.5 111.5,44.5C 113.764,43.7814 116.097,43.448 118.5,43.5 Z"/></g>
<g><path style="opacity:1" fill="#d2d4d5" d="M 187.5,42.5 C 194.424,41.6963 197.258,44.6963 196,51.5C 192.333,55.5 188.667,55.5 185,51.5C 183.927,47.9003 184.76,44.9003 187.5,42.5 Z"/></g>
<g><path style="opacity:0.724" fill="#727778" d="M 120.5,44.5 C 122.891,46.9024 122.891,49.2358 120.5,51.5C 120.5,49.1667 120.5,46.8333 120.5,44.5 Z"/></g>
<g><path style="opacity:0.455" fill="#424650" d="M 110.5,45.5 C 110.5,47.5 110.5,49.5 110.5,51.5C 109.522,51.189 108.855,50.5223 108.5,49.5C 109.641,48.5745 109.641,47.7412 108.5,47C 109.044,46.2828 109.711,45.7828 110.5,45.5 Z"/></g>
<g><path style="opacity:0.314" fill="#5b6062" d="M 110.5,51.5 C 112.882,53.0461 115.549,53.7128 118.5,53.5C 115.282,55.1839 112.615,54.5172 110.5,51.5 Z"/></g>
<g><path style="opacity:0.384" fill="#5f6567" d="M 101.5,56.5 C 99.0971,56.448 96.7638,56.7814 94.5,57.5C 95.3121,56.0069 96.6455,55.3402 98.5,55.5C 99.7261,55.5195 100.726,55.8529 101.5,56.5 Z"/></g>
<g><path style="opacity:0.392" fill="#585e61" d="M 210.5,56.5 C 208.097,56.448 205.764,56.7814 203.5,57.5C 204.312,56.0069 205.645,55.3402 207.5,55.5C 208.726,55.5195 209.726,55.8529 210.5,56.5 Z"/></g>
<g><path style="opacity:1" fill="#eeeff0" d="M 101.5,56.5 C 103.046,58.8825 103.713,61.5491 103.5,64.5C 102.608,66.7142 100.942,67.7142 98.5,67.5C 96.6455,67.6598 95.3121,66.9931 94.5,65.5C 93.6314,63.283 93.298,60.9496 93.5,58.5C 93.5,57.8333 93.8333,57.5 94.5,57.5C 96.7638,56.7814 99.0971,56.448 101.5,56.5 Z"/></g>
<g><path style="opacity:1" fill="#f6f7f7" d="M 162.5,57.5 C 163.492,57.3284 164.158,57.6618 164.5,58.5C 164.973,59.9063 165.973,60.573 167.5,60.5C 168.08,62.7488 169.413,64.4154 171.5,65.5C 171.66,67.153 172.326,68.4863 173.5,69.5C 176.745,77.4157 175.412,84.4157 169.5,90.5C 168.167,91.1667 167.167,92.1667 166.5,93.5C 165.251,95.1361 163.584,96.3028 161.5,97C 157.141,98.4637 152.808,98.6304 148.5,97.5C 146.898,95.9261 144.898,95.2594 142.5,95.5C 138.082,93.4169 135.082,90.0836 133.5,85.5C 132.746,80.5365 132.413,75.5365 132.5,70.5C 132.5,70.1667 132.5,69.8333 132.5,69.5C 133.906,69.0269 134.573,68.0269 134.5,66.5C 134.5,66.1667 134.5,65.8333 134.5,65.5C 135.833,64.8333 136.833,63.8333 137.5,62.5C 139.167,61.5 140.5,60.1667 141.5,58.5C 141.833,58.5 142.167,58.5 142.5,58.5C 149.055,56.2876 155.722,55.9543 162.5,57.5 Z"/></g>
<g><path style="opacity:0.694" fill="#6e7175" d="M 162.5,57.5 C 155.722,55.9543 149.055,56.2876 142.5,58.5C 143.058,57.2101 144.058,56.3768 145.5,56C 150.5,55.3333 155.5,55.3333 160.5,56C 161.416,56.2784 162.082,56.7784 162.5,57.5 Z"/></g>
<g><path style="opacity:1" fill="#e4e6e7" d="M 210.5,56.5 C 211.75,56.5774 212.583,57.244 213,58.5C 213.703,60.9291 213.537,63.2625 212.5,65.5C 209.833,65.8333 207.167,66.1667 204.5,66.5C 201.066,63.7858 200.733,60.7858 203.5,57.5C 205.764,56.7814 208.097,56.448 210.5,56.5 Z"/></g>
<g><path style="opacity:0.31" fill="#3f4345" d="M 141.5,58.5 C 140.5,60.1667 139.167,61.5 137.5,62.5C 137.833,60.1667 139.167,58.8333 141.5,58.5 Z"/></g>
<g><path style="opacity:0.043" fill="#293434" d="M 164.5,58.5 C 166.027,58.427 167.027,59.0937 167.5,60.5C 165.973,60.573 164.973,59.9063 164.5,58.5 Z"/></g>
<g><path style="opacity:0.737" fill="#727678" d="M 93.5,58.5 C 93.298,60.9496 93.6314,63.283 94.5,65.5C 90.9987,63.653 90.6653,61.3197 93.5,58.5 Z"/></g>
<g><path style="opacity:0.49" fill="#797c80" d="M 101.5,56.5 C 104.517,58.6154 105.184,61.282 103.5,64.5C 103.713,61.5491 103.046,58.8825 101.5,56.5 Z"/></g>
<g><path style="opacity:0.561" fill="#4f5057" d="M 167.5,60.5 C 169.587,61.5846 170.92,63.2512 171.5,65.5C 169.413,64.4154 168.08,62.7488 167.5,60.5 Z"/></g>
<g><path style="opacity:0.325" fill="#454648" d="M 137.5,62.5 C 136.833,63.8333 135.833,64.8333 134.5,65.5C 134.5,63.5 135.5,62.5 137.5,62.5 Z"/></g>
<g><path style="opacity:0.616" fill="#8e9294" d="M 212.5,65.5 C 210.007,67.5838 207.34,67.9171 204.5,66.5C 207.167,66.1667 209.833,65.8333 212.5,65.5 Z"/></g>
<g><path style="opacity:0.067" fill="#323335" d="M 171.5,65.5 C 173.104,66.287 173.771,67.6203 173.5,69.5C 172.326,68.4863 171.66,67.153 171.5,65.5 Z"/></g>
<g><path style="opacity:0.243" fill="#4d4e50" d="M 134.5,66.5 C 134.573,68.0269 133.906,69.0269 132.5,69.5C 132.427,67.9731 133.094,66.9731 134.5,66.5 Z"/></g>
<g><path style="opacity:0.643" fill="#6c6f72" d="M 132.5,70.5 C 132.413,75.5365 132.746,80.5365 133.5,85.5C 132.636,84.3117 131.636,83.1451 130.5,82C 130.124,78.0901 130.791,74.2567 132.5,70.5 Z"/></g>
<g><path style="opacity:0.635" fill="#696c6f" d="M 221.5,81.5 C 216.105,81.2665 210.772,81.5998 205.5,82.5C 205.611,81.8826 205.944,81.3826 206.5,81C 211.684,80.1837 216.684,80.3503 221.5,81.5 Z"/></g>
<g><path style="opacity:1" fill="#f3f3f4" d="M 101.5,82.5 C 112.094,88.6279 115.594,97.6279 112,109.5C 105.945,121.609 96.445,125.609 83.5,121.5C 83.0269,120.094 82.0269,119.427 80.5,119.5C 80.0269,118.094 79.0269,117.427 77.5,117.5C 76.5,117.167 75.8333,116.5 75.5,115.5C 75.4456,113.368 74.4456,112.035 72.5,111.5C 67.5387,99.4577 70.5387,90.1243 81.5,83.5C 88.0467,81.2391 94.7134,80.9058 101.5,82.5 Z"/></g>
<g><path style="opacity:1" fill="#f4f5f5" d="M 221.5,81.5 C 223.153,81.6596 224.486,82.3263 225.5,83.5C 227.118,85.785 229.118,87.785 231.5,89.5C 231.427,91.0269 232.094,92.0269 233.5,92.5C 235.497,97.617 235.997,102.95 235,108.5C 234.722,109.416 234.222,110.082 233.5,110.5C 232.326,111.514 231.66,112.847 231.5,114.5C 229.781,117.219 227.447,119.219 224.5,120.5C 221.933,120.721 219.599,121.388 217.5,122.5C 215.167,122.5 212.833,122.5 210.5,122.5C 208.898,120.926 206.898,120.259 204.5,120.5C 192.375,112.871 189.542,102.538 196,89.5C 196.708,88.6195 197.542,87.9528 198.5,87.5C 200.167,86.5 201.5,85.1667 202.5,83.5C 203.391,82.8902 204.391,82.5569 205.5,82.5C 210.772,81.5998 216.105,81.2665 221.5,81.5 Z"/></g>
<g><path style="opacity:0.69" fill="#676b6e" d="M 101.5,82.5 C 94.7134,80.9058 88.0467,81.2391 81.5,83.5C 82.0577,82.2101 83.0577,81.3768 84.5,81C 87.557,80.7435 90.557,80.2435 93.5,79.5C 96.4621,80.0088 99.1288,81.0088 101.5,82.5 Z"/></g>
<g><path style="opacity:0.271" fill="#3b4242" d="M 202.5,83.5 C 201.5,85.1667 200.167,86.5 198.5,87.5C 198.833,85.1667 200.167,83.8333 202.5,83.5 Z"/></g>
<g><path style="opacity:0.839" fill="#616267" d="M 225.5,83.5 C 228.522,84.5222 230.522,86.5222 231.5,89.5C 229.118,87.785 227.118,85.785 225.5,83.5 Z"/></g>
<g><path style="opacity:0.282" fill="#58595a" d="M 231.5,89.5 C 232.906,89.9731 233.573,90.9731 233.5,92.5C 232.094,92.0269 231.427,91.0269 231.5,89.5 Z"/></g>
<g><path style="opacity:0.012" fill="#282828" d="M 169.5,90.5 C 169.5,92.5 168.5,93.5 166.5,93.5C 167.167,92.1667 168.167,91.1667 169.5,90.5 Z"/></g>
<g><path style="opacity:0.659" fill="#898d8f" d="M 142.5,95.5 C 144.898,95.2594 146.898,95.9261 148.5,97.5C 146.102,97.7406 144.102,97.0739 142.5,95.5 Z"/></g>
<g><path style="opacity:0.327" fill="#595c5e" d="M 158.5,110.5 C 153.797,110.437 149.13,110.771 144.5,111.5C 147.017,110.027 149.85,109.36 153,109.5C 155.033,109.506 156.866,109.839 158.5,110.5 Z"/></g>
<g><path style="opacity:0.875" fill="#707174" d="M 72.5,111.5 C 74.4456,112.035 75.4456,113.368 75.5,115.5C 74.0256,114.564 73.0256,113.23 72.5,111.5 Z"/></g>
<g><path style="opacity:1" fill="#f0f1f1" d="M 158.5,110.5 C 160.898,110.259 162.898,110.926 164.5,112.5C 165.514,113.674 166.847,114.34 168.5,114.5C 169.5,115.167 170.5,115.833 171.5,116.5C 171.731,119.063 173.065,120.73 175.5,121.5C 176.401,122.29 177.068,123.29 177.5,124.5C 178.982,129.015 179.648,133.681 179.5,138.5C 179.389,139.117 179.056,139.617 178.5,140C 161.833,140.667 145.167,140.667 128.5,140C 127.584,139.722 126.918,139.222 126.5,138.5C 126.552,134.802 126.886,131.135 127.5,127.5C 128.674,126.486 129.34,125.153 129.5,123.5C 131.587,122.415 132.92,120.749 133.5,118.5C 136.089,117.581 138.089,115.914 139.5,113.5C 140.93,112.463 142.597,111.796 144.5,111.5C 149.13,110.771 153.797,110.437 158.5,110.5 Z"/></g>
<g><path style="opacity:0.133" fill="#3e4244" d="M 164.5,112.5 C 166.38,112.229 167.713,112.896 168.5,114.5C 166.847,114.34 165.514,113.674 164.5,112.5 Z"/></g>
<g><path style="opacity:0.078" fill="#383a40" d="M 233.5,110.5 C 233.771,112.38 233.104,113.713 231.5,114.5C 231.66,112.847 232.326,111.514 233.5,110.5 Z"/></g>
<g><path style="opacity:0.886" fill="#989d9f" d="M 139.5,113.5 C 138.089,115.914 136.089,117.581 133.5,118.5C 134.911,116.086 136.911,114.419 139.5,113.5 Z"/></g>
<g><path style="opacity:0.365" fill="#586666" d="M 77.5,117.5 C 79.0269,117.427 80.0269,118.094 80.5,119.5C 78.9731,119.573 77.9731,118.906 77.5,117.5 Z"/></g>
<g><path style="opacity:0.918" fill="#92979a" d="M 133.5,118.5 C 132.92,120.749 131.587,122.415 129.5,123.5C 130.08,121.251 131.413,119.585 133.5,118.5 Z"/></g>
<g><path style="opacity:1" fill="#98999b" d="M 171.5,116.5 C 173.207,117.873 174.54,119.539 175.5,121.5C 173.065,120.73 171.731,119.063 171.5,116.5 Z"/></g>
<g><path style="opacity:0.227" fill="#45484b" d="M 80.5,119.5 C 82.0269,119.427 83.0269,120.094 83.5,121.5C 81.9731,121.573 80.9731,120.906 80.5,119.5 Z"/></g>
<g><path style="opacity:0.518" fill="#717376" d="M 204.5,120.5 C 206.898,120.259 208.898,120.926 210.5,122.5C 208.102,122.741 206.102,122.074 204.5,120.5 Z"/></g>
<g><path style="opacity:0.133" fill="#4f5455" d="M 224.5,120.5 C 222.562,122.163 220.228,122.829 217.5,122.5C 219.599,121.388 221.933,120.721 224.5,120.5 Z"/></g>
<g><path style="opacity:0.204" fill="#565a5a" d="M 129.5,123.5 C 129.34,125.153 128.674,126.486 127.5,127.5C 127.229,125.62 127.896,124.287 129.5,123.5 Z"/></g>
<g><path style="opacity:0.941" fill="#8d9194" d="M 177.5,124.5 C 178.558,125.6 179.392,126.934 180,128.5C 180.808,132.027 180.641,135.36 179.5,138.5C 179.648,133.681 178.982,129.015 177.5,124.5 Z"/></g>
<g><path style="opacity:0.675" fill="#8f9396" d="M 127.5,127.5 C 126.886,131.135 126.552,134.802 126.5,138.5C 125.098,134.71 125.431,131.044 127.5,127.5 Z"/></g>
<g><path style="opacity:0.678" fill="#6a7172" d="M 101.5,136.5 C 94.8409,135.217 88.1742,135.217 81.5,136.5C 88.1789,132.592 94.8455,132.592 101.5,136.5 Z"/></g>
<g><path style="opacity:0.675" fill="#737677" d="M 224.5,136.5 C 217.841,135.217 211.174,135.217 204.5,136.5C 211.167,132.5 217.833,132.5 224.5,136.5 Z"/></g>
<g><path style="opacity:1" fill="#f5f6f6" d="M 101.5,136.5 C 104.957,137.394 107.957,139.06 110.5,141.5C 110.427,143.027 111.094,144.027 112.5,144.5C 114.822,145.802 116.155,147.802 116.5,150.5C 117.761,154.374 118.428,158.374 118.5,162.5C 118.5,163.833 117.833,164.5 116.5,164.5C 101.496,164.333 86.4963,164.5 71.5,165C 70.7476,165.671 70.4142,166.504 70.5,167.5C 69.3895,171.532 67.7229,175.198 65.5,178.5C 64.0687,179.78 63.4021,181.447 63.5,183.5C 123.17,183.833 182.837,183.5 242.5,182.5C 242.376,181.893 242.043,181.56 241.5,181.5C 241.5,180.833 241.167,180.5 240.5,180.5C 238.235,175.632 236.235,170.632 234.5,165.5C 234.389,164.883 234.056,164.383 233.5,164C 218.123,163.802 202.789,163.302 187.5,162.5C 186.167,160.833 186.167,159.167 187.5,157.5C 188.924,155.485 189.59,153.152 189.5,150.5C 190.906,150.027 191.573,149.027 191.5,147.5C 194.291,142.045 198.624,138.378 204.5,136.5C 211.174,135.217 217.841,135.217 224.5,136.5C 228.605,137.283 231.939,139.283 234.5,142.5C 234.738,144.404 235.738,145.738 237.5,146.5C 237.427,148.027 238.094,149.027 239.5,149.5C 244.619,158.743 248.952,168.41 252.5,178.5C 253.674,182.819 253.674,187.153 252.5,191.5C 247.928,194.133 242.928,195.133 237.5,194.5C 237.667,215.836 237.5,237.169 237,258.5C 234.847,260.444 232.347,260.944 229.5,260C 228.177,259.184 227.511,258.017 227.5,256.5C 227.5,246.833 227.5,237.167 227.5,227.5C 213.5,227.5 199.5,227.5 185.5,227.5C 185.5,237.167 185.5,246.833 185.5,256.5C 185.044,259.286 183.377,260.619 180.5,260.5C 178.088,260.594 176.255,259.594 175,257.5C 174.333,239.167 174.333,220.833 175,202.5C 177.21,199.71 180.044,198.877 183.5,200C 184.823,200.816 185.489,201.983 185.5,203.5C 185.5,208.167 185.5,212.833 185.5,217.5C 199.5,218.833 213.5,218.833 227.5,217.5C 227.5,209.5 227.5,201.5 227.5,193.5C 204.5,192.167 181.5,192.167 158.5,193.5C 157.801,215.026 157.135,236.693 156.5,258.5C 153.763,258.599 151.096,258.265 148.5,257.5C 148.5,257.167 148.5,256.833 148.5,256.5C 148.5,235.5 148.5,214.5 148.5,193.5C 125.5,193.5 102.5,193.5 79.5,193.5C 78.5076,201.316 78.1743,209.316 78.5,217.5C 81.1667,217.5 83.8333,217.5 86.5,217.5C 88.5,217.5 90.5,217.5 92.5,217.5C 101.833,217.5 111.167,217.5 120.5,217.5C 121.253,211.968 121.92,206.301 122.5,200.5C 122.833,200.5 123.167,200.5 123.5,200.5C 126.188,200.166 128.521,200.832 130.5,202.5C 131.662,220.662 131.829,238.995 131,257.5C 128.082,261.056 124.915,261.39 121.5,258.5C 121.5,248.167 121.5,237.833 121.5,227.5C 107.167,227.5 92.8333,227.5 78.5,227.5C 78.5,237.5 78.5,247.5 78.5,257.5C 78.1667,258.5 77.5,259.167 76.5,259.5C 74.0971,259.552 71.7638,259.219 69.5,258.5C 68.8333,258.5 68.5,258.167 68.5,257.5C 68.5,236.167 68.5,214.833 68.5,193.5C 64.8333,193.5 61.1667,193.5 57.5,193.5C 56.8333,193.5 56.1667,193.5 55.5,193.5C 54.8333,192.167 53.8333,191.167 52.5,190.5C 51.6618,190.158 51.3284,189.492 51.5,188.5C 51.5,186.833 51.5,185.167 51.5,183.5C 51.4326,182.041 51.7659,180.708 52.5,179.5C 54.1765,178.817 54.8432,177.483 54.5,175.5C 54.8333,174.833 55.1667,174.167 55.5,173.5C 56.6737,172.486 57.3404,171.153 57.5,169.5C 57.5,169.167 57.5,168.833 57.5,168.5C 58.9063,168.027 59.573,167.027 59.5,165.5C 59.4326,164.041 59.7659,162.708 60.5,161.5C 61.9063,161.027 62.573,160.027 62.5,158.5C 62.5,158.167 62.5,157.833 62.5,157.5C 64.3794,156.105 65.3794,154.105 65.5,151.5C 65.3284,150.508 65.6618,149.842 66.5,149.5C 68.1795,148.218 69.5129,146.551 70.5,144.5C 70.5,142.5 71.5,141.5 73.5,141.5C 75.7488,140.92 77.4154,139.587 78.5,137.5C 79.391,136.89 80.391,136.557 81.5,136.5C 88.1742,135.217 94.8409,135.217 101.5,136.5 Z"/></g>
<g><path style="opacity:0.953" fill="#9e9fa2" d="M 78.5,137.5 C 77.4154,139.587 75.7488,140.92 73.5,141.5C 74.5846,139.413 76.2512,138.08 78.5,137.5 Z"/></g>
<g><path style="opacity:0.557" fill="#606263" d="M 110.5,141.5 C 111.906,141.973 112.573,142.973 112.5,144.5C 111.094,144.027 110.427,143.027 110.5,141.5 Z"/></g>
<g><path style="opacity:0.702" fill="#6b7171" d="M 234.5,142.5 C 236.262,143.262 237.262,144.596 237.5,146.5C 235.738,145.738 234.738,144.404 234.5,142.5 Z"/></g>
<g><path style="opacity:0.996" fill="#8c8f93" d="M 70.5,144.5 C 69.5129,146.551 68.1795,148.218 66.5,149.5C 66.6696,146.796 68.0029,145.129 70.5,144.5 Z"/></g>
<g><path style="opacity:0.471" fill="#727576" d="M 237.5,146.5 C 238.906,146.973 239.573,147.973 239.5,149.5C 238.094,149.027 237.427,148.027 237.5,146.5 Z"/></g>
<g><path style="opacity:0.38" fill="#686b6d" d="M 191.5,147.5 C 191.573,149.027 190.906,150.027 189.5,150.5C 189.427,148.973 190.094,147.973 191.5,147.5 Z"/></g>
<g><path style="opacity:0.784" fill="#828486" d="M 189.5,150.5 C 189.59,153.152 188.924,155.485 187.5,157.5C 187.41,154.848 188.076,152.515 189.5,150.5 Z"/></g>
<g><path style="opacity:0.627" fill="#6c7073" d="M 116.5,150.5 C 119.315,154.211 119.981,158.211 118.5,162.5C 118.428,158.374 117.761,154.374 116.5,150.5 Z"/></g>
<g><path style="opacity:0.961" fill="#818689" d="M 65.5,151.5 C 65.3794,154.105 64.3794,156.105 62.5,157.5C 62.7549,155.033 63.7549,153.033 65.5,151.5 Z"/></g>
<g><path style="opacity:0.173" fill="#3e4242" d="M 62.5,158.5 C 62.573,160.027 61.9063,161.027 60.5,161.5C 60.427,159.973 61.0937,158.973 62.5,158.5 Z"/></g>
<g><path style="opacity:0.761" fill="#898e91" d="M 187.5,162.5 C 202.789,163.302 218.123,163.802 233.5,164C 234.056,164.383 234.389,164.883 234.5,165.5C 219.496,165.667 204.496,165.5 189.5,165C 188.619,164.292 187.953,163.458 187.5,162.5 Z"/></g>
<g><path style="opacity:0.067" fill="#292e2e" d="M 116.5,164.5 C 102.006,165.331 87.3391,165.831 72.5,166C 71.9558,166.717 71.2891,167.217 70.5,167.5C 70.4142,166.504 70.7476,165.671 71.5,165C 86.4963,164.5 101.496,164.333 116.5,164.5 Z"/></g>
<g><path style="opacity:0.216" fill="#4b4f4f" d="M 59.5,165.5 C 59.573,167.027 58.9063,168.027 57.5,168.5C 57.427,166.973 58.0937,165.973 59.5,165.5 Z"/></g>
<g><path style="opacity:0.075" fill="#34363d" d="M 57.5,169.5 C 57.3404,171.153 56.6737,172.486 55.5,173.5C 55.2291,171.62 55.8958,170.287 57.5,169.5 Z"/></g>
<g><path style="opacity:0.851" fill="#77787a" d="M 54.5,175.5 C 54.8432,177.483 54.1765,178.817 52.5,179.5C 52.6596,177.847 53.3263,176.514 54.5,175.5 Z"/></g>
<g><path style="opacity:0.188" fill="#3c4044" d="M 65.5,178.5 C 65.33,179.822 65.6634,180.989 66.5,182C 95.3333,182.167 124.167,182.333 153,182.5C 182.38,182.492 211.547,181.825 240.5,180.5C 240.461,182.224 240.794,182.557 241.5,181.5C 242.043,181.56 242.376,181.893 242.5,182.5C 182.837,183.5 123.17,183.833 63.5,183.5C 63.4021,181.447 64.0687,179.78 65.5,178.5 Z"/></g>
<g><path style="opacity:0.961" fill="#969b9e" d="M 252.5,178.5 C 256.41,182.907 256.41,187.24 252.5,191.5C 253.674,187.153 253.674,182.819 252.5,178.5 Z"/></g>
<g><path style="opacity:0.357" fill="#4b4e52" d="M 51.5,183.5 C 51.5,185.167 51.5,186.833 51.5,188.5C 50.7109,188.217 50.0442,187.717 49.5,187C 50.0848,185.698 50.7515,184.531 51.5,183.5 Z"/></g>
<g><path style="opacity:0.09" fill="#272828" d="M 52.5,190.5 C 53.8333,191.167 54.8333,192.167 55.5,193.5C 53.5,193.5 52.5,192.5 52.5,190.5 Z"/></g>
<g><path style="opacity:0.585" fill="#9da0a2" d="M 158.5,193.5 C 181.5,192.167 204.5,192.167 227.5,193.5C 209.992,193.17 192.659,193.503 175.5,194.5C 175.167,194.5 174.833,194.5 174.5,194.5C 169.36,193.512 164.026,193.179 158.5,193.5 Z"/></g>
<g><path style="opacity:0.035" fill="#1f2225" d="M 79.5,194.5 C 79.5,194.167 79.5,193.833 79.5,193.5C 102.5,193.5 125.5,193.5 148.5,193.5C 148.5,214.5 148.5,235.5 148.5,256.5C 147.503,236.007 147.169,215.34 147.5,194.5C 124.833,194.5 102.167,194.5 79.5,194.5 Z"/></g>
<g><path style="opacity:0.494" fill="#667171" d="M 123.5,200.5 C 125.288,199.378 127.288,199.211 129.5,200C 130.252,200.671 130.586,201.504 130.5,202.5C 128.521,200.832 126.188,200.166 123.5,200.5 Z"/></g>
<g><path style="opacity:0.368" fill="#525558" d="M 79.5,193.5 C 79.5,193.833 79.5,194.167 79.5,194.5C 79.5,201.833 79.5,209.167 79.5,216.5C 82.0593,216.198 84.3926,216.532 86.5,217.5C 83.8333,217.5 81.1667,217.5 78.5,217.5C 78.1743,209.316 78.5076,201.316 79.5,193.5 Z"/></g>
<g><path style="opacity:0.161" fill="#25292a" d="M 175.5,194.5 C 192.659,193.503 209.992,193.17 227.5,193.5C 227.5,201.5 227.5,209.5 227.5,217.5C 223.167,217.5 218.833,217.5 214.5,217.5C 218.298,216.517 222.298,216.183 226.5,216.5C 226.5,209.167 226.5,201.833 226.5,194.5C 209.5,194.5 192.5,194.5 175.5,194.5 Z"/></g>
<g><path style="opacity:0.114" fill="#28292e" d="M 185.5,203.5 C 185.953,208.279 186.953,212.946 188.5,217.5C 187.5,217.5 186.5,217.5 185.5,217.5C 185.5,212.833 185.5,208.167 185.5,203.5 Z"/></g>
<g><path style="opacity:0.562" fill="#8c9093" d="M 122.5,200.5 C 121.92,206.301 121.253,211.968 120.5,217.5C 120.5,216.167 120.5,214.833 120.5,213.5C 120.334,209.486 120.501,205.486 121,201.5C 121.383,200.944 121.883,200.611 122.5,200.5 Z"/></g>
<g><path style="opacity:0.172" fill="#2f3337" d="M 57.5,193.5 C 61.1667,193.5 64.8333,193.5 68.5,193.5C 68.5,214.833 68.5,236.167 68.5,257.5C 67.5027,236.673 67.1694,215.673 67.5,194.5C 63.9581,194.813 60.6248,194.479 57.5,193.5 Z"/></g>
<g><path style="opacity:0.02" fill="#0e272c" d="M 120.5,213.5 C 120.5,214.833 120.5,216.167 120.5,217.5C 111.167,217.5 101.833,217.5 92.5,217.5C 100.99,216.67 109.657,216.17 118.5,216C 119.066,215.005 119.733,214.172 120.5,213.5 Z"/></g>
<g><path style="opacity:0.009" fill="#081011" d="M 158.5,193.5 C 164.026,193.179 169.36,193.512 174.5,194.5C 169.5,194.5 164.5,194.5 159.5,194.5C 159.83,215.007 159.497,235.34 158.5,255.5C 158.5,234.833 158.5,214.167 158.5,193.5 Z"/></g>
<g><path style="opacity:0.641" fill="#808385" d="M 214.5,217.5 C 218.833,217.5 223.167,217.5 227.5,217.5C 213.5,218.833 199.5,218.833 185.5,217.5C 186.5,217.5 187.5,217.5 188.5,217.5C 197.511,216.473 206.177,216.473 214.5,217.5 Z"/></g>
<g><path style="opacity:0.278" fill="#575b5d" d="M 121.5,258.5 C 120.638,255.177 119.972,251.677 119.5,248C 119.84,241.674 120.173,235.174 120.5,228.5C 106.833,228.5 93.1667,228.5 79.5,228.5C 79.8271,238.348 79.4938,248.014 78.5,257.5C 78.5,247.5 78.5,237.5 78.5,227.5C 92.8333,227.5 107.167,227.5 121.5,227.5C 121.5,237.833 121.5,248.167 121.5,258.5 Z"/></g>
<g><path style="opacity:0.262" fill="#404447" d="M 227.5,256.5 C 226.506,247.348 226.173,238.015 226.5,228.5C 213.167,228.5 199.833,228.5 186.5,228.5C 186.827,238.015 186.494,247.348 185.5,256.5C 185.5,246.833 185.5,237.167 185.5,227.5C 199.5,227.5 213.5,227.5 227.5,227.5C 227.5,237.167 227.5,246.833 227.5,256.5 Z"/></g>
<g><path style="opacity:0.805" fill="#bec2c3" d="M 158.5,193.5 C 158.5,214.167 158.5,234.833 158.5,255.5C 157.826,260.151 155.159,261.651 150.5,260C 149.619,259.292 148.953,258.458 148.5,257.5C 151.096,258.265 153.763,258.599 156.5,258.5C 157.135,236.693 157.801,215.026 158.5,193.5 Z"/></g>
<g><path style="opacity:0.569" fill="#74797b" d="M 69.5,258.5 C 71.7638,259.219 74.0971,259.552 76.5,259.5C 75.7261,260.147 74.7261,260.48 73.5,260.5C 71.6455,260.66 70.3121,259.993 69.5,258.5 Z"/></g>
</svg>
