<?xml version="1.0" encoding="UTF-8"?>
<!DOCTYPE svg PUBLIC "-//W3C//DTD SVG 1.1//EN" "http://www.w3.org/Graphics/SVG/1.1/DTD/svg11.dtd">
<svg xmlns="http://www.w3.org/2000/svg" version="1.1" width="355px" height="321px" style="shape-rendering:geometricPrecision; text-rendering:geometricPrecision; image-rendering:optimizeQuality; fill-rule:evenodd; clip-rule:evenodd" xmlns:xlink="http://www.w3.org/1999/xlink">
<g><path style="opacity:1" fill="#f0f0ef" d="M 186.5,45.5 C 187.514,46.6737 188.847,47.3404 190.5,47.5C 191.167,48.8333 192.167,49.8333 193.5,50.5C 206.171,50.3334 218.838,50.5001 231.5,51C 240.19,53.1886 245.19,58.6886 246.5,67.5C 246.5,78.8333 246.5,90.1667 246.5,101.5C 248.167,101.5 249.833,101.5 251.5,101.5C 258.294,103.132 262.128,107.465 263,114.5C 263.667,121.167 263.667,127.833 263,134.5C 262.547,139.61 260.047,143.11 255.5,145C 256.71,146.039 257.71,147.206 258.5,148.5C 258.427,150.027 259.094,151.027 260.5,151.5C 261.776,153.562 262.61,155.896 263,158.5C 263.667,172.5 263.667,186.5 263,200.5C 262.561,205.021 260.395,208.354 256.5,210.5C 252.352,210.834 250.685,213.167 251.5,217.5C 251.634,219.292 251.301,220.958 250.5,222.5C 248.455,223.923 247.455,225.923 247.5,228.5C 241.057,235.582 233.391,237.248 224.5,233.5C 224.027,232.094 223.027,231.427 221.5,231.5C 219.833,230.5 218.5,229.167 217.5,227.5C 217.573,225.973 216.906,224.973 215.5,224.5C 214.699,222.958 214.366,221.292 214.5,219.5C 214.5,216.833 214.5,214.167 214.5,211.5C 186.5,211.5 158.5,211.5 130.5,211.5C 130.5,214.5 130.5,217.5 130.5,220.5C 129.825,225.839 127.158,229.839 122.5,232.5C 120.847,232.66 119.514,233.326 118.5,234.5C 111.363,236.627 105.029,235.293 99.5,230.5C 99.1667,229.5 98.5,228.833 97.5,228.5C 96.3747,226.871 95.0414,225.371 93.5,224C 94.2524,223.329 94.5858,222.496 94.5,221.5C 94.5,218.167 94.5,214.833 94.5,211.5C 93.1667,211.5 91.8333,211.5 90.5,211.5C 89.6829,208.444 87.6829,206.777 84.5,206.5C 84.6716,205.508 84.3382,204.842 83.5,204.5C 82.8519,202.914 82.3519,201.247 82,199.5C 81.2025,185.788 81.3691,172.122 82.5,158.5C 83.9238,156.485 84.5905,154.152 84.5,151.5C 86.8666,150.129 88.5333,148.129 89.5,145.5C 89.0431,144.702 88.3764,144.369 87.5,144.5C 86.1363,142.809 84.803,141.142 83.5,139.5C 81.0267,129.937 80.8601,120.27 83,110.5C 84.8286,105.502 88.3286,102.502 93.5,101.5C 95.1667,101.5 96.8333,101.5 98.5,101.5C 98.5,90.1667 98.5,78.8333 98.5,67.5C 100.629,64.4603 102.296,61.1269 103.5,57.5C 103.833,56.5 104.5,55.8333 105.5,55.5C 108.1,54.5324 110.434,53.1991 112.5,51.5C 112.833,51.5 113.167,51.5 113.5,51.5C 126.504,51.6666 139.504,51.4999 152.5,51C 153.252,50.3292 153.586,49.4959 153.5,48.5C 155.221,46.3057 157.555,45.139 160.5,45C 169.245,44.1977 177.912,44.3643 186.5,45.5 Z M 183.5,54.5 C 184.551,55.2223 185.218,56.2223 185.5,57.5C 186.655,64.3209 186.821,71.3209 186,78.5C 185.722,79.4158 185.222,80.0825 184.5,80.5C 176.446,80.9216 168.113,80.9216 159.5,80.5C 158.4,72.8821 158.233,65.2155 159,57.5C 159.717,56.9558 160.217,56.2891 160.5,55.5C 168.08,54.5343 175.747,54.201 183.5,54.5 Z M 148.5,60.5 C 147.725,62.3881 147.725,64.3881 148.5,66.5C 137.654,66.1722 126.987,66.5056 116.5,67.5C 115.094,67.9731 114.427,68.9731 114.5,70.5C 113.115,71.9473 113.448,72.9473 115.5,73.5C 115.5,74.1667 115.833,74.5 116.5,74.5C 127.372,74.8417 138.039,75.8417 148.5,77.5C 147.596,78.209 147.263,79.209 147.5,80.5C 138.651,80.1736 129.984,80.507 121.5,81.5C 119.102,81.2594 117.102,81.9261 115.5,83.5C 113.059,83.7499 111.059,84.7499 109.5,86.5C 108.542,80.2564 108.209,73.923 108.5,67.5C 108.833,66.8333 109.167,66.1667 109.5,65.5C 110.906,65.0269 111.573,64.0269 111.5,62.5C 112.492,62.6716 113.158,62.3382 113.5,61.5C 125.116,60.542 136.783,60.2087 148.5,60.5 Z M 228.5,60.5 C 229.93,61.5375 231.597,62.2041 233.5,62.5C 233.427,64.0269 234.094,65.0269 235.5,65.5C 235.833,66.1667 236.167,66.8333 236.5,67.5C 236.213,70.4841 234.546,71.8174 231.5,71.5C 231.737,70.209 231.404,69.209 230.5,68.5C 229.129,66.8588 227.296,65.8588 225,65.5C 215.834,66.7899 206.667,66.7899 197.5,65.5C 197.737,64.209 197.404,63.209 196.5,62.5C 196.369,61.6236 196.702,60.9569 197.5,60.5C 207.654,60.5584 217.987,60.5584 228.5,60.5 Z M 237.5,71.5 C 237.5,75.5 237.5,79.5 237.5,83.5C 235.877,82.5092 234.877,83.1759 234.5,85.5C 232.287,84.2271 229.954,83.2271 227.5,82.5C 224.64,81.7561 221.64,81.0894 218.5,80.5C 217.817,80.8627 217.15,81.1961 216.5,81.5C 210.355,80.5098 204.022,80.1765 197.5,80.5C 197.5,79.1667 197.5,77.8333 197.5,76.5C 208.309,75.9012 218.976,75.2346 229.5,74.5C 229.5,73.8333 229.833,73.5 230.5,73.5C 231.46,74.5152 232.627,74.5152 234,73.5C 234.945,73.9054 235.612,74.572 236,75.5C 236.21,73.9419 236.71,72.6085 237.5,71.5 Z M 235.5,86.5 C 236.167,86.5 236.833,86.5 237.5,86.5C 237.214,88.9327 236.548,88.9327 235.5,86.5 Z M 225.5,92.5 C 226.242,94.3497 227.242,95.0164 228.5,94.5C 229.167,94.5 229.5,94.8333 229.5,95.5C 230.026,97.2303 231.026,98.5637 232.5,99.5C 230.989,101.838 231.323,102.504 233.5,101.5C 233.234,104.666 232.901,107.833 232.5,111C 233.893,119.982 235.226,128.982 236.5,138C 236.164,139.03 235.497,139.53 234.5,139.5C 233.867,134.64 232.867,129.973 231.5,125.5C 233.138,123.045 232.805,121.045 230.5,119.5C 230.5,119.167 230.5,118.833 230.5,118.5C 231.833,116.833 231.833,115.167 230.5,113.5C 230.245,109.2 229.245,105.2 227.5,101.5C 226.5,100.167 225.5,98.8333 224.5,97.5C 223.833,97.5 223.167,97.5 222.5,97.5C 221.151,96.2035 219.818,96.3702 218.5,98C 219.109,99.9483 219.776,101.782 220.5,103.5C 220.733,108.894 221.399,114.227 222.5,119.5C 222.539,123.733 223.205,127.733 224.5,131.5C 224.298,133.95 224.631,136.283 225.5,138.5C 191.677,138.642 157.677,138.475 123.5,138C 121.993,136.527 121.326,134.693 121.5,132.5C 122.116,128.855 122.45,125.188 122.5,121.5C 122.5,120.5 122.5,119.5 122.5,118.5C 123.895,114.409 124.562,110.076 124.5,105.5C 125.477,102.713 125.81,99.7131 125.5,96.5C 124.209,96.2627 123.209,96.596 122.5,97.5C 121.508,97.3284 120.842,97.6618 120.5,98.5C 118.5,98.5 117.5,99.5 117.5,101.5C 115.705,105.52 114.538,109.853 114,114.5C 113.204,117.039 113.371,119.372 114.5,121.5C 114.5,121.833 114.5,122.167 114.5,122.5C 112.418,123.585 112.084,125.085 113.5,127C 111.996,128.491 111.163,130.324 111,132.5C 110.667,130.5 110.333,128.5 110,126.5C 108.893,127.712 108.393,127.379 108.5,125.5C 108.5,125.167 108.5,124.833 108.5,124.5C 109.825,123.047 110.658,123.381 111,125.5C 111.789,123.288 111.622,121.288 110.5,119.5C 110.5,117.833 110.5,116.167 110.5,114.5C 111.478,114.189 112.145,113.522 112.5,112.5C 111.701,109.325 111.368,106.325 111.5,103.5C 112.862,97.9372 116.195,94.1039 121.5,92C 156.208,91.1803 190.875,91.347 225.5,92.5 Z M 100.5,111.5 C 100.5,112.5 100.5,113.5 100.5,114.5C 99.8179,117.485 98.8179,120.485 97.5,123.5C 97.9312,124.293 98.2645,125.127 98.5,126C 97.8148,128.795 97.3148,131.628 97,134.5C 95.5098,135.728 94.0098,135.728 92.5,134.5C 92.3337,127.492 92.5004,120.492 93,113.5C 95.1354,111.722 97.6354,111.055 100.5,111.5 Z M 250.5,111.5 C 250.842,112.338 251.508,112.672 252.5,112.5C 252.5,114.167 252.5,115.833 252.5,117.5C 252.015,123.19 251.015,128.856 249.5,134.5C 248.184,131.592 247.184,128.592 246.5,125.5C 246.578,121.046 245.911,116.713 244.5,112.5C 246.396,111.534 248.396,111.201 250.5,111.5 Z M 105.5,141.5 C 106.853,142.526 107.853,143.859 108.5,145.5C 107.5,145.833 106.833,146.5 106.5,147.5C 104.343,148.053 104.51,149.053 107,150.5C 107.383,149.944 107.883,149.611 108.5,149.5C 108.489,151.017 107.823,152.184 106.5,153C 110.688,153.176 114.688,153.676 118.5,154.5C 112.833,154.5 107.167,154.5 101.5,154.5C 101.103,153.475 100.437,153.308 99.5,154C 96.0276,159.994 94.8609,166.494 96,173.5C 96.1829,170.635 96.6829,167.969 97.5,165.5C 97.5,175.833 97.5,186.167 97.5,196.5C 97.1667,196.5 96.8333,196.5 96.5,196.5C 96.6663,189.492 96.4996,182.492 96,175.5C 95.4757,183.412 94.6424,183.412 93.5,175.5C 94.1272,174.583 94.4606,173.583 94.5,172.5C 94.4714,168.895 93.8047,165.395 92.5,162C 92.6667,160.833 92.8333,159.667 93,158.5C 95.2089,156.627 97.0422,154.46 98.5,152C 97.944,151.617 97.6107,151.117 97.5,150.5C 100.167,147.5 102.833,144.5 105.5,141.5 Z M 244.5,146.5 C 246.226,148.228 247.559,150.228 248.5,152.5C 247.453,153.078 247.62,153.744 249,154.5C 249.399,154.272 249.565,153.938 249.5,153.5C 250.5,153.833 251.167,154.5 251.5,155.5C 249.207,156.301 249.54,156.968 252.5,157.5C 252.044,160.906 251.378,164.239 250.5,167.5C 250.631,168.239 250.464,168.906 250,169.5C 249.667,168.5 249.333,167.5 249,166.5C 248.83,175.676 248.33,184.676 247.5,193.5C 247.5,181.833 247.5,170.167 247.5,158.5C 247.869,156.007 247.203,155.34 245.5,156.5C 245.167,155.5 244.5,154.833 243.5,154.5C 240.532,152.116 237.032,150.783 233,150.5C 230.125,152.023 225.959,153.356 220.5,154.5C 214.833,154.5 209.167,154.5 203.5,154.5C 204.263,153.732 205.263,153.232 206.5,153C 183.167,152.333 159.833,152.333 136.5,153C 138.382,153.198 140.048,153.698 141.5,154.5C 137.167,154.5 132.833,154.5 128.5,154.5C 128.389,153.883 128.056,153.383 127.5,153C 122.798,152.828 118.132,152.328 113.5,151.5C 112.398,150.824 111.398,150.158 110.5,149.5C 140.244,149.37 169.911,149.703 199.5,150.5C 213.161,150.189 226.494,149.189 239.5,147.5C 241.15,146.952 242.817,146.619 244.5,146.5 Z M 140.5,162.5 C 162.34,162.169 184.006,162.503 205.5,163.5C 187.754,163.713 170.254,164.047 153,164.5C 148.732,163.86 144.565,163.193 140.5,162.5 Z M 206.5,164.5 C 208.122,165.122 209.455,166.122 210.5,167.5C 209.463,168.93 208.796,170.597 208.5,172.5C 208.167,172.5 207.833,172.5 207.5,172.5C 207.771,170.62 207.104,169.287 205.5,168.5C 205.433,167.041 205.766,165.708 206.5,164.5 Z M 120.5,167.5 C 122.196,170.236 123.362,173.236 124,176.5C 124.232,175.263 124.732,174.263 125.5,173.5C 125.5,175.167 125.5,176.833 125.5,178.5C 124.883,178.389 124.383,178.056 124,177.5C 121.801,183.949 117.301,186.282 110.5,184.5C 109.833,184.167 109.167,183.833 108.5,183.5C 107.61,181.218 107.444,178.885 108,176.5C 108.748,178.751 110.248,180.084 112.5,180.5C 115.012,181.867 117.345,181.534 119.5,179.5C 122.127,176.623 121.794,173.956 118.5,171.5C 118.167,171.5 117.833,171.5 117.5,171.5C 115.611,170.258 113.611,170.258 111.5,171.5C 111.167,170.167 110.833,170.167 110.5,171.5C 108.877,172.491 107.877,171.824 107.5,169.5C 111.442,166.465 115.775,165.798 120.5,167.5 Z M 134.5,167.5 C 134.5,166.833 134.833,166.5 135.5,166.5C 136.376,166.369 137.043,166.702 137.5,167.5C 136.575,168.562 135.575,168.562 134.5,167.5 Z M 226.5,166.5 C 228.449,167.184 230.115,168.351 231.5,170C 229.942,170.21 228.609,170.71 227.5,171.5C 225.5,171.5 224.5,172.5 224.5,174.5C 223.24,174.201 222.073,174.201 221,174.5C 220.51,175.793 220.343,177.127 220.5,178.5C 219.861,177.903 219.528,177.07 219.5,176C 219.954,174.061 220.621,172.228 221.5,170.5C 222.5,170.167 223.167,169.5 223.5,168.5C 224.5,167.833 225.5,167.167 226.5,166.5 Z M 233.5,166.5 C 234.5,166.833 235.167,167.5 235.5,168.5C 234.167,168.5 233.5,167.833 233.5,166.5 Z M 210.5,167.5 C 211.222,167.918 211.722,168.584 212,169.5C 212.499,174.823 212.666,180.156 212.5,185.5C 211.698,184.048 211.198,182.382 211,180.5C 209.989,179.663 208.822,179.33 207.5,179.5C 207.5,178.5 207.5,177.5 207.5,176.5C 206.127,176.657 204.793,176.49 203.5,176C 205.058,175.79 206.391,175.29 207.5,174.5C 209.017,174.511 210.184,175.177 211,176.5C 210.71,173.587 210.543,170.587 210.5,167.5 Z M 235.5,168.5 C 235.833,168.5 236.167,168.5 236.5,168.5C 236.554,170.632 237.554,171.965 239.5,172.5C 239.043,174.714 239.043,176.714 239.5,178.5C 239.5,178.833 239.5,179.167 239.5,179.5C 235.917,181.276 234.917,180.443 236.5,177C 236.613,175.301 235.947,174.134 234.5,173.5C 234.5,173.167 234.5,172.833 234.5,172.5C 235.434,171.432 235.768,170.099 235.5,168.5 Z M 132.5,184.5 C 132.5,182.833 132.5,181.167 132.5,179.5C 133.302,178.048 133.802,176.382 134,174.5C 135.771,175.304 137.271,176.471 138.5,178C 136.006,180.112 135.173,182.612 136,185.5C 134.989,184.663 133.822,184.33 132.5,184.5 Z M 223.5,178.5 C 224.055,180.729 225.389,182.395 227.5,183.5C 226.767,184.087 225.767,184.087 224.5,183.5C 224.5,182.833 224.167,182.5 223.5,182.5C 223.027,181.094 222.027,180.427 220.5,180.5C 220.5,179.833 220.5,179.167 220.5,178.5C 221.222,178.082 221.722,177.416 222,176.5C 222.278,177.416 222.778,178.082 223.5,178.5 Z M 207.5,182.5 C 209.532,183.048 210.532,184.381 210.5,186.5C 208.668,188.957 207.001,188.957 205.5,186.5C 207.104,185.713 207.771,184.38 207.5,182.5 Z M 92.5,184.5 C 93.3227,187.977 93.8227,191.644 94,195.5C 94.3333,194.167 94.6667,192.833 95,191.5C 95.1981,193.382 95.6981,195.048 96.5,196.5C 96.8333,197.5 97.5,198.167 98.5,198.5C 98.5858,199.496 98.2524,200.329 97.5,201C 102.019,201.175 106.353,201.675 110.5,202.5C 105.167,202.5 99.8333,202.5 94.5,202.5C 92.7908,196.672 92.1241,190.672 92.5,184.5 Z M 232.5,181.5 C 235.126,182.947 234.793,183.947 231.5,184.5C 230.496,183.846 229.496,183.013 228.5,182C 229.793,181.51 231.127,181.343 232.5,181.5 Z M 141.5,187.5 C 162.167,187.5 182.833,187.5 203.5,187.5C 198.99,188.273 194.324,188.94 189.5,189.5C 172.76,190.094 156.76,189.427 141.5,187.5 Z M 167.5,192.5 C 165.167,192.5 162.833,192.5 160.5,192.5C 160.369,191.761 160.536,191.094 161,190.5C 162.25,191.573 163.584,191.573 165,190.5C 166.301,190.639 167.134,191.305 167.5,192.5 Z M 182.5,192.5 C 177.833,192.5 173.167,192.5 168.5,192.5C 173.241,190.692 178.241,190.192 183.5,191C 182.944,191.383 182.611,191.883 182.5,192.5 Z M 186.5,192.5 C 186.167,192.5 185.833,192.5 185.5,192.5C 184.537,191.637 184.537,190.97 185.5,190.5C 186.298,190.957 186.631,191.624 186.5,192.5 Z M 213.5,197.5 C 222.167,197.5 230.833,197.5 239.5,197.5C 238.517,198.85 237.184,199.85 235.5,200.5C 239.122,201.659 242.789,201.825 246.5,201C 243.875,199.607 243.875,198.441 246.5,197.5C 246.833,197.5 247.167,197.5 247.5,197.5C 247.81,198.738 248.31,198.738 249,197.5C 249.483,198.448 249.649,199.448 249.5,200.5C 250.167,200.5 250.833,200.5 251.5,200.5C 251.167,201.167 250.833,201.833 250.5,202.5C 214.167,202.5 177.833,202.5 141.5,202.5C 165.369,201.395 189.369,200.895 213.5,201C 210.875,199.607 210.875,198.441 213.5,197.5 Z M 128.5,197.5 C 128.918,198.222 129.584,198.722 130.5,199C 129.127,199.875 127.627,200.375 126,200.5C 121.333,199.167 116.667,199.167 112,200.5C 109.889,200.299 108.055,199.633 106.5,198.5C 113.833,198.167 121.167,197.833 128.5,197.5 Z M 121.5,217.5 C 121.5,217.833 121.5,218.167 121.5,218.5C 120.263,219.965 119.263,221.632 118.5,223.5C 115.236,224.324 111.902,224.658 108.5,224.5C 106.14,223.135 104.473,221.135 103.5,218.5C 103.5,216.5 103.5,214.5 103.5,212.5C 109.509,212.334 115.509,212.501 121.5,213C 121.034,214.299 121.034,215.799 121.5,217.5 Z M 223.5,212.5 C 229.5,212.5 235.5,212.5 241.5,212.5C 241.5,214.833 241.5,217.167 241.5,219.5C 238.463,224.255 234.129,225.755 228.5,224C 226.667,223.5 225.5,222.333 225,220.5C 224.367,217.521 223.867,214.854 223.5,212.5 Z"/></g>
<g><path style="opacity:0.122" fill="#4e4f4a" d="M 186.5,45.5 C 188.38,45.2291 189.713,45.8958 190.5,47.5C 188.847,47.3404 187.514,46.6737 186.5,45.5 Z"/></g>
<g><path style="opacity:0.004" fill="#313131" d="M 190.5,47.5 C 192.5,47.5 193.5,48.5 193.5,50.5C 192.167,49.8333 191.167,48.8333 190.5,47.5 Z"/></g>
<g><path style="opacity:0.523" fill="#8d8e8a" d="M 153.5,48.5 C 153.586,49.4959 153.252,50.3292 152.5,51C 139.504,51.4999 126.504,51.6666 113.5,51.5C 125.993,50.6691 138.66,50.1691 151.5,50C 152.044,49.2828 152.711,48.7828 153.5,48.5 Z"/></g>
<g><path style="opacity:0.639" fill="#90928d" d="M 112.5,51.5 C 110.434,53.1991 108.1,54.5324 105.5,55.5C 107.121,53.058 109.454,51.7247 112.5,51.5 Z"/></g>
<g><path style="opacity:0.334" fill="#696b66" d="M 183.5,54.5 C 175.747,54.201 168.08,54.5343 160.5,55.5C 163.938,54.1768 167.771,53.5102 172,53.5C 176.015,53.5012 179.849,53.8345 183.5,54.5 Z"/></g>
<g><path style="opacity:0.027" fill="#222316" d="M 185.5,57.5 C 185.443,58.609 185.11,59.609 184.5,60.5C 183.833,60.5 183.5,60.1667 183.5,59.5C 183.167,58.1667 182.833,58.1667 182.5,59.5C 181.833,59.5 181.167,59.5 180.5,59.5C 180.5,58.5 180.5,57.5 180.5,56.5C 182.292,56.366 183.958,56.6993 185.5,57.5 Z"/></g>
<g><path style="opacity:0.439" fill="#7d7f7a" d="M 149.5,60.5 C 149.167,60.5 148.833,60.5 148.5,60.5C 136.783,60.2087 125.116,60.542 113.5,61.5C 113.611,60.8826 113.944,60.3826 114.5,60C 126.341,59.1739 138.007,59.3405 149.5,60.5 Z"/></g>
<g><path style="opacity:0.424" fill="#777974" d="M 228.5,60.5 C 217.987,60.5584 207.654,60.5584 197.5,60.5C 196.702,60.9569 196.369,61.6236 196.5,62.5C 196.5,64.1667 196.5,65.8333 196.5,67.5C 195.527,65.0521 195.194,62.3854 195.5,59.5C 206.679,59.1721 217.679,59.5054 228.5,60.5 Z"/></g>
<g><path style="opacity:0.998" fill="#d6d7d5" d="M 180.5,59.5 C 181.167,59.5 181.833,59.5 182.5,59.5C 182.833,59.5 183.167,59.5 183.5,59.5C 183.5,60.1667 183.833,60.5 184.5,60.5C 185.686,61.7054 185.686,63.0387 184.5,64.5C 183.833,64.5 183.5,64.8333 183.5,65.5C 183.167,65.5 182.833,65.5 182.5,65.5C 181.662,65.8417 181.328,66.5084 181.5,67.5C 179.194,70.4729 176.527,73.1395 173.5,75.5C 172.609,76.1098 171.609,76.4431 170.5,76.5C 167.833,74.5 165.5,72.1667 163.5,69.5C 163.5,68.5 163.5,67.5 163.5,66.5C 163.5,65.8333 163.833,65.5 164.5,65.5C 165.5,65.5 166.5,65.5 167.5,65.5C 168.429,66.9361 169.595,68.2695 171,69.5C 172.039,68.2899 173.206,67.2899 174.5,66.5C 176.587,65.4154 177.92,63.7488 178.5,61.5C 178.833,60.5 179.5,59.8333 180.5,59.5 Z"/></g>
<g><path style="opacity:1" fill="#a2a4a1" d="M 103.5,57.5 C 102.296,61.1269 100.629,64.4603 98.5,67.5C 98.5919,63.3159 100.259,59.9826 103.5,57.5 Z"/></g>
<g><path style="opacity:0.537" fill="#656a63" d="M 178.5,61.5 C 177.92,63.7488 176.587,65.4154 174.5,66.5C 175.08,64.2512 176.413,62.5846 178.5,61.5 Z"/></g>
<g><path style="opacity:0.063" fill="#2e372e" d="M 111.5,62.5 C 111.573,64.0269 110.906,65.0269 109.5,65.5C 109.427,63.9731 110.094,62.9731 111.5,62.5 Z"/></g>
<g><path style="opacity:0.565" fill="#474c45" d="M 167.5,65.5 C 166.5,65.5 165.5,65.5 164.5,65.5C 165.74,63.0155 166.74,63.0155 167.5,65.5 Z"/></g>
<g><path style="opacity:0.043" fill="#363635" d="M 233.5,62.5 C 234.906,62.9731 235.573,63.9731 235.5,65.5C 234.094,65.0269 233.427,64.0269 233.5,62.5 Z"/></g>
<g><path style="opacity:0.141" fill="#363933" d="M 148.5,60.5 C 148.833,60.5 149.167,60.5 149.5,60.5C 149.5,62.8333 149.5,65.1667 149.5,67.5C 138.5,67.5 127.5,67.5 116.5,67.5C 126.987,66.5056 137.654,66.1722 148.5,66.5C 147.725,64.3881 147.725,62.3881 148.5,60.5 Z"/></g>
<g><path style="opacity:0.049" fill="#161612" d="M 184.5,64.5 C 185.782,65.7082 185.782,67.0416 184.5,68.5C 183.583,67.8728 182.583,67.5394 181.5,67.5C 181.328,66.5084 181.662,65.8417 182.5,65.5C 182.833,66.8333 183.167,66.8333 183.5,65.5C 184.167,65.5 184.5,65.1667 184.5,64.5 Z"/></g>
<g><path style="opacity:0.11" fill="#2d302a" d="M 196.5,62.5 C 197.404,63.209 197.737,64.209 197.5,65.5C 206.667,66.7899 215.834,66.7899 225,65.5C 227.296,65.8588 229.129,66.8588 230.5,68.5C 219.217,67.5433 207.884,67.21 196.5,67.5C 196.5,65.8333 196.5,64.1667 196.5,62.5 Z"/></g>
<g><path style="opacity:0.043" fill="#171715" d="M 163.5,66.5 C 163.5,67.5 163.5,68.5 163.5,69.5C 161.491,70.9997 160.158,70.4997 159.5,68C 160.514,65.9709 161.847,65.4709 163.5,66.5 Z"/></g>
<g><path style="opacity:0.012" fill="#171716" d="M 114.5,70.5 C 114.557,71.609 114.89,72.609 115.5,73.5C 113.448,72.9473 113.115,71.9473 114.5,70.5 Z"/></g>
<g><path style="opacity:0.011" fill="#141413" d="M 108.5,67.5 C 108.209,73.923 108.542,80.2564 109.5,86.5C 108.833,86.5 108.5,86.8333 108.5,87.5C 108.167,87.5 107.833,87.5 107.5,87.5C 107.176,80.6457 107.509,73.979 108.5,67.5 Z"/></g>
<g><path style="opacity:0.031" fill="#1a1e1a" d="M 236.5,67.5 C 237.434,68.5676 237.768,69.901 237.5,71.5C 236.71,72.6085 236.21,73.9419 236,75.5C 235.612,74.572 234.945,73.9054 234,73.5C 232.627,74.5152 231.46,74.5152 230.5,73.5C 231.833,73.1667 231.833,72.8333 230.5,72.5C 230.5,71.1667 230.5,69.8333 230.5,68.5C 231.404,69.209 231.737,70.209 231.5,71.5C 234.546,71.8174 236.213,70.4841 236.5,67.5 Z"/></g>
<g><path style="opacity:0.004" fill="#2b2c2a" d="M 173.5,75.5 C 172.947,77.5518 171.947,77.8852 170.5,76.5C 171.609,76.4431 172.609,76.1098 173.5,75.5 Z"/></g>
<g><path style="opacity:0.013" fill="#010101" d="M 148.5,77.5 C 148.5,78.8333 148.5,80.1667 148.5,81.5C 139.5,81.5 130.5,81.5 121.5,81.5C 129.984,80.507 138.651,80.1736 147.5,80.5C 147.263,79.209 147.596,78.209 148.5,77.5 Z"/></g>
<g><path style="opacity:0.007" fill="#070805" d="M 196.5,76.5 C 196.833,76.5 197.167,76.5 197.5,76.5C 197.5,77.8333 197.5,79.1667 197.5,80.5C 204.022,80.1765 210.355,80.5098 216.5,81.5C 209.833,81.5 203.167,81.5 196.5,81.5C 196.5,79.8333 196.5,78.1667 196.5,76.5 Z"/></g>
<g><path style="opacity:0.361" fill="#60615d" d="M 116.5,74.5 C 127.5,74.5 138.5,74.5 149.5,74.5C 149.5,77.1667 149.5,79.8333 149.5,82.5C 138.136,82.2566 126.802,82.59 115.5,83.5C 117.102,81.9261 119.102,81.2594 121.5,81.5C 130.5,81.5 139.5,81.5 148.5,81.5C 148.5,80.1667 148.5,78.8333 148.5,77.5C 138.039,75.8417 127.372,74.8417 116.5,74.5 Z"/></g>
<g><path style="opacity:0.298" fill="#3a3b38" d="M 159.5,80.5 C 168.113,80.9216 176.446,80.9216 184.5,80.5C 184.389,81.1174 184.056,81.6174 183.5,82C 175.833,82.6667 168.167,82.6667 160.5,82C 159.944,81.6174 159.611,81.1174 159.5,80.5 Z"/></g>
<g><path style="opacity:0.343" fill="#575854" d="M 229.5,74.5 C 218.976,75.2346 208.309,75.9012 197.5,76.5C 197.167,75.1667 196.833,75.1667 196.5,76.5C 196.5,78.1667 196.5,79.8333 196.5,81.5C 203.167,81.5 209.833,81.5 216.5,81.5C 217.15,81.1961 217.817,80.8627 218.5,80.5C 221.64,81.0894 224.64,81.7561 227.5,82.5C 216.833,82.5 206.167,82.5 195.5,82.5C 195.5,79.8333 195.5,77.1667 195.5,74.5C 206.833,74.5 218.167,74.5 229.5,74.5 Z"/></g>
<g><path style="opacity:0.031" fill="#171714" d="M 237.5,83.5 C 237.5,84.5 237.5,85.5 237.5,86.5C 236.833,86.5 236.167,86.5 235.5,86.5C 234.833,86.5 234.5,86.1667 234.5,85.5C 234.877,83.1759 235.877,82.5092 237.5,83.5 Z"/></g>
<g><path style="opacity:0.082" fill="#252825" d="M 246.5,67.5 C 247.33,77.6585 247.83,87.9919 248,98.5C 249.145,99.6364 250.312,100.636 251.5,101.5C 249.833,101.5 248.167,101.5 246.5,101.5C 246.5,90.1667 246.5,78.8333 246.5,67.5 Z"/></g>
<g><path style="opacity:0.8" fill="#80827f" d="M 115.5,83.5 C 113.736,85.1205 111.736,86.4538 109.5,87.5C 109.5,87.1667 109.5,86.8333 109.5,86.5C 111.059,84.7499 113.059,83.7499 115.5,83.5 Z"/></g>
<g><path style="opacity:0.125" fill="#2c2e28" d="M 225.5,92.5 C 227.027,92.427 228.027,93.0937 228.5,94.5C 227.242,95.0164 226.242,94.3497 225.5,92.5 Z"/></g>
<g><path style="opacity:0.118" fill="#32332f" d="M 98.5,67.5 C 98.5,78.8333 98.5,90.1667 98.5,101.5C 96.8333,101.5 95.1667,101.5 93.5,101.5C 94.531,100.751 95.6976,100.085 97,99.5C 97.1696,88.6588 97.6696,77.9921 98.5,67.5 Z"/></g>
<g><path style="opacity:0.38" fill="#41433e" d="M 222.5,97.5 C 220.692,98.9179 220.025,100.918 220.5,103.5C 219.776,101.782 219.109,99.9483 218.5,98C 219.818,96.3702 221.151,96.2035 222.5,97.5 Z"/></g>
<g><path style="opacity:0.004" fill="#333330" d="M 229.5,95.5 C 231.446,96.0347 232.446,97.368 232.5,99.5C 231.026,98.5637 230.026,97.2303 229.5,95.5 Z"/></g>
<g><path style="opacity:0.999" fill="#f4f5f3" d="M 122.5,97.5 C 124.369,99.6353 125.036,102.302 124.5,105.5C 123.732,106.263 123.232,107.263 123,108.5C 122.502,111.817 122.335,115.15 122.5,118.5C 122.5,119.5 122.5,120.5 122.5,121.5C 121.071,127.302 120.071,133.302 119.5,139.5C 155.004,139.832 190.337,139.498 225.5,138.5C 224.631,136.283 224.298,133.95 224.5,131.5C 224.802,127.21 224.136,123.21 222.5,119.5C 221.399,114.227 220.733,108.894 220.5,103.5C 220.025,100.918 220.692,98.9179 222.5,97.5C 223.167,97.5 223.833,97.5 224.5,97.5C 225.5,98.8333 226.5,100.167 227.5,101.5C 227.952,105.546 228.619,109.546 229.5,113.5C 229.5,114.167 229.5,114.833 229.5,115.5C 230.11,116.391 230.443,117.391 230.5,118.5C 230.5,118.833 230.5,119.167 230.5,119.5C 230.205,121.735 230.539,123.735 231.5,125.5C 231.302,130.75 231.969,135.75 233.5,140.5C 233.5,141.167 233.833,141.5 234.5,141.5C 234.427,143.027 235.094,144.027 236.5,144.5C 236.5,145.167 236.833,145.5 237.5,145.5C 237.833,146.167 238.167,146.833 238.5,147.5C 194.5,148.833 150.5,148.833 106.5,147.5C 106.833,146.5 107.5,145.833 108.5,145.5C 110.326,143.853 111.66,141.853 112.5,139.5C 112.5,138.833 112.5,138.167 112.5,137.5C 113.167,132.5 113.833,127.5 114.5,122.5C 114.5,122.167 114.5,121.833 114.5,121.5C 115.686,114.864 116.686,108.198 117.5,101.5C 118.833,100.833 119.833,99.8333 120.5,98.5C 120.842,97.6618 121.508,97.3284 122.5,97.5 Z"/></g>
<g><path style="opacity:0.278" fill="#484d44" d="M 120.5,98.5 C 119.833,99.8333 118.833,100.833 117.5,101.5C 117.5,99.5 118.5,98.5 120.5,98.5 Z"/></g>
<g><path style="opacity:0.01" fill="#161615" d="M 232.5,99.5 C 233.338,99.8417 233.672,100.508 233.5,101.5C 231.323,102.504 230.989,101.838 232.5,99.5 Z"/></g>
<g><path style="opacity:0.129" fill="#474a44" d="M 122.5,97.5 C 123.209,96.596 124.209,96.2627 125.5,96.5C 125.81,99.7131 125.477,102.713 124.5,105.5C 125.036,102.302 124.369,99.6353 122.5,97.5 Z"/></g>
<g><path style="opacity:0.137" fill="#343733" d="M 227.5,101.5 C 229.245,105.2 230.245,109.2 230.5,113.5C 230.167,113.5 229.833,113.5 229.5,113.5C 228.619,109.546 227.952,105.546 227.5,101.5 Z"/></g>
<g><path style="opacity:0.153" fill="#282d20" d="M 117.5,101.5 C 116.686,108.198 115.686,114.864 114.5,121.5C 113.371,119.372 113.204,117.039 114,114.5C 114.538,109.853 115.705,105.52 117.5,101.5 Z"/></g>
<g><path style="opacity:0.053" fill="#272727" d="M 111.5,103.5 C 111.368,106.325 111.701,109.325 112.5,112.5C 112.145,113.522 111.478,114.189 110.5,114.5C 110.185,110.629 110.518,106.962 111.5,103.5 Z"/></g>
<g><path style="opacity:0.863" fill="#9a9b98" d="M 124.5,105.5 C 124.562,110.076 123.895,114.409 122.5,118.5C 122.335,115.15 122.502,111.817 123,108.5C 123.232,107.263 123.732,106.263 124.5,105.5 Z"/></g>
<g><path style="opacity:0.01" fill="#050805" d="M 230.5,113.5 C 231.833,115.167 231.833,116.833 230.5,118.5C 230.443,117.391 230.11,116.391 229.5,115.5C 230.338,115.158 230.672,114.492 230.5,113.5 Z"/></g>
<g><path style="opacity:0.953" fill="#8c8f8a" d="M 250.5,111.5 C 248.396,111.201 246.396,111.534 244.5,112.5C 245.911,116.713 246.578,121.046 246.5,125.5C 246.5,126.167 246.5,126.833 246.5,127.5C 245.049,122.041 244.049,116.374 243.5,110.5C 246.059,110.198 248.393,110.532 250.5,111.5 Z"/></g>
<g><path style="opacity:0.318" fill="#60615c" d="M 100.5,111.5 C 97.6354,111.055 95.1354,111.722 93,113.5C 92.5004,120.492 92.3337,127.492 92.5,134.5C 91.3448,127.345 91.1782,120.012 92,112.5C 94.6975,110.327 97.5308,109.994 100.5,111.5 Z"/></g>
<g><path style="opacity:0.009" fill="#151511" d="M 110.5,119.5 C 111.622,121.288 111.789,123.288 111,125.5C 110.658,123.381 109.825,123.047 108.5,124.5C 108.831,122.678 109.498,121.011 110.5,119.5 Z"/></g>
<g><path style="opacity:0.482" fill="#454845" d="M 230.5,119.5 C 232.805,121.045 233.138,123.045 231.5,125.5C 230.539,123.735 230.205,121.735 230.5,119.5 Z"/></g>
<g><path style="opacity:0.384" fill="#5c5c57" d="M 222.5,119.5 C 224.136,123.21 224.802,127.21 224.5,131.5C 223.205,127.733 222.539,123.733 222.5,119.5 Z"/></g>
<g><path style="opacity:0.506" fill="#5f605b" d="M 100.5,114.5 C 100.183,121.554 99.3495,128.554 98,135.5C 95.6612,137.078 93.8278,136.745 92.5,134.5C 94.0098,135.728 95.5098,135.728 97,134.5C 97.3148,131.628 97.8148,128.795 98.5,126C 98.2645,125.127 97.9312,124.293 97.5,123.5C 98.8179,120.485 99.8179,117.485 100.5,114.5 Z"/></g>
<g><path style="opacity:0.251" fill="#464743" d="M 252.5,112.5 C 253.656,119.989 253.822,127.655 253,135.5C 251.301,136.406 249.467,136.739 247.5,136.5C 246.841,133.545 246.508,130.545 246.5,127.5C 246.5,126.833 246.5,126.167 246.5,125.5C 247.184,128.592 248.184,131.592 249.5,134.5C 249.833,134.5 250.167,134.5 250.5,134.5C 250.833,135.833 251.167,135.833 251.5,134.5C 252.167,134.5 252.5,134.167 252.5,133.5C 252.5,128.167 252.5,122.833 252.5,117.5C 252.5,115.833 252.5,114.167 252.5,112.5 Z"/></g>
<g><path style="opacity:0.008" fill="#32332e" d="M 231.5,125.5 C 232.867,129.973 233.867,134.64 234.5,139.5C 233.833,139.5 233.5,139.833 233.5,140.5C 231.969,135.75 231.302,130.75 231.5,125.5 Z"/></g>
<g><path style="opacity:0.016" fill="#081100" d="M 252.5,117.5 C 252.5,122.833 252.5,128.167 252.5,133.5C 251.833,133.5 251.5,133.833 251.5,134.5C 251.167,134.5 250.833,134.5 250.5,134.5C 250.167,134.5 249.833,134.5 249.5,134.5C 251.015,128.856 252.015,123.19 252.5,117.5 Z"/></g>
<g><path style="opacity:0.047" fill="#1e211d" d="M 114.5,122.5 C 113.833,127.5 113.167,132.5 112.5,137.5C 111.167,138.167 111.167,138.833 112.5,139.5C 111.66,141.853 110.326,143.853 108.5,145.5C 107.853,143.859 106.853,142.526 105.5,141.5C 106.833,141.167 106.833,140.833 105.5,140.5C 106.586,135.419 107.586,130.419 108.5,125.5C 108.393,127.379 108.893,127.712 110,126.5C 110.333,128.5 110.667,130.5 111,132.5C 111.163,130.324 111.996,128.491 113.5,127C 112.084,125.085 112.418,123.585 114.5,122.5 Z"/></g>
<g><path style="opacity:0.097" fill="#32342f" d="M 122.5,121.5 C 122.45,125.188 122.116,128.855 121.5,132.5C 121.326,134.693 121.993,136.527 123.5,138C 157.677,138.475 191.677,138.642 225.5,138.5C 190.337,139.498 155.004,139.832 119.5,139.5C 120.071,133.302 121.071,127.302 122.5,121.5 Z"/></g>
<g><path style="opacity:0.027" fill="#222421" d="M 83.5,139.5 C 84.803,141.142 86.1363,142.809 87.5,144.5C 84.7026,144.033 83.3692,142.367 83.5,139.5 Z"/></g>
<g><path style="opacity:0.049" fill="#242420" d="M 233.5,101.5 C 235.14,108.611 236.14,115.944 236.5,123.5C 236.062,123.435 235.728,123.601 235.5,124C 237.368,129.761 239.035,135.594 240.5,141.5C 242.063,142.945 243.396,144.611 244.5,146.5C 242.817,146.619 241.15,146.952 239.5,147.5C 239.167,147.5 238.833,147.5 238.5,147.5C 238.167,146.833 237.833,146.167 237.5,145.5C 236.833,145.5 236.5,145.167 236.5,144.5C 235.094,144.027 234.427,143.027 234.5,141.5C 234.5,140.833 234.5,140.167 234.5,139.5C 235.497,139.53 236.164,139.03 236.5,138C 235.226,128.982 233.893,119.982 232.5,111C 232.901,107.833 233.234,104.666 233.5,101.5 Z"/></g>
<g><path style="opacity:0.714" fill="#535b51" d="M 87.5,144.5 C 88.3764,144.369 89.0431,144.702 89.5,145.5C 88.5333,148.129 86.8666,150.129 84.5,151.5C 85.9573,149.372 86.9573,147.038 87.5,144.5 Z"/></g>
<g><path style="opacity:0.345" fill="#52554f" d="M 106.5,147.5 C 150.5,148.833 194.5,148.833 238.5,147.5C 238.833,147.5 239.167,147.5 239.5,147.5C 226.494,149.189 213.161,150.189 199.5,150.5C 169.911,149.703 140.244,149.37 110.5,149.5C 109.833,149.5 109.167,149.5 108.5,149.5C 107.883,149.611 107.383,149.944 107,150.5C 104.51,149.053 104.343,148.053 106.5,147.5 Z"/></g>
<g><path style="opacity:0.463" fill="#6e6f6b" d="M 258.5,148.5 C 259.906,148.973 260.573,149.973 260.5,151.5C 259.094,151.027 258.427,150.027 258.5,148.5 Z"/></g>
<g><path style="opacity:0.009" fill="#0a0c04" d="M 243.5,154.5 C 235.833,154.5 228.167,154.5 220.5,154.5C 225.959,153.356 230.125,152.023 233,150.5C 237.032,150.783 240.532,152.116 243.5,154.5 Z"/></g>
<g><path style="opacity:0.038" fill="#0e170d" d="M 108.5,149.5 C 109.167,149.5 109.833,149.5 110.5,149.5C 111.398,150.158 112.398,150.824 113.5,151.5C 118.132,152.328 122.798,152.828 127.5,153C 128.056,153.383 128.389,153.883 128.5,154.5C 126.5,154.5 124.5,154.5 122.5,154.5C 121.5,153.167 120.5,153.167 119.5,154.5C 119.167,154.5 118.833,154.5 118.5,154.5C 114.688,153.676 110.688,153.176 106.5,153C 107.823,152.184 108.489,151.017 108.5,149.5 Z"/></g>
<g><path style="opacity:0.012" fill="#020300" d="M 203.5,154.5 C 203.167,154.5 202.833,154.5 202.5,154.5C 201.833,153.167 201.167,153.167 200.5,154.5C 200.167,154.5 199.833,154.5 199.5,154.5C 199.167,153.167 198.833,153.167 198.5,154.5C 179.5,154.5 160.5,154.5 141.5,154.5C 140.048,153.698 138.382,153.198 136.5,153C 159.833,152.333 183.167,152.333 206.5,153C 205.263,153.232 204.263,153.732 203.5,154.5 Z"/></g>
<g><path style="opacity:0.89" fill="#868784" d="M 84.5,151.5 C 84.5905,154.152 83.9238,156.485 82.5,158.5C 82.4095,155.848 83.0762,153.515 84.5,151.5 Z"/></g>
<g><path style="opacity:0.999" fill="#eff0ee" d="M 101.5,154.5 C 107.167,154.5 112.833,154.5 118.5,154.5C 118.833,154.5 119.167,154.5 119.5,154.5C 120.5,154.5 121.5,154.5 122.5,154.5C 124.5,154.5 126.5,154.5 128.5,154.5C 132.833,154.5 137.167,154.5 141.5,154.5C 160.5,154.5 179.5,154.5 198.5,154.5C 198.833,154.5 199.167,154.5 199.5,154.5C 199.833,154.5 200.167,154.5 200.5,154.5C 201.167,154.5 201.833,154.5 202.5,154.5C 202.833,154.5 203.167,154.5 203.5,154.5C 209.167,154.5 214.833,154.5 220.5,154.5C 228.167,154.5 235.833,154.5 243.5,154.5C 244.5,154.833 245.167,155.5 245.5,156.5C 245.833,157.5 246.5,158.167 247.5,158.5C 247.5,170.167 247.5,181.833 247.5,193.5C 247.5,194.5 247.5,195.5 247.5,196.5C 197.5,196.5 147.5,196.5 97.5,196.5C 97.5,186.167 97.5,175.833 97.5,165.5C 96.6583,160.949 97.9917,157.283 101.5,154.5 Z M 140.5,162.5 C 162.34,162.169 184.006,162.503 205.5,163.5C 187.754,163.713 170.254,164.047 153,164.5C 148.732,163.86 144.565,163.193 140.5,162.5 Z M 206.5,164.5 C 208.122,165.122 209.455,166.122 210.5,167.5C 209.463,168.93 208.796,170.597 208.5,172.5C 208.167,172.5 207.833,172.5 207.5,172.5C 207.771,170.62 207.104,169.287 205.5,168.5C 205.433,167.041 205.766,165.708 206.5,164.5 Z M 120.5,167.5 C 122.196,170.236 123.362,173.236 124,176.5C 124.232,175.263 124.732,174.263 125.5,173.5C 125.5,175.167 125.5,176.833 125.5,178.5C 124.883,178.389 124.383,178.056 124,177.5C 121.801,183.949 117.301,186.282 110.5,184.5C 109.833,184.167 109.167,183.833 108.5,183.5C 107.61,181.218 107.444,178.885 108,176.5C 108.748,178.751 110.248,180.084 112.5,180.5C 115.012,181.867 117.345,181.534 119.5,179.5C 122.127,176.623 121.794,173.956 118.5,171.5C 118.167,171.5 117.833,171.5 117.5,171.5C 115.611,170.258 113.611,170.258 111.5,171.5C 111.167,170.167 110.833,170.167 110.5,171.5C 108.877,172.491 107.877,171.824 107.5,169.5C 111.442,166.465 115.775,165.798 120.5,167.5 Z M 134.5,167.5 C 134.5,166.833 134.833,166.5 135.5,166.5C 136.376,166.369 137.043,166.702 137.5,167.5C 136.575,168.562 135.575,168.562 134.5,167.5 Z M 226.5,166.5 C 228.449,167.184 230.115,168.351 231.5,170C 229.942,170.21 228.609,170.71 227.5,171.5C 225.5,171.5 224.5,172.5 224.5,174.5C 223.24,174.201 222.073,174.201 221,174.5C 220.51,175.793 220.343,177.127 220.5,178.5C 219.861,177.903 219.528,177.07 219.5,176C 219.954,174.061 220.621,172.228 221.5,170.5C 222.5,170.167 223.167,169.5 223.5,168.5C 224.5,167.833 225.5,167.167 226.5,166.5 Z M 233.5,166.5 C 234.5,166.833 235.167,167.5 235.5,168.5C 234.167,168.5 233.5,167.833 233.5,166.5 Z M 210.5,167.5 C 211.222,167.918 211.722,168.584 212,169.5C 212.499,174.823 212.666,180.156 212.5,185.5C 211.698,184.048 211.198,182.382 211,180.5C 209.989,179.663 208.822,179.33 207.5,179.5C 207.5,178.5 207.5,177.5 207.5,176.5C 206.127,176.657 204.793,176.49 203.5,176C 205.058,175.79 206.391,175.29 207.5,174.5C 209.017,174.511 210.184,175.177 211,176.5C 210.71,173.587 210.543,170.587 210.5,167.5 Z M 235.5,168.5 C 235.833,168.5 236.167,168.5 236.5,168.5C 236.554,170.632 237.554,171.965 239.5,172.5C 239.043,174.714 239.043,176.714 239.5,178.5C 239.5,178.833 239.5,179.167 239.5,179.5C 235.917,181.276 234.917,180.443 236.5,177C 236.613,175.301 235.947,174.134 234.5,173.5C 234.5,173.167 234.5,172.833 234.5,172.5C 235.434,171.432 235.768,170.099 235.5,168.5 Z M 132.5,184.5 C 132.5,182.833 132.5,181.167 132.5,179.5C 133.302,178.048 133.802,176.382 134,174.5C 135.771,175.304 137.271,176.471 138.5,178C 136.006,180.112 135.173,182.612 136,185.5C 134.989,184.663 133.822,184.33 132.5,184.5 Z M 223.5,178.5 C 224.055,180.729 225.389,182.395 227.5,183.5C 226.767,184.087 225.767,184.087 224.5,183.5C 224.5,182.833 224.167,182.5 223.5,182.5C 223.027,181.094 222.027,180.427 220.5,180.5C 220.5,179.833 220.5,179.167 220.5,178.5C 221.222,178.082 221.722,177.416 222,176.5C 222.278,177.416 222.778,178.082 223.5,178.5 Z M 207.5,182.5 C 209.532,183.048 210.532,184.381 210.5,186.5C 208.668,188.957 207.001,188.957 205.5,186.5C 207.104,185.713 207.771,184.38 207.5,182.5 Z M 232.5,181.5 C 231.127,181.343 229.793,181.51 228.5,182C 229.496,183.013 230.496,183.846 231.5,184.5C 234.793,183.947 235.126,182.947 232.5,181.5 Z M 141.5,187.5 C 162.167,187.5 182.833,187.5 203.5,187.5C 198.99,188.273 194.324,188.94 189.5,189.5C 172.76,190.094 156.76,189.427 141.5,187.5 Z M 167.5,192.5 C 165.167,192.5 162.833,192.5 160.5,192.5C 160.369,191.761 160.536,191.094 161,190.5C 162.25,191.573 163.584,191.573 165,190.5C 166.301,190.639 167.134,191.305 167.5,192.5 Z M 182.5,192.5 C 177.833,192.5 173.167,192.5 168.5,192.5C 173.241,190.692 178.241,190.192 183.5,191C 182.944,191.383 182.611,191.883 182.5,192.5 Z M 186.5,192.5 C 186.167,192.5 185.833,192.5 185.5,192.5C 184.537,191.637 184.537,190.97 185.5,190.5C 186.298,190.957 186.631,191.624 186.5,192.5 Z"/></g>
<g><path style="opacity:0.006" fill="#1b1b1a" d="M 247.5,158.5 C 246.5,158.167 245.833,157.5 245.5,156.5C 247.203,155.34 247.869,156.007 247.5,158.5 Z"/></g>
<g><path style="opacity:0.047" fill="#25251b" d="M 251.5,155.5 C 252.338,155.842 252.672,156.508 252.5,157.5C 249.54,156.968 249.207,156.301 251.5,155.5 Z"/></g>
<g><path style="opacity:0.012" fill="#10100d" d="M 101.5,154.5 C 97.9917,157.283 96.6583,160.949 97.5,165.5C 96.6829,167.969 96.1829,170.635 96,173.5C 94.8609,166.494 96.0276,159.994 99.5,154C 100.437,153.308 101.103,153.475 101.5,154.5 Z"/></g>
<g><path style="opacity:0.038" fill="#191b17" d="M 140.5,162.5 C 144.565,163.193 148.732,163.86 153,164.5C 170.254,164.047 187.754,163.713 205.5,163.5C 205.5,164.167 205.833,164.5 206.5,164.5C 205.766,165.708 205.433,167.041 205.5,168.5C 204.833,168.5 204.5,168.167 204.5,167.5C 204.167,166.167 203.833,166.167 203.5,167.5C 182.833,167.5 162.167,167.5 141.5,167.5C 141.167,166.167 140.833,166.167 140.5,167.5C 140.5,168.167 140.167,168.5 139.5,168.5C 137.919,170.142 137.253,172.142 137.5,174.5C 160.833,174.5 184.167,174.5 207.5,174.5C 206.391,175.29 205.058,175.79 203.5,176C 204.793,176.49 206.127,176.657 207.5,176.5C 207.5,177.5 207.5,178.5 207.5,179.5C 208.822,179.33 209.989,179.663 211,180.5C 211.198,182.382 211.698,184.048 212.5,185.5C 212.158,186.338 211.492,186.672 210.5,186.5C 210.5,187.167 210.833,187.5 211.5,187.5C 210.833,188.833 209.833,189.833 208.5,190.5C 208.167,189.167 207.833,189.167 207.5,190.5C 200.781,192.405 193.781,193.071 186.5,192.5C 186.631,191.624 186.298,190.957 185.5,190.5C 184.537,190.97 184.537,191.637 185.5,192.5C 184.5,192.5 183.5,192.5 182.5,192.5C 182.611,191.883 182.944,191.383 183.5,191C 178.241,190.192 173.241,190.692 168.5,192.5C 168.167,192.5 167.833,192.5 167.5,192.5C 167.134,191.305 166.301,190.639 165,190.5C 163.584,191.573 162.25,191.573 161,190.5C 160.536,191.094 160.369,191.761 160.5,192.5C 152.981,192.825 145.648,192.492 138.5,191.5C 139.557,190.794 139.224,190.461 137.5,190.5C 137.167,189.167 136.833,189.167 136.5,190.5C 135.5,190.167 134.833,189.5 134.5,188.5C 135.833,188.167 135.833,187.833 134.5,187.5C 134.539,185.776 134.206,185.443 133.5,186.5C 132.662,186.158 132.328,185.492 132.5,184.5C 133.822,184.33 134.989,184.663 136,185.5C 135.173,182.612 136.006,180.112 138.5,178C 137.271,176.471 135.771,175.304 134,174.5C 133.802,176.382 133.302,178.048 132.5,179.5C 132.5,176.833 132.5,174.167 132.5,171.5C 133.338,171.158 133.672,170.492 133.5,169.5C 134.833,169.167 134.833,168.833 133.5,168.5C 133.5,167.833 133.833,167.5 134.5,167.5C 135.575,168.562 136.575,168.562 137.5,167.5C 137.043,166.702 136.376,166.369 135.5,166.5C 135.5,165.167 136.167,164.5 137.5,164.5C 137.833,165.833 138.167,165.833 138.5,164.5C 139.167,163.833 139.833,163.167 140.5,162.5 Z M 207.5,182.5 C 209.532,183.048 210.532,184.381 210.5,186.5C 208.668,188.957 207.001,188.957 205.5,186.5C 207.104,185.713 207.771,184.38 207.5,182.5 Z M 141.5,187.5 C 162.167,187.5 182.833,187.5 203.5,187.5C 198.99,188.273 194.324,188.94 189.5,189.5C 172.76,190.094 156.76,189.427 141.5,187.5 Z M 167.5,192.5 C 165.167,192.5 162.833,192.5 160.5,192.5C 160.369,191.761 160.536,191.094 161,190.5C 162.25,191.573 163.584,191.573 165,190.5C 166.301,190.639 167.134,191.305 167.5,192.5 Z M 182.5,192.5 C 177.833,192.5 173.167,192.5 168.5,192.5C 173.241,190.692 178.241,190.192 183.5,191C 182.944,191.383 182.611,191.883 182.5,192.5 Z M 186.5,192.5 C 186.167,192.5 185.833,192.5 185.5,192.5C 184.537,191.637 184.537,190.97 185.5,190.5C 186.298,190.957 186.631,191.624 186.5,192.5 Z"/></g>
<g><path style="opacity:0.011" fill="#070707" d="M 210.5,167.5 C 210.543,170.587 210.71,173.587 211,176.5C 210.184,175.177 209.017,174.511 207.5,174.5C 207.5,173.833 207.5,173.167 207.5,172.5C 207.833,172.5 208.167,172.5 208.5,172.5C 208.796,170.597 209.463,168.93 210.5,167.5 Z"/></g>
<g><path style="opacity:0.036" fill="#121410" d="M 250.5,167.5 C 251.339,168.641 252.006,169.974 252.5,171.5C 251.496,179.653 251.496,188.319 252.5,197.5C 251.596,198.209 251.263,199.209 251.5,200.5C 250.833,200.5 250.167,200.5 249.5,200.5C 249.649,199.448 249.483,198.448 249,197.5C 248.31,198.738 247.81,198.738 247.5,197.5C 247.5,197.167 247.5,196.833 247.5,196.5C 247.5,195.5 247.5,194.5 247.5,193.5C 248.33,184.676 248.83,175.676 249,166.5C 249.333,167.5 249.667,168.5 250,169.5C 250.464,168.906 250.631,168.239 250.5,167.5 Z"/></g>
<g><path style="opacity:0.995" fill="#eeeeed" d="M 140.5,167.5 C 140.833,167.5 141.167,167.5 141.5,167.5C 162.167,167.5 182.833,167.5 203.5,167.5C 203.833,167.5 204.167,167.5 204.5,167.5C 204.5,168.167 204.833,168.5 205.5,168.5C 207.104,169.287 207.771,170.62 207.5,172.5C 207.5,173.167 207.5,173.833 207.5,174.5C 184.167,174.5 160.833,174.5 137.5,174.5C 137.253,172.142 137.919,170.142 139.5,168.5C 140.167,168.5 140.5,168.167 140.5,167.5 Z"/></g>
<g><path style="opacity:0.024" fill="#3d3d3c" d="M 223.5,168.5 C 223.167,169.5 222.5,170.167 221.5,170.5C 221.5,169.167 222.167,168.5 223.5,168.5 Z"/></g>
<g><path style="opacity:0.027" fill="#1f221a" d="M 226.5,166.5 C 228.726,165.244 231.059,165.244 233.5,166.5C 233.5,167.833 234.167,168.5 235.5,168.5C 235.768,170.099 235.434,171.432 234.5,172.5C 234.5,171.833 234.167,171.5 233.5,171.5C 233.167,170.167 232.833,170.167 232.5,171.5C 230.833,171.5 229.167,171.5 227.5,171.5C 228.609,170.71 229.942,170.21 231.5,170C 230.115,168.351 228.449,167.184 226.5,166.5 Z"/></g>
<g><path style="opacity:0.227" fill="#31352e" d="M 97.5,150.5 C 97.6107,151.117 97.944,151.617 98.5,152C 97.0422,154.46 95.2089,156.627 93,158.5C 92.8333,159.667 92.6667,160.833 92.5,162C 93.8047,165.395 94.4714,168.895 94.5,172.5C 92.5772,176.029 91.9106,180.029 92.5,184.5C 92.1241,190.672 92.7908,196.672 94.5,202.5C 93.5416,202.047 92.7083,201.381 92,200.5C 91.3333,185.833 91.3333,171.167 92,156.5C 93.617,154.237 95.4503,152.237 97.5,150.5 Z"/></g>
<g><path style="opacity:0.286" fill="#5b5e59" d="M 117.5,171.5 C 115.435,171.517 113.435,171.85 111.5,172.5C 111.5,172.167 111.5,171.833 111.5,171.5C 113.611,170.258 115.611,170.258 117.5,171.5 Z"/></g>
<g><path style="opacity:0.141" fill="#2a2a24" d="M 120.5,167.5 C 123.572,168.301 125.238,170.301 125.5,173.5C 124.732,174.263 124.232,175.263 124,176.5C 123.362,173.236 122.196,170.236 120.5,167.5 Z"/></g>
<g><path style="opacity:0.012" fill="#1a1b19" d="M 236.5,168.5 C 238.262,169.262 239.262,170.596 239.5,172.5C 237.554,171.965 236.554,170.632 236.5,168.5 Z"/></g>
<g><path style="opacity:0.047" fill="#21221e" d="M 107.5,169.5 C 107.877,171.824 108.877,172.491 110.5,171.5C 110.5,172.167 110.833,172.5 111.5,172.5C 110.017,175.411 110.35,178.078 112.5,180.5C 110.248,180.084 108.748,178.751 108,176.5C 107.444,178.885 107.61,181.218 108.5,183.5C 105.433,180.645 104.433,177.311 105.5,173.5C 106.507,175.477 106.507,175.143 105.5,172.5C 105.427,170.973 106.094,169.973 107.5,169.5 Z"/></g>
<g><path style="opacity:0.999" fill="#eaebe9" d="M 117.5,171.5 C 117.833,171.5 118.167,171.5 118.5,171.5C 119.265,174.096 119.599,176.763 119.5,179.5C 117.345,181.534 115.012,181.867 112.5,180.5C 110.35,178.078 110.017,175.411 111.5,172.5C 113.435,171.85 115.435,171.517 117.5,171.5 Z"/></g>
<g><path style="opacity:0.998" fill="#ebede9" d="M 227.5,171.5 C 229.167,171.5 230.833,171.5 232.5,171.5C 232.833,171.5 233.167,171.5 233.5,171.5C 234.167,171.5 234.5,171.833 234.5,172.5C 234.5,172.833 234.5,173.167 234.5,173.5C 234.675,175.621 234.341,177.621 233.5,179.5C 233.5,179.833 233.5,180.167 233.5,180.5C 233.167,180.5 232.833,180.5 232.5,180.5C 230.833,180.5 229.167,180.5 227.5,180.5C 227.167,180.5 226.833,180.5 226.5,180.5C 226.167,179.5 225.5,178.833 224.5,178.5C 224.5,178.167 224.5,177.833 224.5,177.5C 224.5,176.5 224.5,175.5 224.5,174.5C 224.5,172.5 225.5,171.5 227.5,171.5 Z"/></g>
<g><path style="opacity:0.843" fill="#8a8c87" d="M 118.5,171.5 C 121.794,173.956 122.127,176.623 119.5,179.5C 119.599,176.763 119.265,174.096 118.5,171.5 Z"/></g>
<g><path style="opacity:0.035" fill="#161c13" d="M 224.5,174.5 C 224.5,175.5 224.5,176.5 224.5,177.5C 223.833,177.5 223.5,177.833 223.5,178.5C 222.778,178.082 222.278,177.416 222,176.5C 221.722,177.416 221.222,178.082 220.5,178.5C 220.343,177.127 220.51,175.793 221,174.5C 222.073,174.201 223.24,174.201 224.5,174.5 Z"/></g>
<g><path style="opacity:0.024" fill="#2a2a29" d="M 239.5,172.5 C 240.833,174.5 240.833,176.5 239.5,178.5C 239.043,176.714 239.043,174.714 239.5,172.5 Z"/></g>
<g><path style="opacity:0.114" fill="#2d3124" d="M 252.5,157.5 C 253.661,171.994 253.828,186.661 253,201.5C 252.329,202.252 251.496,202.586 250.5,202.5C 250.833,201.833 251.167,201.167 251.5,200.5C 252.404,199.791 252.737,198.791 252.5,197.5C 251.496,188.319 251.496,179.653 252.5,171.5C 252.006,169.974 251.339,168.641 250.5,167.5C 251.378,164.239 252.044,160.906 252.5,157.5 Z"/></g>
<g><path style="opacity:0.995" fill="#f4f5f2" d="M 207.5,182.5 C 207.771,184.38 207.104,185.713 205.5,186.5C 204.508,186.328 203.842,186.662 203.5,187.5C 182.833,187.5 162.167,187.5 141.5,187.5C 141.158,186.662 140.492,186.328 139.5,186.5C 138.27,184.703 137.604,182.703 137.5,180.5C 161.191,179.843 184.524,180.51 207.5,182.5 Z"/></g>
<g><path style="opacity:0.009" fill="#151514" d="M 220.5,180.5 C 222.027,180.427 223.027,181.094 223.5,182.5C 222.833,182.5 222.5,182.833 222.5,183.5C 221.599,182.71 220.932,181.71 220.5,180.5 Z"/></g>
<g><path style="opacity:0.035" fill="#111307" d="M 94.5,172.5 C 94.4606,173.583 94.1272,174.583 93.5,175.5C 94.6424,183.412 95.4757,183.412 96,175.5C 96.4996,182.492 96.6663,189.492 96.5,196.5C 95.6981,195.048 95.1981,193.382 95,191.5C 94.6667,192.833 94.3333,194.167 94,195.5C 93.8227,191.644 93.3227,187.977 92.5,184.5C 91.9106,180.029 92.5772,176.029 94.5,172.5 Z"/></g>
<g><path style="opacity:0.176" fill="#282823" d="M 125.5,178.5 C 122.713,186.402 117.713,188.402 110.5,184.5C 117.301,186.282 121.801,183.949 124,177.5C 124.383,178.056 124.883,178.389 125.5,178.5 Z"/></g>
<g><path style="opacity:0.061" fill="#232820" d="M 234.5,173.5 C 235.947,174.134 236.613,175.301 236.5,177C 234.917,180.443 235.917,181.276 239.5,179.5C 239.229,181.43 238.229,182.764 236.5,183.5C 234.834,185.828 232.501,186.828 229.5,186.5C 227.117,186.639 225.117,185.972 223.5,184.5C 224.167,184.5 224.5,184.167 224.5,183.5C 225.767,184.087 226.767,184.087 227.5,183.5C 225.389,182.395 224.055,180.729 223.5,178.5C 223.833,178.5 224.167,178.5 224.5,178.5C 225.5,178.833 226.167,179.5 226.5,180.5C 226.833,181.833 227.167,181.833 227.5,180.5C 229.167,180.5 230.833,180.5 232.5,180.5C 232.5,180.833 232.5,181.167 232.5,181.5C 233.167,181.5 233.5,181.167 233.5,180.5C 234.833,180.167 234.833,179.833 233.5,179.5C 234.341,177.621 234.675,175.621 234.5,173.5 Z M 232.5,181.5 C 231.127,181.343 229.793,181.51 228.5,182C 229.496,183.013 230.496,183.846 231.5,184.5C 234.793,183.947 235.126,182.947 232.5,181.5 Z"/></g>
<g><path style="opacity:0.282" fill="#52544f" d="M 96.5,196.5 C 96.8333,196.5 97.1667,196.5 97.5,196.5C 147.5,196.5 197.5,196.5 247.5,196.5C 247.5,196.833 247.5,197.167 247.5,197.5C 247.167,197.5 246.833,197.5 246.5,197.5C 244.167,197.5 241.833,197.5 239.5,197.5C 230.833,197.5 222.167,197.5 213.5,197.5C 208.5,197.5 203.5,197.5 198.5,197.5C 198.167,197.5 197.833,197.5 197.5,197.5C 195.167,197.5 192.833,197.5 190.5,197.5C 190.167,197.5 189.833,197.5 189.5,197.5C 187.167,197.5 184.833,197.5 182.5,197.5C 181.167,197.5 179.833,197.5 178.5,197.5C 169.833,197.5 161.167,197.5 152.5,197.5C 151.833,197.5 151.167,197.5 150.5,197.5C 149.833,197.5 149.167,197.5 148.5,197.5C 144.5,197.5 140.5,197.5 136.5,197.5C 133.833,197.5 131.167,197.5 128.5,197.5C 121.167,197.833 113.833,198.167 106.5,198.5C 105.791,197.596 104.791,197.263 103.5,197.5C 102.833,197.5 102.167,197.5 101.5,197.5C 100.209,197.263 99.209,197.596 98.5,198.5C 97.5,198.167 96.8333,197.5 96.5,196.5 Z"/></g>
<g><path style="opacity:0.048" fill="#0c100b" d="M 221.5,198.5 C 224.673,198.401 227.673,199.068 230.5,200.5C 226.377,200.693 222.543,201.026 219,201.5C 218.25,200.874 217.416,200.374 216.5,200C 218.382,199.802 220.048,199.302 221.5,198.5 Z"/></g>
<g><path style="opacity:0.01" fill="#080c08" d="M 239.5,197.5 C 241.833,197.5 244.167,197.5 246.5,197.5C 243.875,198.441 243.875,199.607 246.5,201C 242.789,201.825 239.122,201.659 235.5,200.5C 237.184,199.85 238.517,198.85 239.5,197.5 Z"/></g>
<g><path style="opacity:0.009" fill="#0c0e0b" d="M 101.5,197.5 C 102.167,197.5 102.833,197.5 103.5,197.5C 104.209,198.404 105.209,198.737 106.5,198.5C 108.055,199.633 109.889,200.299 112,200.5C 116.667,199.167 121.333,199.167 126,200.5C 127.627,200.375 129.127,199.875 130.5,199C 129.584,198.722 128.918,198.222 128.5,197.5C 131.167,197.5 133.833,197.5 136.5,197.5C 140.5,198.833 144.5,198.833 148.5,197.5C 149.167,197.5 149.833,197.5 150.5,197.5C 151.167,198.833 151.833,198.833 152.5,197.5C 161.167,197.5 169.833,197.5 178.5,197.5C 179.833,198.833 181.167,198.833 182.5,197.5C 184.833,197.5 187.167,197.5 189.5,197.5C 189.833,198.833 190.167,198.833 190.5,197.5C 192.833,197.5 195.167,197.5 197.5,197.5C 197.833,198.833 198.167,198.833 198.5,197.5C 203.5,197.5 208.5,197.5 213.5,197.5C 210.875,198.441 210.875,199.607 213.5,201C 189.369,200.895 165.369,201.395 141.5,202.5C 137.167,202.5 132.833,202.5 128.5,202.5C 123.167,201.167 117.833,201.167 112.5,202.5C 111.833,202.5 111.167,202.5 110.5,202.5C 106.353,201.675 102.019,201.175 97.5,201C 98.2524,200.329 98.5858,199.496 98.5,198.5C 99.791,198.737 100.791,198.404 101.5,197.5 Z M 128.5,197.5 C 128.918,198.222 129.584,198.722 130.5,199C 129.127,199.875 127.627,200.375 126,200.5C 121.333,199.167 116.667,199.167 112,200.5C 109.889,200.299 108.055,199.633 106.5,198.5C 113.833,198.167 121.167,197.833 128.5,197.5 Z"/></g>
<g><path style="opacity:0.318" fill="#343534" d="M 83.5,204.5 C 84.3382,204.842 84.6716,205.508 84.5,206.5C 82.8946,205.994 82.5613,205.327 83.5,204.5 Z"/></g>
<g><path style="opacity:1" fill="#8d8d85" d="M 84.5,206.5 C 87.6829,206.777 89.6829,208.444 90.5,211.5C 87.5726,210.903 85.5726,209.236 84.5,206.5 Z"/></g>
<g><path style="opacity:0.139" fill="#484b45" d="M 121.5,217.5 C 121.034,215.799 121.034,214.299 121.5,213C 115.509,212.501 109.509,212.334 103.5,212.5C 103.5,214.5 103.5,216.5 103.5,218.5C 102.532,216.393 102.198,214.059 102.5,211.5C 109.167,211.5 115.833,211.5 122.5,211.5C 122.795,213.735 122.461,215.735 121.5,217.5 Z"/></g>
<g><path style="opacity:0.132" fill="#3f3f3a" d="M 214.5,219.5 C 213.532,217.393 213.198,215.059 213.5,212.5C 186.167,212.5 158.833,212.5 131.5,212.5C 131.806,215.385 131.473,218.052 130.5,220.5C 130.5,217.5 130.5,214.5 130.5,211.5C 158.5,211.5 186.5,211.5 214.5,211.5C 214.5,214.167 214.5,216.833 214.5,219.5 Z"/></g>
<g><path style="opacity:0.104" fill="#41423a" d="M 223.5,212.5 C 229.645,211.51 235.978,211.177 242.5,211.5C 242.806,214.385 242.473,217.052 241.5,219.5C 241.5,217.167 241.5,214.833 241.5,212.5C 235.5,212.5 229.5,212.5 223.5,212.5 Z"/></g>
<g><path style="opacity:0.122" fill="#383833" d="M 256.5,210.5 C 255.739,211.391 254.739,212.058 253.5,212.5C 252.83,214.291 252.163,215.958 251.5,217.5C 250.685,213.167 252.352,210.834 256.5,210.5 Z"/></g>
<g><path style="opacity:0.667" fill="#868b86" d="M 90.5,211.5 C 91.8333,211.5 93.1667,211.5 94.5,211.5C 94.5,214.833 94.5,218.167 94.5,221.5C 93.7109,221.217 93.0442,220.717 92.5,220C 93.435,217.619 93.7683,215.119 93.5,212.5C 92.209,212.737 91.209,212.404 90.5,211.5 Z"/></g>
<g><path style="opacity:0.933" fill="#959793" d="M 121.5,218.5 C 122.084,221.285 121.084,222.952 118.5,223.5C 119.263,221.632 120.263,219.965 121.5,218.5 Z"/></g>
<g><path style="opacity:0.718" fill="#666764" d="M 118.5,223.5 C 118.389,224.117 118.056,224.617 117.5,225C 114.304,225.805 111.304,225.638 108.5,224.5C 111.902,224.658 115.236,224.324 118.5,223.5 Z"/></g>
<g><path style="opacity:0.937" fill="#939594" d="M 250.5,222.5 C 250.346,224.97 249.346,226.97 247.5,228.5C 247.455,225.923 248.455,223.923 250.5,222.5 Z"/></g>
<g><path style="opacity:0.082" fill="#393932" d="M 215.5,224.5 C 216.906,224.973 217.573,225.973 217.5,227.5C 216.094,227.027 215.427,226.027 215.5,224.5 Z"/></g>
<g><path style="opacity:0.616" fill="#5e6158" d="M 87.5,228.5 C 86.1667,228.833 84.8333,229.167 83.5,229.5C 84.5383,227.481 85.8716,227.147 87.5,228.5 Z"/></g>
<g><path style="opacity:0.004" fill="#1c1c1a" d="M 97.5,228.5 C 98.5,228.833 99.1667,229.5 99.5,230.5C 98.1667,230.5 97.5,229.833 97.5,228.5 Z"/></g>
<g><path style="opacity:0.999" fill="#d7d8d6" d="M 265.5,244.5 C 265.027,243.094 264.027,242.427 262.5,242.5C 262.167,241.833 261.833,241.167 261.5,240.5C 261.144,238.81 260.144,237.81 258.5,237.5C 254.485,235.144 253.819,232.144 256.5,228.5C 257.768,227.572 259.101,227.405 260.5,228C 269.363,237.03 277.696,246.53 285.5,256.5C 283.738,260.477 281.071,261.311 277.5,259C 273.265,254.274 269.265,249.441 265.5,244.5 Z"/></g>
<g><path style="opacity:0.999" fill="#d8d9d7" d="M 173.5,259.5 C 172.041,259.567 170.708,259.234 169.5,258.5C 168.392,249.881 168.225,241.215 169,232.5C 170.896,229.054 173.23,228.72 176,231.5C 176.667,240.167 176.667,248.833 176,257.5C 175.583,258.756 174.75,259.423 173.5,259.5 Z"/></g>
<g><path style="opacity:1" fill="#dfe1df" d="M 200.5,231.5 C 204.267,239.125 207.267,247.125 209.5,255.5C 209.425,259.269 207.759,260.602 204.5,259.5C 203.488,258.128 202.488,256.795 201.5,255.5C 199.237,250.71 197.57,245.71 196.5,240.5C 195.671,237.531 195.505,234.531 196,231.5C 197.49,230.272 198.99,230.272 200.5,231.5 Z"/></g>
<g><path style="opacity:0.894" fill="#7d7e78" d="M 88.5,228.5 C 90.9938,230.594 90.9938,232.594 88.5,234.5C 88.5,232.5 88.5,230.5 88.5,228.5 Z"/></g>
<g><path style="opacity:0.999" fill="#dadbd9" d="M 142.5,258.5 C 140.5,258.5 138.5,258.5 136.5,258.5C 136.5,256.833 136.5,255.167 136.5,253.5C 138.631,245.61 141.464,237.944 145,230.5C 147.961,228.048 150.128,228.715 151.5,232.5C 148.887,241.339 145.887,250.006 142.5,258.5 Z"/></g>
<g><path style="opacity:0.565" fill="#6d6f6c" d="M 83.5,229.5 C 82.9202,231.749 81.5869,233.415 79.5,234.5C 80.0798,232.251 81.4131,230.585 83.5,229.5 Z"/></g>
<g><path style="opacity:0.984" fill="#949691" d="M 200.5,231.5 C 198.99,230.272 197.49,230.272 196,231.5C 195.505,234.531 195.671,237.531 196.5,240.5C 195.009,238.129 194.009,235.462 193.5,232.5C 195.617,227.885 197.95,227.552 200.5,231.5 Z"/></g>
<g><path style="opacity:0.322" fill="#636460" d="M 221.5,231.5 C 223.027,231.427 224.027,232.094 224.5,233.5C 222.973,233.573 221.973,232.906 221.5,231.5 Z"/></g>
<g><path style="opacity:0.039" fill="#313330" d="M 122.5,232.5 C 121.713,234.104 120.38,234.771 118.5,234.5C 119.514,233.326 120.847,232.66 122.5,232.5 Z"/></g>
<g><path style="opacity:0.263" fill="#525452" d="M 258.5,237.5 C 260.144,237.81 261.144,238.81 261.5,240.5C 259.856,240.19 258.856,239.19 258.5,237.5 Z"/></g>
<g><path style="opacity:0.999" fill="#d4d6d3" d="M 219.5,240.5 C 220.873,240.343 222.207,240.51 223.5,241C 227.207,245.412 229.874,250.412 231.5,256C 230.042,260.493 227.542,261.327 224,258.5C 221.422,253.844 219.255,249.011 217.5,244C 217.978,242.697 218.645,241.531 219.5,240.5 Z"/></g>
<g><path style="opacity:1" fill="#cfd0cd" d="M 100.5,240.5 C 103.042,240.706 104.709,242.039 105.5,244.5C 103.168,249.312 100.668,253.979 98,258.5C 92.9539,261.779 90.6206,260.446 91,254.5C 93.4606,249.211 96.6273,244.544 100.5,240.5 Z"/></g>
<g><path style="opacity:0.999" fill="#cbcdca" d="M 121.5,240.5 C 124.864,239.873 126.864,241.206 127.5,244.5C 125.687,248.798 123.854,253.131 122,257.5C 118.597,261.527 115.763,261.193 113.5,256.5C 115.666,250.835 118.332,245.502 121.5,240.5 Z"/></g>
<g><path style="opacity:0.998" fill="#cfd0cd" d="M 243.5,240.5 C 244.721,241.028 245.887,241.695 247,242.5C 249.333,246.5 251.667,250.5 254,254.5C 255.165,257.814 253.998,259.814 250.5,260.5C 249.252,259.96 248.085,259.293 247,258.5C 244.299,253.959 241.799,249.292 239.5,244.5C 240.368,242.603 241.701,241.27 243.5,240.5 Z"/></g>
<g><path style="opacity:0.459" fill="#565755" d="M 262.5,242.5 C 264.027,242.427 265.027,243.094 265.5,244.5C 263.973,244.573 262.973,243.906 262.5,242.5 Z"/></g>
<g><path style="opacity:1" fill="#dee0dd" d="M 87.5,228.5 C 87.8333,228.5 88.1667,228.5 88.5,228.5C 88.5,230.5 88.5,232.5 88.5,234.5C 81.3179,244.157 73.1512,252.824 64,260.5C 62.699,260.361 61.8656,259.695 61.5,258.5C 60.8902,257.609 60.5569,256.609 60.5,255.5C 60.427,253.973 61.0937,252.973 62.5,252.5C 65.2427,250.761 67.2427,248.427 68.5,245.5C 71.8333,241.5 75.5,237.833 79.5,234.5C 81.5869,233.415 82.9202,231.749 83.5,229.5C 84.8333,229.167 86.1667,228.833 87.5,228.5 Z"/></g>
<g><path style="opacity:0.435" fill="#60615f" d="M 68.5,245.5 C 67.2427,248.427 65.2427,250.761 62.5,252.5C 63.7573,249.573 65.7573,247.239 68.5,245.5 Z"/></g>
<g><path style="opacity:0.071" fill="#2f2f2c" d="M 60.5,255.5 C 60.5569,256.609 60.8902,257.609 61.5,258.5C 59.4482,257.947 59.1148,256.947 60.5,255.5 Z"/></g>
<g><path style="opacity:0.706" fill="#82837a" d="M 136.5,253.5 C 136.5,255.167 136.5,256.833 136.5,258.5C 138.5,258.5 140.5,258.5 142.5,258.5C 139.327,261.015 136.661,260.348 134.5,256.5C 134.942,255.261 135.609,254.261 136.5,253.5 Z"/></g>
<g><path style="opacity:0.098" fill="#393c38" d="M 201.5,255.5 C 202.488,256.795 203.488,258.128 204.5,259.5C 202.088,259.306 201.088,257.973 201.5,255.5 Z"/></g>
<g><path style="opacity:0.008" fill="#000000" d="M 168.5,258.5 C 167.833,257.167 167.833,257.167 168.5,258.5 Z"/></g>
<g><path style="opacity:0.016" fill="#1a1a17" d="M 168.5,258.5 C 168.833,258.5 169.167,258.5 169.5,258.5C 170.708,259.234 172.041,259.567 173.5,259.5C 171.545,260.93 169.879,260.597 168.5,258.5 Z"/></g>
</svg>
