<?xml version="1.0" encoding="UTF-8"?>
<!DOCTYPE svg PUBLIC "-//W3C//DTD SVG 1.1//EN" "http://www.w3.org/Graphics/SVG/1.1/DTD/svg11.dtd">
<svg xmlns="http://www.w3.org/2000/svg" version="1.1" width="515px" height="484px" style="shape-rendering:geometricPrecision; text-rendering:geometricPrecision; image-rendering:optimizeQuality; fill-rule:evenodd; clip-rule:evenodd" xmlns:xlink="http://www.w3.org/1999/xlink">
<g><path style="opacity:0.488" fill="#afafb0" d="M 182.5,122.5 C 167.215,121.531 151.881,121.198 136.5,121.5C 136.918,120.778 137.584,120.278 138.5,120C 151.833,119.333 165.167,119.333 178.5,120C 180.32,120.2 181.653,121.034 182.5,122.5 Z"/></g>
<g><path style="opacity:1" fill="#101316" d="M 136.5,121.5 C 151.881,121.198 167.215,121.531 182.5,122.5C 184.22,125.889 184.887,129.556 184.5,133.5C 184.5,134.167 184.167,134.5 183.5,134.5C 182.5,134.833 181.833,135.5 181.5,136.5C 180.833,136.5 180.167,136.5 179.5,136.5C 165.163,136.667 150.829,136.5 136.5,136C 135.756,134.961 134.756,134.461 133.5,134.5C 131.464,129.372 132.464,125.039 136.5,121.5 Z"/></g>
<g><path style="opacity:0.773" fill="#858687" d="M 182.5,122.5 C 183.458,122.953 184.292,123.619 185,124.5C 186.515,127.894 186.348,130.894 184.5,133.5C 184.887,129.556 184.22,125.889 182.5,122.5 Z"/></g>
<g><path style="opacity:0.792" fill="#777979" d="M 288.5,126.5 C 288.5,126.833 288.5,127.167 288.5,127.5C 269.14,127.217 249.806,127.55 230.5,128.5C 232.277,127.4 234.277,126.566 236.5,126C 253.877,125.195 271.211,125.361 288.5,126.5 Z"/></g>
<g><path style="opacity:0.176" fill="#d3d6d6" d="M 291.5,127.5 C 290.5,127.5 289.5,127.5 288.5,127.5C 288.5,127.167 288.5,126.833 288.5,126.5C 289.496,126.586 290.329,126.252 291,125.5C 291.464,126.094 291.631,126.761 291.5,127.5 Z"/></g>
<g><path style="opacity:0.306" fill="#b7b9b9" d="M 136.5,121.5 C 132.464,125.039 131.464,129.372 133.5,134.5C 132.883,134.389 132.383,134.056 132,133.5C 131.333,130.5 131.333,127.5 132,124.5C 133.129,122.859 134.629,121.859 136.5,121.5 Z"/></g>
<g><path style="opacity:1" fill="#131619" d="M 288.5,127.5 C 289.5,127.5 290.5,127.5 291.5,127.5C 293.553,127.402 295.22,128.069 296.5,129.5C 296.973,130.906 297.973,131.573 299.5,131.5C 300.5,131.833 301.167,132.5 301.5,133.5C 301.738,135.404 302.738,136.738 304.5,137.5C 304.427,139.027 305.094,140.027 306.5,140.5C 307.338,140.842 307.672,141.508 307.5,142.5C 309.063,146.661 309.729,150.995 309.5,155.5C 308.094,155.973 307.427,156.973 307.5,158.5C 307.158,159.338 306.492,159.672 305.5,159.5C 302.833,159.5 300.167,159.5 297.5,159.5C 295.227,156.602 293.227,153.602 291.5,150.5C 290.662,150.158 290.328,149.492 290.5,148.5C 290.084,146.248 288.751,144.748 286.5,144C 270.167,143.333 253.833,143.333 237.5,144C 235.574,144.422 234.574,145.589 234.5,147.5C 234.672,148.492 234.338,149.158 233.5,149.5C 231.613,151.789 230.279,154.455 229.5,157.5C 229.5,158.167 229.167,158.5 228.5,158.5C 224.286,160.038 220.286,159.704 216.5,157.5C 216.573,155.973 215.906,154.973 214.5,154.5C 214.5,152.5 214.5,150.5 214.5,148.5C 216.659,145.516 218.325,142.183 219.5,138.5C 220.906,138.027 221.573,137.027 221.5,135.5C 223.5,134.167 225.167,132.5 226.5,130.5C 228.153,130.34 229.486,129.674 230.5,128.5C 249.806,127.55 269.14,127.217 288.5,127.5 Z"/></g>
<g><path style="opacity:0.006" fill="#dee2de" d="M 230.5,128.5 C 229.486,129.674 228.153,130.34 226.5,130.5C 227.183,128.824 228.517,128.157 230.5,128.5 Z"/></g>
<g><path style="opacity:0.114" fill="#c9c9ca" d="M 296.5,129.5 C 298.027,129.427 299.027,130.094 299.5,131.5C 297.973,131.573 296.973,130.906 296.5,129.5 Z"/></g>
<g><path style="opacity:0.404" fill="#bcbebd" d="M 226.5,130.5 C 225.167,132.5 223.5,134.167 221.5,135.5C 222.167,132.833 223.833,131.167 226.5,130.5 Z"/></g>
<g><path style="opacity:0.788" fill="#808383" d="M 301.5,133.5 C 303.262,134.262 304.262,135.596 304.5,137.5C 302.738,136.738 301.738,135.404 301.5,133.5 Z"/></g>
<g><path style="opacity:0.031" fill="#cdcecf" d="M 183.5,134.5 C 183.5,135.833 182.833,136.5 181.5,136.5C 181.833,135.5 182.5,134.833 183.5,134.5 Z"/></g>
<g><path style="opacity:0.839" fill="#2f3335" d="M 133.5,134.5 C 134.756,134.461 135.756,134.961 136.5,136C 150.829,136.5 165.163,136.667 179.5,136.5C 165.677,137.496 151.677,137.829 137.5,137.5C 135.596,137.262 134.262,136.262 133.5,134.5 Z"/></g>
<g><path style="opacity:0.086" fill="#e6e6e6" d="M 179.5,136.5 C 180.167,136.5 180.833,136.5 181.5,136.5C 181.389,137.117 181.056,137.617 180.5,138C 165.994,138.827 151.661,138.661 137.5,137.5C 151.677,137.829 165.677,137.496 179.5,136.5 Z"/></g>
<g><path style="opacity:0.427" fill="#9b9c9c" d="M 221.5,135.5 C 221.573,137.027 220.906,138.027 219.5,138.5C 219.427,136.973 220.094,135.973 221.5,135.5 Z"/></g>
<g><path style="opacity:0.247" fill="#b6b8b8" d="M 304.5,137.5 C 305.906,137.973 306.573,138.973 306.5,140.5C 305.094,140.027 304.427,139.027 304.5,137.5 Z"/></g>
<g><path style="opacity:0.251" fill="#a5a7a7" d="M 219.5,138.5 C 218.325,142.183 216.659,145.516 214.5,148.5C 215.127,144.58 216.793,141.247 219.5,138.5 Z"/></g>
<g><path style="opacity:0.325" fill="#b1b2b2" d="M 290.5,148.5 C 288.99,147.164 287.323,145.997 285.5,145C 269.833,144.333 254.167,144.333 238.5,145C 237.016,145.662 235.683,146.496 234.5,147.5C 234.574,145.589 235.574,144.422 237.5,144C 253.833,143.333 270.167,143.333 286.5,144C 288.751,144.748 290.084,146.248 290.5,148.5 Z"/></g>
<g><path style="opacity:0.761" fill="#afb1b2" d="M 307.5,142.5 C 311.204,146.537 311.871,150.87 309.5,155.5C 309.729,150.995 309.063,146.661 307.5,142.5 Z"/></g>
<g><path style="opacity:0.089" fill="#e5e6e5" d="M 124.5,152.5 C 146.996,151.337 169.663,151.17 192.5,152C 194.653,152.099 196.319,152.933 197.5,154.5C 195.565,153.85 193.565,153.517 191.5,153.5C 169.34,152.503 147.006,152.169 124.5,152.5 Z"/></g>
<g><path style="opacity:0.075" fill="#d8dedf" d="M 377.5,155.5 C 361.638,152.337 345.638,151.671 329.5,153.5C 330.263,152.732 331.263,152.232 332.5,152C 344.167,151.333 355.833,151.333 367.5,152C 371.245,152.302 374.578,153.469 377.5,155.5 Z"/></g>
<g><path style="opacity:0.753" fill="#4f5051" d="M 124.5,152.5 C 147.006,152.169 169.34,152.503 191.5,153.5C 168.164,153.333 144.831,153.5 121.5,154C 119.26,154.977 116.927,155.477 114.5,155.5C 117.381,153.32 120.714,152.32 124.5,152.5 Z"/></g>
<g><path style="opacity:0.01" fill="#f2f5f5" d="M 214.5,148.5 C 214.5,150.5 214.5,152.5 214.5,154.5C 213.733,153.828 213.066,152.995 212.5,152C 213.833,151 213.833,150 212.5,149C 213.094,148.536 213.761,148.369 214.5,148.5 Z"/></g>
<g><path style="opacity:0.255" fill="#b4b6b5" d="M 233.5,149.5 C 233.104,152.721 231.771,155.388 229.5,157.5C 230.279,154.455 231.613,151.789 233.5,149.5 Z"/></g>
<g><path style="opacity:0.384" fill="#bcbfbd" d="M 329.5,153.5 C 325.422,157.389 324.422,162.055 326.5,167.5C 323.297,164.317 322.797,160.65 325,156.5C 326.129,154.859 327.629,153.859 329.5,153.5 Z"/></g>
<g><path style="opacity:0.698" fill="#98999a" d="M 197.5,154.5 C 199.262,155.262 200.262,156.596 200.5,158.5C 198.738,157.738 197.738,156.404 197.5,154.5 Z"/></g>
<g><path style="opacity:0.212" fill="#babcba" d="M 291.5,150.5 C 293.227,153.602 295.227,156.602 297.5,159.5C 293.791,157.777 291.791,154.777 291.5,150.5 Z"/></g>
<g><path style="opacity:0.639" fill="#94999c" d="M 114.5,155.5 C 114.027,156.906 113.027,157.573 111.5,157.5C 111.973,156.094 112.973,155.427 114.5,155.5 Z"/></g>
<g><path style="opacity:0.106" fill="#cdcece" d="M 214.5,154.5 C 215.906,154.973 216.573,155.973 216.5,157.5C 215.094,157.027 214.427,156.027 214.5,154.5 Z"/></g>
<g><path style="opacity:0.047" fill="#c6c6c7" d="M 309.5,155.5 C 309.573,157.027 308.906,158.027 307.5,158.5C 307.427,156.973 308.094,155.973 309.5,155.5 Z"/></g>
<g><path style="opacity:0.255" fill="#b2b2b5" d="M 377.5,155.5 C 379.027,155.427 380.027,156.094 380.5,157.5C 378.973,157.573 377.973,156.906 377.5,155.5 Z"/></g>
<g><path style="opacity:0.725" fill="#838583" d="M 111.5,157.5 C 111.027,158.906 110.027,159.573 108.5,159.5C 108.973,158.094 109.973,157.427 111.5,157.5 Z"/></g>
<g><path style="opacity:0.427" fill="#b7b8b9" d="M 216.5,157.5 C 220.286,159.704 224.286,160.038 228.5,158.5C 225.668,161.726 222.334,162.226 218.5,160C 217.619,159.292 216.953,158.458 216.5,157.5 Z"/></g>
<g><path style="opacity:0.553" fill="#b3b4b4" d="M 297.5,159.5 C 300.167,159.5 302.833,159.5 305.5,159.5C 302.833,162.167 300.167,162.167 297.5,159.5 Z"/></g>
<g><path style="opacity:0.008" fill="#d9dad8" d="M 384.5,160.5 C 385.833,160.5 386.5,161.167 386.5,162.5C 385.5,162.167 384.833,161.5 384.5,160.5 Z"/></g>
<g><path style="opacity:0.2" fill="#ced0d3" d="M 200.5,158.5 C 201.917,161.34 201.584,164.007 199.5,166.5C 200.092,163.873 200.425,161.206 200.5,158.5 Z"/></g>
<g><path style="opacity:0.435" fill="#babbbd" d="M 108.5,159.5 C 106.833,161.833 104.833,163.833 102.5,165.5C 103.5,162.5 105.5,160.5 108.5,159.5 Z"/></g>
<g><path style="opacity:0.396" fill="#929392" d="M 386.5,162.5 C 388.587,163.585 389.92,165.251 390.5,167.5C 388.413,166.415 387.08,164.749 386.5,162.5 Z"/></g>
<g><path style="opacity:1" fill="#14171a" d="M 191.5,153.5 C 193.565,153.517 195.565,153.85 197.5,154.5C 197.738,156.404 198.738,157.738 200.5,158.5C 200.425,161.206 200.092,163.873 199.5,166.5C 199.167,167.5 198.5,168.167 197.5,168.5C 174.209,169.313 150.876,169.813 127.5,170C 124.555,170.139 122.221,171.306 120.5,173.5C 120.5,174.167 120.167,174.5 119.5,174.5C 118.167,174.5 117.5,175.167 117.5,176.5C 117.5,177.167 117.167,177.5 116.5,177.5C 114.59,178.975 113.424,180.975 113,183.5C 112.5,195.495 112.333,207.495 112.5,219.5C 127.167,219.5 141.833,219.5 156.5,219.5C 157.492,219.328 158.158,219.662 158.5,220.5C 158.833,221.5 159.5,222.167 160.5,222.5C 163.167,225.833 163.167,229.167 160.5,232.5C 159.5,232.833 158.833,233.5 158.5,234.5C 158.158,235.338 157.492,235.672 156.5,235.5C 141.833,235.5 127.167,235.5 112.5,235.5C 112.333,269.835 112.5,304.168 113,338.5C 113.278,339.416 113.778,340.082 114.5,340.5C 114.229,342.38 114.896,343.713 116.5,344.5C 116.427,346.027 117.094,347.027 118.5,347.5C 119.167,347.5 119.5,347.833 119.5,348.5C 119.973,349.906 120.973,350.573 122.5,350.5C 124.606,351.783 126.94,352.616 129.5,353C 207.499,353.5 285.499,353.667 363.5,353.5C 365.698,353.88 367.365,353.213 368.5,351.5C 370.404,351.262 371.738,350.262 372.5,348.5C 372.5,347.833 372.833,347.5 373.5,347.5C 374.906,347.027 375.573,346.027 375.5,344.5C 377.213,343.365 377.88,341.698 377.5,339.5C 377.833,339.5 378.167,339.5 378.5,339.5C 378.712,341.384 379.712,342.717 381.5,343.5C 380.855,345.432 379.521,346.599 377.5,347C 378.766,349.578 380.766,351.412 383.5,352.5C 383.997,354.216 384.331,355.883 384.5,357.5C 385.288,356.23 386.288,355.23 387.5,354.5C 388.11,355.391 388.443,356.391 388.5,357.5C 388.5,358.167 388.167,358.5 387.5,358.5C 385.167,360.167 383.167,362.167 381.5,364.5C 380.341,366.25 378.674,367.25 376.5,367.5C 374.62,367.229 373.287,367.896 372.5,369.5C 289.518,370.486 206.518,370.82 123.5,370.5C 121.898,368.926 119.898,368.259 117.5,368.5C 115.847,368.34 114.514,367.674 113.5,366.5C 112.738,364.738 111.404,363.738 109.5,363.5C 108.167,361.5 106.5,359.833 104.5,358.5C 103.5,358.167 102.833,357.5 102.5,356.5C 99.5895,351.353 97.2562,346.019 95.5,340.5C 95.5,287.5 95.5,234.5 95.5,181.5C 95.5,180.833 95.5,180.167 95.5,179.5C 97.2671,177.208 98.2671,174.542 98.5,171.5C 100.326,169.853 101.66,167.853 102.5,165.5C 104.833,163.833 106.833,161.833 108.5,159.5C 110.027,159.573 111.027,158.906 111.5,157.5C 113.027,157.573 114.027,156.906 114.5,155.5C 116.927,155.477 119.26,154.977 121.5,154C 144.831,153.5 168.164,153.333 191.5,153.5 Z"/></g>
<g><path style="opacity:0.761" fill="#8c8d8f" d="M 251.5,167.5 C 258.655,166.345 265.988,166.178 273.5,167C 277.038,167.535 280.372,168.368 283.5,169.5C 272.862,168.412 262.195,167.745 251.5,167.5 Z"/></g>
<g><path style="opacity:0.462" fill="#959698" d="M 197.5,168.5 C 197.389,169.117 197.056,169.617 196.5,170C 194.351,170.579 192.185,171.079 190,171.5C 170.201,170.52 150.534,170.187 131,170.5C 127.361,171.117 123.861,172.117 120.5,173.5C 122.221,171.306 124.555,170.139 127.5,170C 150.876,169.813 174.209,169.313 197.5,168.5 Z"/></g>
<g><path style="opacity:0.729" fill="#8b8d8d" d="M 245.5,168.5 C 241.097,170.408 236.43,171.741 231.5,172.5C 235.783,170.188 240.45,168.855 245.5,168.5 Z"/></g>
<g><path style="opacity:0.494" fill="#a8a9aa" d="M 326.5,167.5 C 327.756,167.461 328.756,167.961 329.5,169C 341.167,169.333 352.833,169.667 364.5,170C 365.416,170.278 366.082,170.778 366.5,171.5C 353.772,171.92 341.106,171.42 328.5,170C 327.619,169.292 326.953,168.458 326.5,167.5 Z"/></g>
<g><path style="opacity:0.333" fill="#afb0b2" d="M 390.5,167.5 C 391.906,167.973 392.573,168.973 392.5,170.5C 391.094,170.027 390.427,169.027 390.5,167.5 Z"/></g>
<g><path style="opacity:0.29" fill="#adafb1" d="M 102.5,165.5 C 101.66,167.853 100.326,169.853 98.5,171.5C 98.8449,168.802 100.178,166.802 102.5,165.5 Z"/></g>
<g><path style="opacity:1" fill="#16181b" d="M 251.5,167.5 C 262.195,167.745 272.862,168.412 283.5,169.5C 286.067,169.721 288.401,170.388 290.5,171.5C 291.78,172.931 293.447,173.598 295.5,173.5C 296.287,175.104 297.62,175.771 299.5,175.5C 300.492,175.328 301.158,175.662 301.5,176.5C 302.344,178.759 304.011,179.759 306.5,179.5C 307.492,179.328 308.158,179.662 308.5,180.5C 309.035,182.446 310.368,183.446 312.5,183.5C 313.585,185.587 315.251,186.92 317.5,187.5C 319.833,189.167 321.833,191.167 323.5,193.5C 324.419,196.089 326.086,198.089 328.5,199.5C 328.427,201.027 329.094,202.027 330.5,202.5C 330.427,204.027 331.094,205.027 332.5,205.5C 333.674,206.514 334.34,207.847 334.5,209.5C 334.427,211.027 335.094,212.027 336.5,212.5C 337.338,212.842 337.672,213.508 337.5,214.5C 337.229,216.38 337.896,217.713 339.5,218.5C 339.32,222.286 340.32,225.619 342.5,228.5C 342.294,231.495 342.96,234.162 344.5,236.5C 345.787,246.876 345.787,257.209 344.5,267.5C 343.343,270.273 342.676,273.273 342.5,276.5C 341.167,279.5 339.833,282.5 338.5,285.5C 337.841,283.862 337.174,282.195 336.5,280.5C 339.025,277.58 339.025,274.746 336.5,272C 337.443,261.739 337.609,251.239 337,240.5C 336.867,243.414 335.7,245.747 333.5,247.5C 332.682,250.107 332.182,252.774 332,255.5C 331.667,250.167 331.333,244.833 331,239.5C 330.667,238.833 330.333,238.167 330,237.5C 329.16,240.464 328.16,240.797 327,238.5C 324.849,241.915 325.349,244.915 328.5,247.5C 328.75,255.396 330.084,263.062 332.5,270.5C 330.32,275.956 328.986,281.623 328.5,287.5C 327.505,282.208 327.172,276.875 327.5,271.5C 324.223,271.784 321.057,271.451 318,270.5C 317.667,271.167 317.333,271.833 317,272.5C 316.623,271.058 315.79,270.058 314.5,269.5C 315.11,268.609 315.443,267.609 315.5,266.5C 316.75,266.423 317.583,265.756 318,264.5C 319.43,261.647 320.263,258.647 320.5,255.5C 320.366,253.708 320.699,252.042 321.5,250.5C 323.163,248.562 323.829,246.228 323.5,243.5C 324.648,239.019 324.815,234.352 324,229.5C 323.76,227.148 322.927,225.148 321.5,223.5C 319.659,221.151 318.326,218.485 317.5,215.5C 317.573,213.973 316.906,212.973 315.5,212.5C 315.573,210.973 314.906,209.973 313.5,209.5C 310.5,204.5 306.5,200.5 301.5,197.5C 301.027,196.094 300.027,195.427 298.5,195.5C 298.027,194.094 297.027,193.427 295.5,193.5C 295.167,193.5 294.833,193.5 294.5,193.5C 293.713,191.896 292.38,191.229 290.5,191.5C 289.713,189.896 288.38,189.229 286.5,189.5C 285.508,189.672 284.842,189.338 284.5,188.5C 282.485,187.076 280.152,186.41 277.5,186.5C 274.482,186.296 271.482,185.963 268.5,185.5C 261.295,184.236 253.961,184.402 246.5,186C 245.944,186.383 245.611,186.883 245.5,187.5C 243.958,188.301 242.292,188.634 240.5,188.5C 237.088,189.042 234.088,190.375 231.5,192.5C 230.508,192.328 229.842,192.662 229.5,193.5C 228.29,193.932 227.29,194.599 226.5,195.5C 225.205,196.488 223.872,197.488 222.5,198.5C 221.508,198.328 220.842,198.662 220.5,199.5C 220.5,200.167 220.833,200.5 221.5,200.5C 222.167,200.5 222.833,200.5 223.5,200.5C 224.167,200.5 224.833,200.5 225.5,200.5C 226.914,202.598 226.248,203.598 223.5,203.5C 223.762,204.978 223.429,206.311 222.5,207.5C 220.002,208.121 217.668,207.455 215.5,205.5C 213.786,206.609 213.119,205.942 213.5,203.5C 208.122,205.461 206.122,203.461 207.5,197.5C 205.774,197.185 204.107,197.019 202.5,197C 202.833,197.333 203.167,197.667 203.5,198C 200.052,200.594 199.719,203.594 202.5,207C 201.552,207.483 200.552,207.649 199.5,207.5C 199.334,214.175 199.5,220.842 200,227.5C 200.333,227.167 200.667,226.833 201,226.5C 202.665,231.768 204.498,231.768 206.5,226.5C 207.192,227.025 207.692,227.692 208,228.5C 208.374,227.584 208.874,226.75 209.5,226C 210.738,226.077 211.738,225.911 212.5,225.5C 211.624,224.749 210.624,224.249 209.5,224C 210.516,222.323 211.516,220.657 212.5,219C 212.18,217.347 211.18,216.347 209.5,216C 210.5,215.333 211.5,215.333 212.5,216C 213.46,217.419 214.293,218.919 215,220.5C 217.336,219.708 217.836,218.375 216.5,216.5C 219.855,215.911 223.022,214.911 226,213.5C 227.766,214.233 229.599,214.567 231.5,214.5C 229.351,215.736 227.018,216.736 224.5,217.5C 222.973,217.427 221.973,218.094 221.5,219.5C 219.596,219.738 218.262,220.738 217.5,222.5C 215.833,224.833 213.833,226.833 211.5,228.5C 210.094,228.973 209.427,229.973 209.5,231.5C 209.5,232.167 209.167,232.5 208.5,232.5C 207.094,232.973 206.427,233.973 206.5,235.5C 206.25,237.674 205.25,239.341 203.5,240.5C 198.773,250.205 197.273,260.539 199,271.5C 199.232,272.737 199.732,273.737 200.5,274.5C 200.054,277.01 200.72,279.01 202.5,280.5C 204.341,282.849 205.674,285.515 206.5,288.5C 206.738,290.404 207.738,291.738 209.5,292.5C 209.738,294.404 210.738,295.738 212.5,296.5C 214.833,298.167 216.833,300.167 218.5,302.5C 219.585,304.587 221.251,305.92 223.5,306.5C 224.035,308.446 225.368,309.446 227.5,309.5C 229.819,309.992 231.819,310.992 233.5,312.5C 237.531,315.734 242.198,317.401 247.5,317.5C 247.918,318.222 248.584,318.722 249.5,319C 253.167,319.167 256.833,319.333 260.5,319.5C 265.767,319.713 270.767,319.046 275.5,317.5C 275.833,317.5 276.167,317.5 276.5,317.5C 281.802,317.401 286.469,315.734 290.5,312.5C 290.842,311.662 291.508,311.328 292.5,311.5C 293.492,311.672 294.158,311.338 294.5,310.5C 295.492,310.672 296.158,310.338 296.5,309.5C 298.674,309.25 300.341,308.25 301.5,306.5C 303.749,305.92 305.415,304.587 306.5,302.5C 307.833,300.5 309.5,298.833 311.5,297.5C 310.862,300.753 311.028,304.087 312,307.5C 313.044,306.377 313.71,305.044 314,303.5C 314.743,305.441 314.576,307.274 313.5,309C 315.167,309.667 316.833,309.667 318.5,309C 322.082,306.667 323.916,302.834 324,297.5C 325.57,296.386 326.903,295.053 328,293.5C 329.998,294.271 331.665,293.605 333,291.5C 333.333,291.833 333.667,292.167 334,292.5C 334.36,290.392 335.027,288.392 336,286.5C 336.77,285.402 337.603,285.402 338.5,286.5C 337.766,287.708 337.433,289.041 337.5,290.5C 337.672,291.492 337.338,292.158 336.5,292.5C 334.75,293.659 333.75,295.326 333.5,297.5C 333.672,298.492 333.338,299.158 332.5,299.5C 331.094,299.973 330.427,300.973 330.5,302.5C 330.5,303.167 330.167,303.5 329.5,303.5C 328.094,303.973 327.427,304.973 327.5,306.5C 327.5,307.167 327.167,307.5 326.5,307.5C 324.413,308.585 323.08,310.251 322.5,312.5C 322.5,313.167 322.167,313.5 321.5,313.5C 319.251,314.08 317.585,315.413 316.5,317.5C 316.167,318.5 315.5,319.167 314.5,319.5C 312.973,319.427 311.973,320.094 311.5,321.5C 309.853,323.326 307.853,324.66 305.5,325.5C 299.432,328.205 293.432,330.872 287.5,333.5C 286.432,334.434 285.099,334.768 283.5,334.5C 280.572,334.565 277.905,335.232 275.5,336.5C 271.247,337.138 266.914,337.471 262.5,337.5C 256.26,337.667 250.26,337 244.5,335.5C 242.162,333.96 239.495,333.294 236.5,333.5C 235.209,333.737 234.209,333.404 233.5,332.5C 231.815,330.182 229.481,329.182 226.5,329.5C 225.713,327.896 224.38,327.229 222.5,327.5C 222.027,326.094 221.027,325.427 219.5,325.5C 219.027,324.094 218.027,323.427 216.5,323.5C 216.027,322.094 215.027,321.427 213.5,321.5C 212.089,319.086 210.089,317.419 207.5,316.5C 205.167,313.5 202.5,310.833 199.5,308.5C 198.5,308.167 197.833,307.5 197.5,306.5C 197.262,304.596 196.262,303.262 194.5,302.5C 194.573,300.973 193.906,299.973 192.5,299.5C 191.662,299.158 191.328,298.492 191.5,297.5C 191.25,295.326 190.25,293.659 188.5,292.5C 186.149,286.436 183.816,280.436 181.5,274.5C 180.539,272.735 180.205,270.735 180.5,268.5C 180.784,266.585 180.451,264.919 179.5,263.5C 177.842,251.616 178.509,239.949 181.5,228.5C 183.687,224.105 185.354,219.438 186.5,214.5C 188.408,213.514 189.408,211.848 189.5,209.5C 189.5,209.167 189.5,208.833 189.5,208.5C 190.906,208.027 191.573,207.027 191.5,205.5C 192.906,205.027 193.573,204.027 193.5,202.5C 195.262,201.738 196.262,200.404 196.5,198.5C 201.5,194.167 206.167,189.5 210.5,184.5C 212.027,184.573 213.027,183.906 213.5,182.5C 215.027,182.573 216.027,181.906 216.5,180.5C 218.027,180.573 219.027,179.906 219.5,178.5C 219.842,177.662 220.508,177.328 221.5,177.5C 225.151,176.341 228.485,174.674 231.5,172.5C 236.43,171.741 241.097,170.408 245.5,168.5C 247.379,167.659 249.379,167.325 251.5,167.5 Z M 268.5,185.5 C 271.482,185.963 274.482,186.296 277.5,186.5C 279.515,187.924 281.848,188.59 284.5,188.5C 284.842,189.338 285.508,189.672 286.5,189.5C 287.514,190.674 288.847,191.34 290.5,191.5C 291.514,192.674 292.847,193.34 294.5,193.5C 294.833,193.5 295.167,193.5 295.5,193.5C 295.973,194.906 296.973,195.573 298.5,195.5C 298.973,196.906 299.973,197.573 301.5,197.5C 305.167,201.833 309.167,205.833 313.5,209.5C 313.427,211.027 314.094,212.027 315.5,212.5C 315.427,214.027 316.094,215.027 317.5,215.5C 318.326,218.485 319.659,221.151 321.5,223.5C 322.275,227.814 322.941,232.147 323.5,236.5C 322.659,241.01 321.992,245.676 321.5,250.5C 320.699,252.042 320.366,253.708 320.5,255.5C 318.597,258.979 316.93,262.646 315.5,266.5C 313.674,268.147 312.34,270.147 311.5,272.5C 309.359,274.122 307.692,276.122 306.5,278.5C 303.208,280.458 300.208,282.791 297.5,285.5C 294.982,286.264 292.649,287.264 290.5,288.5C 288.302,288.875 286.302,289.542 284.5,290.5C 281.615,290.806 278.948,290.473 276.5,289.5C 278.292,289.634 279.958,289.301 281.5,288.5C 281.5,288.167 281.5,287.833 281.5,287.5C 282.492,287.672 283.158,287.338 283.5,286.5C 285.027,286.573 286.027,285.906 286.5,284.5C 287.167,284.5 287.5,284.167 287.5,283.5C 290.764,281.906 293.431,279.573 295.5,276.5C 296.906,276.027 297.573,275.027 297.5,273.5C 298.906,273.027 299.573,272.027 299.5,270.5C 301.824,270.123 302.491,269.123 301.5,267.5C 302.537,266.07 303.204,264.403 303.5,262.5C 307.419,252.844 307.419,243.178 303.5,233.5C 302.618,229.407 300.951,225.74 298.5,222.5C 298.573,220.973 297.906,219.973 296.5,219.5C 295.92,217.251 294.587,215.585 292.5,214.5C 290.833,212.167 288.833,210.167 286.5,208.5C 286.027,207.094 285.027,206.427 283.5,206.5C 283.5,205.833 283.167,205.5 282.5,205.5C 282.027,204.094 281.027,203.427 279.5,203.5C 277.819,201.992 275.819,200.992 273.5,200.5C 269.902,198.26 265.902,196.926 261.5,196.5C 254.223,194.481 246.89,194.148 239.5,195.5C 237.167,195.5 234.833,195.5 232.5,195.5C 231.89,194.609 231.557,193.609 231.5,192.5C 234.912,191.958 237.912,190.625 240.5,188.5C 242.292,188.634 243.958,188.301 245.5,187.5C 253.058,185.862 260.725,185.196 268.5,185.5 Z M 226.5,195.5 C 227.391,196.11 228.391,196.443 229.5,196.5C 227.574,197.486 225.574,198.486 223.5,199.5C 222.833,199.5 222.5,199.167 222.5,198.5C 223.872,197.488 225.205,196.488 226.5,195.5 Z M 250.5,212.5 C 251.833,213.167 253.167,213.833 254.5,214.5C 253.833,214.5 253.167,214.5 252.5,214.5C 249.458,214.733 246.792,215.733 244.5,217.5C 243.508,217.328 242.842,217.662 242.5,218.5C 240.973,218.427 239.973,219.094 239.5,220.5C 237.973,220.427 236.973,221.094 236.5,222.5C 235.167,222.5 234.5,223.167 234.5,224.5C 230.833,226.167 228.167,228.833 226.5,232.5C 225.094,232.973 224.427,233.973 224.5,235.5C 223.662,235.842 223.328,236.508 223.5,237.5C 222.069,238.78 221.402,240.447 221.5,242.5C 220.566,243.568 220.232,244.901 220.5,246.5C 217.963,253.824 217.963,261.158 220.5,268.5C 220.747,271.854 221.747,274.854 223.5,277.5C 223.229,279.38 223.896,280.713 225.5,281.5C 223.969,282.925 224.302,283.591 226.5,283.5C 226.427,285.027 227.094,286.027 228.5,286.5C 228.427,288.027 229.094,289.027 230.5,289.5C 231.5,291.167 232.833,292.5 234.5,293.5C 235.911,295.914 237.911,297.581 240.5,298.5C 240.973,299.906 241.973,300.573 243.5,300.5C 245.849,302.341 248.515,303.674 251.5,304.5C 254.408,306.605 257.742,307.605 261.5,307.5C 265.239,308.922 269.239,309.589 273.5,309.5C 279.214,309.158 284.881,308.492 290.5,307.5C 289.737,308.268 288.737,308.768 287.5,309C 289.653,309.099 291.319,309.933 292.5,311.5C 291.508,311.328 290.842,311.662 290.5,312.5C 285.607,313.796 280.941,315.462 276.5,317.5C 276.167,317.5 275.833,317.5 275.5,317.5C 266.167,318.833 256.833,318.833 247.5,317.5C 242.907,315.856 238.241,314.19 233.5,312.5C 231.819,310.992 229.819,309.992 227.5,309.5C 226.564,308.026 225.23,307.026 223.5,306.5C 222.415,304.413 220.749,303.08 218.5,302.5C 216.833,300.167 214.833,298.167 212.5,296.5C 212.262,294.596 211.262,293.262 209.5,292.5C 209.262,290.596 208.262,289.262 206.5,288.5C 205.674,285.515 204.341,282.849 202.5,280.5C 202.405,278.214 201.738,276.214 200.5,274.5C 199.573,268.189 199.406,261.856 200,255.5C 201.277,250.507 202.444,245.507 203.5,240.5C 205.25,239.341 206.25,237.674 206.5,235.5C 207.906,235.027 208.573,234.027 208.5,232.5C 209.167,232.5 209.5,232.167 209.5,231.5C 210.906,231.027 211.573,230.027 211.5,228.5C 213.833,226.833 215.833,224.833 217.5,222.5C 219.404,222.262 220.738,221.262 221.5,219.5C 223.027,219.573 224.027,218.906 224.5,217.5C 227.018,216.736 229.351,215.736 231.5,214.5C 237.79,213.459 244.123,212.792 250.5,212.5 Z M 309.5,296.5 C 310.492,296.328 311.158,296.662 311.5,297.5C 309.5,298.833 307.833,300.5 306.5,302.5C 304.251,303.08 302.585,304.413 301.5,306.5C 300.167,306.833 298.833,307.167 297.5,307.5C 299.031,306.075 298.698,305.409 296.5,305.5C 296.5,305.167 296.5,304.833 296.5,304.5C 299.485,303.674 302.151,302.341 304.5,300.5C 306.027,300.573 307.027,299.906 307.5,298.5C 308.5,298.167 309.167,297.5 309.5,296.5 Z M 290.5,307.5 C 291.209,306.596 292.209,306.263 293.5,306.5C 294.568,307.434 295.901,307.768 297.5,307.5C 297.167,308.167 296.833,308.833 296.5,309.5C 295.075,307.969 294.409,308.302 294.5,310.5C 293.363,309.211 292.03,308.211 290.5,307.5 Z"/></g>
<g><path style="opacity:0.212" fill="#cbcbcb" d="M 290.5,171.5 C 292.553,171.402 294.22,172.069 295.5,173.5C 293.447,173.598 291.78,172.931 290.5,171.5 Z"/></g>
<g><path style="opacity:0.118" fill="#cccdcf" d="M 392.5,170.5 C 394.448,172.32 395.448,174.654 395.5,177.5C 393.935,175.491 392.935,173.157 392.5,170.5 Z"/></g>
<g><path style="opacity:0.659" fill="#9f9f9f" d="M 371.5,173.5 C 373.5,173.5 374.5,174.5 374.5,176.5C 373.167,175.833 372.167,174.833 371.5,173.5 Z"/></g>
<g><path style="opacity:0.275" fill="#b4b4b4" d="M 231.5,172.5 C 228.485,174.674 225.151,176.341 221.5,177.5C 224.247,174.793 227.58,173.127 231.5,172.5 Z"/></g>
<g><path style="opacity:0.365" fill="#b4b4b6" d="M 295.5,173.5 C 297.153,173.66 298.486,174.326 299.5,175.5C 297.62,175.771 296.287,175.104 295.5,173.5 Z"/></g>
<g><path style="opacity:0.067" fill="#d4d5d4" d="M 119.5,174.5 C 119.167,175.5 118.5,176.167 117.5,176.5C 117.5,175.167 118.167,174.5 119.5,174.5 Z"/></g>
<g><path style="opacity:0.047" fill="#dddedf" d="M 98.5,171.5 C 98.2671,174.542 97.2671,177.208 95.5,179.5C 94.4265,178.749 94.2599,177.749 95,176.5C 96.1889,174.767 97.3556,173.1 98.5,171.5 Z"/></g>
<g><path style="opacity:0.98" fill="#7d7d7f" d="M 301.5,176.5 C 303.674,176.75 305.341,177.75 306.5,179.5C 304.011,179.759 302.344,178.759 301.5,176.5 Z"/></g>
<g><path style="opacity:0.651" fill="#939394" d="M 219.5,178.5 C 219.027,179.906 218.027,180.573 216.5,180.5C 216.973,179.094 217.973,178.427 219.5,178.5 Z"/></g>
<g><path style="opacity:0.647" fill="#8f9091" d="M 216.5,180.5 C 216.027,181.906 215.027,182.573 213.5,182.5C 213.973,181.094 214.973,180.427 216.5,180.5 Z"/></g>
<g><path style="opacity:0.839" fill="#8b8b8d" d="M 308.5,180.5 C 310.23,181.026 311.564,182.026 312.5,183.5C 310.368,183.446 309.035,182.446 308.5,180.5 Z"/></g>
<g><path style="opacity:0.337" fill="#bec0bf" d="M 374.5,176.5 C 376.931,178.046 378.264,180.379 378.5,183.5C 378.5,188.5 378.5,193.5 378.5,198.5C 377.673,193.349 377.173,188.016 377,182.5C 376.427,180.359 375.594,178.359 374.5,176.5 Z"/></g>
<g><path style="opacity:0.545" fill="#a6a7a8" d="M 213.5,182.5 C 213.027,183.906 212.027,184.573 210.5,184.5C 210.973,183.094 211.973,182.427 213.5,182.5 Z"/></g>
<g><path style="opacity:0.02" fill="#c1c3c7" d="M 312.5,183.5 C 314.749,184.08 316.415,185.413 317.5,187.5C 315.251,186.92 313.585,185.587 312.5,183.5 Z"/></g>
<g><path style="opacity:1" fill="#111417" d="M 377.5,155.5 C 377.973,156.906 378.973,157.573 380.5,157.5C 382.404,157.738 383.738,158.738 384.5,160.5C 384.833,161.5 385.5,162.167 386.5,162.5C 387.08,164.749 388.413,166.415 390.5,167.5C 390.427,169.027 391.094,170.027 392.5,170.5C 392.935,173.157 393.935,175.491 395.5,177.5C 396.434,178.568 396.768,179.901 396.5,181.5C 396.667,233.834 396.5,286.168 396,338.5C 395.263,342.207 394.429,345.873 393.5,349.5C 392.135,351.86 390.135,353.527 387.5,354.5C 386.288,355.23 385.288,356.23 384.5,357.5C 384.331,355.883 383.997,354.216 383.5,352.5C 380.766,351.412 378.766,349.578 377.5,347C 379.521,346.599 380.855,345.432 381.5,343.5C 379.712,342.717 378.712,341.384 378.5,339.5C 379.826,287.373 379.826,235.373 378.5,183.5C 378.264,180.379 376.931,178.046 374.5,176.5C 374.5,174.5 373.5,173.5 371.5,173.5C 369.716,173.107 368.05,172.441 366.5,171.5C 366.082,170.778 365.416,170.278 364.5,170C 352.833,169.667 341.167,169.333 329.5,169C 328.756,167.961 327.756,167.461 326.5,167.5C 324.422,162.055 325.422,157.389 329.5,153.5C 345.638,151.671 361.638,152.337 377.5,155.5 Z"/></g>
<g><path style="opacity:0.047" fill="#cbcccd" d="M 268.5,185.5 C 260.725,185.196 253.058,185.862 245.5,187.5C 245.611,186.883 245.944,186.383 246.5,186C 253.961,184.402 261.295,184.236 268.5,185.5 Z"/></g>
<g><path style="opacity:0.475" fill="#9c9ea0" d="M 277.5,186.5 C 280.152,186.41 282.485,187.076 284.5,188.5C 281.848,188.59 279.515,187.924 277.5,186.5 Z"/></g>
<g><path style="opacity:0.22" fill="#babebf" d="M 240.5,188.5 C 237.912,190.625 234.912,191.958 231.5,192.5C 234.088,190.375 237.088,189.042 240.5,188.5 Z"/></g>
<g><path style="opacity:0.184" fill="#d6d7d9" d="M 286.5,189.5 C 288.38,189.229 289.713,189.896 290.5,191.5C 288.847,191.34 287.514,190.674 286.5,189.5 Z"/></g>
<g><path style="opacity:0.098" fill="#d8d8d9" d="M 290.5,191.5 C 292.38,191.229 293.713,191.896 294.5,193.5C 292.847,193.34 291.514,192.674 290.5,191.5 Z"/></g>
<g><path style="opacity:0.624" fill="#a2a4a6" d="M 210.5,184.5 C 206.167,189.5 201.5,194.167 196.5,198.5C 200.167,192.833 204.833,188.167 210.5,184.5 Z"/></g>
<g><path style="opacity:0.009" fill="#ebecec" d="M 231.5,192.5 C 231.557,193.609 231.89,194.609 232.5,195.5C 231.209,195.263 230.209,195.596 229.5,196.5C 228.391,196.443 227.391,196.11 226.5,195.5C 227.29,194.599 228.29,193.932 229.5,193.5C 229.842,192.662 230.508,192.328 231.5,192.5 Z"/></g>
<g><path style="opacity:0.999" fill="#1e1f20" d="M 363.5,190.5 C 364.833,194.833 364.833,199.167 363.5,203.5C 359.167,203.5 354.833,203.5 350.5,203.5C 350.5,199.167 350.5,194.833 350.5,190.5C 354.833,190.5 359.167,190.5 363.5,190.5 Z"/></g>
<g><path style="opacity:0.071" fill="#e8e8e9" d="M 239.5,195.5 C 246.89,194.148 254.223,194.481 261.5,196.5C 260.833,196.5 260.167,196.5 259.5,196.5C 257.5,196.5 255.5,196.5 253.5,196.5C 249.03,195.514 244.363,195.181 239.5,195.5 Z"/></g>
<g><path style="opacity:0.51" fill="#8a8b8d" d="M 295.5,193.5 C 297.027,193.427 298.027,194.094 298.5,195.5C 296.973,195.573 295.973,194.906 295.5,193.5 Z"/></g>
<g><path style="opacity:0.192" fill="#acadad" d="M 259.5,196.5 C 260.167,196.5 260.833,196.5 261.5,196.5C 265.902,196.926 269.902,198.26 273.5,200.5C 268.663,199.46 263.996,198.127 259.5,196.5 Z"/></g>
<g><path style="opacity:0.494" fill="#8d8e93" d="M 298.5,195.5 C 300.027,195.427 301.027,196.094 301.5,197.5C 299.973,197.573 298.973,196.906 298.5,195.5 Z"/></g>
<g><path style="opacity:0.78" fill="#a4a5a5" d="M 301.5,197.5 C 306.5,200.5 310.5,204.5 313.5,209.5C 309.167,205.833 305.167,201.833 301.5,197.5 Z"/></g>
<g><path style="opacity:0.863" fill="#717274" d="M 232.5,195.5 C 234.833,195.5 237.167,195.5 239.5,195.5C 244.363,195.181 249.03,195.514 253.5,196.5C 246.825,196.334 240.158,196.5 233.5,197C 230.691,198.093 228.024,199.26 225.5,200.5C 224.833,200.5 224.167,200.5 223.5,200.5C 223.5,200.167 223.5,199.833 223.5,199.5C 225.574,198.486 227.574,197.486 229.5,196.5C 230.791,196.737 231.791,196.404 232.5,195.5 Z"/></g>
<g><path style="opacity:0.18" fill="#bcbdbc" d="M 323.5,193.5 C 325.914,194.911 327.581,196.911 328.5,199.5C 326.086,198.089 324.419,196.089 323.5,193.5 Z"/></g>
<g><path style="opacity:0.388" fill="#afb3b4" d="M 196.5,198.5 C 196.262,200.404 195.262,201.738 193.5,202.5C 193.738,200.596 194.738,199.262 196.5,198.5 Z"/></g>
<g><path style="opacity:0.255" fill="#c2c4c6" d="M 328.5,199.5 C 329.906,199.973 330.573,200.973 330.5,202.5C 329.094,202.027 328.427,201.027 328.5,199.5 Z"/></g>
<g><path style="opacity:0.332" fill="#b8b9b9" d="M 363.5,190.5 C 359.167,190.5 354.833,190.5 350.5,190.5C 350.5,194.833 350.5,199.167 350.5,203.5C 354.833,203.5 359.167,203.5 363.5,203.5C 359.03,204.486 354.363,204.819 349.5,204.5C 349.5,199.5 349.5,194.5 349.5,189.5C 354.363,189.181 359.03,189.514 363.5,190.5 Z"/></g>
<g><path style="opacity:0.235" fill="#c6caca" d="M 193.5,202.5 C 193.573,204.027 192.906,205.027 191.5,205.5C 191.427,203.973 192.094,202.973 193.5,202.5 Z"/></g>
<g><path style="opacity:0.059" fill="#dddddd" d="M 279.5,203.5 C 281.027,203.427 282.027,204.094 282.5,205.5C 280.973,205.573 279.973,204.906 279.5,203.5 Z"/></g>
<g><path style="opacity:0.212" fill="#c7c8c7" d="M 330.5,202.5 C 331.906,202.973 332.573,203.973 332.5,205.5C 331.094,205.027 330.427,204.027 330.5,202.5 Z"/></g>
<g><path style="opacity:0.035" fill="#d1d1d3" d="M 283.5,206.5 C 285.027,206.427 286.027,207.094 286.5,208.5C 284.973,208.573 283.973,207.906 283.5,206.5 Z"/></g>
<g><path style="opacity:0.165" fill="#d2d5d5" d="M 191.5,205.5 C 191.573,207.027 190.906,208.027 189.5,208.5C 189.427,206.973 190.094,205.973 191.5,205.5 Z"/></g>
<g><path style="opacity:0.358" fill="#a4a5a6" d="M 116.5,177.5 C 115.394,180.054 114.561,182.721 114,185.5C 113.5,196.495 113.333,207.495 113.5,218.5C 128.01,218.171 142.343,218.504 156.5,219.5C 141.833,219.5 127.167,219.5 112.5,219.5C 112.333,207.495 112.5,195.495 113,183.5C 113.424,180.975 114.59,178.975 116.5,177.5 Z"/></g>
<g><path style="opacity:0.024" fill="#d1d2d2" d="M 313.5,209.5 C 314.906,209.973 315.573,210.973 315.5,212.5C 314.094,212.027 313.427,211.027 313.5,209.5 Z"/></g>
<g><path style="opacity:0.086" fill="#edeeed" d="M 396.5,181.5 C 397.641,188.807 398.308,196.307 398.5,204C 397.914,242.997 397.914,281.997 398.5,321C 397.823,327.15 397.323,333.317 397,339.5C 396.698,343.245 395.531,346.578 393.5,349.5C 394.429,345.873 395.263,342.207 396,338.5C 396.5,286.168 396.667,233.834 396.5,181.5 Z"/></g>
<g><path style="opacity:0.329" fill="#adafb0" d="M 334.5,209.5 C 335.906,209.973 336.573,210.973 336.5,212.5C 335.094,212.027 334.427,211.027 334.5,209.5 Z"/></g>
<g><path style="opacity:0.886" fill="#808283" d="M 189.5,209.5 C 189.408,211.848 188.408,213.514 186.5,214.5C 186.75,212.326 187.75,210.659 189.5,209.5 Z"/></g>
<g><path style="opacity:0.125" fill="#c5c6ca" d="M 315.5,212.5 C 316.906,212.973 317.573,213.973 317.5,215.5C 316.094,215.027 315.427,214.027 315.5,212.5 Z"/></g>
<g><path style="opacity:1" fill="#121618" d="M 225.5,200.5 C 228.024,199.26 230.691,198.093 233.5,197C 240.158,196.5 246.825,196.334 253.5,196.5C 255.5,196.5 257.5,196.5 259.5,196.5C 263.996,198.127 268.663,199.46 273.5,200.5C 275.819,200.992 277.819,201.992 279.5,203.5C 279.973,204.906 280.973,205.573 282.5,205.5C 283.167,205.5 283.5,205.833 283.5,206.5C 283.973,207.906 284.973,208.573 286.5,208.5C 288.833,210.167 290.833,212.167 292.5,214.5C 293.08,216.749 294.413,218.415 296.5,219.5C 296.427,221.027 297.094,222.027 298.5,222.5C 300.951,225.74 302.618,229.407 303.5,233.5C 303.5,235.167 303.5,236.833 303.5,238.5C 302.417,238.539 301.417,238.873 300.5,239.5C 299.585,237.082 298.085,235.082 296,233.5C 293.25,237.541 291.084,241.875 289.5,246.5C 287.955,248.44 285.955,249.606 283.5,250C 285.844,251.185 286.677,253.018 286,255.5C 285.692,254.692 285.192,254.025 284.5,253.5C 283.676,256.785 283.176,260.118 283,263.5C 282.053,259.036 281.886,254.702 282.5,250.5C 278.115,249.794 274.615,251.127 272,254.5C 271.501,260.157 271.334,265.824 271.5,271.5C 267.154,271.334 262.821,271.501 258.5,272C 260.221,272.739 261.887,273.573 263.5,274.5C 263.167,274.833 262.833,275.167 262.5,275.5C 258.498,274.16 254.664,272.493 251,270.5C 248.258,270.275 245.424,270.608 242.5,271.5C 241.5,274.167 240.5,276.833 239.5,279.5C 238.448,279.351 237.448,279.517 236.5,280C 238.275,281.439 240.275,282.439 242.5,283C 244.037,284.11 244.703,285.61 244.5,287.5C 245.5,287.5 246.5,287.5 247.5,287.5C 247.212,290.805 248.212,293.638 250.5,296C 247.999,297.418 248.332,298.418 251.5,299C 250.833,299.333 250.167,299.667 249.5,300C 251.207,300.195 252.874,300.195 254.5,300C 253.833,301.333 252.833,302.333 251.5,303C 252.416,303.278 253.082,303.778 253.5,304.5C 252.833,304.5 252.167,304.5 251.5,304.5C 248.515,303.674 245.849,302.341 243.5,300.5C 243.027,299.094 242.027,298.427 240.5,298.5C 239.089,296.086 237.089,294.419 234.5,293.5C 232.833,292.5 231.5,291.167 230.5,289.5C 230.573,287.973 229.906,286.973 228.5,286.5C 228.573,284.973 227.906,283.973 226.5,283.5C 226.672,282.508 226.338,281.842 225.5,281.5C 225.34,279.847 224.674,278.514 223.5,277.5C 221.747,274.854 220.747,271.854 220.5,268.5C 220.5,261.167 220.5,253.833 220.5,246.5C 220.232,244.901 220.566,243.568 221.5,242.5C 223.213,241.365 223.88,239.698 223.5,237.5C 223.328,236.508 223.662,235.842 224.5,235.5C 225.906,235.027 226.573,234.027 226.5,232.5C 229.5,230.167 232.167,227.5 234.5,224.5C 235.5,224.167 236.167,223.5 236.5,222.5C 238.027,222.573 239.027,221.906 239.5,220.5C 241.027,220.573 242.027,219.906 242.5,218.5C 242.842,217.662 243.508,217.328 244.5,217.5C 247.542,217.267 250.208,216.267 252.5,214.5C 253.167,214.5 253.833,214.5 254.5,214.5C 256.527,214.662 258.527,214.495 260.5,214C 257.312,212.684 253.978,212.184 250.5,212.5C 243.978,211.002 237.645,211.669 231.5,214.5C 229.599,214.567 227.766,214.233 226,213.5C 223.022,214.911 219.855,215.911 216.5,216.5C 217.836,218.375 217.336,219.708 215,220.5C 214.293,218.919 213.46,217.419 212.5,216C 211.5,215.333 210.5,215.333 209.5,216C 211.18,216.347 212.18,217.347 212.5,219C 211.516,220.657 210.516,222.323 209.5,224C 210.624,224.249 211.624,224.749 212.5,225.5C 211.738,225.911 210.738,226.077 209.5,226C 208.874,226.75 208.374,227.584 208,228.5C 207.692,227.692 207.192,227.025 206.5,226.5C 204.498,231.768 202.665,231.768 201,226.5C 200.667,226.833 200.333,227.167 200,227.5C 199.5,220.842 199.334,214.175 199.5,207.5C 200.552,207.649 201.552,207.483 202.5,207C 199.719,203.594 200.052,200.594 203.5,198C 203.167,197.667 202.833,197.333 202.5,197C 204.107,197.019 205.774,197.185 207.5,197.5C 206.122,203.461 208.122,205.461 213.5,203.5C 213.119,205.942 213.786,206.609 215.5,205.5C 217.668,207.455 220.002,208.121 222.5,207.5C 223.429,206.311 223.762,204.978 223.5,203.5C 226.248,203.598 226.914,202.598 225.5,200.5 Z"/></g>
<g><path style="opacity:0.118" fill="#cecfcf" d="M 252.5,214.5 C 250.208,216.267 247.542,217.267 244.5,217.5C 246.792,215.733 249.458,214.733 252.5,214.5 Z"/></g>
<g><path style="opacity:0.145" fill="#c9ccce" d="M 250.5,212.5 C 253.978,212.184 257.312,212.684 260.5,214C 258.527,214.495 256.527,214.662 254.5,214.5C 253.167,213.833 251.833,213.167 250.5,212.5 Z"/></g>
<g><path style="opacity:0.029" fill="#d0d1d2" d="M 250.5,212.5 C 244.123,212.792 237.79,213.459 231.5,214.5C 237.645,211.669 243.978,211.002 250.5,212.5 Z"/></g>
<g><path style="opacity:0.424" fill="#bdbdbf" d="M 219.5,200.5 C 219.489,202.686 218.489,203.519 216.5,203C 217.373,201.955 218.373,201.122 219.5,200.5 Z"/></g>
<g><path style="opacity:0.051" fill="#d5d6df" d="M 220.5,199.5 C 220.842,198.662 221.508,198.328 222.5,198.5C 222.5,199.167 222.833,199.5 223.5,199.5C 223.5,199.833 223.5,200.167 223.5,200.5C 222.833,200.5 222.167,200.5 221.5,200.5C 220.833,200.5 220.5,200.167 220.5,199.5 Z"/></g>
<g><path style="opacity:0.18" fill="#d0d3d4" d="M 337.5,214.5 C 338.674,215.514 339.34,216.847 339.5,218.5C 337.896,217.713 337.229,216.38 337.5,214.5 Z"/></g>
<g><path style="opacity:0.004" fill="#d9dada" d="M 224.5,217.5 C 224.027,218.906 223.027,219.573 221.5,219.5C 221.973,218.094 222.973,217.427 224.5,217.5 Z"/></g>
<g><path style="opacity:0.227" fill="#bcbcbd" d="M 292.5,214.5 C 294.587,215.585 295.92,217.251 296.5,219.5C 294.413,218.415 293.08,216.749 292.5,214.5 Z"/></g>
<g><path style="opacity:0.075" fill="#cecfcf" d="M 186.5,214.5 C 185.354,219.438 183.687,224.105 181.5,228.5C 181.999,223.331 183.666,218.664 186.5,214.5 Z"/></g>
<g><path style="opacity:0.565" fill="#a2a2a4" d="M 242.5,218.5 C 242.027,219.906 241.027,220.573 239.5,220.5C 239.973,219.094 240.973,218.427 242.5,218.5 Z"/></g>
<g><path style="opacity:0.004" fill="#e1e1e2" d="M 158.5,220.5 C 159.833,220.5 160.5,221.167 160.5,222.5C 159.5,222.167 158.833,221.5 158.5,220.5 Z"/></g>
<g><path style="opacity:0.039" fill="#d7d9d8" d="M 221.5,219.5 C 220.738,221.262 219.404,222.262 217.5,222.5C 218.262,220.738 219.596,219.738 221.5,219.5 Z"/></g>
<g><path style="opacity:0.698" fill="#88888c" d="M 239.5,220.5 C 239.027,221.906 238.027,222.573 236.5,222.5C 236.973,221.094 237.973,220.427 239.5,220.5 Z"/></g>
<g><path style="opacity:0.243" fill="#c4c4c5" d="M 296.5,219.5 C 297.906,219.973 298.573,220.973 298.5,222.5C 297.094,222.027 296.427,221.027 296.5,219.5 Z"/></g>
<g><path style="opacity:0.329" fill="#b0b1b1" d="M 236.5,222.5 C 236.167,223.5 235.5,224.167 234.5,224.5C 234.5,223.167 235.167,222.5 236.5,222.5 Z"/></g>
<g><path style="opacity:0.729" fill="#a7a9ab" d="M 339.5,218.5 C 341.277,221.505 342.277,224.838 342.5,228.5C 340.32,225.619 339.32,222.286 339.5,218.5 Z"/></g>
<g><path style="opacity:0.608" fill="#9c9d9f" d="M 234.5,224.5 C 232.167,227.5 229.5,230.167 226.5,232.5C 228.167,228.833 230.833,226.167 234.5,224.5 Z"/></g>
<g><path style="opacity:0.024" fill="#d3d3d3" d="M 211.5,228.5 C 211.573,230.027 210.906,231.027 209.5,231.5C 209.427,229.973 210.094,228.973 211.5,228.5 Z"/></g>
<g><path style="opacity:0.018" fill="#d8d8d8" d="M 342.5,228.5 C 343.768,230.905 344.435,233.572 344.5,236.5C 342.96,234.162 342.294,231.495 342.5,228.5 Z"/></g>
<g><path style="opacity:0.004" fill="#d9dada" d="M 160.5,232.5 C 160.5,233.833 159.833,234.5 158.5,234.5C 158.833,233.5 159.5,232.833 160.5,232.5 Z"/></g>
<g><path style="opacity:1" fill="#111418" d="M 303.5,238.5 C 304.691,246.445 304.691,254.445 303.5,262.5C 303.204,264.403 302.537,266.07 301.5,267.5C 300.094,267.973 299.427,268.973 299.5,270.5C 299.573,272.027 298.906,273.027 297.5,273.5C 296.5,273.833 295.833,274.5 295.5,275.5C 294.178,275.67 293.011,275.337 292,274.5C 290.256,275.649 290.089,276.983 291.5,278.5C 291.062,279.506 290.396,279.506 289.5,278.5C 288.678,280.139 288.011,281.805 287.5,283.5C 287.5,284.167 287.167,284.5 286.5,284.5C 284.973,284.427 283.973,285.094 283.5,286.5C 283.158,287.338 282.492,287.672 281.5,287.5C 279.597,287.796 277.93,288.463 276.5,289.5C 274.784,289.629 273.117,289.962 271.5,290.5C 270.022,290.238 268.689,290.571 267.5,291.5C 271.649,292.809 275.649,292.809 279.5,291.5C 281.415,291.784 283.081,291.451 284.5,290.5C 287.01,290.946 289.01,290.28 290.5,288.5C 292.649,287.264 294.982,286.264 297.5,285.5C 301.363,284.306 304.363,281.973 306.5,278.5C 307.239,278.369 307.906,278.536 308.5,279C 307.304,279.654 307.304,280.154 308.5,280.5C 309.255,277.675 310.255,275.009 311.5,272.5C 312.833,271.833 313.833,270.833 314.5,269.5C 315.79,270.058 316.623,271.058 317,272.5C 317.333,271.833 317.667,271.167 318,270.5C 321.057,271.451 324.223,271.784 327.5,271.5C 327.172,276.875 327.505,282.208 328.5,287.5C 328.986,281.623 330.32,275.956 332.5,270.5C 330.084,263.062 328.75,255.396 328.5,247.5C 325.349,244.915 324.849,241.915 327,238.5C 328.16,240.797 329.16,240.464 330,237.5C 330.333,238.167 330.667,238.833 331,239.5C 331.333,244.833 331.667,250.167 332,255.5C 332.182,252.774 332.682,250.107 333.5,247.5C 335.7,245.747 336.867,243.414 337,240.5C 337.609,251.239 337.443,261.739 336.5,272C 339.025,274.746 339.025,277.58 336.5,280.5C 337.174,282.195 337.841,283.862 338.5,285.5C 338.5,285.833 338.5,286.167 338.5,286.5C 337.603,285.402 336.77,285.402 336,286.5C 335.027,288.392 334.36,290.392 334,292.5C 333.667,292.167 333.333,291.833 333,291.5C 331.665,293.605 329.998,294.271 328,293.5C 326.903,295.053 325.57,296.386 324,297.5C 323.916,302.834 322.082,306.667 318.5,309C 316.833,309.667 315.167,309.667 313.5,309C 314.576,307.274 314.743,305.441 314,303.5C 313.71,305.044 313.044,306.377 312,307.5C 311.028,304.087 310.862,300.753 311.5,297.5C 312.983,295.906 314.483,294.24 316,292.5C 316.667,291.833 316.667,291.167 316,290.5C 313.937,292.734 311.771,294.734 309.5,296.5C 309.167,297.5 308.5,298.167 307.5,298.5C 305.973,298.427 304.973,299.094 304.5,300.5C 302.151,302.341 299.485,303.674 296.5,304.5C 285.006,307.146 273.34,308.146 261.5,307.5C 259.064,306.129 256.397,305.129 253.5,304.5C 253.082,303.778 252.416,303.278 251.5,303C 252.833,302.333 253.833,301.333 254.5,300C 252.874,300.195 251.207,300.195 249.5,300C 250.167,299.667 250.833,299.333 251.5,299C 248.332,298.418 247.999,297.418 250.5,296C 248.212,293.638 247.212,290.805 247.5,287.5C 246.5,287.5 245.5,287.5 244.5,287.5C 244.703,285.61 244.037,284.11 242.5,283C 240.275,282.439 238.275,281.439 236.5,280C 237.448,279.517 238.448,279.351 239.5,279.5C 240.5,276.833 241.5,274.167 242.5,271.5C 245.424,270.608 248.258,270.275 251,270.5C 254.664,272.493 258.498,274.16 262.5,275.5C 262.833,275.167 263.167,274.833 263.5,274.5C 261.887,273.573 260.221,272.739 258.5,272C 262.821,271.501 267.154,271.334 271.5,271.5C 271.334,265.824 271.501,260.157 272,254.5C 274.615,251.127 278.115,249.794 282.5,250.5C 281.886,254.702 282.053,259.036 283,263.5C 283.176,260.118 283.676,256.785 284.5,253.5C 285.192,254.025 285.692,254.692 286,255.5C 286.677,253.018 285.844,251.185 283.5,250C 285.955,249.606 287.955,248.44 289.5,246.5C 291.084,241.875 293.25,237.541 296,233.5C 298.085,235.082 299.585,237.082 300.5,239.5C 301.417,238.873 302.417,238.539 303.5,238.5 Z M 309.5,296.5 C 310.492,296.328 311.158,296.662 311.5,297.5C 309.5,298.833 307.833,300.5 306.5,302.5C 304.251,303.08 302.585,304.413 301.5,306.5C 300.167,306.833 298.833,307.167 297.5,307.5C 299.031,306.075 298.698,305.409 296.5,305.5C 296.5,305.167 296.5,304.833 296.5,304.5C 299.485,303.674 302.151,302.341 304.5,300.5C 306.027,300.573 307.027,299.906 307.5,298.5C 308.5,298.167 309.167,297.5 309.5,296.5 Z"/></g>
<g><path style="opacity:0.125" fill="#c9c9c9" d="M 208.5,232.5 C 208.573,234.027 207.906,235.027 206.5,235.5C 206.427,233.973 207.094,232.973 208.5,232.5 Z"/></g>
<g><path style="opacity:0.169" fill="#c9c9cb" d="M 226.5,232.5 C 226.573,234.027 225.906,235.027 224.5,235.5C 224.427,233.973 225.094,232.973 226.5,232.5 Z"/></g>
<g><path style="opacity:0.306" fill="#9fa2a2" d="M 321.5,223.5 C 322.927,225.148 323.76,227.148 324,229.5C 324.815,234.352 324.648,239.019 323.5,243.5C 323.5,241.167 323.5,238.833 323.5,236.5C 322.941,232.147 322.275,227.814 321.5,223.5 Z"/></g>
<g><path style="opacity:0.023" fill="#e9e9e9" d="M 323.5,236.5 C 323.5,238.833 323.5,241.167 323.5,243.5C 323.829,246.228 323.163,248.562 321.5,250.5C 321.992,245.676 322.659,241.01 323.5,236.5 Z"/></g>
<g><path style="opacity:0.473" fill="#969999" d="M 378.5,183.5 C 379.826,235.373 379.826,287.373 378.5,339.5C 378.167,339.5 377.833,339.5 377.5,339.5C 378.038,291.696 378.371,244.696 378.5,198.5C 378.5,193.5 378.5,188.5 378.5,183.5 Z"/></g>
<g><path style="opacity:0.835" fill="#8d9093" d="M 223.5,237.5 C 223.88,239.698 223.213,241.365 221.5,242.5C 221.402,240.447 222.069,238.78 223.5,237.5 Z"/></g>
<g><path style="opacity:0.606" fill="#a0a1a0" d="M 303.5,233.5 C 307.419,243.178 307.419,252.844 303.5,262.5C 304.691,254.445 304.691,246.445 303.5,238.5C 303.5,236.833 303.5,235.167 303.5,233.5 Z"/></g>
<g><path style="opacity:0.316" fill="#aaabab" d="M 156.5,235.5 C 142.343,236.496 128.01,236.829 113.5,236.5C 113.187,271.198 113.52,305.864 114.5,340.5C 113.778,340.082 113.278,339.416 113,338.5C 112.5,304.168 112.333,269.835 112.5,235.5C 127.167,235.5 141.833,235.5 156.5,235.5 Z"/></g>
<g><path style="opacity:0.604" fill="#9c9e9f" d="M 220.5,246.5 C 220.5,253.833 220.5,261.167 220.5,268.5C 217.963,261.158 217.963,253.824 220.5,246.5 Z"/></g>
<g><path style="opacity:0.157" fill="#bfc0c1" d="M 203.5,240.5 C 202.444,245.507 201.277,250.507 200,255.5C 199.406,261.856 199.573,268.189 200.5,274.5C 199.732,273.737 199.232,272.737 199,271.5C 197.273,260.539 198.773,250.205 203.5,240.5 Z"/></g>
<g><path style="opacity:0.25" fill="#c4c4c4" d="M 95.5,181.5 C 95.5,234.5 95.5,287.5 95.5,340.5C 94.7326,339.828 94.0659,338.995 93.5,338C 94.7861,287.02 94.7861,235.853 93.5,184.5C 93.9424,183.261 94.6091,182.261 95.5,181.5 Z"/></g>
<g><path style="opacity:0.918" fill="#646768" d="M 320.5,255.5 C 320.263,258.647 319.43,261.647 318,264.5C 317.583,265.756 316.75,266.423 315.5,266.5C 316.93,262.646 318.597,258.979 320.5,255.5 Z"/></g>
<g><path style="opacity:0.122" fill="#c4c5c5" d="M 179.5,263.5 C 180.451,264.919 180.784,266.585 180.5,268.5C 179.761,268.631 179.094,268.464 178.5,268C 179.38,266.644 179.714,265.144 179.5,263.5 Z"/></g>
<g><path style="opacity:0.231" fill="#b8b9bb" d="M 315.5,266.5 C 315.443,267.609 315.11,268.609 314.5,269.5C 313.833,270.833 312.833,271.833 311.5,272.5C 312.34,270.147 313.674,268.147 315.5,266.5 Z"/></g>
<g><path style="opacity:0.169" fill="#cacbcb" d="M 301.5,267.5 C 302.491,269.123 301.824,270.123 299.5,270.5C 299.427,268.973 300.094,267.973 301.5,267.5 Z"/></g>
<g><path style="opacity:0.059" fill="#cfd1d2" d="M 344.5,267.5 C 344.785,270.829 344.118,273.829 342.5,276.5C 342.676,273.273 343.343,270.273 344.5,267.5 Z"/></g>
<g><path style="opacity:0.031" fill="#cdcfcd" d="M 297.5,273.5 C 297.573,275.027 296.906,276.027 295.5,276.5C 295.5,276.167 295.5,275.833 295.5,275.5C 295.833,274.5 296.5,273.833 297.5,273.5 Z"/></g>
<g><path style="opacity:0.992" fill="#474b4a" d="M 295.5,275.5 C 295.5,275.833 295.5,276.167 295.5,276.5C 293.431,279.573 290.764,281.906 287.5,283.5C 288.011,281.805 288.678,280.139 289.5,278.5C 290.396,279.506 291.062,279.506 291.5,278.5C 290.089,276.983 290.256,275.649 292,274.5C 293.011,275.337 294.178,275.67 295.5,275.5 Z"/></g>
<g><path style="opacity:1" fill="#4c4d4e" d="M 311.5,272.5 C 310.255,275.009 309.255,277.675 308.5,280.5C 307.304,280.154 307.304,279.654 308.5,279C 307.906,278.536 307.239,278.369 306.5,278.5C 307.692,276.122 309.359,274.122 311.5,272.5 Z"/></g>
<g><path style="opacity:0.8" fill="#979899" d="M 200.5,274.5 C 201.738,276.214 202.405,278.214 202.5,280.5C 200.72,279.01 200.054,277.01 200.5,274.5 Z"/></g>
<g><path style="opacity:0.133" fill="#c8c8cb" d="M 223.5,277.5 C 224.674,278.514 225.34,279.847 225.5,281.5C 223.896,280.713 223.229,279.38 223.5,277.5 Z"/></g>
<g><path style="opacity:0.149" fill="#bfc2c2" d="M 181.5,274.5 C 183.816,280.436 186.149,286.436 188.5,292.5C 186.068,288.476 183.734,284.31 181.5,280C 180.834,278.34 180.834,276.506 181.5,274.5 Z"/></g>
<g><path style="opacity:0.039" fill="#c2c8c3" d="M 342.5,276.5 C 342.001,281.669 340.334,286.336 337.5,290.5C 337.433,289.041 337.766,287.708 338.5,286.5C 338.5,286.167 338.5,285.833 338.5,285.5C 339.833,282.5 341.167,279.5 342.5,276.5 Z"/></g>
<g><path style="opacity:0.718" fill="#858687" d="M 306.5,278.5 C 304.363,281.973 301.363,284.306 297.5,285.5C 300.208,282.791 303.208,280.458 306.5,278.5 Z"/></g>
<g><path style="opacity:0.09" fill="#dbdbdb" d="M 225.5,281.5 C 226.338,281.842 226.672,282.508 226.5,283.5C 224.302,283.591 223.969,282.925 225.5,281.5 Z"/></g>
<g><path style="opacity:0.141" fill="#cecfcf" d="M 226.5,283.5 C 227.906,283.973 228.573,284.973 228.5,286.5C 227.094,286.027 226.427,285.027 226.5,283.5 Z"/></g>
<g><path style="opacity:0.02" fill="#d6dada" d="M 286.5,284.5 C 286.027,285.906 285.027,286.573 283.5,286.5C 283.973,285.094 284.973,284.427 286.5,284.5 Z"/></g>
<g><path style="opacity:0.02" fill="#d8d8d8" d="M 228.5,286.5 C 229.906,286.973 230.573,287.973 230.5,289.5C 229.094,289.027 228.427,288.027 228.5,286.5 Z"/></g>
<g><path style="opacity:0.027" fill="#e3e3e6" d="M 281.5,287.5 C 281.5,287.833 281.5,288.167 281.5,288.5C 279.958,289.301 278.292,289.634 276.5,289.5C 277.93,288.463 279.597,287.796 281.5,287.5 Z"/></g>
<g><path style="opacity:0.847" fill="#8a8a8d" d="M 290.5,288.5 C 289.01,290.28 287.01,290.946 284.5,290.5C 286.302,289.542 288.302,288.875 290.5,288.5 Z"/></g>
<g><path style="opacity:0.455" fill="#aeb0af" d="M 206.5,288.5 C 208.262,289.262 209.262,290.596 209.5,292.5C 207.738,291.738 206.738,290.404 206.5,288.5 Z"/></g>
<g><path style="opacity:0.021" fill="#e9e9e9" d="M 276.5,289.5 C 278.948,290.473 281.615,290.806 284.5,290.5C 283.081,291.451 281.415,291.784 279.5,291.5C 276.615,291.806 273.948,291.473 271.5,290.5C 273.117,289.962 274.784,289.629 276.5,289.5 Z"/></g>
<g><path style="opacity:0.471" fill="#87898b" d="M 271.5,290.5 C 273.948,291.473 276.615,291.806 279.5,291.5C 275.649,292.809 271.649,292.809 267.5,291.5C 268.689,290.571 270.022,290.238 271.5,290.5 Z"/></g>
<g><path style="opacity:0.569" fill="#b6b7b7" d="M 209.5,292.5 C 211.262,293.262 212.262,294.596 212.5,296.5C 210.738,295.738 209.738,294.404 209.5,292.5 Z"/></g>
<g><path style="opacity:0.702" fill="#9f9fa1" d="M 234.5,293.5 C 237.089,294.419 239.089,296.086 240.5,298.5C 237.911,297.581 235.911,295.914 234.5,293.5 Z"/></g>
<g><path style="opacity:0.353" fill="#a4a4a4" d="M 188.5,292.5 C 190.25,293.659 191.25,295.326 191.5,297.5C 189.75,296.341 188.75,294.674 188.5,292.5 Z"/></g>
<g><path style="opacity:0.027" fill="#cecfd0" d="M 311.5,297.5 C 311.158,296.662 310.492,296.328 309.5,296.5C 311.771,294.734 313.937,292.734 316,290.5C 316.667,291.167 316.667,291.833 316,292.5C 314.483,294.24 312.983,295.906 311.5,297.5 Z"/></g>
<g><path style="opacity:0.247" fill="#b5b7b8" d="M 336.5,292.5 C 336.25,294.674 335.25,296.341 333.5,297.5C 333.75,295.326 334.75,293.659 336.5,292.5 Z"/></g>
<g><path style="opacity:0.263" fill="#b6b9b9" d="M 240.5,298.5 C 242.027,298.427 243.027,299.094 243.5,300.5C 241.973,300.573 240.973,299.906 240.5,298.5 Z"/></g>
<g><path style="opacity:0.004" fill="#e1e3e3" d="M 307.5,298.5 C 307.027,299.906 306.027,300.573 304.5,300.5C 304.973,299.094 305.973,298.427 307.5,298.5 Z"/></g>
<g><path style="opacity:0.012" fill="#dcdedd" d="M 332.5,299.5 C 332.573,301.027 331.906,302.027 330.5,302.5C 330.427,300.973 331.094,299.973 332.5,299.5 Z"/></g>
<g><path style="opacity:0.067" fill="#d7d7d7" d="M 192.5,299.5 C 193.906,299.973 194.573,300.973 194.5,302.5C 192.176,302.123 191.509,301.123 192.5,299.5 Z"/></g>
<g><path style="opacity:0.008" fill="#cbcdcc" d="M 218.5,302.5 C 220.749,303.08 222.415,304.413 223.5,306.5C 221.251,305.92 219.585,304.587 218.5,302.5 Z"/></g>
<g><path style="opacity:0.039" fill="#cfd0d0" d="M 194.5,302.5 C 196.262,303.262 197.262,304.596 197.5,306.5C 195.738,305.738 194.738,304.404 194.5,302.5 Z"/></g>
<g><path style="opacity:0.796" fill="#878788" d="M 251.5,304.5 C 252.167,304.5 252.833,304.5 253.5,304.5C 256.397,305.129 259.064,306.129 261.5,307.5C 257.742,307.605 254.408,306.605 251.5,304.5 Z"/></g>
<g><path style="opacity:0.051" fill="#c0c0cb" d="M 329.5,303.5 C 329.573,305.027 328.906,306.027 327.5,306.5C 327.427,304.973 328.094,303.973 329.5,303.5 Z"/></g>
<g><path style="opacity:0.008" fill="#fefffe" d="M 296.5,305.5 C 298.698,305.409 299.031,306.075 297.5,307.5C 295.901,307.768 294.568,307.434 293.5,306.5C 294.791,306.737 295.791,306.404 296.5,305.5 Z"/></g>
<g><path style="opacity:0.718" fill="#88898c" d="M 306.5,302.5 C 305.415,304.587 303.749,305.92 301.5,306.5C 302.585,304.413 304.251,303.08 306.5,302.5 Z"/></g>
<g><path style="opacity:0.796" fill="#8a8a8a" d="M 223.5,306.5 C 225.23,307.026 226.564,308.026 227.5,309.5C 225.368,309.446 224.035,308.446 223.5,306.5 Z"/></g>
<g><path style="opacity:0.573" fill="#a3a4a5" d="M 296.5,304.5 C 296.5,304.833 296.5,305.167 296.5,305.5C 295.209,305.263 294.209,305.596 293.5,306.5C 292.209,306.263 291.209,306.596 290.5,307.5C 284.881,308.492 279.214,309.158 273.5,309.5C 269.239,309.589 265.239,308.922 261.5,307.5C 273.34,308.146 285.006,307.146 296.5,304.5 Z"/></g>
<g><path style="opacity:0.007" fill="#f8f9f9" d="M 290.5,307.5 C 292.03,308.211 293.363,309.211 294.5,310.5C 294.158,311.338 293.492,311.672 292.5,311.5C 291.319,309.933 289.653,309.099 287.5,309C 288.737,308.768 289.737,308.268 290.5,307.5 Z"/></g>
<g><path style="opacity:0.306" fill="#a8a9aa" d="M 301.5,306.5 C 300.341,308.25 298.674,309.25 296.5,309.5C 296.833,308.833 297.167,308.167 297.5,307.5C 298.833,307.167 300.167,306.833 301.5,306.5 Z"/></g>
<g><path style="opacity:0.004" fill="#cbcbcb" d="M 199.5,308.5 C 202.5,310.833 205.167,313.5 207.5,316.5C 203.833,314.833 201.167,312.167 199.5,308.5 Z"/></g>
<g><path style="opacity:0.082" fill="#d7d7d7" d="M 296.5,309.5 C 296.158,310.338 295.492,310.672 294.5,310.5C 294.409,308.302 295.075,307.969 296.5,309.5 Z"/></g>
<g><path style="opacity:0.047" fill="#c6c7c8" d="M 326.5,307.5 C 325.92,309.749 324.587,311.415 322.5,312.5C 323.08,310.251 324.413,308.585 326.5,307.5 Z"/></g>
<g><path style="opacity:0.145" fill="#bfc0c1" d="M 233.5,312.5 C 238.241,314.19 242.907,315.856 247.5,317.5C 242.198,317.401 237.531,315.734 233.5,312.5 Z"/></g>
<g><path style="opacity:0.051" fill="#c5c8c8" d="M 321.5,313.5 C 320.415,315.587 318.749,316.92 316.5,317.5C 317.585,315.413 319.251,314.08 321.5,313.5 Z"/></g>
<g><path style="opacity:0.769" fill="#959797" d="M 207.5,316.5 C 210.089,317.419 212.089,319.086 213.5,321.5C 210.911,320.581 208.911,318.914 207.5,316.5 Z"/></g>
<g><path style="opacity:0.514" fill="#a2a4a4" d="M 290.5,312.5 C 286.469,315.734 281.802,317.401 276.5,317.5C 280.941,315.462 285.607,313.796 290.5,312.5 Z"/></g>
<g><path style="opacity:0.282" fill="#a3a3a5" d="M 247.5,317.5 C 256.833,318.833 266.167,318.833 275.5,317.5C 270.767,319.046 265.767,319.713 260.5,319.5C 256.833,319.333 253.167,319.167 249.5,319C 248.584,318.722 247.918,318.222 247.5,317.5 Z"/></g>
<g><path style="opacity:0.039" fill="#d0d0d0" d="M 314.5,319.5 C 314.027,320.906 313.027,321.573 311.5,321.5C 311.973,320.094 312.973,319.427 314.5,319.5 Z"/></g>
<g><path style="opacity:0.4" fill="#a2a2a4" d="M 213.5,321.5 C 215.027,321.427 216.027,322.094 216.5,323.5C 214.973,323.573 213.973,322.906 213.5,321.5 Z"/></g>
<g><path style="opacity:0.376" fill="#a6a9a9" d="M 216.5,323.5 C 218.027,323.427 219.027,324.094 219.5,325.5C 217.973,325.573 216.973,324.906 216.5,323.5 Z"/></g>
<g><path style="opacity:0.208" fill="#c1c2c4" d="M 219.5,325.5 C 221.027,325.427 222.027,326.094 222.5,327.5C 220.973,327.573 219.973,326.906 219.5,325.5 Z"/></g>
<g><path style="opacity:0.231" fill="#c9cbca" d="M 222.5,327.5 C 224.38,327.229 225.713,327.896 226.5,329.5C 224.847,329.34 223.514,328.674 222.5,327.5 Z"/></g>
<g><path style="opacity:0.204" fill="#c8c9c9" d="M 305.5,325.5 C 300.297,329.765 294.297,332.431 287.5,333.5C 293.432,330.872 299.432,328.205 305.5,325.5 Z"/></g>
<g><path style="opacity:0.098" fill="#bec2bf" d="M 226.5,329.5 C 229.481,329.182 231.815,330.182 233.5,332.5C 230.759,332.293 228.426,331.293 226.5,329.5 Z"/></g>
<g><path style="opacity:0.82" fill="#8e9193" d="M 236.5,333.5 C 239.495,333.294 242.162,333.96 244.5,335.5C 241.572,335.435 238.905,334.768 236.5,333.5 Z"/></g>
<g><path style="opacity:0.09" fill="#c5c5c6" d="M 283.5,334.5 C 281.162,336.04 278.495,336.706 275.5,336.5C 277.905,335.232 280.572,334.565 283.5,334.5 Z"/></g>
<g><path style="opacity:0.204" fill="#d3d3d4" d="M 114.5,340.5 C 115.674,341.514 116.34,342.847 116.5,344.5C 114.896,343.713 114.229,342.38 114.5,340.5 Z"/></g>
<g><path style="opacity:0.333" fill="#b4b9b9" d="M 377.5,339.5 C 377.88,341.698 377.213,343.365 375.5,344.5C 375.796,342.597 376.463,340.93 377.5,339.5 Z"/></g>
<g><path style="opacity:0.427" fill="#babcbb" d="M 116.5,344.5 C 117.906,344.973 118.573,345.973 118.5,347.5C 117.094,347.027 116.427,346.027 116.5,344.5 Z"/></g>
<g><path style="opacity:0.337" fill="#bebebe" d="M 375.5,344.5 C 375.573,346.027 374.906,347.027 373.5,347.5C 373.427,345.973 374.094,344.973 375.5,344.5 Z"/></g>
<g><path style="opacity:0.09" fill="#cacbca" d="M 119.5,348.5 C 121.027,348.427 122.027,349.094 122.5,350.5C 120.973,350.573 119.973,349.906 119.5,348.5 Z"/></g>
<g><path style="opacity:0.459" fill="#abafb0" d="M 372.5,348.5 C 371.738,350.262 370.404,351.262 368.5,351.5C 369.262,349.738 370.596,348.738 372.5,348.5 Z"/></g>
<g><path style="opacity:0.208" fill="#cbccce" d="M 95.5,340.5 C 97.2562,346.019 99.5895,351.353 102.5,356.5C 102.167,356.5 101.833,356.5 101.5,356.5C 99.3448,352.861 97.1782,349.194 95,345.5C 94.3603,343.735 94.5269,342.068 95.5,340.5 Z"/></g>
<g><path style="opacity:0.792" fill="#858686" d="M 368.5,351.5 C 367.365,353.213 365.698,353.88 363.5,353.5C 364.93,352.463 366.597,351.796 368.5,351.5 Z"/></g>
<g><path style="opacity:0.922" fill="#707173" d="M 393.5,349.5 C 392.617,352.704 390.95,355.371 388.5,357.5C 388.443,356.391 388.11,355.391 387.5,354.5C 390.135,353.527 392.135,351.86 393.5,349.5 Z"/></g>
<g><path style="opacity:0.004" fill="#fefffe" d="M 101.5,356.5 C 100.833,357.167 100.833,357.167 101.5,356.5 Z"/></g>
<g><path style="opacity:0.024" fill="#c7c8c8" d="M 104.5,358.5 C 106.5,359.833 108.167,361.5 109.5,363.5C 106.833,362.833 105.167,361.167 104.5,358.5 Z"/></g>
<g><path style="opacity:0.051" fill="#cacbcd" d="M 387.5,358.5 C 386.5,361.5 384.5,363.5 381.5,364.5C 383.167,362.167 385.167,360.167 387.5,358.5 Z"/></g>
<g><path style="opacity:0.702" fill="#9b9c9c" d="M 109.5,363.5 C 111.404,363.738 112.738,364.738 113.5,366.5C 111.596,366.262 110.262,365.262 109.5,363.5 Z"/></g>
<g><path style="opacity:0.078" fill="#b4b5b6" d="M 376.5,367.5 C 375.833,368.167 375.167,368.833 374.5,369.5C 373.833,369.5 373.167,369.5 372.5,369.5C 373.287,367.896 374.62,367.229 376.5,367.5 Z"/></g>
<g><path style="opacity:0.004" fill="#fefffe" d="M 117.5,369.5 C 116.833,370.167 116.833,370.167 117.5,369.5 Z"/></g>
<g><path style="opacity:0.467" fill="#9c9d9f" d="M 117.5,369.5 C 117.5,369.167 117.5,368.833 117.5,368.5C 119.898,368.259 121.898,368.926 123.5,370.5C 121.435,370.483 119.435,370.15 117.5,369.5 Z"/></g>
<g><path style="opacity:0.004" fill="#fefffe" d="M 374.5,369.5 C 375.833,370.167 375.833,370.167 374.5,369.5 Z"/></g>
<g><path style="opacity:0.599" fill="#909294" d="M 372.5,369.5 C 370.046,370.621 367.379,371.454 364.5,372C 285.833,372.667 207.167,372.667 128.5,372C 126.618,371.802 124.952,371.302 123.5,370.5C 206.518,370.82 289.518,370.486 372.5,369.5 Z"/></g>
</svg>
