<?xml version="1.0" encoding="UTF-8"?>
<!DOCTYPE svg PUBLIC "-//W3C//DTD SVG 1.1//EN" "http://www.w3.org/Graphics/SVG/1.1/DTD/svg11.dtd">
<svg xmlns="http://www.w3.org/2000/svg" version="1.1" width="336px" height="310px" style="shape-rendering:geometricPrecision; text-rendering:geometricPrecision; image-rendering:optimizeQuality; fill-rule:evenodd; clip-rule:evenodd" xmlns:xlink="http://www.w3.org/1999/xlink">
<g><path style="opacity:0.999" fill="#eeeeef" d="M 191.5,48.5 C 193.956,50.8676 196.956,51.8676 200.5,51.5C 200.833,51.5 201.167,51.5 201.5,51.5C 203.229,53.7267 205.562,54.7267 208.5,54.5C 211.45,55.3084 214.117,56.6418 216.5,58.5C 216.973,59.9063 217.973,60.573 219.5,60.5C 222.786,62.4512 225.786,64.7846 228.5,67.5C 228.738,69.4044 229.738,70.7377 231.5,71.5C 231.833,71.5 232.167,71.5 232.5,71.5C 232.427,73.0269 233.094,74.0269 234.5,74.5C 235.08,76.7488 236.413,78.4154 238.5,79.5C 243.195,84.8655 242.362,88.8655 236,91.5C 231.627,90.7959 228.793,88.2959 227.5,84C 205.826,83.1669 184.159,83.3336 162.5,84.5C 160.725,87.7376 158.725,90.7376 156.5,93.5C 155.026,94.4363 154.026,95.7697 153.5,97.5C 153.5,97.8333 153.5,98.1667 153.5,98.5C 182.76,99.4994 212.76,99.8327 243.5,99.5C 252.976,101.136 260.143,106.136 265,114.5C 267.076,117.893 268.242,121.56 268.5,125.5C 268.753,147.184 268.419,168.851 267.5,190.5C 267.768,192.099 267.434,193.432 266.5,194.5C 265.076,196.515 264.41,198.848 264.5,201.5C 258.999,216.988 249.999,229.988 237.5,240.5C 236.5,240.833 235.833,241.5 235.5,242.5C 234.71,243.401 233.71,244.068 232.5,244.5C 231.5,244.833 230.833,245.5 230.5,246.5C 229.205,247.488 227.872,248.488 226.5,249.5C 224.833,249.5 223.167,249.5 221.5,249.5C 221.5,250.5 221.5,251.5 221.5,252.5C 218.926,254.024 216.259,255.358 213.5,256.5C 211.447,256.402 209.78,257.069 208.5,258.5C 189.992,266.19 170.992,268.19 151.5,264.5C 148.495,262.723 145.162,261.723 141.5,261.5C 141.167,261.5 140.833,261.5 140.5,261.5C 138.824,259.166 136.491,258.166 133.5,258.5C 133.167,258.5 132.833,258.5 132.5,258.5C 132.027,257.094 131.027,256.427 129.5,256.5C 127.847,256.34 126.514,255.674 125.5,254.5C 125.027,253.094 124.027,252.427 122.5,252.5C 121.5,252.167 120.833,251.5 120.5,250.5C 120.5,248.5 120.5,246.5 120.5,244.5C 120.5,243.833 120.833,243.5 121.5,243.5C 124.079,243.083 126.246,243.75 128,245.5C 128.671,244.748 129.504,244.414 130.5,244.5C 136.091,247.03 141.758,249.363 147.5,251.5C 149.838,253.04 152.505,253.706 155.5,253.5C 163.142,254.263 170.809,254.597 178.5,254.5C 181.187,254.664 183.854,254.497 186.5,254C 187.416,253.722 188.082,253.222 188.5,252.5C 191.003,251.629 193.67,250.963 196.5,250.5C 199.152,250.59 201.485,249.924 203.5,248.5C 209.217,245.697 214.884,242.697 220.5,239.5C 222.027,239.573 223.027,238.906 223.5,237.5C 225.404,237.262 226.738,236.262 227.5,234.5C 229.298,232.888 231.298,231.388 233.5,230C 231.332,229.751 229.665,230.584 228.5,232.5C 227.833,232.5 227.5,232.833 227.5,233.5C 221.674,233.843 219.174,231.176 220,225.5C 228.244,217.017 233.911,207.017 237,195.5C 245.211,192.213 248.378,194.879 246.5,203.5C 244.421,206.111 243.088,209.111 242.5,212.5C 242.5,212.833 242.5,213.167 242.5,213.5C 240.912,214.635 240.579,215.969 241.5,217.5C 243.188,216.479 244.521,215.145 245.5,213.5C 246.906,213.027 247.573,212.027 247.5,210.5C 248.906,210.027 249.573,209.027 249.5,207.5C 251.008,205.819 252.008,203.819 252.5,201.5C 253.892,196.155 255.392,190.822 257,185.5C 257.667,165.5 257.667,145.5 257,125.5C 255.451,121.13 252.951,117.463 249.5,114.5C 249.027,113.094 248.027,112.427 246.5,112.5C 244.302,112.125 242.302,111.458 240.5,110.5C 191.002,109.335 141.335,109.168 91.5,110C 90.5842,110.278 89.9175,110.778 89.5,111.5C 82.9784,115.209 78.3118,120.543 75.5,127.5C 72.7628,127.599 70.0961,127.265 67.5,126.5C 66.1667,123.833 66.1667,121.167 67.5,118.5C 69.1991,116.434 70.5324,114.1 71.5,111.5C 71.7221,109.393 72.7221,107.726 74.5,106.5C 77.2737,104.385 80.2737,102.719 83.5,101.5C 84.4959,101.414 85.3292,101.748 86,102.5C 86.4993,97.5111 86.6659,92.5111 86.5,87.5C 87.9063,87.0269 88.573,86.0269 88.5,84.5C 90.5726,80.6166 93.906,78.4499 98.5,78C 104.833,77.3333 111.167,77.3333 117.5,78C 123.682,78.5719 127.682,81.7386 129.5,87.5C 129.5,91.5 129.5,95.5 129.5,99.5C 133.182,99.6653 136.848,99.4986 140.5,99C 141.252,98.3292 141.586,97.4959 141.5,96.5C 141.328,95.5084 141.662,94.8417 142.5,94.5C 143.906,94.0269 144.573,93.0269 144.5,91.5C 145.906,91.0269 146.573,90.0269 146.5,88.5C 148.408,87.5144 149.408,85.8477 149.5,83.5C 150.906,83.0269 151.573,82.0269 151.5,80.5C 152.348,77.1125 154.348,74.7791 157.5,73.5C 176.819,72.8827 196.152,72.2161 215.5,71.5C 214.995,70.0815 213.995,69.4148 212.5,69.5C 212.167,69.5 211.833,69.5 211.5,69.5C 210.738,67.7376 209.404,66.7376 207.5,66.5C 197.3,61.8784 186.634,58.8784 175.5,57.5C 171.979,56.6931 168.312,56.0264 164.5,55.5C 161.562,51.7339 162.229,48.5673 166.5,46C 175.036,45.1303 183.37,45.9636 191.5,48.5 Z M 98.5,90.5 C 105.255,90.2066 111.922,90.5399 118.5,91.5C 117.585,94.0368 117.251,96.3702 117.5,98.5C 110.954,98.3681 104.288,98.3681 97.5,98.5C 97.5,96.1667 97.5,93.8333 97.5,91.5C 98.1667,91.5 98.5,91.1667 98.5,90.5 Z"/></g>
<g><path style="opacity:0.933" fill="#85868b" d="M 191.5,48.5 C 194.916,48.5275 197.916,49.5275 200.5,51.5C 196.956,51.8676 193.956,50.8676 191.5,48.5 Z"/></g>
<g><path style="opacity:0.949" fill="#8f8f93" d="M 201.5,51.5 C 204.241,51.7073 206.574,52.7073 208.5,54.5C 205.562,54.7267 203.229,53.7267 201.5,51.5 Z"/></g>
<g><path style="opacity:0.482" fill="#7d7e80" d="M 164.5,55.5 C 168.312,56.0264 171.979,56.6931 175.5,57.5C 172.15,57.665 168.817,57.4983 165.5,57C 164.944,56.6174 164.611,56.1174 164.5,55.5 Z"/></g>
<g><path style="opacity:0.075" fill="#323334" d="M 216.5,58.5 C 218.027,58.427 219.027,59.0937 219.5,60.5C 217.973,60.573 216.973,59.9063 216.5,58.5 Z"/></g>
<g><path style="opacity:0.231" fill="#414141" d="M 207.5,66.5 C 209.404,66.7376 210.738,67.7376 211.5,69.5C 209.596,69.2624 208.262,68.2624 207.5,66.5 Z"/></g>
<g><path style="opacity:0.694" fill="#6e6e71" d="M 228.5,67.5 C 230.262,68.2623 231.262,69.5956 231.5,71.5C 229.738,70.7377 228.738,69.4044 228.5,67.5 Z"/></g>
<g><path style="opacity:0.621" fill="#9e9fa1" d="M 212.5,69.5 C 213.995,69.4148 214.995,70.0815 215.5,71.5C 196.152,72.2161 176.819,72.8827 157.5,73.5C 158.263,72.7321 159.263,72.2321 160.5,72C 178.167,71.6667 195.833,71.3333 213.5,71C 212.944,70.6174 212.611,70.1174 212.5,69.5 Z"/></g>
<g><path style="opacity:0.557" fill="#4e4f50" d="M 232.5,71.5 C 233.906,71.9731 234.573,72.9731 234.5,74.5C 233.094,74.0269 232.427,73.0269 232.5,71.5 Z"/></g>
<g><path style="opacity:0.247" fill="#5a5a5d" d="M 234.5,74.5 C 236.587,75.5846 237.92,77.2512 238.5,79.5C 236.413,78.4154 235.08,76.7488 234.5,74.5 Z"/></g>
<g><path style="opacity:0.333" fill="#555555" d="M 151.5,80.5 C 151.573,82.0269 150.906,83.0269 149.5,83.5C 149.427,81.9731 150.094,80.9731 151.5,80.5 Z"/></g>
<g><path style="opacity:0.365" fill="#6a6a6e" d="M 88.5,84.5 C 88.573,86.0269 87.9063,87.0269 86.5,87.5C 86.427,85.9731 87.0937,84.9731 88.5,84.5 Z"/></g>
<g><path style="opacity:0.973" fill="#929498" d="M 149.5,83.5 C 149.408,85.8477 148.408,87.5144 146.5,88.5C 146.75,86.326 147.75,84.6594 149.5,83.5 Z"/></g>
<g><path style="opacity:0.073" fill="#2a2b2e" d="M 98.5,90.5 C 101.649,89.8349 104.982,89.5016 108.5,89.5C 112.239,89.5136 115.572,90.1803 118.5,91.5C 111.922,90.5399 105.255,90.2066 98.5,90.5 Z"/></g>
<g><path style="opacity:0.439" fill="#616364" d="M 146.5,88.5 C 146.573,90.0269 145.906,91.0269 144.5,91.5C 144.427,89.9731 145.094,88.9731 146.5,88.5 Z"/></g>
<g><path style="opacity:0.637" fill="#919293" d="M 86.5,87.5 C 86.6659,92.5111 86.4993,97.5111 86,102.5C 85.3292,101.748 84.4959,101.414 83.5,101.5C 85.0465,96.9457 86.0465,92.279 86.5,87.5 Z"/></g>
<g><path style="opacity:0.2" fill="#444748" d="M 144.5,91.5 C 144.573,93.0269 143.906,94.0269 142.5,94.5C 142.427,92.9731 143.094,91.9731 144.5,91.5 Z"/></g>
<g><path style="opacity:0.141" fill="#313132" d="M 156.5,93.5 C 156.167,94.8333 155.833,96.1667 155.5,97.5C 154.833,97.5 154.167,97.5 153.5,97.5C 154.026,95.7697 155.026,94.4363 156.5,93.5 Z"/></g>
<g><path style="opacity:0.259" fill="#505054" d="M 97.5,91.5 C 97.5,93.8333 97.5,96.1667 97.5,98.5C 104.288,98.3681 110.954,98.3681 117.5,98.5C 117.251,96.3702 117.585,94.0368 118.5,91.5C 119.473,93.9479 119.806,96.6146 119.5,99.5C 111.833,99.5 104.167,99.5 96.5,99.5C 96.1936,96.6146 96.5269,93.9479 97.5,91.5 Z"/></g>
<g><path style="opacity:0.235" fill="#4e5052" d="M 129.5,87.5 C 130.201,90.5629 130.868,93.7296 131.5,97C 131.167,97.3333 130.833,97.6667 130.5,98C 133.381,98.0418 136.215,98.2084 139,98.5C 139.708,97.6195 140.542,96.9528 141.5,96.5C 141.586,97.4959 141.252,98.3292 140.5,99C 136.848,99.4986 133.182,99.6653 129.5,99.5C 129.5,95.5 129.5,91.5 129.5,87.5 Z"/></g>
<g><path style="opacity:0.267" fill="#333638" d="M 155.5,97.5 C 181.212,97.5991 206.545,97.5991 231.5,97.5C 235.635,98.1091 239.635,98.7757 243.5,99.5C 212.76,99.8327 182.76,99.4994 153.5,98.5C 154.492,98.6716 155.158,98.3382 155.5,97.5 Z"/></g>
<g><path style="opacity:0.475" fill="#828486" d="M 240.5,110.5 C 190.143,110.185 139.81,110.518 89.5,111.5C 89.9175,110.778 90.5842,110.278 91.5,110C 141.335,109.168 191.002,109.335 240.5,110.5 Z"/></g>
<g><path style="opacity:0.373" fill="#5c5f61" d="M 246.5,112.5 C 248.027,112.427 249.027,113.094 249.5,114.5C 247.973,114.573 246.973,113.906 246.5,112.5 Z"/></g>
<g><path style="opacity:0.839" fill="#7d7d81" d="M 71.5,111.5 C 70.5324,114.1 69.1991,116.434 67.5,118.5C 67.5548,115.386 68.8881,113.052 71.5,111.5 Z"/></g>
<g><path style="opacity:0.999" fill="#d8d9da" d="M 114.5,123.5 C 114.5,126.167 114.5,128.833 114.5,131.5C 114.389,132.117 114.056,132.617 113.5,133C 107.5,133.667 101.5,133.667 95.5,133C 94.5842,132.722 93.9175,132.222 93.5,131.5C 93.2786,128.721 93.612,126.054 94.5,123.5C 94.9175,122.778 95.5842,122.278 96.5,122C 101.833,121.333 107.167,121.333 112.5,122C 113.044,122.717 113.711,123.217 114.5,123.5 Z"/></g>
<g><path style="opacity:1" fill="#ebebec" d="M 183.5,123.5 C 185.214,124.738 187.214,125.405 189.5,125.5C 190.609,125.557 191.609,125.89 192.5,126.5C 192.973,127.906 193.973,128.573 195.5,128.5C 197.434,129.11 199.101,130.11 200.5,131.5C 201.27,133.935 202.937,135.269 205.5,135.5C 209.226,138.561 212.226,142.228 214.5,146.5C 214.427,148.027 215.094,149.027 216.5,149.5C 217.537,150.93 218.204,152.597 218.5,154.5C 218.259,156.898 218.926,158.898 220.5,160.5C 224.362,170.785 224.362,181.119 220.5,191.5C 218.896,192.287 218.229,193.62 218.5,195.5C 218.443,196.609 218.11,197.609 217.5,198.5C 215.896,199.287 215.229,200.62 215.5,202.5C 206.89,217.112 194.223,225.779 177.5,228.5C 169.471,228.656 161.471,228.323 153.5,227.5C 151.035,227.233 148.701,226.566 146.5,225.5C 146.027,224.094 145.027,223.427 143.5,223.5C 142.391,223.443 141.391,223.11 140.5,222.5C 139.738,220.738 138.404,219.738 136.5,219.5C 135.415,217.413 133.749,216.08 131.5,215.5C 131.027,214.094 130.027,213.427 128.5,213.5C 128.167,212.833 127.833,212.167 127.5,211.5C 126.833,210.167 125.833,209.167 124.5,208.5C 123.833,208.5 123.5,208.167 123.5,207.5C 123.573,205.973 122.906,204.973 121.5,204.5C 120.662,204.158 120.328,203.492 120.5,202.5C 120.414,201.504 120.748,200.671 121.5,200C 119.65,199.31 118.316,198.144 117.5,196.5C 116.069,195.22 115.402,193.553 115.5,191.5C 115.737,190.209 115.404,189.209 114.5,188.5C 114.5,187.833 114.5,187.167 114.5,186.5C 114.737,185.209 114.404,184.209 113.5,183.5C 112.112,176.727 112.445,170.061 114.5,163.5C 115.924,161.485 116.59,159.152 116.5,156.5C 116.557,155.391 116.89,154.391 117.5,153.5C 119.408,152.514 120.408,150.848 120.5,148.5C 120.845,145.802 122.178,143.802 124.5,142.5C 126.262,141.738 127.262,140.404 127.5,138.5C 127.833,137.5 128.5,136.833 129.5,136.5C 131.754,135.876 133.421,134.543 134.5,132.5C 137.835,129.161 141.835,126.828 146.5,125.5C 148.898,125.741 150.898,125.074 152.5,123.5C 162.935,119.539 173.269,119.539 183.5,123.5 Z M 177.5,133.5 C 179.936,134.871 182.603,135.871 185.5,136.5C 186.391,137.11 187.391,137.443 188.5,137.5C 188.973,138.906 189.973,139.573 191.5,139.5C 191.842,140.338 192.508,140.672 193.5,140.5C 194.585,142.587 196.251,143.92 198.5,144.5C 200.866,147.857 203.199,151.19 205.5,154.5C 205.932,155.71 206.599,156.71 207.5,157.5C 207.402,159.553 208.069,161.22 209.5,162.5C 211.572,173.508 210.572,184.174 206.5,194.5C 204.75,195.659 203.75,197.326 203.5,199.5C 201.413,200.585 200.08,202.251 199.5,204.5C 198.833,204.5 198.5,204.833 198.5,205.5C 196.5,205.5 195.5,206.5 195.5,208.5C 192.802,208.845 190.802,210.178 189.5,212.5C 187.447,212.402 185.78,213.069 184.5,214.5C 182.597,214.796 180.93,215.463 179.5,216.5C 170.757,218.007 162.091,217.673 153.5,215.5C 143.717,211.716 136.05,205.383 130.5,196.5C 130.573,194.973 129.906,193.973 128.5,193.5C 125.273,184.715 124.273,175.715 125.5,166.5C 127.072,163.785 128.072,160.785 128.5,157.5C 130.25,156.341 131.25,154.674 131.5,152.5C 131.5,152.167 131.5,151.833 131.5,151.5C 132.833,151.5 133.5,150.833 133.5,149.5C 137.192,146.138 140.859,142.805 144.5,139.5C 146.674,139.25 148.341,138.25 149.5,136.5C 158.608,133.825 167.941,132.825 177.5,133.5 Z"/></g>
<g><path style="opacity:0.999" fill="#d7d8d9" d="M 240.5,123.5 C 240.5,126.167 240.5,128.833 240.5,131.5C 240.082,132.222 239.416,132.722 238.5,133C 233.167,133.667 227.833,133.667 222.5,133C 219.592,130.93 218.926,128.43 220.5,125.5C 221.833,124.833 222.833,123.833 223.5,122.5C 229.299,120.946 234.966,121.28 240.5,123.5 Z"/></g>
<g><path style="opacity:0.024" fill="#47474b" d="M 183.5,123.5 C 185.898,123.259 187.898,123.926 189.5,125.5C 187.214,125.405 185.214,124.738 183.5,123.5 Z"/></g>
<g><path style="opacity:0.816" fill="#838488" d="M 152.5,123.5 C 150.898,125.074 148.898,125.741 146.5,125.5C 148.102,123.926 150.102,123.259 152.5,123.5 Z"/></g>
<g><path style="opacity:0.604" fill="#66686c" d="M 223.5,122.5 C 222.833,123.833 221.833,124.833 220.5,125.5C 220.5,123.5 221.5,122.5 223.5,122.5 Z"/></g>
<g><path style="opacity:0.773" fill="#6f7172" d="M 94.5,123.5 C 93.612,126.054 93.2786,128.721 93.5,131.5C 92.8442,130.378 92.5108,129.045 92.5,127.5C 92.5854,125.667 93.2521,124.334 94.5,123.5 Z"/></g>
<g><path style="opacity:0.929" fill="#949698" d="M 114.5,123.5 C 117.167,126.167 117.167,128.833 114.5,131.5C 114.5,128.833 114.5,126.167 114.5,123.5 Z"/></g>
<g><path style="opacity:0.71" fill="#5e6061" d="M 240.5,123.5 C 242.972,126.214 242.972,128.881 240.5,131.5C 240.5,128.833 240.5,126.167 240.5,123.5 Z"/></g>
<g><path style="opacity:0.659" fill="#636567" d="M 67.5,126.5 C 70.0961,127.265 72.7628,127.599 75.5,127.5C 72.6622,129.799 69.9955,129.466 67.5,126.5 Z"/></g>
<g><path style="opacity:0.227" fill="#434446" d="M 192.5,126.5 C 194.027,126.427 195.027,127.094 195.5,128.5C 193.973,128.573 192.973,127.906 192.5,126.5 Z"/></g>
<g><path style="opacity:0.576" fill="#5d5e60" d="M 134.5,132.5 C 133.421,134.543 131.754,135.876 129.5,136.5C 130.539,134.469 132.205,133.136 134.5,132.5 Z"/></g>
<g><path style="opacity:0.816" fill="#78777b" d="M 177.5,133.5 C 180.716,133.345 183.383,134.345 185.5,136.5C 182.603,135.871 179.936,134.871 177.5,133.5 Z"/></g>
<g><path style="opacity:0.992" fill="#88888a" d="M 200.5,131.5 C 202.461,132.46 204.127,133.793 205.5,135.5C 202.937,135.269 201.27,133.935 200.5,131.5 Z"/></g>
<g><path style="opacity:0.965" fill="#808083" d="M 149.5,136.5 C 148.341,138.25 146.674,139.25 144.5,139.5C 145.344,137.241 147.011,136.241 149.5,136.5 Z"/></g>
<g><path style="opacity:0.38" fill="#5f6265" d="M 188.5,137.5 C 190.027,137.427 191.027,138.094 191.5,139.5C 189.973,139.573 188.973,138.906 188.5,137.5 Z"/></g>
<g><path style="opacity:0.71" fill="#6d6e6f" d="M 127.5,138.5 C 127.262,140.404 126.262,141.738 124.5,142.5C 124.738,140.596 125.738,139.262 127.5,138.5 Z"/></g>
<g><path style="opacity:1" fill="#e7e7e8" d="M 84.5,220.5 C 85.2653,223.096 85.5987,225.763 85.5,228.5C 83.4581,230.591 81.1248,230.924 78.5,229.5C 77.5977,227.659 76.2644,226.326 74.5,225.5C 74.4456,223.368 73.4456,222.035 71.5,221.5C 71.5,221.167 71.5,220.833 71.5,220.5C 70.15,217.428 68.8167,214.428 67.5,211.5C 66.8519,209.914 66.3519,208.247 66,206.5C 65.3333,185.5 65.3333,164.5 66,143.5C 69.1859,137.283 72.8525,136.95 77,142.5C 77.3333,163.833 77.6667,185.167 78,206.5C 79.3855,211.6 81.5521,216.267 84.5,220.5 Z"/></g>
<g><path style="opacity:0.999" fill="#e6e7e8" d="M 159.5,141.5 C 162.332,143.407 163.166,146.073 162,149.5C 155.249,152.287 149.749,156.62 145.5,162.5C 144.094,162.973 143.427,163.973 143.5,165.5C 143.598,167.553 142.931,169.22 141.5,170.5C 138.763,170.599 136.096,170.265 133.5,169.5C 133.5,166.833 133.5,164.167 133.5,161.5C 133.992,159.181 134.992,157.181 136.5,155.5C 138.262,154.738 139.262,153.404 139.5,151.5C 141.5,150.167 143.167,148.5 144.5,146.5C 146.027,146.573 147.027,145.906 147.5,144.5C 147.842,143.662 148.508,143.328 149.5,143.5C 152.684,142.357 156.017,141.691 159.5,141.5 Z"/></g>
<g><path style="opacity:0.969" fill="#8e8e90" d="M 159.5,141.5 C 156.017,141.691 152.684,142.357 149.5,143.5C 150.058,142.21 151.058,141.377 152.5,141C 155.039,140.204 157.372,140.371 159.5,141.5 Z"/></g>
<g><path style="opacity:0.612" fill="#7b7c7e" d="M 193.5,140.5 C 195.749,141.08 197.415,142.413 198.5,144.5C 196.251,143.92 194.585,142.587 193.5,140.5 Z"/></g>
<g><path style="opacity:0.525" fill="#535357" d="M 147.5,144.5 C 147.027,145.906 146.027,146.573 144.5,146.5C 144.973,145.094 145.973,144.427 147.5,144.5 Z"/></g>
<g><path style="opacity:0.275" fill="#4c4c4f" d="M 214.5,146.5 C 215.906,146.973 216.573,147.973 216.5,149.5C 215.094,149.027 214.427,148.027 214.5,146.5 Z"/></g>
<g><path style="opacity:0.99" fill="#a0a2a3" d="M 198.5,144.5 C 199.583,144.539 200.583,144.873 201.5,145.5C 202.148,147.149 203.148,148.482 204.5,149.5C 205.452,151.045 205.785,152.712 205.5,154.5C 203.199,151.19 200.866,147.857 198.5,144.5 Z"/></g>
<g><path style="opacity:0.004" fill="#363638" d="M 133.5,149.5 C 133.5,150.833 132.833,151.5 131.5,151.5C 131.833,150.5 132.5,149.833 133.5,149.5 Z"/></g>
<g><path style="opacity:0.278" fill="#363839" d="M 144.5,146.5 C 143.167,148.5 141.5,150.167 139.5,151.5C 140.167,148.833 141.833,147.167 144.5,146.5 Z"/></g>
<g><path style="opacity:0.957" fill="#909196" d="M 120.5,148.5 C 120.408,150.848 119.408,152.514 117.5,153.5C 117.75,151.326 118.75,149.659 120.5,148.5 Z"/></g>
<g><path style="opacity:0.765" fill="#67676c" d="M 139.5,151.5 C 139.262,153.404 138.262,154.738 136.5,155.5C 136.738,153.596 137.738,152.262 139.5,151.5 Z"/></g>
<g><path style="opacity:0.165" fill="#33373a" d="M 131.5,152.5 C 131.25,154.674 130.25,156.341 128.5,157.5C 128.75,155.326 129.75,153.659 131.5,152.5 Z"/></g>
<g><path style="opacity:0.796" fill="#7e7f82" d="M 116.5,156.5 C 116.59,159.152 115.924,161.485 114.5,163.5C 114.171,160.772 114.837,158.438 116.5,156.5 Z"/></g>
<g><path style="opacity:0.667" fill="#858589" d="M 218.5,154.5 C 220.074,156.102 220.741,158.102 220.5,160.5C 218.926,158.898 218.259,156.898 218.5,154.5 Z"/></g>
<g><path style="opacity:0.318" fill="#475053" d="M 128.5,157.5 C 128.072,160.785 127.072,163.785 125.5,166.5C 125.528,163.084 126.528,160.084 128.5,157.5 Z"/></g>
<g><path style="opacity:0.369" fill="#56575f" d="M 207.5,157.5 C 208.931,158.78 209.598,160.447 209.5,162.5C 208.069,161.22 207.402,159.553 207.5,157.5 Z"/></g>
<g><path style="opacity:0.622" fill="#6f6f73" d="M 268.5,125.5 C 269.302,126.952 269.802,128.618 270,130.5C 270.667,146.833 270.667,163.167 270,179.5C 269.581,183.392 268.748,187.058 267.5,190.5C 268.419,168.851 268.753,147.184 268.5,125.5 Z"/></g>
<g><path style="opacity:0.58" fill="#4d5154" d="M 133.5,161.5 C 133.5,164.167 133.5,166.833 133.5,169.5C 131.028,166.881 131.028,164.214 133.5,161.5 Z"/></g>
<g><path style="opacity:0.29" fill="#4a4b4e" d="M 145.5,162.5 C 145.573,164.027 144.906,165.027 143.5,165.5C 143.427,163.973 144.094,162.973 145.5,162.5 Z"/></g>
<g><path style="opacity:0.62" fill="#5d6163" d="M 133.5,169.5 C 136.096,170.265 138.763,170.599 141.5,170.5C 138.701,172.818 136.034,172.485 133.5,169.5 Z"/></g>
<g><path style="opacity:0.008" fill="#2a2b2e" d="M 199.5,180.5 C 201.5,180.5 202.5,181.5 202.5,183.5C 201.167,182.833 200.167,181.833 199.5,180.5 Z"/></g>
<g><path style="opacity:0.999" fill="#e3e3e4" d="M 199.5,180.5 C 200.167,181.833 201.167,182.833 202.5,183.5C 203.403,187.889 202.403,191.889 199.5,195.5C 198.094,195.973 197.427,196.973 197.5,198.5C 197.167,199.5 196.5,200.167 195.5,200.5C 194.167,201.167 193.167,202.167 192.5,203.5C 188.226,208.313 182.893,210.479 176.5,210C 173.474,207.702 172.808,204.869 174.5,201.5C 176.848,201.408 178.514,200.408 179.5,198.5C 186.448,194.382 191.448,188.549 194.5,181C 196.134,180.506 197.801,180.34 199.5,180.5 Z"/></g>
<g><path style="opacity:0.157" fill="#252528" d="M 113.5,183.5 C 114.404,184.209 114.737,185.209 114.5,186.5C 112.618,185.779 112.285,184.779 113.5,183.5 Z"/></g>
<g><path style="opacity:0.302" fill="#303234" d="M 114.5,188.5 C 115.404,189.209 115.737,190.209 115.5,191.5C 114.733,190.828 114.066,189.995 113.5,189C 113.728,188.601 114.062,188.435 114.5,188.5 Z"/></g>
<g><path style="opacity:0.49" fill="#585c5f" d="M 220.5,191.5 C 220.771,193.38 220.104,194.713 218.5,195.5C 218.229,193.62 218.896,192.287 220.5,191.5 Z"/></g>
<g><path style="opacity:0.318" fill="#525456" d="M 128.5,193.5 C 129.906,193.973 130.573,194.973 130.5,196.5C 129.094,196.027 128.427,195.027 128.5,193.5 Z"/></g>
<g><path style="opacity:0.071" fill="#2d2d2f" d="M 199.5,195.5 C 199.573,197.027 198.906,198.027 197.5,198.5C 197.427,196.973 198.094,195.973 199.5,195.5 Z"/></g>
<g><path style="opacity:0.949" fill="#828386" d="M 206.5,194.5 C 206.408,196.848 205.408,198.514 203.5,199.5C 203.75,197.326 204.75,195.659 206.5,194.5 Z"/></g>
<g><path style="opacity:0.647" fill="#6e7072" d="M 266.5,194.5 C 266.59,197.152 265.924,199.485 264.5,201.5C 264.41,198.848 265.076,196.515 266.5,194.5 Z"/></g>
<g><path style="opacity:1" fill="#85878c" d="M 117.5,196.5 C 118.316,198.144 119.65,199.31 121.5,200C 120.748,200.671 120.414,201.504 120.5,202.5C 118.654,200.97 117.654,198.97 117.5,196.5 Z"/></g>
<g><path style="opacity:0.659" fill="#777879" d="M 179.5,198.5 C 178.514,200.408 176.848,201.408 174.5,201.5C 175.659,199.75 177.326,198.75 179.5,198.5 Z"/></g>
<g><path style="opacity:0.275" fill="#3d4648" d="M 217.5,198.5 C 217.34,200.153 216.674,201.486 215.5,202.5C 215.229,200.62 215.896,199.287 217.5,198.5 Z"/></g>
<g><path style="opacity:0.6" fill="#61646c" d="M 203.5,199.5 C 202.92,201.749 201.587,203.415 199.5,204.5C 200.08,202.251 201.413,200.585 203.5,199.5 Z"/></g>
<g><path style="opacity:0.004" fill="#2a2b2b" d="M 195.5,200.5 C 195.5,202.5 194.5,203.5 192.5,203.5C 193.167,202.167 194.167,201.167 195.5,200.5 Z"/></g>
<g><path style="opacity:0.18" fill="#424347" d="M 252.5,201.5 C 252.008,203.819 251.008,205.819 249.5,207.5C 249.461,204.911 250.461,202.911 252.5,201.5 Z"/></g>
<g><path style="opacity:0.051" fill="#2d2d2f" d="M 121.5,204.5 C 122.906,204.973 123.573,205.973 123.5,207.5C 122.094,207.027 121.427,206.027 121.5,204.5 Z"/></g>
<g><path style="opacity:0.369" fill="#46484a" d="M 198.5,205.5 C 197.833,206.833 196.833,207.833 195.5,208.5C 195.5,206.5 196.5,205.5 198.5,205.5 Z"/></g>
<g><path style="opacity:0.247" fill="#3a3a40" d="M 246.5,203.5 C 246.134,205.905 245.467,208.238 244.5,210.5C 244.253,211.713 243.586,212.38 242.5,212.5C 243.088,209.111 244.421,206.111 246.5,203.5 Z"/></g>
<g><path style="opacity:0.231" fill="#3e3f41" d="M 249.5,207.5 C 249.573,209.027 248.906,210.027 247.5,210.5C 247.427,208.973 248.094,207.973 249.5,207.5 Z"/></g>
<g><path style="opacity:0.031" fill="#333536" d="M 124.5,208.5 C 125.833,209.167 126.833,210.167 127.5,211.5C 125.5,211.5 124.5,210.5 124.5,208.5 Z"/></g>
<g><path style="opacity:0.247" fill="#29282e" d="M 247.5,210.5 C 247.573,212.027 246.906,213.027 245.5,213.5C 245.427,211.973 246.094,210.973 247.5,210.5 Z"/></g>
<g><path style="opacity:0.157" fill="#47474b" d="M 189.5,212.5 C 188.22,213.931 186.553,214.598 184.5,214.5C 185.78,213.069 187.447,212.402 189.5,212.5 Z"/></g>
<g><path style="opacity:0.533" fill="#5d5e63" d="M 128.5,213.5 C 130.027,213.427 131.027,214.094 131.5,215.5C 129.973,215.573 128.973,214.906 128.5,213.5 Z"/></g>
<g><path style="opacity:0.043" fill="#252426" d="M 242.5,213.5 C 243.5,213.5 244.5,213.5 245.5,213.5C 244.521,215.145 243.188,216.479 241.5,217.5C 240.579,215.969 240.912,214.635 242.5,213.5 Z"/></g>
<g><path style="opacity:0.925" fill="#8b8d8f" d="M 131.5,215.5 C 133.749,216.08 135.415,217.413 136.5,219.5C 134.251,218.92 132.585,217.587 131.5,215.5 Z"/></g>
<g><path style="opacity:0.378" fill="#7d7f82" d="M 153.5,215.5 C 162.091,217.673 170.757,218.007 179.5,216.5C 175.966,218.048 172.133,218.714 168,218.5C 165.167,218.333 162.333,218.167 159.5,218C 157.148,217.76 155.148,216.927 153.5,215.5 Z"/></g>
<g><path style="opacity:0.01" fill="#222224" d="M 67.5,211.5 C 68.8167,214.428 70.15,217.428 71.5,220.5C 68.6591,218.36 67.3257,215.36 67.5,211.5 Z"/></g>
<g><path style="opacity:0.49" fill="#625e64" d="M 136.5,219.5 C 138.404,219.738 139.738,220.738 140.5,222.5C 138.596,222.262 137.262,221.262 136.5,219.5 Z"/></g>
<g><path style="opacity:0.788" fill="#626468" d="M 71.5,221.5 C 73.4456,222.035 74.4456,223.368 74.5,225.5C 73.0256,224.564 72.0256,223.23 71.5,221.5 Z"/></g>
<g><path style="opacity:0.999" fill="#d6d7d8" d="M 106.5,221.5 C 110.967,221.133 115.3,221.633 119.5,223C 123.372,226.641 123.038,229.974 118.5,233C 113.778,233.777 109.111,233.61 104.5,232.5C 101.409,228.04 102.075,224.374 106.5,221.5 Z"/></g>
<g><path style="opacity:0.863" fill="#818189" d="M 84.5,220.5 C 87.8618,222.882 88.1951,225.549 85.5,228.5C 85.5987,225.763 85.2653,223.096 84.5,220.5 Z"/></g>
<g><path style="opacity:0.251" fill="#53545d" d="M 143.5,223.5 C 145.027,223.427 146.027,224.094 146.5,225.5C 144.973,225.573 143.973,224.906 143.5,223.5 Z"/></g>
<g><path style="opacity:0.369" fill="#515456" d="M 74.5,225.5 C 76.2644,226.326 77.5977,227.659 78.5,229.5C 76.2901,229.106 74.9568,227.773 74.5,225.5 Z"/></g>
<g><path style="opacity:0.48" fill="#57585b" d="M 153.5,227.5 C 161.471,228.323 169.471,228.656 177.5,228.5C 174.351,229.165 171.018,229.498 167.5,229.5C 162.563,229.7 157.896,229.033 153.5,227.5 Z"/></g>
<g><path style="opacity:0.133" fill="#5f5f5f" d="M 227.5,234.5 C 227.5,234.167 227.5,233.833 227.5,233.5C 228.167,233.5 228.5,233.167 228.5,232.5C 229.665,230.584 231.332,229.751 233.5,230C 231.298,231.388 229.298,232.888 227.5,234.5 Z"/></g>
<g><path style="opacity:0.514" fill="#646464" d="M 227.5,234.5 C 226.738,236.262 225.404,237.262 223.5,237.5C 224.262,235.738 225.596,234.738 227.5,234.5 Z"/></g>
<g><path style="opacity:0.627" fill="#6d6f74" d="M 223.5,237.5 C 223.027,238.906 222.027,239.573 220.5,239.5C 220.973,238.094 221.973,237.427 223.5,237.5 Z"/></g>
<g><path style="opacity:0.012" fill="#2a2c2d" d="M 237.5,240.5 C 237.5,241.833 236.833,242.5 235.5,242.5C 235.833,241.5 236.5,240.833 237.5,240.5 Z"/></g>
<g><path style="opacity:0.882" fill="#949598" d="M 130.5,244.5 C 129.504,244.414 128.671,244.748 128,245.5C 126.246,243.75 124.079,243.083 121.5,243.5C 121.962,242.12 122.962,241.453 124.5,241.5C 126.836,242.001 128.836,243.001 130.5,244.5 Z"/></g>
<g><path style="opacity:0.004" fill="#272727" d="M 232.5,244.5 C 232.5,245.833 231.833,246.5 230.5,246.5C 230.833,245.5 231.5,244.833 232.5,244.5 Z"/></g>
<g><path style="opacity:0.757" fill="#737577" d="M 120.5,244.5 C 120.5,246.5 120.5,248.5 120.5,250.5C 117.833,248.5 117.833,246.5 120.5,244.5 Z"/></g>
<g><path style="opacity:0.702" fill="#747478" d="M 203.5,248.5 C 201.485,249.924 199.152,250.59 196.5,250.5C 198.515,249.076 200.848,248.41 203.5,248.5 Z"/></g>
<g><path style="opacity:0.986" fill="#818282" d="M 226.5,249.5 C 225.035,250.737 223.368,251.737 221.5,252.5C 221.5,251.5 221.5,250.5 221.5,249.5C 223.167,249.5 224.833,249.5 226.5,249.5 Z"/></g>
<g><path style="opacity:0.231" fill="#4d4b54" d="M 147.5,251.5 C 150.428,251.565 153.095,252.232 155.5,253.5C 152.505,253.706 149.838,253.04 147.5,251.5 Z"/></g>
<g><path style="opacity:0.294" fill="#4e4e56" d="M 122.5,252.5 C 124.027,252.427 125.027,253.094 125.5,254.5C 123.973,254.573 122.973,253.906 122.5,252.5 Z"/></g>
<g><path style="opacity:0.851" fill="#8b8c90" d="M 188.5,252.5 C 188.082,253.222 187.416,253.722 186.5,254C 183.854,254.497 181.187,254.664 178.5,254.5C 181.627,253.419 184.96,252.753 188.5,252.5 Z"/></g>
<g><path style="opacity:0.133" fill="#3e3f43" d="M 129.5,256.5 C 131.027,256.427 132.027,257.094 132.5,258.5C 130.973,258.573 129.973,257.906 129.5,256.5 Z"/></g>
<g><path style="opacity:0.102" fill="#35363a" d="M 213.5,256.5 C 212.22,257.931 210.553,258.598 208.5,258.5C 209.78,257.069 211.447,256.402 213.5,256.5 Z"/></g>
<g><path style="opacity:0.957" fill="#888a8c" d="M 133.5,258.5 C 136.491,258.166 138.824,259.166 140.5,261.5C 137.759,261.293 135.426,260.293 133.5,258.5 Z"/></g>
<g><path style="opacity:0.929" fill="#828388" d="M 141.5,261.5 C 145.162,261.723 148.495,262.723 151.5,264.5C 147.838,264.277 144.505,263.277 141.5,261.5 Z"/></g>
</svg>
