<?xml version="1.0" encoding="UTF-8"?>
<!DOCTYPE svg PUBLIC "-//W3C//DTD SVG 1.1//EN" "http://www.w3.org/Graphics/SVG/1.1/DTD/svg11.dtd">
<svg xmlns="http://www.w3.org/2000/svg" version="1.1" width="315px" height="296px" style="shape-rendering:geometricPrecision; text-rendering:geometricPrecision; image-rendering:optimizeQuality; fill-rule:evenodd; clip-rule:evenodd" xmlns:xlink="http://www.w3.org/1999/xlink">
<g><path style="opacity:0.999" fill="#e6e6e6" d="M 141.5,33.5 C 146.167,34.8333 149.167,37.8333 150.5,42.5C 151.051,45.8067 151.384,49.1401 151.5,52.5C 143.453,54.6987 137.453,52.0321 133.5,44.5C 132.756,40.8815 132.423,37.2148 132.5,33.5C 135.5,33.5 138.5,33.5 141.5,33.5 Z"/></g>
<g><path style="opacity:0.999" fill="#e5e5e5" d="M 173.5,52.5 C 173.5,55.1667 173.5,57.8333 173.5,60.5C 167.801,62.8046 163.134,61.4713 159.5,56.5C 158.308,54.8869 157.308,53.2202 156.5,51.5C 154.057,35.5413 158.891,33.208 171,44.5C 172.707,46.9088 173.54,49.5755 173.5,52.5 Z"/></g>
<g><path style="opacity:0.086" fill="#585858" d="M 141.5,33.5 C 138.5,33.5 135.5,33.5 132.5,33.5C 132.423,37.2148 132.756,40.8815 133.5,44.5C 132.778,44.0825 132.278,43.4158 132,42.5C 131.502,39.1832 131.335,35.8499 131.5,32.5C 135.042,32.1872 138.375,32.5206 141.5,33.5 Z"/></g>
<g><path style="opacity:0.006" fill="#000000" d="M 153.5,45.5 C 154.525,45.8966 154.692,46.5632 154,47.5C 153.536,46.9056 153.369,46.2389 153.5,45.5 Z"/></g>
<g><path style="opacity:0.184" fill="#565656" d="M 162.5,47.5 C 163.492,47.3284 164.158,47.6618 164.5,48.5C 163.662,48.8417 163.328,49.5084 163.5,50.5C 162.596,49.791 162.263,48.791 162.5,47.5 Z"/></g>
<g><path style="opacity:0.424" fill="#777777" d="M 150.5,42.5 C 152.531,45.7076 152.865,49.041 151.5,52.5C 151.384,49.1401 151.051,45.8067 150.5,42.5 Z"/></g>
<g><path style="opacity:0.443" fill="#666666" d="M 164.5,48.5 C 166.377,49.6591 166.877,51.3258 166,53.5C 165.283,52.9558 164.783,52.2891 164.5,51.5C 165.833,51.1667 165.833,50.8333 164.5,50.5C 164.5,49.8333 164.5,49.1667 164.5,48.5 Z"/></g>
<g><path style="opacity:0.012" fill="#070707" d="M 176.5,57.5 C 175.371,55.3718 175.204,53.0385 176,50.5C 176.497,52.8098 176.663,55.1432 176.5,57.5 Z"/></g>
<g><path style="opacity:0.016" fill="#1c1c1c" d="M 156.5,51.5 C 157.308,53.2202 158.308,54.8869 159.5,56.5C 158.662,56.8417 158.328,57.5084 158.5,58.5C 157.508,58.6716 156.842,58.3382 156.5,57.5C 155.508,57.6716 154.842,57.3382 154.5,56.5C 155.557,55.794 155.224,55.4607 153.5,55.5C 152.342,54.0502 152.842,53.0502 155,52.5C 156.107,53.7119 156.607,53.3786 156.5,51.5 Z"/></g>
<g><path style="opacity:0.024" fill="#272727" d="M 173.5,52.5 C 174.21,54.8927 174.877,57.3927 175.5,60C 174.906,60.4643 174.239,60.631 173.5,60.5C 173.5,57.8333 173.5,55.1667 173.5,52.5 Z"/></g>
<g><path style="opacity:0.349" fill="#666666" d="M 193.5,52.5 C 194.906,52.9731 195.573,53.9731 195.5,55.5C 194.094,55.0269 193.427,54.0269 193.5,52.5 Z"/></g>
<g><path style="opacity:0.999" fill="#dbdbdb" d="M 153.5,55.5 C 153.5,56.1667 153.833,56.5 154.5,56.5C 154.842,57.3382 155.508,57.6716 156.5,57.5C 156.842,58.3382 157.508,58.6716 158.5,58.5C 157.918,66.8956 153.085,71.2289 144,71.5C 131.726,70.6796 130.226,66.1796 139.5,58C 143.836,54.9344 148.502,54.1011 153.5,55.5 Z"/></g>
<g><path style="opacity:0.009" fill="#222222" d="M 176.5,57.5 C 177.222,57.9175 177.722,58.5842 178,59.5C 178.464,58.9056 178.631,58.2389 178.5,57.5C 179.82,59.4632 181.154,61.4632 182.5,63.5C 180.883,62.962 179.216,62.6287 177.5,62.5C 176.699,60.9582 176.366,59.2915 176.5,57.5 Z"/></g>
<g><path style="opacity:0.216" fill="#383838" d="M 144.5,62.5 C 149.505,62.443 149.672,63.1097 145,64.5C 143.316,64.3166 143.15,63.6499 144.5,62.5 Z"/></g>
<g><path style="opacity:0.999" fill="#e2e2e2" d="M 193.5,52.5 C 193.427,54.0269 194.094,55.0269 195.5,55.5C 196.234,56.7079 196.567,58.0413 196.5,59.5C 196.198,62.0593 196.532,64.3926 197.5,66.5C 201.447,64.9422 205.614,64.2756 210,64.5C 213.418,64.5195 216.751,64.8528 220,65.5C 220.918,68.0631 220.418,70.2298 218.5,72C 212.843,72.4994 207.176,72.6661 201.5,72.5C 199.102,72.2594 197.102,72.9261 195.5,74.5C 194.4,75.5585 193.066,76.3918 191.5,77C 192.044,77.7172 192.711,78.2172 193.5,78.5C 193.259,80.8984 193.926,82.8984 195.5,84.5C 196.369,86.717 196.702,89.0504 196.5,91.5C 195.833,91.5 195.5,91.8333 195.5,92.5C 194.578,98.9309 190.911,103.098 184.5,105C 179.328,106.193 174.662,105.36 170.5,102.5C 170.027,101.094 169.027,100.427 167.5,100.5C 165.109,98.3852 163.776,95.7186 163.5,92.5C 163.5,90.1667 163.5,87.8333 163.5,85.5C 163.665,83.1732 164.331,81.0065 165.5,79C 162.749,78.0572 160.083,77.2239 157.5,76.5C 157.914,73.2569 158.914,70.2569 160.5,67.5C 161.833,66.8333 162.833,65.8333 163.5,64.5C 164.347,63.0337 165.68,62.2004 167.5,62C 170.888,61.3412 174.221,61.5078 177.5,62.5C 178.261,63.3909 179.261,64.0576 180.5,64.5C 181.782,65.9584 181.782,67.2918 180.5,68.5C 179.662,68.8417 179.328,69.5084 179.5,70.5C 178.833,70.5 178.5,70.8333 178.5,71.5C 179.876,72.7884 181.876,72.7884 184.5,71.5C 187.024,70.0731 189.69,68.9064 192.5,68C 188.258,68.2616 184.925,66.7616 182.5,63.5C 181.154,61.4632 179.82,59.4632 178.5,57.5C 174.807,47.0042 178.141,43.5042 188.5,47C 190.373,48.7038 192.04,50.5372 193.5,52.5 Z M 177.5,62.5 C 179.216,62.6287 180.883,62.962 182.5,63.5C 184.925,66.7616 188.258,68.2616 192.5,68C 189.69,68.9064 187.024,70.0731 184.5,71.5C 182.596,71.2624 181.262,70.2624 180.5,68.5C 181.782,67.2918 181.782,65.9584 180.5,64.5C 179.261,64.0576 178.261,63.3909 177.5,62.5 Z M 187.5,57.5 C 188.289,57.7828 188.956,58.2828 189.5,59C 188.184,59.5281 187.517,59.0281 187.5,57.5 Z M 187.5,57.5 C 185.915,56.9976 185.415,55.9976 186,54.5C 187.039,55.2438 187.539,56.2438 187.5,57.5 Z M 184.5,80.5 C 185.167,81.8333 186.167,82.8333 187.5,83.5C 188.403,86.3915 188.736,89.3915 188.5,92.5C 187.094,92.9731 186.427,93.9731 186.5,95.5C 185.833,95.8333 185.167,96.1667 184.5,96.5C 181.167,97.8333 177.833,97.8333 174.5,96.5C 168.642,90.1938 169.309,84.6938 176.5,80C 179.221,79.3985 181.887,79.5651 184.5,80.5 Z"/></g>
<g><path style="opacity:0.186" fill="#333333" d="M 196.5,59.5 C 197.982,61.736 198.315,64.0693 197.5,66.5C 196.532,64.3926 196.198,62.0593 196.5,59.5 Z"/></g>
<g><path style="opacity:0.545" fill="#636363" d="M 163.5,64.5 C 162.833,65.8333 161.833,66.8333 160.5,67.5C 160.5,65.5 161.5,64.5 163.5,64.5 Z"/></g>
<g><path style="opacity:0.31" fill="#4c4c4c" d="M 109.5,68.5 C 111.134,67.8389 112.967,67.5056 115,67.5C 117.866,67.2999 120.366,67.9666 122.5,69.5C 118.215,68.7051 113.881,68.3718 109.5,68.5 Z"/></g>
<g><path style="opacity:1" fill="#e0e0e0" d="M 108.5,68.5 C 108.833,68.5 109.167,68.5 109.5,68.5C 113.881,68.3718 118.215,68.7051 122.5,69.5C 130.597,73.3628 133.597,79.6961 131.5,88.5C 130.326,89.5137 129.66,90.847 129.5,92.5C 129.573,94.0269 128.906,95.0269 127.5,95.5C 126.167,96.1667 125.167,97.1667 124.5,98.5C 118.77,102.079 112.77,102.412 106.5,99.5C 106.027,98.0937 105.027,97.427 103.5,97.5C 97.3131,91.8408 95.9798,85.1742 99.5,77.5C 100.906,77.0269 101.573,76.0269 101.5,74.5C 102.167,72.5 103.5,71.1667 105.5,70.5C 107.027,70.573 108.027,69.9063 108.5,68.5 Z M 120.5,92.5 C 117.57,93.299 114.57,93.6323 111.5,93.5C 110.833,93.1667 110.167,92.8333 109.5,92.5C 108.833,91.1667 107.833,90.1667 106.5,89.5C 105.167,86.1667 105.167,82.8333 106.5,79.5C 110.536,75.3745 115.203,74.5412 120.5,77C 125.766,82.2094 125.766,87.3761 120.5,92.5 Z"/></g>
<g><path style="opacity:0.647" fill="#626262" d="M 108.5,68.5 C 108.027,69.9063 107.027,70.573 105.5,70.5C 105.973,69.0937 106.973,68.427 108.5,68.5 Z"/></g>
<g><path style="opacity:0.561" fill="#6e6e6e" d="M 160.5,67.5 C 158.914,70.2569 157.914,73.2569 157.5,76.5C 156.259,72.8889 157.259,69.8889 160.5,67.5 Z"/></g>
<g><path style="opacity:0.235" fill="#5c5c5c" d="M 167.5,69.5 C 168.601,68.4017 169.934,68.235 171.5,69C 170.956,69.7172 170.289,70.2172 169.5,70.5C 169.158,69.6618 168.492,69.3284 167.5,69.5 Z"/></g>
<g><path style="opacity:0.408" fill="#4f4f4f" d="M 180.5,68.5 C 181.262,70.2624 182.596,71.2624 184.5,71.5C 181.876,72.7884 179.876,72.7884 178.5,71.5C 179.167,71.5 179.5,71.1667 179.5,70.5C 179.328,69.5084 179.662,68.8417 180.5,68.5 Z"/></g>
<g><path style="opacity:0.157" fill="#585858" d="M 201.5,72.5 C 199.786,73.7384 197.786,74.405 195.5,74.5C 197.102,72.9261 199.102,72.2594 201.5,72.5 Z"/></g>
<g><path style="opacity:0.349" fill="#636363" d="M 101.5,74.5 C 101.573,76.0269 100.906,77.0269 99.5,77.5C 99.427,75.9731 100.094,74.9731 101.5,74.5 Z"/></g>
<g><path style="opacity:0.557" fill="#666666" d="M 184.5,80.5 C 186.5,80.5 187.5,81.5 187.5,83.5C 186.167,82.8333 185.167,81.8333 184.5,80.5 Z"/></g>
<g><path style="opacity:0.886" fill="#868686" d="M 193.5,78.5 C 195.074,80.1016 195.741,82.1016 195.5,84.5C 193.926,82.8984 193.259,80.8984 193.5,78.5 Z"/></g>
<g><path style="opacity:1" fill="#e6e6e6" d="M 161.5,84.5 C 161.5,85.1667 161.5,85.8333 161.5,86.5C 161.5,87.1667 161.5,87.8333 161.5,88.5C 160.326,89.5137 159.66,90.847 159.5,92.5C 159.106,96.3472 158.106,100.014 156.5,103.5C 154.926,105.102 154.259,107.102 154.5,109.5C 153.296,115.319 151.629,120.985 149.5,126.5C 148.766,140.685 148.099,155.018 147.5,169.5C 146.598,171.341 145.264,172.674 143.5,173.5C 140.5,173.5 137.5,173.5 134.5,173.5C 134.334,183.839 134.5,194.172 135,204.5C 136.188,203.437 136.688,202.103 136.5,200.5C 136.328,199.508 136.662,198.842 137.5,198.5C 138.674,197.486 139.34,196.153 139.5,194.5C 141.408,193.514 142.408,191.848 142.5,189.5C 142.5,189.167 142.5,188.833 142.5,188.5C 143.906,188.027 144.573,187.027 144.5,185.5C 149.434,174.585 154.767,163.919 160.5,153.5C 161.906,153.027 162.573,152.027 162.5,150.5C 163.609,150.557 164.609,150.89 165.5,151.5C 167.833,153.167 169.833,155.167 171.5,157.5C 171.5,158.5 171.5,159.5 171.5,160.5C 170.706,163.802 170.04,167.135 169.5,170.5C 169.167,170.5 168.833,170.5 168.5,170.5C 167.596,171.209 167.263,172.209 167.5,173.5C 166.769,178.357 165.436,183.024 163.5,187.5C 162.076,189.515 161.41,191.848 161.5,194.5C 160.296,200.319 158.629,205.985 156.5,211.5C 154.926,213.102 154.259,215.102 154.5,217.5C 171.167,217.5 187.833,217.5 204.5,217.5C 204.784,215.585 204.451,213.919 203.5,212.5C 202.262,210.786 201.595,208.786 201.5,206.5C 201.741,204.102 201.074,202.102 199.5,200.5C 197.563,196.02 196.229,191.353 195.5,186.5C 195.59,183.848 194.924,181.515 193.5,179.5C 192.542,177.698 191.875,175.698 191.5,173.5C 191.672,172.508 191.338,171.842 190.5,171.5C 190.5,171.167 190.5,170.833 190.5,170.5C 189.956,166.9 188.956,163.4 187.5,160C 188.985,157.683 190.652,155.516 192.5,153.5C 193.833,152.5 195.167,151.5 196.5,150.5C 196.427,152.027 197.094,153.027 198.5,153.5C 208,170.832 216.667,188.499 224.5,206.5C 224.427,208.027 225.094,209.027 226.5,209.5C 227.537,210.93 228.204,212.597 228.5,214.5C 228.427,216.027 229.094,217.027 230.5,217.5C 232.191,220.664 231.191,222.664 227.5,223.5C 217.833,223.5 208.167,223.5 198.5,223.5C 198.5,227.167 198.5,230.833 198.5,234.5C 198.5,238.175 196.833,240.841 193.5,242.5C 189.833,242.5 186.167,242.5 182.5,242.5C 181.779,240.618 180.779,240.285 179.5,241.5C 173.555,245.843 168.221,245.176 163.5,239.5C 163.048,234.002 162.381,228.669 161.5,223.5C 152.5,223.5 143.5,223.5 134.5,223.5C 134.5,227.5 134.5,231.5 134.5,235.5C 133.452,239.719 130.785,242.553 126.5,244C 123.259,244.793 120.259,244.293 117.5,242.5C 116.332,239.531 114.999,239.198 113.5,241.5C 106.203,246.171 100.203,244.838 95.5,237.5C 95.5,216.167 95.5,194.833 95.5,173.5C 92.5,173.5 89.5,173.5 86.5,173.5C 86.0269,172.094 85.0269,171.427 83.5,171.5C 82.0735,169.852 81.2401,167.852 81,165.5C 80.3333,149.167 80.3333,132.833 81,116.5C 81.3519,114.753 81.8519,113.086 82.5,111.5C 83.9063,111.027 84.573,110.027 84.5,108.5C 86.4272,104.908 89.4272,102.908 93.5,102.5C 96.2658,101.768 98.9325,101.768 101.5,102.5C 103.008,104.181 104.008,106.181 104.5,108.5C 104.427,110.027 105.094,111.027 106.5,111.5C 107.167,112.833 107.833,114.167 108.5,115.5C 109.046,117.303 109.88,118.97 111,120.5C 111.483,119.552 111.649,118.552 111.5,117.5C 111.5,117.167 111.5,116.833 111.5,116.5C 112.078,113.612 112.078,110.612 111.5,107.5C 113.208,105.488 115.208,105.154 117.5,106.5C 118.15,108.435 118.483,110.435 118.5,112.5C 118.167,113.167 117.833,113.833 117.5,114.5C 117.557,115.609 117.89,116.609 118.5,117.5C 118.786,119.933 119.452,119.933 120.5,117.5C 121.167,117.5 121.5,117.167 121.5,116.5C 123.308,111.55 125.642,106.883 128.5,102.5C 131.024,102.043 133.691,102.043 136.5,102.5C 140.984,102.989 143.984,105.323 145.5,109.5C 145.783,110.289 146.283,110.956 147,111.5C 148.549,108.688 149.382,105.688 149.5,102.5C 150.738,96.0161 152.571,89.6828 155,83.5C 157.696,80.7927 159.862,81.126 161.5,84.5 Z M 97.5,110.5 C 97.7329,112.062 98.3995,113.395 99.5,114.5C 99.427,116.027 100.094,117.027 101.5,117.5C 102.827,120.471 104.16,123.471 105.5,126.5C 105.932,127.71 106.599,128.71 107.5,129.5C 109.175,132.877 110.842,136.211 112.5,139.5C 114.167,142.167 115.833,142.167 117.5,139.5C 119.55,136.347 121.216,133.014 122.5,129.5C 123.737,128.035 124.737,126.368 125.5,124.5C 127.833,119.833 130.167,115.167 132.5,110.5C 133.391,109.89 134.391,109.557 135.5,109.5C 138.2,111.046 140.033,113.379 141,116.5C 141.667,132.833 141.667,149.167 141,165.5C 139.333,168.167 137.667,168.167 136,165.5C 135.831,152.327 135.331,139.327 134.5,126.5C 132.833,123.833 131.167,123.833 129.5,126.5C 128.667,161.664 128.167,196.998 128,232.5C 126.974,235.693 124.808,237.026 121.5,236.5C 120.199,235.118 119.366,233.452 119,231.5C 118.833,227.667 118.667,223.833 118.5,220C 119.286,206.175 119.619,192.509 119.5,179C 119.101,177.019 118.101,175.519 116.5,174.5C 114.434,173.752 112.6,174.419 111,176.5C 110.821,196.24 110.321,215.906 109.5,235.5C 107.451,236.641 105.451,236.641 103.5,235.5C 102.833,235.5 102.5,235.167 102.5,234.5C 101.362,213.918 101.362,193.085 102.5,172C 101.842,159.735 101.176,147.569 100.5,135.5C 98.7768,134.193 96.9435,134.193 95,135.5C 93.8625,145.796 93.1958,156.13 93,166.5C 91.4126,167.727 90.0793,167.394 89,165.5C 88.3333,148.5 88.3333,131.5 89,114.5C 90.3756,113.295 91.5423,111.962 92.5,110.5C 94.36,109.929 96.0267,109.929 97.5,110.5 Z M 118.5,117.5 C 119.167,117.5 119.833,117.5 120.5,117.5C 119.452,119.933 118.786,119.933 118.5,117.5 Z M 173.5,159.5 C 173.5,160.167 173.5,160.833 173.5,161.5C 172.25,164.006 171.584,166.673 171.5,169.5C 170.833,169.833 170.167,170.167 169.5,170.5C 170.04,167.135 170.706,163.802 171.5,160.5C 172.167,160.167 172.833,159.833 173.5,159.5 Z M 180.5,168.5 C 180.5,168.833 180.5,169.167 180.5,169.5C 180.158,170.338 179.492,170.672 178.5,170.5C 178.5,170.167 178.5,169.833 178.5,169.5C 179.167,169.167 179.833,168.833 180.5,168.5 Z M 189.5,170.5 C 189.833,170.5 190.167,170.5 190.5,170.5C 190.5,170.833 190.5,171.167 190.5,171.5C 190.158,172.338 189.492,172.672 188.5,172.5C 188.833,171.833 189.167,171.167 189.5,170.5 Z M 168.5,170.5 C 168.833,170.5 169.167,170.5 169.5,170.5C 170.463,171.363 170.463,172.03 169.5,172.5C 168.702,172.043 168.369,171.376 168.5,170.5 Z M 177.5,171.5 C 178.315,172.429 179.148,173.429 180,174.5C 180.232,173.263 180.732,172.263 181.5,171.5C 181.833,173.5 182.167,175.5 182.5,177.5C 183.791,177.737 184.791,177.404 185.5,176.5C 186.167,175.5 186.833,174.5 187.5,173.5C 188.833,174.833 190.167,174.833 191.5,173.5C 191.875,175.698 192.542,177.698 193.5,179.5C 193.41,182.152 194.076,184.485 195.5,186.5C 196.229,191.353 197.563,196.02 199.5,200.5C 199.595,202.786 200.262,204.786 201.5,206.5C 201.595,208.786 202.262,210.786 203.5,212.5C 203.082,213.222 202.416,213.722 201.5,214C 202.308,214.308 202.975,214.808 203.5,215.5C 187.51,216.666 171.51,216.833 155.5,216C 156.38,214.644 156.714,213.144 156.5,211.5C 158.629,205.985 160.296,200.319 161.5,194.5C 162.924,192.485 163.59,190.152 163.5,187.5C 165.436,183.024 166.769,178.357 167.5,173.5C 169.858,173.253 171.858,173.919 173.5,175.5C 173.811,176.478 174.478,177.145 175.5,177.5C 176.95,176.15 177.617,174.484 177.5,172.5C 177.5,172.167 177.5,171.833 177.5,171.5 Z M 159.5,173.5 C 159.371,175.216 159.038,176.883 158.5,178.5C 157.733,179.172 157.066,180.005 156.5,181C 156.728,181.399 157.062,181.565 157.5,181.5C 157.5,181.833 157.5,182.167 157.5,182.5C 156.833,182.833 156.167,183.167 155.5,183.5C 155.5,182.833 155.167,182.5 154.5,182.5C 155.615,179.113 157.282,176.113 159.5,173.5 Z M 200.5,175.5 C 201.167,176.167 201.833,176.833 202.5,177.5C 202.158,178.338 201.492,178.672 200.5,178.5C 200.5,177.5 200.5,176.5 200.5,175.5 Z M 154.5,182.5 C 155.167,182.5 155.5,182.833 155.5,183.5C 156.11,184.391 156.443,185.391 156.5,186.5C 154.517,189.799 153.517,193.466 153.5,197.5C 151.26,201.098 149.926,205.098 149.5,209.5C 148.434,211.701 147.767,214.035 147.5,216.5C 144.391,216.736 141.391,216.403 138.5,215.5C 138.5,214.5 138.5,213.5 138.5,212.5C 139.401,211.71 140.068,210.71 140.5,209.5C 141.674,208.486 142.34,207.153 142.5,205.5C 144.544,202.377 146.211,199.044 147.5,195.5C 148.674,194.486 149.34,193.153 149.5,191.5C 149.5,191.167 149.5,190.833 149.5,190.5C 150.89,189.101 151.89,187.434 152.5,185.5C 152.932,184.29 153.599,183.29 154.5,182.5 Z M 202.5,184.5 C 203.167,184.5 203.833,184.5 204.5,184.5C 204.167,185.5 203.5,186.167 202.5,186.5C 202.5,185.833 202.5,185.167 202.5,184.5 Z M 208.5,191.5 C 211.738,196.974 214.738,202.64 217.5,208.5C 217.427,210.027 218.094,211.027 219.5,211.5C 219.511,213.017 220.177,214.184 221.5,215C 218.381,216.405 215.048,216.905 211.5,216.5C 209.96,208.673 207.96,201.006 205.5,193.5C 206.5,192.833 207.5,192.167 208.5,191.5 Z M 176.5,228.5 C 175.631,230.717 175.298,233.05 175.5,235.5C 173.5,236.833 171.5,236.833 169.5,235.5C 169.5,231.833 169.5,228.167 169.5,224.5C 171.5,224.5 173.5,224.5 175.5,224.5C 175.232,226.099 175.566,227.432 176.5,228.5 Z M 191.5,224.5 C 191.769,228.026 191.436,231.693 190.5,235.5C 188.5,236.833 186.5,236.833 184.5,235.5C 184.5,235.167 184.5,234.833 184.5,234.5C 184.5,231.167 184.5,227.833 184.5,224.5C 186.833,224.5 189.167,224.5 191.5,224.5 Z"/></g>
<g><path style="opacity:0.999" fill="#e7e7e7" d="M 204.5,84.5 C 204.259,86.8984 204.926,88.8984 206.5,90.5C 208.298,95.3591 209.632,100.359 210.5,105.5C 210.528,108.916 211.528,111.916 213.5,114.5C 213.5,114.833 213.5,115.167 213.5,115.5C 213.723,119.162 214.723,122.495 216.5,125.5C 217.234,126.708 217.567,128.041 217.5,129.5C 217.528,132.916 218.528,135.916 220.5,138.5C 222.344,141.537 222.344,144.37 220.5,147C 218.934,147.765 217.601,147.598 216.5,146.5C 215.486,144.426 214.486,142.426 213.5,140.5C 212.89,139.609 212.557,138.609 212.5,137.5C 212.706,134.505 212.04,131.838 210.5,129.5C 210.672,128.508 210.338,127.842 209.5,127.5C 209.5,127.167 209.5,126.833 209.5,126.5C 209.672,125.508 209.338,124.842 208.5,124.5C 205.964,116.224 203.63,107.891 201.5,99.5C 201.59,96.8478 200.924,94.5145 199.5,92.5C 199.737,91.209 199.404,90.209 198.5,89.5C 198.298,87.0504 198.631,84.717 199.5,82.5C 201.824,81.1674 203.491,81.8341 204.5,84.5 Z"/></g>
<g><path style="opacity:0.369" fill="#656565" d="M 106.5,79.5 C 105.167,82.8333 105.167,86.1667 106.5,89.5C 103.833,86.1667 103.833,82.8333 106.5,79.5 Z"/></g>
<g><path style="opacity:0.529" fill="#686868" d="M 199.5,82.5 C 198.631,84.717 198.298,87.0504 198.5,89.5C 197.848,88.5514 197.514,87.3847 197.5,86C 197.608,84.3189 198.275,83.1522 199.5,82.5 Z"/></g>
<g><path style="opacity:0.655" fill="#6c6c6c" d="M 204.5,84.5 C 205.738,86.2143 206.405,88.2143 206.5,90.5C 204.926,88.8984 204.259,86.8984 204.5,84.5 Z"/></g>
<g><path style="opacity:0.007" fill="#282828" d="M 161.5,84.5 C 162.167,84.8333 162.833,85.1667 163.5,85.5C 163.5,87.8333 163.5,90.1667 163.5,92.5C 162.298,93.4054 160.964,93.4054 159.5,92.5C 159.66,90.847 160.326,89.5137 161.5,88.5C 162.633,90.0214 162.633,89.3547 161.5,86.5C 161.5,85.8333 161.5,85.1667 161.5,84.5 Z"/></g>
<g><path style="opacity:0.671" fill="#636363" d="M 106.5,89.5 C 107.833,90.1667 108.833,91.1667 109.5,92.5C 107.5,92.5 106.5,91.5 106.5,89.5 Z"/></g>
<g><path style="opacity:0.008" fill="#1b1b1b" d="M 198.5,89.5 C 199.404,90.209 199.737,91.209 199.5,92.5C 198.167,93.8333 196.833,93.8333 195.5,92.5C 195.5,91.8333 195.833,91.5 196.5,91.5C 197.5,91.1667 198.167,90.5 198.5,89.5 Z"/></g>
<g><path style="opacity:0.306" fill="#5c5c5c" d="M 131.5,88.5 C 131.771,90.3797 131.104,91.713 129.5,92.5C 129.66,90.847 130.326,89.5137 131.5,88.5 Z"/></g>
<g><path style="opacity:0.655" fill="#5f5f5f" d="M 120.5,92.5 C 120.389,93.1174 120.056,93.6174 119.5,94C 116.633,94.8007 113.966,94.6341 111.5,93.5C 114.57,93.6323 117.57,93.299 120.5,92.5 Z"/></g>
<g><path style="opacity:0.435" fill="#6c6c6c" d="M 188.5,92.5 C 188.573,94.0269 187.906,95.0269 186.5,95.5C 186.427,93.9731 187.094,92.9731 188.5,92.5 Z"/></g>
<g><path style="opacity:0.057" fill="#414141" d="M 199.5,92.5 C 200.924,94.5145 201.59,96.8478 201.5,99.5C 200.076,97.4855 199.41,95.1522 199.5,92.5 Z"/></g>
<g><path style="opacity:0.02" fill="#3a3a3a" d="M 127.5,95.5 C 127.5,97.5 126.5,98.5 124.5,98.5C 125.167,97.1667 126.167,96.1667 127.5,95.5 Z"/></g>
<g><path style="opacity:0.257" fill="#646464" d="M 174.5,96.5 C 177.833,97.8333 181.167,97.8333 184.5,96.5C 184.389,97.1174 184.056,97.6174 183.5,98C 180.833,98.6667 178.167,98.6667 175.5,98C 174.944,97.6174 174.611,97.1174 174.5,96.5 Z"/></g>
<g><path style="opacity:0.133" fill="#2e2e2e" d="M 103.5,97.5 C 105.027,97.427 106.027,98.0937 106.5,99.5C 104.973,99.573 103.973,98.9063 103.5,97.5 Z"/></g>
<g><path style="opacity:0.475" fill="#535353" d="M 167.5,100.5 C 169.027,100.427 170.027,101.094 170.5,102.5C 168.973,102.573 167.973,101.906 167.5,100.5 Z"/></g>
<g><path style="opacity:0.698" fill="#6b6b6b" d="M 101.5,102.5 C 98.9325,101.768 96.2658,101.768 93.5,102.5C 95.0552,101.367 96.8886,100.701 99,100.5C 100.376,100.684 101.209,101.351 101.5,102.5 Z"/></g>
<g><path style="opacity:0.714" fill="#6f6f6f" d="M 136.5,102.5 C 133.691,102.043 131.024,102.043 128.5,102.5C 128.791,101.351 129.624,100.684 131,100.5C 133.111,100.701 134.945,101.367 136.5,102.5 Z"/></g>
<g><path style="opacity:0.537" fill="#727272" d="M 156.5,103.5 C 156.405,105.786 155.738,107.786 154.5,109.5C 154.259,107.102 154.926,105.102 156.5,103.5 Z"/></g>
<g><path style="opacity:0.247" fill="#4b4b4b" d="M 97.5,110.5 C 96.0267,109.929 94.36,109.929 92.5,110.5C 94.4172,108.149 96.0839,108.149 97.5,110.5 Z"/></g>
<g><path style="opacity:0.388" fill="#6d6d6d" d="M 117.5,106.5 C 118.947,107.134 119.613,108.301 119.5,110C 119.472,111.07 119.139,111.903 118.5,112.5C 118.483,110.435 118.15,108.435 117.5,106.5 Z"/></g>
<g><path style="opacity:0.267" fill="#5b5b5b" d="M 135.5,109.5 C 134.391,109.557 133.391,109.89 132.5,110.5C 133.053,108.448 134.053,108.115 135.5,109.5 Z"/></g>
<g><path style="opacity:0.78" fill="#8b8b8b" d="M 149.5,102.5 C 149.382,105.688 148.549,108.688 147,111.5C 146.283,110.956 145.783,110.289 145.5,109.5C 147.1,107.297 148.433,104.964 149.5,102.5 Z"/></g>
<g><path style="opacity:0.855" fill="#878787" d="M 210.5,105.5 C 212.072,108.215 213.072,111.215 213.5,114.5C 211.528,111.916 210.528,108.916 210.5,105.5 Z"/></g>
<g><path style="opacity:0.322" fill="#5f5f5f" d="M 84.5,108.5 C 84.573,110.027 83.9063,111.027 82.5,111.5C 82.427,109.973 83.0937,108.973 84.5,108.5 Z"/></g>
<g><path style="opacity:0.169" fill="#4f4f4f" d="M 104.5,108.5 C 105.906,108.973 106.573,109.973 106.5,111.5C 105.094,111.027 104.427,110.027 104.5,108.5 Z"/></g>
<g><path style="opacity:0.016" fill="#1f1f1f" d="M 111.5,107.5 C 112.078,110.612 112.078,113.612 111.5,116.5C 110.167,116.833 110.167,117.167 111.5,117.5C 111.649,118.552 111.483,119.552 111,120.5C 109.88,118.97 109.046,117.303 108.5,115.5C 109.156,113.01 110.156,110.343 111.5,107.5 Z"/></g>
<g><path style="opacity:0.008" fill="#161616" d="M 117.5,114.5 C 118.833,115.167 120.167,115.833 121.5,116.5C 121.5,117.167 121.167,117.5 120.5,117.5C 119.833,117.5 119.167,117.5 118.5,117.5C 117.89,116.609 117.557,115.609 117.5,114.5 Z"/></g>
<g><path style="opacity:0.204" fill="#444444" d="M 99.5,114.5 C 100.906,114.973 101.573,115.973 101.5,117.5C 100.094,117.027 99.427,116.027 99.5,114.5 Z"/></g>
<g><path style="opacity:0.999" fill="#e5e5e5" d="M 199.5,117.5 C 200.508,119.544 201.508,121.544 202.5,123.5C 203.338,123.842 203.672,124.508 203.5,125.5C 203.528,128.916 204.528,131.916 206.5,134.5C 209.753,139.39 209.086,143.556 204.5,147C 200.833,147.333 197.167,147.667 193.5,148C 192.934,148.995 192.267,149.828 191.5,150.5C 190.5,150.833 189.833,151.5 189.5,152.5C 189.5,153.167 189.167,153.5 188.5,153.5C 187.167,154.167 186.167,155.167 185.5,156.5C 185.5,156.833 185.5,157.167 185.5,157.5C 184.833,157.5 184.5,157.833 184.5,158.5C 185.065,162.537 186.399,166.203 188.5,169.5C 188.5,170.167 188.833,170.5 189.5,170.5C 189.167,171.167 188.833,171.833 188.5,172.5C 187.833,172.5 187.5,172.833 187.5,173.5C 186.833,174.5 186.167,175.5 185.5,176.5C 183.818,175.173 182.485,173.506 181.5,171.5C 181.672,170.508 181.338,169.842 180.5,169.5C 180.5,169.167 180.5,168.833 180.5,168.5C 179.699,166.207 179.032,166.54 178.5,169.5C 178.5,169.833 178.5,170.167 178.5,170.5C 177.833,170.5 177.5,170.833 177.5,171.5C 177.5,171.833 177.5,172.167 177.5,172.5C 176.764,174.229 175.43,175.229 173.5,175.5C 172.833,173.5 172.167,171.5 171.5,169.5C 171.584,166.673 172.25,164.006 173.5,161.5C 175.519,160.462 175.853,159.128 174.5,157.5C 171.167,154.833 168.167,151.833 165.5,148.5C 162.359,147.679 159.025,147.179 155.5,147C 154.058,146.623 153.058,145.79 152.5,144.5C 151.659,142.621 151.325,140.621 151.5,138.5C 152.338,138.158 152.672,137.492 152.5,136.5C 153.511,128.958 156.178,122.125 160.5,116C 162.167,115.333 163.833,115.333 165.5,116C 170.289,117.969 174.956,120.136 179.5,122.5C 184.282,120.61 188.948,118.443 193.5,116C 195.989,115.059 197.989,115.559 199.5,117.5 Z M 168.5,125.5 C 168.973,126.906 169.973,127.573 171.5,127.5C 172.833,128.167 174.167,128.833 175.5,129.5C 177.102,131.074 179.102,131.741 181.5,131.5C 181.167,132.167 180.833,132.833 180.5,133.5C 179.167,133.167 177.833,132.833 176.5,132.5C 174.642,130.269 172.642,130.269 170.5,132.5C 168.596,132.738 167.262,133.738 166.5,135.5C 164.896,136.287 164.229,137.62 164.5,139.5C 162.801,139.66 161.134,139.494 159.5,139C 160.337,137.989 160.67,136.822 160.5,135.5C 162.106,132.014 163.106,128.347 163.5,124.5C 165.216,124.629 166.883,124.962 168.5,125.5 Z M 196.5,127.5 C 196.595,129.786 197.262,131.786 198.5,133.5C 198.263,134.791 198.596,135.791 199.5,136.5C 199.167,137.167 198.833,137.833 198.5,138.5C 197.167,139.833 195.833,139.833 194.5,138.5C 194.573,136.973 193.906,135.973 192.5,135.5C 191.738,133.738 190.404,132.738 188.5,132.5C 187.5,131.833 186.5,131.167 185.5,130.5C 184.292,131.234 182.959,131.567 181.5,131.5C 182.167,130.833 182.833,130.167 183.5,129.5C 187.134,128.122 190.634,126.455 194,124.5C 195.31,125.13 196.144,126.13 196.5,127.5 Z M 176.5,139.5 C 178.203,143.184 180.203,143.351 182.5,140C 183.793,139.51 185.127,139.343 186.5,139.5C 187.833,141.5 187.833,143.5 186.5,145.5C 184.37,147.127 182.37,148.96 180.5,151C 179.423,151.47 178.423,151.303 177.5,150.5C 177.262,148.596 176.262,147.262 174.5,146.5C 173.833,145.833 173.167,145.167 172.5,144.5C 171.756,141.05 173.09,139.384 176.5,139.5 Z M 180.5,168.5 C 180.5,168.833 180.5,169.167 180.5,169.5C 180.158,170.338 179.492,170.672 178.5,170.5C 178.5,170.167 178.5,169.833 178.5,169.5C 179.167,169.167 179.833,168.833 180.5,168.5 Z"/></g>
<g><path style="opacity:0.894" fill="#8a8a8a" d="M 213.5,115.5 C 215.277,118.505 216.277,121.838 216.5,125.5C 214.723,122.495 213.723,119.162 213.5,115.5 Z"/></g>
<g><path style="opacity:0.631" fill="#868686" d="M 199.5,117.5 C 201.975,118.687 202.975,120.687 202.5,123.5C 201.508,121.544 200.508,119.544 199.5,117.5 Z"/></g>
<g><path style="opacity:0.012" fill="#1e1e1e" d="M 208.5,124.5 C 209.338,124.842 209.672,125.508 209.5,126.5C 208.167,126.833 208.167,127.167 209.5,127.5C 210.338,127.842 210.672,128.508 210.5,129.5C 212.04,131.838 212.706,134.505 212.5,137.5C 210.038,133.979 208.038,130.146 206.5,126C 206.93,125.035 207.596,124.535 208.5,124.5 Z"/></g>
<g><path style="opacity:1" fill="#969696" d="M 125.5,124.5 C 124.737,126.368 123.737,128.035 122.5,129.5C 122.5,127.833 122.5,126.167 122.5,124.5C 123.5,124.5 124.5,124.5 125.5,124.5 Z"/></g>
<g><path style="opacity:0.584" fill="#636363" d="M 134.5,126.5 C 132.833,126.5 131.167,126.5 129.5,126.5C 131.167,123.833 132.833,123.833 134.5,126.5 Z"/></g>
<g><path style="opacity:0.863" fill="#727272" d="M 105.5,126.5 C 107.048,126.821 107.715,127.821 107.5,129.5C 106.599,128.71 105.932,127.71 105.5,126.5 Z"/></g>
<g><path style="opacity:0.271" fill="#626262" d="M 168.5,125.5 C 170.027,125.427 171.027,126.094 171.5,127.5C 169.973,127.573 168.973,126.906 168.5,125.5 Z"/></g>
<g><path style="opacity:0.773" fill="#757575" d="M 203.5,125.5 C 205.072,128.215 206.072,131.215 206.5,134.5C 204.528,131.916 203.528,128.916 203.5,125.5 Z"/></g>
<g><path style="opacity:0.98" fill="#828282" d="M 175.5,129.5 C 178.167,129.5 180.833,129.5 183.5,129.5C 182.833,130.167 182.167,130.833 181.5,131.5C 179.102,131.741 177.102,131.074 175.5,129.5 Z"/></g>
<g><path style="opacity:0.522" fill="#6e6e6e" d="M 196.5,127.5 C 198.074,129.102 198.741,131.102 198.5,133.5C 197.262,131.786 196.595,129.786 196.5,127.5 Z"/></g>
<g><path style="opacity:0.451" fill="#4e4e4e" d="M 176.5,132.5 C 174.5,132.5 172.5,132.5 170.5,132.5C 172.642,130.269 174.642,130.269 176.5,132.5 Z"/></g>
<g><path style="opacity:0.388" fill="#484848" d="M 185.5,130.5 C 186.5,131.167 187.5,131.833 188.5,132.5C 185.763,132.401 183.096,132.735 180.5,133.5C 180.833,132.833 181.167,132.167 181.5,131.5C 182.959,131.567 184.292,131.234 185.5,130.5 Z"/></g>
<g><path style="opacity:0.71" fill="#8a8a8a" d="M 217.5,129.5 C 219.072,132.215 220.072,135.215 220.5,138.5C 218.528,135.916 217.528,132.916 217.5,129.5 Z"/></g>
<g><path style="opacity:0.427" fill="#3a3a3a" d="M 152.5,136.5 C 152.672,137.492 152.338,138.158 151.5,138.5C 150.588,137.262 150.421,135.928 151,134.5C 151.278,135.416 151.778,136.082 152.5,136.5 Z"/></g>
<g><path style="opacity:0.196" fill="#575757" d="M 166.5,135.5 C 166.34,137.153 165.674,138.486 164.5,139.5C 164.229,137.62 164.896,136.287 166.5,135.5 Z"/></g>
<g><path style="opacity:0.38" fill="#6b6b6b" d="M 192.5,135.5 C 193.906,135.973 194.573,136.973 194.5,138.5C 193.094,138.027 192.427,137.027 192.5,135.5 Z"/></g>
<g><path style="opacity:0.982" fill="#737373" d="M 176.5,139.5 C 173.09,139.384 171.756,141.05 172.5,144.5C 171.776,142.782 171.109,140.948 170.5,139C 172.712,138.211 174.712,138.378 176.5,139.5 Z"/></g>
<g><path style="opacity:0.525" fill="#656565" d="M 112.5,139.5 C 114.167,139.5 115.833,139.5 117.5,139.5C 115.833,142.167 114.167,142.167 112.5,139.5 Z"/></g>
<g><path style="opacity:0.363" fill="#686868" d="M 160.5,135.5 C 160.67,136.822 160.337,137.989 159.5,139C 161.134,139.494 162.801,139.66 164.5,139.5C 162.735,140.461 160.735,140.795 158.5,140.5C 158.402,138.447 159.069,136.78 160.5,135.5 Z"/></g>
<g><path style="opacity:0.334" fill="#515151" d="M 199.5,136.5 C 200.434,137.568 200.768,138.901 200.5,140.5C 197.918,140.975 195.918,140.308 194.5,138.5C 195.833,139.833 197.167,139.833 198.5,138.5C 198.833,137.833 199.167,137.167 199.5,136.5 Z"/></g>
<g><path style="opacity:0.549" fill="#878787" d="M 186.5,139.5 C 189.167,141.5 189.167,143.5 186.5,145.5C 187.833,143.5 187.833,141.5 186.5,139.5 Z"/></g>
<g><path style="opacity:0.018" fill="#181818" d="M 151.5,138.5 C 151.325,140.621 151.659,142.621 152.5,144.5C 151.778,144.918 151.278,145.584 151,146.5C 150.199,143.633 150.366,140.966 151.5,138.5 Z"/></g>
<g><path style="opacity:0.259" fill="#4f4f4f" d="M 213.5,140.5 C 214.486,142.426 215.486,144.426 216.5,146.5C 214.031,145.393 213.031,143.393 213.5,140.5 Z"/></g>
<g><path style="opacity:0.482" fill="#484848" d="M 174.5,146.5 C 176.262,147.262 177.262,148.596 177.5,150.5C 175.738,149.738 174.738,148.404 174.5,146.5 Z"/></g>
<g><path style="opacity:0.018" fill="#202020" d="M 165.5,148.5 C 165.5,149.5 165.5,150.5 165.5,151.5C 164.609,150.89 163.609,150.557 162.5,150.5C 162.821,148.952 163.821,148.285 165.5,148.5 Z"/></g>
<g><path style="opacity:0.008" fill="#000000" d="M 196.5,148.5 C 197.833,149.167 197.833,149.167 196.5,148.5 Z"/></g>
<g><path style="opacity:0.008" fill="#303030" d="M 191.5,150.5 C 191.5,151.833 190.833,152.5 189.5,152.5C 189.833,151.5 190.5,150.833 191.5,150.5 Z"/></g>
<g><path style="opacity:0.353" fill="#4a4a4a" d="M 196.5,149.5 C 196.5,149.833 196.5,150.167 196.5,150.5C 195.167,151.5 193.833,152.5 192.5,153.5C 192.833,151.167 194.167,149.833 196.5,149.5 Z"/></g>
<g><path style="opacity:0.11" fill="#353535" d="M 149.5,126.5 C 149.667,139.837 149.5,153.171 149,166.5C 148.768,167.737 148.268,168.737 147.5,169.5C 148.099,155.018 148.766,140.685 149.5,126.5 Z"/></g>
<g><path style="opacity:0.224" fill="#595959" d="M 162.5,150.5 C 162.573,152.027 161.906,153.027 160.5,153.5C 160.427,151.973 161.094,150.973 162.5,150.5 Z"/></g>
<g><path style="opacity:0.38" fill="#717171" d="M 196.5,150.5 C 197.906,150.973 198.573,151.973 198.5,153.5C 197.094,153.027 196.427,152.027 196.5,150.5 Z"/></g>
<g><path style="opacity:0.463" fill="#434343" d="M 171.5,157.5 C 172.833,157.5 173.5,158.167 173.5,159.5C 172.833,159.833 172.167,160.167 171.5,160.5C 171.5,159.5 171.5,158.5 171.5,157.5 Z"/></g>
<g><path style="opacity:0.01" fill="#202020" d="M 174.5,157.5 C 175.853,159.128 175.519,160.462 173.5,161.5C 173.5,160.833 173.5,160.167 173.5,159.5C 174.338,159.158 174.672,158.492 174.5,157.5 Z"/></g>
<g><path style="opacity:0.029" fill="#292929" d="M 188.5,153.5 C 189.632,154.354 190.965,154.354 192.5,153.5C 190.652,155.516 188.985,157.683 187.5,160C 188.956,163.4 189.956,166.9 190.5,170.5C 190.167,170.5 189.833,170.5 189.5,170.5C 188.833,170.5 188.5,170.167 188.5,169.5C 186.399,166.203 185.065,162.537 184.5,158.5C 185.167,158.5 185.5,158.167 185.5,157.5C 186.833,157.167 186.833,156.833 185.5,156.5C 186.167,155.167 187.167,154.167 188.5,153.5 Z"/></g>
<g><path style="opacity:0.418" fill="#818181" d="M 160.5,171.5 C 160.5,170.833 160.167,170.5 159.5,170.5C 160.757,167.904 161.924,165.237 163,162.5C 163.247,165.849 162.414,168.849 160.5,171.5 Z"/></g>
<g><path style="opacity:0.404" fill="#727272" d="M 199.5,170.5 C 199.062,170.435 198.728,170.601 198.5,171C 199.756,171.417 200.423,172.25 200.5,173.5C 199.833,173.5 199.5,173.833 199.5,174.5C 197.877,171.4 196.543,168.067 195.5,164.5C 195.846,163.304 196.346,163.304 197,164.5C 197.573,166.641 198.406,168.641 199.5,170.5 Z"/></g>
<g><path style="opacity:0.137" fill="#545454" d="M 180.5,168.5 C 179.833,168.833 179.167,169.167 178.5,169.5C 179.032,166.54 179.699,166.207 180.5,168.5 Z"/></g>
<g><path style="opacity:0.014" fill="#181818" d="M 180.5,169.5 C 181.338,169.842 181.672,170.508 181.5,171.5C 180.732,172.263 180.232,173.263 180,174.5C 179.148,173.429 178.315,172.429 177.5,171.5C 177.5,170.833 177.833,170.5 178.5,170.5C 179.492,170.672 180.158,170.338 180.5,169.5 Z"/></g>
<g><path style="opacity:1" fill="#6f6f6f" d="M 171.5,169.5 C 172.167,171.5 172.833,173.5 173.5,175.5C 171.858,173.919 169.858,173.253 167.5,173.5C 167.263,172.209 167.596,171.209 168.5,170.5C 168.369,171.376 168.702,172.043 169.5,172.5C 170.463,172.03 170.463,171.363 169.5,170.5C 170.167,170.167 170.833,169.833 171.5,169.5 Z M 168.5,170.5 C 168.833,170.5 169.167,170.5 169.5,170.5C 170.463,171.363 170.463,172.03 169.5,172.5C 168.702,172.043 168.369,171.376 168.5,170.5 Z"/></g>
<g><path style="opacity:0.435" fill="#6b6b6b" d="M 83.5,171.5 C 85.0269,171.427 86.0269,172.094 86.5,173.5C 84.9731,173.573 83.9731,172.906 83.5,171.5 Z"/></g>
<g><path style="opacity:0.013" fill="#151515" d="M 190.5,171.5 C 191.338,171.842 191.672,172.508 191.5,173.5C 190.167,174.833 188.833,174.833 187.5,173.5C 187.5,172.833 187.833,172.5 188.5,172.5C 189.492,172.672 190.158,172.338 190.5,171.5 Z"/></g>
<g><path style="opacity:0.566" fill="#737373" d="M 100.5,135.5 C 101.176,147.569 101.842,159.735 102.5,172C 101.362,193.085 101.362,213.918 102.5,234.5C 101.883,234.389 101.383,234.056 101,233.5C 100.5,200.835 100.333,168.168 100.5,135.5 Z"/></g>
<g><path style="opacity:0.51" fill="#7d7d7d" d="M 177.5,172.5 C 177.617,174.484 176.95,176.15 175.5,177.5C 174.478,177.145 173.811,176.478 173.5,175.5C 175.43,175.229 176.764,174.229 177.5,172.5 Z"/></g>
<g><path style="opacity:0.067" fill="#484848" d="M 181.5,171.5 C 182.485,173.506 183.818,175.173 185.5,176.5C 184.791,177.404 183.791,177.737 182.5,177.5C 182.167,175.5 181.833,173.5 181.5,171.5 Z"/></g>
<g><path style="opacity:0.01" fill="#1d1d1d" d="M 202.5,177.5 C 203.674,178.514 204.34,179.847 204.5,181.5C 205.338,181.842 205.672,182.508 205.5,183.5C 204.833,183.5 204.5,183.833 204.5,184.5C 203.833,184.5 203.167,184.5 202.5,184.5C 201.833,182.5 201.167,180.5 200.5,178.5C 201.492,178.672 202.158,178.338 202.5,177.5 Z"/></g>
<g><path style="opacity:0.243" fill="#2e2e2e" d="M 158.5,178.5 C 158.737,179.791 158.404,180.791 157.5,181.5C 157.062,181.565 156.728,181.399 156.5,181C 157.066,180.005 157.733,179.172 158.5,178.5 Z"/></g>
<g><path style="opacity:0.729" fill="#b2b2b2" d="M 143.5,173.5 C 141.052,174.473 138.385,174.806 135.5,174.5C 135.174,183.349 135.507,192.016 136.5,200.5C 136.688,202.103 136.188,203.437 135,204.5C 134.5,194.172 134.334,183.839 134.5,173.5C 137.5,173.5 140.5,173.5 143.5,173.5 Z"/></g>
<g><path style="opacity:0.596" fill="#6a6a6a" d="M 193.5,179.5 C 194.924,181.515 195.59,183.848 195.5,186.5C 194.076,184.485 193.41,182.152 193.5,179.5 Z"/></g>
<g><path style="opacity:0.647" fill="#5e5e5e" d="M 157.5,182.5 C 157.768,184.099 157.434,185.432 156.5,186.5C 156.443,185.391 156.11,184.391 155.5,183.5C 156.167,183.167 156.833,182.833 157.5,182.5 Z"/></g>
<g><path style="opacity:0.027" fill="#1d1d1d" d="M 205.5,183.5 C 206.674,184.514 207.34,185.847 207.5,187.5C 206.167,188.167 206.167,188.833 207.5,189.5C 207.328,190.492 207.662,191.158 208.5,191.5C 207.5,192.167 206.5,192.833 205.5,193.5C 204.662,193.158 204.328,192.492 204.5,191.5C 205.239,191.631 205.906,191.464 206.5,191C 205.263,190.768 204.263,190.268 203.5,189.5C 204.043,189.44 204.376,189.107 204.5,188.5C 203.757,187.818 203.091,187.151 202.5,186.5C 203.5,186.167 204.167,185.5 204.5,184.5C 205.167,184.5 205.5,184.167 205.5,183.5 Z"/></g>
<g><path style="opacity:0.212" fill="#535353" d="M 144.5,185.5 C 144.573,187.027 143.906,188.027 142.5,188.5C 142.427,186.973 143.094,185.973 144.5,185.5 Z"/></g>
<g><path style="opacity:0.922" fill="#929292" d="M 152.5,185.5 C 151.89,187.434 150.89,189.101 149.5,190.5C 149.241,188.011 150.241,186.344 152.5,185.5 Z"/></g>
<g><path style="opacity:0.859" fill="#7a7a7a" d="M 156.5,186.5 C 156.074,190.427 155.074,194.093 153.5,197.5C 153.517,193.466 154.517,189.799 156.5,186.5 Z"/></g>
<g><path style="opacity:0.027" fill="#4f4f4f" d="M 163.5,187.5 C 163.59,190.152 162.924,192.485 161.5,194.5C 161.41,191.848 162.076,189.515 163.5,187.5 Z"/></g>
<g><path style="opacity:0.925" fill="#878787" d="M 142.5,189.5 C 142.408,191.848 141.408,193.514 139.5,194.5C 139.75,192.326 140.75,190.659 142.5,189.5 Z"/></g>
<g><path style="opacity:0.278" fill="#4f4f4f" d="M 149.5,191.5 C 149.34,193.153 148.674,194.486 147.5,195.5C 147.229,193.62 147.896,192.287 149.5,191.5 Z"/></g>
<g><path style="opacity:0.01" fill="#191919" d="M 139.5,194.5 C 139.34,196.153 138.674,197.486 137.5,198.5C 136.766,197.292 136.433,195.959 136.5,194.5C 137.5,194.5 138.5,194.5 139.5,194.5 Z"/></g>
<g><path style="opacity:0.801" fill="#939393" d="M 86.5,173.5 C 89.5,173.5 92.5,173.5 95.5,173.5C 95.5,194.833 95.5,216.167 95.5,237.5C 94.71,236.391 94.21,235.058 94,233.5C 93.5,213.836 93.3334,194.169 93.5,174.5C 90.9407,174.802 88.6074,174.468 86.5,173.5 Z"/></g>
<g><path style="opacity:0.737" fill="#858585" d="M 116.5,174.5 C 118.101,175.519 119.101,177.019 119.5,179C 119.619,192.509 119.286,206.175 118.5,220C 118.667,223.833 118.833,227.667 119,231.5C 119.366,233.452 120.199,235.118 121.5,236.5C 119.589,236.426 118.422,235.426 118,233.5C 117.809,213.79 117.309,194.123 116.5,174.5 Z"/></g>
<g><path style="opacity:0.475" fill="#656565" d="M 199.5,200.5 C 201.074,202.102 201.741,204.102 201.5,206.5C 200.262,204.786 199.595,202.786 199.5,200.5 Z"/></g>
<g><path style="opacity:0.231" fill="#3d3d3d" d="M 142.5,205.5 C 142.34,207.153 141.674,208.486 140.5,209.5C 140.229,207.62 140.896,206.287 142.5,205.5 Z"/></g>
<g><path style="opacity:0.925" fill="#969696" d="M 153.5,197.5 C 152.983,201.222 152.15,204.888 151,208.5C 150.617,209.056 150.117,209.389 149.5,209.5C 149.926,205.098 151.26,201.098 153.5,197.5 Z"/></g>
<g><path style="opacity:0.282" fill="#626262" d="M 224.5,206.5 C 225.906,206.973 226.573,207.973 226.5,209.5C 225.094,209.027 224.427,208.027 224.5,206.5 Z"/></g>
<g><path style="opacity:0.192" fill="#3e3e3e" d="M 217.5,208.5 C 218.906,208.973 219.573,209.973 219.5,211.5C 218.094,211.027 217.427,210.027 217.5,208.5 Z"/></g>
<g><path style="opacity:0.676" fill="#959595" d="M 138.5,212.5 C 138.5,213.5 138.5,214.5 138.5,215.5C 141.391,216.403 144.391,216.736 147.5,216.5C 144.038,217.482 140.371,217.815 136.5,217.5C 136.402,215.447 137.069,213.78 138.5,212.5 Z"/></g>
<g><path style="opacity:0.731" fill="#a8a8a8" d="M 156.5,211.5 C 156.714,213.144 156.38,214.644 155.5,216C 171.51,216.833 187.51,216.666 203.5,215.5C 202.975,214.808 202.308,214.308 201.5,214C 202.416,213.722 203.082,213.222 203.5,212.5C 204.451,213.919 204.784,215.585 204.5,217.5C 187.833,217.5 171.167,217.5 154.5,217.5C 154.259,215.102 154.926,213.102 156.5,211.5 Z"/></g>
<g><path style="opacity:0.255" fill="#595959" d="M 228.5,214.5 C 229.906,214.973 230.573,215.973 230.5,217.5C 229.094,217.027 228.427,216.027 228.5,214.5 Z"/></g>
<g><path style="opacity:0.058" fill="#353535" d="M 161.5,223.5 C 161.5,225.167 161.5,226.833 161.5,228.5C 160.566,227.432 160.232,226.099 160.5,224.5C 152.167,224.5 143.833,224.5 135.5,224.5C 135.815,228.371 135.482,232.038 134.5,235.5C 134.5,231.5 134.5,227.5 134.5,223.5C 143.5,223.5 152.5,223.5 161.5,223.5 Z"/></g>
<g><path style="opacity:0.049" fill="#262626" d="M 227.5,223.5 C 218.348,224.494 209.015,224.827 199.5,224.5C 199.813,228.042 199.479,231.375 198.5,234.5C 198.5,230.833 198.5,227.167 198.5,223.5C 208.167,223.5 217.833,223.5 227.5,223.5 Z"/></g>
<g><path style="opacity:0.097" fill="#2b2b2b" d="M 176.5,228.5 C 175.566,227.432 175.232,226.099 175.5,224.5C 173.5,224.5 171.5,224.5 169.5,224.5C 169.5,228.167 169.5,231.833 169.5,235.5C 168.517,231.702 168.183,227.702 168.5,223.5C 171.167,223.5 173.833,223.5 176.5,223.5C 176.5,225.167 176.5,226.833 176.5,228.5 Z"/></g>
<g><path style="opacity:0.184" fill="#353535" d="M 191.5,224.5 C 189.167,224.5 186.833,224.5 184.5,224.5C 184.5,227.833 184.5,231.167 184.5,234.5C 183.518,231.038 183.185,227.371 183.5,223.5C 186.385,223.194 189.052,223.527 191.5,224.5 Z"/></g>
<g><path style="opacity:0.602" fill="#8a8a8a" d="M 161.5,223.5 C 162.381,228.669 163.048,234.002 163.5,239.5C 160.772,236.246 160.105,232.58 161.5,228.5C 161.5,226.833 161.5,225.167 161.5,223.5 Z"/></g>
<g><path style="opacity:0.451" fill="#7a7a7a" d="M 103.5,235.5 C 105.451,236.641 107.451,236.641 109.5,235.5C 108.866,236.947 107.699,237.613 106,237.5C 104.624,237.316 103.791,236.649 103.5,235.5 Z"/></g>
<g><path style="opacity:0.408" fill="#6a6a6a" d="M 169.5,235.5 C 171.5,236.833 173.5,236.833 175.5,235.5C 173.5,238.167 171.5,238.167 169.5,235.5 Z"/></g>
<g><path style="opacity:0.439" fill="#656565" d="M 184.5,235.5 C 186.5,236.833 188.5,236.833 190.5,235.5C 188.5,238.167 186.5,238.167 184.5,235.5 Z"/></g>
<g><path style="opacity:0.024" fill="#323232" d="M 117.5,242.5 C 116.167,242.167 114.833,241.833 113.5,241.5C 114.999,239.198 116.332,239.531 117.5,242.5 Z"/></g>
<g><path style="opacity:0.31" fill="#4c4c4c" d="M 179.5,241.5 C 180.779,240.285 181.779,240.618 182.5,242.5C 181.391,242.443 180.391,242.11 179.5,241.5 Z"/></g>
<g><path style="opacity:0.904" fill="#939393" d="M 182.5,242.5 C 186.167,242.5 189.833,242.5 193.5,242.5C 189.865,245.065 186.199,245.065 182.5,242.5 Z"/></g>
</svg>
